<svg id="cleaning" xmlns="http://www.w3.org/2000/svg" viewBox="0 0 3200 2000"><defs><style>.cls-1{fill:#fff;}.cls-2{fill:#ebf3fa;}.cls-3{fill:#c0d8fb;}.cls-4{fill:#dfebfd;}.cls-5{fill:#b7d3f3;}.cls-6{fill:#95b3ef;}.cls-7{fill:#afcdfb;}.cls-11,.cls-8,.cls-9{fill:#9db0f4;}.cls-8{opacity:0.2;}.cls-9{opacity:0.4;}.cls-10{fill:#c4d1f7;}.cls-12,.cls-14{opacity:0.5;}.cls-13{fill:#7b94db;}.cls-14,.cls-19{fill:#86a2f2;}.cls-15{fill:#f9ddbf;}.cls-16{fill:#f99746;}.cls-17{fill:#bdd1f9;}.cls-18{fill:#718ddb;}.cls-20{fill:#2b478b;}.cls-21{fill:#2e3552;}.cls-22{fill:#a8d29f;}.cls-23{fill:#82b378;}.cls-24{fill:#91b5f8;}.cls-25{fill:#020202;}.cls-26{fill:#ffb27d;}.cls-27{fill:#1c2470;}.cls-28{fill:#2b32b2;}.cls-29{fill:#233862;}.cls-30{fill:#fffacf;}.cls-31{fill:#ed985f;}.cls-32{fill:#a6f748;}.cls-33{fill:#fffaa6;}.cls-34{fill:#ffb93e;}.cls-35{fill:#ed7d2b;}.cls-36{fill:#2c3a64;}.cls-37{fill:#244553;}.cls-38{fill:#3a5385;}.cls-39{fill:#a4d7c9;}.cls-40{fill:#528d7d;}</style></defs><title>cleaning</title><rect class="cls-1" width="3200" height="2000"/><path class="cls-2" d="M2975.42,1771.07l-2593.19-.79S46.66,1334,201.17,918.82c256-687.92,1041.46-255,1301.65-515.18a584.07,584.07,0,0,1,76.65-64.3c55.45-39.11,118.25-69.81,185.64-92.4,511.78-171.57,1287.41,125.18,1108.38,767.14C2769.78,1385.89,3189.07,1399.41,2975.42,1771.07Z" transform="translate(15.51 -0.15)"/><rect class="cls-3" x="1016.49" y="604.24" width="183.34" height="177.86" rx="13.11" ry="13.11"/><rect class="cls-4" x="1024.43" y="611.95" width="167.45" height="162.45" rx="11.98" ry="11.98"/><circle class="cls-5" cx="1108.16" cy="628.18" r="3.8"/><circle class="cls-5" cx="1122.81" cy="635.54" r="3.8" transform="translate(37.39 1308.13) rotate(-60.94)"/><circle class="cls-5" cx="1147.81" cy="657.75" r="3.8" transform="translate(-157.77 727.08) rotate(-32.83)"/><circle class="cls-5" cx="1174.26" cy="690.48" r="3.8"/><circle class="cls-5" cx="1149.43" cy="726.99" r="3.8" transform="translate(-161.89 1025.55) rotate(-45)"/><circle class="cls-5" cx="1125.58" cy="750.9" r="3.8" transform="translate(-185.79 1015.62) rotate(-45)"/><circle class="cls-5" cx="1108.16" cy="760.39" r="3.8"/><circle class="cls-5" cx="1062.36" cy="635.54" r="3.8" transform="translate(-159.45 595.91) rotate(-29.06)"/><circle class="cls-5" cx="1037.37" cy="657.75" r="3.8" transform="translate(-62.21 1172.71) rotate(-57.17)"/><circle class="cls-5" cx="1041.93" cy="690.48" r="3.8"/><circle class="cls-5" cx="1035.75" cy="726.99" r="3.8" transform="translate(-195.19 945.16) rotate(-45)"/><circle class="cls-5" cx="1059.6" cy="750.9" r="3.8" transform="translate(-205.11 969.03) rotate(-45)"/><circle class="cls-5" cx="1110.93" cy="690.48" r="3.8"/><rect class="cls-5" x="1110.41" y="643.04" width="1.04" height="47.44"/><rect class="cls-5" x="1091.53" y="679.14" width="31.98" height="3.11" transform="translate(-168.44 829.06) rotate(-38.14)"/><path class="cls-6" d="M1780.29,1111.89h-23.94a4.73,4.73,0,0,1-4.71-4.71h0a4.73,4.73,0,0,1,4.71-4.71h23.94a4.73,4.73,0,0,1,4.71,4.71h0A4.73,4.73,0,0,1,1780.29,1111.89Z" transform="translate(15.51 -0.15)"/><path class="cls-6" d="M1947.68,1111.89h-23.94a4.73,4.73,0,0,1-4.71-4.71h0a4.73,4.73,0,0,1,4.71-4.71h23.94a4.73,4.73,0,0,1,4.71,4.71h0A4.73,4.73,0,0,1,1947.68,1111.89Z" transform="translate(15.51 -0.15)"/><path class="cls-7" d="M1790.77,1072.3h156.62a0,0,0,0,1,0,0v117.31a19.81,19.81,0,0,1-19.81,19.81h-117a19.8,19.8,0,0,1-19.8-19.8V1072.3A0,0,0,0,1,1790.77,1072.3Z"/><path class="cls-6" d="M1932.51,1077.45H1774.63a2.88,2.88,0,0,1-2.87-2.87h0a2.88,2.88,0,0,1,2.87-2.87h157.88a2.88,2.88,0,0,1,2.87,2.87h0A2.88,2.88,0,0,1,1932.51,1077.45Z" transform="translate(15.51 -0.15)"/><path class="cls-8" d="M1765.1,248.65V486.7H1579.46V341C1634.91,301.94,1697.71,271.23,1765.1,248.65Z" transform="translate(15.51 -0.15)"/><rect class="cls-9" x="1554.06" y="486.55" width="267.48" height="76.29"/><polygon class="cls-8" points="1438.28 700.57 1560.05 562.84 1827.53 562.84 1937.31 700.57 1438.28 700.57"/><rect class="cls-9" x="1403.35" y="700.57" width="581.87" height="38.82"/><rect class="cls-10" x="886.13" y="1224.59" width="1121.09" height="547.94"/><path class="cls-11" d="M889,1224.59H2011.17a12.06,12.06,0,0,1,12.06,12.06v4.11a12.06,12.06,0,0,1-12.06,12.06h-1123a0,0,0,0,1,0,0v-27.39A.84.84,0,0,1,889,1224.59Z"/><g class="cls-12"><path class="cls-13" d="M1416.1,1501.57H918.6v-219.1h497.5Zm-491.79-5.71h486.07V1288.19H924.31Z" transform="translate(15.51 -0.15)"/></g><g class="cls-12"><path class="cls-13" d="M1416.1,1745.25H918.6v-219.1h497.5Zm-491.79-5.71h486.07V1531.87H924.31Z" transform="translate(15.51 -0.15)"/></g><g class="cls-12"><path class="cls-13" d="M1947.86,1501.57h-497.5v-219.1h497.5Zm-491.79-5.71h486.07V1288.19H1456.07Z" transform="translate(15.51 -0.15)"/></g><g class="cls-12"><path class="cls-13" d="M1947.86,1745.25h-497.5v-219.1h497.5Zm-491.79-5.71h486.07V1531.87H1456.07Z" transform="translate(15.51 -0.15)"/></g><path class="cls-13" d="M1203.72,1322H1131a6,6,0,0,1-5.93-5.93h0a6,6,0,0,1,5.93-5.93h72.74a6,6,0,0,1,5.93,5.93h0A6,6,0,0,1,1203.72,1322Z" transform="translate(15.51 -0.15)"/><path class="cls-13" d="M1203.72,1562H1131a6,6,0,0,1-5.93-5.93h0a6,6,0,0,1,5.93-5.93h72.74a6,6,0,0,1,5.93,5.93h0A6,6,0,0,1,1203.72,1562Z" transform="translate(15.51 -0.15)"/><path class="cls-13" d="M1740,1322h-72.74a6,6,0,0,1-5.93-5.93h0a6,6,0,0,1,5.93-5.93H1740a6,6,0,0,1,5.93,5.93h0A6,6,0,0,1,1740,1322Z" transform="translate(15.51 -0.15)"/><path class="cls-13" d="M1740,1562h-72.74a6,6,0,0,1-5.93-5.93h0a6,6,0,0,1,5.93-5.93H1740a6,6,0,0,1,5.93,5.93h0A6,6,0,0,1,1740,1562Z" transform="translate(15.51 -0.15)"/><rect class="cls-8" x="2042.34" y="435.06" width="493.2" height="1327.42"/><rect class="cls-11" x="2098.31" y="1076.1" width="27.52" height="114.6" rx="12.83" ry="12.83" transform="translate(3260.98 -978.82) rotate(90)"/><rect class="cls-14" x="2215.2" y="553.71" width="147.47" height="79.74" rx="14.82" ry="14.82"/><rect class="cls-10" x="2042.34" y="1174.53" width="493.2" height="6.2"/><path class="cls-15" d="M1073.71,977.07H934.9a12.57,12.57,0,0,0-12.57,12.57v223a12.57,12.57,0,0,0,12.57,12.57h138.82a12.57,12.57,0,0,0,12.57-12.57v-223A12.57,12.57,0,0,0,1073.71,977.07Zm-40.24,22H975.13a5.83,5.83,0,1,1,0-11.67h58.34a5.83,5.83,0,1,1,0,11.67Z" transform="translate(15.51 -0.15)"/><path class="cls-16" d="M1140.1,1032.82H1032.47a9.75,9.75,0,0,0-9.75,9.75v172.9a9.75,9.75,0,0,0,9.75,9.75H1140.1a9.75,9.75,0,0,0,9.75-9.75v-172.9A9.75,9.75,0,0,0,1140.1,1032.82Zm-31.2,17.09h-45.23a4.52,4.52,0,0,1,0-9h45.23a4.52,4.52,0,0,1,0,9Z" transform="translate(15.51 -0.15)"/><rect class="cls-17" x="1175.6" y="975.37" width="221.35" height="24.63"/><path class="cls-17" d="M1363.64,1126.29v-31.43a6.7,6.7,0,0,0-1.59-4.33l-3.63-4.28a22.76,22.76,0,0,0-17.35-8h0a22.76,22.76,0,0,0-17.79,8.57l-3,3.79a6.7,6.7,0,0,0-1.46,4.18v31.55a5.66,5.66,0,0,0,5.66,5.66H1358A5.66,5.66,0,0,0,1363.64,1126.29Zm-31-3.08a2.44,2.44,0,1,1-4.87,0V1096a2.44,2.44,0,1,1,4.87,0Zm11,0a2.44,2.44,0,1,1-4.87,0V1096a2.44,2.44,0,0,1,4.87,0Zm11,0a2.44,2.44,0,1,1-4.87,0V1096a2.44,2.44,0,1,1,4.87,0Z" transform="translate(15.51 -0.15)"/><rect class="cls-17" x="1352.78" y="985.06" width="6.38" height="97.16"/><path class="cls-17" d="M1287.33,1112.46v-12.52a25,25,0,0,0-3.66-13.28l-.26-.41c-3.24-5.1-8-8-13-8h0c-5.2,0-10.11,3.15-13.35,8.57h0a25.15,25.15,0,0,0-3.36,12.8v12.88c0,10.76,6.55,19.49,14.62,19.49h4.4C1280.78,1132,1287.33,1123.23,1287.33,1112.46Z" transform="translate(15.51 -0.15)"/><rect class="cls-17" x="1282.07" y="985.06" width="6.38" height="97.16"/><path class="cls-17" d="M1221.7,1108.12v-12.4a20.5,20.5,0,0,0-4.76-13.15l-.34-.4a22.12,22.12,0,0,0-17-8h0a22.13,22.13,0,0,0-17.38,8.49h0a20.5,20.5,0,0,0-4.38,12.68v12.75a19.17,19.17,0,0,0,19,19.3h5.74A19.17,19.17,0,0,0,1221.7,1108.12Z" transform="translate(15.51 -0.15)"/><rect class="cls-17" x="1211.36" y="985.06" width="6.38" height="97.16"/><rect class="cls-17" x="1213.29" y="987.68" width="2.53" height="5.78" rx="1" ry="1"/><rect class="cls-17" x="1284" y="987.68" width="2.53" height="5.78" rx="1" ry="1"/><rect class="cls-17" x="1354.71" y="987.68" width="2.53" height="5.78" rx="1" ry="1"/><rect class="cls-10" x="376.56" y="851.21" width="511.94" height="920.92"/><rect class="cls-18" x="424.55" y="891.56" width="421.8" height="211.96"/><rect class="cls-19" x="746.86" y="891.63" width="98.56" height="211.57"/><circle class="cls-1" cx="797.87" cy="983.5" r="13.25"/><rect class="cls-20" x="761.57" y="903.22" width="72.07" height="33.38"/><rect class="cls-1" x="769.96" y="1019.53" width="13.85" height="13.85"/><rect class="cls-1" x="792.28" y="1019.53" width="13.85" height="13.85"/><rect class="cls-1" x="814.4" y="1019.53" width="13.85" height="13.85"/><rect class="cls-1" x="769.96" y="1042.81" width="13.85" height="13.85"/><rect class="cls-1" x="792.28" y="1042.81" width="13.85" height="13.85"/><rect class="cls-1" x="814.4" y="1042.81" width="13.85" height="13.85"/><rect class="cls-1" x="769.96" y="1066.09" width="13.85" height="13.85"/><rect class="cls-1" x="792.28" y="1066.09" width="13.85" height="13.85"/><rect class="cls-1" x="814.4" y="1066.09" width="13.85" height="13.85"/><path class="cls-19" d="M838,1106.16H402.49V888.83H838Zm-422.37-13.1H824.86V901.93H415.59Z" transform="translate(15.51 -0.15)"/><rect class="cls-14" x="424.55" y="1166.05" width="421.8" height="294.63"/><rect class="cls-2" x="401.92" y="1208.17" width="454.63" height="27.02" rx="11.35" ry="11.35"/><rect class="cls-19" x="422.43" y="1158.27" width="423.92" height="39.57"/><rect class="cls-18" x="451.4" y="1248" width="373.05" height="191.47"/><g class="cls-12"><path class="cls-13" d="M849,1746.17H410.21V1529H849Zm-432.38-6.43H842.59V1535.45H416.65Z" transform="translate(15.51 -0.15)"/></g><path class="cls-13" d="M665.09,1565.33H592.14a5.84,5.84,0,0,1-5.83-5.83h0a5.84,5.84,0,0,1,5.83-5.83h72.95a5.84,5.84,0,0,1,5.83,5.83h0A5.84,5.84,0,0,1,665.09,1565.33Z" transform="translate(15.51 -0.15)"/><rect class="cls-21" x="216.68" y="1765.53" width="2901.89" height="7.1" rx="3.16" ry="3.16"/><circle class="cls-20" cx="653.08" cy="1182.21" r="10.63"/><circle class="cls-20" cx="692.36" cy="1182.21" r="10.63"/><rect class="cls-20" x="737.9" y="1170.83" width="82.73" height="22.77"/><path class="cls-16" d="M760.06,751.51v81c0,9.72-10.55,17.68-23.44,17.68H666.55c-12.89,0-23.44-8-23.44-17.68v-81Z" transform="translate(15.51 -0.15)"/><path class="cls-22" d="M680.77,751.63c-.11-.84-11.21-84.08-54.43-125.38L627.5,625c43.66,41.71,54.83,125.54,54.94,126.38Z" transform="translate(15.51 -0.15)"/><path class="cls-22" d="M700.74,751.55C698.94,698.62,712.85,587.91,713,586.8l1.68.21c-.14,1.11-14,111.69-12.24,164.48Z" transform="translate(15.51 -0.15)"/><path class="cls-22" d="M727,751.6l-1.68-.16c2.39-25.62,18.75-40.55,32.06-48.57a96.21,96.21,0,0,1,28.52-11.34l.31,1.66a94.44,94.44,0,0,0-28,11.15C745.29,712.17,729.36,726.7,727,751.6Z" transform="translate(15.51 -0.15)"/><path class="cls-22" d="M632.42,631.3s-3.54-31.54-19.66-32a152.87,152.87,0,0,0-32.06,2.93s11.72,6.26,17.25,13.06S632.42,631.3,632.42,631.3Z" transform="translate(15.51 -0.15)"/><path class="cls-22" d="M642.87,644.5s-20.18-2.91-27.67,2.95-4.88,23.76-4.88,23.76,9.77-2.6,16.6-7.16,10.09-7.14,13-13.35Z" transform="translate(15.51 -0.15)"/><path class="cls-23" d="M681.6,749.29s-27.13-15.27-41-11.05-20,31.14-20,31.14,15.34,1.67,27.58-1,18.3-4.61,25.89-11.82Z" transform="translate(15.51 -0.15)"/><path class="cls-23" d="M713.83,587.57c.57.46-8.79-16.36-18.8-14.4s-22,11.47-22,11.47,14.16,2,20.38,3.91S710.17,584.64,713.83,587.57Z" transform="translate(15.51 -0.15)"/><path class="cls-22" d="M782.6,693.49c0,.66-7.08-17.79-.05-21.21s20.71-1.64,20.71-1.64-6.49,8.7-8.54,13.42S782.49,689.25,782.6,693.49Z" transform="translate(15.51 -0.15)"/><path class="cls-23" d="M713.83,587.4s-.16-7.24,8.14-11.15c0,0,1.79,4.72,0,8.14S713.83,587.4,713.83,587.4Z" transform="translate(15.51 -0.15)"/><path class="cls-22" d="M741.82,715.86s-7-1.78-8.57-10.82c0,0,5-.47,7.84,2.17S741.82,715.86,741.82,715.86Z" transform="translate(15.51 -0.15)"/><path class="cls-23" d="M713.18,593.3s7.32-2.93,12-2.28,9.44,12.69,9.44,12.69-9.77-.16-13-1.46S716.11,593,713.18,593.3Z" transform="translate(15.51 -0.15)"/><path class="cls-22" d="M758.55,703.83s6.55-4.39,11.3-4.74,11.88,10.45,11.88,10.45-9.58,1.88-13,1.28S761.35,702.9,758.55,703.83Z" transform="translate(15.51 -0.15)"/><path class="cls-22" d="M710.9,611.82s-12.69-9.52-22.79-8.1-19.86,14.44-19.86,14.44,11.39,3.58,17.74,2.6,14.65-5.13,16.84-7.32S710.9,611.82,710.9,611.82Z" transform="translate(15.51 -0.15)"/><path class="cls-23" d="M708.91,609.34s2-5.7-1.76-9.36-4.92-4.77-4.92-4.77-1.08,4.25,0,7.68S708.91,609.34,708.91,609.34Z" transform="translate(15.51 -0.15)"/><path class="cls-22" d="M708.7,633.4s20.51-10.77,33.93-3.2,17.82,25.39,17.82,25.39S736.78,655.1,729,649s-7.18-14.89-10.67-15.38A69.59,69.59,0,0,0,708.7,633.4Z" transform="translate(15.51 -0.15)"/><path class="cls-22" d="M704.74,677.26s6.1-14.14,16.21-15.84,19.83,5.68,19.83,5.68-12.45,9.65-19,9.76-9.94-4.7-11.95-3.49A46.25,46.25,0,0,0,704.74,677.26Z" transform="translate(15.51 -0.15)"/><path class="cls-22" d="M733.25,726.64s27.21-14.29,45-4.24,23.65,33.69,23.65,33.69-31.42-.65-41.79-8.75-9.52-19.76-14.16-20.41A92.32,92.32,0,0,0,733.25,726.64Z" transform="translate(15.51 -0.15)"/><path class="cls-22" d="M776.57,694.48s20.51-10.77,33.93-3.2,17.82,25.39,17.82,25.39-23.68-.49-31.49-6.59-7.18-14.89-10.67-15.38A69.6,69.6,0,0,0,776.57,694.48Z" transform="translate(15.51 -0.15)"/><path class="cls-23" d="M706.9,643.78S705,632.73,694.76,631.3s-20.4,12.48-20.4,12.48,9.52,3.18,14.89,3.18,10.83-8.39,13.47-6.56A33.48,33.48,0,0,1,706.9,643.78Z" transform="translate(15.51 -0.15)"/><path class="cls-22" d="M705.36,691s-15.84-18.94-36.89-10.39-25.11,46.25-25.11,46.25,21.65-4.43,31.88-10.35,11.39-27.93,18.44-27.34A73.71,73.71,0,0,1,705.36,691Z" transform="translate(15.51 -0.15)"/><path class="cls-23" d="M734.68,727.16s1.67-11.91-6.55-15.88-21,8-21,8,7.11,5.61,11.65,6.92,11.67-6,13.35-3.51A31.76,31.76,0,0,1,734.68,727.16Z" transform="translate(15.51 -0.15)"/><rect class="cls-24" x="1616.85" y="1209.79" width="376.85" height="14.8"/><path class="cls-25" d="M1676.13,710.16s-4.3-41.62-50-32.63c0,0,14.58,1,23.22,7.13,0,0-32.5-11.37-59,21.15s-.93,89.79-8.11,104.2-81.88,18.75-50.31,90.9c16.64,38,162.81,45.43,162,80.36,0,0,31.91-74.84-6.13-98.64,0,0,18.55,11.66,23.59,28.87,0,0-2.49-35-26.41-41.7-21.17-5.89-43.92-38.2-43.5-44.85S1676.13,710.16,1676.13,710.16Z" transform="translate(15.51 -0.15)"/><path class="cls-26" d="M1850.23,1190.69h0l-23.72,9.74s-67-38.83-98-66.88q-2-1.79-3.79-3.54c-12.87-12.51-81.16-139-96.44-177.75s45.29-44,45.29-44c25.77,2.29,80.62,168.91,97.83,187.09,1.44,1.52,3.4,3.84,5.74,6.79,13.24,16.59,39,52.81,55.7,75C1841.35,1188.46,1850.23,1190.69,1850.23,1190.69Z" transform="translate(15.51 -0.15)"/><path class="cls-26" d="M1911.71,1222.25c-2.56,3.62-33.84-2.26-48.72-4.62a65.82,65.82,0,0,0-7.15-.91c-3.53,0-9.31,3.23-14.08,4.89h0c-3.24,1.11-6,1.51-7.3-.34a20.84,20.84,0,0,1-1.69-3.11c-1.07-2.32-2.19-5.29-3.18-8.13,0,0,0,0,0,0-1.74-5-3.08-9.55-3.08-9.55l16.8-10.14s2.82.08,6.92.41c9.24.71,25,2.66,29.74,7.69C1886.78,1205.69,1913.6,1219.58,1911.71,1222.25Z" transform="translate(15.51 -0.15)"/><path class="cls-26" d="M1865.79,1221.64c-1.36.78-7.54-.39-22,0-.7,0-1.35,0-2,0h0c-4.44-.22-7.23-1.66-9-3.45-3.1-3.17-3-7.45-3.18-8.13,0,0,0,0,0,0h21.13s7.16,6,10.64,7a8.92,8.92,0,0,1,1.65.64C1865.5,1218.87,1866.91,1221,1865.79,1221.64Z" transform="translate(15.51 -0.15)"/><path class="cls-26" d="M1648.32,1117.65a10.05,10.05,0,0,1-4,3c-4.84,1.94-16.66,1.25-16.66,1.25h0c.13-.27,2.29-4.51,8.49-7.57,6.42-3.16,14.83-6.46,15.08-4C1651.4,1111.93,1650.42,1115.12,1648.32,1117.65Z" transform="translate(15.51 -0.15)"/><path class="cls-27" d="M1603.08,1733.71l-19.16,7.14s-83.24-115.44-93.48-217c-1.83-18.13-1.22-35.7,2.74-51.93,0,0-.81-4.65-2.24-12.86-.66-3.83-1.47-8.45-2.39-13.74-2.71-15.5-6.43-36.72-10.69-60.88-9.79-55.59-22.48-126.65-32.34-178.89l5.16-1.66,55.87-18,11.55-36.67,41.6-11s9.29,18.18,17.6,104.06c1.53,11.27,2.93,23.69,4,37.16a735.42,735.42,0,0,1-4,150.43q-2.86,22.39-7.31,46.17c-2.19,11.61-2.52,27.43-1.6,45.59C1572.61,1604.67,1603.08,1733.71,1603.08,1733.71Z" transform="translate(15.51 -0.15)"/><path class="cls-28" d="M1552.07,1140.4l-12.63,2.95c-35,9.31-128.65-26-128.65-26s-33.94,29.84-29.49,101.35c2.18,34.91,6.15,183.24,10.3,227.13,1.5,15.91,2.81,27.23,3.35,31.75a.09.09,0,0,1,0,0,6.27,6.27,0,0,1-1,3.89,206.14,206.14,0,0,0-15.32,32.21c-40.73,108.54,6.27,242.2,6.27,242.2l12.2-4.92s26.75-148.75,48.48-214.47c3.69-11.15,7.23-19.91,10.47-25.14,9.45-15.25,18.22-40.17,26.18-69.81,15-56,27.15-128.93,35.21-185.2C1518.55,1256.45,1552.07,1140.4,1552.07,1140.4Z" transform="translate(15.51 -0.15)"/><path class="cls-29" d="M1455.82,1765.89H1359.3S1357,1751.18,1362,1740c4.83-10.71,12.4-15.58,10.59-28.53,6.13,6.32,16.13,13.39,30.08,11.51,1.71,2.77,11,17.61,16.75,21.71C1425.75,1749.23,1453.87,1747.62,1455.82,1765.89Z" transform="translate(15.51 -0.15)"/><path class="cls-29" d="M1663.06,1765.89h-96.52s-3.61-15.39,2.73-25.87c5.61-9.27,3.46-14.55-.69-22.22a37.49,37.49,0,0,0,16.26,3.06c4.81-.28,9.89-2.46,14.35-5,4.15,4.74,21.94,24.9,27.5,28.89C1633,1749.23,1661.12,1747.62,1663.06,1765.89Z" transform="translate(15.51 -0.15)"/><path class="cls-25" d="M1654,698c.13-2.61-49.24,35.39-51.41,39-20.06,33.53-5.43,69.24,9.33,66.71,9.46-1.63,10.72,14.4,10.72,14.4l96.21-65.05S1691.65,681.88,1654,698Z" transform="translate(15.51 -0.15)"/><path class="cls-30" d="M1654.28,885.79s25.68,17.63,38.79,40.69c0,0-9.86,49.44-56.39,71.52C1636.68,998,1642.27,889.35,1654.28,885.79Z" transform="translate(15.51 -0.15)"/><path class="cls-26" d="M1628.6,950.71c-60.33-1.88-45.85-85.82-42.22-85.06,7.68-3.2,28.91-25.13,39.22-55.64l2.49,1.42,41.57,24.1s-5.82,13.7-10.38,26.9c-3.56,10.33-6.34,20.36-5,23.36C1657.57,887.47,1644.69,951.22,1628.6,950.71Z" transform="translate(15.51 -0.15)"/><path class="cls-31" d="M1669.65,835.54s-5.82,13.69-10.38,26.9c-24.71-9.25-30.11-36.53-31.19-51Z" transform="translate(15.51 -0.15)"/><path class="cls-26" d="M1673.7,850.92s-59.38-19.24-46.82-56,13.34-64.06,51.79-53.32,41,27.27,39.78,40.57S1689.47,855,1673.7,850.92Z" transform="translate(15.51 -0.15)"/><path class="cls-25" d="M1723.68,761.08c-5.34-14.19-13.07-14.12-18.07-12.12-26.2-28.79-56-9.68-56-9.68-13,25-37.19,33.64-37.19,33.64s8.49,10.33,35.48,12.45c8.25.65,16.86-2.42,24.84-7a145.6,145.6,0,0,1-33.62,20.84c34.33-3.55,60.34-40.69,63-44.65,2.5,4.47,7.19,13.94,7,21.57-.26,10.37-5.54,30.11.3,31.38C1709.47,807.51,1731.69,782.35,1723.68,761.08Z" transform="translate(15.51 -0.15)"/><path class="cls-30" d="M1650.71,1029.77c-18.57,17.53-42,29.78-52.67,40-25.86,24.63-168.24-19.3-143.06-61.19l.16-.26q4.21-7,8.45-13.62l.22-.35a526.48,526.48,0,0,1,60.5-78.07l0,0A422.52,422.52,0,0,1,1555,886.75c1.46-1.28,2.91-2.51,4.33-3.7,26.37-22.18,33.49-21.82,33.49-21.82s35.43,25.85,51.81,33.44c11.15,5.17,9.66-8.59,9.66-8.88.23.89,10.25,36.36,12,75.48C1667.6,989.09,1664.6,1016.64,1650.71,1029.77Z" transform="translate(15.51 -0.15)"/><path class="cls-32" d="M1803.52,1226.84s-12.55-11,73.28-13.88c15.25-.51,25.91,5,48.05,7.28s33.15,2.84,33.15,6.6Z" transform="translate(15.51 -0.15)"/><path class="cls-30" d="M1650.71,1029.77c-18.57,17.53-42,29.78-52.67,40-25.86,24.63-37.92,71.82-37.92,71.82-151.59,73.16-176.39,23.32-176.39,23.32,19.81-63.84,46.08-114.44,71.25-156.33l.16-.26,8.67-14s81,33.6,135.92,9.38,33.57-40,41.71-42a68.74,68.74,0,0,1,24.89-.42C1667.6,989.09,1664.6,1016.64,1650.71,1029.77Z" transform="translate(15.51 -0.15)"/><path class="cls-33" d="M1635.53,977.59,1623,972.47s15.33-63.39-19.09-82c-34-18.32-78.45,24.6-79.59,25.72A422.52,422.52,0,0,1,1555,886.75c21.43-9.75,35-9,35-9C1655.45,880.24,1635.53,977.59,1635.53,977.59Z" transform="translate(15.51 -0.15)"/><path class="cls-33" d="M1623,969.81s25.81,16.7,47.06,15.18c0,0-3.79,41.75-44,79.7s-46.3,104-46.3,113.09,14.8,212.53,14.8,212.53-49,39.85-134.35,8c0,0-33-230-26.19-259.59s43.26-59.2,43.26-59.2,64.9-14.8,99.05-45.54S1623,969.81,1623,969.81Z" transform="translate(15.51 -0.15)"/><path class="cls-26" d="M1628.21,1141.3c-60.74-4.61-105-12.59-132-21.66-16.79-5.63-26.89-11.7-30-17.63-8.24-15.46,83.89-190.79,83.89-190.79,42.08-28,50.35,51.69,47.43,65.31s-66.25,90.47-70.35,94.51c-1,1,4.75,4.7,14,9.64,27.7,14.89,86.53,41.23,86.53,41.23Z" transform="translate(15.51 -0.15)"/><path class="cls-30" d="M1551.45,909.06c-10.9,11.06-24.9,28.8-36.9,55.28,0,0,31.41,35.11,88.84,18.21,0,0,13.71-38.28,1.31-64.8C1595.05,897.13,1567.43,892.84,1551.45,909.06Z" transform="translate(15.51 -0.15)"/><path class="cls-23" d="M1642.59,1146.67l-.32,97.76a8.27,8.27,0,0,0,8.25,8.3l38.07.12a8.27,8.27,0,0,0,8.3-8.25l.11-32.79a42.09,42.09,0,0,0-10.94-28.44l-13.51-14.87a47.3,47.3,0,0,1-12.26-30.12l-1.07-17.63c-.16-4.44-3.8-7.54-8.24-7.55h0c-4.57,0-8.29,4.11-8.3,8.68Z" transform="translate(15.51 -0.15)"/><path class="cls-23" d="M1645.68,1095.26l38.34.13a5.78,5.78,0,0,1,5.76,5.8h0a5.78,5.78,0,0,1-4.32,5.57c-6,1.58-16.45,5.11-20.27,11.23a5.83,5.83,0,0,1-5,2.78l-19.57-.06a5.76,5.76,0,0,1-5.7-5.4,30,30,0,0,0-.83-5.09A11.94,11.94,0,0,1,1645.68,1095.26Z" transform="translate(15.51 -0.15)"/><path class="cls-23" d="M1670.19,1129.27a1.49,1.49,0,0,1-.59-.12c-12.3-5.28-15.93-17.88-16.08-18.41a1.5,1.5,0,0,1,2.9-.81c.06.2,3.46,11.77,14.37,16.45a1.5,1.5,0,0,1-.6,2.89Z" transform="translate(15.51 -0.15)"/><rect class="cls-16" x="1642.37" y="1200.58" width="54.61" height="28.7" transform="translate(19.48 -5.59) rotate(0.19)"/><path class="cls-26" d="M1666.59,1140.26c-5.8,8.12-38.38,1-38.38,1l-.55-19.38h0c.42-.09,10.33-2.43,20.64-4.26,10.85-1.94,22.17-3.33,23.38-1C1674.11,1121.23,1672.39,1132.14,1666.59,1140.26Z" transform="translate(15.51 -0.15)"/><path class="cls-34" d="M1911.71,1222.25c-2.56,3.62-33.84-2.26-48.72-4.62,2.51,1.24,3.92,3.35,2.8,4-1.36.78-7.54-.39-22,0-.7,0-1.35,0-2,0h0c-3.24,1.11-6,1.51-7.3-.34a20.84,20.84,0,0,1-1.69-3.11c-3.1-3.17-3-7.45-3.18-8.13,0,0,0,0,0,0-1.74-5-3.08-9.55-3.08-9.55s-67-38.83-98-66.88c13.64-5,34.12-14.63,48.64-31.38,13.24,16.59,39,52.81,55.7,75,8.54,11.31,17.42,13.54,17.42,13.54h0c9.24.71,25,2.66,29.74,7.69C1886.78,1205.69,1913.6,1219.58,1911.71,1222.25Z" transform="translate(15.51 -0.15)"/><path class="cls-34" d="M1666.59,1140.26c-5.8,8.12-38.38,1-38.38,1-60.74-4.61-105-12.59-132-21.66,30-8.85,40.71-27.54,44.92-39,27.7,14.89,86.53,41.23,86.53,41.23h0c.13-.27,2.29-4.51,8.49-7.57,6.42-3.16,14.83-6.46,15.08-4,.15,1.63-.82,4.82-2.92,7.35,10.85-1.94,22.17-3.33,23.38-1C1674.11,1121.23,1672.39,1132.14,1666.59,1140.26Z" transform="translate(15.51 -0.15)"/><path class="cls-33" d="M1453.74,1112.5s-34.16-15.94-38-31.88c0,0-6.07,12.9-5.31,15.94,0,0,12.9,19,30.74,25.81S1453.74,1112.5,1453.74,1112.5Z" transform="translate(15.51 -0.15)"/><path class="cls-2" d="M1669.3,827.87s-.38,5.69.95,6.74,10.34,5,11.76,4.55,3.89-2.94,5.22-3.13A139.33,139.33,0,0,0,1669.3,827.87Z" transform="translate(15.51 -0.15)"/><path class="cls-1" d="M1062.84,1174.51a43.5,43.5,0,0,1-.49,5.85c-.14,1.1-.33,2.16-.52,3.21a44,44,0,0,1-24.71,31l6.24,10.8H979.73l6.22-10.8a44,44,0,0,1-25.51-36.37c-.11-.91-.17-1.8-.19-2.77a48.54,48.54,0,0,1,0-5.58c0-.36,0-.74.06-1.12,0-.55.08-1.1.13-1.62a46.17,46.17,0,0,1,8.24-22.46h85.72a46.79,46.79,0,0,1,8.36,24.08c.06.93.12,1.86.12,2.77S1062.9,1173.5,1062.84,1174.51Z" transform="translate(15.51 -0.15)"/><path class="cls-16" d="M1062.87,1171.44c0,1,0,2.05,0,3.07-2.35,1-4.93,1.51-6.41.19a10.91,10.91,0,0,1-1.37-1.56c-1.2-1.53-2.41-3-6.79-2.87-3.23.11-4.9,2.24-6.52,4.32-1.31,1.7-2.57,3.31-4.6,3.45-2.19.14-3.75-1.18-5.28-2.46s-3.09-2.6-5.42-2.79c-2.63-.25-4.65,1-6.79,2.41a16.07,16.07,0,0,1-5.39,2.55c-4.65.93-8.68-.36-13.88-4.46-2.76-2.19-4.52-1.15-7.91,1.23-1,.71-2,1.42-3.15,2.08a13.9,13.9,0,0,1-6.84,1.89,11.73,11.73,0,0,1-9.8-5.28c-2.11-3-8.18-3.53-12.45-3.39,0-.36,0-.74.05-1.12,0-.55.08-1.09.14-1.62,4.46-.11,11.58.41,14.51,4.54,3.75,5.28,9.36,4.71,13,2.6,1.07-.6,2-1.29,3-1.92,3.28-2.33,6.68-4.71,11.17-1.18s7.83,4.74,11.63,3.94a13.56,13.56,0,0,0,4.49-2.16c2.3-1.48,4.93-3.18,8.46-2.85,3.2.27,5.31,2,7,3.42,1.4,1.18,2.27,1.92,3.31,1.83.79-.05,1.67-1.15,2.66-2.41,1.7-2.19,4.05-5.2,8.57-5.37,5.83-.19,7.66,2.19,9,3.94a8.83,8.83,0,0,0,1,1.2C1058.66,1173,1060.6,1172.54,1062.87,1171.44Z" transform="translate(15.51 -0.15)"/><path class="cls-16" d="M1062.35,1180.37c-.14,1.09-.33,2.16-.52,3.2-2.05.71-4.13,1-5.39-.19a8.5,8.5,0,0,1-1.51-1.89c-1.29-1.89-2.41-3.5-6.38-2.57-1.07.25-2.82,1.86-4.35,3.28-2.33,2.14-4.71,4.35-7.06,4.52-2.16.14-3.72-1.18-5.26-2.46s-3.09-2.6-5.42-2.79c-2.68-.25-4.65,1-6.79,2.41a16.07,16.07,0,0,1-5.39,2.55,20.84,20.84,0,0,1-4.41.46,17,17,0,0,1-10.78-3.78c-3.2-2.55-4.43-1.64-6.9.19-.49.36-1,.74-1.53,1.09a12.12,12.12,0,0,1-15.22-1.42c-4.57-4.93-11.11-5.2-15-4.82-.11-.9-.16-1.81-.19-2.76,4.43-.44,11.82-.08,17.22,5.69a9.24,9.24,0,0,0,11.69,1q.74-.49,1.4-1c2.52-1.89,5.39-4,10.24-.17,3.72,3,7.86,3.83,12.95,2.79a13.54,13.54,0,0,0,4.49-2.16c2.3-1.48,4.9-3.15,8.46-2.85,3.2.27,5.31,2,7,3.42,1.4,1.18,2.27,1.89,3.31,1.83,1.37-.08,3.59-2.13,5.37-3.78,2-1.83,3.83-3.53,5.58-3.94,5.8-1.37,7.88,1.67,9.25,3.7a9.16,9.16,0,0,0,1.1,1.4C1058.63,1181.68,1060.33,1181.3,1062.35,1180.37Z" transform="translate(15.51 -0.15)"/><circle class="cls-16" cx="998.98" cy="1166.47" r="2.11"/><circle class="cls-16" cx="1010.79" cy="1187.29" r="2.11"/><circle class="cls-16" cx="1040.5" cy="1187.29" r="2.11"/><circle class="cls-16" cx="1065.13" cy="1185.2" r="2.11"/><circle class="cls-16" cx="988.05" cy="1185.2" r="2.11"/><circle class="cls-16" cx="1027.04" cy="1167.84" r="2.11"/><circle class="cls-16" cx="1052.07" cy="1167.84" r="2.11"/><circle class="cls-16" cx="1073.46" cy="1163.62" r="2.11"/><circle class="cls-16" cx="983.3" cy="1163.62" r="2.11"/><path class="cls-2" d="M986,1214.53s22.17,7.3,51.16,0c0,0-9.08,7.49-27.69,7.53C993.17,1222.09,986,1214.53,986,1214.53Z" transform="translate(15.51 -0.15)"/><polygon class="cls-16" points="2014.4 1757 1857.87 1757 1846.62 1549.82 2028.74 1549.82 2014.4 1757"/><path class="cls-35" d="M2018.48,1556.48H1825.86a12,12,0,0,1,12-12H2006.5a12,12,0,0,1,12,12Z" transform="translate(15.51 -0.15)"/><rect class="cls-35" x="1857.82" y="1757" width="156.58" height="8.52"/><path class="cls-36" d="M1920.6,1636.81a68,68,0,0,1-67.88-67.88,4.31,4.31,0,0,1,8.63,0,59.26,59.26,0,0,0,118.52,0,4.31,4.31,0,0,1,8.63,0A68,68,0,0,1,1920.6,1636.81Z" transform="translate(15.51 -0.15)"/><path class="cls-32" d="M1875.48,1544.5s-9.82,20.36-5.51,22,11-10.06,12.46-10.06-7.43,20.6,0,23.72,24.44-17,29.71-35.7Z" transform="translate(15.51 -0.15)"/><path class="cls-11" d="M1821.42,1663l.31,94.54a8,8,0,0,1-8,8l-36.81.12a8,8,0,0,1-8-8l-.1-31.71a40.69,40.69,0,0,1,10.57-27.5l13.07-14.38a45.73,45.73,0,0,0,11.86-29.13l1-17.05c.15-4.29,3.67-7.29,8-7.3h0c4.42,0,8,4,8,8.39Z" transform="translate(15.51 -0.15)"/><path class="cls-11" d="M1818.44,1613.27l-37.08.12a5.59,5.59,0,0,0-5.57,5.61h0a5.59,5.59,0,0,0,4.17,5.39c5.77,1.52,15.91,4.95,19.6,10.86a5.63,5.63,0,0,0,4.79,2.69l18.93-.06a5.57,5.57,0,0,0,5.51-5.22,29.07,29.07,0,0,1,.81-4.93A11.55,11.55,0,0,0,1818.44,1613.27Z" transform="translate(15.51 -0.15)"/><path class="cls-11" d="M1788,1652.5a1.73,1.73,0,0,0,.68-.14c14.18-6.09,18.37-20.61,18.54-21.23a1.73,1.73,0,1,0-3.34-.93c-.07.23-4,13.58-16.57,19a1.74,1.74,0,0,0,.69,3.33Z" transform="translate(15.51 -0.15)"/><rect class="cls-16" x="1768.83" y="1715.12" width="52.81" height="27.76" transform="translate(3611.64 3451.93) rotate(179.81)"/><circle class="cls-36" cx="1899.24" cy="723.01" r="4.55"/><circle class="cls-36" cx="1920.59" cy="723.01" r="4.55"/><circle class="cls-36" cx="1941.94" cy="723.01" r="4.55"/><path class="cls-37" d="M2129.25,1602.28c4.27-.73,7-5.79,6-11.3L1993.86,765.61c-.94-5.51-5.17-9.38-9.45-8.65s-7,5.79-6,11.3l141.42,825.37C2120.74,1599.14,2125,1603,2129.25,1602.28Z" transform="translate(15.51 -0.15)"/><path class="cls-37" d="M2099.2,1615.42l5.91-41.07,11.25-15h14.94l11.25,15,5.49,41.4C2139.63,1611.21,2107.61,1610.88,2099.2,1615.42Z" transform="translate(15.51 -0.15)"/><path class="cls-38" d="M2062.43,1600.23c.13-2.46,4-60.16,61.55-60.16s61.41,57.7,61.55,60.16l6.72-.36c0-.67-4.26-66.53-68.27-66.53s-68.24,65.86-68.27,66.53Z" transform="translate(15.51 -0.15)"/><polygon class="cls-39" points="2212.59 1595.09 2189.61 1765 2141.07 1765 2137.91 1765 2089.36 1765 2066.38 1595.09 2212.59 1595.09"/><rect class="cls-40" x="2040.03" y="1594.02" width="167.18" height="12.06" transform="translate(4262.75 3199.95) rotate(180)"/></svg>