<?xml version="1.0" encoding="utf-8"?>
<!-- Generator: Adobe Illustrator 21.1.0, SVG Export Plug-In . SVG Version: 6.00 Build 0)  -->
<svg version="1.1" id="paint" xmlns="http://www.w3.org/2000/svg" xmlns:xlink="http://www.w3.org/1999/xlink" x="0px" y="0px"
	 viewBox="0 0 3200 2000" style="enable-background:new 0 0 3200 2000;" xml:space="preserve">
<style type="text/css">
	.st0{fill:#FFFFFF;}
	.st1{fill:#DCEAFF;}
	.st2{fill:#EBF3FA;}
	.st3{fill:#C2D2FF;}
	.st4{fill:#9DB0F4;}
	.st5{fill:#D2E4FF;}
	.st6{fill:#D8D38F;}
	.st7{fill:#FFFAA6;}
	.st8{fill:#FFE4CC;}
	.st9{fill:#2A4E96;}
	.st10{fill:#AFCDFB;}
	.st11{fill:#98C6F4;}
	.st12{fill:#FFB27D;}
	.st13{fill:#163560;}
	.st14{fill:#233862;}
	.st15{fill:#2B32B2;}
	.st16{fill:#FCA56B;}
	.st17{fill:#F99746;}
	.st18{fill:#2C3A64;}
	.st19{fill:#ED975D;}
	.st20{fill:#2B478B;}
	.st21{fill:#2E3552;}
	.st22{fill:#8097D8;}
</style>
<rect class="st0" width="3200" height="2000"/>
<g>
	<path class="st1" d="M2880.5,1755.1l-982.7-0.3l-1516.3-0.5c0,0-176.8-297.3-15.5-699c105.2-261.8,317.9-455,683.1-336.9
		c75.2,24.3,192.9,8.8,344.1-91.7c7.7-5.1,15.3-10.4,22.9-16c4.1-3,8.3-6.1,12.4-9.3c51.5-39.7,99.7-90,139.4-151.8
		c22.8-35.4,49.6-66.8,79.8-94.2c18.8-17,38.9-32.6,60.1-46.5c13.5-8.9,27.5-17.2,41.8-24.9c38.2-20.5,79.2-36.6,122.1-48.6
		c4.2-1.2,8.4-2.3,12.6-3.4c9.8-2.5,19.6-4.8,29.6-6.9c6.8-1.5,13.7-2.8,20.6-4c8.4-1.5,16.9-2.9,25.5-4.1h0
		c23.3-3.4,46.9-5.6,70.7-6.8c4.5-0.2,9-0.4,13.6-0.6c2.9-0.1,5.8-0.2,8.7-0.2c8.9-0.2,17.7-0.2,26.6-0.2
		c221.8,2.3,453.9,94.4,595.3,260.2c71.2,83.5,119.3,185.7,131.5,304.5c4.5,43.9,4.1,90-1.8,138.3c-0.2,1.5-0.3,2.9-0.5,4.4
		c-0.3,2.3-0.6,4.7-1,7c-1.2,8.9-2.6,17.8-4.3,26.8c-3.6,20-6,41-13.6,61C2627.8,1426.8,3080.5,1389.9,2880.5,1755.1z"/>
	<g>
		<path class="st2" d="M1469.4,1701.4h-42.2c-10.7,0-19.4-8.7-19.4-19.4v-428.1c0-10.7,8.7-19.4,19.4-19.4h42.2
			c10.7,0,19.4,8.7,19.4,19.4V1682C1488.8,1692.7,1480.1,1701.4,1469.4,1701.4z"/>
		<path class="st2" d="M1579.7,1701.4h-42.2c-10.7,0-19.4-8.7-19.4-19.4v-428.1c0-10.7,8.7-19.4,19.4-19.4h42.2
			c10.7,0,19.4,8.7,19.4,19.4V1682C1599.1,1692.7,1590.4,1701.4,1579.7,1701.4z"/>
		<path class="st2" d="M1690,1701.4h-42.2c-10.7,0-19.4-8.7-19.4-19.4v-428.1c0-10.7,8.7-19.4,19.4-19.4h42.2
			c10.7,0,19.4,8.7,19.4,19.4V1682C1709.4,1692.7,1700.7,1701.4,1690,1701.4z"/>
		<path class="st2" d="M1800.3,1701.4h-42.2c-10.7,0-19.4-8.7-19.4-19.4v-428.1c0-10.7,8.7-19.4,19.4-19.4h42.2
			c10.7,0,19.4,8.7,19.4,19.4V1682C1819.7,1692.7,1811,1701.4,1800.3,1701.4z"/>
		<path class="st2" d="M1910.7,1701.4h-42.2c-10.7,0-19.4-8.7-19.4-19.4v-428.1c0-10.7,8.7-19.4,19.4-19.4h42.2
			c10.7,0,19.4,8.7,19.4,19.4V1682C1930,1692.7,1921.4,1701.4,1910.7,1701.4z"/>
		<path class="st2" d="M2021,1701.4h-42.2c-10.7,0-19.4-8.7-19.4-19.4v-428.1c0-10.7,8.7-19.4,19.4-19.4h42.2
			c10.7,0,19.4,8.7,19.4,19.4V1682C2040.3,1692.7,2031.7,1701.4,2021,1701.4z"/>
	</g>
	<g>
		<g>
			<path class="st2" d="M2052.7,209.2v933.3h-636.6V610.7c4.1-3,8.3-6.1,12.4-9.3c51.5-39.7,99.7-90,139.4-151.8
				c22.8-35.4,49.6-66.8,79.8-94.2c18.8-17,38.9-32.6,60.1-46.5c13.5-8.9,27.5-17.2,41.8-24.9c38.2-20.5,79.2-36.6,122.1-48.6
				c4.2-1.2,8.4-2.3,12.6-3.4c9.8-2.5,19.6-4.8,29.6-6.9c6.8-1.5,13.7-2.8,20.6-4c8.4-1.5,16.9-2.9,25.5-4.1h0
				c23.3-3.4,46.9-5.6,70.7-6.8c4.5-0.2,9-0.4,13.6-0.6C2047,209.3,2049.8,209.3,2052.7,209.2z"/>
			<g>
				<path class="st3" d="M2052.7,209.2c-2.9,0.1-5.8,0.1-8.7,0.2v918.2h-615.6V601.4c-4.1,3.2-8.2,6.3-12.4,9.3
					c-7.6,5.5-15.2,10.9-22.9,16v538.6h686.1V209C2070.5,209,2061.6,209,2052.7,209.2z"/>
			</g>
			<path class="st3" d="M2117.6,1167.2h-760.3V1152c0-10.9,8.8-19.7,19.7-19.7h721.3c10.6,0,19.3,8.6,19.3,19.3V1167.2z"/>
			<path class="st3" d="M1749.6,284v855.3h-41.8V308.9C1721.3,300,1735.2,291.7,1749.6,284z"/>
			<path class="st4" d="M1735.5,707.9h-3.4c-2.3,0-4.1-1.8-4.2-4.1l-1.5-48.1c-0.1-2.4,1.8-4.4,4.2-4.4h6.4c2.4,0,4.3,2,4.2,4.4
				l-1.6,48.1C1739.6,706.1,1737.8,707.9,1735.5,707.9z"/>
		</g>
		<g>
			<polygon class="st5" points="1989.2,689.1 2044.3,696.6 1987.2,1127.9 1932.1,1120.4 			"/>
			<polygon class="st6" points="1988.2,1120.2 1987.2,1127.9 1932.1,1120.4 1933.1,1112.7 			"/>
			<polygon class="st6" points="2044.8,692.8 2043.8,700.5 1988.7,693 1989.7,685.3 			"/>
			<path class="st6" d="M1963.2,1097.2c-5.5-0.7-9.3-5.8-8.6-11.4c0.7-5.5,5.8-9.4,11.2-8.7c5.5,0.7,9.3,5.8,8.6,11.4
				S1968.7,1098,1963.2,1097.2z"/>
			<path class="st6" d="M2010,743.5c-5.5-0.7-9.3-5.8-8.6-11.4s5.8-9.4,11.2-8.7c5.5,0.7,9.3,5.8,8.6,11.4
				C2020.5,740.4,2015.5,744.3,2010,743.5z"/>
			<path class="st6" d="M1964.2,878c12.1,4.1,20,16.4,18.3,29.8c-1.8,13.3-12.6,23.1-25.4,23.8L1964.2,878z"/>
		</g>
		<g>
			<path class="st7" d="M1789.3,1127.8h-154.1c-7.1,0-12.8-5.7-12.8-12.8v-0.2c0-7.1,5.7-12.8,12.8-12.8h154.1
				c7.1,0,12.8,5.7,12.8,12.8v0.2C1802.1,1122.1,1796.4,1127.8,1789.3,1127.8z"/>
			<path class="st6" d="M1500.1,1127.8h171.8c9.5,0,17.3-7.8,17.3-17.3V979.2c0-9.5-7.8-17.3-17.3-17.3h-171.8
				c-9.5,0-17.3,7.8-17.3,17.3v131.2C1482.7,1120,1490.5,1127.8,1500.1,1127.8z"/>
			<path class="st7" d="M1644.1,962.6c0,0-42.8-27.3-83.7-27.6c-26.7-0.2-57.1,26.4-58.9,26.7c-4.6,0.7,15.4,1,15.4,1
				s30.1-17.8,43.6-18.2c16.3-0.5,57.8,19.6,57.8,19.6L1644.1,962.6z"/>
			<path class="st7" d="M1480,1127.8h171.8c9.5,0,17.3-7.8,17.3-17.3V979.2c0-9.5-7.8-17.3-17.3-17.3H1480
				c-9.5,0-17.3,7.8-17.3,17.3v131.2C1462.7,1120,1470.5,1127.8,1480,1127.8z"/>
		</g>
	</g>
	<g>
		<path class="st2" d="M2194,1402.5H1964v-14.4H2194c24.2,0,44-19.7,44-44V227.6h14.4v1116.5
			C2252.4,1376.3,2226.2,1402.5,2194,1402.5z"/>
	</g>
	<g>
		<rect x="2119.2" y="1394" class="st2" width="14.4" height="350.8"/>
	</g>
	<g>
		<g>
			<polygon class="st4" points="2084.6,1744.7 1838.1,1744.7 1828.9,1539.9 2093,1539.9 			"/>
			<path class="st3" d="M2094.1,1547.8h-270.3c-2.2,0-3.9-1.8-3.9-3.9v-1.2c0-2.2,1.8-3.9,3.9-3.9h270.3c2.2,0,3.9,1.8,3.9,3.9v1.2
				C2098.1,1546.1,2096.3,1547.8,2094.1,1547.8z"/>
			<rect x="1856.4" y="1608.7" class="st3" width="208.5" height="56.2"/>
		</g>
		<g>
			<polygon class="st7" points="2233.1,1744.7 2021.1,1744.7 2013.2,1485.4 2240.3,1485.4 			"/>
			<rect x="2005.5" y="1478.6" class="st6" width="239.2" height="19.9"/>
			<rect x="2036.9" y="1572.5" class="st8" width="179.3" height="71.1"/>
		</g>
		<g>
			<path class="st7" d="M1177.9,1726.1l215.3-39.1v60.8h-216.3C1176.9,1747.7,1178.9,1725.1,1177.9,1726.1z"/>
			<rect x="1393.2" y="1687" class="st6" width="146.3" height="60.8"/>
		</g>
	</g>
	<g>
		<g>
			<g>
				<path class="st9" d="M2281.5,889.9l-20.2-51c-1.9-4.7,0.5-10.1,5.2-12l0.3-0.1c4.7-1.9,10.1,0.5,12,5.2l20.2,51
					c1.9,4.7-0.5,10.1-5.2,12l-0.3,0.1C2288.8,897,2283.4,894.6,2281.5,889.9z"/>
				<path class="st9" d="M2225.5,815l63-25c5.2-2.1,11.1,0.5,13.2,5.7l5.8,14.5c2.1,5.2-0.5,11.1-5.7,13.2l-63,25
					c-5.2,2.1-11.1-0.5-13.2-5.7l-5.7-14.5C2217.7,823,2220.3,817.1,2225.5,815z"/>
				
					<rect x="2211.2" y="775.8" transform="matrix(-0.9297 0.3684 -0.3684 -0.9297 4646.0088 709.6209)" class="st10" width="88" height="45"/>
				<path class="st0" d="M2210.5,804c0,0,8.8,2.8,19.1-4.3c10.3-7.1,5.5-12.8,17.8-10.9c12.4,1.9,23.1-3.6,25-8.6
					c1.9-5,21.6-4,21.6-4l-6.1-15l-81.9,32.4L2210.5,804z"/>
			</g>
			
				<ellipse transform="matrix(0.9297 -0.3683 0.3683 0.9297 -165.5629 905.9053)" class="st11" cx="2290.3" cy="886.7" rx="2.4" ry="2.4"/>
		</g>
		<path class="st12" d="M2266.2,653.4c0,0-15.9-33-28.8-43.2c-12.9-10.2-47.3-7.7-48.6-5.1c-4.1,8.1,27.6,20.7,31.2,28.2
			c3.7,7.4-11.5,6.7,0.1,19.6c9.8,10.9,33.4,21.3,33.4,21.3L2266.2,653.4z"/>
		<path class="st7" d="M2246.4,644.5c7.2-11.2,9.3-11.8,9.3-11.8s118.9,47.4,130.3,51.4c11.3,4,181,13.9,181,13.9l51.2,112.5
			c0,0-226.1-51.6-254.6-62.2c-47.2-17.5-122.9-86.1-122.9-86.1S2240.7,653.3,2246.4,644.5z"/>
		<path class="st13" d="M2550.8,1686.5c0,0-3.6,58.4-14.5,72.1h-166.8c1.1-5.8,5.8-20.2,26.6-23.8c26.3-4.6,70.5-23.1,86.4-57.9
			C2499.4,1640.2,2550.8,1686.5,2550.8,1686.5z"/>
		<path class="st13" d="M2753,1677.8c0,0,9.1,66.6-3.4,67.7c-1.7,0.2-55.7,0.1-76.8,0c-26.3-0.2-68.4,0.2-68.4,0.2
			c-5.4,0.2-9-5.7-6.2-10.4c3-5.1,8.8-10.6,19.9-12.8c23.1-4.4,61.5-21.4,75-52.2C2707.2,1637.9,2753,1677.8,2753,1677.8z"/>
		<path class="st14" d="M2485.7,1141.2c0,0,30,104.9,115.9,287.2s92.6,265.3,92.6,265.3l59.2-2.8c0,0-5.6-216.9-46.2-308.9
			c-40.6-92-48.9-343.6-48.9-343.6L2485.7,1141.2z"/>
		<path class="st15" d="M2437.5,1050.9c0,0-2.4,162.5,25.7,362c28.1,199.5,18.6,284.2,18.6,284.2l67.3,2.2
			c0,0,40.2-199.6,28.7-299.5c-11.5-99.9,55.1-342.7,55.1-342.7L2437.5,1050.9z"/>
		<path class="st12" d="M2570.4,670.6l-31.8,23.5l-45.9-9.7c0.6-4.2,3.7-21.5,6.4-37.2c0.2-0.9,0.3-1.9,0.5-2.8
			c2.4-13.4,4.4-24.9,4.4-24.9l42.9-21.4l16-8c0,0.3-1.2,14.8-1.4,17C2558.5,645,2570.4,670.6,2570.4,670.6z"/>
		<path class="st7" d="M2496,658.8c1-0.4,62.4-18.6,69.1-16.3c6.7,2.2,10.6,15.1,10.6,15.1l-94.8,27
			C2480.8,684.6,2483.1,664.2,2496,658.8z"/>
		<path class="st7" d="M2661.4,1071c-10.4,47.5-227.5-101.5-224.6-130.5c0.3-3.2,0.6-6.4,1-9.6c4-40.4,7.8-79.9,8.1-105.6
			c0.2-22.4,3.3-45.2,7.4-66c3.8-19.2,8.4-36.6,12.4-50.1c2.8-9.5,8.1-18,15.2-24.6c5-4.7,10.8-8.5,17.3-11c1.8-0.7,3.6-1.4,5.4-1.9
			c26.2-7.6,62.3-17,72.1-14.1c26.6,7.8,46.3,54.6,60.3,114.2C2662.1,883.3,2668.2,1040,2661.4,1071z"/>
		<path class="st16" d="M2558.3,607.9c-9.4,18-44.5,33.6-59.1,39.3c0.2-0.9,0.3-1.9,0.5-2.8c2.4-13.4,4.4-24.9,4.4-24.9l42.9-21.4
			C2556.4,598.1,2562.2,600.5,2558.3,607.9z"/>
		<path class="st12" d="M2463.7,625.8c9.7,3.2,97.4,28.7,114.3-28.4c17.8-60.4,42.3-97.2-18.6-118.9c-60.9-21.8-79.7-2.3-90.5,16.4
			C2468.5,495.5,2428.6,612.4,2463.7,625.8z"/>
		<path class="st13" d="M2490.4,506c0,0,4.9,56.3,16.6,53.9c11.6-2.4,22.2-4.3,20.5,12.7c-1.7,17-17.9,36.6,18,39.6
			c35.9,3,87.5-89.6,77.6-107.1C2594.7,454.6,2449.3,444.4,2490.4,506z"/>
		<path class="st7" d="M2443.3,1050.9c21.5,7.8-0.4-21.4,0-27.4c1.7-26.7-8.8-60.5-5.6-92.6l131.3-78.5
			C2569,852.4,2600.2,1049.7,2443.3,1050.9z"/>
		<path class="st15" d="M2661.4,1071c-56.1,103.9-65,143.6-65,143.6c-48.8-5.6-132.4-101.5-158.9-127.1c0,0-3.6-118-0.7-147
			l40.5-1.2c0,0,73.3,18.6,92.2-6.6c19-25.2,10.8-148.9,10.8-148.9l55.7-12C2662.1,883.3,2676.4,1043.1,2661.4,1071z"/>
		<path class="st12" d="M2340.7,880.6c0,0-33.2-22.4-39.4-24.4c-6.3-2-10-11.7-11-13.2c-3.8-5.4-5.6,4.3-3.9,7.9
			c2,4.2,4.8,10.1-4.4,8.8c-1.8-0.3-16.8-0.6-19.9,6.3c-3.1,6.9-5.9,30.6,10,37.8c15.9,7.2,55.2,0.7,58,1.5
			C2354,912.2,2340.7,880.6,2340.7,880.6z"/>
		<path class="st7" d="M2328.5,867c0,0,130.2,22.1,141.8,16.5c18.4-9-7.1-141.1-7.1-141.1s-1.1-29.9,33.9-37
			c30.4-6.1,59.7,16.6,59.7,16.6s26.7,23.9,23.3,50.3c-7.6,58.7-19.3,178-58.6,196.3c-50.6,23.6-197.1-65.4-197.1-65.4
			s-4.9-6-4.2-17.1C2320.8,876.4,2328.5,867,2328.5,867z"/>
		<path class="st15" d="M2591.1,781.4l-10.8,2.3c0,0-22.8-98.7-99.5-99.2c5-4.7,10.8-8.5,17.3-11
			C2526.3,681.1,2575,705.1,2591.1,781.4z"/>
		<g>
			<g>
				<path class="st9" d="M2248.1,619.2l-45.2,26.9c-4.2,2.5-9.6,1.2-11.9-2.8l-0.1-0.2c-2.4-4-0.9-9.3,3.3-11.8l45.2-26.9
					c4.2-2.5,9.6-1.2,11.9,2.8l0.1,0.2C2253.7,611.4,2252.2,616.7,2248.1,619.2z"/>
				<path class="st9" d="M2199.9,707.4l-61.1-102.8c-3.8-6.4-1.7-14.8,4.7-18.6l6.2-3.7c6.4-3.8,14.8-1.7,18.6,4.7l61.1,102.8
					c3.8,6.4,1.7,14.8-4.7,18.6l-6.2,3.7C2212.1,716,2203.7,713.8,2199.9,707.4z"/>
				<polygon class="st10" points="2221.6,710.3 2184.5,732.3 2109.6,606.1 2117.2,601.6 2146.6,584.1 				"/>
				<path class="st0" d="M2195.1,725.6l-10.5,6.7l-75-126.2l7.6-4.5c4.4,3.2,24.1,18.2,25.6,34.6c1.7,18.5,24.3,30.8,25,40.6
					c0.6,9.8,0,23.9,12,28C2191.6,708.9,2195.1,725.6,2195.1,725.6z"/>
			</g>
			
				<ellipse transform="matrix(0.8597 -0.5109 0.5109 0.8597 2.3829 1232.1377)" class="st11" cx="2243.8" cy="611.7" rx="2.3" ry="2.3"/>
		</g>
		<path class="st12" d="M2228.6,639.5c-0.1-0.1-6-7.2-11.8-14.1c-4.3-5.1-6.9-11.6-8.8-13.6c-4.4-4.6-8.1,5.8-1.6,18.9
			c5.5,11.1,15.7,20.2,19.3,22.6C2229.2,655.9,2228.6,639.5,2228.6,639.5z"/>
	</g>
	<g>
		<g>
			<g>
				<path class="st3" d="M1223.1,1298.8c-1.8-0.8-2.6-2.9-1.8-4.7l15.7-35.9c1.2-2.8-0.1-6.2-2.9-7.4l-79.1-34.6
					c-6.4-2.8-9.3-10.3-6.5-16.7l11.8-27.1c2.8-6.4,10.3-9.3,16.7-6.5l32.8,14.4c1.8,0.8,2.6,2.9,1.8,4.7s-2.9,2.6-4.7,1.8
					l-32.8-14.4c-2.8-1.2-6.2,0.1-7.4,2.9l-11.8,27.1c-1.2,2.8,0.1,6.2,2.9,7.4l79.1,34.6c6.4,2.8,9.3,10.3,6.5,16.7l-15.7,35.9
					C1227,1298.8,1224.9,1299.6,1223.1,1298.8z"/>
			</g>
			<path class="st17" d="M1221.1,1312.4l-8-3.5c-3-1.3-4.4-4.9-3.1-7.9l17.9-40.9c1.3-3,4.9-4.4,7.9-3.1l8,3.5
				c3,1.3,4.4,4.9,3.1,7.9l-17.9,40.9C1227.7,1312.4,1224.1,1313.7,1221.1,1312.4z"/>
			<path class="st3" d="M1345.9,1228.6l-11.1,25.4c-2.9,6.6-10.6,9.6-17.2,6.7l-131.6-57.6c-6.6-2.9-9.6-10.6-6.7-17.2l11.1-25.4
				c2.9-6.6,10.6-9.6,17.2-6.7l131.6,57.6C1345.8,1214.2,1348.8,1221.9,1345.9,1228.6z"/>
			<path class="st2" d="M1345.9,1228.6l-3.8,8.8c-2.9,6.6-10.6,9.6-17.2,6.7l-131.6-57.6c-6.6-2.9-9.6-10.6-6.7-17.2l3.8-8.8
				c2.9-6.6,10.6-9.6,17.2-6.7l131.6,57.6C1345.8,1214.2,1348.8,1221.9,1345.9,1228.6z"/>
		</g>
		<path class="st12" d="M986.4,1331.5c0,0,28.6,4.1,35.2,11.6c6.6,7.5,10.8,13.3,6.6,16.6s-67.2-12.9-67.2-12.9L986.4,1331.5z"/>
		<path class="st7" d="M917.5,1230.3l77.1,98.7c0,0-6.6,13.3-28.2,15.8c-21.6,2.5-67.2-11.6-67.2-15.8S917.5,1230.3,917.5,1230.3z"
			/>
		<path class="st15" d="M1161.7,1444.1c-22.4,25.8-69.7,42.6-161,46.8c-7.3,0.3-14.7,0.6-22.1,0.9c-7.6,0.2-15.3,0.4-22.9,0.5
			c-24.8,0.3-49.5,0.1-73-0.7c-22.8-0.8-44.5-2-64.2-3.7c-38.5-3.2-69.2-7.9-85.1-13.2c-4.8-1.6-8.2-3.2-10.1-5
			c-1.6-1.5-2.9-3.2-3.9-5.1c-5.8-10.7-2.7-28.2,4.2-47.5c10.1-28.1,28.7-59.9,41.3-79.8c2.5-4,4.8-7.5,6.7-10.4
			c3.8-5.8,6.2-9.3,6.2-9.3s42.6,4,101,11.5c11.9,1.5,24.5,3.2,37.5,5.1c125.5,17.7,250.5,49.6,250.4,92
			C1166.5,1432.7,1167,1438,1161.7,1444.1z"/>
		<path class="st18" d="M1006.3,1490.4c-7.6,0.2-43,1.8-50.6,1.9c-24.8,0.3-49.5,0.1-73-0.7l-22.1-89.1
			C894.7,1450.1,995.3,1487.3,1006.3,1490.4z"/>
		<path class="st18" d="M932.7,1746.6h159c-2.5-6.1-8.6-13.9-23.3-16.5c-25-4.4-68.5-17.9-62.9-54.1c5.6-36.6-55.3-41.4-55.3-41.4
			S924.7,1732.6,932.7,1746.6z"/>
		<path class="st15" d="M1163.6,1439.5c0,0-150.9,237.4-163.5,265.6c0,0-51.3,4.8-63.7-31.9c0,0,89.7-250.6,129.1-271.2
			C1105,1381.4,1163.6,1439.5,1163.6,1439.5z"/>
		<g>
			<path class="st12" d="M859.3,939.7c0,0,52,71.1,98.3,74.9c0,0-5.9-26.8-19.6-43.7c3.7-5.9,6.9-11.4,9.6-16.2
				c9.1-16.1,13.1-25.8,13.1-25.8l-21.3-38.6l-4.4-20.7c-3.6,9.7-7.8,18.7-12.5,26.1C898.2,934,859.3,939.7,859.3,939.7z"/>
			<path class="st19" d="M920.5,895.5c0,0-7.5,35.6,27.1,59.3c9.1-16.1,13.1-25.8,13.1-25.8l-21.3-38.6
				C922.4,887.9,920.5,895.5,920.5,895.5z"/>
			<path class="st12" d="M970.6,978.8c0,0-78.8-42.9-51.3-91.6c27.5-48.7,35.8-87,87.3-61.6s50.7,49.4,45.5,67.9
				C1046.8,911.9,991.8,988.7,970.6,978.8z"/>
			<path class="st20" d="M925,794.6c-0.4-1-1.6-2.2-4.9-3.7c0,0,3.3-0.7,6.9,0.6c2.5-4.5,8.2-11.9,17-10.8c0,0-5.2,0.7-7.7,5.5
				c13-6.1,35.6-5.5,88.9,20.2c70.3,33.8,28.2,71.7,16.6,73.7c-11.6,2-29.2-22.5-47.3-27.9c-18-5.3-31.3,19-38.6,20.3
				c-7.3,1.2-2.6-4.1-9.2-10.9c-6.6-6.8-12.6,6.4-13.7,16.1c-1.1,9.7-16.6,17-16.6,17s0,0-6.4-16.5c-6.4-16.5,3-72.2,12.3-81.2
				C923.3,796.2,924.2,795.4,925,794.6z"/>
		</g>
		<path class="st14" d="M562.3,1663.6c0,0-22.1,25.8-27.2,34.1c-5.1,8.3,4.9,26.1,20.1,28.8c13.4,2.4,15.4,20.6,15.4,20.6h-64.7
			c-6.9,0-13-2.9-15.7-7.4c-9.1-15.4-11.2-35.5-13.1-42.2c-3.9-14.1-11.5-26-8.1-40.4c3.4-14.3,35.3-22.6,93.4-22.5
			C626.2,1634.7,562.3,1663.6,562.3,1663.6z"/>
		<path class="st7" d="M666.5,1394.1c33.5,35.5,279.7-38,259.1-56.7c-5.2-4.8-3.5-10.5-5.6-18.1c-10.2-36.3,10.1-98.5,18.8-122.6
			c2-5.6,3.4-9.1,3.7-9.8c8.3-22.5,14.8-45.9,19-68.6c8.1-43.4,8-83.8-3.1-108.6c-0.1-0.1-0.1-0.2-0.2-0.3
			c-46.1-13.5-71.5-81.3-71.5-81.3S740.6,969.6,687.5,1178c0,0-2.7,13.3-6.1,33.2h0c-1,6.1-2.1,12.9-3.2,20.1
			c-5.7,37.1-8.9,84.7-12.3,120.1c-0.1,1.2-0.2,2.5-0.4,3.8C663.8,1370.4,660.9,1388.2,666.5,1394.1z"/>
		<path class="st15" d="M860.3,1358.9c0,0-24.5,3.2-74,6.9c-51.3,3.8-105.6,11.9-114.5,29.1c-2.9,5.7-0.9,20.1,4.8,40.1
			c12.6,44.1,43.3,115.1,78.3,178.1c-89.9,5.2-212.2,25.1-212.2,25.1c-20,22.6-11.6,49.1-11.6,49.1c6.4,0.1,25.7,2.8,52,7
			c95.4,15.4,211.6,46.9,283.6,46.9c15.8,0,27.5-11.2,32.3-25.8v0C928.7,1625.2,860.3,1358.9,860.3,1358.9z"/>
		<path class="st18" d="M676.6,1441.7c49.6-1.6,174.1-62.7,172.1-63.2c-23.2-5.7-43.9-9.6-62.4-12.1
			c-51.3,4.1-105.6,12.9-114.5,31.7C668.9,1404.3,670.9,1420,676.6,1441.7z"/>
		<path class="st7" d="M836,1070.5c0,0,2.9,225.8,84,248.8c-10.2-36.3,10.1-98.5,18.8-122.6C917.9,1138.6,879.4,1080.1,836,1070.5z"
			/>
		<path class="st20" d="M862.2,938.2c0,0,62.4,13,68.5,67.7c4.4,39.9-39.1,130.1-39.1,130.1l-8.3-8.3c0,0,38.2-111.4,32.4-130.4
			c-7.5-24.3-43.4-60.7-76.5-46.1L862.2,938.2z"/>
		<path class="st15" d="M666.5,1394.1c33.5,35.5,285-37.2,264.4-55.9c-5.2-4.8-8.8-11.3-10.9-18.9c-10.2-36.3,10.1-98.5,18.8-122.6
			c2-5.6,3.4-9.1,3.7-9.8l-12.7-12.7l-46.5-46.4c0,0-13.8,15.6-39.8,33.3c-34.1,23.2-89.2,50.1-162.1,50.2h0
			c-1,6.1-2.1,12.9-3.2,20.1c-5.7,37.1-8.9,84.7-12.3,120.1c-0.1,1.2-0.2,2.5-0.4,3.8C663.8,1370.4,660.9,1388.2,666.5,1394.1z"/>
		<path class="st18" d="M843.5,1161.1c9.3,65.6,30.1,145.1,76.5,158.3c-10.2-36.3,10.1-98.5,18.8-122.6c-2.7-7.5-5.7-15.1-9-22.5
			l-46.5-46.4C883.3,1127.7,869.5,1143.4,843.5,1161.1z"/>
		<path class="st12" d="M1233,1324.3c-25.4,0-72.7-23.1-76.9-23.6c-36.2-3.5-1.3-39.1-1.3-39.1s56.9-12.5,66.4-11.8
			c3.1,0.2,8.3,1.3,13.9,2.7l-6.1,14.6c0,0,39.6,6,40.1,17C1269.6,1295.2,1245.5,1324.3,1233,1324.3z"/>
		<path class="st7" d="M1183.4,1282.6c5.2-15.1-2.1-19.8-2.1-19.8s-148.6-70.5-160.8-78.3c-12.2-7.8-93.9-156.6-93.9-156.6
			s-30.3-60.9-68.9-59.6c-33.5,1.1-52.2,22-62.5,43.9c-12.3,26.1-7.1,57.1,12.7,78.1c44.5,47.1,133.9,140.4,157,154.5
			c51.5,31.5,206,57,206,57S1179.3,1294.5,1183.4,1282.6z"/>
	</g>
	<path class="st21" d="M2971.9,1757.2H257.8c-2.1,0-3.9-1.7-3.9-3.9v-3.6c0-2.1,1.7-3.9,3.9-3.9h2714.1c2.1,0,3.9,1.7,3.9,3.9v3.6
		C2975.7,1755.5,2974,1757.2,2971.9,1757.2z"/>
	<g>
		<path class="st22" d="M1878.8,1645.6c-12.4,55.8-54.7,100.4-94.4,99.6c-39.7-0.8-61.9-46.6-49.4-102.4s54.7-100.4,94.4-99.6
			C1869.1,1544,1891.2,1589.8,1878.8,1645.6z"/>
		<path class="st3" d="M1869.8,1643.6c-12.4,55.8-54.7,100.4-94.4,99.6s-61.9-46.6-49.4-102.4c12.4-55.8,54.7-100.4,94.4-99.6
			C1860.1,1541.9,1882.3,1587.8,1869.8,1643.6z"/>
		<g>
			<path class="st22" d="M1779.2,1728.6c-0.3,0-0.6,0-0.9,0c-12.8-0.3-23.8-5.9-32-16.3c-13-16.6-17-43.4-10.7-71.8
				c10.6-47.8,47-86.1,81.1-85.4c12.8,0.3,23.8,5.9,32,16.3c13,16.6,17,43.4,10.7,71.8C1848.9,1690.5,1813.1,1728.6,1779.2,1728.6z
				 M1815.9,1556.1c-33.4,0-68.8,37.7-79.2,84.6c-6.3,28.1-2.3,54.6,10.5,70.9c8,10.1,18.8,15.6,31.2,15.9c0.3,0,0.6,0,0.9,0
				c33.4,0,68.8-37.7,79.2-84.6c6.3-28.1,2.3-54.6-10.5-70.9c-8-10.1-18.8-15.6-31.2-15.9
				C1816.5,1556.1,1816.2,1556.1,1815.9,1556.1z"/>
		</g>
	</g>
</g>
</svg>
