<?xml version="1.0" encoding="utf-8"?>
<!-- Generator: Adobe Illustrator 21.1.0, SVG Export Plug-In . SVG Version: 6.00 Build 0)  -->
<svg version="1.1" id="Слой_1" xmlns="http://www.w3.org/2000/svg" xmlns:xlink="http://www.w3.org/1999/xlink" x="0px" y="0px"
	 viewBox="0 0 3200 2000" style="enable-background:new 0 0 3200 2000;" xml:space="preserve">
<style type="text/css">
	.st0{fill:#FFFFFF;}
	.st1{fill:#EBF3FA;}
	.st2{fill:#C8DBF4;}
	.st3{fill:#BAD4F4;}
	.st4{fill:#ED975D;}
	.st5{fill:#FFB27D;}
	.st6{fill:#163560;}
	.st7{fill:#CCC787;}
	.st8{fill:#FFFAA6;}
	.st9{fill:#2B32B2;}
	.st10{fill:#FFAC73;}
	.st11{fill:#2C3A64;}
	.st12{fill:#143D7A;}
	.st13{fill:#B24940;}
	.st14{fill:#C65447;}
	.st15{fill:#F9DDBF;}
	.st16{display:none;}
	.st17{display:inline;fill:#AFCDFB;}
	.st18{display:inline;opacity:0.5;fill:#F8FCFF;}
	.st19{display:inline;fill:#F8FBFF;}
	.st20{display:inline;fill:#FFFFFF;}
	.st21{display:inline;opacity:0.3;fill:#F8FCFF;}
	.st22{display:inline;fill:#AFDFF9;}
	.st23{display:inline;}
	.st24{fill:#ED985F;}
	.st25{fill:#A32721;}
	.st26{fill:#C4453B;}
	.st27{fill:#D4E4F8;}
	.st28{fill:#9FC1F4;}
	.st29{fill:#9ABFE2;}
	.st30{fill:#DFEBFD;}
	.st31{fill:#B7D3F3;}
	.st32{fill:#C0D8FB;}
	.st33{fill:#77A4E5;}
	.st34{fill:#2E3552;}
	.st35{fill:#AFDFF9;}
	.st36{font-family:'Montserrat-Bold';}
	.st37{font-size:29px;}
	.st38{fill:#FFFFFF;stroke:#00FF00;stroke-width:6;stroke-miterlimit:10;}
	.st39{fill:#32E507;}
	.st40{display:none;fill:#F4F7FA;}
	.st41{display:inline;fill:#C9CED6;}
	.st42{display:inline;fill:#D8DEE8;}
	.st43{fill:url(#SVGID_1_);}
	.st44{fill:url(#SVGID_2_);}
	.st45{opacity:0.2;fill:url(#SVGID_3_);}
	.st46{fill:url(#SVGID_4_);}
	.st47{fill:url(#SVGID_5_);}
	.st48{opacity:0.2;fill:url(#SVGID_6_);}
	.st49{fill:#2938A3;}
	.st50{fill:url(#SVGID_7_);}
	.st51{fill:url(#SVGID_8_);}
	.st52{opacity:0.2;fill:url(#SVGID_9_);}
	.st53{fill:url(#SVGID_10_);}
	.st54{fill:#D1CB86;}
	.st55{fill:url(#SVGID_11_);}
	.st56{fill:url(#SVGID_12_);}
	.st57{fill:url(#SVGID_13_);}
	.st58{fill:#26264F;}
	.st59{fill:url(#SVGID_14_);}
	.st60{fill:url(#SVGID_15_);}
	.st61{fill:#444B8C;}
	.st62{fill:url(#SVGID_16_);}
	.st63{fill:url(#SVGID_17_);}
	.st64{fill:url(#SVGID_18_);}
	.st65{fill:url(#SVGID_19_);}
	.st66{fill:url(#SVGID_20_);}
	.st67{fill:url(#SVGID_21_);}
	.st68{fill:url(#SVGID_22_);}
	.st69{opacity:0.3;fill:url(#SVGID_23_);}
	.st70{fill:url(#SVGID_24_);}
	.st71{fill:url(#SVGID_25_);}
	.st72{fill:url(#SVGID_26_);}
	.st73{fill:url(#SVGID_27_);}
	.st74{fill:url(#SVGID_28_);}
	.st75{fill:url(#SVGID_29_);}
	.st76{fill:url(#SVGID_30_);}
	.st77{fill:url(#SVGID_31_);}
	.st78{opacity:0.3;fill:url(#SVGID_32_);}
	.st79{fill:url(#SVGID_33_);}
	.st80{display:inline;fill:url(#SVGID_34_);}
	.st81{display:inline;fill:url(#SVGID_35_);}
	.st82{display:inline;fill:url(#SVGID_36_);}
	.st83{display:inline;fill:url(#SVGID_37_);}
	.st84{display:inline;fill:url(#SVGID_38_);}
	.st85{display:inline;fill:url(#SVGID_39_);}
	.st86{display:inline;opacity:0.2;}
	.st87{fill:url(#SVGID_40_);}
	.st88{fill:#5A6E7F;}
	.st89{fill:#466EB6;}
	.st90{fill:#7F1CA0;}
	.st91{fill:#F47458;}
	.st92{fill:#F48C7F;}
	.st93{fill:#B75742;}
	.st94{fill:#13375B;}
	.st95{fill:#355389;}
	.st96{fill:#86B1F2;}
	.st97{fill:#FAE0B2;}
	.st98{fill:#DAEEF7;}
	.st99{fill:#50BFA5;}
	.st100{fill:#3C8F7C;}
	.st101{fill:#184655;}
</style>
<rect x="0" y="0" class="st0" width="3200" height="2000"/>
<g>
	<path class="st1" d="M542.5,1750.4c0,0-260.3-209.7-167.5-504.8c68.2-216.9,280-344.7,576.2-294.5c276,46.8,575.8-2.2,833.9-344.7
		c301.2-399.6,983.2-157.2,896.5,314.9c-57.1,310.8,382.2,325.4,144.7,829.7L542.5,1750.4z"/>
	<g>
		<path class="st2" d="M1835.9,1742.8l-0.5,0c-4.5-0.1-7.9-3.9-7.5-8.4l29.7-314l25.9,2.4l-42.6,315.7
			C1840.6,1741,1838.4,1742.8,1835.9,1742.8z"/>
	</g>
	<g>
		<path class="st2" d="M2121.9,1742.8l0.5,0c4.5-0.1,7.9-3.9,7.5-8.4l-29.7-314l-25.9,2.4l42.6,315.7
			C2117.2,1741,2119.4,1742.8,2121.9,1742.8z"/>
	</g>
	<g>
		<path class="st3" d="M1626.5,1742.8l-0.5,0c-4.5-0.1-7.9-3.9-7.5-8.4l29.7-314l25.9,2.4l-42.6,315.7
			C1631.1,1741,1628.9,1742.8,1626.5,1742.8z"/>
	</g>
	<polygon class="st2" points="2113,1389.8 2234.4,953.9 1966.2,953.9 1851.3,1374.7 	"/>
	<path class="st2" d="M2097.9,1424.9h-401.3c-8.3,0-15.1-6.8-15.1-15.1v-20c0-8.3,6.8-15.1,15.1-15.1h401.3
		c8.3,0,15.1,6.8,15.1,15.1v20C2113,1418.1,2106.2,1424.9,2097.9,1424.9z"/>
	<path class="st3" d="M1851.3,1424.9h-280.5c-7,0-12.7-5.7-12.7-12.7v-24.8c0-7,5.7-12.7,12.7-12.7h280.5c7,0,12.7,5.7,12.7,12.7
		v24.8C1864,1419.2,1858.3,1424.9,1851.3,1424.9z"/>
	<g>
		<path class="st4" d="M2198,1131.6c-3.5,20-13.3,37.5-13.9,39c-5.3,13.2-34.5-59.1-34.5-59.1l-4.4-27.8l-7.1-45.2l-2-12.7
			l-7.9-50.6l2-7.7l9.5-37.4l-0.9-8.5c0,0,29.4,16.3,37.4,47.1c2.8,10.9,6.9,34.1,10.8,60c0.6,4.1,4,5.7,4.6,9.9
			C2196.7,1073.9,2201,1114.1,2198,1131.6z"/>
		<path class="st5" d="M1660.7,1174.5c0,0,8.2-4.4,15.3-5c40.4-3.5,128-33.5,137.3-40.3c17.1-12.7,88.6-72.8,116.8-103.2
			c0,0,23.6-27.7,23.6-27.7c26.7-28.7,2.5-78.8,2.5-78.8s-45.8,19.4-62.4,38.6c-10.8,12.5-93.6,115-103.9,120
			c-33.7,16.4-129.1,72.4-139,76.8C1650.8,1154.9,1637.9,1163.9,1660.7,1174.5z"/>
		<path class="st6" d="M1408.9,1670.2c0,0,5.5,71.8-6.8,72.8c-1.6,0.1-62.5,0.1-62.5,0.1l-77.7-0.5c0,0,0.5-19.5,23.2-23.7
			c22.7-4.1,67.7-24.1,81.4-55.4C1381.1,1630.6,1408.9,1670.2,1408.9,1670.2z"/>
		<path class="st7" d="M1949.7,1229.1c0,0-6.8,130.2-18.8,152.9c0,0-5.3-1.9-44.2-2.2c-47.1-0.4-271.8-1.3-298.8,12.3
			c-8.4,4.3-32.6,105.8-177,280.4c0,0-14.4,9.7-36.3,8.1c-20.9-1.5-22.7-5.4-22.7-5.4s137.4-351.1,167.8-380
			c46.5-44.2,284.3-89.6,319.2-90.6C1873.7,1203.4,1949.7,1229.1,1949.7,1229.1z"/>
		<path class="st6" d="M1570,1673.2c0,0,5.5,68.8-6.8,69.7c-1.6,0.1-62.5,0.1-62.5,0.1l-77.7-0.5c0,0,0.5-18.7,23.2-22.7
			c22.7-4,67.7-23.1,81.4-53.1C1542.2,1635.3,1570,1673.2,1570,1673.2z"/>
		<path class="st8" d="M2039.2,1229.1c0,0-1.9,36-5.4,73.4c-4.3,46.1-32.9,75.4-79,80.2c-31,3.2-67.7,1.5-91.9,1.4
			c-116.8-0.7-158.5-5.7-185.5,7.9c-8.4,4.3,31.7,68.3-105,280.4c0,0-10.3,8.2-33.2,11.5c-13.6,1.9-29.4-3.2-29.4-3.2
			s42.4-333.5,77-372c24.7-27.6,220.7-59.9,255.5-60.9C1877.1,1246.7,2039.2,1229.1,2039.2,1229.1z"/>
		<path class="st9" d="M2198,1044.5c0,0-23.9,21.7-63.9,17.9c-2.3,11.6-5.1,24.4-8.4,38.1c-0.3,1.1-0.5,2.3-0.8,3.4
			c-5.2,21.2-11.5,44.1-18.6,66.7c-20.6,65.6-47.7,128.8-73.5,141.2c-2.7,1.3-79.2,0.6-131.5-19.8c-15.2-5.9-29.7-14.9-42.9-24.9
			c-19.1-14.5-35.2-31-45.8-42.8c-7.6-8.5-6.8-21.6,1.7-29.2c19.7-17.6,52.5-48.6,59.9-66.8c6.2-15.3,15.4-47.6,22.8-75
			c-38.7-10.3-47.5-52.3-47.5-52.3s63.3-68.9,83.2-81.6c26-16.6,60.3-18.7,73.8-21c33-5.7,71.9-4.7,132.5,23.2
			c0,0,34.3,18.6,43.5,54.4C2191.5,1011.7,2198,1044.5,2198,1044.5z"/>
		<path class="st4" d="M2040.7,948.2c-32.5,2.5-35.4-23.8-35.4-23.8l0.7-17.4l0.9-20.5c0,0,23.6-12.4,42.1-21
			c11.9-5.5,21.7-9.4,22.1-7.6c2.7,12.7,10.6,38.1,18.7,49.5C2094.6,927.1,2073.3,945.7,2040.7,948.2z"/>
		<g>
			<path class="st10" d="M1994.9,892c0,0,81.7,7.4,85.5-43.6c3.8-50.9,16.9-84.3-35.1-91.2c-52-6.9-63.6,11.8-69,28.5
				C1970.9,802.5,1973.8,888.8,1994.9,892z"/>
			<path class="st11" d="M2109.5,753.8c0.8-0.9,2.5-1.5,6.3-1.7c0,0-3.1-1.9-7.2-2.1c-0.8-5.4-3.6-14.9-12.8-17.2
				c0,0,4.9,2.7,5.6,8.4c-10.6-11-33.5-19.1-96.9-14.3c-83.5,6.3-56.2,59.9-45.4,66.3c10.8,6.4,38.1-11,58.2-9.3
				c20.1,1.7,23.9,30.8,30.7,34.8c6.8,4,4.2-3.1,13.4-7.2c9.3-4.1,10.1,11.2,7.4,21.1c-2.7,10,9.9,23.1,9.9,23.1s0,0,12.9-13.8
				c12.9-13.8,25.2-72.3,19.4-84.8C2110.5,756,2110,754.9,2109.5,753.8z"/>
		</g>
		<path class="st0" d="M1985.7,861.9c0,0,2.8,8.2,11.9,8.2c13,0,18.1-8.9,18.1-8.9S1998.1,856.9,1985.7,861.9z"/>
		<path class="st4" d="M2026.5,891c0,0-6.5-10.8,0-12.9c33.2-11.1,42.9-4.9,42.9-4.9L2026.5,891z"/>
		<path class="st5" d="M2080.4,921.4c0,0,2.9-49.2-14.3-48.8c-17.3,0.4-38.6,5.9-39.4,10.3c-2.3,12.4,17.6,54.3,27.5,56.1
			C2064,940.9,2080.4,921.4,2080.4,921.4z"/>
		<path class="st12" d="M2124.9,1103.9c-5.2,21.2-11.5,44.1-18.6,66.7c-20.6,65.6-47.7,128.8-73.5,141.2
			c-2.7,1.3-79.2,0.6-131.5-19.8c-15.2-5.9-29.7-14.9-42.9-24.9c35.1,10.5,92.8,0.7,146.9-17.8c58-19.8,60.8-91.4,60.8-91.4
			c16.8-39.6-5-175.3-5-175.3L2124.9,1103.9z"/>
		<path class="st5" d="M2051.7,937.8c0,0,46.4,252.5,107.8,252.6c23.6,0.1,52.6-61.4,21.4-96.3c-44.8-50.2-100.5-172.6-100.5-172.6
			S2072.6,916.5,2051.7,937.8z"/>
		<path class="st5" d="M1650.8,1154.9c0,0-19.4,3.3-29.5,0c-10.1-3.3-72,20.6-64.6,21.1s44.5-4.9,53.1-4.2c8.6,0.7,13.2,1.1,9.9,4.2
			c-3.4,3.1-27.4,4-19,6.6c8.4,2.7,28.9,1.9,37.7,0c8.8-1.9,18.3-6.1,24-9.1C1669,1170.2,1650.8,1154.9,1650.8,1154.9z"/>
	</g>
	<g>
		<path class="st13" d="M1579.3,1191.5h155.3l0,0c0-6.8-5.5-12.4-12.4-12.4h-142.9V1191.5z"/>
		<polygon class="st13" points="1579.7,1022.4 1339.6,1022.4 1397.2,1191.5 1638.9,1191.5 		"/>
		<polygon class="st14" points="1336.1,1022.4 1393.7,1191.5 1635.4,1191.5 1576.2,1022.4 		"/>
		<path class="st15" d="M1465.5,1105.4c1.5,6.5,7.9,11.7,14.4,11.7s10.5-5.2,9-11.7c-1.5-6.5-7.9-11.7-14.4-11.7
			C1468.1,1093.7,1464,1098.9,1465.5,1105.4z"/>
	</g>
	<path class="st1" d="M1621.8,320.6c0.4,9.8-0.9,18.9-2.6,26.1c-2.3,10-5.2,16.5-5.2,16.5c-0.1,0.1-0.4,0.5-0.8,1.3
		c-0.3,0.5-0.6,1.1-1.1,1.9c-0.5,0.8-1,1.8-1.6,2.8c-1.4,2.5-3.3,5.6-5.7,9.2c-2.4,3.6-5.3,7.7-8.8,12.1c-3.5,4.5-7.6,9.3-12.4,14.2
		c-4.2,4.3-8.8,8.7-13.9,13.1c0,0,0,0,0,0c-20.3,17.2-48.5,33.7-86.6,41.6c-2.6,0.5-5.2,1-7.9,1.5c-0.7,0.1-1.3,0.2-2,0.3
		c-9.8,1.6-19.5,3-28.8,4c-2,0.2-4.1,0.4-6.1,0.6c-84.4,7.8-144.1-12.6-125.7-77.7c0.8-2.7,1.7-5.4,2.7-8.1c1-2.6,2.2-5.2,3.5-7.9
		c1.6-3.2,3.3-6.4,5.2-9.6c3.8-6.3,8.4-12.7,13.5-19c2.2-2.7,4.5-5.4,7-8.1c0.6-0.7,1.2-1.3,1.8-2c17.7-19.1,40.6-37.2,65.7-52
		c6.6-3.9,13.4-7.6,20.3-10.9l0,0c44.6-21.9,93.3-32.3,131.6-19.4c16.7,5.6,28.9,13.2,37.6,21.7c5.2,5.1,9.1,10.5,12.2,16
		C1619.2,299.5,1621.4,310.4,1621.8,320.6z"/>
	<g class="st16">
		<path class="st17" d="M1136,490H787.9c1.9-1.9,3.9-3.9,5.9-5.8c60.2,2.9,253.4-5.8,281.6-3.6c7.7,0.6,15.1,1.4,22,2.4
			c6.4,0.9,12.3,1.8,17.5,2.7C1127.7,488,1136,490,1136,490z"/>
		<path class="st18" d="M1245.1,340.5l-245.7-1.6c20.5-10.6,41.5-20.5,62.7-29.5l0,0c26.3-1.7,83.5-3.4,128.9,8.8
			C1231.7,329.1,1245.1,340.5,1245.1,340.5z"/>
		<circle class="st19" cx="1347.2" cy="348.6" r="12.1"/>
		<path class="st20" d="M1429.3,592.6c0,0,46.8-5.8,55.2-3.1c8.5,2.7,13.3,7.1,28.3,4.9s26.3,6.7,33.8,6.6c7.5,0,18.3,0.8,25.3,3.9
			c0,0-15.7-0.2-21.6,1.7c-5.9,1.8-22.2-11.1-25.9-11c-3.7,0.1-19.2,4.7-28.9-0.1c-9.7-4.8-8.9-5.2-12.2-4.7
			C1480,591.2,1449.9,595.1,1429.3,592.6z"/>
		<path class="st18" d="M1603.8,394.1l-202.4-1.3c0,0,24.6-28.9,83.6-25.7c0,0,35.4-19.9,85-23
			C1584.7,360.1,1595.7,376.9,1603.8,394.1z"/>
		<path class="st21" d="M990.5,426.1c0,0,15.4-18.1,52.2-16.1c0,0,53.5-30.1,110.5-4c0,0,60.6-6.5,105.5,5.6
			c29.9,8,39.8,16.5,39.8,16.5L990.5,426.1z"/>
		<path class="st22" d="M1586.7,626.2c-1.5,2.4-3.3,5.1-5.3,8.3c-4.7,7.2-10.9,16.3-18.8,26.8l-50.7-6.8l-42.1-36.5l-3.8-3.3
			l50.3,11.2l28.6,1.6L1586.7,626.2z"/>
		<path class="st20" d="M1590.2,620.6c-0.9,1.5-2.1,3.3-3.5,5.6c-1.5,2.4-3.3,5.1-5.3,8.3c-23.6,0-51.9-2.1-73.9-9
			c-12.5-3.9-25.7-6.1-37.6-7.5c-20.6-2.4-37.3-2.2-39.9-3.3c0,0,30.2-6,54.8-1.9c24.6,4.1,23,14.3,50.4,13.1
			C1550.8,625.3,1572,622.1,1590.2,620.6z"/>
		<path class="st20" d="M1221,580.9c0,0,58.5-5.8,69-3.1c10.6,2.7,16.7,7.1,35.4,4.9s32.9,6.7,42.2,6.6c9.4,0,22.9,0.8,31.7,3.9
			c0,0-19.6-0.2-27,1.7c-7.4,1.8-27.8-11.1-32.4-11c-4.6,0.1-24,4.7-36.1-0.1c-12.1-4.8-11.1-5.2-15.3-4.7
			C1284.4,579.5,1246.8,583.4,1221,580.9z"/>
		<path class="st20" d="M1353.9,535.2c0,0,4,3.1,35.1-3.6c6.2-1.3,10,5.2,19.9,1.7c9.9-3.5,18.6,2.3,23.6,1.5
			c5.1-0.8,10.2-2.1,17.9,2.3c0,0-10.7,1.4-14.5,3.6c-3.8,2.2-20.8-7.7-23.3-7.2c-2.5,0.4-8.2,5.9-15.4,2.5
			c-7.2-3.4-6.7-3.9-8.9-3.1C1386.2,533.7,1366.7,540.9,1353.9,535.2z"/>
		<path class="st20" d="M1317.2,530.1c0,0,2.1,1.6,18-1.8c3.2-0.7,4.2,2,9.2,0.2c5.1-1.8,10.4,1.8,13,1.4c2.6-0.4,5.2-1.1,9.2,1.2
			c0,0-5.5,0.7-7.4,1.8c-1.9,1.1-10.6-3.9-11.9-3.7c-1.3,0.2-4.2,3-7.9,1.3c-3.7-1.8-3.4-2-4.6-1.6
			C1333.7,529.3,1323.7,533,1317.2,530.1z"/>
		<g class="st23">
			<g>
				<path class="st5" d="M1208.2,643.2L1208.2,643.2c0,0.1,0,0.3,0,0.7c-0.3,3.1-1.4,17-2.9,36.4c-0.9,11.7-2,25.4-3.2,39.9
					c-0.5,5.6-0.9,11.2-1.4,16.6c-0.4,4.3-0.8,8.5-1.3,12.7c-0.6,5.4-1.1,10.7-1.7,15.8c-4.1,36.2-8.7,64.1-10,73.6
					c-2.3,16.7-3.4,32.5-3.8,45.9c-7.8,1.2-15.8,2.3-23.9,3.2c-2,0.2-4.1,0.5-6.1,0.7c-3.2-15.8-7-37.3-11-65.5
					c-1.6-11.3,1.5-29.3,1.4-30.2c-0.7-9.7-1.7-20.6-2.7-32c0-0.2,0-0.4-0.1-0.6v0c-0.1-1.1-0.2-2.3-0.3-3.4
					c-0.6-6.6-1.3-13.3-1.9-20c-2.2-22.6-4.7-45.3-6.6-63.2c-1.8-16.4-3.2-28.8-3.8-33.3c-0.1-1.3-0.2-1.9-0.2-1.9l43.8,2.7h0l17,1
					l6.6,0.4L1208.2,643.2z"/>
				<path class="st5" d="M1195.2,647.3c0,0-2.2,4.8-5.9,13l0,0.1c-2.3,4.9-5.1,11.1-8.4,18.2c-7.4,16-17.2,36.6-27.7,58.1
					c-1.2,2.5-2.4,5-3.7,7.5c-2,4.1-4.1,8.2-6.1,12.3c-0.6,1.2-1.2,2.4-1.8,3.6v0c-0.1,0.2-0.2,0.4-0.3,0.6
					c-12,23.7-24.3,46.8-35,64.4c-24.9,40.8-35.4,61.5-39.6,70.6c-6.2,0.3-12.3,0.6-18.4,0.8c1-13.3,9-111.6,36.3-134.9
					c2.2-1.9,4.3-4.7,6.2-8.2c0.3-0.6,0.7-1.3,1-1.9c2.1-4.3,4.1-9.3,5.8-14.8c7-22.3,10.8-51.7,11.2-62.8c0-1.1,0.1-2.4,0.2-3.7
					c0.7-11.7,2.5-28.5,3.5-38.1v0c0.5-4.6,0.9-7.6,0.9-7.6l59.1,16.5h0l7.1,2c0,0,0,0,0,0l8.1,2.3l6.6,1.9L1195.2,647.3z"/>
				<path class="st5" d="M1125.2,456.2c0,0,36.8,11.6,55.7,2.6c0,0-5.8-5.4-15-8.8c0.1-4.1,0.1-7.6,0-10.6
					c-0.1-6.9-0.7-10.7-0.7-10.7l-14.8-8.5l-14-8.1C1141.5,440,1125.2,456.2,1125.2,456.2z"/>
				<path class="st5" d="M1112.5,638.3c-0.1,2.1,95,6,95.6,5.5c0.5-0.4-1.5-136.2-4.8-149.6c-4.1-15.9-13.3-26.4-21.7-34.1l-6.9-6.1
					c-6.9,1.4-14.2,1-21.6-2.6c-8-3.9-16.6-8-18-7c-10.5,7.7-17.5,24.9-21.3,46.8c0,0.1,0,0.2-0.1,0.3c-2.1,12.6-3.2,26.6-3.1,41.4
					C1110.6,538.4,1112.6,635.9,1112.5,638.3z"/>
				<path class="st24" d="M1137.8,422.8c0,0,11,14.6,28.2,16.6c-0.1-6.9-0.7-10.7-0.7-10.7l-14.8-8.5L1137.8,422.8z"/>
				<path class="st5" d="M1171.2,427.4c0,0-32,10.1-38-9.6c-6-19.7-14.2-31.7,6-39c20.2-7.3,26.4-1,30.1,5.1
					C1172.9,390,1179.4,424.2,1171.2,427.4z"/>
				<path class="st25" d="M1207.9,611.3L1213,746c0,0-32.5,11.1-59.3,2.1C1127,739.2,1207.9,611.3,1207.9,611.3z"/>
				<path class="st26" d="M1207.9,611.3h-95.8l-27.9,137.1c0,0,26.8,14.8,69.1,6.7L1207.9,611.3z"/>
				<path class="st5" d="M1135.1,444.3c0,0-21,9.9-31,25.2c-15.6,23.7-33.6,109.9-34,117.9c-0.3,8,14,54.5,14,54.5s8,7.8,11.5,0.9
					c0,0,2.1-56.7,3.9-60.4c1.7-3.7,57.2-77.7,50.9-93.5C1144.3,473,1135.1,444.3,1135.1,444.3z"/>
				<g>
					<path class="st5" d="M1084.2,641.8c0,0,1.7,16.9,3.6,20.1c1.9,3.2,10.8,12.5,13.5,15.4c0.2,0.2,1.9-1.4,0.6-3.6
						c-5.4-9.1-3.9-6.9-2-12.9c0.9-3,1.5,5.5,3,5.7c1.5,0.2,1-9,1-11.7c0.1-2.8-7.7-4.1-8.6-14.2
						C1094.8,634.2,1084.2,641.8,1084.2,641.8z"/>
					<path class="st5" d="M1087.8,661.9l9.9,16.6c0,0,1.2-0.5,1-1.7c-0.2-1.2-3.1-10.2-3.1-10.2L1087.8,661.9z"/>
					<path class="st5" d="M1097.7,662.4c0,0,7.1,8.2,5.6,10l-5.2-4L1097.7,662.4z"/>
				</g>
			</g>
			<path class="st0" d="M1172.4,414.2c0,0-0.1,3-2.3,3.9c-2.1,0.9-8.3,0-8.3,0S1166.7,413.7,1172.4,414.2z"/>
		</g>
	</g>
	<g>
		<g>
			<path class="st2" d="M741.6,1501.1c0,0,38.9-45.3,2.4-74.1c0,0-26.6-16.1-48.3-14.8c0,0,30.8,51.6,20.8,56.7
				c-10,5.1-30.1-60-30.1-60s-60.6-5.9-80.1,3.5c0,0,51.8,42.4,40.9,44.9c-10.9,2.5-66.9-39.1-66.9-39.1s-56.4,9.6-53.4,44
				c3,34.4,22.4,45,31,44.1c8.5-0.9,58.5-20,59.6-13s-29,29.9-50.1,30.9c0,0,39.8,43.9,66.2,31.2c26.4-12.7,28.7-32.7,45.2-40.2
				c16.5-7.5,30.5-7.5,23.7,0.2c-6.8,7.7-36.6,15.1-46,31.8c-9.4,16.7-17.9,27.9,9.5,23.8c27.3-4.1,71.8-24.1,73.7-47
				C741.6,1501.1,741.6,1501.1,741.6,1501.1z"/>
			<g>
				<path class="st2" d="M554.5,1463.2c0,0,153.2-5.9,187,37.9c0,0,7.5,22.4,30.5,42.8l3.6,9.8c0,0-26.5-28-36-29.7
					C739.6,1524,754.5,1469.7,554.5,1463.2z"/>
				<path class="st2" d="M772.1,1543.9c0,0,32.9,24.3,35.2,67.8l-6,0.5c0,0-10.5-44.9-29.5-62.5
					C752.8,1532.1,772.1,1543.9,772.1,1543.9z"/>
			</g>
		</g>
		<g>
			<path class="st2" d="M877.4,1444.1c0,0-61.8-34.6-33-81.6c0,0,23.1-28.8,47.8-36.3c0,0-13.2,70.1,0,71.7
				c13.2,1.6,9.1-79.1,9.1-79.1s65.1-31.3,90.7-28.8c0,0-40.4,68.4-27.2,66.8c13.2-1.6,58.5-70.9,58.5-70.9s66.8-12.4,77.5,27.2
				c10.7,39.6-6.6,59.3-16.5,61.8c-9.9,2.5-73.3,1.6-71.7,9.9c1.6,8.2,44.5,21.4,68.4,14c0,0-26.4,65.1-61,61.8
				c-34.6-3.3-45.3-24.7-66.8-26.4c-21.4-1.6-37.1,4.1-26.4,9.9c10.7,5.8,47,1.9,64.3,16.6c17.3,14.7,31.3,23.8-0.8,30.4
				c-32.1,6.6-89.8,2.5-101.4-22.3S877.4,1444.1,877.4,1444.1z"/>
			<g>
				<path class="st2" d="M1070.3,1325.4c0,0-173.1,56-192.8,118.7c0,0,0.8,28-16.5,60.2v12.4c0,0,18.1-42,28-47.8
					C889,1468.8,850.2,1414.4,1070.3,1325.4z"/>
				<path class="st2" d="M860.9,1504.2c0,0-26.7,40.5-11.5,89.9l6.9-1.8c0,0-6.7-54.3,7.3-81.7
					C877.6,1483.3,860.9,1504.2,860.9,1504.2z"/>
			</g>
		</g>
		<g>
			<path class="st27" d="M779.1,1396.3c0,0,81.5-45.6,43.5-107.5c0,0-30.4-38-63-47.8c0,0,17.4,92.3,0,94.5
				c-17.4,2.2-12-104.3-12-104.3s-85.8-41.3-119.5-38c0,0,53.2,90.2,35.8,88c-17.4-2.2-77.1-93.4-77.1-93.4s-88-16.3-102.1,35.8
				c-14.1,52.1,8.7,78.2,21.7,81.5c13,3.3,96.7,2.2,94.5,13c-2.2,10.9-58.7,28.2-90.2,18.5c0,0,34.8,85.8,80.4,81.5
				c45.6-4.3,59.7-32.6,88-34.8c28.2-2.2,48.9,5.4,34.8,13c-14.1,7.6-61.9,2.5-84.7,21.9s-41.3,31.3,1.1,40
				c42.4,8.7,118.4,3.3,133.6-29.3C779.1,1396.3,779.1,1396.3,779.1,1396.3z"/>
			<g>
				<path class="st27" d="M524.9,1239.9c0,0,228.1,73.9,254.2,156.4c0,0-1.1,36.9,21.7,79.3v16.3c0,0-23.9-55.4-36.9-63
					C763.9,1428.9,814.9,1357.2,524.9,1239.9z"/>
				<path class="st27" d="M800.8,1475.6c0,0,35.2,53.4,15.1,118.5l-9.1-2.4c0,0,8.8-71.6-9.6-107.7
					C778.9,1448,800.8,1475.6,800.8,1475.6z"/>
			</g>
		</g>
		<path class="st27" d="M781.8,1735.1c-88.1,0-159.6-71.5-159.6-159.6h319.2C941.4,1663.7,870,1735.1,781.8,1735.1z"/>
		<path class="st27" d="M620,1743.2h323.6l0,0c0-10.9-8.8-19.7-19.7-19.7H639.7C628.9,1723.6,620,1732.4,620,1743.2L620,1743.2z"/>
		
			<rect x="618.6" y="1575.5" transform="matrix(-1 -1.224647e-16 1.224647e-16 -1 1565.2925 3155.9502)" class="st28" width="328.1" height="4.9"/>
	</g>
	<g>
		<path class="st29" d="M2321.6,1303v11.1c0,3.9,1.3,7.1,2.8,7.1h406.2c1.5,0,2.8-3.2,2.8-7.1V1303c0-3.9-1.3-7.1-2.8-7.1h-406.2
			C2322.9,1295.9,2321.6,1299.1,2321.6,1303z"/>
		<path class="st3" d="M2321.6,1303v11.1c0,3.9,1.2,7.1,2.6,7.1h322.5c1.4,0,2.6-3.2,2.6-7.1V1303c0-3.9-1.2-7.1-2.6-7.1h-322.5
			C2322.8,1295.9,2321.6,1299.1,2321.6,1303z"/>
		
			<rect x="2424.4" y="1321.2" transform="matrix(-1 -1.224647e-16 1.224647e-16 -1 5137.2373 3062.8428)" class="st2" width="288.4" height="420.4"/>
		
			<rect x="2343.6" y="1321.2" transform="matrix(-1 -1.224647e-16 1.224647e-16 -1 4975.5967 3062.8428)" class="st30" width="288.4" height="420.4"/>
		<g>
			<g>
				<path class="st31" d="M2359.1,1333.1h257.4v385.3h-257.4V1333.1z M2613.7,1335.9h-251.8v379.7h251.8V1335.9z"/>
			</g>
			<g>
				<rect x="2360.5" y="1460.6" class="st31" width="254.6" height="2.8"/>
			</g>
			<g>
				<rect x="2360.5" y="1590.5" class="st31" width="254.6" height="2.8"/>
			</g>
			<path class="st31" d="M2461.7,1358h47.2c2.3,0,4.2-1.9,4.2-4.2l0,0c0-2.3-1.9-4.2-4.2-4.2h-47.2c-2.3,0-4.2,1.9-4.2,4.2l0,0
				C2457.5,1356.1,2459.4,1358,2461.7,1358z"/>
			<path class="st31" d="M2461.7,1485h47.2c2.3,0,4.2-1.9,4.2-4.2l0,0c0-2.3-1.9-4.2-4.2-4.2h-47.2c-2.3,0-4.2,1.9-4.2,4.2l0,0
				C2457.5,1483.2,2459.4,1485,2461.7,1485z"/>
			<path class="st31" d="M2461.7,1617.5h47.2c2.3,0,4.2-1.9,4.2-4.2l0,0c0-2.3-1.9-4.2-4.2-4.2h-47.2c-2.3,0-4.2,1.9-4.2,4.2l0,0
				C2457.5,1615.6,2459.4,1617.5,2461.7,1617.5z"/>
		</g>
	</g>
	<g>
		<path class="st32" d="M2426,786h-180.4c-8.3,0-15.1-6.8-15.1-15.1V596.7c0-8.3,6.8-15.1,15.1-15.1H2426c8.3,0,15.1,6.8,15.1,15.1
			v174.1C2441.1,779.2,2434.3,786,2426,786z"/>
		<path class="st30" d="M2418.2,777.1h-164.8c-7.6,0-13.8-6.2-13.8-13.8V604.3c0-7.6,6.2-13.8,13.8-13.8h164.8
			c7.6,0,13.8,6.2,13.8,13.8v159.1C2432,770.9,2425.8,777.1,2418.2,777.1z"/>
		<g>
			<g>
				<circle class="st31" cx="2335.8" cy="609.2" r="4.4"/>
				
					<ellipse transform="matrix(0.4857 -0.8741 0.8741 0.4857 679.2889 2389.5427)" class="st31" cx="2370.5" cy="617.5" rx="4.4" ry="4.4"/>
				
					<ellipse transform="matrix(0.8403 -0.5422 0.5422 0.8403 34.6201 1403.4365)" class="st31" cx="2399.2" cy="643" rx="4.4" ry="4.4"/>
				<circle class="st31" cx="2411.7" cy="680.7" r="4.4"/>
				
					<ellipse transform="matrix(0.7071 -0.7071 0.7071 0.7071 192.3579 1909.3682)" class="st31" cx="2401" cy="722.5" rx="4.4" ry="4.4"/>
				
					<ellipse transform="matrix(0.7072 -0.707 0.707 0.7072 164.8356 1897.8834)" class="st31" cx="2373.6" cy="749.9" rx="4.4" ry="4.4"/>
				<circle class="st31" cx="2335.8" cy="761" r="4.4"/>
			</g>
			<g>
				
					<ellipse transform="matrix(0.8741 -0.4858 0.4858 0.8741 -10.1977 1195.5836)" class="st31" cx="2301" cy="617.5" rx="4.4" ry="4.4"/>
				
					<ellipse transform="matrix(0.5421 -0.8403 0.8403 0.5421 500.2354 2203.9102)" class="st31" cx="2272.3" cy="643" rx="4.4" ry="4.4"/>
				<circle class="st31" cx="2259.8" cy="680.7" r="4.4"/>
				
					<ellipse transform="matrix(0.7071 -0.7071 0.7071 0.7071 154.1287 1817.0692)" class="st31" cx="2270.5" cy="722.5" rx="4.4" ry="4.4"/>
				
					<ellipse transform="matrix(0.7071 -0.7071 0.7071 0.7071 142.7335 1844.4788)" class="st31" cx="2297.8" cy="749.9" rx="4.4" ry="4.4"/>
			</g>
		</g>
		<g>
			<circle class="st31" cx="2339" cy="680.7" r="4.4"/>
			<g>
				<rect x="2338.4" y="626.2" class="st31" width="1.2" height="54.5"/>
			</g>
			<g>
				
					<rect x="2334.5" y="667.5" transform="matrix(0.7866 -0.6175 0.6175 0.7866 88.8741 1595.7711)" class="st31" width="36.7" height="3.6"/>
			</g>
		</g>
	</g>
	<g>
		<path class="st33" d="M1089.8,1222.1h1168.5c8.7,0,15.8-7.1,15.8-15.8l0,0c0-8.7-7.1-15.8-15.8-15.8H1089.8
			c-8.7,0-15.8,7.1-15.8,15.8l0,0C1074,1215,1081.1,1222.1,1089.8,1222.1z"/>
		<g>
			<path class="st33" d="M1121.8,1743.2l-0.3,0c-4.1-0.6-7.1-4.6-6.5-8.9l62.9-528l35.3,1.1l-84.6,530.6
				C1128,1741.3,1125.1,1743.6,1121.8,1743.2z"/>
		</g>
		<g>
			<path class="st33" d="M2227.5,1743.2l0.3,0c4.1-0.6,7.1-4.6,6.5-8.9l-62.9-528l-35.3,1.1l84.6,530.6
				C2221.3,1741.3,2224.3,1743.6,2227.5,1743.2z"/>
		</g>
	</g>
	<path class="st34" d="M2942.4,1749.9H304.7c-1.6,0-3-1.3-3-3v-1c0-1.6,1.3-3,3-3h2637.8c1.6,0,3,1.3,3,3v1
		C2945.4,1748.5,2944.1,1749.9,2942.4,1749.9z"/>
	<circle class="st35" cx="1705.1" cy="554.7" r="32"/>
	<circle class="st35" cx="1820" cy="628.2" r="18.3"/>
	<circle class="st35" cx="1867.4" cy="712.1" r="10.7"/>
</g>
<text transform="matrix(1 0 0 1 1390 506)" class="st36 st37">Verified Pros</text>
<circle class="st38" cx="1462" cy="359.6" r="57.9"/>
<polygon class="st39" points="1494.2,347.9 1449.8,380.5 1445.5,375.5 1489.9,342.9 "/>
<rect x="1433.8" y="366.1" transform="matrix(0.5755 0.8178 -0.8178 0.5755 915.4789 -1025.3818)" class="st39" width="23.4" height="6.1"/>
<ellipse class="st35" cx="2302.1" cy="513.6" rx="32.5" ry="32"/>
<ellipse class="st35" cx="2185.5" cy="587.2" rx="18.5" ry="18.3"/>
<path class="st35" d="M2137.4,660.3c-6,0-10.9,4.8-10.9,10.7c0,5.9,4.9,10.7,10.9,10.7"/>
<ellipse class="st35" cx="2432" cy="395.5" rx="45" ry="44.3"/>
<path class="st1" d="M2717.4,337.1c2.8-9.3,3.8-18.4,4-25.7c0.3-10.2-0.9-17.1-0.9-17.1c-0.1-0.1-0.2-0.6-0.5-1.5
	c-0.1-0.6-0.3-1.3-0.5-2.1c-0.2-0.9-0.5-1.9-0.8-3.1c-0.8-2.7-1.8-6.2-3.2-10.3c-1.4-4.1-3.1-8.7-5.3-13.8
	c-2.2-5.2-4.9-10.7-8.2-16.6c-2.9-5.1-6.2-10.5-10-15.9c0,0,0,0,0,0c-14.9-21.4-37.6-44.2-71.8-61.1c-2.3-1.1-4.7-2.3-7.1-3.3
	c-0.6-0.3-1.2-0.5-1.8-0.8c-8.9-4-17.7-7.6-26.3-10.8c-1.9-0.7-3.8-1.4-5.6-2.1c-78-28-139.7-22.9-138.3,44.1
	c0.1,2.8,0.3,5.6,0.6,8.4c0.3,2.8,0.8,5.6,1.4,8.4c0.7,3.4,1.6,6.9,2.6,10.4c2.1,7,4.8,14.2,8.1,21.5c1.4,3.2,3,6.3,4.6,9.5
	c0.4,0.8,0.8,1.6,1.3,2.4c12,22.7,29.2,45.6,49.3,65.9c5.3,5.4,10.8,10.5,16.5,15.4l0,0c36.8,31.9,80.4,53.7,119.9,50.6
	c17.2-1.3,30.6-5.7,41-11.7c6.2-3.6,11.3-7.8,15.5-12.4C2709.7,356.7,2714.5,346.8,2717.4,337.1z"/>
<g>
	<path class="st40" d="M2661.7,202.6c3.4-40.6-36.7-53.6-64.5-42.5c-28.1,11.2-35.1-5.9-74.9,0c-40.3,6.1-18.1,68.2-18.1,68.2
		s7.9,54.3,16.1,79.2c8.2,24.8,80.5,13.8,98.2,12.6c17.5-1.2,32.8-0.2,47.3-28C2680.3,264.4,2658.3,243.1,2661.7,202.6z"/>
	<g class="st16">
		<path class="st41" d="M2625.2,214.4c2.8,1.4,6.4,0.1,8-3c1.6-3.1,0.5-6.8-2.3-8.2c-0.1-0.1-0.3-0.1-0.4-0.2
			c0.5-1.7,0.9-3.4,1.2-5.1c0.2,0,0.3,0,0.5,0c3.2-0.3,5.8-3.3,5.8-6.7c-0.1-3.4-2.8-5.9-6-5.6c-0.2,0-0.3,0-0.5,0.1
			c-0.3-1.7-0.8-3.3-1.4-4.9c0.1-0.1,0.3-0.2,0.4-0.3c2.8-1.9,3.7-5.8,2-8.6c-1.7-2.8-5.3-3.5-8.1-1.5c-0.1,0.1-0.3,0.2-0.4,0.3
			c-1.1-1.2-2.3-2.3-3.6-3.4c0.1-0.2,0.2-0.3,0.3-0.5c1.6-3.1,3.6-6.5,0.7-7.9c-6.6-3.2-9.5-0.5-11.1,2.6c-0.1,0.2-0.2,0.3-0.2,0.5
			c-1.6-0.4-3.2-0.8-4.8-0.9c0-0.2,0-0.3,0-0.5c-0.1-3.4,0.9-5.2-2.3-5.3c-7.1-0.1-9.5,2.9-9.4,6.3c0,0.2,0,0.4,0,0.5
			c-1.6,0.5-3.2,1.1-4.8,1.8c-0.1-0.2-0.2-0.3-0.2-0.4c-1.7-2.8-5.3-3.5-8.1-1.5c-2.8,1.9-3.7,5.8-2,8.6c0.1,0.1,0.2,0.3,0.3,0.4
			c-1.2,1.2-2.4,2.6-3.4,4c-0.1-0.1-0.3-0.2-0.4-0.2c-2.8-1.4-6.4-0.1-8,3c-1.6,3.1-0.5,6.8,2.3,8.2c0.1,0.1,0.3,0.1,0.4,0.2
			c-0.5,1.7-0.9,3.4-1.2,5.1c-0.2,0-0.3,0-0.5,0c-3.2,0.3-5.8,3.3-5.8,6.7c0.1,3.4,2.8,5.9,6,5.6c0.2,0,0.3,0,0.5-0.1
			c0.3,1.7,0.8,3.3,1.4,4.9c-0.1,0.1-0.3,0.2-0.4,0.3c-2.8,1.9-3.7,5.8-2,8.6c1.7,2.8,7.3,4.1,10,2.1c0.1-0.1-1.7-0.8-1.5-0.9
			c1.1,1.2,2.3,2.3,3.6,3.4c-0.1,0.2-0.2,0.3-0.3,0.5c-1.6,3.1-0.5,6.8,2.3,8.2c2.8,1.4,6.4,0.1,8-3c0.1-0.2,0.2-0.3,0.2-0.5
			c1.6,0.4,3.2,0.8,4.8,0.9c0,0.2,0,0.3,0,0.5c0.1,3.4,2.8,5.9,6,5.6c3.2-0.3,5.8-3.3,5.8-6.7c0-0.2,0-0.4,0-0.5
			c1.6-0.5,3.2-1.1,4.8-1.8c0.1,0.2,0.2,0.3,0.2,0.4c1.7,2.8,5.3,3.5,8.1,1.5c2.8-1.9,3.7-5.8,2-8.6c-0.1-0.1-0.2-0.3-0.3-0.4
			c1.2-1.2,2.4-2.6,3.4-4C2624.9,214.2,2625.1,214.3,2625.2,214.4z M2589.7,214.9c-10.3-5.3-14.1-18.6-8.4-29.8
			c5.7-11.2,18.7-16,29-10.8c10.3,5.3,14.1,18.6,8.4,29.8S2600.1,220.1,2589.7,214.9z"/>
		<path class="st41" d="M2632.1,197.9c3.2-0.3,5.8-3.3,5.8-6.7c-0.1-3.4-2.8-5.9-6-5.6c-0.2,0-0.3,0-0.5,0.1
			c-0.3-1.7-0.8-3.3-1.4-4.9c0.1-0.1,0.3-0.2,0.4-0.3c2.8-1.9,6.2-6.7,4.3-9.3c-3.7-4.9-7.6-2.8-10.4-0.9c-0.1,0.1-0.3,0.2-0.4,0.3
			c-1.1-1.2-2.3-2.3-3.6-3.4c0.1-0.2,0.2-0.3,0.3-0.5c0.9-1.7,0.9-3.5,0.4-5.1c-2.7,4.7-5.3,9.5-7.9,14.2c8.2,6,10.9,18,5.7,28.1
			c-4.4,8.6-13.1,13.4-21.5,12.8c-0.4,1-0.7,2-1.2,2.9c-1.1,2.6-2.3,5.2-3.6,7.8c0.8,0.1,1.6,0.3,2.4,0.3c0,0.2,0,0.3,0,0.5
			c0.1,3.4,2.1,6.3,8,6c3.3-0.2,3.8-3.6,3.7-7c0-0.2,0-0.4,0-0.5c1.6-0.5,3.2-1.1,4.8-1.8c0.1,0.2,0.2,0.3,0.2,0.4
			c1.7,2.8,7.5,4,10.3,2c2.8-1.9,1.4-6.3-0.2-9.1c-0.1-0.1-0.2-0.3-0.3-0.4c1.2-1.2,2.4-2.6,3.4-4c0.1,0.1,0.3,0.2,0.4,0.2
			c2.8,1.4,6.4,0.1,8-3c1.6-3.1,0.5-6.8-2.3-8.2c-0.1-0.1-0.3-0.1-0.4-0.2c0.5-1.7,0.9-3.4,1.2-5.1
			C2631.8,197.9,2632,197.9,2632.1,197.9z"/>
		<path class="st42" d="M2628.3,214.8c2.8,1.4,6.4,0.1,8-3c1.6-3.1,0.5-6.8-2.3-8.2c-0.1-0.1-0.3-0.1-0.4-0.2
			c0.5-1.7,0.9-3.4,1.2-5.1c0.2,0,0.3,0,0.5,0c3.2-0.3,5.8-3.3,5.8-6.7c-0.1-3.4-2.8-5.9-6-5.6c-0.2,0-0.3,0-0.5,0.1
			c-0.3-1.7-0.8-3.3-1.4-4.9c0.1-0.1,0.3-0.2,0.4-0.3c2.8-1.9,3.7-5.8,2-8.6c-1.7-2.8-5.3-3.5-8.1-1.5c-0.1,0.1-0.3,0.2-0.4,0.3
			c-1.1-1.2-2.3-2.3-3.6-3.4c0.1-0.2,0.2-0.3,0.3-0.5c1.6-3.1,0.5-6.8-2.3-8.2c-2.8-1.4-6.4-0.1-8,3c-0.1,0.2-0.2,0.3-0.2,0.5
			c-1.6-0.4-3.2-0.8-4.8-0.9c0-0.2,0-0.3,0-0.5c-0.1-3.4-2.8-5.9-6-5.6c-3.2,0.3-5.8,3.3-5.8,6.7c0,0.2,0,0.4,0,0.5
			c-1.6,0.5-3.2,1.1-4.8,1.8c-0.1-0.2-0.2-0.3-0.2-0.4c-1.7-2.8-5.3-3.5-8.1-1.5s-3.7,5.8-2,8.6c0.1,0.1,0.2,0.3,0.3,0.4
			c-1.2,1.2-2.4,2.6-3.4,4c-0.1-0.1-0.3-0.2-0.4-0.2c-2.8-1.4-6.4-0.1-8,3c-1.6,3.1-0.5,6.8,2.3,8.2c0.1,0.1,0.3,0.1,0.4,0.2
			c-0.5,1.7-0.9,3.4-1.2,5.1c-0.2,0-0.3,0-0.5,0c-3.2,0.3-5.8,3.3-5.8,6.7c0.1,3.4,2.8,5.9,6,5.6c0.2,0,0.3,0,0.5-0.1
			c0.3,1.7,0.8,3.3,1.4,4.9c-0.1,0.1-0.3,0.2-0.4,0.3c-2.8,1.9-3.7,5.8-2,8.6c1.7,2.8,5.3,3.5,8.1,1.5c0.1-0.1,0.3-0.2,0.4-0.3
			c1.1,1.2,2.3,2.3,3.6,3.4c-0.1,0.2-0.2,0.3-0.3,0.5c-1.6,3.1-0.5,6.8,2.3,8.2c2.8,1.4,6.4,0.1,8-3c0.1-0.2,0.2-0.3,0.2-0.5
			c1.6,0.4,3.2,0.8,4.8,0.9c0,0.2,0,0.3,0,0.5c0.1,3.4,2.8,5.9,6,5.6c3.2-0.3,5.8-3.3,5.8-6.7c0-0.2,0-0.4,0-0.5
			c1.6-0.5,3.2-1.1,4.8-1.8c0.1,0.2,0.2,0.3,0.2,0.4c1.7,2.8,5.3,3.5,8.1,1.5c2.8-1.9,3.7-5.8,2-8.6c-0.1-0.1-0.2-0.3-0.3-0.4
			c1.2-1.2,2.4-2.6,3.4-4C2628,214.6,2628.1,214.7,2628.3,214.8z M2592.8,215.2c-10.3-5.3-14.1-18.6-8.4-29.8
			c5.7-11.2,18.7-16,29-10.8c10.3,5.3,14.1,18.6,8.4,29.8C2616.1,215.6,2603.1,220.5,2592.8,215.2z"/>
	</g>
	<g class="st16">
		<path class="st41" d="M2550.7,187.1c1.4,0.7,3.2,0.1,4-1.5c0.8-1.6,0.3-3.4-1.2-4.1c-0.1,0-0.2-0.1-0.2-0.1
			c0.3-0.9,0.5-1.7,0.6-2.6c0.1,0,0.2,0,0.2,0c1.6-0.1,2.9-1.7,2.9-3.4c0-1.7-1.4-3-3-2.8c-0.1,0-0.2,0-0.3,0
			c-0.2-0.8-0.4-1.7-0.7-2.5c0.1,0,0.2-0.1,0.2-0.1c1.4-1,1.8-2.9,1-4.3c-0.8-1.4-2.7-1.8-4.1-0.8c-0.1,0.1-0.1,0.1-0.2,0.2
			c-0.6-0.6-1.2-1.2-1.8-1.7c0-0.1,0.1-0.2,0.1-0.2c0.8-1.6,1.8-3.3,0.4-4c-3.3-1.6-4.8-0.2-5.6,1.3c0,0.1-0.1,0.2-0.1,0.2
			c-0.8-0.2-1.6-0.4-2.4-0.5c0-0.1,0-0.2,0-0.3c0-1.7,0.5-2.6-1.2-2.7c-3.6-0.1-4.8,1.5-4.8,3.2c0,0.1,0,0.2,0,0.3
			c-0.8,0.2-1.6,0.5-2.4,0.9c0-0.1-0.1-0.2-0.1-0.2c-0.8-1.4-2.7-1.8-4.1-0.8c-1.4,1-1.8,2.9-1,4.3c0,0.1,0.1,0.1,0.1,0.2
			c-0.6,0.6-1.2,1.3-1.7,2c-0.1,0-0.1-0.1-0.2-0.1c-1.4-0.7-3.2-0.1-4,1.5c-0.8,1.6-0.3,3.4,1.2,4.1c0.1,0,0.2,0.1,0.2,0.1
			c-0.3,0.9-0.5,1.7-0.6,2.6c-0.1,0-0.2,0-0.2,0c-1.6,0.1-2.9,1.7-2.9,3.4c0,1.7,1.4,3,3,2.8c0.1,0,0.2,0,0.3,0
			c0.2,0.8,0.4,1.7,0.7,2.5c-0.1,0-0.2,0.1-0.2,0.1c-1.4,1-1.8,2.9-1,4.3c0.8,1.4,3.7,2.1,5.1,1.1c0.1-0.1-0.8-0.4-0.8-0.5
			c0.6,0.6,1.2,1.2,1.8,1.7c0,0.1-0.1,0.2-0.1,0.2c-0.8,1.6-0.3,3.4,1.2,4.1c1.4,0.7,3.2,0.1,4-1.5c0-0.1,0.1-0.2,0.1-0.2
			c0.8,0.2,1.6,0.4,2.4,0.5c0,0.1,0,0.2,0,0.3c0,1.7,1.4,3,3,2.8c1.6-0.1,2.9-1.7,2.9-3.4c0-0.1,0-0.2,0-0.3
			c0.8-0.2,1.6-0.5,2.4-0.9c0,0.1,0.1,0.2,0.1,0.2c0.8,1.4,2.7,1.8,4.1,0.8c1.4-1,1.8-2.9,1-4.3c0-0.1-0.1-0.1-0.1-0.2
			c0.6-0.6,1.2-1.3,1.7-2C2550.5,187,2550.6,187.1,2550.7,187.1z M2532.8,187.4c-5.2-2.6-7.1-9.4-4.2-15c2.9-5.6,9.4-8.1,14.6-5.4
			c5.2,2.6,7.1,9.4,4.2,15C2544.5,187.6,2538,190,2532.8,187.4z"/>
		<path class="st41" d="M2554.1,178.8c1.6-0.1,2.9-1.7,2.9-3.4c0-1.7-1.4-3-3-2.8c-0.1,0-0.2,0-0.3,0c-0.2-0.8-0.4-1.7-0.7-2.5
			c0.1,0,0.2-0.1,0.2-0.1c1.4-1,3.1-3.4,2.1-4.7c-1.9-2.5-3.8-1.4-5.2-0.4c-0.1,0.1-0.1,0.1-0.2,0.2c-0.6-0.6-1.2-1.2-1.8-1.7
			c0-0.1,0.1-0.2,0.1-0.2c0.4-0.8,0.5-1.8,0.2-2.6c-1.4,2.4-2.7,4.8-4,7.2c4.2,3,5.5,9.1,2.9,14.2c-2.2,4.3-6.6,6.8-10.9,6.5
			c-0.2,0.5-0.4,1-0.6,1.5c-0.6,1.3-1.2,2.6-1.8,3.9c0.4,0.1,0.8,0.1,1.2,0.2c0,0.1,0,0.2,0,0.3c0,1.7,1.1,3.2,4,3
			c1.6-0.1,1.9-1.8,1.9-3.5c0-0.1,0-0.2,0-0.3c0.8-0.2,1.6-0.5,2.4-0.9c0,0.1,0.1,0.2,0.1,0.2c0.8,1.4,3.8,2,5.2,1s0.7-3.2-0.1-4.6
			c0-0.1-0.1-0.1-0.1-0.2c0.6-0.6,1.2-1.3,1.7-2c0.1,0,0.1,0.1,0.2,0.1c1.4,0.7,3.2,0.1,4-1.5c0.8-1.6,0.3-3.4-1.2-4.1
			c-0.1,0-0.2-0.1-0.2-0.1c0.3-0.9,0.5-1.7,0.6-2.6C2554,178.8,2554.1,178.8,2554.1,178.8z"/>
		<path class="st42" d="M2552.2,187.3c1.4,0.7,3.2,0.1,4-1.5c0.8-1.6,0.3-3.4-1.2-4.1c-0.1,0-0.2-0.1-0.2-0.1
			c0.3-0.9,0.5-1.7,0.6-2.6c0.1,0,0.2,0,0.2,0c1.6-0.1,2.9-1.7,2.9-3.4c0-1.7-1.4-3-3-2.8c-0.1,0-0.2,0-0.3,0
			c-0.2-0.8-0.4-1.7-0.7-2.5c0.1,0,0.2-0.1,0.2-0.1c1.4-1,1.8-2.9,1-4.3c-0.8-1.4-2.7-1.8-4.1-0.8c-0.1,0.1-0.1,0.1-0.2,0.2
			c-0.6-0.6-1.2-1.2-1.8-1.7c0-0.1,0.1-0.2,0.1-0.2c0.8-1.6,0.3-3.4-1.2-4.1c-1.4-0.7-3.2-0.1-4,1.5c0,0.1-0.1,0.2-0.1,0.2
			c-0.8-0.2-1.6-0.4-2.4-0.5c0-0.1,0-0.2,0-0.3c0-1.7-1.4-3-3-2.8c-1.6,0.1-2.9,1.7-2.9,3.4c0,0.1,0,0.2,0,0.3
			c-0.8,0.2-1.6,0.5-2.4,0.9c0-0.1-0.1-0.2-0.1-0.2c-0.8-1.4-2.7-1.8-4.1-0.8c-1.4,1-1.8,2.9-1,4.3c0,0.1,0.1,0.1,0.1,0.2
			c-0.6,0.6-1.2,1.3-1.7,2c-0.1,0-0.1-0.1-0.2-0.1c-1.4-0.7-3.2-0.1-4,1.5c-0.8,1.6-0.3,3.4,1.2,4.1c0.1,0,0.2,0.1,0.2,0.1
			c-0.3,0.9-0.5,1.7-0.6,2.6c-0.1,0-0.2,0-0.2,0c-1.6,0.1-2.9,1.7-2.9,3.4c0,1.7,1.4,3,3,2.8c0.1,0,0.2,0,0.3,0
			c0.2,0.8,0.4,1.7,0.7,2.5c-0.1,0-0.2,0.1-0.2,0.1c-1.4,1-1.8,2.9-1,4.3c0.8,1.4,2.7,1.8,4.1,0.8c0.1-0.1,0.1-0.1,0.2-0.2
			c0.6,0.6,1.2,1.2,1.8,1.7c0,0.1-0.1,0.2-0.1,0.2c-0.8,1.6-0.3,3.4,1.2,4.1c1.4,0.7,3.2,0.1,4-1.5c0-0.1,0.1-0.2,0.1-0.2
			c0.8,0.2,1.6,0.4,2.4,0.5c0,0.1,0,0.2,0,0.3c0,1.7,1.4,3,3,2.8c1.6-0.1,2.9-1.7,2.9-3.4c0-0.1,0-0.2,0-0.3
			c0.8-0.2,1.6-0.5,2.4-0.9c0,0.1,0.1,0.2,0.1,0.2c0.8,1.4,2.7,1.8,4.1,0.8s1.8-2.9,1-4.3c0-0.1-0.1-0.1-0.1-0.2
			c0.6-0.6,1.2-1.3,1.7-2C2552.1,187.2,2552.1,187.3,2552.2,187.3z M2534.3,187.5c-5.2-2.6-7.1-9.4-4.2-15c2.9-5.6,9.4-8.1,14.6-5.4
			c5.2,2.6,7.1,9.4,4.2,15C2546.1,187.7,2539.5,190.2,2534.3,187.5z"/>
	</g>
	<g>
		<linearGradient id="SVGID_1_" gradientUnits="userSpaceOnUse" x1="2621.5305" y1="194.617" x2="2578.2712" y2="289.8453">
			<stop  offset="0" style="stop-color:#311944"/>
			<stop  offset="1" style="stop-color:#893976"/>
		</linearGradient>
		<path class="st43" d="M2607.6,277.3l-11.3-6.6c-0.1-0.1-0.3-0.1-0.4-0.2l0,0l0,0c-0.8-0.5-1.8-0.7-2.8-0.6l-17,0.4l-11.9,0.3
			c-3.2,0.1-5.8,2.5-5.8,5.5v27.6c0,1.9,1,3.6,2.7,4.5l0,0l12.1,6.7l6.1-6.8l3-0.1l10.8-0.5c3.1-0.1,5.8-2.6,5.8-5.6V287
			L2607.6,277.3z"/>
		<g>
			<g>
				<linearGradient id="SVGID_2_" gradientUnits="userSpaceOnUse" x1="2584.2092" y1="284.3258" x2="2634.6484" y2="384.8221">
					<stop  offset="3.597120e-03" style="stop-color:#E38DDD"/>
					<stop  offset="1" style="stop-color:#9571F6"/>
				</linearGradient>
				<path class="st44" d="M2610.1,281.8v26.7c0,2.9-2.4,5.5-5.5,5.6l-28.7,1.5c-3.2,0.2-6-2.2-6-5.2v-27.4c0-3,2.8-5.6,5.9-5.7
					l28.6-0.7C2607.6,276.5,2610.1,278.8,2610.1,281.8z"/>
				<g>
					<path class="st0" d="M2592.8,304c-4.3,0.2-6.4-2.4-6.4-7.8c0-2.6,0.6-4.7,1.7-6.2c1-1.3,2.3-2.1,4.1-2.3c0.2,0,0.4,0,0.7-0.1
						c0.9,0,1.9,0.1,2.8,0.4c1,0.3,1.9,0.6,2.9,1l1.7-4.2c-2.5-1.1-4.9-1.5-7.4-1.5c-0.8,0-1.5,0.1-2.3,0.2
						c-1.5,0.3-2.9,0.8-4.1,1.5c-1.8,1.1-3.2,2.6-4.2,4.5c-1,1.9-1.5,4.2-1.5,6.7c0,4,1,7.1,3,9.1c2,2.1,4.8,3,8.6,2.8
						c1.2-0.1,2.5-0.2,3.5-0.4c1.3-0.3,2.1-0.6,3.8-1.2v-4.3c-1.8,0.5-2.6,0.8-3.7,1.1C2594.9,303.8,2593.7,303.9,2592.8,304z"/>
				</g>
			</g>
			<linearGradient id="SVGID_3_" gradientUnits="userSpaceOnUse" x1="2570.0398" y1="296.2625" x2="2595.7771" y2="296.2625">
				<stop  offset="3.597120e-03" style="stop-color:#E38DDD"/>
				<stop  offset="1" style="stop-color:#9571F6"/>
			</linearGradient>
			<path class="st45" d="M2570,310.4v-27.4c0-3,2.8-5.6,5.9-5.7l11.9-0.3c0.8,2.3,1.8,4.4,2.6,6.5c0.5,1.4,1.1,2.8,1.6,4.1
				c1.9,5.2,3.5,10.5,3.7,15.8c0.1,1.4,0,2.9-0.1,4.3c-0.2,2-0.6,4-1.3,6.1c-0.1,0.2-0.1,0.3-0.2,0.7l-18.1,0.9
				C2572.8,315.7,2570,313.4,2570,310.4z"/>
		</g>
	</g>
	<g>
		<linearGradient id="SVGID_4_" gradientUnits="userSpaceOnUse" x1="2591.7285" y1="241.7869" x2="2513.4033" y2="327.8631">
			<stop  offset="0" style="stop-color:#444B8C"/>
			<stop  offset="0.9964" style="stop-color:#26264F"/>
		</linearGradient>
		<path class="st46" d="M2604.4,239.2l-9.9-1.6c-0.4-0.1-1-0.1-1.5-0.1h-18.4h-10.5c-3.2,0-5.6,2.2-5.6,5.2v27.6
			c0,2.6,1.7,5.1,4.4,5.3h0l0,0c0.1,0,0.2,0,0.4,0l10.9,1.5l1.4-1.7l0.3,0l17.2-0.4c3.1-0.1,5.8-2.6,5.8-5.5v-23.1L2604.4,239.2z"/>
		<g>
			<g>
				<linearGradient id="SVGID_5_" gradientUnits="userSpaceOnUse" x1="2572.5427" y1="214.4873" x2="2644.0459" y2="408.5666">
					<stop  offset="0" style="stop-color:#AA80F9"/>
					<stop  offset="0.9964" style="stop-color:#6165D7"/>
				</linearGradient>
				<path class="st47" d="M2603.1,239l-28.6,0c-3.2,0-6,2.4-6,5.4v27.4c0,3,2.8,5.3,6,5.3l28.5-0.8c3-0.1,5.6-2.5,5.6-5.4v-26.7
					C2608.6,241.3,2606.1,239,2603.1,239z"/>
				<g>
					<path class="st0" d="M2597.4,259c-0.7-0.9-1.7-1.5-3.4-1.9V257c1.5-0.2,2.1-0.8,2.8-1.7c0.7-0.9,1-2.1,1-3.6
						c0-2.1-0.8-3.6-2.4-4.6c-1.6-1-4.1-1.4-7.7-1.4l-7.9,0v24.6l9.5-0.2c2.9-0.1,5.1-0.8,6.8-2.1c1.7-1.3,2.5-3.1,2.5-5.3
						C2598.4,261.2,2598.1,259.9,2597.4,259z M2584.9,249.7l2.9,0c1.5,0,2.7,0.3,3.4,0.7c0.7,0.4,1.1,1.1,1.1,2c0,1-0.3,1.7-1,2.2
						c-0.7,0.4-1.7,0.7-3.2,0.7l-3.2,0V249.7z M2591.8,264.7c-0.7,0.6-1.8,0.8-3.3,0.8l-3.5,0.1v-6.3l3.4-0.1c3,0,4.5,1,4.5,3
						C2592.8,263.3,2592.5,264.1,2591.8,264.7z"/>
				</g>
			</g>
			<linearGradient id="SVGID_6_" gradientUnits="userSpaceOnUse" x1="2568.5066" y1="258.0028" x2="2586.1782" y2="258.0028">
				<stop  offset="0" style="stop-color:#AA80F9"/>
				<stop  offset="0.9964" style="stop-color:#6165D7"/>
			</linearGradient>
			<path class="st48" d="M2568.5,271.8v-27.4c0-3,2.8-5.3,6-5.4l10.4,0c-0.6,1.9-1.1,4.5-1.6,6.7c-1.1,5.3-1.7,10.7-1.1,16.1
				c0.3,2.8,0.9,5.5,1.7,8.2c0.7,2.2,1.5,4.4,2.3,6.7l-11.7,0.3C2571.3,277.1,2568.5,274.8,2568.5,271.8z"/>
		</g>
	</g>
	<g>
		<path class="st49" d="M2532.7,215.2c0,0-1.2,1.3-0.7,2.6c0.3,0.8,0.7,1.3,1,1.6c5.6,5.3,8.4,8,9.8,8.5c4.4,1.5,10.7,1.1,14.3-2.4
			c0,0,1.4-1.4,5.3-11.8l0,0l-1.9-2.6c-4.8,6.8-8.6,8.2-11.2,8.1c-5.7-0.2-10-7.4-14.3-5.7C2533.7,213.9,2533,214.7,2532.7,215.2z"
			/>
		<g>
			
				<linearGradient id="SVGID_7_" gradientUnits="userSpaceOnUse" x1="2288.0894" y1="501.1276" x2="2333.1052" y2="501.1276" gradientTransform="matrix(0.948 -0.3183 0.3183 0.948 221.005 466.1169)">
				<stop  offset="0" style="stop-color:#AB316D"/>
				<stop  offset="1" style="stop-color:#792D3D"/>
			</linearGradient>
			<path class="st50" d="M2598.1,215.9l-8.6-5.8l-7.4-22.1c-1-2.9-4-4.3-6.9-3.3l-15.7,5.3l-1.4-1l-9.4,4.6
				c-0.3,0.1-0.5,0.2-0.7,0.3l0,0l0,0c-2.1,1.5-3.3,4-2.5,6.5l8.8,26.2c1,2.9,4.2,4.4,7.1,3.4l9.5-3.2l16.7-5.6
				c0.6-0.2,1.1-0.5,1.5-0.8l0,0L2598.1,215.9z"/>
			<g>
				<g>
					<g>
						
							<linearGradient id="SVGID_8_" gradientUnits="userSpaceOnUse" x1="2307.6353" y1="471.3861" x2="2347.323" y2="573.2165" gradientTransform="matrix(0.948 -0.3183 0.3183 0.948 221.005 466.1169)">
							<stop  offset="0" style="stop-color:#FF9085"/>
							<stop  offset="1" style="stop-color:#FB6FBB"/>
						</linearGradient>
						<path class="st51" d="M2592.5,183l8.8,26.2c1,2.9-0.7,5.9-3.5,6.8l-26.2,8.8c-2.9,1-6-0.5-7-3.3l-8.8-26.2c-1-2.9,0.7-6,3.5-7
							l26.2-8.8C2588.4,178.6,2591.5,180.1,2592.5,183z"/>
					</g>
					<g>
						<path class="st0" d="M2577.7,189.7l-6.1,2l0,0.7l-0.4,25.5l5.4-1.8l-0.3-6.4l8.6-2.9l3.7,5.3l5.4-1.8L2577.7,189.7z
							 M2576.2,205.4c-0.1-3-0.2-5.6-0.2-7.4c-0.1-1.8-0.1-3.2-0.2-3.9c0.2,0.4,0.6,0.9,1,1.5c0.4,0.6,2.3,3.1,5.6,7.8L2576.2,205.4
							z"/>
					</g>
				</g>
				
					<linearGradient id="SVGID_9_" gradientUnits="userSpaceOnUse" x1="2299.4949" y1="500.1584" x2="2318.6077" y2="500.1584" gradientTransform="matrix(0.948 -0.3183 0.3183 0.948 221.005 466.1169)">
					<stop  offset="0" style="stop-color:#FF9085"/>
					<stop  offset="1" style="stop-color:#FB6FBB"/>
				</linearGradient>
				<path class="st52" d="M2564.5,221.5l-8.8-26.2c-1-2.9,0.7-6,3.5-7l4.9-1.7c2.5,1.4,5,3.3,7.3,5.6c1.6,1.6,3.2,3.5,4.5,5.7
					c1.2,1.9,2.2,4.1,3,6.4c0.4,1.4,0.8,2.8,1.1,4.3c0.3,1.4,0.4,2.8,0.5,4.4c0.2,2.9,0.3,5.7,0.5,8.6l-9.5,3.2
					C2568.7,225.8,2565.5,224.3,2564.5,221.5z"/>
			</g>
		</g>
		<g>
			
				<linearGradient id="SVGID_10_" gradientUnits="userSpaceOnUse" x1="99.7698" y1="238.1959" x2="103.8595" y2="225.5256" gradientTransform="matrix(-0.997 -7.710000e-02 -7.710000e-02 0.997 2666.126 73.0534)">
				<stop  offset="0" style="stop-color:#AB316D"/>
				<stop  offset="1" style="stop-color:#792D3D"/>
			</linearGradient>
			<path class="st53" d="M2547.9,294.8c0.4,2.1,0.7,4.3,1.1,6.4c-0.2,0.2-0.6,0.7-1.2,0.8c-0.7,0.1-1.3-0.4-1.5-0.7
				c-0.2-3-0.7-5.1-1.3-6.6H2547.9z"/>
			<path class="st54" d="M2538,239.7c3,6.2,4.5,15.3,6.6,25.6c1.9,9.2,2.8,23.7,3.5,30.2c-0.6,0.4-2.8,1.8-3,0.9
				c-8.1-29.9-12.9-38.9-14.6-40.7c-1.1-1.1-3.5-3.5-3.7-6.8c0-0.1,0-0.3,0-0.4C2527.1,243.8,2535.9,240.4,2538,239.7z"/>
			<path class="st8" d="M2535.3,240.8c1.2-0.5,2.2-0.9,2.7-1.1c3,6.2,4.5,15.3,6.6,25.6c1.9,9.2,2.8,23.7,3.5,30.2
				c-0.1,0.1-0.4,0.2-0.6,0.4c-3.7-13.7-2.9-27.7-11.1-40.5C2533.4,250.7,2534.1,245.8,2535.3,240.8z"/>
			<g>
				
					<linearGradient id="SVGID_11_" gradientUnits="userSpaceOnUse" x1="533.7335" y1="369.7852" x2="537.4233" y2="369.7852" gradientTransform="matrix(-0.9913 0.1317 0.1317 0.9913 2984.9412 -153.7328)">
					<stop  offset="0" style="stop-color:#40447E"/>
					<stop  offset="0.9964" style="stop-color:#3C3B6B"/>
				</linearGradient>
				<path class="st55" d="M2502.6,279.2c-0.6-0.2-1.3-0.2-1.8,0.3c-0.9,1.1,0.2,3.3,0.7,4.3c0.5,1.1,1.6,4.2,3.1,3.6
					c0.7-0.3,0.2-2.3-0.2-2.9c-0.4-0.8-0.5-1.7-0.6-2.6c0-0.4-0.2-0.9-0.3-1.2C2503.3,280.2,2503.2,279.5,2502.6,279.2z"/>
				
					<linearGradient id="SVGID_12_" gradientUnits="userSpaceOnUse" x1="531.8361" y1="366.9046" x2="535.9174" y2="366.9046" gradientTransform="matrix(-0.9913 0.1317 0.1317 0.9913 2984.9412 -153.7328)">
					<stop  offset="0" style="stop-color:#AB316D"/>
					<stop  offset="1" style="stop-color:#792D3D"/>
				</linearGradient>
				<path class="st56" d="M2502.2,281.5c0.5,0.9,2.2-0.4,3.1-0.8c0.9-0.3,1,0,0.6-0.7c-0.4-0.7-0.9-1.4-1.9-1
					C2503.1,279.4,2501.7,280.6,2502.2,281.5z"/>
				<path class="st8" d="M2534.4,249c0.1,0.1,0.3,0,0.3,0.5c-0.5,3.7-12.2,26.3-14.3,26.9c-0.2,0.1-12.1,3.7-15.6,5.4
					c-1.7-1.5-0.8-2.8-0.3-3.4c1.3-0.9,12.4-7.2,13.1-7.3c1.1-3.9,0.5-22.2,5.7-24.1C2524.3,246.6,2532.8,246.2,2534.4,249z"/>
			</g>
			<path class="st9" d="M2538.3,215.8c1.2,1.1,1.7,2.1,2.4,3.4c1.1,2.1,1.8,3.4,1.9,5c0.3,3.1-1.4,5.6-2.3,6.6
				c-1.2,7.1-1.5,8.7-1.5,8.8l0,0c0.2,0.8,0.5,2,1.1,3.4c1.6,3.7,3.1,4.2,2.9,5.6c-0.3,2.5-5.6,4.2-9.7,4.3
				c-2.2,0.1-2.5-0.4-4.3-0.5c-7.9-0.3-10.5,7-15.8,5.9c-3.8-0.8-4.4-4.9-9.1-5.1c-1.7-0.1-3.4,0.3-3.7-0.3
				c-0.2-0.6,1.2-1.8,2.4-2.4c2.6-1.5,5.3-1.1,6.4-1.1c5.2,0.1,9.6-5.8,12.3-9.4c7.5-10.1,5.6-22.4,5.2-25c0.6-0.5,3-2,8.8-1.3
				C2535.7,214.1,2537,214.6,2538.3,215.8z"/>
			<path class="st49" d="M2518.7,249.7c4.7-3.4,11.6-2.6,14.6-6.4c2.5-2.7,4.3-6,6.4-8.9c-0.7,4.1-0.9,5.2-0.9,5.2l0,0
				c0.2,0.8,0.5,2,1.1,3.4c1.6,3.7,3.1,4.2,2.9,5.6c-0.3,2.5-5.6,4.2-9.7,4.3c-2.2,0.1-2.5-0.4-4.3-0.5c-7.9-0.3-10.5,7-15.8,5.9
				c-3.8-0.8-4.4-4.9-9.1-5.1c-1.7-0.1-3.4,0.3-3.7-0.3c-0.2-0.6,1.2-1.8,2.4-2.4c1.3-0.7,2.6-1,3.7-1.1
				C2510.5,251.8,2514.6,253,2518.7,249.7z"/>
			
				<linearGradient id="SVGID_13_" gradientUnits="userSpaceOnUse" x1="1667.6527" y1="997.9051" x2="1669.7883" y2="1001.1196" gradientTransform="matrix(-0.2743 0.9616 0.9616 0.2743 2048.0129 -1658.382)">
				<stop  offset="0" style="stop-color:#AB316D"/>
				<stop  offset="1" style="stop-color:#792D3D"/>
			</linearGradient>
			<path class="st57" d="M2551.3,223.3c0,0,2.8-2.2,4.4-2c1.6,0.1,2.4,3.4,0.6,3.8c-1.8,0.4-4.9,0.2-4.9,0.2L2551.3,223.3z"/>
			<path class="st49" d="M2524.8,215.2c0,0-1.6,0.7-1.7,2.1c0,0.8,0.1,1.5,0.3,1.8c3,7.1,4.6,10.7,5.6,11.6
				c3.5,3.1,9.4,5.2,14.1,3.5c0,0,1.9-0.7,9.5-8.7l0,0l-0.8-3.2c-7,4.3-11.1,4.1-13.5,3c-5.2-2.5-6.3-10.8-10.9-10.9
				C2526.3,214.3,2525.4,214.8,2524.8,215.2z"/>
			<path class="st58" d="M2537.7,209.1c0.2,0,0.5-0.1,0.9-0.3c0.6-0.4,0.9-1.1,0.9-1.3c0.2-0.5,0.1-1,0-1.7
				c-0.1-0.6-0.1-0.9-0.3-1.2c-0.3-0.5-0.6-0.3-1.2-0.8c-0.7-0.6-0.6-1.2-1.1-1.3c-0.4-0.1-0.5,0.1-1.3,0.1c-0.5,0-0.5-0.1-0.9-0.1
				c-0.6,0-0.8,0.2-1.6,0.4c-1.1,0.3-1.3,0.1-1.6,0.4c-0.5,0.5,0,1.2-0.5,1.7c-0.3,0.3-0.6,0.1-1,0.4c-0.3,0.3-0.1,0.7-0.4,1.5
				c-0.3,0.8-0.5,0.8-0.5,1.3c0,0.3,0.1,0.3,0.5,1.3c0.4,1,0.3,1,0.5,1.2c0.4,0.5,0.6,0.3,1.3,0.9c0.6,0.5,0.6,0.9,1,0.9
				c0.4,0.1,0.5-0.3,1.2-0.4c0.6,0,0.7,0.2,1.1,0.1c0.5-0.1,0.6-0.8,0.8-1.2C2535.5,210.5,2536.1,209.7,2537.7,209.1z"/>
			
				<linearGradient id="SVGID_14_" gradientUnits="userSpaceOnUse" x1="2159.6382" y1="158.7187" x2="2160.0984" y2="146.457" gradientTransform="matrix(0.9949 0.1011 -0.1011 0.9949 400.2713 -153.2683)">
				<stop  offset="0" style="stop-color:#AB316D"/>
				<stop  offset="1" style="stop-color:#792D3D"/>
			</linearGradient>
			<path class="st59" d="M2533.6,208.8c0.5,1.5,0.5,3-0.4,4.1c-0.8,1-2,0.9-2,1.3c-0.1,0.9,5.2,2.2,5.5,1.5c0.1-0.3-1.5-0.8-1.7-2
				c0-0.5,0.1-0.8,1.1-2.7l0.4,0.1L2533.6,208.8z"/>
			
				<linearGradient id="SVGID_15_" gradientUnits="userSpaceOnUse" x1="256.5369" y1="213.7441" x2="253.7798" y2="206.6716" gradientTransform="matrix(-1 0 0 1 2790.6506 0)">
				<stop  offset="0" style="stop-color:#AB316D"/>
				<stop  offset="1" style="stop-color:#792D3D"/>
			</linearGradient>
			<path class="st60" d="M2534.3,211.1c0,0,0.1,1.5,1.6,1.5c1.8,0,2.1-4.8,1.7-5.1c-0.5-0.3-1,0.5-2.2,0.2c-0.5-0.1-0.9-0.8-1.2-0.1
				c-0.3,0.8-0.1,2.2-0.1,2.2s-0.4-0.4-0.5,0.1C2533.5,210.5,2534,210.8,2534.3,211.1z"/>
			<path class="st61" d="M2553.2,299.2c-0.2-0.4-1.8-0.3-2.7,0.1c-1.4,0.6-2.3,1.9-2.7,2.1c-0.8,0.4-1.6-0.1-1.6,0
				c0,0-0.6,1,0.3,1.6S2554.6,301.4,2553.2,299.2z"/>
		</g>
	</g>
	<g>
		<linearGradient id="SVGID_16_" gradientUnits="userSpaceOnUse" x1="2640.0498" y1="240.9975" x2="2646.2378" y2="262.9458">
			<stop  offset="0" style="stop-color:#311944"/>
			<stop  offset="1" style="stop-color:#893976"/>
		</linearGradient>
		<path class="st62" d="M2650.7,244l-1.5,0.3c-0.9,0.1-1.6,0.7-1.9,1.6c-1.3,3.4-4.8,12.2-8.4,14.9c-4.4,3.4-1.2,4.8-1.2,4.8
			s6.5,2.1,10.7-5.1C2652.8,253.2,2650.7,244,2650.7,244z"/>
		<linearGradient id="SVGID_17_" gradientUnits="userSpaceOnUse" x1="2673.8315" y1="288.9365" x2="2649.0671" y2="226.0391">
			<stop  offset="0" style="stop-color:#AA80F9"/>
			<stop  offset="0.9964" style="stop-color:#6165D7"/>
		</linearGradient>
		<path class="st63" d="M2655.9,242.6c2.1-0.9,3.6-0.1,3.7,0c2,0.8,5.7,4.1,7.2,7.5c3.2,7.3,2.3,8.7,1.3,10.4
			c-1.5,2.4-5.3,2.9-7.8,2.5c-5.7-0.9-7.9-7.1-8.1-7.9C2650.6,250.3,2652.1,244.3,2655.9,242.6z"/>
		<linearGradient id="SVGID_18_" gradientUnits="userSpaceOnUse" x1="2636.991" y1="288.0973" x2="2658.0203" y2="318.2455">
			<stop  offset="0" style="stop-color:#FFC444"/>
			<stop  offset="0.9964" style="stop-color:#F36F56"/>
		</linearGradient>
		<path class="st64" d="M2644.5,297.7c-0.2,1.4-0.5,2.7-0.7,4.1c0.1,0.2,0.4,0.5,0.8,0.5c0.5,0,0.8-0.3,1-0.4
			c0.1-1.9,0.4-3.2,0.8-4.2H2644.5z"/>
		<path class="st9" d="M2650.9,262.4c-1.9,4-2.9,9.8-4.2,16.3c-1.2,5.9-2.6,14.9-3,19c0.4,0.3,3.2,1.3,3.3,0.8
			c5.2-19.1,8-26.5,9.1-27.7c0.7-0.7,2-0.5,2.1-2.6c0-0.1,0-0.2,0-0.3C2657.8,265.1,2652.2,262.9,2650.9,262.4z"/>
		<g>
			
				<linearGradient id="SVGID_19_" gradientUnits="userSpaceOnUse" x1="2899.2969" y1="62.6563" x2="2901.656" y2="62.6563" gradientTransform="matrix(0.9913 0.1317 -0.1317 0.9913 -194.2906 -153.7328)">
				<stop  offset="0" style="stop-color:#40447E"/>
				<stop  offset="0.9964" style="stop-color:#3C3B6B"/>
			</linearGradient>
			<path class="st65" d="M2672.7,287.7c0.4-0.2,0.8-0.1,1.1,0.2c0.6,0.7-0.1,2.1-0.4,2.8c-0.3,0.7-1,2.7-2,2.3
				c-0.4-0.2-0.1-1.5,0.1-1.9c0.3-0.5,0.3-1.1,0.4-1.6c0-0.2,0.1-0.5,0.2-0.8C2672.3,288.4,2672.4,287.9,2672.7,287.7z"/>
			<linearGradient id="SVGID_20_" gradientUnits="userSpaceOnUse" x1="2659.9436" y1="271.5677" x2="2680.9729" y2="301.7161">
				<stop  offset="0" style="stop-color:#FFC444"/>
				<stop  offset="0.9964" style="stop-color:#F36F56"/>
			</linearGradient>
			<path class="st66" d="M2673,289.2c-0.3,0.6-1.4-0.3-2-0.5c-0.6-0.2-0.6,0-0.4-0.5c0.2-0.5,0.6-0.9,1.2-0.6
				S2673.4,288.6,2673,289.2z"/>
			<path class="st9" d="M2652.4,268.4c0,0.1,0.9,0,0.9,0.3c0.3,2.4,6.2,17.2,7.5,17.6c0.2,0,8.3,2.3,10.5,3.4c1.1-1,0.8-2.8,0.5-3.1
				c-0.8-0.6-7.6-4.5-8.1-4.5c-0.7-2.5-0.9-13.7-4.2-14.9C2658.9,266.8,2653.5,266.6,2652.4,268.4z"/>
		</g>
		<linearGradient id="SVGID_21_" gradientUnits="userSpaceOnUse" x1="2653.2922" y1="254.9155" x2="2643.1089" y2="305.6471">
			<stop  offset="0" style="stop-color:#AA80F9"/>
			<stop  offset="0.9964" style="stop-color:#6165D7"/>
		</linearGradient>
		<path class="st67" d="M2652.9,266h-3.4c-1.1,3.6-1.9,7.9-2.9,12.8c-1.2,5.9-2.6,14.9-3,19c0.1,0.1,0.4,0.2,0.8,0.4
			c1.1-3.1,2.7-6.1,3.9-9.3c1.2-3.7-0.9-8.2,0.7-12C2650.3,273.3,2652.3,269.7,2652.9,266z"/>
		<linearGradient id="SVGID_22_" gradientUnits="userSpaceOnUse" x1="2651.8748" y1="238.3967" x2="2661.6208" y2="272.9651">
			<stop  offset="0" style="stop-color:#311944"/>
			<stop  offset="1" style="stop-color:#893976"/>
		</linearGradient>
		<path class="st68" d="M2663.4,268.6c-1.3-16.6-5.3-23.3-4.9-25.4c-0.5-0.4-2.5-0.9-7-0.3c-0.4,0.1-1.4,0.6-2.4,1.5
			c0,0-0.2,0.2-0.6,0.6c3.2,0.6,6.4,2.4,7.6,5c2,4.9-1.7,10.4,0,14.7c0.9,2.3,2.4,4.3,4.1,6.2
			C2662.1,270.3,2663.5,269.5,2663.4,268.6z"/>
		<path class="st8" d="M2649,244.4c0,0-1.2,1.1-1.9,2.7c-1.1,2.4,0.1,4.5,0.4,8.4c0.4,4.3-0.2,11.5-1.4,14.1c0,0-0.1,0.2-0.1,0.3
			c0.3,2.5,17.5,1.9,17.3-1.4c-1.3-16.6-5.3-23.3-4.9-25.4c-0.5-0.4-2.5-0.9-7-0.3C2651.1,243,2650.1,243.4,2649,244.4z"/>
		<linearGradient id="SVGID_23_" gradientUnits="userSpaceOnUse" x1="2651.2476" y1="255.9033" x2="2655.5339" y2="271.1067">
			<stop  offset="0" style="stop-color:#FF9085"/>
			<stop  offset="1" style="stop-color:#FB6FBB"/>
		</linearGradient>
		<path class="st69" d="M2652.6,264c-2,0-3.7-1.3-5-3.1c-0.2,3.5-0.7,7-1.4,8.7c0,0-0.1,0.2-0.1,0.3c0.3,2.5,17.5,1.9,17.3-1.4
			c-0.1-0.9-0.1-1.8-0.2-2.6C2659.9,264.4,2656.1,263.8,2652.6,264z"/>
		<path class="st61" d="M2640.6,300.2c0.2-0.3,1.4-0.2,2,0.1c1,0.5,1.7,1.4,2,1.5c0.6,0.3,1.1,0,1.2,0c0,0,0.5,0.8-0.2,1.2
			C2644.9,303.4,2639.6,301.9,2640.6,300.2z"/>
		<g>
			
				<linearGradient id="SVGID_24_" gradientUnits="userSpaceOnUse" x1="-1319.9198" y1="481.3383" x2="-1319.5986" y2="472.7822" gradientTransform="matrix(-0.9899 0.1416 0.1416 0.9899 1278.6449 -43.5285)">
				<stop  offset="0" style="stop-color:#AB316D"/>
				<stop  offset="1" style="stop-color:#792D3D"/>
			</linearGradient>
			<path class="st70" d="M2653.8,239.3c0,0-0.1,2.9,0.1,3.4c0.3,0.5-0.4,1.3-1.8,1.7c-1.4,0.4-0.4-2.9-0.4-2.9L2653.8,239.3z"/>
			
				<linearGradient id="SVGID_25_" gradientUnits="userSpaceOnUse" x1="2048.6816" y1="331.0733" x2="2044.4603" y2="320.3517" gradientTransform="matrix(0.991 0.1337 -0.1337 0.991 669.0683 -355.5747)">
				<stop  offset="0" style="stop-color:#311944"/>
				<stop  offset="1" style="stop-color:#6B3976"/>
			</linearGradient>
			<path class="st71" d="M2649.9,237.9c-0.4-0.8-0.3-2,0.4-2.7c0.6-0.6,1.4-0.6,1.9-0.6c1.4,0,3.1,0.8,3.6,2.2
				c0.3,0.8-0.7,2.3-0.9,2.6c-0.2,0.3-0.5,0.4-0.7,0.6c-0.4,0.3-1,0.8-1.9,1.6c0-0.3-0.1-0.6-0.2-1c0-0.1-0.2-0.7-0.5-1.2
				C2650.9,238.5,2650.3,238.6,2649.9,237.9z"/>
			
				<linearGradient id="SVGID_26_" gradientUnits="userSpaceOnUse" x1="-1114.9138" y1="221.8085" x2="-1115.1079" y2="237.4482" gradientTransform="matrix(-0.981 -0.1941 -0.1941 0.981 1601.7356 -195.7316)">
				<stop  offset="0" style="stop-color:#AB316D"/>
				<stop  offset="1" style="stop-color:#792D3D"/>
			</linearGradient>
			<path class="st72" d="M2653.6,241.1c0,0-1.1,1.4-3,1c-1.6-0.3-1.4-4.1-0.2-4.7c0.4-0.2,1.1-0.2,1.7,0c0.3,0.1,0.4,0.3,1,0.5
				c0.5,0.2,0.6,0.2,0.8,0.3c0.2,0.2,0.3,0.6-0.2,1.7c0.4-0.3,0.8-0.4,1-0.2c0,0,0.1,0.1,0.2,0.2
				C2655,240.4,2654.5,240.9,2653.6,241.1z"/>
		</g>
		<linearGradient id="SVGID_27_" gradientUnits="userSpaceOnUse" x1="2656.8176" y1="269.331" x2="2643.5735" y2="235.6936">
			<stop  offset="3.597120e-03" style="stop-color:#E38DDD"/>
			<stop  offset="1" style="stop-color:#9571F6"/>
		</linearGradient>
		<path class="st73" d="M2650.8,243.1c0,0-3.7,2.6-3.2,13.9C2647.7,257.1,2643.5,245.8,2650.8,243.1z"/>
		<linearGradient id="SVGID_28_" gradientUnits="userSpaceOnUse" x1="2669.3098" y1="280.8422" x2="2649.1304" y2="229.5903">
			<stop  offset="3.597120e-03" style="stop-color:#E38DDD"/>
			<stop  offset="1" style="stop-color:#9571F6"/>
		</linearGradient>
		<path class="st74" d="M2655.9,242.6h1.7c-1.3,4-0.7,6.4,0.1,7.9c0,0,0.5,1,4.6,5.2l0,0c0,0,0.2,1.2,0.5,3.5
			c-1.3-0.4-2.5-0.9-3.8-1.3c-0.7-0.5-3.5-2.6-4.5-6.6C2653.4,246.8,2655.5,243.3,2655.9,242.6z"/>
		<linearGradient id="SVGID_29_" gradientUnits="userSpaceOnUse" x1="2636.0623" y1="262.3734" x2="2637.2031" y2="266.4198">
			<stop  offset="0" style="stop-color:#AB316D"/>
			<stop  offset="1" style="stop-color:#792D3D"/>
		</linearGradient>
		<path class="st75" d="M2638.5,263.9c-0.1-0.4-0.6-0.7-1-0.6c-0.8,0.1-2,0.3-2.5,0.7c-0.7,0.6,0.2,3.2,1.2,3.1
			c0.5-0.1,1.2-0.5,1.7-1C2638.6,265.4,2638.8,264.6,2638.5,263.9L2638.5,263.9z"/>
		<g>
			<linearGradient id="SVGID_30_" gradientUnits="userSpaceOnUse" x1="2694.833" y1="199.5462" x2="2622.657" y2="278.8646">
				<stop  offset="0" style="stop-color:#FFC444"/>
				<stop  offset="0.9964" style="stop-color:#F36F56"/>
			</linearGradient>
			<path class="st76" d="M2658.8,256.4l-9.8-5.3l0,0c-0.9-0.7-2-1-3.3-1l-10.2,0.2l-16.6,0.3c-3,0.1-5.5,2.2-5.5,5.1v26.6
				c0,1.7,0.9,3.3,2.3,4.2l0,0h0c0.4,0,0.7,0.4,1.2,0.6l9.7,4.8l4.6-5.2l14.6-0.7c2.9-0.1,5.3-2.5,5.3-5.3V265L2658.8,256.4z"/>
			<g>
				<g>
					<linearGradient id="SVGID_31_" gradientUnits="userSpaceOnUse" x1="2636.6682" y1="262.8969" x2="2684.3782" y2="357.9553">
						<stop  offset="0" style="stop-color:#FFC444"/>
						<stop  offset="0.9964" style="stop-color:#F36F56"/>
					</linearGradient>
					<path class="st77" d="M2660.5,260.3V286c0,2.8-2.2,5.2-5,5.4l-26.3,1.3c-2.9,0.1-5.3-2.1-5.3-5v-26.4c0-2.9,2.3-5.1,5.2-5.2
						l26.3-0.6C2658.3,255.4,2660.5,257.5,2660.5,260.3z"/>
					<g>
						<path class="st0" d="M2648.9,264.9c-1.7-1.6-4-2.5-6.9-2.7c-0.7-0.1-1.4-0.1-2.1-0.1l-7.5,0.2v23.6l6.8-0.3
							c4.2-0.2,7.4-1.4,9.6-3.5c2.2-2.1,3.3-5.1,3.3-8.9C2652.1,269.6,2651.1,266.9,2648.9,264.9z M2639.6,281.4l-2.3,0.1v-15.3
							l2.8-0.1c4.5-0.1,6.7,2.3,6.7,7.3C2646.8,278.5,2644.4,281.2,2639.6,281.4z"/>
					</g>
				</g>
				<linearGradient id="SVGID_32_" gradientUnits="userSpaceOnUse" x1="2623.9292" y1="274.1628" x2="2645.479" y2="274.1628">
					<stop  offset="0" style="stop-color:#FFC444"/>
					<stop  offset="0.9964" style="stop-color:#F36F56"/>
				</linearGradient>
				<path class="st78" d="M2623.9,287.6v-26.4c0-2.9,2.3-5.1,5.2-5.2l16.3-0.4c-0.9,2.3-2.1,4.4-3.4,6.6c-0.8,1.3-1.6,2.6-2.4,4
					c-0.8,1.3-1.5,2.5-2.1,3.8c-2.4,4.7-2.3,10.1-0.7,15.6c0.6,2.1,1.3,4.1,2.2,6.4l-9.9,0.5
					C2626.2,292.8,2623.9,290.5,2623.9,287.6z"/>
			</g>
		</g>
		<g>
			<path class="st8" d="M2656.9,245.2l1.6-2c0,0,5.2,7.2,6.5,11.5s-5,11.8-5,11.8l-2.3-1.6c0,0,2-4.8,1.7-7.2
				c-0.3-2.3-3.1-5.3-3.1-5.3S2655.1,249.5,2656.9,245.2z"/>
			
				<linearGradient id="SVGID_33_" gradientUnits="userSpaceOnUse" x1="2783.8044" y1="-0.5444" x2="2785.2795" y2="4.6874" gradientTransform="matrix(0.9441 0.3296 -0.3296 0.9441 29.2788 -653.0745)">
				<stop  offset="0" style="stop-color:#AB316D"/>
				<stop  offset="1" style="stop-color:#792D3D"/>
			</linearGradient>
			<path class="st79" d="M2658.3,265.3l1,0.7c0,0-0.6,3.7-1.9,3.7s-2.1-1-1.8-1.9C2655.9,266.9,2658.3,265.3,2658.3,265.3z"/>
		</g>
	</g>
	<g class="st16">
		
			<linearGradient id="SVGID_34_" gradientUnits="userSpaceOnUse" x1="4767.5518" y1="212.7396" x2="4787.8374" y2="250.3643" gradientTransform="matrix(1 0 0 1 -2146.5251 0)">
			<stop  offset="0" style="stop-color:#311944"/>
			<stop  offset="1" style="stop-color:#893976"/>
		</linearGradient>
		<path class="st80" d="M2641.4,223.1c0,6.7-6.5,12.1-14.6,12.1c-8.3,0-15.1-5.5-15.1-12.4c0-6.9,6.8-12.3,15.1-12.1
			C2634.9,210.8,2641.4,216.4,2641.4,223.1z"/>
		
			<linearGradient id="SVGID_35_" gradientUnits="userSpaceOnUse" x1="4767.5518" y1="212.7396" x2="4787.8374" y2="250.3643" gradientTransform="matrix(1 0 0 1 -2146.5251 0)">
			<stop  offset="0" style="stop-color:#311944"/>
			<stop  offset="1" style="stop-color:#893976"/>
		</linearGradient>
		<path class="st81" d="M2641.4,223.1c0,6.7-6.5,12.1-14.6,12.1c-8.3,0-15.1-5.5-15.1-12.4c0-6.9,6.8-12.3,15.1-12.1
			C2634.9,210.8,2641.4,216.4,2641.4,223.1z"/>
		
			<linearGradient id="SVGID_36_" gradientUnits="userSpaceOnUse" x1="5530.3999" y1="1143.1536" x2="5550.1963" y2="1179.8704" gradientTransform="matrix(0.9879 -0.1549 0.1549 0.9879 -3018.2776 -60.1495)">
			<stop  offset="0" style="stop-color:#311944"/>
			<stop  offset="1" style="stop-color:#893976"/>
		</linearGradient>
		<path class="st82" d="M2633,233.3c0,0,3.6,4,8.8,0.6l1-1.1c0,0-5.3-2.7-5.4-5L2633,233.3z"/>
		
			<linearGradient id="SVGID_37_" gradientUnits="userSpaceOnUse" x1="4768.5977" y1="211.6299" x2="4788.8838" y2="249.2545" gradientTransform="matrix(1 0 0 1 -2146.5251 0)">
			<stop  offset="0" style="stop-color:#FF9085"/>
			<stop  offset="1" style="stop-color:#FB6FBB"/>
		</linearGradient>
		<path class="st83" d="M2642.4,222c0,6.7-6.5,12.1-14.6,12.1c-8.3,0-15.1-5.5-15.1-12.4s6.8-12.3,15.1-12.1
			C2635.9,209.7,2642.4,215.3,2642.4,222z"/>
		
			<linearGradient id="SVGID_38_" gradientUnits="userSpaceOnUse" x1="4768.5977" y1="211.6299" x2="4788.8838" y2="249.2545" gradientTransform="matrix(1 0 0 1 -2146.5251 0)">
			<stop  offset="0" style="stop-color:#FF9085"/>
			<stop  offset="1" style="stop-color:#FB6FBB"/>
		</linearGradient>
		<path class="st84" d="M2642.4,222c0,6.7-6.5,12.1-14.6,12.1c-8.3,0-15.1-5.5-15.1-12.4s6.8-12.3,15.1-12.1
			C2635.9,209.7,2642.4,215.3,2642.4,222z"/>
		
			<linearGradient id="SVGID_39_" gradientUnits="userSpaceOnUse" x1="5531.0415" y1="1142.5231" x2="5550.8379" y2="1179.2399" gradientTransform="matrix(0.9879 -0.1549 0.1549 0.9879 -3018.2776 -60.1495)">
			<stop  offset="0" style="stop-color:#FF9085"/>
			<stop  offset="1" style="stop-color:#FB6FBB"/>
		</linearGradient>
		<path class="st85" d="M2634.1,232.2c0,0,3.6,4,8.8,0.6c0,0-4.2-2.6-4.3-6.1L2634.1,232.2z"/>
		<g class="st23">
			<path class="st0" d="M2636.1,218.6L2636.1,218.6c-0.6-1.7-2.2-3-4-3c-2.4,0-4.3,2-4.3,4.6c0-2.6-1.9-4.7-4.3-4.7
				c-1.9,0-3.4,1.2-4.1,2.9l0,0c-2.4,6.2,8.4,12,8.4,12S2638.4,224.8,2636.1,218.6z"/>
		</g>
		<g class="st86">
			
				<linearGradient id="SVGID_40_" gradientUnits="userSpaceOnUse" x1="4762.9775" y1="213.7751" x2="4782.936" y2="253.8274" gradientTransform="matrix(1 0 0 1 -2146.5251 0)">
				<stop  offset="0" style="stop-color:#FF9085"/>
				<stop  offset="1" style="stop-color:#FB6FBB"/>
			</linearGradient>
			<path class="st87" d="M2631.4,231c-1.8-3.6,0-7-2.4-9.3c-2.5-2.4-5.7-0.2-9.2-2.2c-1.4-0.8-2.9-2.2-4-5.2c-2,2.1-3.1,4.7-3.1,7.5
				c0,6.9,6.8,12.4,15.1,12.4c1.9,0,3.7-0.3,5.3-0.8C2632.3,232.5,2631.7,231.7,2631.4,231z"/>
		</g>
	</g>
</g>
<text transform="matrix(1 0 0 1 2613.4148 429.0054)" class="st36 st37">Easy</text>
<ellipse transform="matrix(0.7125 -0.7016 0.7016 0.7125 255.7664 1569.1298)" class="st35" cx="2042.9" cy="472.4" rx="32.5" ry="32"/>
<ellipse transform="matrix(0.7125 -0.7016 0.7016 0.7125 169.1772 1586.2432)" class="st35" cx="2020.5" cy="586.7" rx="18.5" ry="18.3"/>
<path class="st35" d="M2014.6,667.2c-4.3,4.2-4.4,11-0.2,15.3c4.2,4.2,11,4.2,15.3,0"/>
<ellipse transform="matrix(0.7125 -0.7016 0.7016 0.7125 338.8315 1550.436)" class="st35" cx="2061.6" cy="361.7" rx="45" ry="44.3"/>
<path class="st1" d="M2215.7,125.5c-4.4-8.7-10-15.9-15-21.3c-6.8-7.5-12.5-11.7-12.5-11.7c-0.1,0-0.6-0.3-1.4-0.7
	c-0.5-0.3-1.1-0.7-1.8-1.1c-0.8-0.5-1.7-1.1-2.8-1.7c-2.4-1.4-5.6-3.2-9.4-5.2c-3.8-2-8.3-4.1-13.4-6.3c-5.2-2.2-11-4.3-17.4-6.3
	c-5.6-1.7-11.7-3.3-18.2-4.6c0,0,0,0,0,0c-25.6-5.1-57.7-5.8-94.1,5.7c-2.5,0.8-4.9,1.6-7.4,2.5c-0.6,0.2-1.3,0.5-1.9,0.7
	c-9.2,3.3-18,6.8-26.5,10.4c-1.8,0.8-3.7,1.6-5.5,2.4c-75.6,33.9-116.6,80.3-69.2,127.6c1.9,1.9,4,3.8,6.3,5.7
	c2.1,1.8,4.4,3.5,6.8,5.1c2.9,2,5.9,3.9,9.1,5.7c6.3,3.6,13.3,7,20.7,9.9c3.2,1.3,6.5,2.5,9.9,3.7c0.8,0.3,1.7,0.6,2.6,0.9
	c24.4,8,52.7,12.7,81.2,13.3c7.5,0.2,15.1,0.1,22.6-0.3l0,0c48.6-2.5,95.2-17,121.5-46.5c11.5-12.9,18.2-25.3,21.5-36.9
	c1.9-6.9,2.7-13.4,2.5-19.7C2223.8,145.1,2220.4,134.5,2215.7,125.5z"/>
<path class="st88" d="M2110.5,150.3c0-26-27.7-45.8-55.1-31.3c-10.7,5.6-17.2,16.9-17.2,29v15.6h-7.1c-3.8,0-6.9,3.1-6.9,6.9v54.6
	h100.3v-54.6c0-3.8-3.1-6.9-6.9-6.9h-7.1h-0.2v-13.4H2110.5z M2078.9,201.5v8.7h-9.2v-8.7c-4-2.4-5.9-7.9-2.4-13.2
	c0.3-0.5,0.8-1,1.3-1.3c7.1-4.7,14.6,0.3,14.6,7C2083.1,197.2,2081.4,200,2078.9,201.5z M2094.4,163.7H2054v-15.6
	c0-5.7,2.9-11.1,7.7-14.2c15.2-9.6,31.1,0,32.8,14.1V163.7z"/>
<text transform="matrix(1 0 0 1 2046.4781 296.9401)" class="st36 st37">Safe</text>
<g>
	<path class="st89" d="M986.3,1289.4c-4,0-7.2,4.6-7.2,10.3c0,5.7,3.2,10.3,7.2,10.3s7.2-4.6,7.2-10.3
		C993.5,1294,990.3,1289.4,986.3,1289.4z M986.3,1292.3c2.1,0,3.9,1.1,3.9,2.4c0,1.3-1.7,2.4-3.9,2.4c-2.1,0-3.9-1.1-3.9-2.4
		C982.4,1293.3,984.2,1292.3,986.3,1292.3z M986.3,1306.1c-3,0-5.5-1.7-5.5-3.7c0-2,2.5-3.7,5.5-3.7c3,0,5.5,1.7,5.5,3.7
		C991.7,1304.4,989.3,1306.1,986.3,1306.1z"/>
	<path class="st90" d="M969.9,1312.1c-1.5,3.3-2.3,6.8-2.3,10.4l-0.2,75.3c0,4.5,3.7,8.2,8.3,8.3l43,0.1c4.6,0,8.3-3.7,8.3-8.2
		l0.2-75.3c0-3.6-0.8-7.2-2.3-10.4L969.9,1312.1z"/>
	<path class="st90" d="M969.9,1312.1c-1.5,3.3-2.3,6.8-2.3,10.4l-0.2,75.3c0,4.5,3.7,8.2,8.3,8.3l43,0.1c4.6,0,8.3-3.7,8.3-8.2
		l0.2-75.3c0-3.6-0.8-7.2-2.3-10.4L969.9,1312.1z"/>
	<path class="st91" d="M1027.3,1322.6l-0.2,75.3c0,4.5-3.7,8.2-8.3,8.2l-43-0.1c-4.6,0-8.3-3.7-8.3-8.3l0.2-75.3
		c0-3.6,0.8-7.1,2.3-10.4l55.1,0.1C1026.5,1315.5,1027.3,1319,1027.3,1322.6z"/>
	<path class="st92" d="M978.8,1397.8l0.2-75.3c0-3.6,0.8-7.1,2.3-10.4l-11.4,0c-1.5,3.3-2.3,6.8-2.3,10.4l-0.2,75.3
		c0,4.5,3.7,8.2,8.3,8.3l11.4,0C982.5,1406,978.8,1402.3,978.8,1397.8z"/>
	<path class="st93" d="M1027.3,1322.6l-0.2,75.3c0,4.5-3.7,8.2-8.3,8.2l-17.6,0c4.6,0,8.4-3.7,8.4-8.2l0.2-75.3
		c0-3.6-0.8-7.1-2.3-10.4l17.5,0C1026.5,1315.5,1027.3,1319,1027.3,1322.6z"/>
	<path class="st94" d="M1025,1312.2l-55.1-0.1l0,0c0-2.4,2-4.4,4.4-4.3l46.3,0.1C1023.1,1307.8,1025,1309.8,1025,1312.2L1025,1312.2
		z"/>
	
		<rect x="992.6" y="1357.8" transform="matrix(2.455051e-03 -1 1 2.455051e-03 -392.8022 2381.5356)" class="st95" width="9.4" height="59.7"/>
</g>
<g>
	<path class="st96" d="M915.7,1287.8h6.6c-1.1-0.7-2.4-1.2-3.9-1.2H753.5c-8.6,0-15.6,6.2-15.6,13.8v8.8c0,7.6,7,13.8,15.6,13.8
		l163,0L915.7,1287.8z"/>
	<path class="st89" d="M822.1,1286.7c-8.2,0-14.9,5.9-14.9,13.2v9.9c0,7.3,6.7,13.2,14.9,13.2h102.6v-2.2h-0.4l-26.1-2.2l-5.3-18.3
		c0,0,10.2-10.1,10.8-10.4c0.7-0.3,20.5-1.1,20.5-1.1l0.4,0v-2.2H822.1z"/>
	<path class="st97" d="M918.1,1304.8c0-10.7,6.3-15.9,6.3-15.9H824.2c-7.6,0-13.7,5.4-13.7,12.2v7.7c0,6.7,6.1,12.2,13.7,12.2h100.1
		C924.3,1320.9,918.1,1318.3,918.1,1304.8z"/>
	<path class="st98" d="M810.5,1301.1v7.7c0,1,0.1,2,0.4,2.9c3.4-7.3,9.8-14.4,22.2-16.6c28.8-5.3,91.3-6.1,91.3-6.1H824.2
		C816.6,1288.9,810.5,1294.4,810.5,1301.1z"/>
	<path class="st99" d="M913,1360.8h7.4c-1.2-0.9-2.7-1.5-4.4-1.5H729.4c-9.8,0-17.7,7.8-17.7,17.3v11c0,9.6,7.9,17.3,17.7,17.3
		l184.5-0.1L913,1360.8z"/>
	<path class="st100" d="M807.1,1359.3c-9.3,0-16.9,7.4-16.9,16.6v12.4c0,9.2,7.6,16.6,16.9,16.6h116.2v-2.8h-0.5l-29.5-2.7l-6-23
		c0,0,11.5-12.7,12.3-13c0.8-0.3,23.2-1.3,23.2-1.3l0.5,0v-2.8H807.1z"/>
	<path class="st97" d="M915.7,1382c0-13.4,7.1-19.9,7.1-19.9H809.4c-8.6,0-15.5,6.8-15.5,15.2v9.6c0,8.4,7,15.2,15.5,15.2h113.3
		C922.8,1402.1,915.7,1398.9,915.7,1382z"/>
	<path class="st98" d="M793.9,1377.3v9.6c0,1.3,0.2,2.5,0.5,3.7c3.8-9.2,11.1-18,25.1-20.8c32.6-6.6,103.3-7.6,103.3-7.6H809.4
		C800.9,1362.1,793.9,1368.9,793.9,1377.3z"/>
	<path class="st91" d="M705.6,1324.2h-7.5c1.2-0.7,2.7-1.2,4.4-1.2h186.7c9.8,0,17.7,6.2,17.7,13.8v8.7c0,7.6-7.9,13.8-17.7,13.8
		l-184.6,0L705.6,1324.2z"/>
	<path class="st93" d="M811.6,1323.1c9.3,0,16.9,5.9,16.9,13.2v9.9c0,7.3-7.6,13.2-16.9,13.2H695.4v-2.2h0.5l29.5-2.2l6-18.2
		c0,0-11.5-10.1-12.3-10.3c-0.8-0.3-23.2-1-23.2-1l-0.5,0v-2.2H811.6z"/>
	<path class="st97" d="M702.9,1341.1c0-10.7-7.1-15.8-7.1-15.8h113.4c8.6,0,15.5,5.4,15.5,12.1v7.6c0,6.7-7,12.1-15.5,12.1H695.8
		C695.8,1357,702.9,1354.5,702.9,1341.1z"/>
	<path class="st98" d="M824.7,1337.4v7.6c0,1-0.2,2-0.5,2.9c-3.8-7.3-11.2-14.3-25.1-16.5c-32.6-5.3-103.4-6-103.4-6h113.4
		C817.8,1325.3,824.7,1330.7,824.7,1337.4z"/>
</g>
<g>
	<rect x="626.8" y="1404.9" class="st101" width="467.9" height="24.2"/>
	<rect x="635.3" y="1545.1" class="st101" width="305.9" height="21.1"/>
	<rect x="1029.1" y="1417" class="st101" width="19.7" height="329.6"/>
	<rect x="749.9" y="1417" class="st101" width="19.7" height="329.6"/>
	<polygon class="st101" points="888.7,1746.5 995,1419.8 977.6,1414.1 869.4,1746.5 	"/>
	<polygon class="st101" points="589.6,1746.5 680.6,1419.1 662.9,1414.2 570.6,1746.5 	"/>
</g>
</svg>
