<?xml version="1.0" encoding="utf-8"?>
<!-- Generator: Adobe Illustrator 21.1.0, SVG Export Plug-In . SVG Version: 6.00 Build 0)  -->
<svg version="1.1" id="Layer_1" xmlns="http://www.w3.org/2000/svg" xmlns:xlink="http://www.w3.org/1999/xlink" x="0px" y="0px"
	 viewBox="0 0 1500 914.2" style="enable-background:new 0 0 1500 914.2;" xml:space="preserve">
<style type="text/css">
	.st0{opacity:0.5;}
	.st1{fill:#A0BFE4;}
	.st2{fill:#C7DDF2;}
	.st3{fill:#FFFFFF;}
	.st4{fill:#8CA5D5;}
	.st5{opacity:0.3;fill:#8CA5D5;}
	.st6{fill:#F8A491;}
	.st7{fill:#F8A492;}
	.st8{fill:#34548A;}
	.st9{fill:#F58761;}
	.st10{fill:#F8CC7F;}
	.st11{fill:#2B378E;}
	.st12{fill:#3A459C;}
	.st13{fill:#FDF5A9;}
	.st14{fill:#C7C181;}
	.st15{fill:#32806C;}
	.st16{fill:#3C8F7C;}
	.st17{fill:#13375B;}
	.st18{fill:#5684C4;}
	.st19{fill:#F37458;}
	.st20{fill:#F8A592;}
	.st21{fill:#5A6F7F;}
	.st22{fill:#97D5C8;}
	.st23{fill:#F58D80;}
	.st24{fill:#98D5C7;}
	.st25{fill:#071733;}
	.st26{fill:#BBE1F4;}
	.st27{fill:#223955;}
	.st28{fill:#F9E0B2;}
	.st29{fill:#ED9B8F;}
	.st30{fill:#EFEFB4;}
	.st31{opacity:0.5;fill:#F37458;}
	.st32{fill:#F9D293;}
	.st33{opacity:0.5;fill:#E6654E;}
	.st34{opacity:0.6;fill:#ED9B8F;}
	.st35{fill:#225F4C;}
	.st36{fill:#BD4E27;}
	.st37{fill:#F4F4F4;}
	.st38{fill:#D3E5F3;}
	.st39{fill:#183758;}
</style>
<g>
	<g class="st0">
		<rect x="760.3" y="111.7" class="st1" width="342.4" height="738.7"/>
		<rect x="772.4" y="122.4" class="st2" width="318.1" height="716.4"/>
		<polygon class="st3" points="908,838.8 945.8,838.8 1071.4,122.4 1033.6,122.4 		"/>
		<polygon class="st3" points="958.6,122.4 880.7,122.4 772.4,739.9 772.4,838.8 832.9,838.8 		"/>
	</g>
	<g class="st0">
		<rect x="364" y="111.7" class="st1" width="342.4" height="738.7"/>
		<rect x="376.1" y="122.4" class="st2" width="318.1" height="716.4"/>
		<polygon class="st3" points="511.7,838.8 549.4,838.8 675.1,122.4 637.3,122.4 		"/>
		<polygon class="st3" points="562.2,122.4 484.4,122.4 376.1,739.9 376.1,838.8 436.6,838.8 		"/>
	</g>
	<path class="st4" d="M473.8,355.1c0-5.4,2.9-10.1,7.4-13.4c6.1-4.5,14.3-5.3,21.3-2.4c19.6,8.2,29.7,10.3,27.4,30.2
		c-0.6,4.9-3.6,9.2-4.7,14c-8.5,36.7-45.4,30.1-49.7,10.9C459.4,376,473.8,376.4,473.8,355.1z"/>
	<path class="st5" d="M525.3,372.7c-8.5,36.7-45.4,30.1-49.7,10.9c-3.3-3.7-5.3-6.7-6.5-9.2c-2.1,5.5-2.5,9.9,6.5,20
		c4.3,19.3,41.2,25.9,49.7-10.9c1.1-4.8,4.1-9.1,4.7-14c0.5-4,0.4-7.3-0.1-10.1C529.1,364,526.4,368.1,525.3,372.7z"/>
	<path class="st6" d="M490.3,348.8c2.1,0,0.6,9.7,2.4,10.8c1.8,1.1,5.9-11,7.7-10.9c3.4,0.2-3.7,13.6-2.2,13.8
		c1.5,0.2,9.6-13.2,11.5-10.8c2,2.4-9.7,13-8.2,14c1.6,1,10-10.9,13.7-9.4c1.9,0.8-17,18.4-16.8,21.2c0.3,2.9,11.3,0.7,12,3.2
		c0.7,2.4-20.3,2.2-21.4,3.3c-1.1,1.1-29.5,28.6-35.5,38.1c3.1,2.4,24.5,16.8,27.4,19c-6,4.4-5.4,13.9-11.1,18.6
		c-9.4-7.9-43.1-29.5-42.4-34.2c2.5-17.6,41.9-44.2,49.3-49.7c7.4-5.5,7.1-10.1,10.3-14.3C490.3,357.2,488.2,348.9,490.3,348.8z"/>
	<path class="st7" d="M558,528.8c-0.5,1.7-0.8,2.2-1.4,3.4c-4,7.3-13.2,17.6-13.2,17.6l-7.2-16.1c0,0,1.2-5.1,3.2-12.3
		C546.3,523.2,552.9,524.2,558,528.8z"/>
	<path class="st4" d="M516.9,514.8c0,0,39.9,17.2,41.2,16.9c0.8-0.2,16.4-26.2,16.5-50.7c0.1-11.3-11.7-24.9-24.8-22.2
		c-6.6,1.4-6.5,3.2-16.2,17.4C523.9,490.3,516.9,514.8,516.9,514.8z"/>
	<path class="st6" d="M482.8,823.1c0,0,0.9,15.7,1,15.7c0.3,2,1.7,6.9,1.7,8.7c0,6.8-32.3-5.8-25-8.8c0.7-0.3,4.1-2.3,4.3-4.6
		c0.3-3.6,1.2-10.8,1.2-10.8L482.8,823.1z"/>
	<path class="st8" d="M460.5,838.7c0,0,7.6,2.1,11.5,2.6c3.9,0.5,9-3.9,11.7-2.7c3,1.3,2.9,13,2.9,13s-40.6,3.3-52.1-0.1
		C430.1,850.1,445.1,843.5,460.5,838.7z"/>
	<path class="st6" d="M548.9,823.1c0,0,0.9,15.7,1,15.7c0.3,2,1.7,6.9,1.7,8.7c0,6.8-32.3-5.8-25-8.8c0.7-0.3,5.1-3.9,5.3-6.2
		c0.3-3.6,0.2-9.2,0.2-9.2L548.9,823.1z"/>
	<path class="st6" d="M545.9,433.2l3.7,23.1c0,0-13.9,11.2-22.1,8.8c-6.8-2-2.1-10.9-2.1-10.9s3.6-12.4,2.5-18.8
		C526.7,429,545.9,433.2,545.9,433.2z"/>
	<path class="st9" d="M543.3,440.2c-3.5,1.7-10.4,3.9-15.8,4.4c0.5-3.2,0.8-6.7,0.4-9.2c-0.5-3,3.3-3.7,7.5-3.6
		c5.6,0.5,10.5,1.3,10.5,1.3l0.7,4.4C545.5,438.8,544.4,439.6,543.3,440.2z"/>
	<path class="st6" d="M563.5,406.5c0.6,0-5.5,25.9-14.9,30.3c-9.4,4.4-23.5,2.1-26.1-4.8c-2.9-7.7,7.7-34.1,21-37.4
		C556.7,391.2,563.5,406.5,563.5,406.5z"/>
	<path class="st10" d="M552.6,382.7c7.5,4.3,11,10.8,12.1,13.4c3.5,1.7,7.8,5.3,9.9,15.1c2.5,12-6.4,21.3-16,24.1
		c-9.5,2.8-11,9.1-11,9.1l-1.1-6.8c0,0,2.1-5.9,5.3-8.8c3.2-3-1.5-7.3-1.9-10.8c-0.3-2.7,1.7-7.9,1.2-12.4c0,0-5.3-8-10.5-10
		C531.8,392.2,542.9,377.2,552.6,382.7z"/>
	<path class="st11" d="M541.6,575.7c0,0,5.5,26.5,3.2,46.5c-2.2,20.1-2.4,91.3-2.4,91.3l8.5,114l-20.2,0.4c0,0-23.9-113.9-23.5-111
		c0.4,2.9-8-80.2-8-80.2l28.5-63.5L541.6,575.7z"/>
	<path class="st12" d="M536.2,574.5c0,0,3.6,23.8-0.9,34.3c-4.5,10.4-38.2,112.9-38.7,121.3c-0.4,8.4-11.7,100.7-11.7,100.7
		l-23.5-0.7l-5.1-102.7L467,598.3l10.3-32.6L536.2,574.5z"/>
	<path class="st6" d="M549.6,456.3c0,0-5.8,3.8-11.2,3.4c-5.4-0.4-13-5.4-13-5.4l1.1-3.6c0,0,14-2,14.3-1.8
		C541.1,449.1,549.6,456.3,549.6,456.3z"/>
	<path class="st13" d="M473.8,536.9c3.1-16.8,25.4-68.9,27.2-78.6c0.9-4.7,12.9-4.8,24.4-4.2c12.1,0.6,24.2,2.2,24.2,2.2
		s10.7,1.8,15.5,6.2c4.7,4.4,6,16.7-0.8,39.9c-5.4,18.3-12,28.4-15.3,41.8c-0.7,4.5-1.2,8.9-2,14.1c-1.2,20-26,18.8-26,18.8
		s-21.1,25.8-42.9,7.5C478,584.4,470.6,554.1,473.8,536.9z"/>
	<path class="st14" d="M464.4,423.7c0,0-15.8,25.2-15.6,26.5c0.1,0.9,27.5,29.4,47.5,34.1c11.1,2.6,30-17.9,28.7-27.5
		C524.2,450.2,464.4,423.7,464.4,423.7z"/>
	<g>
		<g>
			<path class="st15" d="M1099.8,118.5c0.4,0.6,1.1,1.4,2,2.6c0,0,0,0,0,0c0,0.1-12,43.3-2.6,46.6c8.6,3,9.3-28.7,5.8-41.9
				c1.9,2.9,3.6,6,5,9.3c2.4,5.5,4.1,12.7,5.2,20.6c-1.8,2.9-12.4,20.9-7.1,24.6c4.3,3,7.2-8.8,8-16.7c0.6,7.1,0.9,14.6,0.9,22
				c-5.8,1.4-23.3,6.4-23.6,15.4c-0.4,10,14.7,7.1,23.6-11.5c-0.1,7.4-0.3,14.6-0.7,21.3c-4.2,3.8-21.3,19.9-18.5,29.2
				c2.8,9.4,13.5-1.4,18.1-22c-0.8,11.8-1.9,20.8-2.4,23.6c-0.2,0.9-0.3,2.1-0.5,3.5v0c-0.1,0.5-0.1,1.1-0.2,1.6l0,0
				c0,0-26.6,35.8-19,44.1c5.4,5.8,13.5-18.1,17.7-32.5c-1.5,15.3-2.8,35.3-1.5,41.5l0.1,0c-0.9,13.8-1.6,38.9,6,40.2
				c10.5,1.8,0-26.3,0-26.3s12.8,5.1,14,0c2-8.6-16-20.7-18.9-22.6c0-7.6,0.7-18.4,1.6-28.3c1,21.1,6.2,27.3,8.3,28
				c2.5,0.9,7.8-4.3,6-20.6c-1.4-12.6-9.1-20.8-12.5-23.8c0.2-1.8,0.5-3.3,0.7-4.6c0.5-2.7,1.4-11,2.3-22.1
				c2.1,17.3,6.9,31.5,11.3,22.7c4.3-8.6-6.9-24.9-10.8-30.2c0.5-7.7,0.8-16.3,0.8-25c3.3,8.6,17.6,24.6,19.4,15.4
				c1.8-9.1-16-18.5-19.4-20.2c-0.1-7.5-0.5-14.9-1.2-21.9c4,7.1,16.1,21.5,17.5,13.7c1.6-8.9-18.7-22.6-18.7-22.6s0,0,0,0
				c-1.1-6.6-2.6-12.6-4.7-17.3c-1.4-3.1-3-6.1-4.8-8.9c7.5,5.1,19,9.6,18.5,4.3c-0.5-5.8-18.2-10.4-23.8-11.8
				c-0.2-0.3-0.3-0.4-0.4-0.4c-2-2.5-4.1-4.8-6.3-7h-2.5C1095.1,113,1097.5,115.7,1099.8,118.5z"/>
			<path class="st15" d="M1084.5,133.5c5.6,3.2,3.6-12.6,1.7-22.9h-5.5C1079.7,119.2,1079.5,130.7,1084.5,133.5z"/>
		</g>
		<g>
			<path class="st15" d="M1091.9,132.6c7.5-1,0.8-12.3-9.7-22.1h-11C1076.7,120.8,1085.1,133.6,1091.9,132.6z"/>
			<path class="st15" d="M1062.1,110.6h-11.3c-5.8,7.2-10.2,16.1-6.2,24.1C1050.1,145.9,1057.6,125.7,1062.1,110.6z"/>
			<path class="st16" d="M1069,110.6h-1.9c0.5,3.3,1,7,1.5,11c-4.5,8.9-27.6,55.9-16.6,66c12.1,11.1,16.5-45.9,16.5-45.9l0.6-16.1
				c1.8,13.9,3.9,30.8,5.5,48.2c-4.2,3.4-21.5,18.6-14.3,28.6c6.7,9.3,12.6-16.4,14.5-25.9c1,11.5,1.9,23.3,2.3,34.5
				c-4.4,2.1-23,11.3-17.9,19.4c4.9,7.8,15.2-9.5,18.1-14.7c0.2,6.9,0.3,13.5,0.1,19.7c-4.8,2.3-26.4,12.8-21.1,17.9
				c6,5.7,18.3-9.5,18.3-9.5s-9.6,38.8,0.8,34.6c10.5-4.2,3.5-36.9,3.8-37.8l-0.2-1.1c0.2-5.1,0.3-10.5,0.2-16.2
				c1.9,5,5.7,13.3,8,9.7c2.7-4.2-5.5-12.8-8.1-15.4c-0.2-7.7-0.6-15.7-1.1-23.8c3.8,9.6,11.7,23.4,15.7,16.9
				c4.5-7.3-12.4-26.1-16.8-30.7c-1-11.9-2.3-23.7-3.5-34.6c5.3,13.9,22.7,43.4,28.3,33.4c5.8-10.5-24.3-43.3-30.3-49.8
				C1070.6,122.1,1069.7,115.9,1069,110.6z"/>
		</g>
		<path class="st16" d="M1008.2,120.9c4.5,12.1,13.5,32.6,22.4,32.4c11.9-0.3-5.1-26.9-22.6-39.3c0-0.9-0.1-1.7-0.1-2.4
			c-2.9,0.6-5.7,1.1-8.4,2.1c-10,7-26.9,21.5-21.7,35.9c6.1,17,22.3-23.4,27.1-36.3c0.2,6,0.5,14.9,0.8,25.6
			c-7.1,10.9-36.9,58.3-26.2,70.6c12.1,13.9,24.1-49,24.1-49l2.3-14.9c0.3,15.2,0.4,33.2,0,51.7c-5.8,3.9-25.5,18-18.9,29.7
			c6,10.6,15.1-14,18.8-25.3c-0.3,12.5-0.9,25.1-1.7,37.1c-6,2-26.4,9.8-21.9,19.2c4.3,8.9,16.9-7.2,21.4-13.3
			c-0.6,7.4-1.4,14.6-2.3,21.3c-6.5,2.2-30.3,11-25.1,17c6,7,21.6-8.3,21.6-8.3s-15.6,41.9-3.4,38.6c10.7-2.9,9.2-32.3,9-39.8
			c1-6.1,1.9-12.6,2.6-19.5c1.6,5.8,4.5,13.9,7.3,10.5c3.3-4.1-3.7-13.8-6.6-17.6c0.7-8.3,1.3-16.9,1.7-25.7
			c3.2,11,9.9,25.7,14.9,19.3c5.7-7.3-9.5-29-14.3-35.6c0.4-12.9,0.5-25.8,0.4-37.7c4.8,16.8,19.6,48.9,26.8,38.8
			c7.6-10.6-20-49.1-27-58.5C1008.7,137,1008.4,128,1008.2,120.9z"/>
		<path class="st15" d="M1020.4,140.9c6.4,7.5,13-17,15.9-29.9c0.1,8.8,0.2,20.6,0.3,34.2c-3.9,4-16.2,17.5-14.5,27.5
			c1.7,9.7,11.1-10.5,14.5-18.3c0,7.1,0,14.7,0,22.4c-4.9,4.3-16.9,15.9-11.2,23.8c4.6,6.4,8.8-6.3,11.2-15.9c0,8.9-0.1,18-0.2,27.2
			c-6,4.8-22.6,19.5-16.5,31.8c5.4,10.9,12.8-12.1,16.4-25.2c-0.1,9.8-0.3,19.7-0.5,29.3c-3.3,5.5-15.2,26.5-8.7,31
			c3.5,2.4,6.3-2.7,8.1-9.4c-0.3,9-0.6,17.7-1,25.8c-4.4,2.9-22.3,15.4-20.2,24.4c1.3,5.6,15.4,0,15.4,0s-11.6,30.8,0,28.9
			c8.2-1.4,7.7-27.9,6.7-43.2c0.2-2.8,0.3-5.7,0.5-8.7c1.7,6.4,4.6,11.1,7.9,7.1c5.8-6.9-4.9-23.3-7.1-26.4
			c0.3-8.4,0.6-17.2,0.8-26.2c4.4,8.6,21.3,29.2,23.2,18.8c1.9-10.1-18-24.9-23-28.4c0.2-8.9,0.3-18,0.4-27
			c3.2,6.8,14.1,28.7,22.3,27.5c9.5-1.3-7.3-21.5-22.3-29.1c0.1-8.8,0.1-17.6,0.2-26.1c0,0.2,0.1,0.4,0.1,0.7
			c0.9,5.8,11,27.6,15.5,20.4c4.5-7.2-15.5-27.6-15.5-27.6s0,0.1-0.1,0.2c0-8.2,0-16.2,0-23.8c3.2,8,14.3,25.8,17.8,19.8
			c3.4-5.7-12.4-22.5-17.8-28c0-10.9-0.1-20.8-0.2-29c3.8,8.2,15.2,30.9,18.7,22.7c3.7-8.8-14.5-25.6-18.7-29.4c0-0.8,0-1.6,0-2.4
			h-9.1C1023,120.5,1015.2,134.7,1020.4,140.9z"/>
	</g>
	<g>
		<g>
			<path class="st15" d="M368.6,118.5c-0.4,0.6-1.1,1.4-2,2.6c0,0,0,0,0,0c0,0.1,12,43.3,2.6,46.6c-8.6,3-9.3-28.7-5.8-41.9
				c-1.9,2.9-3.6,6-5,9.3c-2.4,5.5-4.1,12.7-5.2,20.6c1.8,2.9,12.4,20.9,7.1,24.6c-4.3,3-7.2-8.8-8-16.7c-0.6,7.1-0.9,14.6-0.9,22
				c5.8,1.4,23.3,6.4,23.6,15.4c0.4,10-14.7,7.1-23.6-11.5c0.1,7.4,0.3,14.6,0.7,21.3c4.2,3.8,21.3,19.9,18.5,29.2
				c-2.8,9.4-13.5-1.4-18.1-22c0.8,11.8,1.9,20.8,2.4,23.6c0.2,0.9,0.3,2.1,0.5,3.5v0c0.1,0.5,0.1,1.1,0.2,1.6l0,0
				c0,0,26.6,35.8,19,44.1c-5.4,5.8-13.5-18.1-17.7-32.5c1.5,15.3,2.8,35.3,1.5,41.5l-0.1,0c0.9,13.8,1.6,38.9-6,40.2
				c-10.5,1.8,0-26.3,0-26.3s-12.8,5.1-14,0c-2-8.6,16-20.7,18.9-22.6c0-7.6-0.7-18.4-1.6-28.3c-1,21.1-6.2,27.3-8.3,28
				c-2.5,0.9-7.8-4.3-6-20.6c1.4-12.6,9.1-20.8,12.5-23.8c-0.2-1.8-0.5-3.3-0.7-4.6c-0.5-2.7-1.4-11-2.3-22.1
				c-2.1,17.3-6.9,31.5-11.3,22.7c-4.3-8.6,6.9-24.9,10.8-30.2c-0.5-7.7-0.8-16.3-0.8-25c-3.3,8.6-17.6,24.6-19.4,15.4
				c-1.8-9.1,16-18.5,19.4-20.2c0.1-7.5,0.5-14.9,1.2-21.9c-4,7.1-16.1,21.5-17.5,13.7c-1.6-8.9,18.7-22.6,18.7-22.6s0,0,0,0
				c1.1-6.6,2.6-12.6,4.7-17.3c1.4-3.1,3-6.1,4.8-8.9c-7.5,5.1-19,9.6-18.5,4.3c0.5-5.8,18.2-10.4,23.8-11.8
				c0.2-0.3,0.3-0.4,0.4-0.4c2-2.5,4.1-4.8,6.3-7h2.5C373.3,113,370.9,115.7,368.6,118.5z"/>
		</g>
		<g>
			<path class="st15" d="M376.5,132.6c-7.5-1-0.8-12.3,9.7-22.1h11C391.7,120.8,383.3,133.6,376.5,132.6z"/>
			<path class="st15" d="M406.3,110.6h11.3c5.8,7.2,10.1,16.1,6.2,24.1C418.3,145.9,410.8,125.7,406.3,110.6z"/>
			<path class="st16" d="M399.4,110.6h1.9c-0.5,3.3-1,7-1.5,11c4.5,8.9,27.6,55.9,16.6,66c-12.1,11.1-16.5-45.9-16.5-45.9l-0.6-16.1
				c-1.8,13.9-3.9,30.8-5.5,48.2c4.2,3.4,21.5,18.6,14.3,28.6c-6.7,9.3-12.6-16.4-14.5-25.9c-1,11.5-1.9,23.3-2.3,34.5
				c4.4,2.1,23,11.3,17.9,19.4c-4.9,7.8-15.2-9.5-18.1-14.7c-0.2,6.9-0.3,13.5-0.1,19.7c4.8,2.3,26.4,12.8,21.1,17.9
				c-6,5.7-18.3-9.5-18.3-9.5s9.6,38.8-0.8,34.6c-10.5-4.2-3.5-36.9-3.8-37.8l0.2-1.1c-0.2-5.1-0.3-10.5-0.2-16.2
				c-1.9,5-5.7,13.3-8,9.7c-2.7-4.2,5.5-12.8,8.1-15.4c0.2-7.7,0.6-15.7,1.1-23.8c-3.8,9.6-11.7,23.4-15.7,16.9
				c-4.5-7.3,12.4-26.1,16.8-30.7c1-11.9,2.3-23.7,3.5-34.6c-5.3,13.9-22.7,43.4-28.3,33.4c-5.8-10.5,24.3-43.3,30.3-49.8
				C397.8,122.1,398.7,115.9,399.4,110.6z"/>
		</g>
		<path class="st15" d="M448,140.9c-6.4,7.5-13-17-15.9-29.9c-0.1,8.8-0.2,20.6-0.3,34.2c3.9,4,16.2,17.5,14.5,27.5
			c-1.7,9.7-11.1-10.5-14.5-18.3c0,7.1,0,14.7,0,22.4c4.9,4.3,16.9,15.9,11.2,23.8c-4.6,6.4-8.8-6.3-11.2-15.9
			c0,8.9,0.1,18,0.2,27.2c6,4.8,22.6,19.5,16.5,31.8c-5.4,10.9-12.8-12.1-16.4-25.2c0.1,9.8,0.3,19.7,0.5,29.3
			c3.3,5.5,15.2,26.5,8.7,31c-3.5,2.4-6.3-2.7-8.1-9.4c0.3,9,0.6,17.7,1,25.8c4.4,2.9,22.3,15.4,20.2,24.4c-1.3,5.6-15.4,0-15.4,0
			s11.6,30.8,0,28.9c-8.2-1.4-7.7-27.9-6.7-43.2c-0.2-2.8-0.3-5.7-0.5-8.7c-1.7,6.4-4.6,11.1-7.9,7.1c-5.8-6.9,4.9-23.3,7.1-26.4
			c-0.3-8.4-0.6-17.2-0.8-26.2c-4.4,8.6-21.3,29.2-23.2,18.8c-1.9-10.1,18-24.9,23-28.4c-0.2-8.9-0.3-18-0.4-27
			c-3.2,6.8-14.1,28.7-22.3,27.5c-9.5-1.3,7.3-21.5,22.3-29.1c-0.1-8.8-0.1-17.6-0.2-26.1c0,0.2-0.1,0.4-0.1,0.7
			c-0.9,5.8-11,27.6-15.5,20.4c-4.5-7.2,15.5-27.6,15.5-27.6s0,0.1,0.1,0.2c0-8.2,0-16.2,0-23.8c-3.2,8-14.3,25.8-17.8,19.8
			c-3.4-5.7,12.4-22.5,17.8-28c0-10.9,0.1-20.8,0.2-29c-3.8,8.2-15.2,30.9-18.7,22.7c-3.7-8.8,14.5-25.6,18.7-29.4
			c0-0.8,0-1.6,0-2.4h9.1C445.4,120.5,453.2,134.7,448,140.9z"/>
	</g>
	<rect x="352" y="107.7" class="st17" width="767.6" height="8.7"/>
	<g>
		<path class="st10" d="M533.5,822.1l-3.7,3.7c-2.8,2.8-7.4,2.8-10.2,0l-22.6-22.6c-2.8-2.8-2.8-7.4,0-10.2l3.7-3.7
			c2.8-2.8,7.4-2.8,10.2,0l22.6,22.6C536.4,814.7,536.4,819.3,533.5,822.1z"/>
		<path class="st7" d="M271.2,587.6c0,0-7,9.7-9.4,12.2l12.6,5.4c5.3-5.9,45.3-48.3,46.3-50.7c1.1-2.5,12.2-52.1,12.2-52.1
			l-24.7,1.1l-3.1,35.4C303.7,540.8,271.2,587.6,271.2,587.6z"/>
		<path class="st6" d="M352.2,808.2c0,0-1.6,17.6-0.6,23.3c0.1,0.8,0.5,1.7,0.8,2.8c1.1,3.2-1.9,13-1.9,13l-40.1,0.1
			c-2.2,0-0.7-1.4,1.1-2.6c2.9-2.1,5.2-3.4,14.5-7.8c0.6-0.3,2.8-1.6,3.6-2.1c2-1.2,4-3.1,5.8-5c2.9-3.2,3.4-18.7,3.4-18.7
			L352.2,808.2z"/>
		<path class="st8" d="M329.7,834.6c10.6,2.8,18.4,1.1,22.8-0.6c1.1,3.2,3.1,15.4,1.9,15.4c-10,0-18.5,0.6-47.3,0.1
			c-1,0-0.9-3.6-0.2-4.3C308.7,843,328.9,835.1,329.7,834.6z"/>
		<path class="st6" d="M306.2,823.4c0,0,0.8,14.3,0.8,14.3c0.3,1.8,1.5,6.3,1.5,7.9c0,6.2-27.5-5.3-21.3-8c0.6-0.2,4.3-3.5,4.5-5.6
			c0.3-3.2,0.1-8.4,0.1-8.4L306.2,823.4z"/>
		<path class="st11" d="M388.7,622.5c0,0-4.6,24.7-14.3,39.4c-9.4,14.3-48.7,47-61.1,67.8c0.7,13,5.3,31.8,2.5,45.6
			c-3.2,15.7-9.1,57.5-9.1,57.5l-17.8-2.3L283,719.1l53.3-92l21.2-43.9L388.7,622.5z"/>
		<path class="st18" d="M289.3,837.6c0,0,6.4,1.9,9.8,2.4c3.3,0.5,7.7-3.5,10-2.4c2.6,1.2,2.7,12.9,2.7,12.9s-34.4,1.1-44.5-0.4
			C263.2,849.4,276.2,842,289.3,837.6z"/>
		<path class="st13" d="M296.1,506.8c1.4-15,15.7-24.4,15.7-24.4s9.6-6.8,13.4-7.7c5.5-1.3,15.2-5.4,26.5,16
			c8.1,15.3,49.3,64.2,64.7,105.6l-59.8,17.2c0,0-30.3-45.9-34.4-51.5C313.1,549.4,295.2,516.5,296.1,506.8z"/>
		<path class="st6" d="M323.4,456.8l9.5,21.2c0,0-9.5,14.3-17.4,14.1c-6.6-0.2-4.8-9.9-4.8-9.9s-0.1-12.8-2.8-18.7
			C305.1,457.6,323.4,456.8,323.4,456.8z"/>
		<path class="st19" d="M321.5,462.3c-2.5,2.6-6.7,6.1-11.3,8.3c-0.6-3.2-1.5-6.5-2.7-8.7c-1.4-2.6,1.7-4.5,5.4-5.7
			c5-1.3,9.7-2,9.7-2l2.1,4C324.2,459.4,322.4,461.4,321.5,462.3z"/>
		<path class="st6" d="M307.6,418c0.3-0.5,21.3,18.2,20.9,28.6c-0.4,10.4-9.3,21.4-17,20c-8.5-1.5-27.9-24.3-24.6-37.5
			C290.2,416,307.6,418,307.6,418z"/>
		<path class="st17" d="M298.1,412.3c7.8-2.5,19.6-1.4,27.3,4.8c9.5,7.6,9.1,22,4.1,29.9c-5,7.8-2.1,13.3-2.1,13.3l-5.2-4
			c0,0-2.2-6-1.8-10.2c0.4-4.2-5.7-4.6-8.2-7c-2-1.9-3.9-7.1-7-10.2c0,0-8.9-2.9-13.9-1.3C282.9,430.4,286.9,415.9,298.1,412.3z"/>
		
			<ellipse transform="matrix(0.9854 -0.1701 0.1701 0.9854 -79.9717 46.8276)" class="st20" cx="233.4" cy="490.2" rx="3.3" ry="5.6"/>
		<path class="st6" d="M269.8,592l4.8,14.2c-0.7,2.4-2.3,4.6-3.1,7.9l-24,4.3c0,0,1.1-3.2,0.9-3.1l-3,1.7c0,0-0.7-1.4-2-2.3
			c-1.1-0.8,1.7-3.6,2.7-4.4c3.1-2.4,12.4-7.1,13.9-8L269.8,592z"/>
		<path class="st12" d="M422.6,604.6c-8-22.4-23.5-47.1-37.3-67.6c-8.5,3.9-33,14.8-36.4,12.5c-4.1-2.7-20.4-25.1-26.8-39.7
			c-4.4-10.1-1-18.8,1.6-23.2c-2.3,1.5-4.1,2.7-4.1,2.7s-0.4,0.3-1.1,0.7c-1,2.4-2,5.4-1.9,7.7c0.3,4.4,0.9,15.8,8.7,27.4
			c7.8,11.6,17.3,25.4,17.3,25.4s-14.9,8.2-17.5,7.8c0,0-17.3-30.7-21.6-44c0,10.8,16,43.3,24.7,55.6c4,5.7,34.4,51,34.4,51
			s-12.8,107.2-12.2,104.5c0.6-2.6-16.9,101.6-16.9,101.6l17.6,6.2l28.4-100.2c0,0,33.3-69.1,41.6-85.6
			C429.3,631.2,422.6,604.6,422.6,604.6z"/>
		<g>
			<polygon class="st21" points="341.2,605.8 341.1,604.7 321.6,607.3 320.3,607.1 315.4,607.7 314.1,609.5 314,609.6 315.8,611 
				320.8,610.3 321.9,609.8 341.4,607.1 			"/>
			<path class="st22" d="M361.9,606.5l3.7-0.5c1.6-0.2,2.8-1.9,2.5-3.7l0-0.1c-0.3-1.8-1.8-3-3.4-2.8l-3.7,0.5l-3.6,0.5l-12.3,1.7
				l-0.2-1.2l-4.3,0.6l0.4,3.2l0.2,1.2l0.2,1.3l0.4,3.2l4.3-0.6l-0.2-1.1l12.3-1.7L361.9,606.5z M345.6,604.6l-0.2-1.2l18.2-2.5
				l0.2,1.2L345.6,604.6z M346,607.2l-0.2-1.2l18.2-2.5l0.2,1.2L346,607.2z"/>
			
				<rect x="345.8" y="604.8" transform="matrix(0.9908 -0.1351 0.1351 0.9908 -78.5159 53.497)" class="st21" width="18.4" height="1.2"/>
			
				<rect x="345.4" y="602.2" transform="matrix(0.9908 -0.1351 0.1351 0.9908 -78.1656 53.4248)" class="st21" width="18.4" height="1.2"/>
		</g>
		<path class="st23" d="M266.6,608.4c2.2-0.3,4.2,0.7,4.7,2.4c0.8,3.1,1.4,8.5-3.6,10.2c-7.2,2.5-22.9-0.5-21.7-2.6
			c1.3-2.1,13.4-11.2,16-10C263.5,608.9,265,608.6,266.6,608.4z"/>
		<path class="st6" d="M369.8,613.5c0.6-1.3,2-9.5,1.9-12.2c-0.1-1.6-0.5-9.3-0.5-9.8c1.2-16.8,15.7-66.8,15.1-69
			c-0.7-2.6-32.8-41.9-32.8-41.9L336,496.9l28.2,32.2c0.2,2.4-6,56.4-6,56.4s0.2,2.9,0.3,6.3c-0.1,0-0.1,0.1-0.2,0.1
			c-2.6,0.7-4.8,2-6.9,3.6c-2.6,1.9-5.1,3.9-4.7,7.7c0.1,1.2-0.2,2.4-0.4,3.6c-0.4,1.6-0.3,3.4,0,5c0.3,1.6,1.5,2.5,3.3,2.5
			c1.1,0,2.2-0.3,3.2,0C354.4,614.8,368.5,616.1,369.8,613.5z"/>
		<path class="st14" d="M382.8,512.1c0,0-5.9,5.3-10.3,8.3c-2.9,2-16.2,10.6-16.2,10.6s-19.1-18.4-24.9-26.7
			c-21.5-30.4,7.4-33.3,13.3-32.5C357.8,473.6,382.8,512.1,382.8,512.1z"/>
		<g>
			<path class="st10" d="M591.5,776.7h28c5.4,0,9.8-4.4,9.8-9.8v0c0-5.4-4.4-9.8-9.8-9.8h-28c-5.4,0-9.8,4.4-9.8,9.8l0,0
				C581.7,772.3,586.1,776.7,591.5,776.7z"/>
			<path class="st24" d="M646.6,775.4v55.7c0,6.4-5.2,11.5-11.5,11.5H515.3c-6.4,0-11.5-5.2-11.5-11.5V830
				c0-32.7,25.4-59.7,58.1-61.7l72.5-4.4C641,763.5,646.6,768.7,646.6,775.4z"/>
			<path class="st24" d="M646.6,816.1v15c0,6.4-5.2,11.5-11.5,11.5H515.3c-6.4,0-11.5-5.2-11.5-11.5V830c0-4.8,0.5-9.4,1.6-13.9
				H646.6z"/>
			<circle class="st25" cx="618.7" cy="810.8" r="31.9"/>
			<circle class="st26" cx="618.7" cy="810.8" r="25.2"/>
		</g>
	</g>
	<g>
		<path class="st27" d="M296.1,484.3H79.3c-5.3,0-9.6,4.3-9.6,9.6v111.8v17.9c0,3.7,2.5,6.7,5.5,6.7h93V657h-55.1
			c-4.1,0-7.5,3.3-7.5,7.5h62.6h18.3h1.2h18.3h62.6c0-4.1-3.3-7.5-7.5-7.5h-55.1v-26.6h94.2c3,0,5.5-3,5.5-6.7v-17.9V493.9
			C305.7,488.6,301.4,484.3,296.1,484.3z"/>
		<path class="st25" d="M266.2,657h-55.1v-31.5h-18.3h-1.2h-18.3V657h-55.1c-4.1,0-7.5,3.3-7.5,7.5h62.6h18.3h1.2h18.3h62.6
			C273.7,660.4,270.3,657,266.2,657z"/>
		<path class="st25" d="M310.8,605.7V493.9c0-5.3-4.3-9.6-9.6-9.6H84.4c-5.3,0-9.6,4.3-9.6,9.6v111.8H310.8z"/>
		<path class="st25" d="M74.8,605.7v17.9c0,3.7,2.5,6.7,5.5,6.7h225c3,0,5.5-3,5.5-6.7v-17.9H74.8z"/>
		<path class="st26" d="M305.3,600.9V494.2c0-2.8-2.3-5.1-5.2-5.1H85.6c-2.9,0-5.2,2.3-5.2,5.1v106.7H305.3z"/>
		<rect x="66.7" y="723.1" class="st28" width="408.8" height="20.5"/>
		<rect x="425.6" y="664.6" class="st25" width="4" height="185.8"/>
		<rect x="471.5" y="664.6" class="st25" width="4" height="185.8"/>
		<rect x="66.7" y="664.6" class="st25" width="4" height="185.8"/>
		<rect x="124.3" y="664.6" class="st25" width="4" height="185.8"/>
		<rect x="66.7" y="664.6" class="st28" width="408.8" height="7"/>
		<rect x="66.7" y="664.6" class="st10" width="61.6" height="7"/>
		<rect x="66.7" y="723.1" class="st10" width="61.6" height="20.5"/>
		
			<rect x="370.1" y="755.1" transform="matrix(-1 -1.224647e-16 1.224647e-16 -1 747.091 1594.4481)" class="st25" width="6.8" height="84.2"/>
		<path class="st25" d="M408.1,843.8h-67.9c-3.1,0-5.7,2.5-5.7,5.7l0,0c0,0.5,0.4,1,1,1h77.3c0.5,0,1-0.4,1-1l0,0
			C413.8,846.3,411.2,843.8,408.1,843.8z"/>
		<path class="st25" d="M377.5,839.3h-8.3c-2.5,0-4.5,2-4.5,4.5l0,0c0,2.5,2,4.5,4.5,4.5h8.3c2.5,0,4.5-2,4.5-4.5l0,0
			C382,841.3,380,839.3,377.5,839.3z"/>
	</g>
	<g>
		
			<rect x="1221.9" y="525.1" transform="matrix(1 -2.413268e-03 2.413268e-03 1 -1.3844 3.1045)" class="st29" width="127.6" height="100.3"/>
		
			<rect x="1221.9" y="525.2" transform="matrix(1 -2.412764e-03 2.412764e-03 1 -1.3845 3.0043)" class="st19" width="45.2" height="100.3"/>
		
			<rect x="1293.3" y="525" transform="matrix(1 -2.405938e-03 2.405938e-03 1 -1.2755 3.1458)" class="st30" width="27.3" height="13.3"/>
	</g>
	<g>
		
			<rect x="1281.8" y="544.9" transform="matrix(1 -2.409963e-03 2.409963e-03 1 -1.4074 3.2022)" class="st10" width="92.3" height="81.3"/>
		
			<rect x="1281.8" y="545" transform="matrix(1 -2.421176e-03 2.421176e-03 1 -1.4142 3.1448)" class="st31" width="32.7" height="81.3"/>
		
			<rect x="1333.4" y="544.9" transform="matrix(1 -2.404789e-03 2.404789e-03 1 -1.3195 3.232)" class="st30" width="19.7" height="10.8"/>
	</g>
	<g>
		<g>
			<rect x="743.6" y="726.8" class="st17" width="7.6" height="111.3"/>
			<path class="st17" d="M709,843h75.6c3.5,0,6.3,2.8,6.3,6.3l0,0c0,0.6-0.5,1.1-1.1,1.1h-86c-0.6,0-1.1-0.5-1.1-1.1l0,0
				C702.7,845.8,705.5,843,709,843z"/>
			<path class="st17" d="M743,838.1h9.3c2.7,0,5,2.2,5,5l0,0c0,2.7-2.2,5-5,5H743c-2.7,0-5-2.2-5-5l0,0
				C738.1,840.3,740.3,838.1,743,838.1z"/>
			<path class="st8" d="M796.4,714l-5.2-21.7c-3.6-15.1-17.1-26.2-32.6-26.8l-65.9-2.7l-2-6.7l68.2,2.8
				c18.5,0.7,34.5,13.9,38.8,31.9l5.5,23C801.3,713.9,799,713.9,796.4,714z"/>
			<path class="st10" d="M708,702.4c0,0,90.5,1.5,100,0s13.5,10.3,10.7,16.5c-2.8,6.2-10.6,8.6-22,9.2c-11.4,0.6-106.4,3.2-109,0.7
				c-2.2-2.1-31-100.5-41.4-136.5c-2.1-7.2,2-14.7,9.2-16.8h0c7.2-2.1,14.7,2,16.8,9.1L708,702.4z"/>
		</g>
		<path class="st17" d="M823,637h557.6c1.4,0,2.6-1.2,2.6-2.6v-7.5c0-1.4-1.2-2.6-2.6-2.6H823c-1.4,0-2.6,1.2-2.6,2.6v7.5
			C820.4,635.8,821.6,637,823,637z"/>
		<polygon class="st17" points="1355.2,850.4 1364.2,850.4 1344.8,637 1335.8,637 		"/>
		<polygon class="st17" points="1278.6,850.4 1269.6,850.4 1289,637 1298,637 		"/>
		<polygon class="st17" points="920,850.4 929.1,850.4 909.6,637 900.6,637 		"/>
		<polygon class="st17" points="843.5,850.4 834.5,850.4 853.9,637 862.9,637 		"/>
	</g>
	<g>
		
			<rect x="527.8" y="668.2" transform="matrix(1 -2.214155e-03 2.214155e-03 1 -1.5582 1.2614)" class="st32" width="82.3" height="72.4"/>
		
			<rect x="527.8" y="668.2" transform="matrix(1 -2.213250e-03 2.213250e-03 1 -1.5578 1.2021)" class="st33" width="29.1" height="72.4"/>
		
			<rect x="573.8" y="668.1" transform="matrix(1 -2.201412e-03 2.201412e-03 1 -1.4801 1.2841)" class="st30" width="17.6" height="9.6"/>
	</g>
	<g>
		<rect x="509.5" y="738.4" class="st10" width="108.6" height="112.1"/>
		<rect x="509.5" y="738.4" class="st34" width="27" height="112.1"/>
		<rect x="573.7" y="738.4" class="st30" width="10.8" height="32.9"/>
	</g>
	<g>
		<path class="st23" d="M824,522.7c-8.1,4.5-25.3,13.9-32.5,15.8c-1.1-3.1-9.4-19.7-10.4-22.7c-5.2,3.8-11.3,4.6-16.8,8
			c4,9.8,17.6,34,20.3,35.3c6.5,2.9,27.4-12.7,39.4-21.9V522.7z"/>
		<path class="st17" d="M729.2,499.9c12.3-8.3,19.1-29,13.5-42.6c5.8-5.9,8.9-4.3,8.8-12.6c-0.2-16.3,23.3-23.1,7.2-29.5
			c-16.4-5.5-31.7,3.1-40.7,12.4c-4.1,4.2-8.9,7.6-14.4,9.8c-10.9,4.3-17.9,17-14.3,31.6c-8.7,3.5-17.5,15.8-13.5,27.5
			c1,2.8,3.2,6.2,3.2,7c0-0.9-10.5,22.6,16.1,34.4C722.5,549.9,731.8,523.5,729.2,499.9z"/>
		<path class="st13" d="M711.2,520.5l3.1,29.2c0,0,4.6,12.4,9.4,9.8c4.8-2.6,15.5-5.9,20.6-15.3c5-9.4,8.1-0.2,7.8-15.3
			c-0.4-15.1,6.4-13.3-1-20.1c-7.4-6.8,0.8-10.7-11.8-8.4C726.5,502.6,711.2,520.5,711.2,520.5z"/>
		<path class="st6" d="M739,812.9c0,0,1.3,17,0.3,22.5c-0.6,3-3.8,9-2.3,11.8c1.5,2.8,3.2,3.5,3.2,3.5l38.4,0.6c2.1,0,0.7-1.3-1-2.6
			c-2.8-2-5-3.4-13.8-7.7c-0.6-0.3-2.7-1.6-3.4-2.1c-1.9-1.2-3.8-3-5.5-4.9c-2.8-3.1-3-18-3-18L739,812.9z"/>
		<path class="st18" d="M760.2,839c-10.1,2.6-17.6,0.8-21.8-0.9c-1.1,3.1-2.5,7-1.8,9.2c0.9,2.7,2.3,3.3,3.4,3.4
			c9.3,0.2,33.9,0.6,41,0.7c1,0,1.5-1.1,0.9-1.9C780.2,847.3,761,839.4,760.2,839z"/>
		<path class="st6" d="M674,806c0,0-2.2,15.1-5.9,19.9c-1.2,1.6-3.5,3.7-5,6.6c-2.3,4.6-1,11.4,0.7,15.2c0.9,1.9-0.1,1.9,1.9,2.5
			c5.9,1.8,12.3-1.3,14.8-7c1.4-3.2,2.7-7.5,2.9-12.8c0.6-13.7,4.9-20.6,4.9-20.6L674,806z"/>
		<path class="st11" d="M769,587.1c0,0,4.8,27.6,1.7,45.7c-3.2,18.1-18.4,185.6-18.4,185.6l-16.9,1c0,0-3.5-70-2.9-79.7
			c0.6-9.7,5.7-26,5.7-26l-1.7-56.5l21.3-74.2L769,587.1z"/>
		<path class="st18" d="M681.7,840.3c-9.2,1.7-15.3-3.7-18.5-7.8c-2.3,4.6-3.5,11.5-1.8,15.2c1.5,3.3,6,3.2,9.4,3.4
			c3.7,0.1,6.5-1.9,8.4-5.2C680.1,844.4,680.9,842.5,681.7,840.3z"/>
		<path class="st14" d="M765.9,535.5c0,0-19.3-19.8-24.3-28.4c-5-8.6,3.4-3,11.9-5.3c3.2-0.9,2.4-19.8,8.5-13.6
			c10,10.1,22.6,27.8,22.6,27.8L765.9,535.5z"/>
		<path class="st13" d="M772.1,524.5c-1.5-9.6-8.1-33.5-10-36.3c-2.2-3.1-23.6-8.7-23.6-8.7s-17.3-3.4-25.2,3.2
			c-4.1,3.4-3.5,20.6-2,37.8L772.1,524.5z"/>
		<path class="st20" d="M743.7,455.3c0,0-0.1,0.5-0.3,1.4c-0.8,4.2-3,18.9-5,22.8c-2.5,4.7,7.6,18.9,18.2,17.1
			c3.1-0.5-2.6-13.7-2.4-15.1c0.5-2.7,1.3-6.3,2-10c0.4-2.1,0.8-4.2,1.2-6.2c1.1-5.7,2-10.3,2-10.3L743.7,455.3z"/>
		<path class="st19" d="M743.5,456.7c0.2-0.9,0.3-1.4,0.3-1.4l15.8-0.4c0,0-0.9,4.7-2,10.3c-0.4,2-0.8,4.1-1.2,6.2
			c-2.4-0.4-5-1.5-7.5-3.8c-2.8-2.4-4.6-5.3-5.7-8.5C743.2,458.2,743.3,457.4,743.5,456.7z"/>
		
			<ellipse transform="matrix(0.1251 -0.9921 0.9921 0.1251 215.7043 1132.3909)" class="st20" cx="749.9" cy="443.9" rx="6.4" ry="3"/>
		<path class="st17" d="M730,428.7c-5,13.1,11.5,25.1,25.5,27.3c9.1,1.4,13.4,1,16.1-8.5c4.4-15.3-0.9-25.6-9.4-30.7
			C751.2,410.3,734.1,417.9,730,428.7z"/>
		<path class="st20" d="M751.7,422.2c0,0-6.4,1.3-10.5,7.1c-4.1,5.8-5,26,7.9,34.3c12.9,8.3,21-5.8,21.4-17
			C771,435.4,768.8,420.5,751.7,422.2z"/>
		<path class="st3" d="M756.4,454l9.7,1.1c0,0-0.6,3.7-4.9,3.4C756,458,756.4,454,756.4,454z"/>
		<path class="st17" d="M734.5,443.8c-0.7-10.6,1.1-18.3,8.9-21.1c7.8-2.9,14.5-5.8,20.2,1.8l1.4,1c0,0-12.8,1.9-14.3,8.3
			c-1.5,6.5-3.6,14.3-5.2,18.8c-1.2,3.2-2.8,8.3-2.8,8.3l-1.9-2.9C740.7,458,735.2,454.4,734.5,443.8z"/>
		<path class="st20" d="M748.7,445.4c0.7,3-0.5,5.7-2.5,6.2c-2.1,0.4-4.3-1.6-4.9-4.6c-0.7-3,0.5-5.7,2.5-6.2
			C745.8,440.4,748,442.4,748.7,445.4z"/>
		<path class="st8" d="M719.9,479.6c-0.2,0.7-0.3,1.1-0.3,1.1l1.3-1.4C720.6,479.5,720.2,479.5,719.9,479.6z"/>
		<path class="st12" d="M772.3,527c-0.4-7-8.5-35.7-10.3-39c-0.7-1.3-1.2-1.5-2.7-1.6c3.8,11.4,6.5,28.5,6.5,28.5
			c-6.9,1.3-16.7,0-16.7,0c-8.1-18.8-11-27.3-15.3-36c0,0-0.3-0.2-0.9-0.4c-0.7-0.2-1.4-0.2-2.2-0.1l-1.8,0.3
			c0,0,18.5,39.3,16.9,45.9c-1.4,5.6-15.7,22.1-31.6,25.2c0.4,3.7,0.6,6.6,0.6,8.2c0,9.7-5.4,41.3-5.4,41.3h0
			c-2.8,6-5.5,12.8-6.7,19.1c-3.2,16.7,2.3,68-3.8,89.8c-3.3,11.8-15.8,30.1-17.7,45.4c-1.9,15.3-9.4,55.4-9.4,55.4l16.9,3.4
			l39.3-100.1l30.8-90.4l3.8-22.3c3.3-1.3,5.9-3,7.3-5.4C770,594,772.7,534,772.3,527z"/>
		<g>
			<path class="st35" d="M821.3,516.3l1.4,0.2c1.2-4.8,2.9-9.9,5.4-15.3c9.4-20.1,7.1-23.3,19.7-34.8c12.5-11.6,17.5-38.8,17.5-38.8
				s9.8-30.3,6.8-44.7c-3-14.4-1.3-28.2-11.4-44.5c0,0-5.3,19-9.5,27.3c-4.3,8.3-8.3,16.3-9.3,37.7c-1,21.4,0.1,23.4-0.3,28.9
				c-0.3,5.5-4.6,28.5-4,32.4c0.6,4-11.4,29.1-13.7,40.3C823.1,508.5,822.2,512.4,821.3,516.3z"/>
			<path class="st16" d="M826.7,512.3c2-3.2,5.1-6.2,10-7.5c12.7-3.5,20.7-2.2,28.2-14.1c7.5-11.9,10.1-29.3,12.6-32.6
				c0,0-5-1.6-11.4,6.7c-6.5,8.4-11,14.6-14.7,19.5c-3.7,4.9-7.8,2.7-12,6.2c-3.5,2.9-7.5,10.4-9.2,14.2c-0.5,1.2-1.2,2.4-2.1,3.5
				c-0.8,1-1.7,2.2-2.2,3c-0.1,0.2-0.3,0.5-0.4,0.9L826.7,512.3z"/>
			<path class="st16" d="M808.3,510.3c-0.7-3.6-2.4-7.4-6.3-10.4c-10.2-7.8-18-9.5-20.4-22.9c-2.4-13.5,1.5-30.2,0.4-34.1
				c0,0,5.1,0.3,7.9,10.3c2.9,9.9,4.7,17.2,6.3,23c1.6,5.8,6.1,5.3,8.6,10c2.2,3.9,3.1,12.1,3.2,16.2c0,1.3,0.2,2.6,0.6,3.9
				c0.3,1.2,0.7,2.6,0.9,3.5c0,0.2,0.1,0.5,0.1,0.9L808.3,510.3z"/>
			<path class="st35" d="M792.2,426.7c-3.5,14.9,6.3,15.1,5.2,24.8c-1.1,9.6,9,27.7,13,40.1c2.1,6.4,1.8,15.8,1.1,23.2l4.6,0.7
				c1-19-4.6-33.2-7.5-44.4c-3.8-14.4-3.8-20.6,2.8-30.4c6.6-9.8,3.4-38.1,12.3-49.2c8.9-11.1,8.2-30.7,7.7-38.2
				c-0.5-7.6,2-12.3,4.7-19.8c2.6-7.5,1.2-19.2,1.2-19.2c-1.7,9.5-11,21.5-17.5,29.1c-6.5,7.6-20,28.9-20.4,39.4
				c-0.4,10.5-1.1,11.2-1.1,11.2C792.5,407.4,795.6,411.8,792.2,426.7z"/>
			<path class="st16" d="M812.1,436.1c-2.4,14.4,8.1,21.6,6.7,29.6c-1.4,8-0.2,16.9,1,23.7c0.7,4.3-1.7,15.5-3.6,26.1l3.1,0.5
				c2-7.7,4.6-18.9,5-23.9c0.6-6.9,4.6-11.9,6.8-23.7c2.2-11.8,6.4-22.2,3.4-38c-3-15.8,0.7-33.6-18.8-53.6c0,0-6.6,17-5.1,27
				C812.1,413.7,814.5,421.7,812.1,436.1z"/>
			<path class="st15" d="M812.1,436.1c-2.4,14.4,8.1,21.6,6.7,29.6c-1.4,8-0.2,16.9,1,23.7c0.7,4.3-1.7,15.5-3.6,26.1l1.3,0.2
				c0.5-2.2,0.9-3.6,0.9-3.6l4.7-26.8c0,0,1.9-21.3,2.2-38.8c0.3-17.5-9.6-69.8-9.6-69.8s-6.6,17-5.1,27
				C812.1,413.7,814.5,421.7,812.1,436.1z"/>
			<path class="st19" d="M820.5,504.7l-2.1-0.3l-28.1-4.3c-2.1-0.3-3.9,1.4-3.7,3.5l4,48.1c0.1,1.5,1.3,2.7,2.7,2.9l17.1,2.6
				l2.1,0.3l17.1,2.6c1.5,0.2,2.9-0.6,3.5-2l18.1-44.8c0.8-1.9-0.4-4.1-2.5-4.4L820.5,504.7z"/>
		</g>
		<path class="st20" d="M815.1,535.9c0.6-1.7-7.8-3.1-8.2-4.8c-0.5-1.7,10.6-1.9,11-3.4c0.7-2.8-12.1-0.6-11.8-1.9
			c0.2-1.3,13.3-4.3,11.9-6.6c-1.4-2.3-13.3,4.5-13.6,3c-0.4-1.5,11.6-5.3,11.3-8.7c-0.1-1.8-19.6,9-21.8,8.1
			c-2.3-1,2.4-9.4,0.6-10.7s-6.9,17.2-8.1,17.8c-1.2,0.6-27.5,15.7-36.9,18.2c-1.1-3.1-9.4-19.7-10.4-22.7c-5.2,3.8-11.3,4.6-16.7,8
			c4,9.8,17.6,34,20.3,35.3c8.4,3.7,40.5-23.1,46.9-27.7c6.4-4.6,10.1-3.1,14.5-4.6C808.2,533.7,814.5,537.6,815.1,535.9z"/>
		<path class="st14" d="M719.7,534.8c0,0-11.4-25.2-13.1-35c-1.7-9.8,6.7-22.1,15.5-21.3c8.8,0.8,22,44.3,22,44.3L719.7,534.8z"/>
	</g>
	<g>
		<g>
			<path class="st24" d="M1259.3,817.5c-0.4-0.4-10-10.2-19.2-25.1c-12.3-19.9-17.9-39.4-16.1-56.3c1.3-11.8,7.2-27.8,14-46.4
				c8.2-22.2,17.4-47.3,20.7-70.9c3.8-26.4-0.7-45.8-13.6-59.3c-12.2-12.8-25.5-19.2-39.5-19.2c0,0,0,0,0,0
				c-23.7,0-41.7,18.5-41.8,18.7l-6.3-6c0.8-0.9,20.8-21.4,48.1-21.4c0,0,0,0,0,0c16.4,0,31.8,7.4,45.7,21.9
				c14.9,15.5,20.1,37.3,15.9,66.5c-3.5,24.5-12.9,50.1-21.2,72.7c-6.6,18-12.4,33.6-13.5,44.3c-3.9,36.4,32.5,73.9,32.9,74.3
				L1259.3,817.5z"/>
		</g>
		<path class="st10" d="M1284,830.7l-3.7,3.7c-2.8,2.8-7.4,2.8-10.2,0l-22.6-22.6c-2.8-2.8-2.8-7.4,0-10.2l3.7-3.7
			c2.8-2.8,7.4-2.8,10.2,0l22.6,22.6C1286.8,823.3,1286.8,827.9,1284,830.7z"/>
		<path class="st7" d="M1049.6,642.3c0,0,1.7,11.8,1.7,15.3l12.8-4.9c-0.3-8-1.2-66.2-2.2-68.7c-1-2.5-27.6-45.9-27.6-45.9l-16.9,18
			l22.4,27.6C1040.3,586.1,1049.6,642.3,1049.6,642.3z"/>
		<path class="st6" d="M1102.7,809.3c0,0-1.6,17.6-0.6,23.3c0.1,0.8,0.5,1.7,0.8,2.8c1.1,3.2-1.9,13-1.9,13l-40.1,0.1
			c-2.2,0-0.7-1.4,1.1-2.6c2.9-2.1,5.2-3.4,14.5-7.8c0.6-0.3,2.8-1.6,3.6-2.1c2-1.2,4-3.1,5.8-5c2.9-3.2,3.4-18.7,3.4-18.7
			L1102.7,809.3z"/>
		<path class="st8" d="M1080.2,836c10.6,2.8,18.4,1.1,22.8-0.6c1.1,3.2,3.1,15.4,1.9,15.4c-10,0-18.5,0.6-47.3,0.1
			c-1,0-0.9-3.6-0.2-4.3C1059.2,844.4,1079.4,836.5,1080.2,836z"/>
		<path class="st11" d="M1152.9,600.6c0,0-0.6,25.1-7.8,41.2c-7,15.7-40.5,54.3-49.4,76.8c2.8,12.7,10.3,30.6,9.8,44.7
			c-0.6,16,0.3,58.2,0.3,58.2l-18,0.6l-23.6-109l37.8-99.4l13.9-46.7L1152.9,600.6z"/>
		<path class="st6" d="M1160.7,824c0,0,0.8,14.3,0.8,14.3c0.3,1.8,1.5,6.3,1.5,7.9c0,6.2-27.5-5.3-21.3-8c0.6-0.2,4.3-3.5,4.5-5.6
			c0.3-3.2,0.1-8.4,0.1-8.4L1160.7,824z"/>
		<path class="st18" d="M1141.7,838.2c0,0,6.4,1.9,9.8,2.4c3.3,0.5,7.7-3.5,10-2.4c2.6,1.2,2.7,12.9,2.7,12.9s-34.4,1.1-44.5-0.4
			C1115.6,850,1128.6,842.6,1141.7,838.2z"/>
		<path class="st13" d="M1005,542.1c-3.7-14.6,6.4-28.3,6.4-28.3s6.8-9.6,10-11.8c4.7-3.1,12.4-10.2,30.3,6
			c12.8,11.6,68.1,43.6,96.7,77.3l-50.4,36.5c0,0-44.1-32.9-49.9-36.8C1035.4,576.5,1007.4,551.6,1005,542.1z"/>
		<path class="st6" d="M988.4,508.3l22.4,6.4c0,0,4.8,16.5-0.4,22.4c-4.4,5-10.7-2.7-10.7-2.7s-9.8-8.2-16.1-9.9
			C977.2,522.9,988.4,508.3,988.4,508.3z"/>
		<path class="st19" d="M993.5,514.8c0.2,3.6-0.3,9.1-1.8,13.9c-2.7-1.8-5.7-3.4-8.2-4.1c-2.9-0.8-2.1-4.3-0.4-7.9
			c2.6-4.5,5.2-8.4,5.2-8.4l4.3,1.2C993.3,510.9,993.4,513.6,993.5,514.8z"/>
		<path class="st6" d="M971.1,480.4c0.3-0.5,20.3,16.6,20.1,26.5s-8.4,20.3-15.6,19.3c-8-1.2-26.5-22.3-23.7-34.8
			C954.7,478.8,971.1,480.4,971.1,480.4z"/>
		<path class="st17" d="M952.2,477.4c6.3-5.3,17.6-8.6,27.1-5.7c11.6,3.5,16.7,17,15,26.2c-1.7,9.1,3.1,13.1,3.1,13.1l-6.3-1.8
			c0,0-4.2-4.8-5.4-8.8c-1.2-4-7-2.1-10.3-3.4c-2.5-1-6.2-5.1-10.3-6.8c0,0-9.3,0.6-13.3,4C944.8,499.8,943.1,484.9,952.2,477.4z"/>
		
			<ellipse transform="matrix(0.9854 -0.1701 0.1701 0.9854 -70.5039 174.5749)" class="st20" cx="983.8" cy="498.8" rx="3.3" ry="5.6"/>
		<path class="st3" d="M967,518.6l7.4-8c0,0,2.9,3-0.2,6.7C970.3,521.7,967,518.6,967,518.6z"/>
		<path class="st6" d="M1050.2,646.5l13.8,5.9c1.3,2.1,1.9,4.8,3.8,7.6l-12.8,20.7c0,0-1.6-2.9-1.7-2.7l-0.8,3.3c0,0-1.5-0.4-3.1,0
			c-1.4,0.3-1.6-3.7-1.5-5c0.3-3.9,3-14,3.4-15.7L1050.2,646.5z"/>
		<path class="st12" d="M1148.3,585.2c-15.4-18.2-38.6-35.9-58.7-50.1c-6.6,6.6-25.6,25.4-29.6,24.5c-4.8-1.1-28-16.3-39.1-27.7
			c-7.7-7.9-7.5-17.3-6.7-22.3c-1.7,2.2-2.9,4-2.9,4s-0.3,0.4-0.7,1.1c-0.1,2.6,0,5.8,0.9,7.9c1.8,4,6.4,14.5,17.8,22.6
			c11.4,8.1,25.2,17.7,25.2,17.7s-11.1,13-13.6,13.5c0,0-27-22.6-35.7-33.6c3.8,10.1,30.2,34.9,42.7,43.3
			c5.7,3.9,50.1,35.6,50.1,35.6s25.8,104.8,25.4,102.1c-0.4-2.7,20,101.1,20,101.1l18.7-0.4l-8.7-103.8c0,0,6.9-76.5,8.7-94.7
			C1163.9,607.7,1148.3,585.2,1148.3,585.2z"/>
		<polygon class="st10" points="924.8,840.5 911.7,840.5 1159.5,550.3 1167.2,556.6 		"/>
		<path class="st23" d="M1064.2,664.4c1.2-1.9,3.3-2.7,4.9-1.9c2.9,1.5,7.3,4.6,5.3,9.5c-2.9,7.1-15.6,16.8-16.4,14.4
			c-0.8-2.4,0.6-17.4,3.1-18.6C1062.6,667,1063.3,665.7,1064.2,664.4z"/>
		<path class="st6" d="M1159.4,570.4c-0.6-1.3-5.9-7.7-8-9.4c-1.2-1-7.4-5.8-7.7-6c-12-11.9-40.3-55.5-42.4-56.5
			c-2.4-1.2-53.2-2.5-53.2-2.5l0.9,23.8l42.8-0.3c1.9,1.4,38.7,41.4,38.7,41.4s2.3,1.7,5,3.8c0,0.1,0,0.1-0.1,0.2
			c-1.2,2.4-1.7,5-1.8,7.6c-0.2,3.2-0.4,6.4,2.8,8.6c1,0.7,1.7,1.7,2.4,2.7c1,1.3,2.4,2.4,3.8,3.3c1.4,0.8,2.9,0.5,4.1-0.8
			c0.7-0.8,1.2-1.9,2.1-2.4C1150.4,582.9,1160.6,573,1159.4,570.4z"/>
		<path class="st14" d="M1075.1,490.9c0,0,1.2,7.9,1.3,13.2c0.1,3.6,0,19.4,0,19.4s-25.8,5.9-36,6.3c-37.2,1.4-23.8-24.4-19.9-28.9
			C1029.3,490.8,1075.1,490.9,1075.1,490.9z"/>
		<path class="st36" d="M953.2,791.9l-41.5,48.6h13.1l36.9-43.2C959,789,953.2,791.9,953.2,791.9z"/>
		<path class="st10" d="M927.7,837.4h-18.4c-1.8,0-3.3,1.5-3.3,3.3l0,0c0,1.8,1.5,3.3,3.3,3.3h18.4c1.8,0,3.3-1.5,3.3-3.3v0
			C931,838.9,929.6,837.4,927.7,837.4z"/>
		<path class="st9" d="M942.1,840.5h-54.2c-5.8,0-10.5,4.7-10.5,10.5l0,0h75.2l0,0C952.6,845.2,947.9,840.5,942.1,840.5z"/>
		<g>
			<path class="st10" d="M1342,785.3h28c5.4,0,9.8-4.4,9.8-9.8v0c0-5.4-4.4-9.8-9.8-9.8h-28c-5.4,0-9.8,4.4-9.8,9.8l0,0
				C1332.2,780.9,1336.5,785.3,1342,785.3z"/>
			<path class="st24" d="M1397.1,784v55.7c0,6.4-5.2,11.5-11.5,11.5h-119.8c-6.4,0-11.5-5.2-11.5-11.5v-1.1
				c0-32.7,25.4-59.7,58.1-61.7l72.5-4.4C1391.5,772.1,1397.1,777.4,1397.1,784z"/>
			<path class="st24" d="M1397.1,824.7v15c0,6.4-5.2,11.5-11.5,11.5h-119.8c-6.4,0-11.5-5.2-11.5-11.5v-1.1c0-4.8,0.5-9.4,1.6-13.9
				H1397.1z"/>
			<circle class="st25" cx="1369.1" cy="819.4" r="31.9"/>
			<circle class="st26" cx="1369.1" cy="819.4" r="25.2"/>
		</g>
	</g>
	<g>
		
			<rect x="841.5" y="574" transform="matrix(-1 -1.224647e-16 1.224647e-16 -1 1826.5356 1198.3442)" class="st37" width="143.6" height="50.3"/>
		
			<rect x="841.5" y="583.2" transform="matrix(-1 -1.224647e-16 1.224647e-16 -1 1826.5356 1167.3242)" class="st38" width="143.6" height="0.8"/>
		
			<rect x="841.5" y="591.5" transform="matrix(-1 -1.224647e-16 1.224647e-16 -1 1826.5356 1183.9132)" class="st38" width="143.6" height="0.8"/>
		
			<rect x="841.5" y="599.8" transform="matrix(-1 -1.224647e-16 1.224647e-16 -1 1826.5356 1200.5028)" class="st38" width="143.6" height="0.8"/>
		
			<rect x="841.5" y="608.1" transform="matrix(-1 -1.224647e-16 1.224647e-16 -1 1826.5356 1217.0917)" class="st38" width="143.6" height="0.8"/>
		<path class="st38" d="M914.3,592.4c0,0-67.6,5.8-76,13.1c0,0,0.4-8.6,3.2-13.9l21.2,0.8L914.3,592.4z"/>
		
			<rect x="841.5" y="616.4" transform="matrix(-1 -1.224647e-16 1.224647e-16 -1 1826.5356 1233.5963)" class="st38" width="143.6" height="0.8"/>
		<polygon class="st38" points="950.9,574 950.9,599 950.9,599.4 950.9,624.3 985.1,624.3 985.1,599.4 985.1,599 985.1,574 		"/>
	</g>
	<g>
		<path class="st10" d="M785.6,192.4v-5.4h-96v5.4H583.1c0,13.3,10.8,24.1,24.1,24.1h257.2c13.3,0,24.1-10.8,24.1-24.1H785.6z"/>
		<polygon class="st39" points="888.5,177.6 888.5,110.6 884.9,110.6 884.9,177.6 584.9,177.6 584.9,110.6 581.3,110.6 581.3,177.6 
			570.8,177.6 570.8,201.7 900.9,201.7 900.9,177.6 		"/>
	</g>
	<rect x="39.3" y="852.1" class="st19" width="1389.8" height="2.9"/>
	<path class="st12" d="M565,462.5c-1.2-1.1-2.7-2-4.3-2.8c7.7,7.3-0.2,42.8-1.8,44.1c-1.6,1.2-27,0.5-27.7-2.3
		c-1.2-5.2,0.9-13.3,3-28.3c1.4-10.1-1-15.9-2.7-18.7c-2-0.1-4-0.3-6.1-0.4c0,0,11.6,9-10,70.3c-1.8,5-23,2.8-38.8,1.9
		c-1.3,4.2-2.3,7.9-2.8,10.6c-3.2,17.2-7.1,61.4-7.1,61.4c21.9,18.4,78.5,6.6,78.5,6.6s0.5-26.7,1.7-46.7c0.8-5.2,1.3-9.6,2-14.1
		c3.3-13.4,9.9-23.4,15.3-41.8C571,479.2,569.7,466.9,565,462.5z"/>
	<path class="st10" d="M546.6,396.1c0,0,2.8,2.3,1.8,5.8c-1,3.5-7.9,13.3-6.9,17.7c1.1,4.4-1,21.9,6.2,24.8c0,0,2-10.8,2.4-10.8
		s5.7-2.8,6.2-5c0.4-2.2,0.4-10.5,0.5-10.9c0.1-0.3-2.2-18.9-2.2-18.9L546.6,396.1z"/>
	<path class="st6" d="M539.4,415.3c-1.2,3-0.7,6,1.1,6.6c1.9,0.7,4.4-1.2,5.6-4.2c1.2-3,0.7-6-1.1-6.6
		C543.1,410.5,540.6,412.4,539.4,415.3z"/>
</g>
</svg>
