<?xml version="1.0" encoding="utf-8"?>
<!-- Generator: Adobe Illustrator 21.1.0, SVG Export Plug-In . SVG Version: 6.00 Build 0)  -->
<svg version="1.1" id="_x3C_Layer_x3E_" xmlns="http://www.w3.org/2000/svg" xmlns:xlink="http://www.w3.org/1999/xlink" x="0px"
	 y="0px" viewBox="0 0 2760 1840" style="enable-background:new 0 0 2760 1840;" xml:space="preserve">
<style type="text/css">
	.st0{fill:#FFFFFF;}
	.st1{fill:#EBF3FA;}
	.st2{fill:#B5453C;}
	.st3{fill:#EFCBAB;}
	.st4{fill:#ED7D2B;}
	.st5{fill:#F99746;}
	.st6{fill:#F2F7FE;}
	.st7{fill:#8FADEF;}
	.st8{fill:#BBD0FF;}
	.st9{fill:#AEC3FF;}
	.st10{fill:#D2E0FF;}
	.st11{fill:#C0D8FB;}
	.st12{fill:#DFEBFD;}
	.st13{fill:#B7D3F3;}
	.st14{fill:#D4E4F8;}
	.st15{fill:#C4D9E8;}
	.st16{fill:#DFEBF5;}
	.st17{fill:#223156;}
	.st18{fill:#1F287F;}
	.st19{fill:#163560;}
	.st20{fill:#2B32B2;}
	.st21{fill:#FFB27D;}
	.st22{fill:#FFFAA6;}
	.st23{fill:#F4A269;}
	.st24{fill:#B7B274;}
	.st25{fill:#35488B;}
	.st26{fill:#2C3A64;}
	.st27{fill:#DDE7FE;}
	.st28{fill:#6C7AFF;}
	.st29{fill:#CDE2FC;}
	.st30{fill:#A4C8F4;}
	.st31{fill:#D9E8FE;}
	.st32{fill:#96C1EA;}
	.st33{fill:#F5FBFF;}
	.st34{fill:#BDD8FF;}
	.st35{fill:#F77D48;}
	.st36{fill:#FF8C64;}
	.st37{fill:#9FC1F4;}
	.st38{fill:#FFB93E;}
	.st39{fill:#FFA412;}
	.st40{fill:#8C9DF4;}
	.st41{fill:#A9BAFF;}
	.st42{fill:#CAD7FF;}
	.st43{fill:#6980E2;}
	.st44{fill:#0B0755;}
	.st45{fill:#E9F0FF;}
	.st46{fill:#BBC9F9;}
	.st47{fill:#2E3552;}
	.st48{fill:#0B233F;}
	.st49{fill:#F9DDBF;}
	.st50{fill:#FFEFE1;}
	.st51{fill:#2A4E96;}
	.st52{fill:#184655;}
	.st53{fill:#355389;}
	.st54{fill:#96D9C9;}
	.st55{fill:#3C8F7C;}
	.st56{fill:#F7CC7F;}
	.st57{fill:#BC4D26;}
	.st58{fill:#FE875E;}
	.st59{fill:#001333;}
	.st60{fill:#BAE1F4;}
</style>
<rect class="st0" width="2760" height="1840"/>
<g>
	<g>
		<path class="st1" d="M332.3,1602.5c0,0-205.3-338-107.8-736.8C290.4,595.7,653.4,404,881.2,489c122,45.5,268.1,77.2,456.8-133.4
			C1652.9,4.2,2616.3,171.1,2435.4,892.5c-87.5,349.1,266.4,361.8,86.1,710.7L332.3,1602.5z"/>
	</g>
	<g>
		<g>
			<g>
				
					<rect x="2222.6" y="1013.9" transform="matrix(0.9874 -0.1585 0.1585 0.9874 -142.0125 366.6892)" class="st2" width="10.1" height="119.4"/>
			</g>
			<g>
				<polygon class="st3" points="2214.8,993.8 2213.2,1015.4 2223.2,1013.8 				"/>
			</g>
		</g>
		<g>
			<g>
				
					<rect x="2310.6" y="1023.7" transform="matrix(0.9832 0.1827 -0.1827 0.9832 236.9306 -404.8647)" class="st2" width="10.1" height="119.4"/>
			</g>
			<g>
				<polygon class="st3" points="2330.4,1004 2321.6,1023.8 2331.6,1025.6 				"/>
			</g>
		</g>
		<g>
			<g>
				
					<rect x="2298" y="989.2" transform="matrix(0.9832 0.1827 -0.1827 0.9832 230.4386 -403.1565)" class="st2" width="10.1" height="119.4"/>
			</g>
			<g>
				<polygon class="st3" points="2317.8,969.6 2309,989.3 2318.9,991.2 				"/>
			</g>
		</g>
		<g>
			<g>
				<rect x="2250.7" y="1063.6" class="st4" width="79.8" height="115"/>
			</g>
			<g>
				<rect x="2210.8" y="1063.6" class="st5" width="79.8" height="115"/>
			</g>
		</g>
	</g>
	<g>
		<g>
			<path class="st0" d="M2256.9,1147.6c-0.7,1.8-2.1,11.4-5.1,19.3l0,0c-1.8,4.8-4.1,9-7.2,10.7c-8.2,4.4-22.8-1.6-22.8-1.6
				s-24.2,4.2-26.7,3.2c-2.4-1-6.8-37.5-6.8-37.5s17.9-20.8,19.5-21.4c1.7-0.7,16,5.9,18.3,5.8c2.4-0.1,15.8-10,19.6-7.9
				C2249.6,1120.3,2258.1,1144.7,2256.9,1147.6z"/>
		</g>
		<g>
			<path class="st6" d="M2226.2,1126.1c0,0-3.7,9.8-4.8,10.7c-1.1,0.9-13.5-16.5-13.5-16.5
				C2209.5,1119.7,2223.8,1126.3,2226.2,1126.1z"/>
		</g>
		<g>
			<path class="st6" d="M2246,1127.8c0,0-16.4,17-16.1,18.5c0.3,1.5,19.4,11.2,20.1,10.8c0.7-0.4-4.6-12.4-4.5-14.4
				C2245.5,1140.5,2246,1127.8,2246,1127.8z"/>
		</g>
		<g>
			<path class="st6" d="M2256.9,1147.6c-0.7,1.8-2.1,11.4-5.1,19.3l0,0l0,0l1.1-18l-7.1-30.7
				C2249.6,1120.3,2258.1,1144.7,2256.9,1147.6z"/>
		</g>
		<g>
			<path class="st6" d="M2221.8,1176.1c0,0-24.2,4.2-26.7,3.2c-2.4-1-6.8-37.5-6.8-37.5s6.3,18.5,6.5,19.4c0.2,0.9,7.6-1.5,7.6-1.5
				L2221.8,1176.1z"/>
		</g>
		<g>
			<polygon class="st6" points="2194.6,1141.4 2197.9,1151 2203.5,1150.7 2199.1,1146.8 			"/>
		</g>
	</g>
	<g>
		<g>
			<path class="st7" d="M2040.5,1184.7v10.4c0,3.6,1.2,6.6,2.6,6.6h379.1c1.4,0,2.6-3,2.6-6.6v-10.4c0-3.6-1.2-6.6-2.6-6.6h-379.1
				C2041.7,1178.1,2040.5,1181.1,2040.5,1184.7z"/>
		</g>
		<g>
			<path class="st8" d="M2040.5,1184.7v10.4c0,3.6,1.1,6.6,2.4,6.6h300.9c1.3,0,2.4-3,2.4-6.6v-10.4c0-3.6-1.1-6.6-2.4-6.6h-300.9
				C2041.6,1178.1,2040.5,1181.1,2040.5,1184.7z"/>
		</g>
		<g>
			
				<rect x="2136.4" y="1201.7" transform="matrix(-1 -1.224647e-16 1.224647e-16 -1 4542.0107 2795.666)" class="st9" width="269.1" height="392.3"/>
		</g>
		<g>
			
				<rect x="2061" y="1201.7" transform="matrix(-1 -1.224647e-16 1.224647e-16 -1 4391.1748 2795.666)" class="st10" width="269.1" height="392.3"/>
		</g>
		<g>
			<g>
				<g>
					<path class="st9" d="M2075.5,1212.8h240.2v359.5h-240.2V1212.8z M2313.1,1215.4h-235v354.3h235V1215.4z"/>
				</g>
			</g>
			<g>
				<g>
					<rect x="2076.8" y="1331.7" class="st9" width="237.6" height="2.6"/>
				</g>
			</g>
			<g>
				<g>
					<rect x="2076.8" y="1453" class="st9" width="237.6" height="2.6"/>
				</g>
			</g>
			<g>
				<path class="st9" d="M2171.2,1236h44.1c2.1,0,3.9-1.8,3.9-3.9l0,0c0-2.1-1.8-3.9-3.9-3.9h-44.1c-2.1,0-3.9,1.8-3.9,3.9l0,0
					C2167.3,1234.2,2169.1,1236,2171.2,1236z"/>
			</g>
			<g>
				<path class="st9" d="M2171.2,1354.5h44.1c2.1,0,3.9-1.8,3.9-3.9l0,0c0-2.1-1.8-3.9-3.9-3.9h-44.1c-2.1,0-3.9,1.8-3.9,3.9l0,0
					C2167.3,1352.8,2169.1,1354.5,2171.2,1354.5z"/>
			</g>
			<g>
				<path class="st9" d="M2171.2,1478.1h44.1c2.1,0,3.9-1.8,3.9-3.9l0,0c0-2.1-1.8-3.9-3.9-3.9h-44.1c-2.1,0-3.9,1.8-3.9,3.9l0,0
					C2167.3,1476.4,2169.1,1478.1,2171.2,1478.1z"/>
			</g>
		</g>
	</g>
	<g>
		<g>
			<path class="st11" d="M1987.5,466h-158c-7.3,0-13.2-5.9-13.2-13.2V300.3c0-7.3,5.9-13.2,13.2-13.2h158c7.3,0,13.2,5.9,13.2,13.2
				v152.5C2000.7,460,1994.7,466,1987.5,466z"/>
		</g>
		<g>
			<path class="st12" d="M1980.6,458.2h-144.3c-6.6,0-12-5.4-12-12V306.9c0-6.6,5.4-12,12-12h144.3c6.6,0,12,5.4,12,12v139.2
				C1992.7,452.8,1987.3,458.2,1980.6,458.2z"/>
		</g>
		<g>
			<g>
				<g>
					<circle class="st13" cx="1908.5" cy="311.2" r="3.8"/>
				</g>
				<g>
					
						<ellipse transform="matrix(0.4858 -0.8741 0.8741 0.4858 718.5429 1858.4082)" class="st13" cx="1938.8" cy="318.5" rx="3.8" ry="3.8"/>
				</g>
				<g>
					
						<ellipse transform="matrix(0.8403 -0.5422 0.5422 0.8403 128.9466 1119.2648)" class="st13" cx="1964" cy="340.8" rx="3.8" ry="3.8"/>
				</g>
				<g>
					<circle class="st13" cx="1975" cy="373.9" r="3.8"/>
				</g>
				<g>
					
						<ellipse transform="matrix(0.707 -0.7072 0.7072 0.707 285.6549 1510.3241)" class="st13" cx="1965.6" cy="410.4" rx="3.8" ry="3.8"/>
				</g>
				<g>
					
						<ellipse transform="matrix(0.7071 -0.7071 0.7071 0.7071 261.4716 1500.1616)" class="st13" cx="1941.6" cy="434.5" rx="3.8" ry="3.8"/>
				</g>
				<g>
					<circle class="st13" cx="1908.5" cy="444.1" r="3.8"/>
				</g>
			</g>
			<g>
				<g>
					
						<ellipse transform="matrix(0.8741 -0.4857 0.4857 0.8741 81.7312 952.3027)" class="st13" cx="1878.1" cy="318.5" rx="3.8" ry="3.8"/>
				</g>
				<g>
					
						<ellipse transform="matrix(0.542 -0.8404 0.8404 0.542 562.2459 1713.252)" class="st13" cx="1852.9" cy="340.8" rx="3.8" ry="3.8"/>
				</g>
				<g>
					<circle class="st13" cx="1841.9" cy="373.9" r="3.8"/>
				</g>
				<g>
					
						<ellipse transform="matrix(0.7071 -0.7071 0.7071 0.7071 251.9797 1429.2004)" class="st13" cx="1851.3" cy="410.4" rx="3.8" ry="3.8"/>
				</g>
				<g>
					
						<ellipse transform="matrix(0.7071 -0.7071 0.7071 0.7071 242.0609 1453.2843)" class="st13" cx="1875.3" cy="434.5" rx="3.8" ry="3.8"/>
				</g>
			</g>
		</g>
		<g>
			<g>
				<circle class="st13" cx="1911.3" cy="373.9" r="3.8"/>
			</g>
			<g>
				<g>
					<rect x="1910.8" y="326.2" class="st13" width="1" height="47.7"/>
				</g>
			</g>
			<g>
				<g>
					
						<rect x="1907.4" y="362.3" transform="matrix(0.7866 -0.6175 0.6175 0.7866 185.8171 1265.3701)" class="st13" width="32.1" height="3.1"/>
				</g>
			</g>
		</g>
	</g>
	<g>
		<g>
			<g>
				<path class="st9" d="M541,1330.2c0,0,42.3-49.4,2.6-80.7c0,0-29-17.6-52.7-16.1c0,0,33.5,56.2,22.7,61.8
					c-10.8,5.6-32.8-65.3-32.8-65.3s-66-6.4-87.2,3.8c0,0,56.4,46.2,44.5,48.9c-11.9,2.7-72.8-42.6-72.8-42.6s-61.4,10.5-58.2,47.9
					c3.3,37.5,24.4,49,33.7,48.1c9.3-1,63.7-21.8,64.9-14.1c1.2,7.6-31.6,32.5-54.5,33.7c0,0,43.3,47.8,72.1,34
					c28.8-13.8,31.2-35.6,49.2-43.8c17.9-8.2,33.3-8.2,25.9,0.2c-7.4,8.4-39.9,16.5-50.1,34.6c-10.3,18.2-19.5,30.4,10.3,25.9
					c29.8-4.5,78.2-26.3,80.3-51.2S541,1330.2,541,1330.2z"/>
			</g>
			<g>
				<g>
					<path class="st9" d="M337.3,1288.9c0,0,166.9-6.4,203.7,41.3c0,0,8.1,24.4,33.2,46.6l3.9,10.7c0,0-28.9-30.5-39.3-32.3
						C538.9,1355.2,555.1,1296,337.3,1288.9z"/>
				</g>
				<g>
					<path class="st9" d="M574.3,1376.8c0,0,35.8,26.5,38.3,73.8l-6.5,0.6c0,0-11.4-48.9-32.1-68.1S574.3,1376.8,574.3,1376.8z"/>
				</g>
			</g>
		</g>
		<g>
			<g>
				<path class="st14" d="M689,1268.1c0,0-67.3-37.7-35.9-88.9c0,0,25.1-31.4,52.1-39.5c0,0-14.4,76.3,0,78.1
					c14.4,1.8,9.9-86.2,9.9-86.2s70.9-34.1,98.7-31.4c0,0-44,74.5-29.6,72.7c14.4-1.8,63.7-77.2,63.7-77.2s72.7-13.5,84.4,29.6
					c11.7,43.1-7.2,64.6-18,67.3c-10.8,2.7-79.9,1.8-78.1,10.8c1.8,9,48.5,23.3,74.5,15.3c0,0-28.7,70.9-66.4,67.3
					c-37.7-3.6-49.4-26.9-72.7-28.7c-23.3-1.8-40.4,4.5-28.7,10.8c11.7,6.3,51.2,2.1,70,18.1c18.8,16,34.1,25.9-0.9,33.1
					c-35,7.2-97.8,2.7-110.4-24.2C689,1268.1,689,1268.1,689,1268.1z"/>
			</g>
			<g>
				<g>
					<path class="st14" d="M899.1,1138.9c0,0-188.5,61-210,129.3c0,0,0.9,30.5-18,65.5v13.5c0,0,19.7-45.8,30.5-52.1
						C701.6,1295,659.4,1235.8,899.1,1138.9z"/>
				</g>
				<g>
					<path class="st14" d="M671.1,1333.6c0,0-29.1,44.1-12.5,97.9l7.5-2c0,0-7.3-59.2,7.9-89
						C689.2,1310.8,671.1,1333.6,671.1,1333.6z"/>
				</g>
			</g>
		</g>
		<g>
			<g>
				<path class="st10" d="M581.9,1216.1c0,0,88.7-49.7,47.3-117.1c0,0-33.1-41.4-68.6-52.1c0,0,18.9,100.6,0,102.9
					c-18.9,2.4-13-113.6-13-113.6s-93.5-45-130.2-41.4c0,0,58,98.2,39,95.8c-18.9-2.4-84-101.8-84-101.8s-95.8-17.7-111.2,39
					c-15.4,56.8,9.5,85.2,23.7,88.7c14.2,3.5,105.3,2.4,102.9,14.2c-2.4,11.8-63.9,30.8-98.2,20.1c0,0,37.9,93.5,87.6,88.7
					c49.7-4.7,65.1-35.5,95.8-37.9c30.8-2.4,53.2,5.9,37.9,14.2c-15.4,8.3-67.4,2.7-92.3,23.8c-24.8,21.1-45,34.1,1.2,43.6
					c46.1,9.5,129,3.5,145.5-31.9C581.9,1216.1,581.9,1216.1,581.9,1216.1z"/>
			</g>
			<g>
				<g>
					<path class="st10" d="M305,1045.7c0,0,248.5,80.5,276.9,170.4c0,0-1.2,40.2,23.7,86.4v17.7c0,0-26-60.3-40.2-68.6
						C565.3,1251.6,621,1173.5,305,1045.7z"/>
				</g>
				<g>
					<path class="st10" d="M605.6,1302.5c0,0,38.3,58.2,16.5,129l-9.9-2.6c0,0,9.6-78-10.5-117.3
						C581.7,1272.4,605.6,1302.5,605.6,1302.5z"/>
				</g>
			</g>
		</g>
		<g>
			<path class="st9" d="M584.9,1585.1c-96,0-173.8-77.8-173.8-173.8h347.7C758.7,1507.3,680.9,1585.1,584.9,1585.1z"/>
		</g>
		<g>
			<path class="st9" d="M408.7,1594h352.5l0,0c0-11.8-9.6-21.4-21.4-21.4H430.1C418.3,1572.5,408.7,1582.1,408.7,1594L408.7,1594z"
				/>
		</g>
		<g>
			
				<rect x="407.1" y="1411.3" transform="matrix(-1 -1.224647e-16 1.224647e-16 -1 1171.5692 2827.9043)" class="st10" width="357.3" height="5.3"/>
		</g>
	</g>
	<g>
		<g>
			<path class="st0" d="M943,1567.6c-0.6,1.5-1.7,9.6-4.2,16.4l0,0c-1.5,4.1-3.4,7.7-6,9.1c-6.9,3.8-19.3-1.2-19.3-1.2
				s-20.5,3.6-22.5,2.8c-2.1-0.8-6-31.6-6-31.6s15-17.6,16.4-18.2c1.4-0.6,13.5,4.9,15.5,4.8c2-0.1,13.3-8.5,16.5-6.8
				C936.7,1544.6,944,1565.2,943,1567.6z"/>
		</g>
		<g>
			<path class="st6" d="M916.9,1549.6c0,0-3.1,8.3-4,9.1c-1,0.8-11.5-13.9-11.5-13.9C902.8,1544.3,914.9,1549.8,916.9,1549.6z"/>
		</g>
		<g>
			<path class="st6" d="M933.7,1550.9c0,0-13.8,14.5-13.5,15.7c0.3,1.3,16.5,9.3,17,9c0.6-0.4-4-10.4-3.9-12.2
				C933.4,1561.7,933.7,1550.9,933.7,1550.9z"/>
		</g>
		<g>
			<path class="st6" d="M943,1567.6c-0.6,1.5-1.7,9.6-4.2,16.4l0,0l0,0l0.8-15.2l-6.2-25.9C936.7,1544.6,944,1565.2,943,1567.6z"/>
		</g>
		<g>
			<path class="st6" d="M913.5,1591.9c0,0-20.5,3.6-22.5,2.8c-2.1-0.8-6-31.6-6-31.6s5.5,15.6,5.6,16.4c0.1,0.8,6.4-1.3,6.4-1.3
				L913.5,1591.9z"/>
		</g>
		<g>
			<polygon class="st6" points="890.4,1562.7 893.2,1570.8 897.9,1570.5 894.2,1567.3 			"/>
		</g>
	</g>
	<g>
		<g>
			<path class="st0" d="M1390,1567.6c-0.6,1.5-1.7,9.6-4.2,16.4l0,0c-1.5,4.1-3.4,7.7-6,9.1c-6.9,3.8-19.3-1.2-19.3-1.2
				s-20.5,3.6-22.5,2.8s-6-31.6-6-31.6s15-17.6,16.4-18.2c1.4-0.6,13.5,4.9,15.5,4.8c2-0.1,13.3-8.5,16.5-6.8
				C1383.7,1544.6,1391,1565.2,1390,1567.6z"/>
		</g>
		<g>
			<path class="st6" d="M1363.9,1549.6c0,0-3.1,8.3-4,9.1c-1,0.8-11.5-13.9-11.5-13.9C1349.8,1544.3,1361.9,1549.8,1363.9,1549.6z"
				/>
		</g>
		<g>
			<path class="st6" d="M1380.7,1550.9c0,0-13.8,14.5-13.5,15.7c0.3,1.3,16.5,9.3,17,9c0.6-0.4-4-10.4-3.9-12.2
				C1380.4,1561.7,1380.7,1550.9,1380.7,1550.9z"/>
		</g>
		<g>
			<path class="st6" d="M1390,1567.6c-0.6,1.5-1.7,9.6-4.2,16.4l0,0l0,0l0.8-15.2l-6.2-25.9C1383.7,1544.6,1391,1565.2,1390,1567.6z
				"/>
		</g>
		<g>
			<path class="st6" d="M1360.5,1591.9c0,0-20.5,3.6-22.5,2.8s-6-31.6-6-31.6s5.5,15.6,5.6,16.4c0.1,0.8,6.4-1.3,6.4-1.3
				L1360.5,1591.9z"/>
		</g>
		<g>
			<polygon class="st6" points="1337.4,1562.7 1340.2,1570.8 1344.9,1570.5 1341.2,1567.3 			"/>
		</g>
	</g>
	<g>
		<g>
			<path class="st0" d="M2181.8,1563.7c-0.8,1.7-2.7,11-6,18.7v0c-2,4.6-4.5,8.6-7.6,10.1c-8.3,3.9-22.3-2.8-22.3-2.8
				s-24,2.8-26.3,1.7s-4.7-37.1-4.7-37.1s18.7-19.4,20.3-20c1.7-0.6,15.3,6.7,17.7,6.7c2.3,0,16-8.9,19.7-6.7
				C2176.1,1536.6,2183.1,1561,2181.8,1563.7z"/>
		</g>
		<g>
			<path class="st6" d="M2152.8,1541c0,0-4.2,9.4-5.3,10.3s-12.3-16.9-12.3-16.9C2136.8,1533.8,2150.4,1541,2152.8,1541z"/>
		</g>
		<g>
			<path class="st6" d="M2172.2,1543.7c0,0-17.1,15.8-16.8,17.3c0.2,1.5,18.5,12,19.1,11.6c0.7-0.4-3.9-12.4-3.7-14.4
				C2171,1556.2,2172.2,1543.7,2172.2,1543.7z"/>
		</g>
		<g>
			<path class="st6" d="M2181.8,1563.7c-0.8,1.7-2.7,11-6,18.7v0h0l2-17.6l-5.3-30.5C2176.1,1536.6,2183.1,1561,2181.8,1563.7z"/>
		</g>
		<g>
			<path class="st6" d="M2145.8,1589.8c0,0-24,2.8-26.3,1.7s-4.7-37.1-4.7-37.1s5.2,18.5,5.3,19.4c0.1,0.9,7.5-1.1,7.5-1.1
				L2145.8,1589.8z"/>
		</g>
		<g>
			<polygon class="st6" points="2121,1554.3 2123.7,1563.9 2129.2,1563.9 2125.1,1559.9 			"/>
		</g>
	</g>
	<g>
		<g>
			<path class="st0" d="M2119.9,1155.9c-0.6,1.2-1.7,7.7-3.9,13.1l0,0c-1.4,3.3-3.2,6.2-5.6,7.3c-6.4,3.1-17.7-0.8-17.7-0.8
				s-18.8,3.1-20.7,2.4c-1.9-0.6-5.3-25.2-5.3-25.2s13.9-14.2,15.2-14.7c1.3-0.5,12.4,3.8,14.2,3.7c1.8-0.1,12.2-6.9,15.2-5.6
				C2114.3,1137.6,2120.8,1153.9,2119.9,1155.9z"/>
		</g>
		<g>
			<path class="st15" d="M2096.1,1141.8c0,0-2.9,6.7-3.8,7.3s-10.5-11-10.5-11C2083.1,1137.6,2094.2,1141.9,2096.1,1141.8z"/>
		</g>
		<g>
			<path class="st16" d="M2111.5,1142.6c0,0-12.8,11.7-12.5,12.7c0.2,1,15.1,7.3,15.6,7c0.5-0.3-3.6-8.3-3.5-9.7
				C2111.1,1151.2,2111.5,1142.6,2111.5,1142.6z"/>
		</g>
		<g>
			<path class="st15" d="M2119.9,1155.9c-0.6,1.2-1.7,7.7-3.9,13.1l0,0l0,0l0.8-12.2l-5.5-20.7
				C2114.3,1137.6,2120.8,1153.9,2119.9,1155.9z"/>
		</g>
		<g>
			<path class="st16" d="M2092.7,1175.6c0,0-18.8,3.1-20.7,2.4c-1.9-0.6-5.3-25.2-5.3-25.2s4.9,12.4,5,13c0.1,0.6,5.9-1.1,5.9-1.1
				L2092.7,1175.6z"/>
		</g>
		<g>
			<polygon class="st16" points="2071.6,1152.5 2074.1,1158.9 2078.5,1158.6 2075.1,1156.1 			"/>
		</g>
	</g>
	<g>
		<g>
			<path class="st17" d="M1101.1,1422.8c0,0,14.4,38.5,11.3,52.8c-3.1,14.3,1.9,41.9-4,54.3s-16.3,30.4-6.3,34.9
				c3.8,1.7,48-32.6,50.5-42.7c2.5-10.1,4.5-40,13-56.2c8.5-16.2,1.4-29.3-10.9-35.2c-12.2-6-29.3-38.6-29.3-38.6L1101.1,1422.8z"/>
		</g>
		<g>
			<g>
				<g>
					<path class="st9" d="M1233.1,1595.4l-0.6,0c-5.3-0.1-9.3-4.4-8.8-9.3l35.1-350.2l30.6,2.7l-50.3,352
						C1238.5,1593.4,1236,1595.4,1233.1,1595.4z"/>
				</g>
			</g>
			<g>
				<g>
					<path class="st9" d="M1570.7,1595.4l0.6,0c5.3-0.1,9.3-4.4,8.8-9.3l-35.1-350.2l-30.6,2.7l50.3,352
						C1565.2,1593.4,1567.7,1595.4,1570.7,1595.4z"/>
				</g>
			</g>
			<g>
				<g>
					<path class="st9" d="M985.7,1595.4l-0.6,0c-5.3-0.1-9.3-4.4-8.8-9.3l35.1-350.2l30.6,2.7l-50.3,352
						C991.2,1593.4,988.7,1595.4,985.7,1595.4z"/>
				</g>
			</g>
			<g>
				<path class="st10" d="M1560.2,1185l62.2-307.3c8-41.6-26.5-79.7-71.3-78.6l-120,2.7c-41.4,0.9-77.4,28.7-88.9,68.4l-91.1,314.8
					H1560.2z"/>
			</g>
			<g>
				<path class="st9" d="M1522.6,1185l62.2-307.3c8-41.6-26.5-79.7-71.3-78.6l-120,2.7c-41.4,0.9-77.4,28.7-88.9,68.4l-91.1,314.8
					H1522.6z"/>
			</g>
			<g>
				<path class="st10" d="M1542.9,1241H1068c-9.5,0-17.3-7.8-17.3-17.3v-21.4c0-9.5,7.8-17.3,17.3-17.3h492.2v38.7
					C1560.2,1233.2,1552.4,1241,1542.9,1241z"/>
			</g>
			<g>
				<path class="st9" d="M1320,1241h-302.7c-7.7,0-14-6.3-14-14v-28.1c0-7.7,6.3-14,14-14H1320c7.7,0,14,6.3,14,14v28.1
					C1334,1234.7,1327.7,1241,1320,1241z"/>
			</g>
		</g>
		<g>
			<path class="st18" d="M1339.7,1059.2c0,0-252.5-4-286.2,17.4c-33.7,21.4,33.7,363.5,33.7,363.5s65.3,2.1,70.5-15.2
				c0,0-11.7-160.3-1.5-188c10.3-27.7,3.9-66.1,3.9-66.1s127.7,19.5,168.3,9.9C1369,1171.2,1339.7,1059.2,1339.7,1059.2z"/>
		</g>
		<g>
			<path class="st19" d="M1058.2,1482.5c0,0-13.8,38.7-25.4,47.6c-11.5,8.9-25.6,33.3-38.1,38.9c-12.4,5.7-32,12.7-27.3,22.6
				c1.8,3.8,57.7,6.1,66.2,0c8.5-6.1,29.2-27.6,46.2-34.6c16.9-6.9,19.9-21.5,14.4-33.9s2.5-48.4,2.5-48.4L1058.2,1482.5z"/>
		</g>
		<g>
			<path class="st20" d="M1482.9,1050.2c0,0-299.6,46.9-322.7,73.5c-23.1,26.7-114.5,373.9-114.5,373.9s26.7,15,51,1.1
				c0,0,69.6-117.7,100.4-154.6s42.5-151.2,47.6-152.3c5.1-1.2,166.3,19.5,225.7-19.8C1505.4,1148.9,1482.9,1050.2,1482.9,1050.2z"
				/>
		</g>
		<g>
			<g>
				<path class="st21" d="M1204.6,985.9c0,0-10.6,0.8-18.1-3.9c-2.5-1.6-20.1-7.7-28.2-4c-8.1,3.6-25,16.1-20.4,19.8
					c4.6,3.7,19.6,1.5,23.3,0.3c3.7-1.2,9.9,7.9,16.5,7.4c6.6-0.5,16-4.1,30-1.9c14,2.2,11.6-17.9,9.6-19.7
					S1204.6,985.9,1204.6,985.9z"/>
			</g>
			<g>
				<path class="st21" d="M1189.8,984.6c0,0-12-9.7-15.8-13.2c-3.8-3.5-5.1-3-5.6-0.8c-0.4,2.2,9,9.6,6.1,15.6
					C1171.7,992.3,1191.2,988.5,1189.8,984.6z"/>
			</g>
		</g>
		<g>
			<g>
				<path class="st19" d="M1462.6,893.3l-0.8-1.4c14.7-8.1,26-17.6,33.3-28.2c5.9-8.4,9.3-17.6,10.3-27.3
					c1.6-16.5-4.6-28.7-4.7-28.9l0-1.7c0.3,0.5,9.4,13.3,7.7,30.3c-1,9.9-4.6,20-10.6,28.7C1490.2,875.6,1477.5,885.1,1462.6,893.3z
					"/>
			</g>
		</g>
		<g>
			<path class="st21" d="M1210.4,713.6c0,0,4.2-10.7,4.7-13.4c0.5-2.7-4.2-19.9,0.9-26.3s20-18.9,22.2-13.9c2.3,5-2.9,18-4.8,21
				c-1.9,3,4.9,10.7,3,16.5c-1.9,5.8-9.5,15-10.6,28c-1.1,13-16.3,5-17.4,2.8C1207.3,726,1210.4,713.6,1210.4,713.6z"/>
		</g>
		<g>
			<path class="st19" d="M1263.5,626.3c25.5-8.7,33.2-7.4,49.2-7.7c23.4-0.5,48.8-10,61.1,15c18.6,37.8,30.9,7.8,72.6,25.1
				c41.7,17.3,22.6,54.2,18.3,64.6c-19.2,45.4,31,63.8,39.4,89.7c8.5,25.9-22.4,72.2-62.3,72.8c-39.9,0.6-224.9-22.2-207.2-84.2
				c17.7-62-14.9-95.7-17.6-111.8C1213.5,669.2,1227.4,638.7,1263.5,626.3z"/>
		</g>
		<g>
			<path class="st22" d="M1494.8,1075.1c-23.9,3.3-46.1,6.5-66.7,9.5c-41.1,5.9-114.3-3-114.6-13c-0.5-16.4,5.2-33.8,6.4-50.1
				c0.6-7.8,0.1-15.3-2.5-22.4c-0.9-2.4-2-5.1-3.3-8.2c-2.6-6.2-5.7-13.5-8.9-21.4c-1.8-4.5-3.6-9.1-5.3-13.8
				c-0.8-2.1-1.5-4.2-2.2-6.3c-0.2-0.5-0.3-0.9-0.5-1.4c-0.5-1.5-1-3.1-1.5-4.6c-0.4-1.5-0.9-2.9-1.3-4.4
				c-1.4-5.2-2.6-10.3-3.4-15.2c-0.6-3.9-0.9-7.6-0.9-11.1c0.1-15.7-8.4-20.2-18.7-21.7c-4.6-0.7-9.5-0.8-14.3-1c0,0,0,0,0,0
				c-3.8-0.2-7.4-0.4-10.7-1.1c-6.9-1.5-14.2-39.7-5.2-59.3c2.8-6,7.1-10.3,13.5-11.1l0.1,0c11.5-1.5,29.8-5.2,45.4-10.9
				c4-1.5,56.4-17.5,59.7-17.8c27.7-2.8,52.6-5.6,78.3,14.5C1500.9,853.3,1495,1074.7,1494.8,1075.1z"/>
		</g>
		<g>
			<g>
				<path class="st19" d="M1225.4,708.6c-4.9-4.2-15.3-14-15.8-26.9c-0.4-11.1,5.1-22.6,16.5-34c18.1-18.1,36.3-26.1,48.4-29.6
					c13.1-3.8,38.2,1.9,38.6,1.9l-8,2c-12.9-5-43.8-7.8-77.8,26.9c-10.9,11.1-15.4,20.2-14.9,30.9c0.5,12.3,8.1,18.8,12.8,22.8
					c0.2,0.2,6.3,1.7,6.3,1.7S1225.5,708.7,1225.4,708.6z"/>
			</g>
		</g>
		<g>
			<g>
				<path class="st21" d="M1331.8,823.4c-23.3,6-26.5-1.9-29.7-10.4c-1.3-3.5-3.1-9.8-5.2-17.2c-0.9-3.1-1.8-6.5-2.8-9.9
					c-1.9-6.7-4.1-13.5-5.9-18.8c-1.9-5.8-3.4-9.7-3.4-9.7l44.5-22.7l2.6-1.3c10.3,36.7,25.4,50.5,28.1,56.4
					C1365.7,802.3,1347,819.5,1331.8,823.4z"/>
			</g>
			<g>
				<path class="st23" d="M1333.3,751.5c-1.9,14.9-10.6,36-36.4,44.4c-0.9-3.1-1.8-6.5-2.8-9.9c-1.9-6.7-4.1-13.5-5.9-18.8
					L1333.3,751.5z"/>
			</g>
		</g>
		<g>
			<path class="st21" d="M1284.9,787.5c0,0,62.4-17.9,50.6-56.5c-11.7-38.7-11.6-67-51.9-57.3c-40.3,9.8-43.5,26.9-42.8,40.7
				C1241.7,728.3,1268.4,791.2,1284.9,787.5z"/>
		</g>
		<g>
			<path class="st19" d="M1278.2,684.8c-17.4,9.7-20.4,26.3-39.4,28.4c-15.6,1.8-23.4-41.4,9.1-58.1c39.4-20.3,34.3-34.8,51.3-36.4
				c28.1-2.6,48.5,90.8,46.9,92.7c-1.5,1.9-8.3,15.9-8.3,15.9s-10.5-6.4-9.6-10.5c2.8-12.9-7.2-24.3-15.5-14.5
				C1305.9,710.5,1290.6,677.8,1278.2,684.8z"/>
		</g>
		<g>
			<path class="st22" d="M1231.5,746.2c0,0-5.4,17.3-15.1,41.5c0,0,0,0,0,0c-3.2,8.1-7,16.9-11.2,26.2c-1.6,3.5-3.1,6.8-4.6,9.8
				c0,0.1-0.1,0.2-0.1,0.3c-14.4,29-25.7,38.5-38.9,40.7c-5.5,0.9-11,1.4-15.5,0c-7.4-2.2-12.5-9.3-11.4-27.2
				c1.7-28.9,77.7-129.2,77.7-129.2c6.4,1.8,10.7,8.3,13.6,15.3C1230.3,734.3,1231.5,746.2,1231.5,746.2z"/>
		</g>
		<g>
			<path class="st22" d="M1289.3,815.1c0,0-112.3,11.3-127.1,12.6c-14.8,1.3-18.3,36.2-18.3,36.2s70.9,28.1,144,27.5
				C1360.9,890.8,1289.3,815.1,1289.3,815.1z"/>
		</g>
		<g>
			<g>
				<path class="st19" d="M1472,685c-3.3-15.6-13-31.3-27.6-36.7c-11.1-4.1-25.7-5.1-42.2-2.9c-7.9,1.1-14.9-0.7-20.9-5.1
					c-4.3-3.3-8.9-9.5-9.1-9.8l0,0l1.9,5.3c-2.5,3.8,0.7,4.1,5.5,7.7l0,0c4.4,3.3,12.2,5.3,22.8,3.9c16.1-2.2,28.3-0.7,39.1,3.3
					c11.7,4.3,20.2,11.2,24.6,22.1c0,0,0,0,0,0c0.8,2.1,1.5,4.3,2,6.7l3.7,5.2l0,0l0,0L1472,685z"/>
			</g>
		</g>
		<g>
			<path class="st24" d="M1216.4,787.7c-3.2,8.1-7,16.9-11.2,26.2c-1.6,3.5-3.1,6.8-4.6,9.8c-0.5,0.2-0.9,0.3-1.4,0.4c0,0,0,0,0,0
				c-3.5,0.8-6.2,1-8.1,0.8c-7.3-0.7-5.1-6.9,0.7-10.9C1199,809,1216.1,788.1,1216.4,787.7z"/>
		</g>
		<g>
			<path class="st24" d="M1422.1,917.6c0,0-35.7,92.3-102.2,103.9c0.6-7.8,0.1-15.3-2.5-22.4c-0.9-2.4-2-5.1-3.3-8.2
				c3.9-1.9,6.6-3,6.6-3L1422.1,917.6z"/>
		</g>
		<g>
			<path class="st24" d="M1366.1,883.5l-32.8,86.1h-28.1l0,0c-1.8-4.5-3.6-9.1-5.3-13.8c-0.8-2.1-1.5-4.2-2.2-6.3
				c-0.2-0.5-0.3-0.9-0.5-1.4C1316.6,941.6,1350.6,907.4,1366.1,883.5z"/>
		</g>
		<g>
			<path class="st22" d="M1412.1,815.1c0,0-78.9,126.4-112.3,140.6c-19,8.1-104.6,26.5-104.6,26.5l1.7,19c0,0,122.6,4.5,136.2,0
				c40.1-13.2,105.1-100.6,105.1-100.6L1412.1,815.1z"/>
		</g>
	</g>
	<g>
		<g>
			<g>
				<rect x="341.3" y="1163.5" class="st25" width="60.3" height="204.1"/>
			</g>
			<g>
				<rect x="401.6" y="1163.5" class="st26" width="145.5" height="204.1"/>
			</g>
			<g>
				<ellipse class="st27" cx="371.4" cy="1189" rx="10.1" ry="10.6"/>
			</g>
			<g>
				<ellipse class="st28" cx="371.4" cy="1189" rx="7.1" ry="7.5"/>
			</g>
			<g>
				<rect x="357.5" y="1214.5" class="st7" width="28.4" height="53.8"/>
			</g>
		</g>
		<g>
			<rect x="472.5" y="1294.1" class="st29" width="114" height="38.5"/>
		</g>
		<g>
			<rect x="586.5" y="1294.1" class="st30" width="114" height="38.5"/>
		</g>
		<g>
			<g>
				<rect x="472.5" y="1313" class="st7" width="28.4" height="0.8"/>
			</g>
		</g>
		<g>
			<g>
				<rect x="507.9" y="1301.1" class="st7" width="78.6" height="0.8"/>
			</g>
		</g>
		<g>
			<g>
				<rect x="472.5" y="1323.4" class="st7" width="50.3" height="0.8"/>
			</g>
		</g>
		<g>
			<rect x="437.1" y="1255.6" class="st31" width="114" height="38.5"/>
		</g>
		<g>
			<rect x="551.1" y="1255.6" class="st32" width="114" height="38.5"/>
		</g>
		<g>
			<g>
				<rect x="437.1" y="1274.4" class="st7" width="28.4" height="0.8"/>
			</g>
		</g>
		<g>
			<g>
				<rect x="472.5" y="1262.6" class="st7" width="78.6" height="0.8"/>
			</g>
		</g>
		<g>
			<g>
				<rect x="437.1" y="1284.8" class="st7" width="50.3" height="0.8"/>
			</g>
		</g>
		<g>
			<rect x="500.9" y="1146.9" class="st14" width="114" height="38.5"/>
		</g>
		<g>
			<rect x="614.9" y="1146.9" class="st30" width="114" height="38.5"/>
		</g>
		<g>
			<g>
				<rect x="500.9" y="1165.8" class="st7" width="28.4" height="0.8"/>
			</g>
		</g>
		<g>
			<g>
				<rect x="536.3" y="1153.9" class="st7" width="78.6" height="0.8"/>
			</g>
		</g>
		<g>
			<g>
				<rect x="500.9" y="1175.6" class="st7" width="50.3" height="0.8"/>
			</g>
		</g>
		<g>
			<rect x="465.6" y="1108.4" class="st33" width="114" height="38.5"/>
		</g>
		<g>
			<rect x="579.6" y="1108.4" class="st34" width="114" height="38.5"/>
		</g>
		<g>
			<g>
				<rect x="465.6" y="1127.3" class="st7" width="28.4" height="0.8"/>
			</g>
		</g>
		<g>
			<g>
				<rect x="573.7" y="1127.3" class="st7" width="28.4" height="0.8"/>
			</g>
		</g>
		<g>
			<g>
				<rect x="563.2" y="1115.4" class="st7" width="78.6" height="0.8"/>
			</g>
		</g>
		<g>
			<g>
				<rect x="465.6" y="1137.6" class="st7" width="50.3" height="0.8"/>
			</g>
		</g>
		<g>
			
				<rect x="594" y="1185.4" transform="matrix(-1 -1.224647e-16 1.224647e-16 -1 1301.9578 2441.0156)" class="st34" width="114" height="70.2"/>
		</g>
		<g>
			
				<rect x="480" y="1185.4" transform="matrix(-1 -1.224647e-16 1.224647e-16 -1 1073.9841 2441.0156)" class="st33" width="114" height="70.2"/>
		</g>
		<g>
			<g>
				<rect x="679.5" y="1219.9" class="st7" width="28.4" height="1.1"/>
			</g>
		</g>
		<g>
			<rect x="515.9" y="1198.6" class="st25" width="156.7" height="0.6"/>
		</g>
		<g>
			<g>
				<rect x="657.7" y="1238.8" class="st7" width="50.3" height="1.1"/>
			</g>
		</g>
		<g>
			<rect x="560.9" y="1211.2" class="st25" width="54" height="0.6"/>
		</g>
		<g>
			<g>
				<rect x="385" y="1332.8" class="st35" width="335.6" height="260.1"/>
			</g>
			<g>
				<rect x="274.7" y="1332.8" class="st36" width="266.1" height="260.1"/>
			</g>
			<g>
				<path class="st26" d="M426.8,1375.3h-68.6c-4.4,0-7.9-3.6-7.9-7.9v-1.4c0-4.4,3.6-7.9,7.9-7.9h68.6c4.4,0,7.9,3.6,7.9,7.9v1.4
					C434.8,1371.7,431.2,1375.3,426.8,1375.3z"/>
			</g>
		</g>
		<g>
			<g>
				<polygon class="st37" points="436.9,1492.8 374.1,1481.2 385.1,1415.3 448,1426.9 				"/>
			</g>
			<g>
				<polygon class="st7" points="446.2,1437.5 383.4,1425.9 385.1,1415.3 448,1426.9 				"/>
			</g>
		</g>
		<g>
			<g>
				<polygon class="st38" points="528.6,1426.8 466.9,1443.8 450.7,1379.1 512.4,1362.1 				"/>
			</g>
			<g>
				<polygon class="st39" points="515,1372.5 453.3,1389.5 450.7,1379.1 512.4,1362.1 				"/>
			</g>
		</g>
	</g>
	<g>
		<g>
			<g>
				<g>
					<rect x="1625" y="795" class="st40" width="279" height="206.1"/>
				</g>
				<g>
					<rect x="1533.2" y="795" class="st41" width="221.2" height="206.1"/>
				</g>
				<g>
					<path class="st25" d="M1659.9,828.7h-57.3c-3.5,0-6.5-2.9-6.5-6.5v-0.8c0-3.5,2.9-6.4,6.5-6.4h57.3c3.5,0,6.5,2.9,6.5,6.4v0.8
						C1666.3,825.8,1663.4,828.7,1659.9,828.7z"/>
				</g>
				<g>
					<rect x="1522.4" y="760" class="st42" width="232.1" height="45.4"/>
				</g>
				<g>
					<rect x="1754.4" y="760" class="st43" width="156.5" height="45.4"/>
				</g>
			</g>
			<g>
				<g>
					
						<rect x="1662.1" y="846.2" transform="matrix(0.9672 -0.2541 0.2541 0.9672 -168.5671 460.5762)" class="st36" width="73.4" height="73.4"/>
				</g>
				<g>
					
						<rect x="1654.3" y="847.2" transform="matrix(0.9672 -0.2541 0.2541 0.9672 -161.2656 457.6124)" class="st35" width="73.4" height="11.9"/>
				</g>
			</g>
		</g>
		<g>
			<g>
				<polygon class="st35" points="1676.8,667.4 1734.9,620.6 1821.3,631.1 1821.3,667.4 				"/>
			</g>
			<g>
				
					<rect x="1639.1" y="571.8" transform="matrix(-1.836970e-16 1 -1 -1.836970e-16 2306.7041 -1018.6963)" class="st36" width="47.3" height="144.5"/>
			</g>
			<g>
				<circle class="st27" cx="1716.9" cy="644.1" r="7.5"/>
			</g>
			<g>
				<circle class="st44" cx="1716.9" cy="644.1" r="4.2"/>
			</g>
			<g>
				
					<rect x="1666" y="621.9" transform="matrix(-1.836970e-16 1 -1 -1.836970e-16 2320.8105 -1032.248)" class="st34" width="21.1" height="44.7"/>
			</g>
		</g>
		<g>
			<g>
				<rect x="1599.1" y="713.8" class="st27" width="143.2" height="46.2"/>
			</g>
			<g>
				<g>
					<rect x="1742.3" y="713.8" class="st40" width="143.2" height="46.2"/>
				</g>
				<g>
					<g>
						<rect x="1599.1" y="736.4" class="st40" width="35.7" height="1"/>
					</g>
				</g>
				<g>
					<g>
						<rect x="1643.6" y="722.2" class="st40" width="98.7" height="1"/>
					</g>
				</g>
				<g>
					<g>
						<rect x="1599.1" y="748.8" class="st40" width="63.2" height="1"/>
					</g>
				</g>
			</g>
		</g>
		<g>
			<g>
				<rect x="1554.7" y="667.6" class="st45" width="143.2" height="46.2"/>
			</g>
			<g>
				<g>
					<rect x="1697.9" y="667.6" class="st46" width="143.2" height="46.2"/>
				</g>
				<g>
					<g>
						<rect x="1554.7" y="690.2" class="st7" width="35.7" height="1"/>
					</g>
				</g>
				<g>
					<g>
						<rect x="1599.2" y="676" class="st7" width="98.7" height="1"/>
					</g>
				</g>
				<g>
					<g>
						<rect x="1554.7" y="702.7" class="st7" width="63.2" height="1"/>
					</g>
				</g>
			</g>
		</g>
	</g>
	<g>
		<path class="st47" d="M2634.1,1605.4H190.9c-2,0-3.7-1.7-3.7-3.7v-4.1c0-2,1.7-3.7,3.7-3.7h2443.3c2,0,3.7,1.7,3.7,3.7v4.1
			C2637.8,1603.7,2636.1,1605.4,2634.1,1605.4z"/>
	</g>
	<g>
		<path class="st0" d="M2035.2,835.5c0,0,102.2-8.1,184.2-130.2l-62.6-135.6c0,0-83.6,108.4-153.8,116.8L2035.2,835.5z"/>
	</g>
	<g>
		<path class="st0" d="M1636.1,527.2c0,0-76.2-6.1-137.4-97.1l46.7-101.1c0,0,62.3,80.9,114.7,87.1L1636.1,527.2z"/>
	</g>
	<g>
		<path class="st0" d="M734.3,944.9c0,0-84.9-6.7-153.1-108.2l52-112.7c0,0,69.5,90.1,127.8,97L734.3,944.9z"/>
	</g>
	<g>
		<path class="st0" d="M1050.5,1383c0,0-28.3,70.3-132.5,101.2l-81.8-74.1c0,0,95-35,116.3-82.6L1050.5,1383z"/>
	</g>
	<g>
		<g>
			<path class="st48" d="M1098.2,1001.2h140.6l0,0c0-6.2-5-11.2-11.2-11.2h-129.4V1001.2z"/>
		</g>
		<g>
			<polygon class="st48" points="1098.6,848 881.2,848 933.3,1001.2 1152.1,1001.2 			"/>
		</g>
		<g>
			<polygon class="st19" points="878,848 930.1,1001.2 1148.9,1001.2 1095.4,848 			"/>
		</g>
		<g>
			<path class="st0" d="M995.2,923.2c1.4,5.9,7.2,10.6,13,10.6c5.9,0,9.5-4.7,8.1-10.6c-1.4-5.9-7.2-10.6-13-10.6
				C997.5,912.6,993.8,917.3,995.2,923.2z"/>
		</g>
	</g>
	<g>
		<g>
			<rect x="1443.3" y="959.3" class="st45" width="127.3" height="46.2"/>
		</g>
		<g>
			<g>
				<rect x="1570.6" y="959.3" class="st43" width="127.3" height="46.2"/>
			</g>
			<g>
				<g>
					<rect x="1443.3" y="981.9" class="st7" width="31.8" height="1"/>
				</g>
			</g>
			<g>
				<g>
					<rect x="1482.9" y="967.7" class="st7" width="87.7" height="1"/>
				</g>
			</g>
			<g>
				<g>
					<rect x="1443.3" y="994.3" class="st7" width="56.2" height="1"/>
				</g>
			</g>
		</g>
	</g>
	<g>
		<g>
			<rect x="1786.2" y="834.5" class="st4" width="51.7" height="166.7"/>
		</g>
		<g>
			<rect x="1837.9" y="834.5" class="st5" width="124.6" height="166.7"/>
		</g>
		<g>
			<circle class="st27" cx="1812.1" cy="855.3" r="8.6"/>
		</g>
		<g>
			<circle class="st28" cx="1812.1" cy="855.3" r="6.1"/>
		</g>
		<g>
			<rect x="1800.1" y="876.1" class="st7" width="24.3" height="43.9"/>
		</g>
	</g>
	<g>
		<g>
			<g>
				<g>
					<g>
						<polygon class="st43" points="842,989.1 847.8,989.1 847.8,889.3 788.5,738 894.4,656 890.9,651.4 781.6,736.1 842,890.4 
													"/>
					</g>
				</g>
				<g>
					<path class="st43" d="M906.4,666.4L906.4,666.4c2.7-1.9,3.3-5.6,1.4-8.2l-8.8-12.4c-1.9-2.7-5.6-3.3-8.2-1.4l0,0
						c-2.7,1.9-3.3,5.6-1.4,8.2l8.8,12.4C900,667.7,903.7,668.3,906.4,666.4z"/>
				</g>
				<g>
					<circle class="st43" cx="786.4" cy="736.3" r="7.7"/>
				</g>
			</g>
			<g>
				<g>
					<path class="st43" d="M816.8,1002.8h58.3v-5.9c0-5.9-4.8-10.7-10.7-10.7h-36.5c-6.2,0-11.1,5-11.1,11.1V1002.8z"/>
				</g>
				<g>
					
						<rect x="838.8" y="896.3" transform="matrix(-1 -1.224647e-16 1.224647e-16 -1 1689.9414 1885.4141)" class="st43" width="12.2" height="92.7"/>
				</g>
			</g>
		</g>
		<g>
			<g>
				<path class="st5" d="M893.2,752.5c0.3,0.3,0.6,0.6,0.8,0.9l0.1,0.1c0.3,0.3,0.5,0.6,0.8,0.9c7.9,6.9,34.2-5.4,59.6-28.1
					c25.4-22.7,40.5-47.4,34.6-56c-0.2-0.3-0.5-0.6-0.8-0.9l-0.1-0.1c-0.3-0.3-0.5-0.6-0.8-0.9c-23.3-26-63.2-28.2-89.2-5
					C872.2,686.5,870,726.5,893.2,752.5z"/>
			</g>
			<g>
				<path class="st49" d="M894.1,753.4L894.1,753.4c0.1,0.2,0.2,0.3,0.3,0.4c0.2,0.2,0.4,0.4,0.6,0.6c7.9,6.9,34.2-5.4,59.5-28.2
					c25.4-22.7,40.6-47.4,34.6-56c-0.2-0.2-0.3-0.4-0.5-0.6c-0.1-0.1-0.2-0.2-0.3-0.3l-0.1-0.1c-5.4-5.1-20-0.6-37.1,10.5
					c-7.3,4.7-15,10.6-22.6,17.4c-6,5.4-11.4,10.9-16.2,16.2C897,730.8,889.2,746.9,894.1,753.4z"/>
			</g>
			<g>
				<path class="st50" d="M912.4,713.3c4.5,3.7,10.2,5.9,16.5,5.9c14.4,0,26-11.7,26-26c0-4.9-1.4-9.6-3.8-13.5
					c-7.3,4.7-15,10.6-22.6,17.4C922.5,702.5,917.1,708,912.4,713.3z"/>
			</g>
		</g>
	</g>
	<g>
		<g>
			<path class="st51" d="M774.2,1035.6h1196.6c9.2,0,16.7-7.5,16.7-16.7v-1c0-9.2-7.5-16.7-16.7-16.7H774.2
				c-9.2,0-16.7,7.5-16.7,16.7v1C757.5,1028.1,765,1035.6,774.2,1035.6z"/>
		</g>
		<g>
			<g>
				<path class="st51" d="M779.8,1603.2l-0.4-0.1c-4.9-0.6-8.3-5-7.7-9.7l74.3-575l41.7,1.2l-99.9,577.8
					C787.2,1601.1,783.6,1603.6,779.8,1603.2z"/>
			</g>
		</g>
		<g>
			<g>
				<path class="st51" d="M1991.2,1603.2l0.4-0.1c4.9-0.6,8.3-5,7.7-9.7l-74.3-575l-41.7,1.2l99.9,577.8
					C1983.9,1601.1,1987.4,1603.6,1991.2,1603.2z"/>
			</g>
		</g>
	</g>
</g>
<g>
	<g>
		<path class="st52" d="M2098.5,1426.9c4.3-0.7,7-5.8,6-11.3l-141.4-825.4c-0.9-5.5-5.2-9.4-9.4-8.6c-4.3,0.7-7,5.8-6,11.3
			l141.4,825.4C2090,1423.8,2094.2,1427.6,2098.5,1426.9z"/>
	</g>
	<path class="st52" d="M2068.5,1440.1l5.9-41.1l11.2-15h5.9h3.2h5.9l11.2,15l5.5,41.4C2108.9,1435.8,2076.9,1435.5,2068.5,1440.1z"
		/>
	<g>
		<g>
			<path class="st53" d="M2031.7,1424.9c0.1-2.5,4-60.2,61.6-60.2c57.6,0,61.4,57.7,61.5,60.2l6.7-0.4c0-0.7-4.3-66.5-68.3-66.5
				s-68.2,65.9-68.3,66.5L2031.7,1424.9z"/>
		</g>
		<polygon class="st54" points="2166.4,1419.9 2143.4,1589.8 2094.8,1589.8 2091.7,1589.8 2043.1,1589.8 2020.1,1419.9 		"/>
		
			<rect x="2009.3" y="1418.7" transform="matrix(-1 -1.224647e-16 1.224647e-16 -1 4185.7798 2849.3701)" class="st55" width="167.2" height="12.1"/>
	</g>
</g>
<g>
	<g>
		<path class="st54" d="M2270.3,1514.2c-0.9-0.9-22.5-23-43.2-56.4c-27.8-44.8-40.3-88.5-36.2-126.5c2.8-26.5,16.1-62.6,31.5-104.4
			c18.3-49.9,39.1-106.4,46.6-159.4c8.4-59.4-1.6-103-30.6-133.3c-27.5-28.7-57.4-43.3-88.7-43.3c0,0,0,0,0,0
			c-53.2,0-93.7,41.6-94.1,42.1l-14.1-13.5c1.9-2,46.7-48.1,108.2-48.1c0,0,0,0,0,0c36.9,0,71.5,16.6,102.8,49.3
			c33.5,34.9,45.2,83.9,35.8,149.6c-7.8,55-29,112.6-47.6,163.4c-14.9,40.6-27.8,75.6-30.4,99.7c-8.8,81.8,73.1,166.2,73.9,167.1
			L2270.3,1514.2z"/>
	</g>
	<path class="st56" d="M2325.7,1543.9l-8.3,8.3c-6.4,6.4-16.7,6.4-23,0l-50.7-50.7c-6.4-6.4-6.4-16.7,0-23l8.3-8.3
		c6.4-6.4,16.7-6.4,23,0l50.7,50.7C2332.1,1527.2,2332.1,1537.5,2325.7,1543.9z"/>
	<polygon class="st56" points="1518,1565.9 1488.5,1565.9 2045.8,913.4 2063.2,927.7 	"/>
	<path class="st57" d="M1581.9,1456.6l-93.4,109.3h29.5l83-97.1C1595,1450.2,1581.9,1456.6,1581.9,1456.6z"/>
	<path class="st58" d="M1567.6,1565.9h-143.1c-7.2,0-13,5.8-13,13v10.7h169.2v-10.7C1580.6,1571.7,1574.8,1565.9,1567.6,1565.9z"/>
	<g>
		<path class="st56" d="M2446.1,1441.9h82.7c6.7,0,12.1-5.4,12.1-12.1V1410c0-6.7-5.4-12.1-12.1-12.1h-82.7
			c-6.7,0-12.1,5.4-12.1,12.1v19.8C2434,1436.5,2439.4,1441.9,2446.1,1441.9z"/>
		<path class="st54" d="M2579.9,1438.9v125.3c0,14.3-11.6,25.9-25.9,25.9h-269.3c-14.3,0-25.9-11.6-25.9-25.9v-2.5
			c0-73.5,57.2-134.3,130.6-138.7l163-9.9C2567.4,1412.2,2579.9,1424,2579.9,1438.9z"/>
		<path class="st54" d="M2579.9,1530.4v33.8c0,14.3-11.6,25.9-25.9,25.9h-269.3c-14.3,0-25.9-11.6-25.9-25.9v-2.5
			c0-10.8,1.2-21.2,3.6-31.3H2579.9z"/>
		<circle class="st59" cx="2517.1" cy="1518.4" r="71.6"/>
		<circle class="st60" cx="2517.1" cy="1518.4" r="56.6"/>
	</g>
</g>
</svg>
