<?xml version="1.0" encoding="utf-8"?>
<!-- Generator: Adobe Illustrator 24.3.0, SVG Export Plug-In . SVG Version: 6.00 Build 0)  -->
<svg version="1.1" xmlns="http://www.w3.org/2000/svg" xmlns:xlink="http://www.w3.org/1999/xlink" x="0px" y="0px"
	 viewBox="0 0 1984.25 1417.32" style="enable-background:new 0 0 1984.25 1417.32;" xml:space="preserve">
<style type="text/css">
	.st0{fill:#EBF2FA;}
	.st1{opacity:0.05;}
	.st2{fill:#DAEAF8;}
	.st3{fill:#ACC9EA;}
	.st4{fill:#314097;}
	.st5{fill:#E7E8E8;}
	.st6{fill:#BDD7ED;}
	.st7{fill:#C5C5C4;}
	.st8{fill:#8CB0DD;}
	.st9{fill:#5A5D5C;}
	.st10{fill:#A7A9AC;}
	.st11{fill:#39907C;}
	.st12{fill:#99D5C6;}
	.st13{fill:#4FBFA5;}
	.st14{fill:#C99257;}
	.st15{fill:#FAB27C;}
	.st16{fill:#F9F3A2;}
	.st17{fill:#FFFFFF;}
	.st18{fill:#939598;}
	.st19{fill:#BCBEC0;}
	.st20{fill:#D3489A;}
	.st21{fill:#176232;}
	.st22{fill:#808285;}
	.st23{fill:#BAD768;}
	.st24{fill:#F3EB3F;}
	.st25{fill:#E5DE98;}
	.st26{fill:none;stroke:#8CB0DD;stroke-width:1.9884;stroke-miterlimit:10;}
	.st27{fill:none;stroke:#8CB0DD;stroke-width:1.9308;stroke-miterlimit:10;}
	.st28{opacity:0.1;}
	.st29{opacity:0.07;}
	.st30{fill:#832E1A;}
	.st31{fill:#2B2D6E;}
	.st32{fill:#C42529;}
	.st33{fill:#692610;}
	.st34{fill:#59595B;}
	.st35{fill:#3A459C;}
	.st36{fill:#9C202E;}
</style>
<g id="linework">
</g>
<g id="Layer_2">
	<path class="st0" d="M395.4,1186.26h1054.1c0,0-64.36-175.05,78.46-199.29c142.82-24.24,196.76-136.74,120.79-207.03
		s-181.36-66.96-169.2-166.26c12.16-99.3,133.08-491.23-182.3-489.83c-116.95,0.52-267.98,220-415.62,110.62
		s-346.17-96.1-429.48-13.3c-275.64,273.94,24.38,419.75-11.31,637.06c-9.95,60.59-207.79,87.92-115.15,209.83
		C380.13,1139.7,395.4,1186.26,395.4,1186.26z"/>
	<rect x="1092.37" y="442.66" class="st1" width="28.42" height="228.45"/>
	<rect x="443.48" y="556.51" class="st1" width="308.23" height="589.02"/>
	<g>
		<g>
			<g id="XMLID_3_">
				<g>
					<path class="st2" d="M1422.64,831.65v30.16H1120.8h-22.3v-8.69c0-0.83-3.05-1.5-6.82-1.5c-3.76,0-6.82,0.67-6.82,1.5v8.69
						h-29.29v-6.09c0,0-0.07-2.18-3.2-3.18c-0.14-8.36,0.11-14.66,0.11-14.66c-0.23-0.68,1.36-3.06,3.86-6.23h1.38H1422.64z"/>
					<polygon class="st2" points="1422.43,870.41 1422.43,889.46 1422.42,889.46 763.62,889.46 763.62,870.41 					"/>
					<path class="st3" d="M1422.42,1122.23v23.35h-156.43v-4.55h151.42l-8.9-23.58v-0.01v-211.7c0-4.08-3.34-7.38-7.47-7.38h-204.16
						c-4.13,0-7.48,3.3-7.48,7.38v213.06l-1.72,4.02l-1.38-0.59H925.7H763.62V889.46h658.8V1122.23z M1179.01,1105.09V898.36
						h-130.47h-0.55H917.52v206.73h130.47h0.55H1179.01z M907.71,1105.38V964.16H776.69v141.22H907.71z M907.71,959.86v-61.8H776.69
						v61.8H907.71z"/>
					<polygon class="st4" points="1408.51,1117.45 1417.41,1141.03 1265.99,1141.03 1179.92,1141.03 1187.68,1122.82 1189.4,1118.8 
						1203.82,1084.98 1210.34,1084.98 1188.09,1135.72 1409.24,1135.72 1389.55,1084.98 1396.26,1084.98 1408.51,1117.44 					"/>
					<polygon class="st5" points="1389.55,1084.98 1409.24,1135.72 1188.09,1135.72 1210.34,1084.98 1210.38,1084.98 
						1213.29,1084.98 1228.88,1084.98 1231.69,1084.98 1241.67,1084.98 1244.48,1084.98 1254.45,1084.98 1257.27,1084.98 
						1267.24,1084.98 1270.06,1084.98 1280.03,1084.98 1282.85,1084.98 1292.82,1084.98 1295.64,1084.98 1305.61,1084.98 
						1308.43,1084.98 1318.4,1084.98 1321.22,1084.98 1331.19,1084.98 1334.01,1084.98 1343.98,1084.98 1346.8,1084.98 
						1356.77,1084.98 1359.58,1084.98 1369.56,1084.98 1372.37,1084.98 1386.7,1084.98 					"/>
					<path class="st4" d="M1408.51,905.74v211.7l-12.25-32.46V963.76V941.8h-192.44v58.73v84.45l-14.42,33.82V905.74
						c0-4.08,3.35-7.38,7.48-7.38h204.16C1405.17,898.36,1408.51,901.66,1408.51,905.74z M1389.62,919.49
						c0-5.22-4.28-9.46-9.57-9.46c-5.29,0-9.57,4.24-9.57,9.46c0,5.23,4.28,9.46,9.57,9.46
						C1385.34,928.95,1389.62,924.72,1389.62,919.49z M1262.51,919.49c0-3.63-2.98-6.57-6.65-6.57s-6.65,2.94-6.65,6.57
						s2.98,6.57,6.65,6.57S1262.51,923.12,1262.51,919.49z M1240.8,919.49c0-3.63-2.98-6.57-6.65-6.57c-3.67,0-6.65,2.94-6.65,6.57
						s2.98,6.57,6.65,6.57C1237.82,926.06,1240.8,923.12,1240.8,919.49z"/>
					<path class="st6" d="M1401.81,441.91v229.2h-147.24v-229.2H1401.81z M1282.77,651.7c0-4.04-3.27-7.31-7.3-7.31
						c-4.04,0-7.31,3.27-7.31,7.31c0,4.03,3.27,7.3,7.31,7.3C1279.5,659,1282.77,655.73,1282.77,651.7z"/>
					<polygon class="st7" points="1389.62,963.76 1389.62,1000.53 1386.78,1000.53 1386.78,966.05 1372.45,966.05 1369.64,966.05 
						1359.66,966.05 1356.85,966.05 1346.87,966.05 1344.06,966.05 1334.08,966.05 1331.27,966.05 1321.29,966.05 1318.48,966.05 
						1308.5,966.05 1305.69,966.05 1295.72,966.05 1292.9,966.05 1282.93,966.05 1280.11,966.05 1270.14,966.05 1267.32,966.05 
						1257.35,966.05 1254.53,966.05 1244.56,966.05 1241.74,966.05 1231.77,966.05 1228.95,966.05 1213.37,966.05 1213.37,1000.53 
						1210.46,1000.53 1210.46,963.76 					"/>
					<polygon class="st7" points="1389.55,1048.22 1389.55,1084.98 1386.7,1084.98 1386.7,1050.51 1372.37,1050.51 1369.56,1050.51 
						1359.58,1050.51 1356.77,1050.51 1346.8,1050.51 1343.98,1050.51 1334.01,1050.51 1331.19,1050.51 1321.22,1050.51 
						1318.4,1050.51 1308.43,1050.51 1305.61,1050.51 1295.64,1050.51 1292.82,1050.51 1282.85,1050.51 1280.03,1050.51 
						1270.06,1050.51 1267.24,1050.51 1257.27,1050.51 1254.45,1050.51 1244.48,1050.51 1241.67,1050.51 1231.69,1050.51 
						1228.88,1050.51 1213.29,1050.51 1213.29,1084.98 1210.38,1084.98 1210.38,1048.22 					"/>
					<rect x="1369.64" y="966.05" class="st7" width="2.81" height="34.48"/>
					<rect x="1369.56" y="1050.51" class="st7" width="2.81" height="34.47"/>
					<rect x="1356.85" y="966.05" class="st7" width="2.81" height="34.48"/>
					<rect x="1356.77" y="1050.51" class="st7" width="2.81" height="34.47"/>
					<rect x="1344.06" y="966.05" class="st7" width="2.81" height="34.48"/>
					<rect x="1343.98" y="1050.51" class="st7" width="2.82" height="34.47"/>
					<rect x="1331.27" y="966.05" class="st7" width="2.81" height="34.48"/>
					<rect x="1331.19" y="1050.51" class="st7" width="2.82" height="34.47"/>
					<rect x="1318.48" y="966.05" class="st7" width="2.81" height="34.48"/>
					<rect x="1318.4" y="1050.51" class="st7" width="2.82" height="34.47"/>
					<rect x="1305.69" y="966.05" class="st7" width="2.81" height="34.48"/>
					<rect x="1305.61" y="1050.51" class="st7" width="2.82" height="34.47"/>
					<rect x="1292.9" y="966.05" class="st7" width="2.82" height="34.48"/>
					<rect x="1292.82" y="1050.51" class="st7" width="2.82" height="34.47"/>
					<rect x="1280.11" y="966.05" class="st7" width="2.82" height="34.48"/>
					<rect x="1280.03" y="1050.51" class="st7" width="2.82" height="34.47"/>
					<path class="st8" d="M1275.47,644.39c4.03,0,7.3,3.27,7.3,7.31c0,4.03-3.27,7.3-7.3,7.3c-4.04,0-7.31-3.27-7.31-7.3
						C1268.16,647.66,1271.43,644.39,1275.47,644.39z"/>
					<rect x="1267.32" y="966.05" class="st7" width="2.82" height="34.48"/>
					<rect x="1267.24" y="1050.51" class="st7" width="2.82" height="34.47"/>
					<polygon class="st3" points="1265.99,1141.03 1265.99,1145.58 864.08,1145.58 763.62,1145.58 763.62,1122.23 925.7,1122.23 
						1186.3,1122.23 1187.68,1122.82 1179.92,1141.03 					"/>
					<rect x="1254.53" y="966.05" class="st7" width="2.82" height="34.48"/>
					<rect x="1254.45" y="1050.51" class="st7" width="2.82" height="34.47"/>
					<path class="st6" d="M1254.57,441.91v229.2h-141.16v-229.2H1254.57z M1246.85,651.7c0-4.04-3.27-7.31-7.3-7.31
						c-4.04,0-7.31,3.27-7.31,7.31c0,4.03,3.27,7.3,7.31,7.3C1243.58,659,1246.85,655.73,1246.85,651.7z"/>
					<path class="st8" d="M1239.55,644.39c4.03,0,7.3,3.27,7.3,7.31c0,4.03-3.27,7.3-7.3,7.3c-4.04,0-7.31-3.27-7.31-7.3
						C1232.24,647.66,1235.51,644.39,1239.55,644.39z"/>
					<rect x="1241.74" y="966.05" class="st7" width="2.82" height="34.48"/>
					<rect x="1241.67" y="1050.51" class="st7" width="2.81" height="34.47"/>
					<rect x="1228.95" y="966.05" class="st7" width="2.82" height="34.48"/>
					<rect x="1228.88" y="1050.51" class="st7" width="2.81" height="34.47"/>
					<path class="st6" d="M1179.01,898.36v206.73h-130.47V898.36H1179.01z M1067.31,1002.84c0-4.03-3.27-7.3-7.31-7.3
						c-4.03,0-7.3,3.27-7.3,7.3c0,4.04,3.27,7.31,7.3,7.31C1064.04,1010.15,1067.31,1006.88,1067.31,1002.84z"/>
					<path class="st6" d="M1103.81,441.91v229.2H956.58v-229.2H1103.81z M984.78,651.7c0-4.04-3.27-7.31-7.31-7.31
						c-4.03,0-7.3,3.27-7.3,7.31c0,4.03,3.27,7.3,7.3,7.3C981.51,659,984.78,655.73,984.78,651.7z"/>
					<rect x="1084.86" y="861.81" class="st7" width="13.64" height="1.13"/>
					<path class="st7" d="M1098.5,853.12v8.69h-13.64v-8.69c0,0.83,3.06,1.51,6.82,1.51C1095.45,854.63,1098.5,853.95,1098.5,853.12
						z"/>
					<path class="st9" d="M1091.68,851.62c3.77,0,6.82,0.67,6.82,1.5s-3.05,1.51-6.82,1.51c-3.76,0-6.82-0.68-6.82-1.51
						S1087.92,851.62,1091.68,851.62z"/>
					<path class="st10" d="M1089.89,795.87c0,0,3.43,1.04,2.24,4.17c0,0-0.6,0.9-2.69,1.04c0,0-1.41-3.48-5.47-2.77
						c-4.06,0.7-6.01,4.06-4.95,7.77c0,0-15.3,16.23-22.68,25.57h-9.62c1.55-2.9,4.25-6.86,8.92-11.95
						c11.47-12.51,19.81-23.83,27.4-23.83H1089.89z"/>
					<path class="st7" d="M1089.44,806.68c0,0,0.22,1.21-1.11,1.45s-7.74,0-7.74,0s-1.29-0.25-1.57-2.05
						c-1.06-3.71,0.89-7.07,4.95-7.77c4.06-0.71,5.47,2.77,5.47,2.77V806.68z"/>
					<path class="st8" d="M1060,995.54c4.04,0,7.31,3.27,7.31,7.3c0,4.04-3.27,7.31-7.31,7.31c-4.03,0-7.3-3.27-7.3-7.31
						C1052.7,998.81,1055.97,995.54,1060,995.54z"/>
					<path class="st10" d="M1052.37,852.54c0.01,0.32,0.01,0.64,0.02,0.97c0,0-3.78,1.67-7.77,0v-1.28v-14.36
						c0,0-0.16-1.99,2.1-6.22h9.62c-2.5,3.17-4.09,5.55-3.86,6.23C1052.48,837.88,1052.23,844.18,1052.37,852.54z"/>
					<path class="st7" d="M1055.57,861.81v1.67c-1.29,2.12-14.13,2.12-15.42,0v-1.67H1055.57z"/>
					<path class="st7" d="M1055.57,855.72v6.09h-15.42v-6.09c0,0,0.1-2.73,4.46-3.49h0.01v1.28c3.99,1.67,7.77,0,7.77,0
						c-0.01-0.33-0.01-0.65-0.02-0.97C1055.5,853.54,1055.57,855.72,1055.57,855.72z"/>
					<path class="st6" d="M1047.99,898.36v206.73H917.52V898.36H1047.99z M1041.91,1002.84c0-4.03-3.27-7.3-7.31-7.3
						c-4.03,0-7.3,3.27-7.3,7.3c0,4.04,3.27,7.31,7.3,7.31C1038.64,1010.15,1041.91,1006.88,1041.91,1002.84z"/>
					<path class="st2" d="M1030.91,831.65h15.81c-2.26,4.23-2.1,6.22-2.1,6.22v14.36h-0.01c-4.36,0.76-4.46,3.49-4.46,3.49v6.09
						h-26.48v-8.69c0-0.83-3.06-1.5-6.82-1.5c-3.77,0-6.82,0.67-6.82,1.5v8.69H883.71v-30.16H1030.91z"/>
					<path class="st8" d="M1034.6,995.54c4.04,0,7.31,3.27,7.31,7.3c0,4.04-3.27,7.31-7.31,7.31c-4.03,0-7.3-3.27-7.3-7.31
						C1027.3,998.81,1030.57,995.54,1034.6,995.54z"/>
					<rect x="1000.03" y="861.81" class="st7" width="13.64" height="1.13"/>
					<path class="st7" d="M1013.67,853.12v8.69h-13.64v-8.69c0,0.83,3.05,1.51,6.82,1.51
						C1010.61,854.63,1013.67,853.95,1013.67,853.12z"/>
					<path class="st9" d="M1006.85,851.62c3.76,0,6.82,0.67,6.82,1.5s-3.06,1.51-6.82,1.51c-3.77,0-6.82-0.68-6.82-1.51
						S1003.08,851.62,1006.85,851.62z"/>
					<path class="st8" d="M977.47,644.39c4.04,0,7.31,3.27,7.31,7.31c0,4.03-3.27,7.3-7.31,7.3c-4.03,0-7.3-3.27-7.3-7.3
						C970.17,647.66,973.44,644.39,977.47,644.39z"/>
					<path class="st8" d="M967.25,751.76v39.5c0,2.37-1.92,4.29-4.29,4.29h-21.82c-2.37,0-4.29-1.92-4.29-4.29v-39.5
						c0-2.37,1.92-4.29,4.29-4.29h21.82C965.33,747.47,967.25,749.39,967.25,751.76z M960.48,786.12v-11.31h-4.24h-4.13h-0.12h-4.12
						h-4.24v11.31h8.36h0.12H960.48z M960.48,767.5v-11.31h-4.24h-4.13h-0.12h-4.12h-4.24v11.31h8.36h0.12H960.48z M953.92,752.76
						c0-1.03-0.83-1.87-1.87-1.87c-1.03,0-1.87,0.84-1.87,1.87c0,1.03,0.84,1.87,1.87,1.87
						C953.09,754.63,953.92,753.79,953.92,752.76z M953.92,791.6c0-1.03-0.83-1.87-1.87-1.87c-1.03,0-1.87,0.84-1.87,1.87
						c0,1.04,0.84,1.87,1.87,1.87C953.09,793.47,953.92,792.64,953.92,791.6z"/>
					<polygon class="st3" points="960.48,774.81 960.48,786.12 952.11,786.12 952.11,774.81 956.24,774.81 					"/>
					<polygon class="st3" points="960.48,756.19 960.48,767.5 952.11,767.5 952.11,756.19 956.24,756.19 					"/>
					<path class="st6" d="M956.58,441.91v229.2H815.41v-229.2H956.58z M948.86,651.7c0-4.04-3.27-7.31-7.31-7.31
						c-4.03,0-7.3,3.27-7.3,7.31c0,4.03,3.27,7.3,7.3,7.3C945.59,659,948.86,655.73,948.86,651.7z"/>
					<circle class="st3" cx="952.05" cy="752.76" r="1.87"/>
					<circle class="st3" cx="952.05" cy="791.6" r="1.87"/>
					<polygon class="st3" points="951.99,774.81 951.99,786.12 943.63,786.12 943.63,774.81 947.87,774.81 					"/>
					<polygon class="st3" points="951.99,756.19 951.99,767.5 943.63,767.5 943.63,756.19 947.87,756.19 					"/>
					<path class="st8" d="M941.55,644.39c4.04,0,7.31,3.27,7.31,7.31c0,4.03-3.27,7.3-7.31,7.3c-4.03,0-7.3-3.27-7.3-7.3
						C934.25,647.66,937.52,644.39,941.55,644.39z"/>
					<rect x="776.69" y="964.16" class="st6" width="131.02" height="141.22"/>
					<path class="st6" d="M907.71,898.06v61.8H776.69v-61.8H907.71z M847.51,930.94c0-4.03-3.27-7.3-7.3-7.3
						c-4.04,0-7.31,3.27-7.31,7.3c0,4.04,3.27,7.31,7.31,7.31C844.24,938.25,847.51,934.98,847.51,930.94z"/>
					<path class="st11" d="M883.71,824.41c1.63,1.21,0,2.94,0,2.94c-13.15,4.93-30.21,0-30.21,0c-5-3.75,12.57-8.53,12.57-8.53
						c2.63,3.73,4.83,0,4.83,0C876.16,819.47,882.09,823.2,883.71,824.41z"/>
					<path class="st12" d="M883.71,861.81v1.03c0,0-15.29,9.36-30.21,0v-1.03v-30.16v-4.3c0,0,17.06,4.93,30.21,0v4.3V861.81z"/>
					<path class="st11" d="M868.52,812.23c4.35-0.04,2.38,6.59,2.38,6.59s-2.2,3.73-4.83,0
						C866.07,818.82,864.12,812.28,868.52,812.23z"/>
					<path class="st11" d="M848.09,813.89c2.03,1.5,0,3.66,0,3.66c-16.41,6.16-37.68,0-37.68,0c-6.23-4.67,15.68-10.64,15.68-10.64
						c3.28,4.65,6.02,0,6.02,0C838.67,807.73,846.06,812.38,848.09,813.89z"/>
					<path class="st13" d="M848.09,831.65v30.16c0,0-19.07,11.68-37.68,0v-30.16v-14.1c0,0,21.27,6.16,37.68,0V831.65z"/>
					<path class="st8" d="M840.21,923.64c4.03,0,7.3,3.27,7.3,7.3c0,4.04-3.27,7.31-7.3,7.31c-4.04,0-7.31-3.27-7.31-7.31
						C832.9,926.91,836.17,923.64,840.21,923.64z"/>
					<path class="st11" d="M829.14,798.71c5.43-0.06,2.97,8.2,2.97,8.2s-2.74,4.65-6.02,0
						C826.09,806.91,823.66,798.76,829.14,798.71z"/>
					<path class="st14" d="M802.43,836c1.61,1.19,0,2.9,0,2.9l0.01,0.02c-12.27,2.9-27.85,0.37-29.88,0.02l0.01-0.04
						c-3.42-2.56,3.85-5.62,8.65-7.25c2.13-0.73,3.77-1.18,3.77-1.18c0.39,0.55,0.76,0.93,1.12,1.18c1.02,0.74,1.91,0.47,2.56,0
						c0.68-0.48,1.09-1.18,1.09-1.18h0.01c1.49,0.18,3.03,0.62,4.51,1.18C797.98,833.03,801.28,835.15,802.43,836z"/>
					<path class="st15" d="M802.55,838.9v22.65c0,0-0.26,0.1-0.75,0.26h-0.01c-3.2,1.09-16.05,4.79-28.79,0
						c-0.22-0.09-0.44-0.17-0.66-0.26V838.9c0,0,0.08,0.01,0.22,0.04c2.03,0.35,17.61,2.88,29.88-0.02
						C802.48,838.92,802.51,838.91,802.55,838.9z"/>
					<path class="st14" d="M787.42,823.96c4.3-0.04,2.35,6.51,2.35,6.51h-0.01c0,0-0.41,0.7-1.09,1.18c-0.65,0.47-1.54,0.74-2.56,0
						c-0.36-0.25-0.73-0.63-1.12-1.18H785C785,830.47,783.07,824.01,787.42,823.96z"/>
					<path class="st16" d="M761.16,764.76c1.55,2.33,2.46,5.13,2.46,8.14v97.51v19.05v232.77v23.35v5.95
						c0,8.1-6.56,14.67-14.66,14.67H466.83c-8.1,0-14.67-6.57-14.67-14.67V772.9c0-8.1,6.57-14.66,14.67-14.66h282.13
						C754.05,758.24,758.53,760.83,761.16,764.76z M751.71,966.25V774.58c0-1.92-0.78-3.66-2.03-4.92
						c-1.26-1.25-2.99-2.03-4.91-2.03c-3.84,0-6.95,3.11-6.95,6.95v191.67c0,3.84,3.11,6.95,6.95,6.95
						C748.6,973.2,751.71,970.09,751.71,966.25z"/>
					<path class="st16" d="M763.62,569.17v173.45c0,2.72-0.91,5.23-2.46,7.24c-2.17,2.83-5.6,4.66-9.45,4.66H464.07
						c-6.58,0-11.91-5.33-11.91-11.9V569.17c0-6.58,5.33-11.91,11.91-11.91h287.64C758.29,557.26,763.62,562.59,763.62,569.17z
						 M751.71,737.57V603.62c0-3.76-3.04-6.81-6.8-6.81h-0.28c-3.76,0-6.81,3.05-6.81,6.81v133.95c0,3.76,3.05,6.81,6.81,6.81h0.28
						C748.67,744.38,751.71,741.33,751.71,737.57z"/>
					<path class="st17" d="M751.71,774.58v191.67c0,3.84-3.11,6.95-6.94,6.95c-3.84,0-6.95-3.11-6.95-6.95V774.58
						c0-3.84,3.11-6.95,6.95-6.95c1.92,0,3.65,0.78,4.91,2.03C750.93,770.92,751.71,772.66,751.71,774.58z"/>
					<path class="st17" d="M751.71,603.62v133.95c0,3.76-3.04,6.81-6.8,6.81h-0.28c-3.76,0-6.81-3.05-6.81-6.81V603.62
						c0-3.76,3.05-6.81,6.81-6.81h0.28C748.67,596.81,751.71,599.86,751.71,603.62z"/>
					<path class="st2" d="M743.27,376.39c0,0.01,0,0.01,0,0.02c0,39.27-31.41,71.19-70.46,72.04v-15.03h-2.14v15.04
						c-39.55-0.28-71.52-32.43-71.52-72.05c0-0.01,0-0.01,0-0.02h15.05v-2.13h-15.02c1.13-38.62,32.66-69.62,71.49-69.9v15.05h2.14
						v-15.04c38.34,0.83,69.31,31.63,70.43,69.89h-15.03v2.13H743.27z M713.38,362.15c3.27-3.02-1.51-4.03-1.51-4.03l-36.13,14.93
						c-0.72-0.38-1.54-0.59-2.4-0.59c-0.76,0-1.48,0.16-2.13,0.46v-0.01l-28.98-44.2c0,0-4.03-0.76-2.77,2.76
						s29.53,43.32,29.53,43.32c-0.55,0.83-0.87,1.82-0.87,2.88c0,2.88,2.34,5.22,5.22,5.22s5.22-2.34,5.22-5.22
						c0-0.44-0.05-0.86-0.16-1.26L713.38,362.15z"/>
					<path class="st8" d="M743.27,376.39h-15.06v-2.13h15.03C743.26,374.97,743.27,375.68,743.27,376.39z"/>
					<path class="st3" d="M671.21,298.27c43.16,0,78.14,34.98,78.14,78.14s-34.98,78.15-78.14,78.15
						c-43.16,0-78.15-34.99-78.15-78.15S628.05,298.27,671.21,298.27z M743.27,376.39v-2.13h-0.03
						c-1.12-38.26-32.09-69.06-70.43-69.89v-0.02h-1.6h-0.54v0.01c-38.83,0.28-70.36,31.28-71.49,69.9h-0.03v2.13
						c0,0.01,0,0.01,0,0.02c0,39.62,31.97,71.77,71.52,72.05v0.01h0.54h1.6v-0.02c39.05-0.85,70.46-32.77,70.46-72.04
						C743.27,376.4,743.27,376.4,743.27,376.39z"/>
					<path class="st8" d="M711.87,358.12c0,0,4.78,1.01,1.51,4.03l-34.98,14.26c-0.36-1.47-1.35-2.69-2.66-3.36L711.87,358.12z"/>
					<path class="st8" d="M678.4,376.41c0.11,0.4,0.16,0.82,0.16,1.26c0,2.88-2.34,5.22-5.22,5.22s-5.22-2.34-5.22-5.22
						c0-1.06,0.32-2.05,0.87-2.88c0.54-0.82,1.31-1.47,2.22-1.87c0.65-0.3,1.37-0.46,2.13-0.46c0.86,0,1.68,0.21,2.4,0.59
						C677.05,373.72,678.04,374.94,678.4,376.41z"/>
					<path class="st8" d="M672.81,433.42v15.03c-0.53,0.01-1.07,0.02-1.6,0.02c-0.18,0-0.36,0-0.54-0.01v-15.04H672.81z"/>
					<path class="st8" d="M672.81,304.37v15.04h-2.14v-15.05c0.18-0.01,0.36-0.01,0.54-0.01
						C671.74,304.35,672.28,304.36,672.81,304.37z"/>
					<path class="st8" d="M671.21,372.91v0.01c-0.91,0.4-1.68,1.05-2.22,1.87c0,0-28.27-39.8-29.53-43.32s2.77-2.76,2.77-2.76
						L671.21,372.91z"/>
					<path class="st8" d="M614.2,374.26v2.13h-15.05c0-0.71,0.01-1.42,0.03-2.13H614.2z"/>
				</g>
				<g>
				</g>
			</g>
		</g>
	</g>
	<rect x="1210.45" y="1000.52" class="st7" width="179.17" height="2.26"/>
	<rect x="443.48" y="1145.58" class="st0" width="404.02" height="20.62"/>
	<g>
		<g id="XMLID_12_">
			<g>
				<path class="st18" d="M1108.34,1247.44l0.54-0.85c0,0,16.95,0.39,18.05,0.46c1.09,0.08,5.31,0.81,5.31,0.81l0.14,0.7
					c-0.69-0.09-1.41,0.01-2.1,0.3c-1.34,0.57-2.25,1.72-2.51,3.05L1108.34,1247.44z"/>
				<path class="st18" d="M1108.31,1248.39l0.03-0.95l19.41,4.53c-0.16,0.79-0.09,1.64,0.25,2.44c0.4,0.96,1.11,1.7,1.97,2.13
					l-0.68,0.63c0,0-3.59-0.81-4.61-1.2C1123.65,1255.57,1108.31,1248.39,1108.31,1248.39z"/>
				<path class="st19" d="M1127.77,1251.91c0.27-1.32,1.18-2.48,2.51-3.05c0.69-0.28,1.41-0.39,2.1-0.3l0.92,4.61L1127.77,1251.91z"
					/>
				<path class="st19" d="M1127.77,1251.91l5.54,1.27l-0.92-4.61c0.95,0.1,1.83,0.52,2.51,1.19l-0.61,3.01
					c0.64,0.23,1.25,0.43,1.84,0.6c-0.05,0.35-0.13,0.69-0.27,1.02c-1.23-0.23-2.08-0.34-2.08-0.34l-1.33,2.95
					c-0.86,0.1-1.72-0.06-2.46-0.45l3.48-3.24l-5.71-1.33C1127.75,1251.94,1127.76,1251.92,1127.77,1251.91z"/>
				<path class="st19" d="M1127.76,1251.97l5.71,1.33l-3.48,3.24c-0.86-0.43-1.57-1.17-1.97-2.13
					C1127.67,1253.61,1127.59,1252.76,1127.76,1251.97z"/>
				<path class="st18" d="M1134.9,1249.75l0.07-0.33l2.45,0.5c0,0,1.77,1.97,6.01,1.36l0.38,0.92l0.85,2.04
					c-0.22,0.05-3.24,0.7-8.54-0.87c0.11-0.73,0.02-1.49-0.29-2.22C1135.61,1250.6,1135.29,1250.13,1134.9,1249.75z"/>
				<path class="st19" d="M1134.28,1252.76l0.61-3.01c0.39,0.38,0.71,0.85,0.94,1.39c0.3,0.73,0.4,1.5,0.29,2.22
					C1135.54,1253.19,1134.92,1252.99,1134.28,1252.76z"/>
				<path class="st19" d="M1132.44,1257l1.33-2.95c0,0,0.86,0.11,2.08,0.34c-0.41,1.01-1.2,1.86-2.29,2.31
					C1133.19,1256.84,1132.81,1256.95,1132.44,1257z"/>
				<path class="st18" d="M1132.32,1257.25l0.12-0.25c0.38-0.05,0.75-0.16,1.12-0.3c1.09-0.45,1.88-1.3,2.29-2.31
					c2.46,0.45,6.38,1.37,7.79,2.77l-2.95,2.04c-0.57-0.35-2.81-1.56-5.64-1.34L1132.32,1257.25z"/>
				<path class="st20" d="M1143.43,1251.28l-0.19-0.47c0,0,2.45,0.34,6.2-0.57c3.76-0.93,12.09-1.62,17.29,0.22
					c5.21,1.85,15.03,4.84,15.03,4.84s1.37,0.6,0.86,2.06c-0.52,1.45-2.36,0.87-2.79,0.69c-0.43-0.17-17.23-6.58-24.63-4.91
					c0,0-6.8,1.54-10.24,1.79l-0.29-0.7c0.01-0.01,0.01-0.01,0.01-0.01l-0.86-2.04L1143.43,1251.28z"/>
				<path class="st20" d="M1140.15,1259.55l0.53-0.36c0.1,0.05,0.15,0.09,0.15,0.09l2.97-1.92c-0.06-0.07-0.11-0.13-0.17-0.2
					l0.65-0.44c0,0,3.97,2.68,6.2,4.91c2.22,2.22,10.6,5.23,15.44,5.69c4.84,0.47,11.28,1.8,11.28,1.8s1.62,0.74,0.92,2.21
					c-0.69,1.47-2.32,0.98-4.45,0.62c-2.13-0.35-17.1-0.47-27.22-8.27C1146.45,1263.67,1142.98,1261.16,1140.15,1259.55z"/>
			</g>
			<g>
			</g>
		</g>
	</g>
	<g>
		<g id="XMLID_10_">
			<g>
				<path class="st7" d="M1173.52,1245.68c2.73,1.25,7.65,1.81,16.17,0.86c1.96-0.22,3.78-0.46,5.49-0.75
					c4.8-0.78,8.66-1.78,11.75-2.88c7.15-2.61,10.07-5.83,10.6-8.45c1.51-7.52-30.95-0.77-30.95-0.77s-11.62,1.94-15.13,4.29
					c0,0-0.97,1.95-1.02,3.22l-0.02,0.01c-0.05,0.99,0.17,2.03,0.97,2.96c0.45,0.51,1.07,1,1.93,1.41
					C1173.37,1245.61,1173.44,1245.65,1173.52,1245.68z M1168.71,1244.92c-2.1-3.96,0.04-8.52,1.98-9.59
					c4.7-2.59,13.98-3.82,13.98-3.82l0.01,0c0.74-0.13,13.49-2.45,14.08-2.51c19.91-2.61,20.83,3.17,20.83,3.17
					c0.62,1.42,0.66,2.77,0.24,4.03l0,0.01c-0.32,0.99-0.95,1.94-1.8,2.84c-2.11,2.25-5.69,4.18-9.96,5.73
					c-3.61,1.32-7.72,2.39-11.87,3.15c-8.31,1.56-16.8,1.95-21.81,0.93c-0.11-0.02-0.22-0.03-0.32-0.06
					c-1.1-0.25-2.03-0.55-2.73-0.97c-0.27-0.15-0.53-0.31-0.72-0.5C1169.75,1246.54,1169.14,1245.74,1168.71,1244.92
					L1168.71,1244.92z"/>
				<path class="st7" d="M1169.51,1249.92c-1.03-1.72-1.13-3.44-0.8-4.99c0.43,0.81,1.04,1.61,1.91,2.4c0.2,0.19,0.45,0.35,0.72,0.5
					l0,0.01c0.36,0.81,1.03,1.59,2.2,2.23c0.24,0.13,0.53,0.26,0.83,0.39l0,0.01c2.78,1.16,7.65,1.66,15.93,0.75
					c8.54-0.95,14.68-2.52,18.99-4.32c5.87-2.45,8.36-5.37,8.83-7.76l-0.08-0.09c0.85-0.9,1.47-1.85,1.8-2.84
					c0.48,1.1,0.69,2.29,0.62,3.44c-0.03,0.53-0.12,1.03-0.27,1.53l0,0.01c-0.22,0.77-0.6,1.48-1.13,2.1
					c-0.43,0.51-0.94,1.02-1.53,1.5l-0.01,0c-1.82,1.51-4.31,2.86-7.21,4.04c-3.66,1.49-7.96,2.68-12.35,3.56
					c-8.12,1.62-16.58,2.14-21.92,1.33c-0.4-0.05-0.78-0.12-1.14-0.19c-0.89-0.19-1.68-0.42-2.32-0.71c-0.54-0.22-1-0.49-1.34-0.8
					c-0.47-0.43-0.88-0.88-1.2-1.33C1169.83,1250.43,1169.66,1250.18,1169.51,1249.92z"/>
				<path class="st7" d="M1169.4,1250.11c0-0.05,0.01-0.09,0.02-0.14l0.09-0.05c0.15,0.26,0.32,0.51,0.51,0.77
					c0.32,0.44,0.73,0.89,1.2,1.33c0.33,0.31,0.79,0.58,1.34,0.8l-0.19,0.42c1.32,2.99,6.41,5.47,21.34,3.8
					c8.31-0.92,17.29-2.31,24.7-6.44c1.51-0.86,3.02-1.85,4.24-3.1c0.53,1,0.56,2.22,0.1,3.53l-0.01,0
					c-0.65,0.44-1.3,0.83-1.92,1.18c-5.41,3.04-11.6,4.74-17.63,6c-6.29,1.3-12.76,2.12-19.21,2.09c-1.31-0.01-2.93,0.02-4.57-0.08
					c-2.67-0.18-5.43-0.71-7.17-2.28C1169.37,1255.32,1168.9,1252.52,1169.4,1250.11z"/>
			</g>
			<g>
			</g>
		</g>
	</g>
	<g>
		<g id="XMLID_11_">
			<g>
				<polygon class="st9" points="1407.89,1257.55 1408.65,1258.97 1407.26,1259.72 1406.5,1258.29 				"/>
				<polygon class="st10" points="1406.5,1258.29 1407.26,1259.72 1404.62,1261.14 1404.61,1261.14 1403.85,1259.72 				"/>
				<polygon class="st9" points="1405.33,1252.78 1406.09,1254.2 1404.7,1254.95 1403.94,1253.52 				"/>
				<polygon class="st21" points="1402.06,1256.37 1403.85,1259.72 1404.61,1261.14 1404.62,1261.14 1405.62,1263.01 
					1401.59,1265.18 1396.03,1263.6 1391.77,1265.65 1391.37,1264.91 1390.29,1262.9 1389.77,1261.93 1393.99,1259.66 
					1396.5,1254.96 1400.23,1252.96 1401.29,1254.95 1401.3,1254.95 				"/>
				<polygon class="st10" points="1403.94,1253.52 1404.7,1254.95 1402.06,1256.37 1401.3,1254.95 				"/>
				<path class="st10" d="M1390.29,1262.9l1.08,2.01c-18.3,4.42-37.46,5.18-56.05,2.24c-4.05-0.64-16.11-1.54-22.75-0.67
					c3.2-0.68,5.95-1.66,8.23-2.82h0.01c4.53-0.18,9.02,0.76,13.49,1.47C1352.87,1268.07,1372,1267.25,1390.29,1262.9z"/>
				<path class="st10" d="M1324.8,1245.05c2.7-0.15,6.98,1.08,6.88,4.17c-0.06,2.21-1.26,3.93-2.88,5.28
					c0.06-1.19-0.28-2.31-1.03-3.27c0.24-0.3,0.47-0.62,0.58-0.95c0.7-2.05-2.14-3.87-4.14-3.78h-0.01
					c0.22-0.47,0.37-0.96,0.47-1.48L1324.8,1245.05z"/>
				<path class="st10" d="M1320.8,1263.66c-2.28,1.16-5.03,2.14-8.23,2.82c-0.02,0-0.04,0-0.06,0.01c-0.72,0.09-1.37,0.21-1.93,0.35
					c-0.01,0-0.02,0-0.02,0c-2.61,0.43-5.48,0.66-8.62,0.63c-1.48-0.01-3.03-0.08-4.63-0.21c-6.05-0.5-12.07-2.32-17.08-5.71
					l1.1-1.45c4.09,2.35,8.85,3.55,13.59,4.17c17.56,2.29,28.04-2.83,30.57-7.68h0.01c0.62-1.24,0.76-2.45,0.36-3.52
					c-0.55-1.5-2.12-2.72-4.76-3.33c0.6-0.37,1.13-0.77,1.59-1.19l0.13-0.09c2.35,0.54,4,1.53,4.95,2.77
					c0.75,0.96,1.09,2.08,1.03,3.27c-0.15,3.04-2.89,6.55-7.99,9.16H1320.8z"/>
				<path class="st10" d="M1272.69,1248.77c0.01-0.04,0.03-0.08,0.04-0.12l0.1-0.04c0.11,0.28,0.25,0.55,0.41,0.83
					c0.26,0.48,0.61,0.98,1.02,1.47c0.29,0.35,0.71,0.68,1.22,0.97l-0.23,0.38c0.91,3.14,5.65,6.26,20.67,6.53
					c8.35,0.16,17.43-0.05,25.32-3.19c1.61-0.65,3.23-1.43,4.62-2.53c0.4,1.07,0.26,2.28-0.36,3.52h-0.01
					c-0.71,0.34-1.4,0.65-2.07,0.91c-5.76,2.32-12.11,3.21-18.26,3.68c-6.41,0.47-12.93,0.45-19.31-0.42
					c-1.31-0.17-2.92-0.36-4.52-0.66c-2.63-0.52-5.3-1.41-6.82-3.19C1271.99,1253.94,1271.89,1251.1,1272.69,1248.77z"/>
				<path class="st10" d="M1324.5,1241.53c0.33,1.15,0.39,2.36,0.17,3.49c-0.1,0.52-0.25,1.01-0.47,1.48
					c-0.32,0.73-0.79,1.4-1.39,1.95c-0.04,0.04-0.08,0.07-0.12,0.1l-1.59,1.19c-2,1.26-4.65,2.28-7.68,3.07
					c-3.82,1-8.24,1.63-12.71,1.93c-8.26,0.56-16.72-0.02-21.91-1.52c-0.39-0.1-0.76-0.22-1.11-0.34c-0.86-0.3-1.61-0.63-2.21-1
					c-0.51-0.29-0.93-0.62-1.22-0.97c-0.41-0.49-0.76-0.99-1.02-1.47c-0.16-0.28-0.3-0.55-0.41-0.83c-0.8-1.84-0.68-3.56-0.15-5.05
					c0.32,0.86,0.82,1.73,1.58,2.63c0.17,0.21,0.4,0.41,0.65,0.59c0.26,0.85,0.83,1.72,1.89,2.5c0.23,0.16,0.49,0.34,0.77,0.5v0.01
					c2.61,1.5,7.37,2.63,15.7,2.79c8.59,0.16,14.88-0.6,19.39-1.82c6.15-1.68,8.98-4.24,9.77-6.56c0-0.05,0-0.1-0.01-0.15
					C1323.35,1243.29,1324.06,1242.45,1324.5,1241.53z"/>
				<path class="st10" d="M1324.5,1241.52v0.01c-0.44,0.92-1.15,1.76-2.08,2.52c-0.24-3.6-4.35-5.85-4.35-5.85l0.25-3.81
					C1324.04,1238.2,1324.5,1241.52,1324.5,1241.52z"/>
				<path class="st10" d="M1321.1,1249.74l1.59-1.19C1322.23,1248.97,1321.7,1249.37,1321.1,1249.74z"/>
			</g>
			<g>
			</g>
		</g>
	</g>
	<g>
		<g id="XMLID_6_">
			<g>
				<path class="st22" d="M1199.2,988.45c-0.95,0.8-6.72,5.22-6.72,5.22l4.28,5.58c0,0,4.01-6.17,3.44-10.67
					C1200.2,988.58,1200.16,987.65,1199.2,988.45z"/>
				<path class="st7" d="M1188.51,997.14c-0.49,0.32-1.07,0.7-1.7,1.13c-1.92,1.32-2.6,2.45-3.2,4.29c-0.6,1.85-3.42,5.87-3.42,5.87
					l-15.22,20.18c0,0-1.98,8.13,5.02,4.3l0.07-0.09l0.67-1.02l13.21-19.74l3.79-5c1.28-1.87,3.65-3.59,5.21-4.58
					c0.86-0.55,1.45-0.88,1.45-0.88l-4.29-5.47C1190.1,996.13,1189.49,996.5,1188.51,997.14z"/>
				<path class="st7" d="M1196.78,983.82c-0.76-0.23-8.57-2.43-12.58,3.82c-0.02,0.03-0.09,0.13-0.18,0.28
					c-0.04,0.08-0.09,0.16-0.15,0.27c-0.06,0.1-0.12,0.23-0.18,0.36c0,0,0,0,0,0.01c-0.06,0.36-0.22,1.86,1.01,3.71
					c0.53,0.81,2.09,2.76,3.82,4.86c0.99-0.64,1.59-1.01,1.59-1.01l4.29,5.47c0,0-0.59,0.33-1.45,0.88
					c0.98,1.18,1.64,1.96,1.64,1.96s0.04,0.24,0.2,0.41c0.14,0.14,0.37,0.22,0.75,0.01c0.81-0.46,3.66-1.28,3.66-1.28
					s0.76-0.15-0.08-1.24l-2.37-3.1l-4.28-5.57c0,0,0,0,0.01-0.01l-1.65-2.15c0,0-1.4-0.99,0-2.31c1.41-1.32,6.31-4.72,6.31-4.72
					S1197.57,984.06,1196.78,983.82z"/>
				<path class="st18" d="M1184.69,992.27c-1.23-1.85-1.06-3.35-1.01-3.71c-0.63,1.31-1.59,4-1.45,7.94
					c0.19,5.8-3.26,10.48-5.55,13.36c-1.18,1.49-7.64,10.16-13.61,18.2c0,0-3.48,12,4.7,7.93c8.19-4.07,4.93-4.4,4.93-4.4
					l11.85-17.52c0,0,2.99-5.06,10.22-9.21c-0.16-0.16-0.2-0.41-0.2-0.41s-0.66-0.79-1.64-1.96c-1.55,0.98-3.93,2.7-5.21,4.58
					l-3.79,5l-13.21,19.74l-0.67,1.02l-0.07,0.09c-7,3.83-5.02-4.3-5.02-4.3l15.22-20.18c0,0,2.82-4.02,3.42-5.87
					c0.6-1.84,1.28-2.97,3.2-4.29c0.63-0.43,1.21-0.81,1.7-1.13C1186.78,995.04,1185.23,993.08,1184.69,992.27z"/>
			</g>
			<g>
			</g>
		</g>
	</g>
	<g>
		<g id="XMLID_5_">
			<g>
				<path class="st9" d="M1189.04,1036l-23.24,27.51l-1.73-1.47c1.95-2.28,22.42-26.11,22.87-26.78c0.47-0.7,0.74-0.81,1.81-1.3
					c1.06-0.5,0.92,0.58,0.79,1.17S1189.04,1036,1189.04,1036z"/>
				<polygon class="st23" points="1165.81,1063.51 1167.27,1064.77 1166.64,1065.6 1161.76,1061.38 1162.38,1060.58 
					1164.08,1062.04 				"/>
				<path class="st23" d="M1151.47,1078.14c-0.96-0.82,0.14-3.69,2.46-6.39c2.32-2.7,4.99-4.22,5.96-3.39s-0.14,3.7-2.46,6.4
					C1155.1,1077.46,1152.43,1078.98,1151.47,1078.14z"/>
				<path class="st21" d="M1153.93,1071.76c-2.32,2.7-3.42,5.56-2.46,6.39c0.96,0.83,3.63-0.68,5.96-3.38
					c2.32-2.7,3.42-5.56,2.46-6.4S1156.25,1069.06,1153.93,1071.76z M1152.5,1070.12c0,0,0.74-2.08,2.66-2.98
					c1.92-0.91,3.91-2.65,3.66-4.03c-0.26-1.37,0.29-1.52,0.98-2.18c0.69-0.66,1.96,0.45,1.96,0.45l4.88,4.22
					c0,0,0.4,0.54,0.55,1.22c0.16,0.69-1.24,1.71-1.24,1.71c-2.63,0.41-3.21,1.83-3.89,2.94c-0.68,1.12-0.07,1.87-1.99,3.27
					c-1.91,1.41-4.17,5.09-5.08,6.49c-0.89,1.39-1.52,4.35-4.13,5.78c-2.62,1.44-5.9,5.52-5.9,5.52c-2.53,2.06-4.71,1.14-7.39-1.76
					c-2.69-2.89-0.75-5.58-0.75-5.58c2.53-2.13,4.77-5.43,5.69-7.08c0.94-1.66,1.9-2.11,1.9-2.11
					C1148.72,1074.33,1152.5,1070.12,1152.5,1070.12z"/>
			</g>
			<g>
			</g>
		</g>
	</g>
	<g>
		<g id="XMLID_9_">
			<g>
				<path class="st21" d="M1191.79,1242.68c3.69,1.66-3.5,4.36-3.5,4.36l-13.68-6.04l0.31-0.63c0.05,0.03,0.08,0.04,0.08,0.04
					l1.66-3.46c0,0-0.02-0.01-0.06-0.04l0.43-0.87C1177.03,1236.04,1185.14,1239.71,1191.79,1242.68z"/>
				<path class="st21" d="M1188.19,1268.66c2.52,4.34-2.87,3.66-2.87,3.66l-6.84-7.92l-2.59-2.83l-10.38-11.35l0.46-0.39l3-2.55
					l0.01-0.01l0.54-0.46c0,0,5.36,6.08,9.98,11.15L1188.19,1268.66z"/>
				<path class="st9" d="M1176.6,1236.91l-1.68,3.46c-0.43-0.18-2.64-1.13-3.84-1.67c-1.33-0.6-2.04,0.14-2.04,0.14l-1.23,1.07
					c0.77-1.66,1.12-3.83-0.85-6.05C1169.98,1233.3,1175.92,1236.54,1176.6,1236.91z"/>
				<path class="st22" d="M1166.12,1243.79l2.92,3.41l-0.06,0.07l-0.01,0.01l-3,2.55l-3.69-4.08c-1.25-1.41-1.85-2.7-2.04-3.83
					c-0.42-2.42,0.96-4.16,1.7-4.89h0.01c0.25-0.26,0.43-0.39,0.43-0.39l-3.05-3.46l-4.1-4.64l-1.24-1.39l0.33-0.5
					c0.81-0.87,1.18-0.5,1.18-0.5l6.25,4.16l5.05,3.36c0.06,0.06,0.12,0.13,0.16,0.19c1.97,2.22,1.62,4.39,0.85,6.05h-0.01
					c-0.6,1.29-1.46,2.27-1.68,2.7C1165.62,1243.6,1166.12,1243.79,1166.12,1243.79z M1166.75,1238.82c0-1.01-0.82-1.84-1.84-1.84
					c-1.01,0-1.84,0.83-1.84,1.84c0,1.02,0.83,1.84,1.84,1.84C1165.93,1240.66,1166.75,1239.84,1166.75,1238.82z"/>
				<path class="st9" d="M1164.91,1236.98c1.02,0,1.84,0.83,1.84,1.84c0,1.02-0.82,1.84-1.84,1.84c-1.01,0-1.84-0.82-1.84-1.84
					C1163.07,1237.81,1163.9,1236.98,1164.91,1236.98z M1166.53,1238.82c0-0.89-0.73-1.61-1.62-1.61c-0.89,0-1.61,0.72-1.61,1.61
					c0,0.89,0.72,1.62,1.61,1.62C1165.8,1240.44,1166.53,1239.71,1166.53,1238.82z"/>
				<path class="st10" d="M1164.91,1237.21c0.89,0,1.62,0.72,1.62,1.61c0,0.89-0.73,1.62-1.62,1.62c-0.89,0-1.61-0.73-1.61-1.62
					C1163.3,1237.93,1164.02,1237.21,1164.91,1237.21z"/>
				<path class="st9" d="M1157.5,1235.13l4.44,1.9c-0.74,0.73-2.12,2.47-1.7,4.89c-1.14-0.47-1.78-1.1-1.78-1.1
					s-1.77-1.42-3.73-3.01c-2.26-1.82-4.79-3.87-5.21-4.27c-0.78-0.74,0.6-1.57,0.6-1.57L1157.5,1235.13z"/>
			</g>
			<g>
			</g>
		</g>
	</g>
	<g>
		<g id="XMLID_8_">
			<g>
				<path class="st18" d="M1140.02,1265.8l0.12-1c0,0,15.47-6.94,16.5-7.34c1.02-0.4,5.14-1.56,5.14-1.56l0.43,0.57
					c-0.66,0.21-1.27,0.62-1.77,1.17c-0.97,1.09-1.29,2.52-0.96,3.83L1140.02,1265.8z"/>
				<path class="st18" d="M1140.4,1266.67l-0.38-0.87l19.47-4.26c0.19,0.78,0.63,1.52,1.27,2.1c0.77,0.69,1.73,1.06,2.7,1.08
					l-0.34,0.86c0,0-3.59,0.81-4.68,0.9C1157.33,1266.55,1140.4,1266.67,1140.4,1266.67z"/>
				<path class="st19" d="M1159.48,1261.47c-0.33-1.31-0.01-2.75,0.96-3.83c0.5-0.55,1.11-0.96,1.77-1.17l2.81,3.77L1159.48,1261.47
					z"/>
				<path class="st19" d="M1159.48,1261.47l5.54-1.24l-2.81-3.77c0.9-0.32,1.88-0.32,2.78-0.01l0.74,2.98
					c0.68-0.07,1.32-0.15,1.92-0.25c0.11,0.34,0.18,0.68,0.19,1.04c-1.21,0.32-2.03,0.59-2.03,0.59l0.07,3.24
					c-0.74,0.46-1.58,0.68-2.41,0.65l1.75-4.43l-5.72,1.25C1159.48,1261.52,1159.47,1261.49,1159.48,1261.47z"/>
				<path class="st19" d="M1159.49,1261.54l5.72-1.25l-1.75,4.43c-0.97-0.02-1.92-0.38-2.7-1.08
					C1160.12,1263.06,1159.68,1262.32,1159.49,1261.54z"/>
				<path class="st18" d="M1164.98,1256.46l-0.08-0.33l2.43-0.6c0,0,2.45,1.01,6.01-1.36l0.74,0.66l1.65,1.48
					c-0.18,0.14-2.63,2.03-8.09,2.88c-0.21-0.7-0.63-1.36-1.21-1.89C1165.99,1256.92,1165.5,1256.63,1164.98,1256.46z"/>
				<path class="st19" d="M1165.73,1259.45l-0.74-2.98c0.51,0.17,1.01,0.46,1.45,0.85c0.59,0.53,1,1.18,1.21,1.89
					C1167.04,1259.29,1166.4,1259.38,1165.73,1259.45z"/>
				<path class="st19" d="M1165.88,1264.06l-0.07-3.24c0,0,0.82-0.27,2.03-0.59c0.06,1.09-0.29,2.2-1.08,3.07
					C1166.49,1263.6,1166.2,1263.86,1165.88,1264.06z"/>
				<path class="st18" d="M1165.88,1264.34l0-0.28c0.32-0.21,0.61-0.46,0.88-0.76c0.79-0.87,1.14-1.98,1.08-3.07
					c2.41-0.65,6.35-1.51,8.22-0.85l-1.79,3.11c-0.66-0.07-3.21-0.2-5.67,1.21L1165.88,1264.34z"/>
				<path class="st24" d="M1173.34,1254.17l-0.38-0.34c0,0,2.35-0.74,5.36-3.18c2.99-2.45,10.22-6.67,15.71-7.24
					c5.5-0.57,15.65-2.09,15.65-2.09s1.5-0.04,1.66,1.49c0.16,1.54-1.75,1.79-2.22,1.82c-0.46,0.03-18.38,1.47-24.35,6.16
					c0,0-5.48,4.32-8.48,6.02l-0.56-0.5c0-0.01,0-0.01,0-0.01l-1.65-1.47L1173.34,1254.17z"/>
				<path class="st20" d="M1173.94,1263.05l0.33-0.56c0.11,0.01,0.17,0.01,0.17,0.01l1.86-3.02c-0.08-0.04-0.16-0.07-0.24-0.1
					l0.4-0.68c0,0,4.74,0.72,7.71,1.77c2.96,1.05,11.82,0.17,16.38-1.5c4.57-1.66,10.96-3.22,10.96-3.22s1.78-0.02,1.78,1.6
					c0.01,1.62-1.67,1.88-3.75,2.47c-2.07,0.6-15.64,6.92-28.13,4.24C1181.4,1264.07,1177.18,1263.29,1173.94,1263.05z"/>
			</g>
			<g>
			</g>
		</g>
	</g>
	<path class="st25" d="M452.16,663.83v78.78c0,0-1.13,12.12,18.22,12.01s263.58,0,263.58,0S495.68,761.52,452.16,663.83z"/>
	<path class="st25" d="M452.17,1053.08v78.78c0,0-1.45,13.82,17.9,13.71s263.9,0,263.9,0S495.69,1150.77,452.17,1053.08z"/>
	<line class="st26" x1="959.61" y1="671.11" x2="959.61" y2="441.91"/>
	<line class="st26" x1="1257.61" y1="671.86" x2="1257.61" y2="442.66"/>
	<line class="st27" x1="1041.9" y1="1114.89" x2="1041.9" y2="898.79"/>
	<path class="st28" d="M772.57,838.9c0,0,1.12,24.74,19.53,25.3c0,0-14.22,0.76-19.76-2.65L772.57,838.9z"/>
	<path class="st28" d="M810.41,817.55c0,0,1.36,48.84,19.76,49.4c0,0-11.94,0.86-19.76-5.44L810.41,817.55z"/>
	<path class="st28" d="M854.1,827.51c0,0,2.5,38.1,20.91,38.66c0,0-13.69,2.91-21.51-3.4L854.1,827.51z"/>
	<polygon class="st1" points="815.41,441.91 801.79,454.55 801.79,681.99 1382.23,681.99 1401.8,671.11 815.41,671.11 	"/>
	<ellipse class="st29" cx="995.99" cy="1267.47" rx="259.71" ry="26.01"/>
	<g>
		<path class="st30" d="M1153.14,1028.56c0,0,11.36-8.45,13.53-9.21c2.17-0.76,9.31-1.67,9.65-1.08c0.34,0.59,1.35,2.39,0.11,3.04
			c-1.24,0.64-2.8,0.45-2.32,0.88c0.47,0.42,5.13-2.03,6.26,0.48c1.13,2.52,2.23,11.18-3.24,13.92c-5.47,2.74-19.13,0.62-20.1,0.94
			C1148.75,1040.25,1153.14,1028.56,1153.14,1028.56z"/>
		<path class="st31" d="M1157.22,1031.57c-0.41-6.71-3.8-7.36-3.8-7.36s-65.48-3.2-71.15-4.24c-5.66-1.04-58.61-45.59-58.61-45.59
			s-20.5-18.73-34.49-11.97c-12.16,5.87-15.79,17.03-16.21,27.23c-0.51,12.16,6.18,23.37,16.7,28.3
			c23.61,11.06,70.82,32.77,81.51,34.5c23.79,3.86,84.48-11.39,84.48-11.39S1157.54,1036.85,1157.22,1031.57z"/>
		<path class="st32" d="M1034.51,1275.12h48.63c-0.77-1.85-2.62-4.27-7.13-5.06c-7.66-1.34-20.95-5.49-19.25-16.54
			c1.73-11.21-16.92-12.65-16.92-12.65S1032.07,1270.85,1034.51,1275.12z"/>
		<path class="st16" d="M949.36,1162.65c0.4,0.95,0.93,1.79,1.58,2.5c0.76,0.83,2.12,1.64,4.03,2.42c6.34,2.62,18.62,4.9,34.01,6.46
			c15.99,1.62,35.32,2.49,54.84,2.15c6.01-0.1,12.04-0.31,17.99-0.66c43.17-2.46,82.4-11.51,82.44-31.89
			c0.05-20.73-66.07-36.12-116.23-44.81c-5.19-0.9-10.22-1.74-14.97-2.49c-23.33-3.7-40.37-5.64-40.37-5.64s-0.95,1.68-2.48,4.54
			c-0.76,1.42-1.66,3.13-2.66,5.08c-5,9.76-12.44,25.34-16.5,39.09C948.26,1148.85,947.06,1157.42,949.36,1162.65z"/>
		<path class="st25" d="M949.36,1162.65c1.81,1.66,3.69,3.3,5.61,4.92c6.34,2.62,18.62,4.9,34.01,6.46
			c15.99,1.62,89.3,1.72,108.82,1.38c-22.92-37.04-92.45-44.39-96.72-49.31c-0.35-0.4-45.98-0.46-50.03,13.29
			C948.26,1148.85,947.06,1157.42,949.36,1162.65z"/>
		<path class="st16" d="M1141.12,1153.01c0,0-74.49,93.22-79.51,104.5c0,0-20.52,1.91-25.46-12.75c0,0,35.86-100.15,51.62-108.4
			C1103.53,1128.09,1141.12,1153.01,1141.12,1153.01z"/>
		<path class="st30" d="M1005.31,939.59c0,0,20.77,28.43,39.29,29.95c0,0-2.37-10.7-7.83-17.45c1.47-2.37,2.74-4.54,3.84-6.47
			c3.64-6.44,5.25-10.3,5.25-10.3l-8.52-15.41l-1.76-8.28c-1.44,3.89-3.13,7.48-5.01,10.44
			C1020.87,937.31,1005.31,939.59,1005.31,939.59z"/>
		<path class="st33" d="M1029.76,921.92c0,0-3.01,14.24,10.84,23.7c3.64-6.44,5.25-10.3,5.25-10.3l-8.52-15.41
			C1030.53,918.91,1029.76,921.92,1029.76,921.92z"/>
		<path class="st30" d="M1048.45,943.92c0,0-26.06-14.2-16.97-30.29c9.09-16.09,11.85-28.76,28.87-20.38
			c17.02,8.38,16.76,16.33,15.03,22.44C1073.65,921.8,1055.46,947.19,1048.45,943.92z"/>
		<path class="st34" d="M1031.57,881.59c-0.14-0.4-0.65-0.88-1.96-1.47c0,0,1.33-0.27,2.77,0.25c1.01-1.78,3.29-4.74,6.8-4.32
			c0,0-2.08,0.27-3.08,2.19c5.2-2.43,14.23-2.18,35.54,8.08c28.09,13.52,11.25,28.67,6.63,29.47c-4.62,0.8-11.69-9.01-18.89-11.15
			c-7.21-2.14-12.5,7.61-15.42,8.1c-2.92,0.49-1.02-1.64-3.66-4.35c-2.64-2.71-5.03,2.57-5.46,6.44c-0.43,3.87-6.63,6.8-6.63,6.8
			s0,0-2.57-6.59c-2.57-6.59,1.2-28.86,4.93-32.48C1030.91,882.24,1031.24,881.92,1031.57,881.59z"/>
		<path class="st32" d="M875.99,1243.16c0,0-6.06,10.01-7.47,13.25c-1.41,3.24,1.36,10.14,5.51,11.18c3.67,0.92,4.21,7.99,4.21,7.99
			h-17.77c-1.88,0-3.58-1.13-4.3-2.86c-2.51-6-3.08-13.8-3.58-16.41c-1.06-5.49-3.16-10.09-2.23-15.68
			c0.92-5.57,9.68-8.79,25.63-8.74C893.52,1231.94,875.99,1243.16,875.99,1243.16z"/>
		<path class="st16" d="M932.29,1140.24c5.05,19.18,17.31,50.06,31.29,77.44c7.09,13.89,14.64,26.88,21.91,36.99
			c8.19,11.38,16.03,19.08,22.51,20.29c1.71,0.32,3.33,0.18,4.83-0.46c3.73-1.59,6.45-5.97,8.37-12.33v-0.01
			c11.83-39.18-6.67-153.44-6.67-153.44s-18.64-0.16-38.42,1.43c-20.5,1.65-42.23,5.17-45.76,12.66
			C929.19,1125.29,930.01,1131.56,932.29,1140.24z"/>
		<path class="st16" d="M874.12,1249.93c2.56,0.02,10.28,1.21,20.8,3.06c38.13,6.68,113.09,22,113.09,22s0-0.01,0.01-0.03
			c0.06-0.5,0.89-7.19,1.09-15.81c0.3-13.75-1.03-32.44-9.71-38.8c-4.62-3.39-18.75-3.73-35.8-2.66
			c-35.94,2.26-84.83,10.9-84.83,10.9C870.77,1238.42,874.12,1249.93,874.12,1249.93z"/>
		<path class="st31" d="M932.29,1140.24c19.83-0.63,69.59-25.05,68.77-25.25c-9.26-2.28-17.55-3.86-24.94-4.85
			c-20.5,1.65-42.23,5.17-45.76,12.66C929.19,1125.29,930.01,1131.56,932.29,1140.24z"/>
		<path class="st35" d="M927.85,1105.66c0.05-0.51,0.1-1.01,0.15-1.5c1.34-14.16,2.66-33.17,4.92-47.99
			c0.44-2.87,0.88-5.58,1.28-8.02h0.01c1.35-7.97,2.44-13.29,2.44-13.29c13.39-52.64,41.62-78.64,60.6-90.65c0,0,0,0,0,0l0,0
			c3.4-2.15,6.5-3.86,9.17-5.18l0.01-0.01l0,0c6-2.98,9.79-4.06,9.79-4.06s1.85,4.93,5.39,10.99c4.42,3.2,8.65,7.74,10.84,14.05
			c3.57,3.35,7.69,6.1,12.35,7.46c0.03,0.04,0.04,0.08,0.07,0.13c4.44,9.89,4.5,26.04,1.25,43.4c-1.68,9.05-4.25,18.41-7.58,27.4
			c-0.11,0.29-0.66,1.7-1.48,3.93c-3.48,9.63-11.61,34.49-7.53,49.01c0.85,3.06,2.26,5.66,4.35,7.56
			c7.22,6.56-68.96,29.66-97.01,25.76c-3.97-0.54-6.98-1.63-8.66-3.41C926.01,1118.88,927.18,1111.76,927.85,1105.66z"/>
		<path class="st31" d="M1017.56,1083.01c-0.13-0.16-0.26-0.33-0.4-0.49c-0.27-0.33-0.54-0.67-0.8-1.01
			c-0.15-0.2-0.3-0.41-0.45-0.62c-0.24-0.32-0.47-0.65-0.7-0.98c-0.16-0.23-0.31-0.45-0.46-0.68c-0.22-0.33-0.44-0.67-0.65-1.01
			c-0.15-0.24-0.3-0.48-0.45-0.73c-0.21-0.35-0.42-0.7-0.63-1.06c-0.14-0.25-0.29-0.49-0.43-0.74c-0.21-0.38-0.42-0.78-0.63-1.17
			c-0.12-0.23-0.25-0.46-0.37-0.7c-0.28-0.54-0.55-1.09-0.82-1.64c-0.13-0.26-0.25-0.53-0.37-0.79c-0.22-0.48-0.45-0.95-0.66-1.44
			c-0.14-0.3-0.27-0.61-0.4-0.92c-0.16-0.37-0.32-0.75-0.48-1.13c-0.14-0.34-0.28-0.68-0.42-1.03c-0.14-0.36-0.28-0.71-0.42-1.07
			c-0.14-0.36-0.28-0.72-0.41-1.09c-0.13-0.35-0.26-0.71-0.39-1.06c-0.14-0.38-0.27-0.75-0.4-1.14c-0.12-0.34-0.24-0.69-0.36-1.04
			c-0.13-0.4-0.27-0.79-0.4-1.2c-0.11-0.33-0.21-0.65-0.31-0.98c-0.14-0.43-0.27-0.85-0.4-1.29c-0.06-0.2-0.12-0.41-0.18-0.61
			c-0.32-1.06-0.63-2.14-0.93-3.22c-0.05-0.19-0.1-0.37-0.16-0.56c-0.14-0.51-0.27-1.02-0.41-1.54c-0.07-0.26-0.14-0.52-0.2-0.78
			c-0.13-0.51-0.25-1.01-0.38-1.52c-0.07-0.27-0.13-0.53-0.19-0.8c-0.12-0.51-0.24-1.03-0.36-1.54c-0.06-0.26-0.12-0.51-0.18-0.77
			c-0.12-0.53-0.24-1.07-0.36-1.6c-0.05-0.22-0.09-0.44-0.14-0.66c-0.12-0.57-0.24-1.15-0.36-1.72c-0.02-0.12-0.05-0.24-0.07-0.36
			c-0.57-2.81-1.08-5.63-1.54-8.41c-0.01-0.08-0.03-0.16-0.04-0.24c-0.1-0.63-0.2-1.26-0.3-1.89c-0.02-0.13-0.04-0.27-0.06-0.4
			c-0.1-0.62-0.19-1.23-0.28-1.84c-0.02-0.13-0.04-0.25-0.06-0.38c-0.05-0.36-0.11-0.72-0.16-1.08c0,0,0,0,0,0
			c-2.79-19.64-3-36.19-3-36.19c16.21,3.57,30.7,24.22,39.34,45.84c0.02,0.04,0.03,0.08,0.05,0.12c0.59,1.49,1.16,2.98,1.7,4.48
			c-3.48,9.63-11.61,34.49-7.53,49.01c-0.55-0.16-1.08-0.34-1.61-0.54c-0.17-0.06-0.33-0.14-0.5-0.21c-0.36-0.15-0.71-0.3-1.06-0.46
			c-0.19-0.09-0.38-0.19-0.57-0.29c-0.32-0.16-0.63-0.33-0.94-0.51c-0.2-0.11-0.39-0.23-0.58-0.35c-0.3-0.19-0.6-0.38-0.89-0.58
			c-0.19-0.13-0.37-0.26-0.56-0.39c-0.3-0.22-0.59-0.44-0.88-0.68c-0.17-0.14-0.34-0.27-0.51-0.41c-0.32-0.27-0.63-0.54-0.94-0.83
			c-0.13-0.12-0.27-0.24-0.41-0.37c-0.44-0.42-0.87-0.85-1.3-1.3c0,0,0,0,0,0C1018.37,1083.96,1017.96,1083.49,1017.56,1083.01z"/>
		<path class="st30" d="M1132.19,1072.44c0,0,13.6-2.99,15.89-2.81c2.29,0.18,9.22,2.14,9.32,2.79c0.1,0.65,0.37,2.62-1.01,2.7
			c-1.38,0.08-2.75-0.69-2.47-0.13c0.28,0.55,5.5,0.21,5.62,2.85c0.12,2.64-2.03,10.65-8.1,10.92c-6.06,0.28-17.92-6.87-18.94-6.96
			C1123.84,1080.96,1132.19,1072.44,1132.19,1072.44z"/>
		<path class="st35" d="M1134.86,1076.66c2.08-6.03-0.82-7.91-0.82-7.91s-59.41-28.17-64.27-31.28
			c-4.86-3.1-37.52-62.59-37.52-62.59s-12.11-24.32-27.53-23.83c-13.4,0.42-20.85,8.78-24.98,17.54
			c-4.92,10.44-2.84,22.83,5.08,31.22c17.79,18.83,53.51,56.1,62.77,61.76c20.6,12.59,82.33,22.78,82.33,22.78
			S1133.22,1081.4,1134.86,1076.66z"/>
		<path class="st25" d="M894.92,1252.99c38.13,6.68,113.09,22,113.09,22s0-0.01,0.01-0.03c1.71,0.32,3.33,0.18,4.83-0.46
			c3.73-1.59,6.45-5.97,8.37-12.33v-0.01c0,0-4.43-1.29-12.11-3.02c-6.04-1.37-14.1-3-23.6-4.47
			C961.46,1250.91,928.16,1248.1,894.92,1252.99z"/>
		<path class="st32" d="M1053.43,894.89c12.1,7.13,24.54,13.68,38.34,16.98c2.32,0.45,8.72,1.9,7.92-2.52
			c-0.8-4.41-8-7.49-11.32-9.33c-0.08-15.63,5.09-26.26-14.4-36.61c-19.49-10.35-43.06,3.07-48.2,28.4
			c2.78,4.52,8.37,7.34,13.24,9.72C1044.38,900.45,1049.38,898.63,1053.43,894.89z"/>
		<g>
			<path class="st36" d="M1125.51,1258.7h59.48v-72.3c0-5.62,4.6-10.22,10.22-10.22h102.22c5.62,0,10.22,4.6,10.22,10.22v76.67
				c0,5.62-4.6,10.22-10.22,10.22h-77.57c-0.83,0.32-1.74,0.5-2.69,0.5h-91.67c-4.17,0-7.54-3.38-7.54-7.55
				C1117.97,1262.08,1121.34,1258.7,1125.51,1258.7z"/>
			<path class="st32" d="M1196.92,1186.4v76.67c0,5.62,4.6,10.22,10.22,10.22h102.22c5.62,0,10.22-4.6,10.22-10.22v-76.67
				c0-5.62-4.6-10.22-10.22-10.22h-12.47c-0.06-0.03-0.17-0.05-0.36-0.08c-1.09-0.17-19.13-15.73-34.97-15.62
				c-21.95,0.16-44.79,13.17-49.03,15.7h-5.39C1201.52,1176.18,1196.92,1180.78,1196.92,1186.4z M1286.51,1176.18h-56.5
				c6.79-3.08,23.79-10.4,31.44-10.16C1268.44,1166.23,1282.88,1174.13,1286.51,1176.18z"/>
		</g>
	</g>
</g>
</svg>
