<?xml version="1.0" encoding="utf-8"?>
<!-- Generator: Adobe Illustrator 24.3.0, SVG Export Plug-In . SVG Version: 6.00 Build 0)  -->
<svg version="1.1" xmlns="http://www.w3.org/2000/svg" xmlns:xlink="http://www.w3.org/1999/xlink" x="0px" y="0px"
	 viewBox="0 0 1984.25 1417.32" style="enable-background:new 0 0 1984.25 1417.32;" xml:space="preserve">
<style type="text/css">
	.st0{opacity:0.5;fill:#D6B49D;}
	.st1{opacity:0.7;}
	.st2{fill:#ACC9EA;}
	.st3{opacity:0.8;}
	.st4{fill:#9CD099;}
	.st5{fill:#72B772;}
	.st6{fill:#B0C0E3;}
	.st7{fill:#C5C5C4;}
	.st8{fill:#BAD768;}
	.st9{fill:#4F2A18;}
	.st10{fill:#009444;}
	.st11{fill:#176232;}
	.st12{fill:#8D341D;}
	.st13{fill:#E5DE98;}
	.st14{fill:#006838;}
	.st15{fill:#11385A;}
	.st16{fill:#F9A56C;}
	.st17{fill:#FAB27C;}
	.st18{fill:#FBB040;}
	.st19{fill:#157EC3;}
	.st20{fill:#D86F77;}
	.st21{fill:#1C8CCC;}
	.st22{fill:#414042;}
	.st23{fill:#D3489A;}
	.st24{fill:#58595B;}
	.st25{fill:#1C75BC;}
	.st26{fill:#F7941D;}
	.st27{fill:#A7A9AC;}
	.st28{fill:#F9F3A2;}
	.st29{fill:#C42228;}
	.st30{fill:#939598;}
	.st31{fill:#5A5D5C;}
	.st32{fill:#314097;}
	.st33{fill:#7A2A19;}
	.st34{fill:#A6B5D1;}
	.st35{fill:#B0B0AF;}
	.st36{opacity:0.1;}
	.st37{fill:#EDA340;}
	.st38{opacity:0.8;fill:#8FBC8C;}
</style>
<g id="linework">
	<polygon class="st0" points="1905.12,1399.57 86.53,1399.57 227.62,1204.7 1744.28,1204.7 	"/>
	<g class="st1">
		<g id="XMLID_1_">
			<g>
				<path class="st2" d="M1507.67,792.03V541.04h-149.12v250.99H1507.67z M1350.35,792.03V541.04h-157.33h-0.01v250.99h0.01H1350.35
					z M1507.68,800.21h-149.13v198.5h149.13V800.21z M1507.67,532.86v-141.3c0-109.35-66.47-197.98-148.47-197.98h-0.65v339.28
					H1507.67z M1350.35,800.21h-157.33v198.5h157.33V800.21z M1193.03,532.86h157.33V193.59h-0.01h-8.84
					c-81.99,0-148.49,88.63-148.49,197.98v141.3H1193.03z M1521.48,393.03v629.17h-13.8h-314.65h-13.8V393.03
					c0-120.79,71.41-218.71,159.51-218.71h23.24C1450.07,174.31,1521.48,272.23,1521.48,393.03z"/>
				<path class="st2" d="M1016.3,792.03h149.12V541.04H1016.3V792.03z M1016.3,998.72h149.13v-198.5H1016.3V998.72z M1016.3,532.86
					h149.12v-141.3c0-109.35-66.47-197.98-148.47-197.98h-0.65V532.86z M850.77,541.04v250.99h0.01h157.33V541.04H850.78H850.77z
					 M1008.1,998.72v-198.5H850.78v198.5H1008.1z M850.78,532.86h157.33V193.59h-0.01h-8.83c-82,0-148.5,88.63-148.5,197.98v141.3
					H850.78z M1179.23,393.03v629.17h-13.8H850.78h-13.8V393.03c0-120.79,71.41-218.71,159.51-218.71h23.24
					C1107.82,174.31,1179.23,272.23,1179.23,393.03z"/>
				<path class="st2" d="M674.04,193.59v339.28h149.12v-141.3c0-109.35-66.47-197.98-148.47-197.98H674.04z M674.04,800.21v198.5
					h149.13v-198.5H674.04z M665.85,532.86V193.59h-8.84c-82,0-148.49,88.63-148.49,197.98v141.3H665.85z M665.85,800.21H508.53
					v198.5h157.33V800.21z M823.16,541.04H674.04v250.99h149.12V541.04z M665.85,792.03V541.04H508.53v250.99H665.85z
					 M836.98,393.03v629.17h-13.8H508.53h-13.8V393.03c0-120.79,71.41-218.71,159.51-218.71h23.24
					C765.57,174.31,836.98,272.23,836.98,393.03z"/>
			</g>
			<g>
			</g>
		</g>
	</g>
	<g class="st3">
		<g id="XMLID_2_">
			<g>
				<path class="st4" d="M455.58,548.52c2.93,17.58,6.57,208.86-93.34,242.52l-5.52-7.09c3.5,0,10.92-50.12,10.92-50.12
					s11.13-6.05,27.21-22.76c16.08-16.71,8.15-13.44,8.15-13.44s-35.14,34.94-35.13,27.33c0.01-7.61,10.11-65.35,15.24-67.58
					c5.13-2.23,50.03-22.05,39.83-19.77c-10.21,2.27-37.75,12.97-37.75,12.97s0,0,12.95-35.17c12.96-35.18,50.09-73.53,35.22-62.5
					c-14.87,11.03-39.96,59.21-39.96,59.21s-6.37-33.14-8.17-36.99c-0.13-0.27-0.2-0.3-0.24-0.13l-11.36-2.58
					C432.47,507.37,452.87,532.21,455.58,548.52z"/>
				<path class="st5" d="M433.36,552.91c14.87-11.03-22.26,27.32-35.22,62.5c-12.95,35.17-12.95,35.17-12.95,35.17
					s27.54-10.7,37.75-12.97c10.2-2.28-34.7,17.54-39.83,19.77c-5.13,2.23-15.23,59.97-15.24,67.58
					c-0.01,7.61,35.13-27.33,35.13-27.33s7.93-3.27-8.15,13.44c-16.08,16.71-27.21,22.76-27.21,22.76s-7.42,50.12-10.92,50.12
					c-0.35,0-0.66-0.5-0.92-1.6c0,0,6.83-40.93,12.9-89.71c0,0-12.92-57.4-9.23-52.86c3.69,4.53,11.72,45.95,11.72,45.95
					s15.27-59.84,17.94-64.85c2.47-4.65-4.58-43.55-4.14-45.88c0.04-0.17,0.11-0.14,0.24,0.13c1.8,3.85,8.17,36.99,8.17,36.99
					S418.49,563.94,433.36,552.91z"/>
				<polygon class="st6" points="285.55,1077.46 406.95,1077.46 425.99,1077.46 425.99,1204.71 269.9,1204.71 269.9,1077.46 				"/>
				<path class="st7" d="M406.95,1077.46h-121.4c7.08-9.27,31.57-16.11,60.7-16.11c3.48,0,6.89,0.1,10.21,0.29
					C380.98,1063.02,400.72,1069.29,406.95,1077.46z"/>
				<path class="st4" d="M331.28,529.97c-0.54-1.74-1.26-4.29-2-7.5l4.85-0.6c0.74,3.39,10.49-21.39,10.49-21.39
					s5.71-1.58,14.82-7.5c9.1-5.92,5.14-5.27,5.14-5.27s-19.73,12.22-18.92,8.75c0.81-3.47,11.53-28.73,14.1-29.21
					c2.58-0.47,25.15-4.76,20.26-4.8c-4.9-0.05-18.59,1.92-18.59,1.92s0,0,9.63-14.67c8.6-13.1,26.26-25.33,24.28-25.33l7.57-0.32
					c3.36,32.66-0.26,103.39-67.79,108.38c-0.98,0.08-1.97,0.14-2.98,0.18C332.14,532.61,331.8,531.68,331.28,529.97z"/>
				<path class="st4" d="M402.91,424.05l-7.57,0.32c-0.24,0-0.76,0.18-1.61,0.55c-7.95,3.46-24.49,22.78-24.49,22.78
					s0.6-15.79,0.19-17.74c-0.42-1.94-1.32,19.28-3.06,21.28c-1.75,2-15.04,27.68-15.04,27.68s0.71-19.74-0.49-22.2
					c-1.2-2.45-1.38,25.09-1.38,25.09c-7.93,21.6-15.37,39.55-15.37,39.55c0,0.21,0.02,0.38,0.04,0.51l-4.85,0.6
					c-5.76-24.76-12.83-88.46,55.88-118.6c0,0,10.6-8.33,15.14,5.3C401.11,411.59,402.18,416.91,402.91,424.05z"/>
				<path class="st5" d="M395.34,424.37c1.98,0-15.68,12.23-24.28,25.33c-9.63,14.67-9.63,14.67-9.63,14.67s13.69-1.97,18.59-1.92
					c4.89,0.04-17.68,4.33-20.26,4.8c-2.57,0.48-13.29,25.74-14.1,29.21c-0.81,3.47,18.92-8.75,18.92-8.75s3.96-0.65-5.14,5.27
					c-9.11,5.92-14.82,7.5-14.82,7.5s-9.75,24.78-10.49,21.39c-0.02-0.13-0.04-0.3-0.04-0.51c0,0,7.44-17.95,15.37-39.55
					c0,0,0.18-27.54,1.38-25.09c1.2,2.46,0.49,22.2,0.49,22.2s13.29-25.68,15.04-27.68c1.74-2,2.64-23.22,3.06-21.28
					c0.41,1.95-0.19,17.74-0.19,17.74s16.54-19.32,24.49-22.78C394.58,424.55,395.1,424.37,395.34,424.37z"/>
				<path class="st4" d="M384.99,575c-0.44,2.33,6.61,41.23,4.14,45.88c-2.67,5.01-17.94,64.85-17.94,64.85s-8.03-41.42-11.72-45.95
					c-3.69-4.54,9.23,52.86,9.23,52.86c-6.07,48.78-12.9,89.71-12.9,89.71c0.26,1.1,0.57,1.6,0.92,1.6l5.52,7.09
					c-2.61,0.88-5.29,1.65-8.04,2.3c-0.78,0.19-1.57,0.37-2.37,0.54c0,0-1.02-1.33-2.71-3.83c-12.84-19.02-64.22-105.88,2.71-191.55
					c7.79-9.98,15.05-18.62,21.8-26.08L384.99,575z"/>
				<path class="st5" d="M289.81,679.09c1.98-14.71,5.51-24.07,5.51-24.07c32.2-107.73,19.54-136.58,7.67-167.11
					c-11.88-30.54-3.4-22.06-3.4-22.06c8.73,6.55,22.03,35.92,22.72,79.53v0.03v7.19c-0.36,22.57-4.11,48.59-13.39,76.97
					c-28.84,88.22-7.63,118.76,24.6,162.87c4.67,6.39,8.92,12.65,12.7,18.88c1.45,2.39,2.83,4.77,4.13,7.16
					c18.85,34.37,23.04,69.52,6.11,125.8c-21.18,70.41,0,117.36,0,117.36c-3.32-0.19-6.73-0.29-10.21-0.29
					c-11.72-68.71-4.02-81.37,5.88-126.61c0.67-3.09,1.36-6.34,2.05-9.77c0.19-0.9,0.37-1.81,0.55-2.74
					c11.03-55.99,2.17-90.37-40.72-146.76c-23.8-31.29-26.94-64.96-25.02-88.71C289.21,684.07,289.49,681.51,289.81,679.09z"/>
				<path class="st5" d="M354.2,793.34v0.01c0,0-1.53,13.09-3.84,25.13h-0.01c-1.3-2.39-2.68-4.77-4.13-7.16
					c2.62-9.74,2.9-21.27,2.9-21.27c1.69,2.5,2.71,3.83,2.71,3.83C352.63,793.71,353.42,793.53,354.2,793.34z"/>
				<path class="st5" d="M354.18,924.97c-0.69,3.43-1.38,6.68-2.05,9.77c-6.05-20.44-22.01-37.75-22.01-37.75
					c1.67-0.27,3.36-0.56,5.05-0.87c0,0,0.87-1.58,1.84-4.64C337.01,891.48,348.87,903.85,354.18,924.97z"/>
				<path class="st4" d="M296.55,782.52c50.12,57.45,44.49,96.16,40.46,108.96c-0.97,3.06-1.84,4.64-1.84,4.64
					c-1.69,0.31-3.38,0.6-5.05,0.87c-188.17,30.3-237.03-217.62-208.51-235.07C150.39,644.31,234.45,711.34,296.55,782.52z
					 M316.26,880.44c11.74,4.15-34.39-36.22-34.39-36.22s0.93-12.63-4.41-35.19c-5.35-22.57-6.9-14.14-6.9-14.14
					s10.37,48.46,3.98,44.34c-6.4-4.13-49.48-43.87-48.58-49.4c0.9-5.52,8.53-53.99,4.92-44.18c-3.61,9.81-9.51,38.76-9.51,38.76
					s0,0-22.57-29.93s-34.73-81.91-33.5-63.44c1.23,18.47,28.16,65.65,28.16,65.65s-31.3-12.58-35.52-13.15
					c-4.21-0.57,37.82,16.54,40.58,21.49c2.77,4.95,44.83,50.18,44.83,50.18s-39.18-15.67-44.99-15.02
					c-5.81,0.65,49.45,20.85,49.45,20.85C285.53,852.55,316.26,880.44,316.26,880.44z"/>
				<path class="st5" d="M335.12,532.43l0.02,0.18c-5.94,9.69-12.83,19.99-12.83,19.99c0.04-2.44,0.04-4.84,0-7.19v-0.03
					c4.63-6.57,8.77-15.01,8.97-15.41c0.52,1.71,0.86,2.64,0.86,2.64C333.15,532.57,334.14,532.51,335.12,532.43z"/>
				<path class="st5" d="M281.87,844.22c0,0,46.13,40.37,34.39,36.22c0,0-30.73-27.89-68.45-59.4c0,0-55.26-20.2-49.45-20.85
					c5.81-0.65,44.99,15.02,44.99,15.02s-42.06-45.23-44.83-50.18c-2.76-4.95-44.79-22.06-40.58-21.49
					c4.22,0.57,35.52,13.15,35.52,13.15s-26.93-47.18-28.16-65.65c-1.23-18.47,10.93,33.51,33.5,63.44s22.57,29.93,22.57,29.93
					s5.9-28.95,9.51-38.76c3.61-9.81-4.02,38.66-4.92,44.18c-0.9,5.53,42.18,45.27,48.58,49.4c6.39,4.12-3.98-44.34-3.98-44.34
					s1.55-8.43,6.9,14.14C282.8,831.59,281.87,844.22,281.87,844.22z"/>
				<path class="st5" d="M289.81,679.09c-0.32,2.42-0.6,4.98-0.82,7.67c-8.83-8.07-16.02-27.68-16.02-27.68
					c0.79,0.25,1.58,0.51,2.38,0.76c0,0,0.48-1.42,1.22-4C276.57,655.84,281.17,669.54,289.81,679.09z"/>
				<path class="st4" d="M251.87,518.98c47.74,43.1,29.88,118.71,24.7,136.86c-0.74,2.58-1.22,4-1.22,4
					c-0.8-0.25-1.59-0.51-2.38-0.76c-117.7-38.55-93.02-145.49-90.01-158.27C185.98,487.93,197.34,469.76,251.87,518.98z
					 M252.34,614.04c0,0,13.49,34.27,13.52,26.79c0,0-9.55-23.03-19.73-50.75c0,0-0.23-35.34-1.77-32.19
					c-1.54,3.15-0.62,28.49-0.62,28.49s-17.06-32.95-19.3-35.52c-2.24-2.57-3.4-29.8-3.93-27.31c-0.53,2.5,0.24,22.76,0.24,22.76
					s-21.22-24.79-31.42-29.23c-10.2-4.44,16.74,12.97,29.09,31.8c12.36,18.83,12.36,18.83,12.36,18.83s-17.58-2.53-23.86-2.48
					c-6.28,0.06,22.69,5.56,25.99,6.17c3.31,0.61,17.06,33.03,18.1,37.48c1.03,4.45-24.27-11.23-24.27-11.23s-5.09-0.83,6.59,6.77
					C245.01,612.01,252.34,614.04,252.34,614.04z"/>
				<path class="st5" d="M265.86,640.83c-0.03,7.48-13.52-26.79-13.52-26.79s-7.33-2.03-19.01-9.62c-11.68-7.6-6.59-6.77-6.59-6.77
					s25.3,15.68,24.27,11.23c-1.04-4.45-14.79-36.87-18.1-37.48c-3.3-0.61-32.27-6.11-25.99-6.17c6.28-0.05,23.86,2.48,23.86,2.48
					s0,0-12.36-18.83c-12.35-18.83-39.29-36.24-29.09-31.8c10.2,4.44,31.42,29.23,31.42,29.23s-0.77-20.26-0.24-22.76
					c0.53-2.49,1.69,24.74,3.93,27.31c2.24,2.57,19.3,35.52,19.3,35.52s-0.92-25.34,0.62-28.49c1.54-3.15,1.77,32.19,1.77,32.19
					C256.31,617.8,265.86,640.83,265.86,640.83z"/>
			</g>
			<g>
			</g>
		</g>
	</g>
	<g>
		<g>
			<g id="XMLID_3_">
				<g>
					<path class="st8" d="M1489.57,777.08c0,0,1.59,56.61-34.01,60.78c-0.93,0.11-1.89,0.18-2.88,0.22c0,0,0,0,0-0.01
						C1452.59,837.25,1448.18,792.93,1489.57,777.08z"/>
					<path class="st8" d="M1420.06,892.43c0,0,0,0,0-0.01c4.15-7.86,8.15-15.03,11.86-21.41c3.11-5.38,6.02-10.19,8.64-14.4
						c0-0.01,0.01-0.02,0.02-0.05c3.16-5.09,5.89-9.29,8.02-12.49c1.83-2.75,3.22-4.76,4.08-5.98c0,0,0,0,0-0.01
						c0.99-0.04,1.95-0.11,2.88-0.22v0.01l0.83,0.5c0,0-2.12,2.7-5.71,7.81h-0.01c-5.36,7.62-13.99,20.59-23.75,38.03
						c0,0-0.01,0.01-0.02,0.03c-0.01,0.01-0.01,0.01-0.01,0.01c-0.43,0.77-0.86,1.53-1.3,2.32v0.01
						c-5.15,9.34-10.61,19.89-16.04,31.53c-0.02,0.03-0.03,0.04-0.03,0.04v0.01c-0.24,0.5-0.47,1-0.71,1.52v0.01
						c-5.48,11.85-10.94,24.81-16.04,38.73l-0.11-0.04c2.38-6.37,4.3-13.55,5.87-20.74c0.01,0,0.01-0.02,0.01-0.02
						c5.86-13.75,11.89-26.46,17.73-37.88C1417.54,897.24,1418.81,894.8,1420.06,892.43z"/>
					<path class="st8" d="M1426.92,884.21c1.07-1.1,27.37-27.46,53.42,1.13c0,0-25.23,31.55-54.75,1.24v-0.01
						c0.44-0.79,0.87-1.55,1.3-2.32c0,0,0,0,0.01-0.01C1426.91,884.22,1426.92,884.21,1426.92,884.21z"/>
					<path class="st8" d="M1409.55,918.11c1.08-1.13,27.43-28.29,54.3,0.59c0,0-24.33,31.32-55.04,0.98
						c0.24-0.52,0.47-1.02,0.71-1.52v-0.01C1409.52,918.15,1409.53,918.14,1409.55,918.11z"/>
					<path class="st7" d="M1434.78,1097.59v108.45H1278.7V1098.1c0-9.43,6.75-17.27,15.69-18.96c1.17-0.22,2.38-0.34,3.61-0.34
						h117.75h0.24C1426.37,1078.8,1434.78,1087.21,1434.78,1097.59z"/>
					<path class="st8" d="M1386.55,839.12c33.93,10.19,33.98,45.14,33.51,53.3c0,0.01,0,0.01,0,0.01c-1.25,2.37-2.52,4.81-3.79,7.31
						c-3.68-1.77-6.94-3.73-9.81-5.83h-0.01c2.55-9.91-0.45-11.66-0.45-11.66c-0.73,2.18-2.16,4.8-4.13,7.9
						c-12.3-11.25-15.77-25.3-16.36-35.8c0-0.07-0.01-0.13-0.01-0.2C1385.03,845.37,1386.55,839.12,1386.55,839.12z"/>
					<path class="st5" d="M1415.75,1078.8H1298c-1.23,0-2.44,0.12-3.61,0.34l-0.06-0.34c7.07-9.28,31.57-16.12,60.71-16.12
						c0.08,0,0.15,0,0.23,0c2.71,0,5.37,0.07,7.98,0.19c1.47,0.06,2.91,0.14,4.34,0.24
						C1391.03,1064.75,1409.72,1070.89,1415.75,1078.8z"/>
					<path class="st8" d="M1392.51,959.13c0,0,16.27-18.3,34.49,0.87c0,0-16.38,20.06-35.44,1.75
						C1391.88,960.87,1392.2,960,1392.51,959.13z"/>
					<path class="st4" d="M1406,882.25c0,0,3,1.75,0.45,11.66c-0.13,0.53-0.28,1.08-0.45,1.65c-1.69,5.8-3.5,23.98-7.46,42.06
						c0,0,0,0.02-0.01,0.02c-0.27,0.63-0.54,1.27-0.81,1.91h-0.01c0.09-0.79,1.8-16.02-14.89-21.66
						c7.79-11.84,14.72-20.94,19.05-27.74C1403.84,887.05,1405.27,884.43,1406,882.25z"/>
					<path class="st8" d="M1389.35,960.59c2.2-5.89,4.47-11.63,6.78-17.21v-0.01c0.52-1.28,1.05-2.54,1.58-3.79
						c0,0,0-0.01,0.01-0.03c0.27-0.64,0.54-1.28,0.81-1.91c-1.57,7.19-3.49,14.37-5.87,20.74c-2.21,5.91-4.82,11.14-7.95,15.05
						c0.85-2.46,1.72-4.88,2.59-7.29v-0.01C1387.97,964.26,1388.65,962.42,1389.35,960.59z"/>
					<path class="st8" d="M1397.71,939.55h0.01c-0.01,0.02-0.01,0.03-0.01,0.03c-0.53,1.25-1.06,2.51-1.58,3.79h-0.01
						c-15.61-8-13.79-23.12-13.45-25.26c0.05-0.08,0.1-0.15,0.15-0.22C1399.51,923.53,1397.8,938.76,1397.71,939.55z"/>
					<path class="st4" d="M1396.13,943.37L1396.13,943.37c-2.31,5.59-4.58,11.33-6.78,17.22c-0.1-3.37-1.48-15.05-15.45-19.16
						c0,0-1.71,17.99,13.39,24.7h0.01v0.01c-0.87,2.41-1.74,4.83-2.59,7.29v0.01c-1.65,2.07-3.45,3.78-5.4,5.02
						c-19.61,12.48-28.18,12.89-28.18,12.89s0,0,0-0.01c0.23-0.84,10.94-39.75,24.93-62.79c2.24-3.69,4.46-7.17,6.61-10.44
						c-0.34,2.14-2.16,17.26,13.45,25.26H1396.13z"/>
					<path class="st5" d="M1392.77,958.42c-0.08,0.23-0.17,0.47-0.26,0.71c-0.31,0.87-0.63,1.74-0.95,2.62v0.01
						c-10.71,29.91-19.71,64.13-23.97,101.35c-1.43-0.1-2.87-0.18-4.34-0.24c0.03-0.27,0.07-0.53,0.1-0.8
						c4.06-31.34,11.91-61.32,21.36-88.62c0-0.01,0-0.01,0-0.01v-0.01c3.13-3.91,5.74-9.14,7.95-15.05L1392.77,958.42z"/>
					<path class="st8" d="M1389.35,960.59c-0.7,1.83-1.38,3.67-2.05,5.54h-0.01c-15.1-6.71-13.39-24.7-13.39-24.7
						C1387.87,945.54,1389.25,957.22,1389.35,960.59z"/>
					<path class="st4" d="M1373.83,855.05c0.63,12.87,0.35,30.14-3.63,45.51c-7.54,29.08-27.66,51.21-27.66,51.21
						c-0.2-0.75-0.4-1.49-0.6-2.21l0.6-0.17c0,0,5.76-42.73,8.63-59.6s20.83-54.21,20.83-54.21S1373.28,843.56,1373.83,855.05z"/>
					<path class="st5" d="M1339.83,950.85c-0.15-0.61-0.32-1.23-0.49-1.84c-3.21-11.89-7.06-23.44-11.68-33.88l2.16-0.95
						c0,0,5.82,12.62,12.12,35.38c0.2,0.72,0.4,1.46,0.6,2.21c2.98,11.04,6.03,24.31,8.59,39.57c0,0.01,0,0.01,0,0.01
						c3.38,20.08,5.9,43.59,6.29,69.92h-2.14c0,0-1.26-44.84-10.92-91.16C1343.03,963.68,1341.52,957.22,1339.83,950.85z"/>
					<path class="st4" d="M1340.27,971.65c1.88,22.39-41.53,14.01-62.24,4.15c-20.4-9.7-45.55-22.92-46.33-23.33
						c0.65,0.1,15.71,2.56,53.69,4.8c12.14,0.71,22.02,2.09,29.89,3.73c15.73,3.28,23.37,7.65,24.76,10.01
						C1340.18,971.24,1340.25,971.46,1340.27,971.65z"/>
					<path class="st4" d="M1339.34,949.01c0.17,0.61,0.34,1.23,0.49,1.84c-3.77,0.29-12.59,0.73-23.59-0.31
						c-9.68-0.9-21.06-2.95-32.18-7.24c-28.02-10.82-53.85-36.41-53.85-36.41s40.81,7.17,56.19,14.67
						C1300.73,928.54,1334.73,946.56,1339.34,949.01z"/>
					<path class="st4" d="M1338.97,844.19c6.82,21.9,8.97,66.06-12.93,61.04c-3.01-0.69-9.69-17.59-6.46-56.37
						c3.23-38.77,2.85-53.85,2.85-53.85S1332.14,822.29,1338.97,844.19z"/>
					<path class="st4" d="M1277.34,876.04c26.92,13.33,50.32,41.16,50.32,41.16s-39.98-10.85-54.62-19.72s-50.72-32.46-50.72-32.46
						l0.01-1.56C1229.21,863.54,1254.35,864.67,1277.34,876.04z"/>
					<path class="st4" d="M1300.19,819.78c15.8,26.93,12.21,56.73,12.21,56.73c-39.13-39.5-53.14-104.48-53.14-104.48
						C1270.75,786.39,1284.4,792.86,1300.19,819.78z"/>
				</g>
				<g>
				</g>
			</g>
		</g>
	</g>
	<g id="XMLID_4_">
		<g>
			<path class="st9" d="M1028.3,825.41c1.5,3.07,3.34,7.6,5.06,12.28l-0.6,0.05c0,0-19.51,13.12-33.75,4.26
				c-17.55-10.93-5.96-26.5-18.47-48.32c-9.99-17.43-1.95-31.36,1.69-36.26c0.23-0.31,0.44-0.58,0.63-0.82l11.73,1.02
				c-4.13,6.15-7.93,16.74-4.27,33.36C996.15,817.45,1007.97,832.64,1028.3,825.41L1028.3,825.41z"/>
			<path class="st10" d="M1072.12,911.21c-1.33-0.45-2.67-0.88-4.04-1.31c17.23-45.36,37.65-42.78,37.65-42.78
				c2.44,0.53,6.06,2.16,9.22,5.43c7.19,7.45,11.94,23.43-5.43,54.42c0,0-2.05-1.11-5.67-2.86
				C1097.38,920.98,1085.87,915.78,1072.12,911.21z"/>
			<polygon class="st11" points="1176.06,958.78 1176.06,967.94 1169.29,967.94 1169.29,958.78 1175.79,958.78 			"/>
			<path class="st12" d="M833.63,1006.27c-3.86-4.47-7.73-8.93-11.59-13.4c0.83,2.62,1.85,5.16,3.11,7.59
				c2.92,5.61,1.64,6.64,1.09,6.16c-3.67-3.33-7.8-9.15-12.25-14.15h8.05h5.45c3.36,3.34,6.08,7.83,8.02,12
				c0.44,0.92,0.58,2.42-0.42,2.62c-0.05,0.01-0.1,0.01-0.16,0.01C834.43,1007.1,833.98,1006.68,833.63,1006.27z"/>
			<path class="st13" d="M680.39,1035.02c-13.47-1.29-5.03-19.08-1.4-25.69c11.06,0.05,24.97,0.79,41.95,2.85
				c0,0,0.02,0.12,0.07,0.34c0,0,0,0,0,0.01v1.09h0.21c0.57,2.9,1.94,9.61,3.4,15.19C703.64,1032.18,686.29,1035.59,680.39,1035.02z
				"/>
			<path class="st12" d="M836.17,993.02c2.6,2.5,6.12,8.23,4.95,9.3c-0.27,0.19-0.58,0.26-0.86,0.25c-0.02,0-0.04,0-0.05,0
				c-1.28-0.1-2.64-1.72-3.63-2.8c-2.32-2.49-4.93-5.21-7.81-7.3c0,0,0,0,0.01,0h6.83C835.8,992.66,835.98,992.84,836.17,993.02z"/>
			<path class="st14" d="M1000.28,897.39c10.09-26.59,21.3-36.69,28.83-40.49c-4.57,2.69-9.37,7.38-13,19.17
				c-1.54,5.03-2.87,11.36-3.89,19.39c-0.31,2.48-0.64,4.92-0.92,7.33c-0.14-0.2-1.72-2.4-7.66-4.42
				C1002.65,898.04,1001.53,897.71,1000.28,897.39z"/>
			<path class="st15" d="M738.06,841.82c8.76-8.39,15.89-21.21,20.07-35.08l5.17,1.6c-2.98,7.98,2.81,10.95,0.81,34.9
				c-1.84,22.06-18.01,36.15-25.69,41.65c-6.37-9.58-12.45-14.31-17.1-16.64c-0.06-0.04-0.13-0.06-0.17-0.06
				c-3.17-1.86-6.24-2.78-8.69-4.53c1.86-7.05,4.23-13.88,7.44-20.42v-0.01c0.28,0.28,0.57,0.55,0.87,0.83
				C721.3,844.55,728.55,850.92,738.06,841.82z"/>
			<path class="st12" d="M906.65,956.36c-6.69,5.74-15.98,10.01-19.16,11.38c-0.74-0.25-1.14-0.39-1.14-0.39l3.29-10.4
				c2.3-0.13,4.57-0.24,6.8-0.33c-0.15,0.12-0.3,0.23-0.45,0.33c0.52-0.09,1.02-0.21,1.5-0.37
				C900.62,956.47,903.67,956.39,906.65,956.36z"/>
			<path class="st16" d="M906.65,956.36c42.95-0.54,70.02,6.54,70.02,6.54c0.99-3.33,2.07-6.63,3.2-9.92
				c6.12,5.11,14.05,11.8,22.59,18.58v0.01c-9.77,16.92-18.59,19.75-23.39,19.75c-2.41,0-3.81-0.71-3.81-0.71
				c-19.12,0.06-78.78-19.84-87.77-22.87C890.67,966.37,899.96,962.1,906.65,956.36z"/>
			<path class="st11" d="M1120.05,878.55c0,0,8.92,12.08-2.75,64.3c-6.11,27.35-9.03,41.93-10.41,49.62h-38.23
				c5.17-10.24,13.05-26.2,13.05-26.2c0.02,0,11.99-21.52,22.14-42.16c3.62,1.75,5.67,2.86,5.67,2.86
				c17.37-30.99,12.62-46.97,5.43-54.42c0.45-0.1,0.91-0.21,1.38-0.3h0.01C1117.66,874.2,1118.9,876.3,1120.05,878.55z"/>
			<path class="st17" d="M1028.3,825.4c-20.33,7.24-32.15-7.95-37.98-34.42c-3.66-16.62,0.14-27.21,4.27-33.36
				c3.36-4.99,6.94-7.06,6.94-7.06c2.68,6.2,20.38,11.26,31.82,15.19c11.43,3.94,11.87,17.01,11.87,17.01
				c3.89-3.94,10.23-6.78,13.53,1.21c3.3,8-6.73,12.93-6.73,12.93c-1.13,4.01-2.5,7.43-3.95,10.34
				c-4.98,10.02-10.87,13.87-10.87,13.87C1034.07,822.99,1031.1,824.41,1028.3,825.4z"/>
			<path class="st9" d="M974.9,736.44c9.66-12.68,29.3-16.38,37.77-5.19c0,0,37.63-22.27,50.8,14.69c0,0,2.97,8.09,3.05,17.33
				c0.08,9.25,24.57,24.16,22.51,43.63c-1.67,15.85-20.06,22.65-29.69,21.96c-4.43-7.21-8.9-14.94-11.27-21.62
				c1.45-2.91,2.82-6.33,3.95-10.34c0,0,10.03-4.93,6.73-12.93c-3.3-7.99-9.64-5.15-13.53-1.21c0,0-0.44-13.07-11.87-17.01
				c-11.44-3.93-29.14-8.99-31.82-15.19c0,0-3.58,2.07-6.94,7.06l-11.73-1.02c0.57-0.71,0.93-1.08,0.93-1.08
				S965.25,749.11,974.9,736.44z"/>
			<path class="st18" d="M623.16,1120.6c11.27,0,151.21,0,151.21,0l-18.59,31.2h-44.02h-42.04h-51.76c0,0-22.53,0.87-33.8-27.73
				c-11.27-28.6-74.54-181.43-15.6-225.5c7.01-5.24,13.93-6.86,20.67-5.62c1.74,5.23,4.21,10.17,7.45,14.56
				c-12.15,0.43-26.47,7.79-30.72,38.01c-7.8,55.47,38.56,161.19,38.56,161.19s1.83,7.46,8.8,11.45c0.02,0,0.03,0.01,0.04,0.02
				c0.08,0.04,0.16,0.08,0.24,0.12c0.3,0.17,0.62,0.33,0.94,0.48c0,0.01,0.01,0.01,0.01,0.01
				C616.88,1119.89,619.72,1120.6,623.16,1120.6z"/>
			<path class="st12" d="M843.69,992.47c1.51,2.74,2.54,6.45-1.89,2.88c-1.1-0.89-2.15-1.88-3.18-2.88h0.01H843.69z"/>
			<path class="st17" d="M1069.24,845.07c0,0-14.79,22.2-31.16,7.17c-0.99-3.75-2.78-9.24-4.72-14.55
				c-1.72-4.68-3.56-9.21-5.06-12.28v-0.01c2.8-0.99,5.77-2.41,8.9-4.29c0,0,5.89-3.85,10.87-13.87
				c2.37,6.68,6.84,14.41,11.27,21.62C1063.08,834.93,1066.8,840.64,1069.24,845.07z"/>
			<path class="st19" d="M734.42,887.5c1.55,5.03,2.89,11.36,3.9,19.38c1.43,11.44,3.1,22.06-0.28,33.06
				c-1.9,6.15-5.66,10.84-8.37,16.44c-0.47,0.98-0.91,1.97-1.31,3.02c-0.45,1.16-0.87,2.34-1.27,3.5
				c-10.17-0.5-17.06-0.81-17.06-0.81c-15.5-11.27-27.57-40.77-27.57-40.77c-17.23-45.36-37.65-42.78-37.65-42.78
				c-3.56,0.78-9.66,3.89-13.12,11.04l-0.77-0.41c16.46-31.09,50.38-32.68,50.38-32.68s14.79,22.2,31.16,7.17
				c2.45,1.75,5.52,2.67,8.69,4.53c0.04,0,0.11,0.02,0.17,0.06C725.92,870.94,730.77,875.6,734.42,887.5z"/>
			<path class="st13" d="M777.85,1114.77l-0.66,1.11h-0.01c-12.02,0.5-35.86,0.69-62.37-3.5c11.77-3.87,24.82-10.4,38.01-21.12
				c0,0,11.22-8.54,25.03-15.21c8.93-4.31,18.93-7.84,27.7-7.79c3.65,0.02,7.09,0.66,10.15,2.13c8.25,3.96,9.34,27.63,7.51,55.47
				c-2.98,45.45-13.73,102-13.73,102h-19.39c0,0-16.32-73.92-4.67-112.48c0,0-2.74,0.26-7.57,0.47V1114.77z"/>
			<path class="st20" d="M936.66,906.3c2.96,2.14,6.48,3.46,6.48,3.45c0,0.01-11.79,0.78-25.72-0.16v-0.01l-1.39-4.92
				c-0.84-2.96,0.88-6.04,3.84-6.87l0.75-0.21l6.46-1.83l0.75-0.21c2.96-0.84,6.03,0.88,6.87,3.84l0.07,0.23
				c-2.38-0.8-3.21,0.16-1.46,3.26c0.73,1.28,1.98,2.44,3.35,3.42V906.3z"/>
			<path class="st21" d="M803.07,985.53c0,0-22.43,2.56-50.11,6.94c-7.2,1.13-14.74,2.39-22.34,3.76c-3.32,0.59-6.43,1.05-9.36,1.35
				c-0.08,0.01-0.17,0.02-0.25,0.03c-29.48,3.27-40.32-6.36-47.89-15.15c-45.19-52.26-47.88-79.56-41.43-92.88
				c3.46-7.15,9.56-10.26,13.12-11.04c0,0,20.42-2.58,37.65,42.78c0,0,12.07,29.5,27.57,40.77c0,0,6.89,0.31,17.06,0.81
				c2.54,0.13,5.29,0.26,8.18,0.44c22.31,1.16,53.49,2.99,67.8,4.85c0,0-0.09,1.06-0.19,2.71c-0.18,2.97-0.37,7.87-0.06,12.04
				c0.01,0.34,0.04,0.67,0.07,1C802.94,984.49,803.01,985.02,803.07,985.53z"/>
			<path class="st19" d="M631.69,889.58c-6.45,13.32-3.76,40.62,41.43,92.88c7.57,8.79,18.41,18.42,47.89,15.15v7.26
				c-0.05,2.43-0.07,4.87-0.07,7.31c-16.98-2.06-30.89-2.8-41.95-2.85c-23.43-0.12-34.08,2.85-34.08,2.85s0-5.69-11.67-57.91
				c-1.94-8.66-3.31-16.22-4.24-22.8c-0.29-1.98-0.53-3.87-0.73-5.68c-3.27-28.39,2.22-35.82,2.22-35.82
				c0.14-0.27,0.28-0.54,0.43-0.8L631.69,889.58z"/>
			<path class="st12" d="M886.7,976.53c-4.54-3.66-15.82-6.6-15.82-6.6l-0.31,0.02c-0.33-4.91,0.03-10.66,0.22-13.08l0.88,0.08
				c0.41-0.13,0.8-0.29,1.2-0.47c8.26-3.64,16.19-15.98,22.57-21.34c0.57-0.46,1.81,0.62-1.31,6.11c-1.35,2.38-2.47,4.88-3.39,7.46
				c4.03-4.31,8.05-8.62,12.07-12.94c0.41-0.43,0.92-0.89,1.49-0.76c0.99,0.24,0.8,1.73,0.32,2.64c-2.62,5.15-6.5,10.75-11.25,13.92
				c4.55-1.79,8.66-5.72,12.16-9.19c1.02-1.04,2.44-2.6,3.72-2.66c0.02,0,0.03,0,0.05,0c0.28,0,0.59,0.09,0.85,0.29
				c1.14,1.11-2.59,6.7-5.28,9.1c-2.77,2.46-5.42,5.35-8.43,7.51c-2.23,0.09-4.5,0.2-6.8,0.33l-3.29,10.4c0,0,0.4,0.14,1.14,0.39
				c-0.71,0.31-1.12,0.47-1.12,0.47c4.54,4.33,9.08,9.32,8.43,13.31C894.16,985.52,891.24,980.19,886.7,976.53z"/>
			<path class="st18" d="M1155.96,909.45c-5.36-38.15-26.77-39.86-39.62-37.2c-0.98-1.47-2.01-2.86-3.06-4.17
				c12.58-12.07,26.13-16.01,40.08-5.58c24.85,18.58,27.97,56.49,22.43,96.28h-6.5v9.16h-2.07c-1.31,0-2.5,0.52-3.38,1.36
				c-0.88-0.84-2.07-1.36-3.39-1.36h-2.07v-13.62h-4.5C1156.66,937.95,1157.77,922.34,1155.96,909.45z"/>
			<path class="st12" d="M761.57,789.34c0.26,0.69,0.06-0.02,0.05,0.64c-0.64,5.61-1.83,11.27-3.49,16.76
				c-4.18,13.87-11.31,26.69-20.07,35.08c-9.51,9.1-16.76,2.73-17.29,2.24c-0.3-0.28-0.59-0.55-0.87-0.83
				c-8.88-8.57-14.54-18.84-15.64-30.35c-0.01-0.1-0.02-0.19-0.03-0.29c-0.23-2.65,0.09-0.04-0.05-2
				c-7.93-1.01-8.85-12.87-4.71-17.63c4.14-4.76,7.5-0.96,9.33,3.17c5.06-1.89,7.42-5.42,9.72-10.76
				c9.68,3.18,26.82-4.47,31.71-7.75c4.88-3.27,3.68-3,4.65-2.42C760.14,778.33,759.73,784.54,761.57,789.34z"/>
			<path class="st11" d="M1113.28,868.08c1.05,1.31,2.08,2.7,3.06,4.17h-0.01c-0.47,0.09-0.93,0.2-1.38,0.3
				c-3.16-3.27-6.78-4.9-9.22-5.43c0,0-20.42-2.58-37.65,42.78c1.37,0.43,2.71,0.86,4.04,1.31c-10.34,20.55-19.2,40.69-19.2,40.69
				s-5.59,13.51-5.59,13.52c-0.03,0.01-9.35-3.74-22.16-9.72c-0.09-0.04-0.18-0.09-0.28-0.13c-0.81-2.75-1.44-4.09-1.44-4.09
				c-0.4-1.16-0.83-2.35-1.27-3.5c-0.4-1.06-0.85-2.04-1.31-3.02c-1.31-2.7-2.85-5.19-4.33-7.73c-1.57-2.73-3.06-5.52-4.04-8.71
				c-2.66-8.63-2.21-17-1.2-25.72c0,0,0,0,0-0.01c0.28-2.41,0.61-4.85,0.92-7.33c1.02-8.03,2.35-14.36,3.89-19.39
				c3.63-11.79,8.43-16.48,13-19.17c0.04-0.02,0.07-0.04,0.11-0.06c0.06-0.05,0.13-0.07,0.17-0.07c3.17-1.86,6.24-2.78,8.69-4.53
				c16.37,15.03,31.16-7.17,31.16-7.17S1095.74,846.31,1113.28,868.08z"/>
			<path class="st22" d="M1178.13,967.94c2.7,0,4.9,2.19,4.9,4.89v14.75c0,2.7-2.2,4.89-4.9,4.89h-10.91c-1.31,0-2.5-0.52-3.38-1.36
				c0.93-0.89,1.51-2.14,1.51-3.53v-14.74c0-1.39-0.58-2.65-1.51-3.54c0.88-0.84,2.07-1.36,3.38-1.36h2.07h6.77H1178.13z"/>
			<path class="st15" d="M761.57,789.34c-1.84-4.8-1.43-11.01-6.69-14.14c-0.97-0.58,0.23-0.85-4.65,2.42
				c-4.89,3.28-22.03,10.93-31.71,7.75c-2.3,5.34-4.66,8.87-9.72,10.76c-1.83-4.13-5.19-7.93-9.33-3.17
				c-4.14,4.76-3.22,16.62,4.71,17.63c0.14,1.96-0.18-0.65,0.05,2c0.01,0.1,0.02,0.19,0.03,0.29l-0.25,0.03
				c-1.99,12.68-16.49,32.31-22.71,43.58c0,0-33.92,1.59-50.38,32.68c-0.15,0.26-0.29,0.53-0.43,0.8c0,0-5.49,7.43-2.22,35.82
				c-1.03-0.13-2.03-0.3-3.02-0.48c-12.64-2.4-22.12-9-28.57-17.8c-3.24-4.39-5.71-9.33-7.45-14.56
				c-9.28-27.91,2.31-64.18,31.94-70.48c47.36-10.08,46.41-22.19,63.91-50.94c17.51-28.75,22.64-7.18,40.76-16.57
				c18.12-9.36,31.1-3.1,31.1-3.1c25.37,18.75,18.63,36.8,9.6,50.48c-1.58,2.39-2.61,4.31-3.24,6l-5.17-1.6
				c1.66-5.49,2.85-11.15,3.49-16.76C761.63,789.32,761.83,790.03,761.57,789.34z"/>
			<path class="st7" d="M1058.49,1013.62h-0.54H1047H834.94h-0.01v-6.52c0.06,0,0.11,0,0.16-0.01c1-0.2,0.86-1.7,0.42-2.62
				c-1.94-4.17-4.66-8.66-8.02-12h0.01h1.27c2.88,2.09,5.49,4.81,7.81,7.3c0.99,1.08,2.35,2.7,3.63,2.8c0.01,0,0.03,0,0.05,0
				c0.28,0.01,0.59-0.06,0.86-0.25c1.17-1.07-2.35-6.8-4.95-9.3c-0.19-0.18-0.37-0.36-0.56-0.55h3.01c1.03,1,2.08,1.99,3.18,2.88
				c4.43,3.57,3.4-0.14,1.89-2.88h0.01h135.37h0.01h49.23h3.09c6.07,3.8,11.54,6.73,16.17,8.34c2.48,0.87,6.97,2.5,10.92,2.34
				V1013.62z"/>
			<path class="st7" d="M1145.97,1013.62h-87.48v-10.47c2.71-0.11,5.18-1.06,6.57-3.68c0.78-1.46,2.07-3.98,3.59-7h0.01h38.23h38.22
				h4.43h10.91h0.01h6.76h10.91h24.68v21.15h-37.46H1145.97z"/>
			<path class="st12" d="M827.49,992.47h-5.45h-8.05c-3.04-3.41-6.23-6.45-9.53-8.05c-0.4-0.2-0.78-0.38-1.18-0.52l-0.39,0.04
				c-0.03-0.33-0.06-0.66-0.07-1c8.92-1.56,17.69-2.97,25.81-4.2c4.99,3.09,10.61,7.25,13.84,11.88h-0.01
				c0.38,0.44,0.82,1.11,1.23,1.85h-5.06h-0.01c-3.36-3.25-6.59-6.67-11.04-7.63c2.9,2.17,5.42,5.07,8.03,7.63h-6.83
				c-0.01,0-0.01,0-0.01,0c-1.28-0.93-2.62-1.74-4.01-2.35C825.71,990.81,826.62,991.6,827.49,992.47z"/>
			<path class="st23" d="M870.88,1196.52c12.08-2.33,15.27-9.94,15.46-10.42c0.17,0.61,3.61,13.32,6.99,18.99
				c3.45,5.81,15.99,8.05,26.36,6.26c10.37-1.79,9.93-4.92,15.12-6.26c5.19-1.34,4.32,10.73-6.05,14.76s-18.58,7.16-25.49,13.42
				c-6.92,6.26-20.31,4.02-22.9-9.39c-2.6-13.42-9.49-27.35-9.49-27.35V1196.52z"/>
			<path class="st24" d="M1160.45,992.47h-10.91c-1.59,0-3.01-0.76-3.89-1.94v-0.01c-0.63-0.82-1-1.84-1-2.94v-14.74
				c0-2.71,2.19-4.9,4.89-4.9h1.7h0.37h6.77h2.07c1.32,0,2.51,0.52,3.39,1.36c0.93,0.89,1.51,2.15,1.51,3.54v14.74
				c0,1.39-0.58,2.64-1.51,3.53c-0.88,0.84-2.06,1.36-3.38,1.36H1160.45z"/>
			<path class="st25" d="M828.63,978.74c-5.5-3.41-10.25-5.52-10.25-5.52c4.69-4.15,9.41-8.96,8.9-12.98
				c-0.13-1.03-0.43-1.46-0.88-1.46l0.16-2.96l0.01-0.12l0.2-3.55c17.11,1.04,34.44,2.3,44.11,3.55c0,0-0.04,0.43-0.09,1.17
				c-0.19,2.42-0.55,8.17-0.22,13.08c0.06,1.08,0.17,2.11,0.31,3.06C870.88,973.01,852.58,975.11,828.63,978.74z"/>
			<path class="st7" d="M777.85,1013.62h-56.62h-0.01c-0.09-0.48-0.17-0.85-0.21-1.09c0-0.01,0-0.01,0-0.01v-7.65
				c0.05-2.43,0.13-4.86,0.25-7.29c2.93-0.3,6.04-0.76,9.36-1.35c7.6-1.37,15.14-2.63,22.34-3.76h61.03
				c4.45,5,8.58,10.82,12.25,14.15c0.55,0.48,1.83-0.55-1.09-6.16c-1.26-2.43-2.28-4.97-3.11-7.59c3.86,4.47,7.73,8.93,11.59,13.4
				c0.35,0.41,0.8,0.83,1.3,0.83v6.52H777.85z"/>
			<path class="st18" d="M1165.35,1014.05c0,0-7.82,41.62-19.38,88.88v-35.97v-53.34h19.38V1014.05z"/>
			<path class="st23" d="M800.86,1269.94c-13.83-0.44-13.83-11.18-10.77-19.23c3.06-8.05,0-22.85,0-22.85h19.39
				c0,0-5.17,10.33,1.32,21.14c6.48,10.81,22.9,12,31.54,13.34c8.64,1.34,1.73,7.6,1.73,7.6S814.69,1270.39,800.86,1269.94z"/>
			<path class="st25" d="M750.26,908.8c0,0,12.07,29.5,27.57,40.77c0,0,24.23,1.07,48.94,2.58l-0.2,3.55l-0.01,0.12l-0.16,2.96
				c-1.32,0-3.93,3.54-7.4,6.13c-4.67,3.49-16.05,5.99-16.05,5.99h-0.07c0.1-1.65,0.19-2.71,0.19-2.71
				c-14.31-1.86-45.49-3.69-67.8-4.85c-1.96-2.39-3.85-4.71-5.6-6.96c2.71-5.6,6.47-10.29,8.37-16.44c3.38-11,1.71-21.62,0.28-33.06
				c-1.01-8.02-2.35-14.35-3.9-19.38c-3.65-11.9-8.5-16.56-13.1-19.25c4.65,2.33,10.73,7.06,17.1,16.64
				C742.34,890.81,746.38,898.59,750.26,908.8z"/>
			<path class="st17" d="M937.44,900.87c4.26,2.44,13.21,6.29,19.64,13.41c6.38,7.08,3.35,4.34,29.54,20.73
				c0.14,0.09,0.28,0.18,0.43,0.27c8.22,5.15,17.06,9.99,25.4,14.22c4.34,2.21,8.54,4.24,12.44,6.07c0.1,0.04,0.19,0.09,0.28,0.13
				c12.81,5.98,22.13,9.73,22.16,9.72c0-0.01,5.59-13.52,5.59-13.52s8.86-20.14,19.2-40.69c13.75,4.57,25.26,9.77,31.73,12.9
				c-10.15,20.64-22.12,42.16-22.14,42.16c0,0-7.88,15.96-13.05,26.2h-0.01c-1.52,3.02-2.81,5.54-3.59,7
				c-1.39,2.62-3.86,3.57-6.57,3.68c-3.95,0.16-8.44-1.47-10.92-2.34c-4.63-1.61-10.1-4.54-16.17-8.34
				c-0.91-0.56-1.83-1.15-2.76-1.75c-8.53-5.51-17.66-12.38-26.18-19.15v-0.01c-8.54-6.78-16.47-13.47-22.59-18.58v-0.01
				c-4.63-3.87-8.23-6.85-10.27-8.3c-9.73-6.91-12.75-10.31-19.94-10.28c-7.2,0.02-8.35-1.6-15.44-1.95
				c-7.1-0.35-15.14-1.41-13.87-3.12c1.27-1.71,4.64-1.69,9.55-1.62c4.92,0.07,4.83-0.08,3.74-0.96
				c-1.08-0.87-18.23,0.01-17.53-3.61c0.7-3.62,11.83,0.15,14.95-0.39c3.11-0.55,0.08-1.29,0.09-1.29s-16.37-1.44-18.36-3.64
				c-1.98-2.21,2.59-2.53,2.59-2.54c0,0,1.54,0.09,3.7,0.21c5.02,0.27,13.41,0.68,13.81,0.39c0.46-0.33-8.64-1.44-14.39-2.45v-0.01
				c-1.3-0.23-2.43-0.46-3.24-0.67c-4.35-1.14-0.11-3.33-0.11-3.32c0.76,0.06,1.52,0.12,2.27,0.17c13.93,0.94,25.72,0.17,25.72,0.16
				c0,0.01-3.52-1.31-6.48-3.45v-0.01c-1.37-0.98-2.62-2.14-3.35-3.42c-1.75-3.1-0.92-4.06,1.46-3.26
				C935.52,899.86,936.42,900.28,937.44,900.87z"/>
			<path class="st26" d="M774.37,1120.6c0,0-139.94,0-151.21,0c-3.44,0-6.28-0.71-8.61-1.81c0,0-0.01,0-0.01-0.01
				c-0.31-0.17-0.62-0.33-0.94-0.48c-0.08-0.04-0.16-0.08-0.24-0.12c-0.01-0.01-0.02-0.02-0.04-0.02c-6.97-3.99-8.8-11.45-8.8-11.45
				s-46.36-105.72-38.56-161.19c4.25-30.22,18.57-37.58,30.72-38.01c6.45,8.8,15.93,15.4,28.57,17.8c1.27,1.99,2.51,4.05,3.75,6.16
				c0.93,6.58,2.3,14.14,4.24,22.8c11.67,52.22,11.67,57.91,11.67,57.91s-56.66,78.29,22.52,104.01c0,0,20.34,5.05,47.38-3.81
				c26.51,4.19,50.35,4,62.37,3.5h0.01L774.37,1120.6z"/>
			<path class="st12" d="M911.08,951.76c-1.22,1.61-2.74,3.15-4.43,4.6c-2.98,0.03-6.03,0.11-9.16,0.22
				c5.06-1.57,8.7-6.3,13.09-9.58c5.79-4.31,2.35,2.76,0.49,4.75L911.08,951.76z"/>
			<path class="st27" d="M827.34,1034.72c-8.66-9.93-27.76-12.52-49.49-11.82v-9.28h57.08h0.01H1047h10.95h0.54h87.48v53.34v35.97
				v189.79H777.85v-176.87c4.83-0.21,7.57-0.47,7.57-0.47c-11.65,38.56,4.67,112.48,4.67,112.48s3.06,14.8,0,22.85
				c-3.06,8.05-3.06,18.79,10.77,19.23c13.83,0.45,43.21,0,43.21,0s6.91-6.26-1.73-7.6c-8.64-1.34-25.06-2.53-31.54-13.34
				c-6.49-10.81-1.32-21.14-1.32-21.14s10.75-56.55,13.73-102h0.01c11.4,30.57,47.66,70.66,47.66,70.66v0.01
				c0,0,6.89,13.93,9.49,27.35c2.59,13.41,15.98,15.65,22.9,9.39c6.91-6.26,15.12-9.39,25.49-13.42s11.24-16.1,6.05-14.76
				c-5.19,1.34-4.75,4.47-15.12,6.26c-10.37,1.79-22.91-0.45-26.36-6.26c-3.38-5.67-6.82-18.38-6.99-18.99v-0.01
				c0.01-0.01,0.01-0.01,0.01-0.01S856.92,1068.59,827.34,1034.72z"/>
			<polygon class="st26" points="711.76,1151.8 701.34,1270.15 693.9,1270.15 686.3,1270.15 669.72,1151.8 			"/>
			<path class="st26" d="M1151.61,966.19v1.75h-0.37C1151.37,967.36,1151.49,966.77,1151.61,966.19z"/>
			<path class="st16" d="M1003.64,898.37c5.94,2.02,7.52,4.22,7.66,4.42c0,0.01,0,0.01,0,0.01c-1.01,8.72-1.46,17.09,1.2,25.72
				c0.98,3.19,2.47,5.98,4.04,8.71c-1.36,4.44-2.72,8.51-4.09,12.26v0.01c-8.34-4.23-17.18-9.07-25.4-14.22
				c-0.15-0.09-0.29-0.18-0.43-0.27C995.08,914.29,1003.64,898.37,1003.64,898.37z"/>
			<path class="st28" d="M777.85,1076.05c-13.81,6.67-25.03,15.21-25.03,15.21c-13.19,10.72-26.24,17.25-38.01,21.12
				c-27.04,8.86-47.38,3.81-47.38,3.81c-79.18-25.72-22.52-104.01-22.52-104.01s10.65-2.97,34.08-2.85
				c-3.63,6.61-12.07,24.4,1.4,25.69c5.9,0.57,23.25-2.84,44.23-6.21c16.76-2.69,35.84-5.36,53.23-5.91
				c21.73-0.7,40.83,1.89,49.49,11.82c29.58,33.87,59.01,151.36,59.01,151.36s0,0-0.01,0.01v0.01c-0.19,0.48-3.38,8.09-15.46,10.42
				c0,0-36.26-40.09-47.66-70.66h-0.01c1.83-27.84,0.74-51.51-7.51-55.47c-3.06-1.47-6.5-2.11-10.15-2.13
				C796.78,1068.21,786.78,1071.74,777.85,1076.05z"/>
			<polygon class="st23" points="1158.38,954.32 1158.38,967.94 1151.61,967.94 1151.61,966.19 1151.61,954.32 1153.88,954.32 			
				"/>
			<path class="st12" d="M827.28,960.24c0.51,4.02-4.21,8.83-8.9,12.98c0,0,4.75,2.11,10.25,5.52c-8.12,1.23-16.89,2.64-25.81,4.2
				c-0.31-4.17-0.12-9.07,0.06-12.04h0.07c0,0,11.38-2.5,16.05-5.99c3.47-2.59,6.08-6.13,7.4-6.13
				C826.85,958.78,827.15,959.21,827.28,960.24z"/>
			<path class="st12" d="M704.26,812.88c1.1,11.51,6.76,21.78,15.64,30.35v0.01c-3.21,6.54-5.58,13.37-7.44,20.42
				c-16.37,15.03-31.16-7.17-31.16-7.17c6.22-11.27,20.72-30.9,22.71-43.58L704.26,812.88z"/>
			<path class="st26" d="M1144.65,987.58c0,1.1,0.37,2.12,1,2.94v0.01c-0.18,0.65-0.36,1.29-0.54,1.94h-38.22
				c1.38-7.69,4.3-22.27,10.41-49.62c11.67-52.22,2.75-64.3,2.75-64.3c-1.15-2.25-2.39-4.35-3.71-6.3
				c12.85-2.66,34.26-0.95,39.62,37.2c1.81,12.89,0.7,28.5-2.08,44.87h-2.27v11.87c-0.12,0.58-0.24,1.17-0.37,1.75h-1.7
				c-2.7,0-4.89,2.19-4.89,4.9V987.58z"/>
			<path class="st18" d="M693.9,1270.15c40.91,0,74.43,10.09,77.48,22.9c0.15,0.63,0.23,1.27,0.23,1.91H616.2
				C616.2,1281.26,650.99,1270.15,693.9,1270.15z"/>
			<polygon class="st29" points="922.56,879.79 927.08,895.75 920.62,897.58 916.11,881.61 			"/>
		</g>
		<g>
		</g>
	</g>
	<g>
		<g id="XMLID_5_">
			<g>
				<path class="st30" d="M1872.27,861.03c16.66,61.58-11.23,91.77-11.23,91.77s-51.19,62.66-66.22,134.92
					c-8.01,38.48-29.3,54.4-47.47,60.87c-0.25-2.67-0.75-5.27-1.46-7.79c12.56-7.67,25.59-19.66,30.22-37.67
					c9.9-38.52,24.21-73.74,67.13-150.33c42.92-76.59-5.3-120.2-5.3-120.2c2.11-2.07,4.05-4.45,5.76-7.1
					c0.8-1.24,1.52-2.5,2.16-3.78C1861.14,836.23,1872.27,861.03,1872.27,861.03z"/>
				<path class="st30" d="M1842.25,785.96c8.82,7.73,10.29,22.52,3.61,35.76c-0.64,1.28-1.36,2.54-2.16,3.78
					c-1.71,2.65-3.65,5.03-5.76,7.1c-7.81,7.7-17.9,11.24-26.62,9.38l29.31-52.92C1841.2,788.03,1841.74,787,1842.25,785.96z"/>
				<path class="st18" d="M1745.33,849.19c-1.4-0.88-2.84-1.76-4.29-2.65c-5.39-3.28-11.11-6.61-17.07-9.91
					c-3.18-1.76-6.33-3.46-9.43-5.09c-10.66-5.6-20.76-10.39-29.7-14.16c-9.08-3.83-16.96-6.59-22.99-8.07
					c-6.9-1.69-11.4-1.69-12.52,0.34c0.86-2.4,49.1-91.79,49.1-91.79c21.82-39.39,71.44-53.64,110.83-31.82l2.13,1.18
					c35.16,19.47,48.53,63.08,30.86,98.74c-0.51,1.04-1.05,2.07-1.62,3.1l-29.31,52.92l-20.81,37.58c-1.25,2.26-2.66,4.37-4.2,6.33
					l-0.06-0.03c0.07-0.09,0.13-0.18,0.19-0.28C1789.13,880.73,1771.76,865.73,1745.33,849.19z"/>
				<path class="st26" d="M1745.33,849.19c26.43,16.54,43.8,31.54,41.11,36.39c-0.06,0.1-0.12,0.19-0.19,0.28
					c-3.2,4.04-22.48-1.69-47.62-13.51c1.95-3.98,1.32-8.22,1.32-8.22C1752.98,859.65,1745.74,849.74,1745.33,849.19z"/>
				<path class="st30" d="M1747.35,1148.59c0.14,1.41,0.21,2.83,0.21,4.27c0,24.31-19.7,44.01-44,44.01
					c-20.44,0-37.63-13.94-42.56-32.84h20.28c4.09,8.16,12.53,13.76,22.28,13.76c13.77,0,24.92-11.16,24.92-24.93
					c0-0.08,0-0.16-0.01-0.24c0-1.1-0.08-2.18-0.24-3.24c-0.7-5.07-2.94-9.64-6.2-13.25c1.6-4.07,4.22-10.58,7.38-18.87
					c7.87,5.71,13.75,13.96,16.48,23.54C1746.6,1143.32,1747.1,1145.92,1747.35,1148.59z"/>
				<path class="st31" d="M1738.63,872.35c-1.9,3.91-6.27,7.56-16.11,6.75c0,0-13.13,9.57-16-5.06l-0.04-0.01
					c0.67-1.88,1.39-3.76,2.16-5.64l-0.07-0.18c0.33-0.12,0.66-0.25,0.99-0.37c5.36,0.25,7.98-0.16,11.19-4.41
					c0.71-0.94,1.45-2.07,2.26-3.43c4.43-7.45-3.92-7.62-8.2-10.53c-1.99-1.35-0.94-9.22-0.27-17.93c3.1,1.63,6.25,3.33,9.43,5.09
					c5.96,3.3,11.68,6.63,17.07,9.91c1.45,0.89,2.89,1.77,4.29,2.65c0.41,0.55,7.65,10.46-5.38,14.94
					C1739.95,864.13,1740.58,868.37,1738.63,872.35z"/>
				<path class="st18" d="M1729.41,1117.26c-3.16,8.29-5.78,14.8-7.38,18.87c-0.03,0.06-0.05,0.11-0.07,0.17
					c-11.27,28.6-33.81,27.73-33.81,27.73h-6.87H1661h-24.61h-42.03h-44.02l-18.59-31.2c0.94,0,37.23,0,74.1,0c0.01,0,0.02,0,0.03,0
					s0.02,0.01,0.03,0.01c2.46,0.07,4.83,0.07,7.12-0.01c0.13,0,0.26,0,0.39,0c32.93,0,64.43,0,69.53,0c3.44,0,6.28-0.71,8.61-1.81
					c0,0,0.01,0,0.01-0.01c0.41-0.19,0.8-0.39,1.18-0.6c0.01-0.01,0.02-0.02,0.04-0.02c6.98-3.99,8.81-11.46,8.81-11.46
					s46.36-105.71,38.56-161.19c-3.74-26.58-15.27-35.47-26.26-37.51c-2.23-3.63-5.03-7.07-8.49-10.24
					c10.27-6.7,21.09-7.46,32.15,0.81C1788.13,948.61,1748.73,1066.47,1729.41,1117.26z"/>
				<path class="st26" d="M1740.16,957.74c7.8,55.48-38.56,161.19-38.56,161.19s-1.83,7.47-8.81,11.46c-0.02,0-0.03,0.01-0.04,0.02
					c-0.4,0.19-0.79,0.39-1.18,0.6c0,0.01-0.01,0.01-0.01,0.01c-2.33,1.1-5.17,1.81-8.61,1.81c-5.1,0-36.6,0-69.53,0
					c-0.13,0-0.26,0-0.39,0c48.24-1.49,60.67-33.64,53.88-80l0.02-0.02c0,0.01,0.01,0.01,0.01,0.01
					c10.4-16.2,21.14-28.76,33.56-44.24c9.26-11.54,27.24-47.27,18.59-76.65c-0.1-0.36-0.21-0.72-0.33-1.08
					c-1.17-3.67-2.76-7.23-4.86-10.62C1724.89,922.27,1736.42,931.16,1740.16,957.74z"/>
				<path class="st7" d="M1728.47,1152.62c0.01,0.08,0.01,0.16,0.01,0.24c0,13.77-11.15,24.93-24.92,24.93
					c-9.75,0-18.19-5.6-22.28-13.76h6.87c0,0,22.54,0.87,33.81-27.73c0.02-0.06,0.04-0.11,0.07-0.17c3.26,3.61,5.5,8.18,6.2,13.25
					C1728.39,1150.44,1728.47,1151.52,1728.47,1152.62z"/>
				<path class="st17" d="M1714.81,849.47c4.28,2.91,12.63,3.08,8.2,10.53c-0.81,1.36-1.55,2.49-2.26,3.43
					c-3.21,4.25-5.83,4.66-11.19,4.41c-0.33,0.12-0.66,0.25-0.99,0.37c-8.2,3.06-14.59,5.57-24.51,5.7c-0.15,0-0.3,0-0.46,0
					c-6.37-0.07-14.45-3.28-17.45-10.35c-0.77-11.75,1.05-21.89,5.26-30.29c3.16-6.3,7.67-11.62,13.43-15.89
					c8.94,3.77,19.04,8.56,29.7,14.16C1713.87,840.25,1712.82,848.12,1714.81,849.47z"/>
				<path class="st28" d="M1719.09,931.93c8.65,29.38-9.33,65.11-18.59,76.65c-12.42,15.48-23.16,28.04-33.56,44.24
					c0,0-0.01,0-0.01-0.01c-5.75-4.26-11.73-7.99-17.89-11.32c28.86-15.72,69.51-89.38,64.11-109.18L1719.09,931.93z"/>
				<path class="st28" d="M1718.76,930.85c0.12,0.36,0.23,0.72,0.33,1.08l-5.94,0.38c-0.1-0.36-0.21-0.7-0.35-1.03
					c-0.12-0.33-0.27-0.63-0.43-0.92c-0.37-0.08-22.6-25.58-55.55,46.51l-25.26,41.19c-6.55,1.25-16.59-0.4-26.92-3.1
					c5.55-12.26,9.34-24.66,11.5-38.21v-0.02c0.11-1.14-0.02-17.76-0.02-23.96c0-0.4,0.01-0.82,0.05-1.24v-0.01
					c1.09-16.98,25.64-51.37,51.33-52.79c-0.24,0.29-0.78,0.49-1.48,1.69c-4.05,6.95-3.09,12.66,6.74,14.38
					c9.57,1.68,19.23-2.92,26.31-9.94l0.44,0.43c2.15,1.49,4.11,3.06,5.9,4.7c3.46,3.17,6.26,6.61,8.49,10.24
					C1716,923.62,1717.59,927.18,1718.76,930.85z"/>
				<path class="st13" d="M1713.15,932.31c5.4,19.8-35.25,93.46-64.11,109.18c-1.22,0.66-2.42,1.22-3.59,1.67
					c0,0-2.68,0.91-7.27,1.7c-7.68,1.33-20.72,2.32-35.48-1.89c-3.78-2.84-7.6-5.76-11.36-8.35c-0.75-0.52-1.5-1.02-2.24-1.5
					c-6.45-4.2-17.09-11.46-26.93-17.37c-0.46-0.28-0.93-0.56-1.39-0.83l-0.01-0.01c0,0,1.93-8.66,3.75-13.1
					c0.07-0.16,0.13-0.3,0.19-0.44c0.54,0.15,1.08,0.3,1.61,0.44c0.01,0,0.02,0.01,0.03,0.01h0.01c5.12,2.12,22.05,8.92,38.28,13.14
					c10.33,2.7,20.37,4.35,26.92,3.1l25.26-41.19c32.95-72.09,55.18-46.59,55.55-46.51c0.16,0.29,0.31,0.59,0.43,0.92
					C1712.94,931.61,1713.05,931.95,1713.15,932.31z"/>
				<path class="st17" d="M1708.57,868.21l0.07,0.18c-0.77,1.88-1.49,3.76-2.16,5.64c-3.52,9.82-5.78,19.67-6.87,30.28
					c-0.18,0.18-0.36,0.37-0.54,0.55c-7.08,7.02-16.74,11.62-26.31,9.94c-9.83-1.72-10.79-7.43-6.74-14.38
					c0.7-1.2,1.24-1.4,1.48-1.69c6.55-7.88,12.03-15.18,16.09-24.41l0.01-0.41c0.16,0,0.31,0,0.46,0
					C1693.98,873.78,1700.37,871.27,1708.57,868.21z"/>
				<path class="st18" d="M1689.91,1307.18H1534.5c0-13.7,34.79-24.81,77.71-24.81C1655.12,1282.37,1689.91,1293.48,1689.91,1307.18
					z"/>
				<path class="st31" d="M1684.84,817.38c-5.76,4.27-10.27,9.59-13.43,15.89c-4.21,8.4-6.03,18.54-5.26,30.29
					c0,0-13.35,4.54-14.78-7.15c0,0-10.25-9.22,1.43-17.22c0,0-7.57-11.58,2.76-18.88c0.59-0.41,1.24-0.82,1.96-1.21
					c0,0,0.78-5.71,4.33-9.79C1667.88,810.79,1675.76,813.55,1684.84,817.38z"/>
				<path class="st32" d="M1366.7,1105.62c-0.04,0.02-0.1,0.06-0.11,0.06c0.04-0.18-0.01-0.42-0.08,0.05v0.01
					c-0.02,0.01-0.04,0.03-0.06,0.04l-0.01,0.01c-0.04-0.03-0.1-0.11-0.16-0.23c44.06-37.87,82.35-82.13,136.64-106.62
					c6.39-2.88,12.74-2.95,18.99-1.57c0.01,0.01,0.01,0.01,0.02,0.01c2.37,1.09,5.89,2.2,9.69,3.14c2.73,0.68,5.59,1.27,8.26,1.71
					c-1.55,0.02-2.94,0.02-4.24,0.03h-0.01c-4.23,0.01-7.53,0.05-12.56,0.55c-7.39,0.84-2.38,3.73,16.05,6.15
					c-15.35-0.23-19.31,1.07-19.21,2.44c0.07,0.96,3.26,2.1,17.93,4c0.06,0.01,0.11,0.03,0.17,0.04c-0.12,0.01-0.21,0.01-0.33,0.01
					l-0.01,0.01c-8.62,0.42-23.71,2.7-15.17,5.27c4.12,0.85,8.35,1.08,12.55,0.86c1.73-0.09,3.44-0.26,5.14-0.51
					c5.95-0.84,14.59-2.97,21.44-5.16c0.18-0.06,0.36-0.12,0.54-0.17c9.84,5.91,20.48,13.17,26.93,17.37
					c0.74,0.48,1.49,0.98,2.24,1.5c3.76,2.59,7.58,5.51,11.36,8.35c7.54,5.67,14.89,10.99,21.15,12.49
					c17.8,4.27,14.37-1.91,14.33-10.6c4.59-0.79,7.27-1.7,7.27-1.7c1.17-0.45,2.37-1.01,3.59-1.67c6.16,3.33,12.14,7.06,17.89,11.32
					l-0.02,0.02c6.79,46.36-5.64,78.51-53.88,80c-2.38,0-4.77,0-7.15,0c-14.86-4.89-27.17-12.51-39.41-22.13l-0.09-0.2
					c-9.23-8.76-17.62-21.45-23.91-31.58c-6.29-10.14-9.27-15.91-16.91-24.95c-5.28-6.24-36.52-49.6-59.94,26.85l-0.13-0.04
					c-17.14,12.53-69.64,31-92.06,41.53c-5.61-2.41-7.42-9.88-7.22-14.59c0.05-1.15,0.08-1.61,0.11-1.75v-0.01
					c0.01,0,0.02-0.01,0.03-0.01c0.04,0.12,0.07,0.79,0.14,0.03c0-0.05,0.01-0.09,0.01-0.13c0.01-0.01,0.01-0.01,0-0.01
					c0-0.01,0-0.01,0-0.02c0.05,0,0.07-0.05,0.08-0.12C1366.61,1105.68,1366.65,1105.65,1366.7,1105.62z"/>
				<path class="st26" d="M1661.85,809.31c-3.55,4.08-4.33,9.79-4.33,9.79c-0.72,0.39-1.37,0.8-1.96,1.21
					c-5.01-4.89-7.35-8.65-6.23-10.66C1650.45,807.62,1654.95,807.62,1661.85,809.31z"/>
				<path class="st15" d="M1638.18,1044.86c0.04,8.69,3.47,14.87-14.33,10.6c-6.26-1.5-13.61-6.82-21.15-12.49
					C1617.46,1047.18,1630.5,1046.19,1638.18,1044.86z"/>
				<polygon class="st26" points="1636.39,1164.03 1619.82,1282.37 1612.21,1282.37 1604.77,1282.37 1594.36,1164.03 				"/>
				<path class="st13" d="M1616.12,952.77c0,6.2,0.13,22.82,0.02,23.96v0.02c-2.16,13.55-5.95,25.95-11.5,38.21
					c-16.23-4.22-33.16-11.02-38.28-13.14c8.67,2.28,16.77,3.48,22.35,2.26l25.26-47.19c0.74-1.85,1.47-3.62,2.2-5.36
					C1616.13,951.95,1616.12,952.37,1616.12,952.77z"/>
				<path class="st26" d="M1605.88,1132.83c-0.01,0-0.02,0-0.03,0c-36.87,0-73.16,0-74.1,0h-0.01l-26.09-43.78v-0.01
					c1.37,0.67,2.77,1.29,4.26,1.91c0.11,0.05,0.25,0.12,0.61,0.25c18.46,6.71,36.98,13.81,55.86,19.3l0.09,0.2
					C1578.71,1120.32,1591.02,1127.94,1605.88,1132.83z"/>
				<path class="st17" d="M1554.24,999.03c0,0,0.01,0.01,0.02,0c0.28,0.05,0.56,0.09,0.84,0.16c0.49,0.07,0.98,0.16,1.47,0.26
					c2.56,0.5,5.06,1.19,7.49,2.17c0.15,0.06,0.31,0.12,0.46,0.19c-1.82,4.44-3.75,13.1-3.75,13.1l0.01,0.01
					c0.28,0.34,0.57,0.67,0.85,1c-6.85,2.19-15.49,4.32-21.44,5.16c-1.7,0.25-3.41,0.42-5.14,0.51c-4.2,0.22-8.43-0.01-12.55-0.86
					c-8.54-2.57,6.55-4.85,15.17-5.27l0.01-0.01c0.12,0,0.21,0,0.33-0.01c-0.06-0.01-0.11-0.03-0.17-0.04
					c-14.67-1.9-17.86-3.04-17.93-4c-0.1-1.37,3.86-2.67,19.21-2.44c-18.43-2.42-23.44-5.31-16.05-6.15
					c5.03-0.5,8.33-0.54,12.56-0.55h0.01c1.3-0.01,2.69-0.01,4.24-0.03c-2.67-0.44-5.53-1.03-8.26-1.71
					c-3.8-0.94-7.32-2.05-9.69-3.14c-0.01,0-0.01,0-0.02-0.01c-1.57-0.72-2.62-1.43-2.9-2.06v-0.01c-0.19-0.45,0.01-0.86,0.69-1.22
					c0.58-0.3,10.46,1.54,14.93,2.43c2.05,0.41,4.12,0.71,6.21,0.95c4.46,0.55,8.97,0.86,13.36,1.57h0.01c0.01,0,0.01,0,0.02,0
					H1554.24z"/>
				<path class="st17" d="M1554.23,999.03c-0.01,0-0.01,0-0.02,0h-0.01c-4.39-0.71-8.9-1.02-13.36-1.57l0.03-0.22
					c-1.19-1.72-2.34-3.49-3.44-5.29c-0.15-0.23-0.29-0.5-0.22-0.76c0.06-0.22,0.24-0.36,0.42-0.46c0.73-0.43,1.68-0.37,2.47-0.07
					c0.8,0.32,1.49,0.83,2.17,1.35c1.91,1.42,3.9,2.73,5.96,3.93c0.01,0,0.02,0.01,0.03,0.01
					C1550.19,997.08,1552.19,998.11,1554.23,999.03z"/>
				<path class="st15" d="M1542.47,1078.92c6.29,10.13,14.68,22.82,23.91,31.58c-18.88-5.49-37.4-12.59-55.86-19.3
					c-0.36-0.13-0.5-0.2-0.61-0.25c-1.49-0.62-2.89-1.24-4.26-1.91c-0.81-0.4-1.62-0.81-2.43-1.24
					c-7.06,48.68-12.06,97.71-15.9,146.76c-0.01,0.11-0.02,0.22-0.03,0.33c-6.27-0.86-12.67,0.01-18.66-2.44
					c-9.01-46.19-16.78-104.15-4.06-148.09c0.35-1.21,0.7-2.39,1.05-3.54c23.42-76.45,54.66-33.09,59.94-26.85
					C1533.2,1063.01,1536.18,1068.78,1542.47,1078.92z"/>
				<path class="st19" d="M1487.79,1269.05c0.62,11.15,0.55,20.13-12.54,21.78c-13.08,1.65-28.08,0.19-41.75,0.82
					c-0.38-5.82-4.84-5.74,4.25-8.04c9.09-2.31,23.41-4.71,28.7-15.79c5.29-11.09,3.63-22.62,2.17-34.48l0.01-0.89
					c5.99,2.45,12.39,1.58,18.66,2.44c0.01-0.11,0.02-0.22,0.03-0.33h0.04C1486.5,1245.86,1487.18,1257.9,1487.79,1269.05z"/>
				<path class="st19" d="M1373.43,1122.31l0.02,0.12c-9.1,4.51-17.57,9.43-25.32,16.08s-18.16,4.18-22.42-3.88
					c-4.25-8.06-8.94-18.72-13.33-23.96c-4.38-5.23-6.16-18.33,0.25-16.65c6.4,1.69,5.52,9.04,10.88,13.26
					c5.36,4.21,15.82,10.18,23.13,8.67c7.31-1.52,12.99-5.74,18.06-8.95c0.9-0.57,1.39-0.88,1.62-1.03
					c-0.03,0.14-0.06,0.6-0.11,1.75C1366.01,1112.43,1367.82,1119.9,1373.43,1122.31z"/>
			</g>
			<g>
			</g>
		</g>
	</g>
	<path class="st33" d="M719.9,843.24c0,0-14.8-12.82-15.72-32.65c0,0-0.23,6.79-7.99,21.25C696.2,831.84,703.74,842.96,719.9,843.24
		z"/>
	<path class="st16" d="M879.67,951.76c0,0-8.94,0.87-14.66,6c-5.72,5.13,2.54,3.25,8.49,2.1
		C879.44,958.71,877.34,953.55,879.67,951.76z"/>
	<path class="st16" d="M864.23,973.81c0,0-6.95-3.16-10.2-3.4c-3.25-0.24-3.25,5.15-3.25,5.15s8.34,4.78,16.81,2.6
		c8.48-2.18,8.8-6.54,8.8-6.54l-5.84-1.79l0.32,3.18L864.23,973.81z"/>
	<path class="st16" d="M1028.3,825.41c0,0,8.04-2.96,19.77-18.17c0,0,3.7,9.08,8.01,16.2
		C1056.08,823.43,1043.39,829.24,1028.3,825.41z"/>
	<path class="st34" d="M425.99,1077.46c0,0-141.19,7.68-156.08,127.24v-127.24H425.99z"/>
	<path class="st35" d="M1278.7,1206.04c0,0,0.48-49.12,41.52-82.26c0,0-3.96-8.53-7.84-13.11c0,0-7.91-12.63-1.59-16.69
		c0,0,4.64-1.38,8.38,7.21c3.74,8.59,16.42,13.97,24.32,14.97c0,0,8.76,0.77,23-10.19l29.46-27.18l-99.41,0.06
		c0,0-11.1,0.07-15.74,10.49c0,0-2.1,4.62-2.1,9.72V1206.04z"/>
	<path class="st36" d="M1786.44,885.58c-3.23,6.87-39.96-7.33-75.14-27.56c-36.78-21.15-65.21-41.51-61.97-48.37
		c3.23-6.87,34.75,5.56,70.47,24.38C1757.02,853.64,1789.67,878.71,1786.44,885.58z"/>
	<path class="st16" d="M1683.6,873.91c0,0,13.64-1.44,25.04-5.52c0,0-4.59,12.56-5.62,16.84
		C1703.02,885.23,1691.33,882.79,1683.6,873.91z"/>
	<path class="st37" d="M1790.96,678.62c0,0,34.69,58.89-17.91,189.77c0,0,11.68,9.51,13.38,17.19l55.81-99.62
		C1842.25,785.96,1878.73,703.92,1790.96,678.62z"/>
	<path class="st38" d="M121.61,661.92c0,0,7.61,60.44,32.62,94.05c25.01,33.61,125.8,138.8,180.94,140.14
		c0,0-82.81,27.36-158.84-52.87S106.19,660.89,121.61,661.92z"/>
	<path class="st38" d="M445.56,532.61c0,0-48.45,4.08-80.77,65.65s-36.54,137.88-10.59,195.09c0,0-5.31,7.23-24.08-40.09
		c-18.76-47.32-25.69-114.46,53.21-191.11C383.33,562.15,421.08,517.96,445.56,532.61z"/>
	<path class="st38" d="M187.07,491.61c0,0,82.67,27.2,96.12,108.3c0,0,5.25-32.14-19.02-67.3S196.41,475.91,187.07,491.61z"/>
	<path class="st38" d="M335.15,532.61c0,0-13.01-25.63-1.06-59.33c11.95-33.7,28.76-55.58,51.07-69.41c0,0-40.84,13.57-54.39,56.41
		S329.47,535.66,335.15,532.61z"/>
</g>
<g id="Layer_2">
</g>
</svg>
