<?xml version="1.0" encoding="utf-8"?>
<!-- Generator: Adobe Illustrator 24.3.0, SVG Export Plug-In . SVG Version: 6.00 Build 0)  -->
<svg version="1.1" xmlns="http://www.w3.org/2000/svg" xmlns:xlink="http://www.w3.org/1999/xlink" x="0px" y="0px"
	 viewBox="0 0 1984.25 1417.32" style="enable-background:new 0 0 1984.25 1417.32;" xml:space="preserve">
<style type="text/css">
	.st0{fill:#A7A9AC;}
	.st1{fill:none;}
	.st2{fill:#EAB283;}
	.st3{fill:#C99257;}
	.st4{fill:#E2AA7C;}
	.st5{fill:#5A5D5C;}
	.st6{fill:#D1D3D4;}
	.st7{fill:#808285;}
	.st8{fill:#939598;}
	.st9{opacity:0.5;fill:#DAEAF8;}
	.st10{opacity:0.5;fill:#ACC9EA;}
	.st11{fill:#ACC9EA;}
	.st12{fill:#DAEAF8;}
	.st13{fill:none;stroke:#DAEAF8;stroke-miterlimit:10;}
	.st14{fill:#C5C5C4;}
	.st15{fill:#BCBEC0;}
	.st16{fill:#414042;}
	.st17{fill:#D3489A;}
	.st18{fill:#F3EB3F;}
	.st19{opacity:0.1;}
	.st20{fill:none;stroke:#000000;stroke-width:0.5;stroke-miterlimit:10;}
	.st21{fill:#832E1A;}
	.st22{fill:#BAD768;}
	.st23{fill:#E5DE98;}
	.st24{fill:#F9F3A2;}
	.st25{fill:#176232;}
	.st26{fill:#2B2D6E;}
	.st27{fill:#692610;}
	.st28{fill:#3A459C;}
	.st29{fill:none;stroke:#ACC9EA;stroke-miterlimit:10;}
	.st30{fill:#CE464F;}
	.st31{fill:#C42228;}
	.st32{fill:#AD222B;}
	.st33{fill:#851E35;}
	.st34{fill:#721825;}
</style>
<g id="linework">
	<g>
		<path class="st0" d="M1670.25,1316.88v-3.5c8.69,0,15.18-4.94,15.43-11.75c0.33-8.82-10.42-18.53-35.15-20.36
			c-22-1.63-37.17,6.29-51.86,13.95c-17.26,9-33.57,17.51-58.88,10.43c-19.91-5.57-33.11-27.04-39.22-63.8
			c-4.49-27.03-3.28-52.8-3.26-53.06l0-231.67h3.5v231.75c-0.05,1.09-4.5,100.97,39.92,113.4c23.97,6.71,39.69-1.49,56.32-10.16
			c15.12-7.89,30.75-16.04,53.74-14.34c28.91,2.14,38.75,14.26,38.39,23.98C1688.86,1310.38,1680.72,1316.88,1670.25,1316.88z"/>
	</g>
	<rect x="617.71" y="889.69" class="st1" width="902.42" height="67.43"/>
	<rect x="617.71" y="889.69" class="st2" width="902.42" height="67.43"/>
	<polygon class="st3" points="1428.31,822.25 719.68,822.25 617.71,889.68 1520.13,889.68 	"/>
	<polyline class="st4" points="1465.02,957.12 1465.02,1303.96 672.82,1303.96 672.82,957.12 	"/>
	<path class="st5" d="M1019.27,828.46c0,0,10.98,3.81,23.57-4.89c15.37-10.62,34.39-13.74,46.97-1.32h-3.27c0,0-5.71-5.31-16.6-5.59
		c-10.89-0.28-24.61,8.01-24.61,8.01s-10.51,8.39-24.66,6.03c-14.15-2.36,0,0,0,0L1019.27,828.46"/>
	<path class="st0" d="M1422.46,872.99l1.62,2.08c0,0-14.34-0.06,0,0c13.75,0.06,23.92-8.51,23.92-8.51s12.96-8.52,23.67-10.48
		c10.91-1.99,17.08,3.87,17.08,3.87s2.35,1.87,4.28,9.84l2.31,1.7c0,0-0.1-7.03-3.93-11.8c-10.73-13.34-33.77-2.76-46,6.03
		C1432.99,874.65,1422.46,872.99,1422.46,872.99"/>
	<g>
		<g id="XMLID_4_">
			<g>
				<polygon class="st6" points="1670.33,1319.59 1662.49,1324.57 1654.95,1324.71 1654.89,1321.03 1654.84,1318.41 
					1654.71,1312.23 1654.66,1309.61 1654.59,1306.14 1662.76,1305.98 1670.28,1311.18 				"/>
				<polygon class="st7" points="1654.84,1318.41 1654.89,1321.03 1649.5,1321.14 1649.46,1318.52 				"/>
				<polygon class="st7" points="1654.66,1309.61 1654.71,1312.23 1649.33,1312.34 1649.28,1309.72 				"/>
				<polygon class="st8" points="1649.46,1318.52 1649.5,1321.14 1646.7,1321.19 1646.63,1318.57 				"/>
				
					<rect x="1646.49" y="1309.74" transform="matrix(0.9998 -0.0185 0.0185 0.9998 -24.0265 30.7811)" class="st8" width="2.81" height="2.62"/>
			</g>
			<g>
			</g>
		</g>
	</g>
</g>
<g id="Layer_2">
	<path class="st9" d="M1714.34,1304.29c0,0,95.69-161.18,99.17-365.38c3.4-199.46-57.74-694.82-472.48-808.29
		c-193.5-52.94-388.06,42.32-486.21,209.84c-59.11,100.9-140.54,177.41-297.14,146.63c-303.5-59.66-470.31,532.19-147.63,817.2
		H1714.34z"/>
	<polygon class="st10" points="1755.77,1374.77 368.2,1374.77 410.05,1304.29 1714.34,1304.29 	"/>
	<polygon class="st8" points="826.63,831.45 866.69,831.45 852.8,853.71 809.82,853.71 	"/>
	<g>
		<g id="XMLID_5_">
			<g>
				<path class="st11" d="M1352.64,302.11v2.13h-15.06c0-0.71,0.01-1.42,0.03-2.13H1352.64z"/>
				<path class="st11" d="M1411.24,361.27v15.03c-0.53,0.01-1.07,0.02-1.6,0.02c-0.18,0-0.35,0-0.53-0.01v-15.04H1411.24z"/>
				<path class="st11" d="M1481.7,304.24h-15.05v-2.13h15.02C1481.69,302.82,1481.7,303.53,1481.7,304.24z"/>
				<path class="st11" d="M1411.24,232.23v15.03h-2.13v-15.04c0.18-0.01,0.35-0.01,0.53-0.01
					C1410.17,232.21,1410.71,232.22,1411.24,232.23z"/>
				<path class="st11" d="M1407.43,302.64c0,0-28.28-39.79-29.53-43.31c-1.26-3.52,2.76-2.77,2.76-2.77l28.98,44.21
					C1408.74,301.17,1407.97,301.82,1407.43,302.64z"/>
				<path class="st11" d="M1407.43,302.64c0.54-0.82,1.31-1.47,2.21-1.87c0.65-0.3,1.37-0.46,2.13-0.46c0.87,0,1.69,0.21,2.41,0.59
					c1.31,0.68,2.29,1.89,2.65,3.36c0.11,0.4,0.16,0.82,0.16,1.26c0,2.89-2.33,5.22-5.22,5.22c-2.88,0-5.21-2.33-5.21-5.22
					C1406.56,304.45,1406.88,303.46,1407.43,302.64z"/>
				<path class="st11" d="M1416.83,304.26c-0.36-1.47-1.34-2.68-2.65-3.36l36.12-14.92c0,0,4.78,1,1.51,4.02L1416.83,304.26z"/>
				<path class="st11" d="M1409.11,232.22c-38.83,0.27-70.37,31.27-71.5,69.89h-0.03v2.13c0,0.01,0,0.01,0,0.02
					c0,39.62,31.98,71.77,71.53,72.05v0.01h0.53h1.6v-0.02c39.06-0.85,70.46-32.77,70.46-72.04c0-0.01,0-0.01,0-0.02v-2.13h-0.03
					c-1.12-38.26-32.08-69.05-70.43-69.88v-0.02h-1.6L1409.11,232.22L1409.11,232.22z M1409.64,382.41
					c-43.16,0-78.14-34.99-78.14-78.15c0-43.15,34.98-78.14,78.14-78.14s78.15,34.99,78.15,78.14
					C1487.79,347.42,1452.8,382.41,1409.64,382.41z"/>
				<path class="st12" d="M1411.77,300.31c-0.76,0-1.48,0.16-2.13,0.46l-28.98-44.21c0,0-4.02-0.75-2.76,2.77
					c1.25,3.52,29.53,43.31,29.53,43.31c-0.55,0.82-0.87,1.81-0.87,2.88c0,2.89,2.33,5.22,5.21,5.22c2.89,0,5.22-2.33,5.22-5.22
					c0-0.44-0.05-0.86-0.16-1.26l34.98-14.26c3.27-3.02-1.51-4.02-1.51-4.02l-36.12,14.92
					C1413.46,300.52,1412.64,300.31,1411.77,300.31z M1481.7,304.26c0,39.27-31.4,71.19-70.46,72.04v-15.03h-2.13v15.04
					c-39.55-0.28-71.53-32.43-71.53-72.05c0-0.01,0-0.01,0-0.02h15.06v-2.13h-15.03c1.13-38.62,32.67-69.62,71.5-69.89v15.04h2.13
					v-15.03c38.35,0.83,69.31,31.62,70.43,69.88h-15.02v2.13h15.05C1481.7,304.25,1481.7,304.25,1481.7,304.26z"/>
			</g>
			<g>
				<path class="st13" d="M1487.79,304.26c0,43.16-34.99,78.15-78.15,78.15s-78.14-34.99-78.14-78.15
					c0-43.15,34.98-78.14,78.14-78.14S1487.79,261.11,1487.79,304.26z"/>
				<path class="st13" d="M1481.7,304.24c0,0.01,0,0.01,0,0.02c0,39.27-31.4,71.19-70.46,72.04c-0.53,0.01-1.07,0.02-1.6,0.02
					c-0.18,0-0.35,0-0.53-0.01c-39.55-0.28-71.53-32.43-71.53-72.05c0-0.01,0-0.01,0-0.02c0-0.71,0.01-1.42,0.03-2.13
					c1.13-38.62,32.67-69.62,71.5-69.89c0.18-0.01,0.35-0.01,0.53-0.01c0.53,0,1.07,0.01,1.6,0.02
					c38.35,0.83,69.31,31.62,70.43,69.88C1481.69,302.82,1481.7,303.53,1481.7,304.24z"/>
				<path class="st13" d="M1416.83,304.26c0.11,0.4,0.16,0.82,0.16,1.26c0,2.89-2.33,5.22-5.22,5.22c-2.88,0-5.21-2.33-5.21-5.22
					c0-1.07,0.32-2.06,0.87-2.88c0.54-0.82,1.31-1.47,2.21-1.87c0.65-0.3,1.37-0.46,2.13-0.46c0.87,0,1.69,0.21,2.41,0.59
					C1415.49,301.58,1416.47,302.79,1416.83,304.26z"/>
				<path class="st13" d="M1414.18,300.9l36.12-14.92c0,0,4.78,1,1.51,4.02l-34.98,14.26"/>
				<path class="st13" d="M1409.64,300.77l-28.98-44.21c0,0-4.02-0.75-2.76,2.77c1.25,3.52,29.53,43.31,29.53,43.31"/>
				<polygon class="st13" points="1411.24,232.23 1411.24,247.26 1409.11,247.26 1409.11,232.22 1409.11,232.21 1409.64,232.21 
					1411.24,232.21 				"/>
				<polygon class="st13" points="1411.24,376.3 1411.24,376.32 1409.64,376.32 1409.11,376.32 1409.11,376.31 1409.11,361.27 
					1411.24,361.27 				"/>
				<polygon class="st13" points="1481.67,302.11 1481.7,302.11 1481.7,304.24 1466.65,304.24 1466.65,302.11 				"/>
				<polygon class="st13" points="1337.61,302.11 1352.64,302.11 1352.64,304.24 1337.58,304.24 1337.58,302.11 				"/>
			</g>
		</g>
	</g>
	<g id="XMLID_13_">
		<g>
			<path class="st0" d="M1040.56,862.44c0,0,2.47,7.7-3.35,7.7H857.95c0,0-8.49-0.4-6.11-7.3L1040.56,862.44z"/>
			<path class="st14" d="M1017.66,825.9l22.89,36.54l-188.72,0.4l22.48-36.94H1017.66z M1026.49,852.12l-12.76-22.01H878.89
				l-13.16,22.26L1026.49,852.12z M961.61,859.48l-2.23-4.17H934l-2.48,4.19L961.61,859.48z"/>
			<polygon class="st0" points="1013.73,830.1 1026.49,852.12 865.73,852.36 878.89,830.1 			"/>
			<path class="st5" d="M1017.66,740.78v85.12H874.32v-85.12H1017.66z M1013.72,820.95v-75.23H910.61h-31.35v75.23h95.34H1013.72z"
				/>
			<path class="st11" d="M1013.72,745.72v75.23H974.6c-40.84-25.3-63.99-75.23-63.99-75.23H1013.72z"/>
			<path class="st12" d="M974.6,820.95h-95.34v-75.23h31.35C910.61,745.72,933.76,795.66,974.6,820.95z"/>
			<polygon class="st5" points="959.37,855.3 961.61,859.48 931.53,859.5 934,855.3 			"/>
		</g>
		<g>
		</g>
	</g>
	<line class="st1" x1="1362.18" y1="765.85" x2="1479.85" y2="737.32"/>
	<g>
		<g id="XMLID_3_">
			<g>
				<path class="st8" d="M1318.39,825.56c6.84,2.77,1.76,9.4,1.76,9.4L1226.24,870c-6.89,3.44-13.19,0-13.19,0l-57.23-32.84
					c-0.7-3.07,0.54-4.82,1.39-5.6c-0.31,0.59-0.36,1.22,0,1.86l57.96,33.58c4.83,1.83,7.36,1.22,11.72-1l91.49-34.51
					C1320.34,831.49,1321.13,826.69,1318.39,825.56z"/>
				<path class="st6" d="M1157.21,831.56c0.54-1.09,1.93-1.99,3.17-2.38l6.45-1.8l89.45-24.79c0.15-0.07,0.29-0.13,0.44-0.21
					c1.94-0.59,3.48-0.88,5.14,0.33l56.53,22.87c2.74,1.13,1.96,5.93,0,5.93L1226.89,866c-4.36,2.22-6.89,2.82-11.72,1l-57.96-33.58
					C1156.85,832.78,1156.9,832.14,1157.21,831.56z M1201.22,849.54l85.47-29.61l-27.95-12.54l-87.52,25.02L1201.22,849.54z
					 M1257.83,849.54l24.94-9.47l-11.38-5.11l-24.78,9.08L1257.83,849.54z"/>
				<path class="st0" d="M1286.69,746.23c0,0,11.31-1.19,5.24,9.76c2.12-4.73-0.72-6.97-3.69-6.97l-94.61,22.93
					c-3.35,0.95-6.99,2.89-9.58,6.5l-29.01,46.98c-0.9,2.25-0.65,3.49,0.54,4.05c0,0-5.14,0.67-2.64-5.91l29.17-48.12
					c0,0,2.73-4.65,9.32-6.69C1198.04,766.7,1286.69,746.23,1286.69,746.23z"/>
				<path class="st15" d="M1288.24,749.03c2.97,0,5.81,2.24,3.69,6.97l-30.38,42.24c-0.82,1.03-2.24,2.92-4.83,4.13l-89.89,25.01
					l-6.45,1.8l-2.55,0.7c-0.95,0-1.7-0.11-2.25-0.39c-1.19-0.55-1.44-1.8-0.54-4.05l29.01-46.98c2.6-3.61,6.24-5.55,9.58-6.5
					L1288.24,749.03z M1281.28,762.17c1.78-3.92-0.6-5.78-3.12-5.78l-79.87,19.07c-2.82,0.78-5.89,2.38-8.08,5.39l-24.5,39.04
					c-1.09,2.74-0.15,3.69,2.37,3.69l83.1-22.69c2.42-1,3.72-2.71,4.46-3.61L1281.28,762.17z"/>
				<polygon class="st0" points="1286.69,819.93 1201.22,849.54 1171.22,832.42 1258.74,807.4 				"/>
				<polygon class="st0" points="1282.77,840.08 1257.83,849.54 1246.61,844.04 1271.39,834.97 				"/>
				<path class="st12" d="M1278.17,756.39c2.51,0,4.9,1.86,3.12,5.78l-25.64,35.11c-0.73,0.9-2.04,2.61-4.46,3.61l-83.1,22.69
					c-2.51,0-3.46-0.95-2.37-3.69l24.5-39.04c2.19-3,5.26-4.6,8.08-5.39L1278.17,756.39z"/>
			</g>
			<g>
			</g>
		</g>
	</g>
	<g>
		<path class="st14" d="M1419.47,870.89h-145.5c-3.51,0-6.35-2.84-6.35-6.35v-82.71c0-3.51,2.84-6.35,6.35-6.35h145.5
			c3.51,0,6.35,2.84,6.35,6.35v82.71C1425.82,868.05,1422.98,870.89,1419.47,870.89z"/>
		<path class="st0" d="M1423.93,881.49h-154.41c-1.05,0-1.89-0.85-1.89-1.89v-6.81c0-1.05,0.85-1.89,1.89-1.89h154.41
			c1.05,0,1.89,0.85,1.89,1.89v6.81C1425.82,880.65,1424.97,881.49,1423.93,881.49z"/>
		<rect x="1274.26" y="873.15" class="st5" width="2.11" height="6.23"/>
		<rect x="1277.27" y="873.15" class="st5" width="2.11" height="6.23"/>
		<rect x="1280.2" y="873.15" class="st5" width="2.11" height="6.23"/>
		<rect x="1283.12" y="873.15" class="st5" width="2.11" height="6.23"/>
		<rect x="1286.07" y="873.15" class="st5" width="2.11" height="6.23"/>
		<rect x="1289.08" y="873.15" class="st5" width="2.11" height="6.23"/>
		<rect x="1292.01" y="873.15" class="st5" width="2.11" height="6.23"/>
		<rect x="1294.93" y="873.15" class="st5" width="2.11" height="6.23"/>
		<rect x="1303.33" y="873.15" class="st5" width="9.54" height="6.23"/>
		<rect x="1367.8" y="873.15" class="st5" width="33.89" height="6.23"/>
		<rect x="1409.64" y="875.13" class="st5" width="9.54" height="2.28"/>
	</g>
	<polygon class="st0" points="825.67,830.1 865.73,830.1 851.83,852.36 808.85,852.36 	"/>
	<polygon class="st5" points="846.59,832.55 859.81,832.55 855.22,839.9 841.04,839.9 	"/>
	<g>
		<path class="st16" d="M844.43,859.17l-0.48,0.76h-12.59l-5.55,7.35H840l1.38-2.22c0,0-1.73-0.39-1.29-1.65
			c0.45-1.28,2.97-1.04,2.97-1.04l1.52-2.44L844.43,859.17z"/>
		<path class="st5" d="M831.21,859.17h13.22l-1.52,2.44c0,0-2.52-0.23-2.97,1.04c-0.44,1.26,1.29,1.65,1.29,1.65l-1.38,2.22h-14.18
			L831.21,859.17z"/>
	</g>
	<polygon class="st5" points="841,841.23 854.22,841.23 849.64,848.58 835.45,848.58 	"/>
	<polygon class="st8" points="808.85,852.36 809.82,853.71 812.76,852.36 	"/>
	<polygon class="st8" points="865.73,830.1 866.69,831.45 864.89,831.45 	"/>
	<polygon class="st16" points="825.66,866.52 825.81,867.28 826.39,866.52 	"/>
	<polygon class="st16" points="841.22,864.3 841.38,865.06 840.75,865.06 	"/>
	<g>
		<g id="XMLID_12_">
			<g>
				<path class="st8" d="M1114.88,1360.66l-0.72,0.95c0,0-20.02-2.02-21.32-2.2c-1.29-0.19-6.21-1.44-6.21-1.44l-0.11-0.85
					c0.81,0.16,1.66,0.11,2.51-0.16c1.63-0.54,2.81-1.82,3.25-3.37l22.2,6.95L1114.88,1360.66z"/>
				<path class="st8" d="M1114.99,1359.54l-0.11,1.12l-0.4-0.12l-22.17-7.03c0.26-0.92,0.26-1.93-0.07-2.91
					c-0.39-1.17-1.16-2.11-2.14-2.7l0.86-0.68c0,0,4.18,1.29,5.36,1.86C1097.5,1349.62,1114.99,1359.54,1114.99,1359.54z"/>
				<path class="st15" d="M1092.28,1353.59c-0.44,1.54-1.62,2.83-3.25,3.37c-0.84,0.27-1.7,0.32-2.51,0.16l-0.68-5.54
					L1092.28,1353.59z"/>
				<path class="st15" d="M1092.31,1353.51c0,0.03-0.01,0.06-0.03,0.08l-6.44-2.01l0.68,5.54c-1.11-0.2-2.14-0.78-2.88-1.65
					l1.01-3.5c-0.74-0.33-1.43-0.62-2.1-0.88c0.09-0.41,0.22-0.81,0.42-1.18c1.42,0.38,2.42,0.59,2.42,0.59l1.85-3.37
					c1.03-0.04,2.03,0.23,2.87,0.76l-4.42,3.52L1092.31,1353.51z"/>
				<path class="st15" d="M1092.31,1353.51l-6.63-2.1l4.42-3.52c0.98,0.59,1.75,1.53,2.14,2.7
					C1092.57,1351.57,1092.57,1352.59,1092.31,1353.51z"/>
				<path class="st8" d="M1083.64,1355.47l-0.11,0.4l-2.85-0.83c0,0-1.92-2.49-6.98-2.16l-0.37-1.12l-0.82-2.5
					c0.27-0.04,3.9-0.52,10.04,1.82c-0.2,0.85-0.17,1.77,0.12,2.66C1082.88,1354.4,1083.22,1354.98,1083.64,1355.47z"/>
				<path class="st15" d="M1084.65,1351.97l-1.01,3.5c-0.42-0.49-0.76-1.07-0.98-1.72c-0.29-0.89-0.31-1.81-0.12-2.66
					C1083.23,1351.34,1083.92,1351.64,1084.65,1351.97z"/>
				<path class="st15" d="M1087.23,1347.13l-1.85,3.37c0,0-1-0.21-2.42-0.59c0.57-1.15,1.59-2.08,2.91-2.52
					C1086.33,1347.24,1086.78,1347.15,1087.23,1347.13z"/>
				<path class="st8" d="M1087.4,1346.84l-0.16,0.29c-0.45,0.02-0.9,0.11-1.36,0.26c-1.32,0.44-2.34,1.37-2.91,2.52
					c-2.87-0.76-7.44-2.2-8.98-3.99l3.66-2.12c0.65,0.45,3.2,2.09,6.57,2.09L1087.4,1346.84z"/>
				<path class="st17" d="M1073.7,1352.88l0.19,0.58c0,0-2.86-0.63-7.39,0.11c-4.54,0.74-14.47,0.8-20.46-1.86
					c-5.99-2.66-17.34-7.1-17.34-7.1s-1.57-0.85-0.83-2.52c0.74-1.68,2.87-0.81,3.36-0.56c0.49,0.24,19.78,9.38,28.7,8.07
					c0,0,8.19-1.2,12.29-1.18l0.28,0.85c-0.01,0.01-0.01,0.01-0.01,0.01l0.83,2.49L1073.7,1352.88z"/>
				<path class="st17" d="M1078.34,1343.39l-0.68,0.4c-0.1-0.08-0.16-0.12-0.16-0.12l-3.69,2c0.07,0.08,0.12,0.17,0.19,0.25
					l-0.82,0.47c0,0-4.45-3.53-6.88-6.38s-12.07-7.18-17.76-8.16c-5.67-0.99-13.18-3.16-13.18-3.16s-1.85-1.05-0.89-2.71
					c0.96-1.67,2.84-0.93,5.32-0.32c2.49,0.61,20.21,2.13,31.47,12.28C1071.26,1337.94,1075.15,1341.24,1078.34,1343.39z"/>
			</g>
			<g>
			</g>
		</g>
	</g>
	<g>
		<g id="XMLID_6_">
			<g>
				<path class="st14" d="M1101.23,1298.57c0.63-0.68,7.26-7.49,14.73-4.43c0,0,0.01,0.01,0.02,0.01c0.03,0.01,0.15,0.06,0.32,0.14
					c0.08,0.04,0.19,0.09,0.3,0.15c0.11,0.06,0.24,0.13,0.39,0.21c0,0,0.01,0,0.01,0.01c0.26,0.29,1.25,1.52,1.05,3.93
					c-0.1,1.05-0.58,3.76-1.15,6.71c-1.34,0.05-2.17,0.09-2.17,0.09l-1.29,7.54c0,0,0.79-0.08,1.96-0.12
					c-0.34,1.66-0.58,2.77-0.58,2.77s0.1,0.24,0.03,0.49c-0.06,0.21-0.25,0.43-0.76,0.48c-1.06,0.11-4.38,1.14-4.38,1.14
					s-0.86,0.33-0.62-1.16l0.68-4.23l1.22-7.63l0.47-2.94c0,0,0.85-1.75-1.29-2.05s-8.94-0.28-8.94-0.28
					S1100.57,1299.28,1101.23,1298.57z"/>
				<path class="st8" d="M1118.04,1298.59c0.2-2.42-0.79-3.65-1.05-3.93c1.35,0.78,3.8,2.58,5.85,6.17
					c3.01,5.28,9.06,7.31,12.94,8.45c1.99,0.6,13.26,4.3,23.7,7.74c0,0,10.12,8.52-0.34,9.99c-10.46,1.48-7.37-0.85-7.37-0.85
					l-21.58-8.24c0,0-5.79-2.64-15.33-1.84c0.07-0.25-0.03-0.49-0.03-0.49s0.24-1.11,0.58-2.77c2.1-0.09,5.43-0.04,7.74,0.84
					l6.58,2.1l24.16,9.37l1.24,0.49l0.11,0.03c9.15-0.94,2.66-6.95,2.66-6.95l-26.4-8.5c0,0-5.06-1.83-6.67-3.11
					c-1.62-1.26-2.92-1.84-5.58-1.83c-0.89,0.01-1.67,0.03-2.33,0.05C1117.46,1302.35,1117.94,1299.64,1118.04,1298.59z"/>
				<path class="st14" d="M1119.23,1305.24c2.65-0.02,3.96,0.57,5.58,1.83c1.61,1.27,6.67,3.11,6.67,3.11l26.4,8.5
					c0,0,6.49,6.01-2.66,6.95l-0.11-0.03l-1.24-0.49l-24.16-9.37l-6.58-2.1c-2.3-0.87-5.64-0.93-7.74-0.84
					c-1.17,0.04-1.96,0.12-1.96,0.12l1.29-7.54c0,0,0.83-0.05,2.17-0.09C1117.56,1305.27,1118.34,1305.25,1119.23,1305.24z"/>
				<path class="st7" d="M1111,1304.67l-1.23,7.63c0,0-7.42-2.99-9.33-7.36c0,0-0.49-0.85,0.92-0.74
					C1102.77,1304.32,1111,1304.67,1111,1304.67z"/>
			</g>
			<g>
			</g>
		</g>
	</g>
	<g>
		<g id="XMLID_8_">
			<g>
				<path class="st8" d="M1128.59,1330.3l0.14-1.18c0,0,18.38-8.24,19.59-8.72c1.21-0.49,6.1-1.86,6.1-1.86l0.51,0.68
					c-0.78,0.27-1.51,0.73-2.1,1.39c-1.15,1.29-1.52,3-1.13,4.55L1128.59,1330.3z"/>
				<path class="st8" d="M1129.04,1331.33l-0.45-1.03l23.13-5.07c0.23,0.93,0.73,1.8,1.5,2.5c0.93,0.82,2.07,1.26,3.22,1.28
					l-0.41,1.04c0,0-4.26,0.95-5.57,1.05C1149.16,1331.21,1129.04,1331.33,1129.04,1331.33z"/>
				<path class="st15" d="M1151.7,1325.16c-0.39-1.56-0.02-3.26,1.13-4.55c0.6-0.66,1.33-1.12,2.1-1.39l3.35,4.47L1151.7,1325.16z"
					/>
				<path class="st15" d="M1151.7,1325.16l6.58-1.47l-3.35-4.47c1.06-0.37,2.23-0.38,3.3-0.01l0.89,3.54
					c0.8-0.08,1.55-0.17,2.26-0.28c0.14,0.4,0.21,0.81,0.23,1.23c-1.42,0.38-2.39,0.69-2.39,0.69l0.07,3.83
					c-0.85,0.56-1.86,0.83-2.86,0.78l2.07-5.26l-6.78,1.48C1151.71,1325.2,1151.7,1325.19,1151.7,1325.16z"/>
				<path class="st15" d="M1151.72,1325.23l6.78-1.48l-2.07,5.26c-1.15-0.02-2.28-0.46-3.22-1.28
					C1152.46,1327.03,1151.96,1326.16,1151.72,1325.23z"/>
				<path class="st8" d="M1158.23,1319.21l-0.1-0.39l2.9-0.71c0,0,2.9,1.2,7.13-1.61l2.82,2.54c0,0-2.85,2.38-9.6,3.43
					c-0.24-0.83-0.73-1.62-1.43-2.25C1159.44,1319.76,1158.85,1319.42,1158.23,1319.21z"/>
				<path class="st15" d="M1159.12,1322.76l-0.89-3.54c0.62,0.21,1.21,0.55,1.73,1.01c0.7,0.63,1.18,1.41,1.43,2.25
					C1160.67,1322.59,1159.93,1322.68,1159.12,1322.76z"/>
				<path class="st15" d="M1159.29,1328.23l-0.07-3.83c0,0,0.97-0.32,2.39-0.69c0.08,1.28-0.34,2.6-1.28,3.63
					C1160.03,1327.69,1159.67,1327.99,1159.29,1328.23z"/>
				<path class="st8" d="M1159.3,1328.58l-0.01-0.36c0.38-0.23,0.74-0.54,1.05-0.89c0.94-1.04,1.35-2.35,1.28-3.63
					c2.87-0.78,7.56-1.8,9.78-1.01l-2.13,3.67c-0.78-0.07-3.8-0.24-6.74,1.45L1159.3,1328.58z"/>
				<path class="st18" d="M1168.17,1316.5l-0.45-0.41c0,0,2.8-0.88,6.35-3.78c3.56-2.89,12.13-7.91,18.66-8.59
					c6.52-0.68,18.57-2.49,18.57-2.49s1.79-0.05,1.98,1.77c0.2,1.83-2.08,2.13-2.63,2.16c-0.55,0.03-21.83,1.75-28.91,7.31
					c0,0-6.5,5.13-10.07,7.15l-0.68-0.6L1168.17,1316.5z"/>
				<path class="st18" d="M1168.87,1327.05l0.39-0.68c0.12,0.02,0.19,0.02,0.19,0.02l2.22-3.58c-0.09-0.03-0.19-0.08-0.28-0.12
					l0.46-0.8c0,0,5.62,0.83,9.15,2.08c3.53,1.25,14.03,0.2,19.46-1.77c5.41-1.98,13-3.84,13-3.84s2.11-0.03,2.13,1.9
					c0,1.92-2,2.23-4.45,2.94c-2.46,0.71-18.58,8.22-33.4,5.04C1177.73,1328.24,1172.72,1327.31,1168.87,1327.05z"/>
			</g>
			<g>
			</g>
		</g>
	</g>
	<path class="st19" d="M1884.69,1672.17c0,0,1.12,24.74,19.53,25.3c0,0-14.22,0.76-19.76-2.65L1884.69,1672.17z"/>
	<g>
		<path class="st20" d="M729.9,1060.98"/>
		<g>
			<path class="st21" d="M573.29,1224.3c0,0,3.39,35.3,1.16,46.82c-0.3,1.54-0.95,3.49-1.72,5.65c-2.29,6.45,3.99,26.16,3.99,26.16
				l84.27,0.3c4.59,0.02,1.52-2.76-2.21-5.31c-6.11-4.17-11.04-6.92-30.5-15.61c-1.27-0.57-5.9-3.3-7.57-4.24
				c-4.23-2.39-8.5-6.19-12.18-10c-6.13-6.35-7.06-37.46-7.06-37.46L573.29,1224.3z"/>
			<path class="st22" d="M620.69,1278.06c-22.21,5.71-38.73,2.2-47.99-1.23c-2.29,6.44-6.51,30.88-3.93,30.88
				c21.13,0,38.92,1.18,99.46,0.27c2.17-0.03,1.9-7.14,0.49-8.71C664.82,1294.93,622.37,1279.01,620.69,1278.06z"/>
			<path class="st23" d="M654.19,1030.89l-49.64,218.88l-1.51-0.05l-28.06-0.85l-8.27-0.25c0,0,1.95-84.81,0.65-116.87
				c-1.15-28.28,14.77-64.15,20.56-89.67c-7.26-17.51-22.26-39.85-38.78-62.49c-26.19-35.85-56.18-72.44-65.21-91.71
				c-1.16-2.48-2.24-5.07-3.25-7.73h113.43L654.19,1030.89z"/>
			<path class="st21" d="M451.25,1253.94c0,0-1.7,28.67-1.7,28.73c-0.62,3.64-3.08,12.63-3.08,15.94
				c0,12.43,57.77-10.55,44.82-16.06c-1.17-0.5-9.13-7.09-9.52-11.32c-0.59-6.52-0.28-16.89-0.28-16.89L451.25,1253.94z"/>
			<path class="st22" d="M491.15,1282.44c0,0-13.56,3.8-20.51,4.75c-6.95,0.95-16.11-7.05-21.02-4.89
				c-5.41,2.38-5.62,25.82-5.62,25.82s72.29,2.23,93.69-0.81C546.1,1306.1,518.88,1291.3,491.15,1282.44z"/>
			<path class="st24" d="M574.89,880.15c-6.89,26.67-16.92,65.41-25.75,99.44c-10.68,41.08-19.64,75.28-19.3,73.08
				c0.01-0.05,0.01-0.08,0.01-0.09c-0.64,1.68-42.06,203.08-42.06,203.08l-6.33-0.14l-30.26-0.68l-2.72-0.06l18.41-208.37
				c0,0-10.36-110.31-15.94-166.26H574.89z"/>
		</g>
		<g>
			<g id="XMLID_7_">
				<g>
					<path class="st5" d="M824.87,855.78c1.81-0.07,0.97,1.38,0.44,2.14c-0.54,0.75-1.25,0.95-1.25,0.95l-49.5,25.37l-1.59-3.12
						c4.16-2.09,47.51-23.87,48.55-24.56C822.62,855.84,823.07,855.84,824.87,855.78z"/>
					<path class="st25" d="M774.58,889.77c-0.18,1.06-2.77,1.68-2.77,1.68c-3.99-0.98-5.66,0.71-7.29,1.89
						c-1.63,1.18-1.21,2.6-4.78,3.47c-3.58,0.86-8.97,4.77-11.09,6.23c-2.11,1.46-4.77,5.3-9.35,5.78s-11.69,4.34-11.69,4.34
						c-4.84,1.44-7.37-1.17-9.48-6.89c-2.09-5.73,2.27-8.4,2.27-8.4c4.86-1.52,10.02-4.89,12.33-6.7c2.3-1.8,3.94-1.87,3.94-1.87
						c7.15,0.19,15.02-3.55,15.02-3.55s2.3-2.52,5.58-2.68s7.15-1.44,7.6-3.55c0.47-2.12,1.33-2,2.7-2.51
						c1.38-0.53,2.54,1.79,2.54,1.79l4.43,8.92C774.53,887.7,774.77,888.71,774.58,889.77z M755.95,895.28
						c4.92-2.46,8.19-5.89,7.3-7.64c-0.88-1.76-5.58-1.2-10.5,1.27c-4.92,2.46-8.19,5.89-7.31,7.65
						C746.33,898.32,751.04,897.74,755.95,895.28z"/>
					<polygon class="st22" points="772.99,881.11 774.57,884.23 775.91,886.9 774.53,887.7 770.1,878.78 771.43,878.02 					"/>
					<path class="st22" d="M763.26,887.64c0.88,1.75-2.39,5.17-7.3,7.64c-4.92,2.46-9.63,3.04-10.5,1.28
						c-0.88-1.76,2.39-5.19,7.31-7.65C757.68,886.44,762.38,885.88,763.26,887.64z"/>
				</g>
				<g>
				</g>
			</g>
		</g>
		<path class="st21" d="M777.34,826.9c0,0,21.21-5.28,24.75-5.07c3.54,0.21,14.26,3.15,14.39,4.2c0.14,1.04,0.5,4.22-1.65,4.4
			c-2.15,0.18-4.25-1.02-3.83-0.13c0.42,0.88,8.53,0.16,8.64,4.41c0.11,4.26-3.48,17.26-12.9,17.91
			c-9.42,0.65-27.62-10.5-29.2-10.62C764.12,840.94,777.34,826.9,777.34,826.9z"/>
		<path class="st26" d="M781.36,833.62c3.42-9.81-1.04-12.75-1.04-12.75s-91.4-43.53-98.85-48.37
			c-7.45-4.85-56.38-99.84-56.38-99.84s-18.07-38.88-42.03-37.58c-20.82,1.13-32.63,14.87-39.31,29.16
			c-7.96,17.02-5.1,36.98,6.95,50.26c27.06,29.81,81.41,88.83,95.61,97.66c31.61,19.65,127.15,34.04,127.15,34.04
			S778.67,841.32,781.36,833.62z"/>
		<path class="st21" d="M619.64,612.16c0,0,12.68,52.87,38.16,66.05c0,0,3-16.65-0.77-29.52c3.5-2.5,6.61-4.83,9.32-6.93
			c9.02-7.02,13.61-11.55,13.61-11.55l-2.97-27.02l2.42-12.85c-4.37,4.68-8.9,8.79-13.34,11.89
			C643.17,618.17,619.64,612.16,619.64,612.16z"/>
		<path class="st27" d="M665,601.54c0,0-12.77,18.5,1.34,40.22c9.02-7.02,13.61-11.55,13.61-11.55l-2.97-27.02
			C667.89,597.7,665,601.54,665,601.54z"/>
		<path class="st21" d="M678.53,643.99c0,0-28.68-35.73-6.15-53.25c22.53-17.52,34-33.93,53.26-11.85
			c19.26,22.07,14.16,33.24,8.06,40.92C727.6,627.48,686.57,652.84,678.53,643.99z"/>
		<path d="M691.57,545.15c0.04-0.66-0.4-1.64-1.91-3.26c0,0,2.05,0.41,3.8,2.01c2.5-1.94,7.51-4.8,12.26-2.1
			c0,0-3.12-0.86-5.69,1.29c8.86-0.38,21.57,5.36,45.83,32.66c31.97,35.97-1.03,47.55-8.09,45.94
			c-7.06-1.62-11.29-19.79-20.29-27.13c-9-7.34-22.34,3.4-26.79,2.37c-4.45-1.03-0.48-2.94-2.63-8.38
			c-2.15-5.44-8.7,0.67-11.61,5.92c-2.91,5.26-13.49,5.74-13.49,5.74s0,0,0.26-10.93c0.26-10.93,18.88-40.4,26.34-43.34
			C690.24,545.69,690.9,545.42,691.57,545.15z"/>
		<path class="st21" d="M721.36,876.95c0,0,21.16,3.84,24.31,5.45c3.15,1.61,11.87,8.54,11.62,9.53c-0.24,0.98-1.03,3.95-3.04,3.25
			c-2.01-0.71-3.52-2.62-3.44-1.66c0.07,0.96,7.7,3.57,6.31,7.4c-1.4,3.83-9.23,13.96-18.04,10.74
			c-8.81-3.21-21.45-20.45-22.85-21.2C704.4,884.12,721.36,876.95,721.36,876.95z"/>
		<path class="st28" d="M722.66,884.55c6.56-7.35,3.54-11.76,3.54-11.76s-67.88-75.49-72.96-82.81
			c-5.08-7.31-16.22-111.5-16.22-111.5s-2.78-41.86-25.04-50.34c-19.35-7.37-34.93,0.1-46.02,10.12
			c-13.22,11.94-17.64,30.84-11.34,47.51c14.14,37.41,42.86,111.78,52.68,125.35c21.86,30.2,103.75,81.44,103.75,81.44
			S717.51,890.32,722.66,884.55z"/>
		<path class="st28" d="M619.64,612.16c0,0,8.29,36.11,38.16,66.05c0,0-7.61,42.98-38.16,77.29c-30.54,34.3-13.29,121.4-13.29,121.4
			s-67.06,26.64-156.15,4.22c0,0-23.97-143.5,103.8-246.07C553.99,635.05,586.26,612.16,619.64,612.16z"/>
		<path class="st26" d="M568.03,718.53c0,0,17.19,60.18,34.52,84.35c0,0-0.73,48.2,2.27,64.9
			C604.82,867.77,560.01,797.44,568.03,718.53z"/>
	</g>
	<path class="st29" d="M299.47,1175.25c2.65,2.51,3.05,5.6,3.11,5.91c0.01,0.02,0.01,0.03,0.01,0.03v-0.04"/>
	<path class="st29" d="M300.72,1183.62v-0.01c0.62-0.75,1.24-1.56,1.86-2.45c0.01,0,0.01-0.01,0.01-0.01"/>
	<g>
		<g id="XMLID_10_">
			<g>
				<path class="st30" d="M1004.9,1205.11c17.87,28.47,8.1,50.93,0,62.39c-3.82,5.4-7.27,8.37-7.27,8.37
					c-48.47,26.89-87.56-14.66-97.02-26.08l0.16-0.48c0.4-1.23-0.12-2.53-1.18-3.17c5.77-4.18,31.79-22.23,55.81-25.4
					c9.19-1.21,17.82-3.38,25.22-5.74C995.13,1210.4,1004.9,1205.11,1004.9,1205.11z"/>
				<path class="st31" d="M1004.9,1267.5v58.97c0,0-75.01,20.03-96.94,20.03c-2.69,0-5.26-0.13-7.72-0.38l-1.71-92.71
					c0.65-0.3,1.18-0.87,1.42-1.61l0.66-2.01c9.46,11.43,48.55,52.97,97.02,26.08C997.64,1275.87,1001.08,1272.91,1004.9,1267.5z"/>
				<path class="st14" d="M1004.9,1191.59v13.52c-2.77-63.11-41.24-69.48-41.24-69.48c-5.71-0.34-10.94,0.03-15.71,1.01
					c-53.31,10.89-50.29,97.17-49.62,109.02l-1.79-0.58c-0.02-0.01-0.03-0.01-0.05-0.02c-1.06-13.62-3.8-77.14,34.74-104.38
					c0,0,41.54-29.37,68.66,26.25l0.01-0.01C1002.43,1173.84,1004.21,1181.99,1004.9,1191.59z"/>
				<path class="st32" d="M999.9,1166.92L999.9,1166.92c-27.12-55.61-68.66-26.24-68.66-26.24c-38.54,27.24-35.8,90.76-34.74,104.38
					c-1.41-0.43-2.91,0.34-3.37,1.75l-0.51,1.58c-4.58,0.47-12.46,0.5-25.63-1.37v-55.42c0,0-0.28-8.26,2.88-18.83v-0.01
					c2.67-8.93,7.79-19.49,17.58-28.16c4.35-3.84,9.62-7.32,16.01-10.1c1.4-0.61,2.85-1.19,4.36-1.72c2.22-0.8,4.57-1.52,7.04-2.15
					c4.02-1.02,8.38-1.82,13.1-2.32c2.34-0.26,4.77-0.43,7.3-0.54c1.44-0.06,2.92-0.1,4.43-0.11c2.6-0.03,5.29,0.03,8.08,0.16
					c0,0,11.47,0.02,24.14,6.52C982.3,1139.65,993.5,1149.33,999.9,1166.92z"/>
				<path class="st33" d="M1004.9,1205.11c0,0-9.77,5.29-24.28,9.89c4.26-63.14-32.67-78.36-32.67-78.36
					c4.77-0.98,10-1.35,15.71-1.01C963.66,1135.63,1002.13,1142,1004.9,1205.11z"/>
				<path class="st34" d="M947.95,1136.64c0,0,36.93,15.22,32.67,78.36c-7.4,2.35-16.03,4.53-25.22,5.74
					c-24.02,3.17-50.04,21.22-55.81,25.4c-0.17-0.1-0.36-0.19-0.55-0.25l-0.71-0.23C897.66,1233.81,894.64,1147.53,947.95,1136.64z"
					/>
				<path class="st31" d="M956.69,1110.62c7.24-0.91,16.26,2,15.23,23.71c-12.68-6.51-24.14-6.52-24.14-6.52s1.47-14.2,7.55-16.81
					c0.01,0,0.02-0.01,0.02-0.01c0.61-0.2,1.02-0.3,1.22-0.34C956.65,1110.63,956.69,1110.62,956.69,1110.62z"/>
				<path d="M939.69,1127.63c5.21-11.95,12.62-15.6,15.63-16.64c-6.09,2.62-7.55,16.81-7.55,16.81c-2.79-0.13-5.48-0.19-8.08-0.16
					V1127.63z"/>
				<path d="M935.26,1127.75c-2.52,0.11-4.95,0.29-7.3,0.54c0.32-5.33,1.01-25.25-6.92-23.63c-9.08,1.86-8.94,13.63-6.18,25.95
					c-2.47,0.63-4.82,1.35-7.04,2.15c-1.03-5.78-3.55-25.86,10.25-30.12C932.4,1098.22,934.88,1122.26,935.26,1127.75z"/>
				<path class="st14" d="M893.06,1252.13c-0.76-0.69-1.09-1.79-0.75-2.83l0.3-0.92l0.51-1.58c0.46-1.41,1.96-2.18,3.37-1.75
					c0.02,0.01,0.03,0.01,0.05,0.02l1.79,0.58l0.71,0.23c0.19,0.06,0.38,0.15,0.55,0.25c1.06,0.64,1.58,1.94,1.18,3.17l-0.16,0.48
					l-0.66,2.01c-0.24,0.74-0.77,1.3-1.42,1.61c-0.26,0.12-0.56,0.21-0.85,0.24c-0.37,0.05-0.76,0.01-1.14-0.12l-2.48-0.82
					C893.67,1252.59,893.34,1252.39,893.06,1252.13z M899.76,1248.75c0.03-0.79-0.42-1.54-1.16-1.88c-0.06-0.03-0.12-0.05-0.19-0.08
					c-0.01-0.01-0.01-0.01-0.02-0.01l-1.79-0.59l-0.05-0.02c-1.05-0.34-2.18,0.23-2.52,1.28l-0.61,1.84
					c-0.34,1.05,0.23,2.18,1.28,2.52l1.84,0.61c0.71,0.23,1.46,0.05,1.97-0.43c0.25-0.23,0.44-0.51,0.56-0.85l0.6-1.84
					C899.73,1249.12,899.76,1248.93,899.76,1248.75z"/>
				<path class="st32" d="M866.99,1273.56v-26.55c13.17,1.87,21.05,1.85,25.63,1.37l-0.3,0.92c-0.34,1.04-0.02,2.14,0.75,2.83
					c-0.05,0.5-0.34,1.74-1.92,3.16c-2.02,1.81-7.96,9.78-1.02,12.65c0,0,7.72,1.87,6.79-11.21c0,0,0.06-1.78,0.76-3.09
					c0.29-0.03,0.59-0.12,0.85-0.24l1.71,92.71c-17.6-1.74-29.2-8.98-33.25-11.35V1273.56z"/>
				<path class="st31" d="M898.6,1246.87c0.75,0.33,1.2,1.09,1.16,1.88c0,0.19-0.03,0.37-0.09,0.56l-0.6,1.84
					c-0.12,0.34-0.31,0.63-0.56,0.85c-0.51,0.47-1.26,0.66-1.97,0.43l-1.84-0.61c-1.05-0.34-1.62-1.47-1.28-2.52l0.61-1.84
					c0.34-1.05,1.47-1.62,2.52-1.28l0.05,0.02l1.79,0.59c0.01,0,0.01,0,0.02,0.01c0.01,0.14,0.02,0.22,0.02,0.22
					S898.48,1246.96,898.6,1246.87z"/>
				<path class="st14" d="M896.54,1253.53c0.38,0.12,0.77,0.16,1.14,0.12c-0.7,1.31-0.76,3.09-0.76,3.09
					c0.92,13.08-6.79,11.21-6.79,11.21c-6.95-2.87-1-10.84,1.02-12.65c1.58-1.42,1.87-2.66,1.92-3.16c0.28,0.26,0.61,0.46,0.99,0.58
					L896.54,1253.53z M894.48,1264.24c0.53-1.62-0.36-3.37-1.98-3.9c-1.62-0.54-3.37,0.35-3.9,1.98c-0.54,1.62,0.36,3.37,1.98,3.9
					C892.21,1266.75,893.95,1265.87,894.48,1264.24z"/>
				<path class="st31" d="M892.5,1260.35c1.62,0.53,2.51,2.27,1.98,3.9c-0.53,1.62-2.27,2.51-3.9,1.98
					c-1.62-0.53-2.52-2.27-1.98-3.9C889.13,1260.7,890.88,1259.81,892.5,1260.35z"/>
				<path class="st31" d="M903.46,1134.49c-6.39,2.78-11.66,6.26-16.01,10.1c-2.31-2.19-6.37-5.66-11.63-8.73
					c-3.9-2.27-8.45-4.31-13.43-5.44C877.39,1114.52,898.35,1130.21,903.46,1134.49z"/>
				<path d="M866.99,1247.01v26.55c-1.9-4.79-28.9-74.05-14.9-122.88c2.74-9.54,6.31-16.02,10.3-20.25
					c4.98,1.13,9.53,3.18,13.43,5.44c-2.65,8.21-5.88,20.09-5.95,36.88v0.01c-3.16,10.57-2.88,18.83-2.88,18.83V1247.01z"/>
			</g>
			<g>
			</g>
		</g>
	</g>
</g>
</svg>
