<svg id="Layer_1" data-name="Layer 1" xmlns="http://www.w3.org/2000/svg" viewBox="0 0 2903.66 2000"><defs><style>.cls-1{fill:#fff;}.cls-2{fill:#edf4fa;}.cls-3{fill:#5b2703;}.cls-4{fill:#050505;}.cls-5{fill:#ffb27d;}.cls-6{fill:#331602;}.cls-7{fill:#233862;}.cls-8{fill:#fffaa6;}.cls-9{fill:#c1bc80;}.cls-10{fill:#2b32b2;}.cls-11{fill:#252f8e;}.cls-12{fill:#2b478b;}.cls-13{fill:#d65751;}.cls-14{fill:#9e332e;}.cls-15{fill:#f99746;}.cls-16{fill:#b5453c;}.cls-17{fill:#2c3a64;}.cls-18{fill:#d3aa89;}.cls-19{fill:#eac3a0;}.cls-20{fill:#ed975d;}.cls-21{fill:#a9453d;}.cls-22{fill:#a57d62;}.cls-23{fill:#efcbab;}.cls-24{fill:#c69d7f;}.cls-25{fill:#c5d6e2;}.cls-26{fill:#d5e4ef;}.cls-27{fill:#2e3552;}</style></defs><title>cook3</title><rect class="cls-1" width="2903.66" height="2000"/><path class="cls-2" d="M438.13,508.28C820.34,74.92,1742.39,33,1913.43,421.55c129.79,294.83,443.76,72.13,668.9,490.53,246.56,458.21-138.6,951.25-138.6,951.25H484C96.13,1364.86,195.53,783.35,438.13,508.28Z"/><path class="cls-3" d="M727.77,885.14l-94.39-102.6-21,15.61S712.5,984.55,745.54,972.69C761,967.16,727.77,885.14,727.77,885.14Z"/><path class="cls-4" d="M885,547.93s-37.29,22-14.41,64.53c0,0-32.65-6-39.7-15.72a25.65,25.65,0,0,0,2,6.11s-30-6.8-39.83-19.33S831.42,421,909.43,459.81c0,0,71.34,13.24,43.4,92.44s-1.54,86.2-1.54,86.2-8.3,1.68-11.85.74c0,0-4.66-3.35-4.92-6.48,0,0-.17,4.77.78,6.56,0,0-29.22-4.85-40.61-19.38S876.5,563.55,885,547.93Z"/><path class="cls-5" d="M831.14,675.44l-.13.05C830.78,675.46,830.83,675.44,831.14,675.44Z"/><path class="cls-3" d="M921.77,649.35c1.1,9.82,2.41,18.63,3,22.82,1.31,9.4-87.93,3.28-93.62,3.27,4-1.73,16.07-40.12,19.9-54.77,4.64-17.76,8.29-37,8.29-37l63,4,3.75.23A219.18,219.18,0,0,0,921,612.16c-.15,1-.3,2-.43,3C919.4,623.56,920.41,637.22,921.77,649.35Z"/><path class="cls-4" d="M850.65,577.36s-10.22-32.4-8.15-57.24c1.48-17.74,26.73-78.25,87.43-52.5a88.68,88.68,0,0,1,32,22.85c11.25,12.88,25.73,38.09-10.88,87l-10.64,17Z"/><path class="cls-6" d="M921.77,649.35C877.69,636.44,859,585.52,859,585.52c18.64.55,42.93,13.49,62,26.64-.15,1-.3,2-.43,3C919.4,623.56,920.41,637.22,921.77,649.35Z"/><path class="cls-3" d="M924.89,631.46s-79.64-19.68-66.62-69.09,11.51-85.22,62.91-74.74,56.27,31.92,55.93,49.47S945.94,635.31,924.89,631.46Z"/><path class="cls-4" d="M957.62,496s-37,52.2-72.64,51.94-47.67-13-47.67-13,22.78-21.73,37.46-55.77C874.77,479.15,948.54,464.07,957.62,496Z"/><path class="cls-4" d="M951,499.26s12.79,17.23,13.41,30.85-4.45,40,3.33,41.1c0,0,26.78-35.06,14.3-62.2C968.79,480.23,951,499.26,951,499.26Z"/><path class="cls-4" d="M953.49,502S922,558.6,874.77,566.91c0,0,51.91-26.15,66.08-65.26S953.49,502,953.49,502Z"/><path class="cls-1" d="M912.46,599.79s1,7.52,5.79,9.3,17.54,5,18.83,4.2,6.06-6.66,6.06-6.66S923.07,598.93,912.46,599.79Z"/><path class="cls-3" d="M882.73,1355.53q-1.52,6.34-3,12.56c-12.44,22.08-21.81,46.91-25.32,66.27-4.58,25.2-.73,48.12,5.28,56,24.73,32.43-1.54,277.19-1.54,277.19l-14.83,26.82s-48.2-246.32-61.47-286.13c-6-18.1-11.91-95.65-29.82-170.31q-.6-5.92-1.16-11.84c-1.34-13.8-2.64-27.55-3.88-41-7-74.66-12.18-138.59-12.18-138.59s51.9-36.49,99.06-40.56c27.78-2.42,53.91,6.42,66.81,40.56C919.45,1196.2,900.41,1282,882.73,1355.53Z"/><path class="cls-7" d="M864.95,1487.35c24.73,32.43,0,289.76,0,289.76l-28.15,29S787.87,1552,774.6,1512.23c-6-18.1-14.83-95.39-22.59-174.3,23.45,10.47,80.68,33.26,127.7,30.16-6,24.95-11.59,48.09-15.11,67.44C860,1460.73,858.94,1479.47,864.95,1487.35Z"/><path class="cls-6" d="M882.73,1355.53c-38.57-27.85-92.82-77.41-112.51-158.66-3.77-40.39,28.08-78.77,63.63-90.9,27.78-2.42,53.91,6.42,66.81,40.56C919.45,1196.2,900.41,1282,882.73,1355.53Z"/><path class="cls-3" d="M1023.36,864.82l189.52,49v22.13s-188.6-2.21-200.77-23.22S1023.36,864.82,1023.36,864.82Z"/><path class="cls-3" d="M1212.88,1594.24l-8.94,28.62s-241.86-132.07-275-157.5c-13.32-10.22-39.22-59.26-61.66-120.86C843,1251,821.59,1141.23,821.59,1141.23S857.53,1003,953.74,1087.6c57.58,50.63,48.62,148.17,42.31,224-9.74,50.82-15.64,95.37,3.46,106,37.24,20.78,151.22,115.94,185.8,181.81Z"/><path class="cls-8" d="M831,837.23c-3.47,84.76-16.15,168.7-53.06,163.3-45.23-6.6-57-48.82-59.42-80.21C717,900.78,723.66,875,723.66,875s17.26,7,27.25-6.51c13.87-18.69,6.16-157.13,14.62-173.21s63.38-26.41,63.38-26.41S834.46,753.44,831,837.23Z"/><path class="cls-9" d="M831,837.23c-3.47,84.76-16.15,168.7-53.06,163.3-45.23-6.6-57-48.82-59.42-80.21,11.11-.56,30.66-3.27,38.43-15.12,11.12-17,45.83-126.16,45.83-126.16S816.43,803.55,831,837.23Z"/><path class="cls-8" d="M1116.37,864.82c12.26,17.41,5.51,51.18-20.21,78.36-16,16.88-37.6,26.87-72.8,21.68-15.34-2.26-58.22-26.47-62.73-56-.81-5.35-1.26-8.48-1.26-8.48s-19.52,19.55-20.25,23.24c-.33,1.66-2,16.43-2.28,18.45-.31,2.44,1.43,11.41,1.43,11.41S845,994.27,767.95,947.83c0,0-22-188.36-6.19-219.71,7.84-15.57,51.85-45.9,67.17-59.3,3.44-3,6.94-12.1,6-17.95-.78-4.94,4.91-13.28,9.68-11.76,9.21,3,35.29,15.85,53.63,10.93,9.14-2.43,20.73-13,29.58-10.57,10.83,3-.61,29,5.53,29.35,8.45.42,54.13,9.55,58,16.92,1.33,2.57,14.45,37.32,30.9,83.31a.53.53,0,0,1,0,.12C1053.09,855.46,1098.37,839.27,1116.37,864.82Z"/><path class="cls-9" d="M959.38,900.4s-2.27-71.85-8.08-71-89.57,81.51-69.67,113.76S959.38,900.4,959.38,900.4Z"/><path class="cls-10" d="M1023.36,1274s-32.28,13.07-79.84,21.69c-58.89,10.67-141.21,14.51-214.73-21.69,0,0-6.06-143.36,11.36-218.09s25.56-110.5,25.56-110.5,69.79,22.93,140.67,5.15a187.42,187.42,0,0,0,29.73-10.07s43.72,121.65,55.75,173.78S1023.36,1274,1023.36,1274Z"/><path class="cls-11" d="M1023.36,1252.8s-32.28,12.24-79.84,20.31c-87.21-60.68-44.69-316-44.69-316q3.88-3.86,7.56-7.14a196.34,196.34,0,0,0,29.73-9.43s43.72,113.9,55.75,162.72S1023.36,1252.8,1023.36,1252.8Z"/><path class="cls-1" d="M767.12,937.18c-21.58,35.51-53.85,158.77-43,190.69,28.18,44.59,187.52,62.08,209.52,0C959,1056.46,902.3,943.18,902.3,943.18,829,957.12,767.12,937.18,767.12,937.18Z"/><path class="cls-1" d="M839.83,964.86c-51.7,0-73-17.79-74.59-19l-3.34-24.35c.5.37,69.87,42,177.23,2.13l-2.28,18.45C895.57,957.43,866.69,964.86,839.83,964.86Z"/><path class="cls-3" d="M1212.89,913.78s34.77-17.13,48.59-18.79,37-2.21,37,0-24.88,17.67-31.52,18.79-19.35,10.52-15.48,11.62,24.33-3.59,24.6,0-12.44,5.81-14.65,8.57-10,6.08-22.39,4.42-26.2-2.49-26.2-2.49C1209.68,927.33,1209.05,919.72,1212.89,913.78Z"/><path class="cls-12" d="M1212.88,1594.24l-8.86,36.58S947.65,1498.4,914.49,1473c-13.32-10.22-30.92-65.7-47.22-128.47,21.88,4.5,69.14,6.88,128.78-32.86-4.2,50.91-7.21,92.06,11.88,102.72,37.24,20.78,146.52,116.53,181.1,182.39Z"/><path class="cls-8" d="M1263.56,1608.44l-.23-.05c-1.15-.29-6.42-2-9.92-10.41-2.3-5.52-3-10.06-5.11-15.52l-8.66-14.94c-9.05-11.92-12.23-9.13-12.23-9.13s-2.37,3-5.86,7c-5.78,6.6-14.63,15.82-20.9,18.18a18.22,18.22,0,0,0-9,7,17.27,17.27,0,0,0-2.67,6.14s18.59,3.24,17,12.4c-3.16,17.73-2.41,21-2.09,21.54l.11.12s31.7,16.59,41.84,19.85c18,5.78,27.46,18,33.31,23.64a10.43,10.43,0,0,0,8.87,2.8c4.76-.75,10.93-2.28,12.28-5.19Z"/><path class="cls-8" d="M893.24,1819,878,1827.23c-5.52,2-10.07,2.51-15.66,4.66-8.49,3.25-14.46,9.64-14.74,10.79-4.28,17.42-10.37,16.31-10.37,16.31l-61,.57c-2.88-1.44,2-13.75,4.34-16.05,5.77-5.68,23-2.82,29.33-20.69,3.55-10,21.06-41.25,21.06-41.25l.12-.11c.59-.31,3.84-1,21.47,2.71,9.11,1.88,12.89-16.6,12.89-16.6a17.27,17.27,0,0,1,6.06,2.85,18.23,18.23,0,0,1,6.75,9.15c2.18,6.33,11.14,15.45,17.57,21.42,3.9,3.61,6.87,6.07,6.87,6.07S905.41,1810.3,893.24,1819Z"/><path class="cls-3" d="M625.05,801c-22.78-4.48-36.16-2.82-42.34-1-11,3.68-23.55,7.27-28.07,6.08-8.61-2.26-49.67-20.2-45.91-20.19,2.12,0,12.57-1,22.51-1.34-5.4-5.1-10.64-10.4-9.79-11.19,3-2.76,14.52,5.45,21.35,11.33a19.33,19.33,0,0,1,6.51,1.32c4.37,2.21,5.42-1.2,8.07-2.2,1.34-.51,3.19,1.27,4.23.89-5.27-5.82-12.32-15.56-10.28-16.94,2.94-2,14.55,6.7,23.49,8.78,5,1.17,8.95,2.93,10.88,6.05,1.52,2.46,8.23,3.54,8.23,3.54l37.24.11Z"/><path class="cls-13" d="M596.3,719.3a37,37,0,0,1-20.65,8.43,33.23,33.23,0,0,0-8.46-9.9l1.82-7.5-17.9-.07h0l-18.46-.07-6.34,0-11.82,0,1.76,7.7a34.26,34.26,0,0,0-6.09,6.22c-2.39-1.79-8.34-5.69-14.37-4.84-9.16,1.28-12.27,9-10.53,15.05,1.25,4.31,5,8.57,12.27,13.54a39.34,39.34,0,0,0,8.65,4.33c3.17,7.94,9.82,14.48,18.38,18.28l-1.21,5a2,2,0,0,0,1.89,2.41h33.58a1.83,1.83,0,0,0,1.73-2.42l-1.72-4.93c11-4.85,18.85-14.23,20.24-25.28l.23.76c7.16-.35,18.71-18.23,22.27-24l.05-.08h0c.66-1.07,1-1.71,1-1.71C601.2,718.21,596.3,719.3,596.3,719.3ZM489.08,732.67a6.74,6.74,0,0,1,3.9-7.23,11,11,0,0,1,3.85-1.07c4.61-.48,8.37,2.06,10.56,4a28.5,28.5,0,0,0-3.25,13.19,28.2,28.2,0,0,0,1.15,8C500,746.62,490.86,739.73,489.08,732.67Z"/><path class="cls-14" d="M577.75,734.63a10.47,10.47,0,0,0-2-.59l3.55,11.88c7.16-.35,18.71-18.23,22.27-24C600.61,723.21,589,739,577.75,734.63Z"/><path class="cls-14" d="M535.19,740.61c-.18-12.15,14-22.78,14-22.78l-5.77-.37c-11.59-1.53-17-7.26-17-7.26l-.18,0-11.82,0,1.76,7.7a33.84,33.84,0,0,0-7.13,7.7c-3.73-1.16-12.42-3.37-16.12-.09h0a11,11,0,0,1,3.85-1.07c4.61-.48,8.37,2.06,10.56,4a28.5,28.5,0,0,0-3.25,13.19c0,12.55,8.29,23.43,20.42,28.8l-1.21,5a2,2,0,0,0,1.89,2.41H549.7l1.81-7.07C543.42,768.77,535.37,752.76,535.19,740.61Z"/><path class="cls-15" d="M643.87,759.17c-.63-2.44,3.19-3.95,3.19-3.95l1.76,5S644.51,761.61,643.87,759.17Z"/><path class="cls-15" d="M555.24,758.4a4.08,4.08,0,0,0,1.25,5.62l.23.15a3.62,3.62,0,0,0-1.1,2.58c.31,6.27,89.15-.58,89.15-.58s-1-.92-2.61-2.2a4.07,4.07,0,0,0-3.49-7.31l-2.67.95a4,4,0,0,0-1.78,1.27c-4.17-2.07-9-3.48-13.46-2.31l-.83.19-1-4s-4.26,1.19-3.86,3.87a1.83,1.83,0,0,0,.38.88l-.28,0a4.33,4.33,0,0,0-.11-1,4.4,4.4,0,0,0-5.3-3.24l-3,.72a4.39,4.39,0,0,0-3.32,3.83l-1.17,0a6.63,6.63,0,0,0-3.06-.27,4.07,4.07,0,0,0-2.18-3.24l-2.52-1.3a4.08,4.08,0,0,0-5.49,1.75,4,4,0,0,0-.43,2l-2.55-.22c-.46,0-1-.06-1.47-.07l-2.12-4.06s-3.44,2-2.64,4.24h0a4.08,4.08,0,0,0-5.44-1.64l-.93.49a4.07,4.07,0,0,0-6.87-4.31l-1.7,2.27a4.08,4.08,0,0,0,.8,5.69,1.86,1.86,0,0,0-2.08-.23,3.91,3.91,0,0,0-.35-.27l-2.39-1.52a4.08,4.08,0,0,0-5.61,1.23c1.5-2-2.25-4.52-2.25-4.52l-2.84,4.45S553.7,760.4,555.24,758.4Zm10.65,1a2.17,2.17,0,0,0-.19-.21c.09.07.2.12.29.18Z"/><path class="cls-15" d="M572.31,750.42c-1.88-1.68.47-5.05.47-5.05l4.22,3.17S574.19,752.1,572.31,750.42Z"/><path class="cls-15" d="M584,755.18l2.42-4.69s4,2.17,2.64,4.31S584,755.18,584,755.18Z"/><path class="cls-14" d="M551.25,764.36v6.44a10.23,10.23,0,0,0,10.2,10.2h76.09a10.23,10.23,0,0,0,10.2-10.2v-6.44Z"/><path class="cls-16" d="M556,764.36v6.44a10.23,10.23,0,0,0,10.2,10.2h41.45a10.23,10.23,0,0,0,10.2-10.2v-6.44Z"/><path class="cls-12" d="M702,773.12H385.41a4.36,4.36,0,0,0,0,8.72h28.44l1.93.51a136.33,136.33,0,0,0,34.78,4.51h186.3a136.32,136.32,0,0,0,34.78-4.51l1.93-.51H702a4.36,4.36,0,0,0,0-8.72Z"/><path class="cls-14" d="M414.07,761.74l-.15-2.64c-8.16-1-15.61-5.72-15.63-9.92a3.53,3.53,0,0,1,1.39-3.25c1.43-.9,4-.6,6.83.79l1.13-2.32c-3.76-1.84-7.07-2.08-9.33-.66-1.19.75-2.61,2.3-2.6,5.45C395.73,755.55,405.48,760.7,414.07,761.74Z"/><path class="cls-16" d="M417.27,763.8a26.35,26.35,0,0,1-13.11-21.44,1.8,1.8,0,0,1,1.78-1.93h44.33a1.8,1.8,0,0,1,1.78,1.93,26.35,26.35,0,0,1-13.11,21.44,1.28,1.28,0,0,0-.12,2.18,21.33,21.33,0,0,1,6.71,7.57H410.69A21.33,21.33,0,0,1,417.4,766,1.28,1.28,0,0,0,417.27,763.8Z"/><path class="cls-14" d="M431.73,763.34c-7.64,1.34-3.48,3.48,1.07,3.88,3.77.33,7.26,1.86,10.41,6.33h2.32a21.33,21.33,0,0,0-6.71-7.57,1.28,1.28,0,0,1,.12-2.18,26.35,26.35,0,0,0,13.11-21.44,1.8,1.8,0,0,0-1.78-1.93C449.55,750.35,439.37,762,431.73,763.34Z"/><path class="cls-14" d="M479.22,761.74l-.15-2.64c-8.16-1-15.61-5.72-15.63-9.92a3.53,3.53,0,0,1,1.39-3.25c1.43-.9,4-.6,6.83.79l1.13-2.32c-3.76-1.84-7.07-2.08-9.33-.66-1.19.75-2.61,2.3-2.6,5.45C460.88,755.55,470.63,760.7,479.22,761.74Z"/><path class="cls-16" d="M482.43,763.8a26.35,26.35,0,0,1-13.11-21.44,1.8,1.8,0,0,1,1.78-1.93h44.33a1.8,1.8,0,0,1,1.78,1.93A26.35,26.35,0,0,1,504.1,763.8,1.28,1.28,0,0,0,504,766a21.33,21.33,0,0,1,6.71,7.57H475.84a21.33,21.33,0,0,1,6.71-7.57A1.28,1.28,0,0,0,482.43,763.8Z"/><path class="cls-14" d="M496.89,763.34c-7.64,1.34-3.48,3.48,1.07,3.88,3.77.33,7.26,1.86,10.41,6.33h2.32A21.33,21.33,0,0,0,504,766a1.28,1.28,0,0,1,.12-2.18,26.35,26.35,0,0,0,13.11-21.44,1.8,1.8,0,0,0-1.78-1.93C514.7,750.35,504.52,762,496.89,763.34Z"/><path class="cls-14" d="M639,761.74l-.15-2.64c-8.16-1-15.61-5.72-15.63-9.92a3.53,3.53,0,0,1,1.39-3.25c1.43-.9,4-.6,6.83.79l1.13-2.32c-3.76-1.84-7.07-2.08-9.33-.66-1.19.75-2.61,2.3-2.6,5.45C620.67,755.55,630.42,760.7,639,761.74Z"/><path class="cls-16" d="M642.21,763.8a26.35,26.35,0,0,1-13.11-21.44,1.8,1.8,0,0,1,1.78-1.93h44.33a1.8,1.8,0,0,1,1.78,1.93,26.35,26.35,0,0,1-13.11,21.44,1.28,1.28,0,0,0-.12,2.18,21.33,21.33,0,0,1,6.71,7.57H635.63a21.33,21.33,0,0,1,6.71-7.57A1.28,1.28,0,0,0,642.21,763.8Z"/><path class="cls-14" d="M656.67,763.34c-7.64,1.34-3.48,3.48,1.07,3.88,3.77.33,7.26,1.86,10.41,6.33h2.32a21.33,21.33,0,0,0-6.71-7.57,1.28,1.28,0,0,1,.12-2.18A26.35,26.35,0,0,0,677,742.36a1.8,1.8,0,0,0-1.78-1.93C674.49,750.35,664.31,762,656.67,763.34Z"/><path class="cls-17" d="M1710.9,1859.56h124.27a11.26,11.26,0,0,0,2.64-.77c8.3-4.16,5.7-35.92,4.7-45.73-.19-1.82-.33-2.88-.33-2.88s-43.7-34.95-49.71-8.19c-.19.83-.41,1.65-.64,2.46h0c-7.59,25-41.5,36.41-61.08,39.58C1715.78,1846.48,1711.9,1855.2,1710.9,1859.56Z"/><path class="cls-17" d="M1546.39,1859.56h124.27a11.24,11.24,0,0,0,2.64-.77c8.3-4.16,5.7-35.92,4.7-45.73-.19-1.82-.33-2.88-.33-2.88S1634,1775.22,1628,1802c-.19.83-.41,1.65-.64,2.46h0c-7.59,25-41.5,36.41-61.08,39.58C1551.27,1846.48,1547.39,1855.2,1546.39,1859.56Z"/><path class="cls-18" d="M2049.12,1196.74v296.32h300.25V1196.74a94.78,94.78,0,0,0-94.79-94.79h-110.7A94.77,94.77,0,0,0,2049.12,1196.74Z"/><path class="cls-19" d="M2049.12,1196.74v296.32h281V1196.74c0-52.35-46.76-94.79-104.43-94.79h-72.11C2095.86,1102,2049.12,1144.39,2049.12,1196.74Z"/><path class="cls-19" d="M1846.29,1490.16a17.91,17.91,0,0,0,4.79,12.3,15.79,15.79,0,0,0,11.54,5.08H2333c9,0,16.33-7.78,16.33-17.38a17.91,17.91,0,0,0-4.78-12.3,15.8,15.8,0,0,0-11.55-5.08H1862.62C1853.61,1472.77,1846.29,1480.55,1846.29,1490.16Z"/><path class="cls-18" d="M2078.56,1490.16a17.9,17.9,0,0,0,4.78,12.3,15.8,15.8,0,0,0,11.55,5.08H2333c9,0,16.33-7.78,16.33-17.38a17.91,17.91,0,0,0-4.78-12.3,15.8,15.8,0,0,0-11.55-5.08H2094.89C2085.87,1472.77,2078.56,1480.55,2078.56,1490.16Z"/><path class="cls-19" d="M2292.89,1507.54l9.31,63.92L2343,1851.24a7.75,7.75,0,0,0,7.48,6.66h.14a5,5,0,0,0,4.79-5.56l-25.28-309.87-2.84-34.94Z"/><path class="cls-18" d="M2292.89,1507.54l9.31,63.92c8.6-19,20.7-26.25,27.9-29l-2.84-34.94Z"/><path class="cls-19" d="M2119.39,1507.54l-9.31,63.92-40.77,279.78a7.75,7.75,0,0,1-7.48,6.66h-.14a5,5,0,0,1-4.79-5.56l25.28-309.87,2.84-34.94Z"/><path class="cls-18" d="M2119.39,1507.54l-9.31,63.92c-8.6-19-20.7-26.25-27.9-29l2.84-34.94Z"/><path class="cls-19" d="M1941.12,1507.54l-9.31,63.92L1891,1851.24a7.75,7.75,0,0,1-7.48,6.66h-.14a5,5,0,0,1-4.79-5.56l25.28-309.87,2.84-34.94Z"/><path class="cls-18" d="M1941.12,1507.54l-9.31,63.92c-8.6-19-20.7-26.25-27.9-29l2.84-34.94Z"/><path class="cls-5" d="M2264,966.13s-40.9,39.06-85.09,16.08c0,0-7.32-25.09-5.55-42.8.22-2.18.42-4.29.61-6.31,1.91-20,2.45-31.21,2.45-31.21h0c2.19-.65,73.68-21.33,73.37-19C2242.8,936.66,2264,966.13,2264,966.13Z"/><path class="cls-20" d="M2241.55,895c-7.93,11.52-33.17,33-67.61,38.11,1.91-20,2.45-31.21,2.45-31.21h0C2178.39,901.58,2243.9,891.6,2241.55,895Z"/><path class="cls-5" d="M2162.28,898.26s75,26.44,90.76-20.53,36-75.19-11.2-94.05-62.59-4.08-71.66,10.32S2143.17,890.18,2162.28,898.26Z"/><path class="cls-7" d="M2159.78,1293.39s31,127,0,179.39l-320.72-14.67s-38.71,2.31-33,49.43c6,49.21-56,158.45-124.19,309.65,0,0-34.93,4.87-53.89-15.2,0,0,79-389,95.08-405.2,59.36-59.85,318.63-63.08,318.63-63.08Z"/><path class="cls-21" d="M2249,890.56c1,.79,17,7.67,55.13-51.42,6-9.27,11.64-30.13,2.2-50.12s-48.55-39.15-81.66-49.22-43.3,8.07-53.33,26.33c-10.53,19.17-36.46,33.08-36.46,33.08,27.39,19.45,65,0,76.79,5.11s14,24.79,14.22,31,1.1,11.51,17,7.67,4.57,22.43,1.56,27.36C2244.4,870.37,2240.82,884,2249,890.56Z"/><path class="cls-12" d="M2239.69,1293.39s31,127,0,179.39H1933.23s-35,2.35-29.32,49.47c6,49.21,8.83,135.16-59.35,286.35,0,0-38.41,11.34-55.9-1.15,0,0-1.79-394.45,14.28-410.66,59.36-59.85,318.63-63.08,318.63-63.08Z"/><path class="cls-5" d="M1870.67,977.63s-41-9.7-46.59-16.19-25.36-34.14-21.65-36.58,26.14,12.39,33.3,15.33,13.89,3.89,10.63,1.55-15.15-16-13.33-18,11.35,6,18.49,9.31,21.82,9,39.25,31.95C1900.47,977.76,1870.67,977.63,1870.67,977.63Z"/><path class="cls-11" d="M2243,1013.79s-56.51,127.27-234.16,147.71c-55.45,6.38-143.24-182.65-143.24-182.65s12.47-16.48,30.21-12.49c0,0,103.65,97.3,116.93,108.22,11.78,9.68,118.86-87,160.84-96.95S2243,1013.79,2243,1013.79Z"/><path class="cls-10" d="M2066.37,1092.24c-6.19,24.89-12.21,53.12-17.85,81.92l-1,5.13c-3.45,17.85-6.81,35.77-9.86,53.31q-1.83,10.55-3.48,20.85l-.14.93c-.62,2.51-1,5.3-1.42,7.84-10.88,65.83-17.84,118.27-16.82,119.38a7.45,7.45,0,0,0,4.59,2.57c17.39,2.39,66.55,19.66,110,21.73,36.63,2,70.19-3.89,106.84-14.1,4.86-1.36,16.2-5.37,16.73-10.49.68-5.6,1.36-13.79,2.19-24.08,2.91-35.79,7.88-97.35,22.61-167q4.07-19.48,7-38.68c5.15-33.3,7.73-65.55,7.47-94.89-.49-54.5-18.66-99.54-40.56-121.7-2.88-2.81-16.38,4.57-36,10.84-18.15,5.78-28.25,4.21-43.73-1.43l-20.31,9.44a47.27,47.27,0,0,0-9,5.46c-20.39,15.76-43.9,35.54-57.8,69q-1.66,4-3.3,8.51C2077.21,1051.59,2071.74,1070.67,2066.37,1092.24Z"/><path class="cls-22" d="M2136.28,1316.39l.35,0c5.5-.51,9.82-2.75,12.84-6.67,6.16-8,4.25-20,4.16-20.53a3.73,3.73,0,0,0-7.35,1.21c0,.13,1.44,9.41-2.72,14.79-1.73,2.23-4.22,3.47-7.62,3.79a3.73,3.73,0,0,0,.34,7.44Z"/><path class="cls-11" d="M2026.8,1298.6c32.21,15.24,91.64,36.87,141.84,19,73-25.91,91.61-261.32,91.61-261.32s-28.33-7.11-82.16,0c-35.07,4.64-98.72,100.76-138.82,167.18Z"/><path class="cls-23" d="M1427.1,1859.28a7.39,7.39,0,0,0,7.43-5.72L1471,1659.77l52.39-278.71,14.65-77.94-37.32-1-6.47,45.24-45.46,317.94-27,188.46A5.06,5.06,0,0,0,1427.1,1859.28Z"/><path class="cls-24" d="M1494.2,1347.36c24.18,10,29.14,33.7,29.14,33.7l14.65-77.94-37.32-1Z"/><path class="cls-23" d="M2101.11,1859.28a6.74,6.74,0,0,1-6.57-5.72l-32.18-193.79-46.29-278.71-12.94-77.94,33-1,5.72,45.24L2082,1665.3l23.81,188.46A4.83,4.83,0,0,1,2101.11,1859.28Z"/><path class="cls-24" d="M2041.81,1347.36c-21.36,10-25.75,33.7-25.75,33.7l-12.94-77.94,33-1Z"/><path class="cls-24" d="M1574.47,1853.76l27-188.46,45.46-317.94,6.47-45.24,37.32,1L1676,1381.05l-52.39,278.71-36.42,193.79a7.39,7.39,0,0,1-7.43,5.72A5.06,5.06,0,0,1,1574.47,1853.76Z"/><path class="cls-24" d="M2159.08,1347.36l40.17,317.94,23.81,188.46a4.83,4.83,0,0,1-4.69,5.52,6.74,6.74,0,0,1-6.57-5.72l-32.18-193.79-46.29-278.71-12.94-77.94,33-1Z"/><path class="cls-24" d="M1396.27,1293.39v19.44c0,11.49,8.84,20.88,19.66,20.88h805.25c10.81,0,19.66-9.4,19.66-20.88v-19.44c0-11.47-8.84-20.87-19.66-20.87H1415.93C1405.11,1272.52,1396.27,1281.92,1396.27,1293.39Z"/><path class="cls-23" d="M1396.27,1293.39v19.44c0,11.49,8.84,20.88,19.66,20.88h597c10.81,0,19.66-9.4,19.66-20.88v-19.44c0-11.47-8.84-20.87-19.66-20.87h-597C1405.11,1272.52,1396.27,1281.92,1396.27,1293.39Z"/><polygon class="cls-15" points="1837.24 1179.08 1842.82 1128.67 1996.55 1251.08 1961.47 1273.11 1837.24 1179.08"/><polygon class="cls-15" points="1892.7 1137.59 1837.24 1179.08 1961.47 1273.11 2018.14 1237.52 1892.7 1137.59"/><polygon class="cls-25" points="1848.98 1128.67 1845.2 1173.12 1876.47 1149.72 1848.98 1128.67"/><polygon class="cls-26" points="1848.98 1128.67 1844.54 1132.1 1839.17 1177.63 1845.2 1173.12 1848.98 1128.67"/><polygon class="cls-26" points="1890.32 1139.36 1887.63 1136.83 1845.2 1167.75 1843.25 1174.48 1890.32 1139.36"/><path class="cls-5" d="M1965,1192.29c-6.09-5.57-19.94-17.89-21-15.67-.78,1.59-.33,4.53,1.12,7.7-8.74-4.59-17.77-8-40.34-6.59a16.65,16.65,0,0,0-11.74,5.76c-2.69,3.21-4.09,7.48,1.09,11.69,10.35,8.42,7.63,3.82,22,16s33.13,17.19,45.47,11.5l15.66-.61,5.11-25S1973.66,1194.9,1965,1192.29Z"/><path class="cls-10" d="M2273.37,1001.92s-53.18,254.75-123.52,270.61c-29.52,6.65-178.5-45.21-178.5-45.21s-16-31.5,5.73-43c0,0,141,7.45,146,4,5.76-3.94,27.59-181.66,42.64-189.9S2267.65,959.68,2273.37,1001.92Z"/><path class="cls-27" d="M2670.9,1868.87H256.09a5.56,5.56,0,0,1-5.54-5.54h0a5.56,5.56,0,0,1,5.54-5.54H2670.9a5.56,5.56,0,0,1,5.54,5.54h0A5.56,5.56,0,0,1,2670.9,1868.87Z"/></svg>