<?xml version="1.0" encoding="utf-8"?>
<!-- Generator: Adobe Illustrator 24.3.0, SVG Export Plug-In . SVG Version: 6.00 Build 0)  -->
<svg version="1.1" xmlns="http://www.w3.org/2000/svg" xmlns:xlink="http://www.w3.org/1999/xlink" x="0px" y="0px"
	 viewBox="0 0 1984.25 1417.32" style="enable-background:new 0 0 1984.25 1417.32;" xml:space="preserve">
<style type="text/css">
	.st0{opacity:0.3;fill:#DAEAF8;}
	.st1{fill:#DAEAF8;}
	.st2{fill:#8CB0DD;}
	.st3{fill:#ACC9EA;}
	.st4{fill:none;stroke:#000000;stroke-width:1.7968;stroke-miterlimit:10;}
	.st5{opacity:0.4;fill:#FFFFFF;}
	.st6{fill:#FFFFFF;}
	.st7{fill:#C5C5C4;}
	.st8{fill:#11385A;}
	.st9{fill:#5B5E5D;}
	.st10{fill:#304296;}
	.st11{fill:#C49A6C;}
	.st12{fill:#314097;}
	.st13{fill:#EAE4AB;}
	.st14{fill:#F9F3A2;}
	.st15{fill:#D6B49D;}
	.st16{fill:#176232;}
	.st17{fill:#AD8A68;}
	.st18{fill:#5A5D5C;}
	.st19{fill:#F5FBFE;}
</style>
<g id="linework">
	<g>
		<path class="st0" d="M1555.27,1326.61c0,0,236.8-297.73,214.93-785.31c-22.19-494.73-509.54-410.92-627.9-388.94
			c-156.8,29.12-479.42-178.5-689.95,13.15S51.63,741.6,425.61,1326.61H1555.27z"/>
		<rect x="375.63" y="279" class="st0" width="1216.43" height="1054.99"/>
		<g>
			<g id="XMLID_7_">
				<g>
					<path class="st1" d="M1592.07,905.91v420.11c-29.47,5.89-40.48-7.13-40.75-7.46v-0.01l14.37-393.71
						C1575.15,920.41,1584.49,914.31,1592.07,905.91z"/>
					<path class="st2" d="M1565.69,924.84c-11.98,5.61-24.12,8.54-33.02,10.06c-8.25,1.41-13.72,1.6-13.72,1.6
						c-13.27-11.11-6.82-30.59-6.82-30.59s4.86-0.35,12.47-1.71c7.09-1.26,16.57-3.38,26.71-6.91c4.69-1.62,9.53-3.55,14.34-5.84
						c9.34-4.41,18.55-10.16,26.42-17.61v32.07C1584.49,914.31,1575.15,920.41,1565.69,924.84z"/>
					<path class="st1" d="M1592.07,279.01v594.84c-7.87,7.45-17.08,13.2-26.42,17.61c-59.35-167.61-31.29-500.92-23.2-582.91
						C1574.64,290.94,1592.07,279.01,1592.07,279.01z"/>
					<path class="st1" d="M607.33,386.64c-26.06-9.35-52.36-19.85-78.85-31.59c-31.42-13.92-63.12-29.58-95.03-47.13
						c-16.59-9.12-33.23-18.75-49.93-28.91h1208.54c0,0-17.43,11.93-49.62,29.54c-23.97,13.09-56.11,29.33-95.33,46.13v0.01
						c-23.8,10.18-50.2,20.59-78.96,30.6c-18.38,6.41-37.73,12.67-57.98,18.61c-166.22,48.84-393.07,77.25-645,1.78
						C646.03,399.95,626.75,393.61,607.33,386.64z"/>
					<path class="st1" d="M1565.69,924.84l-14.37,393.71v0.01c-0.01-0.01-0.01-0.01-0.01-0.01c-51.85-5.97-40.75-49.27-40.75-49.27
						v-0.01l22.11-334.37C1541.57,933.38,1553.71,930.45,1565.69,924.84z"/>
					<path class="st3" d="M1565.65,891.46c-4.81,2.29-9.64,4.22-14.34,5.84c-104.12-146.69-106.14-450.37-104.19-542.61v-0.01
						c39.23-16.8,71.37-33.04,95.33-46.13C1534.36,390.54,1506.3,723.85,1565.65,891.46z"/>
					<path class="st1" d="M1551.31,897.3c-10.14,3.53-19.62,5.65-26.71,6.91c-116.2-99.04-148.52-409.19-156.44-518.92
						c28.76-10.01,55.17-20.42,78.96-30.6C1445.17,446.93,1447.19,750.61,1551.31,897.3z"/>
					<path class="st3" d="M1532.67,934.9l-22.11,334.37v0.01c-23.33,16.42-37.29,0-37.29,0l45.68-332.77
						C1518.94,936.5,1524.42,936.31,1532.67,934.9z"/>
					<path class="st3" d="M1524.6,904.21c-7.61,1.35-12.47,1.71-12.47,1.71c-138.03-122.97-186.68-385.08-201.95-502.01
						c20.25-5.94,39.6-12.2,57.98-18.61C1376.08,495.02,1408.4,805.16,1524.6,904.21z"/>
					<path class="st1" d="M665.17,405.68c-15.53,117.79-64.37,377.88-201.71,500.24c0,0-4.87-0.35-12.47-1.71
						c115.72-98.64,148.25-406.66,156.34-517.57C626.75,393.61,646.03,399.95,665.17,405.68z"/>
					<path class="st3" d="M607.33,386.64c-8.09,110.91-40.62,418.93-156.34,517.57c-7.09-1.26-16.57-3.38-26.71-6.91
						c103.98-146.5,106.13-449.57,104.2-542.25C554.97,366.79,581.27,377.29,607.33,386.64z"/>
					<path class="st1" d="M528.48,355.05c1.93,92.67-0.22,395.74-104.2,542.25c-4.69-1.62-9.53-3.55-14.34-5.84
						c59.35-167.61,31.29-500.92,23.2-582.91l0.32-0.63C465.37,325.47,497.06,341.13,528.48,355.05z"/>
					<path class="st1" d="M456.64,936.5l45.68,332.77c0,0-13.95,16.42-37.29,0l0.01-0.01L442.92,934.9
						C450.98,936.27,456.4,936.5,456.64,936.5z"/>
					<path class="st3" d="M442.92,934.9l22.12,334.37l-0.01,0.01c0,0,11.1,43.3-40.75,49.27l-14.37-393.71
						C421.88,930.45,434.02,933.38,442.92,934.9z"/>
					<path class="st2" d="M442.92,934.9c-8.9-1.52-21.04-4.45-33.01-10.06c-9.46-4.42-18.81-10.53-26.39-18.93v-32.07
						c7.87,7.45,17.08,13.2,26.42,17.61c4.81,2.29,9.64,4.22,14.34,5.84c10.14,3.53,19.62,5.65,26.71,6.91
						c7.61,1.35,12.47,1.71,12.47,1.71s6.45,19.48-6.81,30.59c0,0,0,0-0.01,0C456.4,936.5,450.98,936.27,442.92,934.9z"/>
					<path class="st3" d="M433.14,308.54c8.09,82,36.15,415.3-23.2,582.91c-9.34-4.41-18.55-10.16-26.42-17.61V279.01
						c16.7,10.16,33.35,19.79,49.93,28.91L433.14,308.54z"/>
					<path class="st1" d="M409.91,924.84l14.37,393.71c0,0-10.9,13.44-40.76,7.47V905.91C391.1,914.32,400.45,920.42,409.91,924.84z
						"/>
				</g>
				<g>
				</g>
			</g>
		</g>
		<polyline class="st4" points="1650.08,1326.01 1643.55,1326.01 388.34,1326.01 315.74,1326.01 		"/>
		<path class="st5" d="M644.57,343.18l-27.86,769.13c0,0,0.35,40.38,98.99,69.05s284.08,1.97,264.35-69.05
			c-19.73-71.02-303.17-783.19-303.17-783.19L644.57,343.18z"/>
		<path class="st5" d="M784.74,375.46l-11,715.83c0,0,0.38,43.18,105.84,73.82s303.73,2.11,282.64-73.82
			c-21.09-75.93-356.85-730.6-356.85-730.6L784.74,375.46z"/>
		<path class="st3" d="M929.08,281.59l-4.87-1.72V111.25h-11.69v164.47l-96.69-34.22c-2.13-11-10.96-19.24-21.53-19.24
			c-5.71,0-10.9,2.43-14.82,6.38l-98.81-34.97c-1.99-11.2-10.9-19.66-21.61-19.66c-5.85,0-11.16,2.54-15.11,6.67l-196.15-69.42
			h-12.84v26.14l204.27,71.58c2.05,4.69,5.4,8.55,9.56,10.98v23.78l-17.75-7.14c-8.28-3.22-10.12,4.54-10.12,4.54v48.27
			c-1.14,1.04-1.98,1.97-2.43,2.68c-4.02,6.36-2.41,14.07-2.41,14.07l10.63,83.22c2.06,16.13,18.27,18.7,18.27,18.7
			c28.05,7.18,52.08-7.71,52.08-7.71c12.26-6.01,8.96-20.97,8.96-20.97l-7.51-69.22c-0.45-7.15-1.23-12.01-2.06-15.32v-25.62
			c0.56-7.82-5.16-8.42-5.16-8.42l-23.4-9.41c0-0.05,0.01-0.1,0.01-0.14v-30.56c0.64-0.31,1.27-0.66,1.88-1.03l104.24,36.52
			c1.99,5.16,5.55,9.4,10,12v23.78l-17.75-7.14c-8.28-3.22-10.12,4.54-10.12,4.54v48.79c-1.41,1.69-2.36,3.16-2.76,4.16
			c-2.76,6.9,0,14.26,0,14.26l23.46,80.49c4.55,15.6,20.24,15.64,20.24,15.64c27.6,2.76,47.83-15.64,47.83-15.64
			c10.58-7.82,5.06-22.08,5.06-22.08l-18.25-67.15c-0.01-0.06-0.03-0.11-0.04-0.17V317.5c0.56-7.82-5.16-8.42-5.16-8.42l-23.4-9.41
			c0-0.05,0.01-0.1,0.01-0.14v-30.56c0.95-0.46,1.86-1.01,2.73-1.6l101.77,35.66c0,0,25.33,13.64,32.15,0
			C946.61,289.38,929.08,281.59,929.08,281.59z M687.56,284.5c-23.38-12.98-44.39-8.11-57.04-1.56l-0.4-37.61l18.89,7.98
			c0.93,4.3,4.76,7.52,9.33,7.52c1.85,0,3.58-0.54,5.04-1.45L688.53,270L687.56,284.5z M823.2,326.75L823.2,326.75
			c-25.14-12.21-45.33-5.45-57.46,2.89l-0.38-36.06l18.89,7.98c0.93,4.3,4.76,7.52,9.33,7.52c1.85,0,3.58-0.54,5.04-1.45
			l25.15,10.62L823.2,326.75z"/>
		
			<ellipse transform="matrix(0.9905 -0.1375 0.1375 0.9905 -46.9717 95.2435)" class="st6" cx="665.98" cy="387.65" rx="31.44" ry="16.47"/>
		
			<ellipse transform="matrix(0.9768 -0.2141 0.2141 0.9768 -73.0546 184.1479)" class="st6" cx="813.58" cy="429.33" rx="31.44" ry="16.47"/>
		<g>
			<g id="XMLID_8_">
				<g>
					<path class="st7" d="M1072.91,775.52c4.01,27.88,2.11,49.67-5.64,64.74c-5.39,10.47-13.63,17.52-24.5,20.96
						c-12.92,4.09-26.21,3.23-39.43,0.71c-0.31-0.94-0.62-1.87-0.93-2.8c13.36,2.67,26.74,3.71,39.59-0.36
						c10.19-3.22,17.93-9.85,22.99-19.68c9.35-18.17,8.09-44.38,5.39-63.17c-2.94-20.47-8.19-36.81-8.25-36.97
						c-0.02-0.04-0.03-0.09-0.03-0.14c0.41,0.01,0.83-0.08,1.26-0.26c0.42-0.18,0.77-0.43,1.05-0.74c0.07,0.1,0.13,0.21,0.17,0.34
						C1064.62,738.32,1069.93,754.84,1072.91,775.52z"/>
					<path class="st8" d="M1067.84,1150.36c0.61,1.99-1.76,4.52-3.38,5.16c-0.84,0.32-1.75,0.44-2.65,0.51
						c-10.55,0.92-21.11-1.33-31.7-1.55c-2.8-0.06-5.62,0.03-8.41,0.18c-2.23,0.12-5.11,0.86-7.27,0.21
						c-3.98-1.21-4.63-5.57-4.45-9.14c0.16-3.3,0.87-6.57,2.08-9.64c0.32-0.82,1.05-0.87,1.9-0.61c1.18,0.37,2.59,1.36,3.41,1.66
						c2.27,0.83,4.63,1.44,7.06,1.39c2.65-0.04,5.23-0.85,7.77-1.64c1.21-0.38,2.53-0.97,3.83-1.34c0.51-0.16,1.02-0.28,1.51-0.34
						c1.68-0.21,2.4,0.33,3.98,1.18c3.06,1.64,6.21,3.1,9.35,4.58c4.1,1.92,8.22,3.86,12.13,6.16
						C1064.39,1147.94,1067.36,1148.77,1067.84,1150.36z"/>
					<path class="st9" d="M1065.15,735.49c0.05,0.9-0.21,1.72-0.76,2.33c-0.32-0.45-0.9-0.66-1.44-0.48
						c-0.63,0.2-0.99,0.85-0.86,1.48c-0.8-0.02-1.53-0.38-2.12-1.03c0.35-0.17,0.7-0.33,1.06-0.5c0.94-0.42,1.9-0.81,2.84-1.22
						C1064.3,735.88,1064.73,735.69,1065.15,735.49z"/>
					<path class="st9" d="M1065.15,735.48L1065.15,735.48c-0.43,0.21-0.85,0.39-1.29,0.58
						C1064.3,735.87,1064.73,735.68,1065.15,735.48z"/>
					<path class="st10" d="M1058.37,712.47c0.26-0.11,0.52-0.2,0.77-0.25c1.03,4.33,2.17,8.65,3.33,12.94
						c-0.53-0.27-1.3-0.27-2.05,0.06c-1.13,0.48-1.78,1.5-1.45,2.28c0.32,0.77,1.5,1.01,2.63,0.53c0.62-0.27,1.1-0.7,1.34-1.16
						c0.54,1.95,1.08,3.89,1.62,5.82c0.34,1.24,0.37,1.67,0.59,2.8c-0.43,0.2-0.85,0.38-1.29,0.58c-0.94,0.41-1.9,0.8-2.84,1.22
						c-0.36,0.16-0.72,0.32-1.07,0.49c-0.78-1.05-1.08-1.34-1.86-2.64c-1.21-2-2.56-4.39-3.87-6.82c-1.56-2.9-3.09-5.85-4.31-8.27
						c-1.29-2.55-2.4-4.87-3.51-7.13c0.52-1.31,1.5-2.55,2.26-3.69c0.54-0.81,2.71-3.94,0.46-4.05c-0.73-0.03-1.39,0.37-1.99,0.79
						c-1.07,0.75-2.09,1.62-2.92,2.62c-0.62-1.2-1.28-2.39-2-3.63c-0.23-0.4-0.37-0.41-0.64-0.56c-1.86-0.96-3.34-2.03-4.69-3.61
						c-0.03-0.03-0.04-0.06-0.06-0.09c0.28,0.15,0.62,0.32,1.03,0.48c4.19,1.68,17.66-0.95,19.56-7.7c0.03-0.1,0.05-0.21,0.07-0.31
						c0.02,0.11,0.04,0.21,0.06,0.35c0.26,2.33,0.13,4.51-0.56,6.79c-0.14,0.45-0.18,0.8-0.08,1.39c0.18,0.96,0.36,1.92,0.56,2.88
						c-0.67-0.15-1.49-0.08-2.29,0.27c-1.52,0.65-2.4,2.03-1.97,3.09c0.32,0.74,1.21,1.13,2.25,1.05c0.43-0.03,0.88-0.15,1.33-0.33
						c-1.53,0.66-2.41,2.03-1.97,3.09C1055.24,712.79,1056.84,713.12,1058.37,712.47z M1054.29,728.09
						c0.04-0.14,0.09-0.27,0.12-0.38L1054.29,728.09z"/>
					<path class="st9" d="M1064.39,737.82c-0.28,0.32-0.63,0.56-1.05,0.74c-0.43,0.18-0.85,0.27-1.26,0.26
						c-0.13-0.63,0.23-1.28,0.86-1.48C1063.5,737.16,1064.08,737.36,1064.39,737.82z"/>
					<path class="st10" d="M1062.48,725.15c0.16,0.57,0.32,1.15,0.47,1.71c-0.24,0.46-0.72,0.9-1.34,1.16
						c-1.13,0.48-2.31,0.24-2.63-0.53c-0.32-0.78,0.32-1.8,1.45-2.28C1061.18,724.89,1061.95,724.89,1062.48,725.15z"/>
					<path class="st9" d="M1061.02,737.29c-0.36,0.16-0.71,0.32-1.06,0.5l-0.01-0.01C1060.31,737.6,1060.67,737.45,1061.02,737.29z"
						/>
					<path class="st10" d="M1059.11,712.06c0.01,0.05,0.02,0.1,0.03,0.15c-0.25,0.05-0.51,0.14-0.77,0.25
						C1058.64,712.35,1058.89,712.22,1059.11,712.06z"/>
					<path class="st10" d="M1059.11,712.06c-0.22,0.15-0.47,0.29-0.74,0.4c-1.53,0.65-3.13,0.32-3.57-0.73
						c-0.44-1.05,0.44-2.43,1.97-3.09c0.5-0.21,1.01-0.32,1.47-0.32C1058.52,709.58,1058.81,710.82,1059.11,712.06z"/>
					<path class="st10" d="M1058.12,707.74c0.04,0.2,0.09,0.39,0.13,0.59c-0.46,0.01-0.97,0.11-1.47,0.32
						C1057.31,708.42,1057.78,708.11,1058.12,707.74z"/>
					<path class="st10" d="M1055.45,708.99c-1.03,0.08-1.93-0.31-2.25-1.05c-0.44-1.05,0.44-2.44,1.97-3.09
						c0.8-0.34,1.62-0.42,2.29-0.27c0.21,1.05,0.43,2.1,0.66,3.16c-0.34,0.37-0.8,0.68-1.34,0.91
						C1056.33,708.84,1055.88,708.95,1055.45,708.99z"/>
					<path class="st7" d="M1056.54,689.69c0.5,1.09,1.08,2.39,0.94,3.48c-0.02-0.07-0.03-0.14-0.04-0.21
						c-6.58,3.8-13.59,5.31-20.8,7.46c0.07,0.09,0.11,0.18,0.18,0.27c-1.95-1.07-1.27-2.02-1.5-3.18
						C1042.68,695.17,1049.61,693.23,1056.54,689.69z"/>
					<path class="st10" d="M1057.49,693.17c-0.02,0.1-0.04,0.21-0.07,0.31c-1.91,6.75-15.37,9.37-19.56,7.7
						c-0.41-0.16-0.75-0.32-1.03-0.48c-0.07-0.09-0.11-0.18-0.18-0.27c7.21-2.15,14.22-3.67,20.8-7.46
						C1057.46,693.03,1057.47,693.1,1057.49,693.17z"/>
					<path class="st9" d="M1056.48,689.52c0.03,0.05,0.06,0.11,0.09,0.16c-0.01,0-0.01,0.01-0.02,0.01
						C1056.53,689.63,1056.5,689.57,1056.48,689.52z"/>
					<path class="st9" d="M1056.48,689.52c0.03,0.05,0.05,0.11,0.07,0.17c-6.93,3.54-13.86,5.48-21.22,7.82
						c-0.07-0.35-0.21-0.71-0.54-1.1c-0.02-0.09-0.03-0.19-0.04-0.27c7.59-2.19,14.34-3.97,21.4-7.28c0.08,0.13,0.15,0.27,0.21,0.4
						C1056.4,689.34,1056.44,689.43,1056.48,689.52z"/>
					<path class="st7" d="M1056.18,688.84c0.05,0.14,0.12,0.27,0.18,0.42c-0.07-0.14-0.14-0.27-0.21-0.4
						C1056.15,688.85,1056.17,688.85,1056.18,688.84z"/>
					<path class="st10" d="M1054.29,728.09l0.12-0.38C1054.37,727.82,1054.33,727.95,1054.29,728.09z"/>
					<path class="st11" d="M1046.4,712.91c1.1,2.26,2.21,4.58,3.51,7.13c1.22,2.42,2.74,5.37,4.31,8.27
						c-0.03,0.08-0.04,0.15-0.07,0.22l-0.32,1.03l-1.08,3.41c-0.01,0.03-0.01,0.06-0.02,0.09c0,0.01,0,0.01,0,0.02
						c-1.56,9.81-4.86,19.25-8.4,28.52c-2.6,6.82-5.37,13.65-9.37,19.74c-5.76,8.79-14.57,19.21-25.66,18.1
						c-2.48-0.25-5.63-2.32-10.64-10.82c0.32-10.24,0.66-20.44,0.97-29.16l0.3-0.01c3.17-0.51,6.31-1.27,9.36-2.27
						c1.56,6.16,4.53,12.28,4.53,18.63c7.28-15.47,21.81-32.36,31.17-51.28c-1.82-3.07-3.63-11.15-1.99-14.24
						c0.33-0.62,0.73-1.19,1.19-1.72C1044.97,710.02,1045.69,711.45,1046.4,712.91z"/>
					<path class="st9" d="M1053.02,685.05c1.34,1.1,2.33,2.33,3.12,3.8c-7.06,3.31-13.81,5.09-21.4,7.28
						c-0.38-2.38-0.26-4.65,0.92-6.84c2.11-3.92,5.13-5.84,9.43-6.57c1.25-0.21,2.54-0.03,3.71,0.24c1.18,0.27,2.32,0.96,3.37,1.43
						C1052.57,684.57,1052.73,684.81,1053.02,685.05z"/>
					<path class="st10" d="M1049.12,705.17c2.25,0.11,0.08,3.24-0.46,4.05c-0.75,1.14-1.74,2.38-2.26,3.69
						c-0.72-1.46-1.44-2.89-2.2-4.33c0.84-1,1.86-1.86,2.92-2.62C1047.73,705.54,1048.4,705.14,1049.12,705.17z"/>
					<path class="st12" d="M972.79,928.04c-0.6,23.67-1.27,49.86-1.31,52.91c-0.13,8.11-0.24,16.25-0.59,24.36
						c-0.41,9.64-1.14,19.27-1.88,28.9c-2.29,30.28-4.59,60.53-6.88,90.79c-2.27,0.21-4.52,0.37-6.79,0.44
						c-4.54,0.16-9.08,0.02-13.59-0.67c-0.9-0.14-1.8-0.3-2.71-0.47c-0.38-0.07-0.77-0.15-1.16-0.22
						c-4.22-42.08-1.96-84.62-4.63-126.87c-2.74-43.48-15.77-91.6-5.28-143.26c1.55-0.69,3.14-1.27,4.78-1.75
						c14.72-4.29,31.59,0.09,49.45,4.72c6.99,1.81,14.06,3.65,21.15,5c16.24,48.92,29.29,109.47,30.97,117.51
						c1.85,8.87,3.71,17.77,4.65,26.79c0.92,8.93,0.95,17.96,0.9,26.95c-0.21,29.08-1.27,58.15-3.18,87.16l0.02,0.16
						c-1.5,0.16-2.99,0.3-4.5,0.39c-6.19,0.42-12.41,0.26-18.58-0.49c-0.68-0.08-1.37-0.17-2.05-0.27h-0.02
						c-4.96-35.47-7.53-71.29-12.08-106.69C997.35,996.97,978.3,943.79,972.79,928.04z"/>
					<path class="st11" d="M1036.03,1135.55c-1.3,0.38-2.62,0.97-3.83,1.34c-2.54,0.8-5.12,1.6-7.77,1.64
						c-2.43,0.04-4.8-0.56-7.06-1.39c-0.82-0.3-2.23-1.29-3.41-1.66c-0.34-5.02-0.45-10.04-0.34-15.07v-0.01
						c6.16,0.74,12.39,0.91,18.58,0.49C1031.76,1126.02,1033.18,1131.27,1036.03,1135.55z"/>
					<path class="st9" d="M1035.32,697.51c-0.08,0.03-0.16,0.05-0.24,0.08c-0.04-0.17-0.14-0.32-0.17-0.51
						c-0.04-0.22-0.09-0.44-0.13-0.67C1035.11,696.8,1035.25,697.16,1035.32,697.51z"/>
					<path class="st7" d="M1034.78,696.41c-0.06-0.08-0.13-0.15-0.21-0.23c0.05-0.02,0.11-0.03,0.16-0.04
						C1034.76,696.22,1034.77,696.31,1034.78,696.41z"/>
					<path class="st13" d="M1010.27,756.85c-0.09,0.03-0.17,0.06-0.27,0.1c-0.23,0.08-0.47,0.15-0.7,0.23
						c-3.05,1-6.19,1.75-9.36,2.27l-0.3,0.01c-0.53-18.94-0.74-38.97-6.9-56.98c-1.2-3.5-2.74-7.01-5.22-9.67l0.07-0.07
						c5.91,5.99,9.41,14.36,12.21,22.48C1004.47,728.75,1007.97,742.71,1010.27,756.85z"/>
					<path class="st7" d="M1002.4,859.14c0.31,0.92,0.62,1.86,0.93,2.8c-7.1-1.35-14.17-3.19-21.15-5
						c-17.85-4.63-34.72-9.01-49.45-4.72c-1.64,0.48-3.23,1.06-4.78,1.75c0.21-1.03,0.43-2.07,0.66-3.11
						c16.16-6.28,34.9-1.41,54.22,3.6C989.31,856.13,995.86,857.83,1002.4,859.14z"/>
					<path class="st14" d="M924.32,752.57c-0.73,5.28-1.22,9.27-1.22,9.27c-0.56,0.03-1.11,0.04-1.67,0.06
						c-10.02,0.24-20.46-1.71-25.79-2.89c-2.26-0.5-3.59-0.86-3.59-0.86c2.74-43.86,19.8-67.54,38.3-70.66h0.01
						c1.95-0.51,3.7-0.82,5.24-1.02c3.94-0.48,6.33-0.15,6.33-0.15s1.02,13.37,13.95,13.98c12.9,0.61,13.29-13.31,13.29-13.31
						c0.27,0.02,0.53,0.02,0.8,0.03c1.47,0.04,2.94,0.13,4.41,0.28c4.44,0.45,8.73,1.56,12.05,4.46c0.2,0.17,0.39,0.35,0.58,0.52
						c0.17,0.17,0.34,0.34,0.51,0.52c2.49,2.66,4.03,6.17,5.22,9.67c6.16,18.01,6.37,38.04,6.9,56.98
						c-0.32,8.72-0.65,18.92-0.97,29.16c-0.86,27.6-1.6,55.51-1.6,55.51l-66.84,0.01v-0.01C929.09,810.6,924.4,753.52,924.32,752.57
						z"/>
					<path class="st12" d="M930.23,844.14l66.84-0.01c1.8,4.81,3.58,9.83,5.34,15.01c-6.55-1.31-13.1-3-19.57-4.69
						c-19.31-5.01-38.06-9.88-54.22-3.6C929.11,848.62,929.64,846.39,930.23,844.14z"/>
					<path class="st8" d="M992.17,1150.36c0.61,1.99-1.76,4.52-3.38,5.16c-0.85,0.32-1.75,0.44-2.65,0.51
						c-10.55,0.92-21.12-1.33-31.7-1.55c-2.81-0.06-5.62,0.03-8.41,0.18c-2.23,0.12-5.11,0.86-7.27,0.21
						c-3.98-1.21-4.63-5.57-4.45-9.14c0.16-3.3,0.86-6.57,2.08-9.64c0.38-0.96,1.3-0.86,2.32-0.45c1.09,0.44,2.27,1.24,2.99,1.5
						c2.27,0.83,4.63,1.44,7.06,1.39c2.65-0.04,5.23-0.85,7.77-1.64c1.3-0.4,2.74-1.06,4.12-1.43c0.41-0.12,0.82-0.21,1.22-0.26
						c1.68-0.21,2.4,0.33,3.98,1.18c3.06,1.64,6.21,3.1,9.35,4.58c4.1,1.92,8.22,3.86,12.12,6.16
						C988.71,1147.94,991.68,1148.77,992.17,1150.36z"/>
					<polygon class="st15" points="979.46,593.29 984.04,600.44 970.17,609.33 924.64,638.51 924.64,638.52 912.24,646.46 
						907.66,639.31 922.54,629.78 963.29,603.66 					"/>
					<path class="st11" d="M979.72,641.05c1.03,19.06-3.64,27.4-14,27.19c-0.35,0-0.7-0.03-1.05-0.04
						c-7.62-0.55-15.36-4.62-19.46-7.11c1.58-1.39,1.26-5.21,1.26-7.26c0-3.2-2.38-4.79-3.96-8.78c-1.58-3.99,2.38-9.85,6.07-7.72
						c3.69,2.13,3.43,0.27,5.28-10.91c1.85-11.18,15.83-11.18,15.83-11.18c0.52-0.26,0.93-0.55,1.24-0.88l0.09,0.09
						C973.73,617.99,978.93,626.57,979.72,641.05z"/>
					<path class="st8" d="M970.17,609.33c1.55,1.8,2.02,3.69,0.76,5.03c-0.31,0.33-0.72,0.62-1.24,0.88c0,0-13.99,0-15.83,11.18
						c-1.85,11.18-1.58,13.04-5.28,10.91c-3.69-2.13-7.65,3.73-6.07,7.72c1.58,3.99,3.96,5.58,3.96,8.78c0,2.05,0.32,5.87-1.26,7.26
						c-0.27-0.17-0.53-0.32-0.77-0.47c0,0.28,0.02,0.58,0.02,0.89v0.01c-0.91,0.29-2.2,0.05-4.06-1.03
						c-5.02-2.92-14-9.55-15.76-21.97v-0.01L970.17,609.33z"/>
					<path class="st11" d="M965.72,668.24c0.39,4.27,1.39,12.33,3.45,18.75c0,0-0.38,13.92-13.29,13.31
						c-12.93-0.61-13.95-13.98-13.95-13.98c2.15-8.93,2.51-19.03,2.52-24.81c0.29-0.09,0.54-0.24,0.75-0.43
						c4.1,2.5,11.84,6.57,19.46,7.11C965.02,668.22,965.37,668.24,965.72,668.24z"/>
					<polygon class="st16" points="960.67,599.57 963.29,603.66 922.54,629.78 919.92,625.68 953.61,604.09 953.62,604.09 					"/>
					<polygon class="st15" points="953.54,588.44 960.67,599.57 953.62,604.09 953.61,604.09 919.92,625.68 922.54,629.78 
						912.78,614.56 					"/>
					<path class="st11" d="M960.65,1135.47c-1.39,0.37-2.82,1.03-4.12,1.43c-2.54,0.8-5.12,1.6-7.77,1.64
						c-2.43,0.04-4.8-0.56-7.06-1.39c-0.73-0.27-1.91-1.07-2.99-1.5c0.15-3.79,0.27-7.56,0.33-11.33c0.91,0.17,1.81,0.33,2.71,0.47
						c4.51,0.68,9.05,0.83,13.59,0.67C956.16,1129.12,958.17,1132.5,960.65,1135.47z"/>
					<path class="st7" d="M928.62,850.85c-0.23,1.04-0.45,2.08-0.66,3.11c-11.57,5.12-20.5,16.09-27.51,33.82
						c-0.5-1.4-0.91-2.74-1.22-3.77C907.31,865.04,917.33,855.22,928.62,850.85z"/>
					<path class="st11" d="M898.67,881.99c0.03,0.15,0.23,0.91,0.56,2.03c-1.9,4.47-3.7,9.45-5.38,14.99
						c-0.19,0.61,0.11,1.25,0.66,1.52c-2.27,4.47-5.75,10.28-9.83,13.46h-0.01c-1.52,1.48-6.97,4.22-3.65-0.39
						c2.77-3.83,6.87-6.95,7.65-11.62c-1.69,2.54-4.04,4.75-6.03,7.07c-1.85,2.15-6.15,5.11-7,4.21c-0.15-0.21-0.22-0.45-0.22-0.68
						c0-0.02,0-0.03,0-0.04c0.04-1.02,1.25-2.15,2.04-2.97c2.68-2.78,5.69-6.05,7.07-9.69c-2.44,3.79-6.75,6.88-10.71,8.97
						c-0.09,0.05-0.2,0.1-0.31,0.15c1.74-2.78,2.98-3.79,3-3.8c0.56-0.44,0.66-1.24,0.22-1.8c-0.03-0.03-0.05-0.07-0.09-0.09
						c1.9-1.84,3.8-3.67,5.69-5.51c-1.99,0.74-3.91,1.62-5.75,2.69c-4.22,2.49-5.05,1.5-4.7,1.05c4.13-5.09,13.62-11.4,16.42-17.97
						c0.14-0.32,0.27-0.63,0.36-0.96v-0.01c0.09-0.91,5.41-55.2,5.01-63.1c-0.39-7.98,1.98-60.48,1.98-60.48
						c5.33,1.18,15.77,3.13,25.79,2.89c-0.07,0.82-4.14,48.26-9.29,66.3c-5.2,18.2-13.36,53.76-13.36,53.76L898.67,881.99z"/>
					<path class="st7" d="M899.22,884.02c0.31,1.03,0.73,2.37,1.22,3.77c-0.89,2.26-1.75,4.62-2.58,7.09
						c-0.18-0.19-0.36-0.38-0.53-0.56c0,0-1.04,2.7-2.83,6.22c-0.55-0.27-0.85-0.91-0.66-1.52
						C895.52,893.46,897.32,888.49,899.22,884.02z"/>
					<path class="st7" d="M897.33,894.31c0.17,0.19,0.35,0.38,0.53,0.56c-0.53,1.58-1.05,3.21-1.56,4.87
						c-0.17,0.56-0.68,0.91-1.23,0.91c-0.12,0-0.25-0.03-0.38-0.06c-0.07-0.02-0.14-0.05-0.2-0.08
						C896.29,897.01,897.33,894.31,897.33,894.31z"/>
					<path class="st7" d="M876.63,903.3c-1.42,1.37-2.84,2.74-4.26,4.11c-0.34,0.32-0.69,0.73-0.59,1.18
						c0.15,0.68,1.03,0.67,1.72,0.4c-1.91,3.01-4.4,8.11-6.6,16.29c-7.06,26.32-5.61,63.66-3.14,90.37
						c4.72,51.18-3.67,89.51-24.94,113.91c-15.18,17.4-36.17,26.81-62.39,27.98c-18.87,0.84-46.07,1.12-73.95,1.12
						c-55.32,0-113.31-1.1-114.18-1.12c-0.71-0.02-1.27-0.6-1.26-1.31c0.02-0.7,0.59-1.26,1.28-1.26c0.01,0,0.02,0,0.03,0
						c1.31,0.03,131.74,2.51,187.97,0c25.5-1.14,45.87-10.26,60.56-27.1c20.79-23.85,28.98-61.53,24.33-111.99
						c-8.72-94.48,12.82-112.02,13.73-112.73C875.47,902.75,876.2,902.83,876.63,903.3z"/>
				</g>
				<g>
				</g>
			</g>
			<path class="st13" d="M924.33,753.82c0,0,0.05-0.45,0.13-1.25c0.44-4.29,1.85-18.64,2.03-28.03c0,0,15.42,59.84,19.36,120.2
				l-15.59-0.28L924.33,753.82z"/>
			<path class="st8" d="M972.79,928.05c0,0,2.53-23.18,3.46-38.85c0,0,16.9,66.88,23.21,124.27
				C999.46,1013.46,984.37,959.83,972.79,928.05z"/>
			<path class="st17" d="M965.72,668.24c0,0-9.72-0.03-20.51-7.16c0,0-1.09,13.19-1.92,18.04
				C943.29,679.13,959.07,676.44,965.72,668.24z"/>
			<path class="st11" d="M1044.93,724.5c-2.13-3.6-4.25-13.04-2.33-16.66c1.1-2.08,2.89-3.71,4.81-5.06
				c0.7-0.49,1.48-0.97,2.33-0.92c2.63,0.13,0.1,3.79-0.54,4.74c-1.71,2.58-4.47,5.62-2.21,8.82L1044.93,724.5z"/>
			<g>
				<path class="st11" d="M1059.14,702.33c-0.57-1.34-2.61-1.76-4.56-0.92c-1.96,0.84-3.08,2.6-2.52,3.95
					c0.57,1.34,2.61,1.76,4.56,0.92C1058.57,705.44,1059.7,703.67,1059.14,702.33z"/>
				<path class="st11" d="M1058.67,711.15c1.96-0.84,3.08-2.6,2.52-3.95c-0.57-1.34-2.61-1.76-4.57-0.92
					c-1.96,0.84-3.08,2.6-2.52,3.95C1054.67,711.57,1056.71,711.99,1058.67,711.15z"/>
				<path class="st11" d="M1063.91,716.2c-0.27-0.64-1-0.99-1.88-0.99l0.01-0.01c1.09-0.9,1.61-2.13,1.18-3.12
					c-0.57-1.35-2.61-1.75-4.57-0.92c-0.11,0.04-0.2,0.09-0.3,0.16c-1.76,0.85-2.74,2.51-2.22,3.79c0.44,1,1.69,1.47,3.11,1.3
					c-0.59,0.63-0.84,1.39-0.57,2.03c0.42,0.99,1.93,1.3,3.37,0.68C1063.5,718.5,1064.33,717.19,1063.91,716.2z"/>
			</g>
		</g>
		<g>
			<path class="st18" d="M1586.15,1326.01H397.17c45.76-36.51,95.08-52.93,69.04-90.27c-22.09-31.67,5.52-49.44,10.36-68.15
				c18.11-70.03,77.1-62.3,77.1-62.3c0-2.38-9.46-26.47-15.4-38.07c-5.94-11.59-1.62-10.41,0.54-11.3c2.16-0.89,1.89,0.6-1.08-6.54
				c-2.98-7.14,2.7-8.33,5.92-3.57c3.22,4.75,3.8,2.38,3.8,2.38c-4.32-9.22-3.78-13.98-3.78-13.98
				c2.97-6.54,11.88,12.19,18.04,21.12c6.16,8.93,5.73,6.54,5.73,6.54c-0.81-7.14-8.92-18.44-4.33-24.39
				c4.59-5.95,19.45,34.5,22.96,41.64c3.51,7.14,3.51,6.24,3.51-5.95c0-12.19,6.48-8.33,10.8,7.74
				c4.33,16.06-12.64,36.59-12.64,36.59s2.16,43.51,3.25,53.65c1.08,10.13,16.24,30.4,16.24,30.4s11.91,0,16.78-30.4
				c4.87-30.4,21.66-29.73,21.66-29.73c2.7-5.28,16.24-12,16.24-12c49.26-3.57,41.67,39.94,43.3,65.57
				c1.62,25.63-11.9,33.38-11.9,33.38s8.11,13.71,21.65,15.5c13.53,1.79,17.86,29.81,17.86,29.81l-1.09-45.9
				c-10.82-31.59-4.29-63.67-4.29-70.74c0-7.07,44.29-55.85,56.49-61.85c12.19-6.01,31.76-25.59,31.76-25.59s0-6.64,1.1-17.33
				c1.09-10.68-4.94-14.3-1.83-16.32c3.1-2.02,10.43,7.66,10.43,7.66c9.15-17.94,24.88-18.34,32.2-20.55
				c7.32-2.22,7.32,2.82,7.32,2.82c-3.1,4.43-12.99,4.83-12.62,6.64c0.36,1.82,8.96-0.8,8.96-0.8c9.52-3.22,21.41,0.21,12.26,2.42
				c-9.15,2.21-9.52,4.03-9.52,4.03s14.28-4.63,15.56-0.6c1.27,4.03-3.48,3.02-6.77,4.63c-3.3,1.61-1.65,3.22-1.65,3.22
				c13.72,0.8,19.15,11.99,28.31,22.37c9.15,10.39,6.93,31.46,6.93,31.46c17.19,29.02,28.31,50.34,35.13,64.42
				c6.81,14.07,9.34,20.89,9.34,20.89l5.49-2.86c-1.15-10.17-3.75-15.26-3.75-15.26c-1.65,0.57-3.09-1.27-4.28-4.1
				c-2.15-5.1-3.53-13.42-4.1-16.9c-0.86-5.4,2.6-5.73,2.6-5.73s-0.29-54.38,40.99-54.06c41.29,0.32,31.5,52.8,31.5,52.8
				s5.77-3.5,5.2,13.67c-0.58,17.18-10.11,15.27-10.11,15.27v11.12c0,0,10.4,12.09,19.93,16.54c9.53,4.45,16.17,8.58,16.17,8.58
				c-5.2-32.12,9.12-87.65,10.03-100.24c0.91-12.59,48.34-46.76,50.39-43.64c2.03,3.11-7.7,10.35-6,10.59
				c1.7,0.26,19.81-14.09,20.72-11.1s-13.24,16.46-12,16.72c1.24,0.25,16.42-10.47,18.45-8.98c2.04,1.5-2.49,6.1-8.83,10.72
				c-6.34,4.61-3.96,4.24-3.96,4.24s13.36-6.86,14.38-2.99c1.02,3.86-25.69,16.72-25.69,16.72s5.2,2.29,4.42,6.58
				c-0.79,4.29-11.69,3.15-11.69,3.15c-8.3,6.58-19.19,3.92-22.23,6.79c-3.04,2.86,0,90.3,0,90.3l8.24,26.75
				c0,0,11.29-16.25,17.79-40.13c6.51-23.89,12.14-35.83,39.91-41.57c27.76-5.74,37.3,24.85,44.25,42.52
				c6.94,17.68,10.85,63.07,10.85,63.07l25.59-47.3c-1.74-27.23,8.28-94.41,8.28-94.41s-8.23-10.03-13.87-21.49
				c-5.63-11.46-0.21-19.81-0.65-22.91c-0.44-3.1-17.12-25.06-10.83-28.88c6.28-3.81,14.3,22.68,14.73,17.66
				c0.44-5.01-6.06-23.62-2.6-25.78c3.47-2.15,6.93,9.55,8.46,17.19c1.51,7.64,1.95,7.16,2.6,6.21c0.65-0.96-1.95-20.77,1.95-19.81
				c3.9,0.96,4.98,18.85,6.07,24.11c1.09,5.25,3.46,6.44,3.46,6.44c5.64-15.75,7.37-18.14,9.54-17.19
				c2.16,0.96-3.04,26.74-3.04,26.74c3.25,7.16,3.03,32.72,3.03,32.72s0,65.03,0.44,86.55c0.01,0.27,0.01,0.53,0.01,0.81
				c-0.19,21.87-25.19,68.42-25.19,68.42l31.34-10.4c7.14-7.62,12.44-31.46,12.44-31.46l-0.46-6.85c-6.22-2.54-7.15-7.61-9.22-16.24
				c-0.32-1.32-0.45-2.42-0.45-3.33c0-5.08,4.14-4.53,4.14-4.53c-3.45-20.55-0.59-65.72,44.69-58.1
				c21.92,3.69,25.79,22.86,25.21,38.19c-0.42,10.93-3.09,19.9-3.09,19.9c1.27-0.38,1.96,1.33,1.96,4.25s-0.69,7.04-2.19,11.48
				c-2.99,8.88-8.52,8.11-8.52,8.11s-2.76,7.36-1.62,9.39c1.15,2.04,12.67,13.45,14.52,13.71c1.85,0.25,11.62-2.36,11.62-2.36
				c-3.5-10.98-5.04-25.32-5.43-40.55c-0.2-7.76-0.09-15.75,0.23-23.65c1.45-36.66,7.28-71.3,7.28-71.3
				c-5.22-9.27-4.95-37.12-4.95-51.37c0-14.24,4.13-13.95,6.05-13.64c1.92,0.3,1.92,0,3.03-6.06c1.1-6.07,5.23-4.25,6.88-3.34
				c1.65,0.91,3.3-5.15,3.3-5.15c7.16-6.37,9.36,10.61,12.12,26.68c2.75,16.07,5.51,25.16,8.26,23.34
				c2.75-1.82,1.92-15.46,1.92-15.46c4.39-10.83,8.8,10.19,8.17,20.57c-0.04,0.67-0.11,1.3-0.19,1.86
				c-1.38,9.4-19.27,29.4-19.27,29.4c0.27,7.58-3.03,33.65-3.03,33.65c-5.51,41.24,9.08,48.81,9.08,48.81
				c0.28-32.44,21.84-53.66,21.84-53.66l1.02-46.99c-0.9-5.36-1.17-9.36-0.94-12.68c0.74-10.94,6.84-14.52,13.6-35.22
				c8.81-26.98,11.83-32.13,16.51-29.4c4.69,2.73-4.13,25.46-4.13,25.46c5.23,0.31,12.12,3.94,12.12,3.94
				c20.09,10.61-5.78,49.72-9.91,56.09c-4.13,6.36-3.3,33.95-3.3,33.95s56.32-5.41,45.15,67.52c0,0,4.75,40.55,25.75,53.73
				C1516.37,1261.38,1568.5,1271.51,1586.15,1326.01z"/>
			<g>
				<path class="st19" d="M798.65,1112.08c0,0,21.34-26.87,30.75-31.74s14.28-12.66,15.9-19.8c1.62-7.14,15.58-9.41,15.58-9.41
					s6.82,12.98,5.84,27.59c0,0-6.88,1.3-10.26-0.32c-3.37-1.62-12.79-3.25-10.84,0.65s26.94,18.82,36.02,20.77
					c0,0,15.9,16.29,30.51,69.16c0,0,5.84,3.54-37.32,16.19c0,0-24.67-6.82-40.89,3.89c0,0-2.92-3.57,0.65-11.36
					c3.57-7.79,4.87-13.96,4.87-13.96s3.25,2.27,7.14-4.54s1.95-15.9-2.92-14.6C843.69,1144.6,856.13,1098.89,798.65,1112.08z"/>
				<g>
					<path class="st7" d="M842,1121.82c0.08-0.07,0.15-0.15,0.23-0.21c8.07-7.52,14.07-18.26,17.87-31.96
						c0.03-0.11,0.06-0.23,0.09-0.34l-1.23-0.33l-1.25-0.34c-3.63,13.29-9.35,23.68-17.06,30.93L842,1121.82z"/>
				</g>
				<g>
					<path class="st7" d="M864.43,1060.3c-0.18,5.05-0.7,11.67-1.98,18.89c-0.02,0.09-0.03,0.16-0.04,0.25l-1.28-0.22l-1.25-0.22
						c1.62-9.02,2.02-17.12,2.07-22.32c0.02-1.3,0-2.41-0.02-3.27L864.43,1060.3z"/>
				</g>
			</g>
		</g>
	</g>
</g>
<g id="Layer_2">
</g>
</svg>
