<?xml version="1.0" encoding="utf-8"?>
<!-- Generator: Adobe Illustrator 24.3.0, SVG Export Plug-In . SVG Version: 6.00 Build 0)  -->
<svg version="1.1" xmlns="http://www.w3.org/2000/svg" xmlns:xlink="http://www.w3.org/1999/xlink" x="0px" y="0px"
	 viewBox="0 0 1984.25 1417.32" style="enable-background:new 0 0 1984.25 1417.32;" xml:space="preserve">
<style type="text/css">
	.st0{opacity:0.5;fill:#81C69E;}
	.st1{fill:#8CB0DD;}
	.st2{fill:#DAEAF8;}
	.st3{fill:#39907C;}
	.st4{fill:#4F2A18;}
	.st5{fill:#176232;}
	.st6{fill:#BAD768;}
	.st7{fill:#D6E7F7;}
	.st8{fill:#EAF3F9;}
	.st9{fill:#ACC9EA;}
	.st10{fill:#FAB27C;}
	.st11{fill:#EAE3A0;}
	.st12{fill:#F9F3A2;}
	.st13{fill:#11385A;}
	.st14{fill:#314097;}
	.st15{fill:#C99257;}
	.st16{fill:#5A5D5C;}
	.st17{fill:#C5C5C4;}
	.st18{fill:#F3EB3F;}
	.st19{fill:#4FBFA5;}
</style>
<g id="linework">
	<polygon class="st0" points="1759.68,1331.7 248.38,1331.7 573.62,983.92 1444.88,979.39 	"/>
	<g>
		<g id="XMLID_1_">
			<g>
				<rect x="1009.21" y="681.44" class="st1" width="144.82" height="267.81"/>
				<path class="st2" d="M1913.82,275.14c1.93,35.86-36.83,34.89-36.83,34.89h-348.9c-31.98-14.54-7.75-39.74-7.75-39.74
					c8.72-17.96,42.64-4.33,42.64-4.33l9.69-14.08c30.05-30.05,60.09,7.75,60.09,7.75s-3.88-15.5,18.41-31.01
					c22.3-15.51,40.71,4.84,47.49,10.66c6.79,5.81,14.06-1.94,14.06-1.94c43.12-42.64,63.48,16.48,63.48,16.48
					c31.01-21.32,71.71,4.84,71.71,4.84C1863.42,239.28,1911.88,239.28,1913.82,275.14z"/>
				<path class="st3" d="M1806.82,887.37c-0.78,0.86-21.52,23.31-31.24,33.12c-1.49-19.34-2.93-38.09-4.17-54.39l35.43-54
					l-36.21,43.61c-1.96-25.98-3.27-43.61-3.27-43.61l-2.29,76.4l-33.45-51.58c0.22,0.56,6.15,13.41,13.1,28.44
					c7.21,15.57,15.52,33.49,19.74,42.63V908l-2.58,86.26c-3.53-0.98-7.26-2.54-11.41-4.63c-12.68-6.39-23.2-16.56-32.75-26.91
					c-16.74-18.18-32.31-38.52-38.64-62.43c-2.59-9.76-1.84-20.59,5.03-25.51c2.89-2.06,6.85-3.09,12.09-2.56
					c8.42,0.85,15.15,7.11,22.76,10.84c1.76,0.87,3.71,1.64,5.68,1.44c6.4-0.59,9.82-6.12,7.8-11.87c-0.76-2.16-1.71-4.2-2.82-6.16
					c-5.03-8.84-13.22-15.72-20.79-23.11c-4.12-4.01-8.06-8.17-11.21-12.88c-10.57-15.81-18.12-33.66-21.87-52.31
					c-1.2-5.98-2.34-15.44-0.47-23.12c1.37-5.61,4.34-10.28,10.07-11.96c11.83-3.46,21.38,13.81,27.61,20.98
					c3.03,3.51,6.22,7.11,10.48,8.97c8.58,3.75,20.92-1.68,20.32-11.74c-1.18-19.52-13.46-28.98-21.32-45.23
					c-5.86-12.15-8.05-25.76-9.14-39.23c-0.78-9.79-1.02-19.81,1.75-29.25c1.69-5.76,5.03-11.04,9.4-15.57
					c9.27-9.62,23.14-15.85,35.65-16.11c17.59-0.36,35.86,9.26,46.34,23.25c9.75,13.05,14.08,29.35,14.35,45.47
					c0.28,14.3,0.71,31.44-4.73,44.83c-2.32,5.71-5.67,10.97-9.49,15.83c-4.57,5.82-8.14,14.52-7.3,22.03
					c0.53,4.75,2.13,9.72,5.88,12.7c8.89,7.14,25.98-11.59,36.31-13.75c14.1-2.95,24.66,4.15,27.93,18.19
					c2.53,10.92,2.15,22.64-2.11,32.99c-6.28,15.27-22.1,23.87-33.11,35.48c-3.35,3.51-6.08,7.95-6.15,12.81
					c-0.09,7.11,5.6,11.61,12.13,9.86c7.54-2.02,16.63-0.29,21.13,6.1c3.55,5.04,3.55,11.68,3.25,17.83
					c-0.92,20.57-10.55,34.98-23.43,50.41c-14.3,17.14-33.5,29.48-53.07,40.21c-2.37,1.29-4.59,2.33-6.72,3.13
					c-1.53-18.99-3.19-39.9-4.79-60.57h0.01L1806.82,887.37z"/>
				<path class="st4" d="M1765.07,888.5l2.29-76.4c0,0,1.31,17.63,3.27,43.61l36.21-43.61l-35.43,54
					c1.24,16.3,2.68,35.05,4.17,54.39c9.72-9.81,30.46-32.26,31.24-33.12l-30.29,45.34h-0.01c1.6,20.67,3.26,41.58,4.79,60.57
					c3.31,40.72,6.09,72.58,6.86,74.13c0.85,1.71-3.33,2.08-8.73,1.9c-2.46-0.3-19.77-1.9-19.77-1.9l2.21-73.15l2.58-86.26v-0.01
					c-4.22-9.14-12.53-27.06-19.74-42.63c-6.95-15.03-12.88-27.88-13.1-28.44L1765.07,888.5z"/>
				<path class="st5" d="M1666.74,748.78c-1.77,1.93-28.01,30.33-40.41,42.83c-1.94-25.06-3.79-49.35-5.41-70.47v-0.02l45.92-69.95
					l-46.93,56.5c-2.55-33.68-4.24-56.5-4.24-56.5l-2.98,98.99l-43.32-66.83c0.6,1.5,31.77,68.8,42.57,92.09v0.02l-0.88,29.16
					l-2.55,84.73c-28.76-14.63-52.24-36.69-72.05-62.28c-17.43-22.55-32.02-47.84-44.85-73.19c-10.81-21.36-20.97-44.01-21.22-67.94
					c-0.26-22.88,28.85-83.33,57.65-51.89c8.71,9.51,14.76,18.7,29.12,18.11c1.73-0.05,3.66-0.37,4.75-1.73
					c0.74-0.97,0.89-2.25,0.99-3.48c1.99-27.04-20.93-37.2-37.92-53.43c-11.36-10.87-17.41-25.25-15.8-41.09
					c1.6-15.87,12.12-22.06,26.97-17.53c5.02,1.54,10.23,3.37,15.39,2.42c18.58-3.39,4.73-23.27,0.8-32.03
					c-4.87-10.89-8.45-22.37-9.36-34.32c-2.39-31.38,15.66-59.92,49.24-60.39c26.29-0.37,49.54,17.39,56.35,42.55
					c5.07,18.79,0.56,37.55-9.6,53.72c-4.9,7.82-10.74,23.93,2.07,28.05c14.8,4.77,29.26-25.15,47.92-23.87
					c35.19,2.43,33.34,46.44,22.96,69.83c-4.17,9.34-13.84,18.38-20.65,25.89c-4.98,5.49-22.68,27.94-15.02,35.39
					c3.6,3.51,9.56,1.68,14.17-0.37c12.13-5.39,22.48-10.83,34.03-9.73c-4.37,4.53-7.71,9.81-9.4,15.57
					c-2.77,9.44-2.53,19.46-1.75,29.25c1.09,13.47,3.28,27.08,9.14,39.23c7.86,16.25,20.14,25.71,21.32,45.23
					c0.6,10.06-11.74,15.49-20.32,11.74c-4.26-1.86-7.45-5.46-10.48-8.97c-6.23-7.17-15.78-24.44-27.61-20.98
					c-5.73,1.68-8.7,6.35-10.07,11.96l-8.8-5.87L1666.74,748.78z"/>
				<path class="st5" d="M1708.83,843.36c-2.44,2.52-4.95,5.03-7.52,7.53c-8.37,8.14-17.27,15.75-26.8,22.39
					c-12.25,8.53-25.55,15.45-40.16,19.79c-2.16-26.44-4.52-56.21-6.79-85.61l7.47-11.19h0.02l31.43-47.09l8.8,5.87
					c-1.87,7.68-0.73,17.14,0.47,23.12c3.75,18.65,11.3,36.5,21.87,52.31C1700.77,835.19,1704.71,839.35,1708.83,843.36z"/>
				<path class="st5" d="M1644.55,1089.38c0.69-0.7,25.35-25.82,68.51-19.92c0,0-32.31,23.42-68.52,19.94
					C1644.54,1089.4,1644.54,1089.39,1644.55,1089.38z"/>
				<path class="st5" d="M1632.05,1108.8c0.67-0.67,24.18-23.51,69.41-19.75c0,0-36.43,28.94-69.42,19.76
					C1632.04,1108.81,1632.04,1108.81,1632.05,1108.8z"/>
				<path class="st5" d="M1686.01,1020.63c0,0,6.93,37.27-36.75,60.64l-1.4-1.39C1647.81,1071.53,1650.14,1040.03,1686.01,1020.63z"
					/>
				<path class="st5" d="M1618.78,1133.78c22.88-25.6,62.17-21.21,62.17-21.21C1648.38,1142.4,1618.78,1133.78,1618.78,1133.78z"/>
				<path class="st5" d="M1668.2,1330.67l-63.35-0.47l0.01-1.5c1.16-23-4.88-39.05-13.98-50.25
					C1608.49,1274.49,1658.53,1269,1668.2,1330.67z"/>
				<path class="st4" d="M1634.35,893.07c4.01,49.3,7.35,86.97,8.31,88.87c2.82,5.69-36.93,0-36.93,0l2.78-92.61l2.55-84.73
					l0.88-29.16v-0.02c-10.8-23.29-41.97-90.59-42.57-92.09l43.32,66.83l2.98-98.99c0,0,1.69,22.82,4.24,56.5l46.93-56.5
					l-45.92,69.95v0.02c1.62,21.12,3.47,45.41,5.41,70.47c12.4-12.5,38.64-40.9,40.41-42.83l-0.26,0.4l-31.43,47.09h-0.02
					l-7.47,11.19C1629.83,836.86,1632.19,866.63,1634.35,893.07z"/>
				<path class="st5" d="M1649.26,1081.27l0.78,0.77c0,0-2.08,2.53-5.49,7.34c-0.01,0.01-0.01,0.02-0.01,0.02
					c-3.21,4.53-7.59,11.07-12.49,19.4c-0.01,0.01-0.01,0.01-0.01,0.01c-4.17,7.07-8.72,15.44-13.26,24.97
					c-3.52,7.38-7.04,15.46-10.37,24.18c-0.02,0.04-0.03,0.06-0.03,0.06c-7.28,19.03-13.67,41.09-17.3,65.53c0,0,0.01,0.01,0,0.01
					c-0.01,0.02-0.01,0.03-0.01,0.03h0.01c-1.02,6.84-1.82,13.87-2.35,21.08c-0.01,0.01-0.01,0.02-0.01,0.02
					c-0.74,9.88-0.99,20.07-0.65,30.56c-0.83-0.88-1.68-1.73-2.54-2.54c-0.28-5.66-0.46-16.39,0.82-30.85
					c0.84-9.61,2.33-20.87,4.86-33.39c0,0,0-0.01,0.01-0.04c1.81-8.91,4.14-18.46,7.15-28.5c0,0,0-0.01,0.01-0.03
					c2.7-9.03,5.95-18.45,9.85-28.17c0,0,0-0.01,0.01-0.03c2.77-6.91,5.87-13.97,9.34-21.14c0,0,0.01-0.03,0.04-0.08
					c0.04-0.08,0.11-0.21,0.2-0.41c0.03-0.06,0.07-0.14,0.11-0.22c4.85-9.98,10.41-20.19,16.79-30.51
					c4.01-6.49,8.34-13.02,13.02-19.58l0.12,0.12L1649.26,1081.27z"/>
				<path class="st2" d="M1594.85,89.78c25.2-23.3,60.39,8.08,47.8,35.35c-5.25,11.38-7.2,10.87-7.2,10.87h-227.67
					c-15.39-37,44.29-32.99,44.29-32.99c16.83-28.44,39.26-15.62,43.66-8.01c0,0,16.83-36.45,38.46-7.21
					c2.87,3.88,5.61,0.8,5.61,0.8c4.4-10.01,14.99-13.05,14.99-13.05c26.15-6.17,25.77,19.42,26.85,22.01
					C1583.94,103.12,1594.85,89.78,1594.85,89.78z"/>
				<path class="st5" d="M1626.73,1030.36c20.16,40.09,7.99,68.98,7.99,68.98C1611.03,1064.47,1626.73,1030.36,1626.73,1030.36z"/>
				<path class="st5" d="M1647.57,1182.5c0,0-23.68,36.15-56.49,41.09c0-0.01,0-0.02,0-0.03c0.01,0,0-0.01,0-0.01
					C1591.82,1222.17,1611.4,1185.97,1647.57,1182.5z"/>
				<path class="st5" d="M1642.45,1206.15c0,0-21.61,37.31-53.73,38.54c0,0,0-0.01,0.01-0.02
					C1589.25,1243.79,1606,1215.59,1642.45,1206.15z"/>
				<path class="st5" d="M1608.41,1157.96c0.56-1.2,10.31-20.58,62.27-27.14c0,0-23.64,28.41-62.3,27.2
					C1608.38,1158.02,1608.39,1158,1608.41,1157.96z"/>
				<path class="st5" d="M1609.74,1061.7c17.94,42.06,10.02,64.05,8.19,68.15c-0.04,0.08-0.08,0.16-0.11,0.22
					c-0.07,0.14-0.14,0.28-0.2,0.41c-0.03,0.05-0.04,0.08-0.04,0.08C1596.49,1097.11,1609.74,1061.7,1609.74,1061.7z"/>
				<path class="st5" d="M1598.88,1186.89c0,0,18.67-30.56,61.61-31.22C1660.49,1155.67,1634.69,1188.62,1598.88,1186.89z"/>
				<path class="st5" d="M1586.09,1088.78c28.37,39.43,22.4,62.03,22.15,62.92c-0.01,0.02-0.01,0.03-0.01,0.03
					C1583.15,1122.64,1586.09,1088.78,1586.09,1088.78z"/>
				<path class="st6" d="M1590.88,1278.45c9.1,11.2,15.14,27.25,13.98,50.25l-0.01,1.5l-207.18-1.5c0,0-0.95-19.47,11.55-34.8
					c9.55-11.71,26.96-21.01,58.66-17.35c0,0,1.04-14.8,7.54-30.09c3.75-8.82,9.32-17.8,17.56-24.18h2.24
					c-0.07-0.49-0.15-0.98-0.23-1.47c8.32-5.73,19.16-8.87,33.28-7c0,0,9.97,0.87,21.06,9.42c9.18,7.09,19.13,19.47,24.8,41
					c3.96,2.32,7.82,5.12,11.4,8.48c0.14,2.97,0.31,4.54,0.31,4.54l2.3-0.01c-0.03-0.67-0.05-1.33-0.07-1.99
					c0.96,1.02,1.9,2.09,2.8,3.2H1590.88z"/>
				<path class="st5" d="M1577.12,1119.11c27.21,33.71,21.5,59.76,21.26,60.79c-0.01,0.02-0.01,0.03-0.01,0.03
					C1573.24,1155.75,1577.12,1119.11,1577.12,1119.11z"/>
				<path class="st5" d="M1560.26,1150.19c33.76,30.31,31.08,57.11,30.96,58.24c-0.01,0.03-0.01,0.04-0.01,0.04
					C1559.91,1181.98,1560.26,1150.19,1560.26,1150.19z"/>
				<path class="st5" d="M1545.61,1172.44c39.83,23.73,41.63,51.21,41.63,51.21C1551.41,1203.71,1545.61,1172.44,1545.61,1172.44z"
					/>
				<path class="st5" d="M1534.34,1200.95c44.05,14.46,51.81,40.89,51.81,40.89c-15.36-4.55-26.62-11.78-34.65-18.91
					C1538.98,1211.81,1534.34,1200.95,1534.34,1200.95z"/>
				<path class="st6" d="M1471.59,1139.71c0.59,1.4,1.16,2.8,1.73,4.22c9.39,23.24,17.47,49.35,21.67,76.88
					c-0.69,0.47-1.36,0.96-2.01,1.47h-1.19c-4.13-30.19-12.34-57.75-21.86-81.6c-0.27-0.67-0.53-1.34-0.81-2
					c-4.37-10.77-9-20.77-13.63-29.9c-0.19-0.39-0.38-0.77-0.59-1.15c-4.5-8.82-8.99-16.8-13.24-23.85
					c-0.35-0.59-0.7-1.18-1.06-1.76c-13.37-21.99-23.96-34.49-23.96-34.49l0.61-0.4c0.72,0.06,1.46,0.09,2.22,0.09h0.01
					c1.5,1.99,5.04,6.77,9.84,13.91c2.12,3.16,4.5,6.79,7.05,10.84c3.02,4.82,6.31,10.23,9.72,16.18c1.03,1.78,2.06,3.61,3.11,5.49
					c5.04,9.05,10.28,19.17,15.38,30.16c0.45,0.95,0.88,1.9,1.32,2.86C1467.83,1130.89,1469.73,1135.24,1471.59,1139.71z"/>
				<path class="st6" d="M1482.95,1124.55c0,0,1.81,13.8-9.62,19.38h-0.01c-0.57-1.42-1.14-2.82-1.73-4.22
					C1471.58,1137.08,1472.35,1128.08,1482.95,1124.55z"/>
				<path class="st6" d="M1475.51,1106.65c0,0,3.11,12.91-9.6,20.01h-0.01c-0.44-0.96-0.87-1.91-1.32-2.86l0.01-0.01
					C1464.59,1123.79,1462.4,1111.57,1475.51,1106.65z"/>
				<path class="st6" d="M1470.39,1046.18c0,0,8.91,31.62-21.19,47.46c-1.05-1.88-2.08-3.71-3.11-5.49
					C1445.5,1081.93,1444.53,1054.97,1470.39,1046.18z"/>
				<path class="st6" d="M1469.12,1138.68c0.28,0.66,0.54,1.33,0.81,2c-14.16,14.61-27.32-0.37-27.32-0.37
					C1456.1,1125.06,1469.12,1138.68,1469.12,1138.68z"/>
				<path class="st5" d="M1475.42,1246.46c-6.5,15.29-7.54,30.09-7.54,30.09c-31.7-3.66-49.11,5.64-58.66,17.35
					C1413.02,1244.46,1457.28,1244.38,1475.42,1246.46z"/>
				<path class="st6" d="M1454.9,1107.63c0.21,0.38,0.4,0.76,0.59,1.15c-22.79,24.19-42.38,0.77-42.38,0.77
					C1433.41,1086.11,1454.9,1107.63,1454.9,1107.63z"/>
				<path class="st7" d="M1395.76,886.7V682.44h-166.09V886.7H1395.76z M806.88,669.25c-18.29-1.61-39.11-3.85-56.4,3.95
					c-3.36,1.52-4.61,3.28-5.05,5.41c-3.33-3.42-6.19-7.27-8.49-11.45c0.15-0.18,0.3-0.37,0.45-0.56c3.26-4.06,5.98-8.11,7.43-13.37
					c1.73-6.28,2.87-12.79,2.84-19.31c-0.01-1.99-0.13-3.97-0.38-5.93l276.77-88.59l203.06,65.37l7.84-20.85l-210.9-65.43
					l-285.32,91.87l-1.01,0.32l-1.8,0.59c-0.01,0-0.01,0-0.01,0c-1.79-1.22-3.7-1.91-6.37-2.26c-14.94-1.98-30.7-0.76-44.1,6.15
					c-3.95,2.03-7.76,4.65-10.15,8.39c-1.42,2.22-2.24,5.09-2.34,7.99l-99.33,31.98v-44.83V433.47v-19.99v-93.65L961.18,196.9
					l108.23,27.19h0.04l236.57,59.39l139.95,35.15v59.24v138.48v15.37v82.52V894.3v90.27h-1.09h-85.17h-68.7
					c1.47-5.56,2.38-11.27,2.94-17.01c1.12-0.61,2.21-1.25,3.26-1.94c4.65-3.03,8.26-9.09,9.77-14.39
					c1.85-6.52,0.89-13.9-2.86-19.49c3.39-9.33,3.32-18.14-0.95-25.07c-3.72-6.02-10.14-9.84-18.24-11.5
					c-2.2-0.45-4.53-0.74-6.96-0.87c-4.23-0.22-8.79,0.04-13.54,0.78c-0.2,0.03-0.39,0.06-0.59,0.09h-1.64
					c-6.72-3.73-15.12-5.04-23.8-3.73c-4.18,0.63-8.43,1.86-12.58,3.73c-2.03,0.91-4.04,1.97-6,3.18
					c-14.47,8.92-22.59,23.56-21.84,36.88c-1.11,1.5-2.16,2.99-3.12,4.5c-2.05,3.18-3.75,6.37-5.07,9.52h-35.76V681.44h-144.82
					v267.81h-64.44v35.3h246.95c-0.01,0.01-0.01,0.01-0.01,0.02H944.77h-78.5c0.84-23.89,1.11-47.8-0.88-71.61
					c-0.37-4.47-0.72-8.99-1.07-13.54h95.08v-8.47h-9.27V686.69h-83.82c-0.87-4.04-2.24-8.04-5.21-10.82
					c-8.74-8.22-27-5.34-37.9-5.4c-5.31-0.03-10.69-0.04-15.91,0.79C807.16,670.59,807.02,669.92,806.88,669.25z M1310.55,520.6
					v-8.48h-10.64V307.84h-166.07v204.28h-14.95v8.48H1310.55z M880.87,520.6v-8.48h-10.63V307.85H704.15v204.27h-14.93v8.48H880.87
					z"/>
				<polygon class="st8" points="1445.97,298.77 1445.97,318.63 1306.02,283.48 1069.45,224.09 1069.41,224.09 961.18,196.9 
					573.62,319.83 573.62,305.48 633.13,285.54 692.34,265.7 726.34,254.31 739.87,249.78 961.52,175.66 				"/>
				<polygon class="st8" points="739.87,249.78 726.34,254.3 692.34,265.67 632.93,285.54 632.92,285.54 517.01,324.31 
					511.95,306.21 571.46,286.59 571.47,286.59 686.57,248.64 1196.22,80.61 1201.65,95.34 1171.9,105.29 1086.26,133.93 
					994.53,164.62 1086.25,133.91 1085.53,133.91 994.2,164.52 994.53,164.62 1171.9,209.15 1264.54,232.4 1445.97,277.95 
					1445.97,298.76 1445.97,298.77 961.52,175.66 				"/>
				<path class="st6" d="M1440.6,1082.02c0.36,0.58,0.71,1.17,1.06,1.76c-21.87,24.14-42.16,0.56-42.16,0.56
					C1419.16,1061.15,1440.6,1082.02,1440.6,1082.02z"/>
				<path class="st6" d="M1437.23,1016.37c0,0,20.84,27.72-0.86,55.6c-2.55-4.05-4.93-7.68-7.05-10.84
					C1429.07,1060.75,1419.49,1035.45,1437.23,1016.37z"/>
				<path class="st6" d="M1389.41,1001.3c32.58,11.16,30.07,45.92,30.07,45.92h-0.01c-0.51-0.69-0.79-1.04-0.79-1.04l-1.43,0.95
					C1389.75,1044.89,1389.41,1001.3,1389.41,1001.3z"/>
				<rect x="1316.8" y="787.3" class="st9" width="72.33" height="91.25"/>
				<rect x="1316.8" y="690.59" class="st9" width="72.33" height="93.98"/>
				<path class="st10" d="M1314.32,1128.8l0.25-0.06c8.19-6.95,16.38-13.9,24.57-20.84c2.04-1.74,3.74-2.73,4.48-5.19
					c0.44-1.46,0.63-3.03,0.91-4.56c0.12-0.72,0.27-1.43,0.48-2.13c1.24-4.21,3.14-8.22,5.64-11.82c0.84-1.21,2.72-2.71,3.81-1.11
					c0.73,1.1-0.53,3.31-0.63,4.47c-0.18,1.94-0.05,3.91,0.36,5.8l0.66-0.09c2.73-2.03,8.2-6.39,12.81-7.51
					c1.54-0.37,2.99-0.39,4.2,0.17c4.98,2.29,0.65,13.24-0.93,16.59c-2.97,6.29-8.69,11.82-15.61,13.33
					c-2.72,0.59-4.42-0.13-6.18,1.88c-1.76,2.02-2.92,5.23-4.27,7.57c-6.08,10.51-12.62,20.75-19.61,30.68
					c-3.24,4.61-6.74,9.3-11.68,12.02c-2.35,1.3-5.01,2.12-7.69,1.96c-6.87-0.37-10.3-6.04-13.61-11.19
					c-4.29-6.68-8.79-13.12-12.56-20.12c-3.52-6.57-5.98-13.51-8.97-20.26c12.02-4.54,22.94-11.95,31.62-21.42
					C1307.29,1107.2,1311.29,1117.86,1314.32,1128.8z"/>
				<path class="st4" d="M1367.76,1084.03c0,0.58-0.03,1.17-0.1,1.73c-4.61,1.12-10.08,5.48-12.81,7.51l-0.66,0.09
					c-0.41-1.89-0.54-3.86-0.36-5.8c0.1-1.16,1.36-3.37,0.63-4.47c-1.09-1.6-2.97-0.1-3.81,1.11c-2.5,3.6-4.4,7.61-5.64,11.82
					c-0.21,0.7-0.36,1.41-0.48,2.13c-5.1-2.65-8.58-7.98-8.58-14.12c0-3.94,1.43-7.55,3.8-10.32h0.01c1.37-1.62,3.07-2.95,5-3.92
					c2.13-1.06,4.55-1.67,7.09-1.67c0.09,0,0.17,0,0.26,0.01C1360.77,1068.26,1367.76,1075.34,1367.76,1084.03z"/>
				<path class="st6" d="M1336.15,1042.51c-0.42-2.13-0.77-4.26-1.05-6.4c-0.9-6.68-1.1-13.43-0.43-20.19l-4.15-3.97
					c1.07,0,2.04-0.24,2.8-1.1c1.77-2.05,2.08-4.15,4.88-5.47c2.61-1.24,5.64-1.37,8.48-0.85c1.02,0.19,2.04,0.46,2.92,1
					c0.92,0.57,1.64,1.4,2.29,2.27c3.95,5.17,4.1,10.97,5.22,17.08c1.04,5.65,1.79,12.42-1.55,17.5c-1.08,1.65-2.3,3.27-3.05,5.08
					c-0.09,0.21-0.17,0.42-0.25,0.64l-3.96-1.56c-1.84,4.82-4.29,9.41-7.27,13.64c-0.91-2.59-1.75-5.2-2.5-7.84
					C1337.6,1049.09,1336.8,1045.81,1336.15,1042.51z"/>
				<path class="st6" d="M1352.05,1048.75c-1.37,5.01,2.72,8.53,2.12,13.17c-0.28,2.18-1.03,4.27-2.06,6.21
					c-0.09-0.01-0.17-0.01-0.26-0.01c-2.54,0-4.96,0.61-7.09,1.67c-1.34-3.15-2.6-6.36-3.73-9.61c2.98-4.23,5.43-8.82,7.27-13.64
					l3.96,1.56C1352.18,1048.31,1352.12,1048.53,1352.05,1048.75z"/>
				<path class="st6" d="M1341.03,1060.18c1.13,3.25,2.39,6.46,3.73,9.61c-1.93,0.97-3.63,2.3-5,3.92h-0.01
					c-3.69-1.08-7.15-2.88-9.28-6.01c-3.65-5.35-0.65-12.39-5.21-16.87c-0.79-0.78-1.58-1.54-2.33-2.32
					c-0.28-0.29-0.56-0.58-0.84-0.87l5.93-0.15c3.21,2.15,6.77,3.8,10.51,4.85C1339.28,1054.98,1340.12,1057.59,1341.03,1060.18z"/>
				<path class="st11" d="M1336.94,1234.41c0.28,4.21,0.15,8.49-0.8,12.6c-2.72,11.84-12.08,21.37-22.95,26.79
					c-6.59,3.28-13.72,5.24-20.95,6.48c-5.44,0.94-10.94,0.81-16.33,1.48c-0.21-3.32-0.67-6.62-1.39-9.86
					c9.31-2.42,18.68-4.65,28.08-6.68c5.87-1.26,10.24-1.96,14.85-6c3.73-3.27,6.74-7.39,8.58-12.01c0.65-1.66,1.17-3.4,1.32-5.18
					c0.35-4.15-1.36-8.27-3.89-11.58c-7.12-9.31-17.7-10.57-28.61-12.62c-8.21-1.53-16.49-2.74-24.71-4.19
					c-15.43-2.74-30.68-6.39-45.67-10.94c-11.48-3.49-16.12-8.07-22.14-24.76v-0.31c4.85,0.03,9.71-0.07,14.52-0.33
					c0.2,0.14,0.41,0.27,0.61,0.4c22.72,14.37,50.82,13.74,75.23,23.62c7.96,3.23,15.89,6.51,23.8,9.84
					c7.15,3.01,14.87,6.61,18.26,13.59C1336.2,1227.74,1336.7,1231.1,1336.94,1234.41z"/>
				<path class="st6" d="M1336.15,1042.51c0.65,3.3,1.45,6.58,2.38,9.83c-3.74-1.05-7.3-2.7-10.51-4.85l-5.93,0.15
					c-1.94-2.05-3.72-4.16-5.27-6.67c-1.9-3.1-3.35-6.53-4.07-10.09l11.54-0.71c3.26,2.54,6.93,4.55,10.81,5.94
					C1335.38,1038.25,1335.73,1040.38,1336.15,1042.51z"/>
				<path class="st6" d="M1330.52,1011.95l4.15,3.97c-0.67,6.76-0.47,13.51,0.43,20.19c-3.88-1.39-7.55-3.4-10.81-5.94l-11.54,0.71
					c-0.41-2.01-0.58-4.07-0.47-6.12c0.17-3.05,1.01-6.16,2.94-8.53c2.59-3.17,6.85-4.62,10.95-4.65
					C1327.62,1011.56,1329.15,1011.95,1330.52,1011.95z"/>
				<path class="st12" d="M1271.37,1261.76c-30.55,5.8-61.16,11.14-91.93,11.36c-7.49,0.06-14.99-0.19-22.5-0.8
					c-5.94-0.49-11.62-1.6-16.91-3.45c-2.84-0.99-5.57-2.19-8.16-3.62c-10.91-30.56-9.93-65.32,3.02-95.09
					c11.22,3.17,22.85,4.91,34.47,5.88c10.84,0.91,21.9,1.56,32.92,1.59c0.02,0,0.03,0,0.05,0v0.31
					c6.02,16.69,10.66,21.27,22.14,24.76c14.99,4.55,30.24,8.2,45.67,10.94c8.22,1.45,16.5,2.66,24.71,4.19
					c10.91,2.05,21.49,3.31,28.61,12.62c2.53,3.31,4.24,7.43,3.89,11.58c-0.15,1.78-0.67,3.52-1.32,5.18
					c-1.84,4.62-4.85,8.74-8.58,12.01c-4.61,4.04-8.98,4.74-14.85,6c-9.4,2.03-18.77,4.26-28.08,6.68
					C1273.76,1268.44,1272.7,1265.04,1271.37,1261.76z"/>
				<rect x="1236.3" y="787.3" class="st9" width="74.26" height="91.25"/>
				<rect x="1236.3" y="690.59" class="st9" width="74.26" height="93.98"/>
				<path class="st13" d="M1304.12,931.74c3.75,5.59,4.71,12.97,2.86,19.49c-1.51,5.3-5.12,11.36-9.77,14.39
					c-1.05,0.69-2.14,1.33-3.26,1.94c-4.54,2.5-9.36,4.63-12.81,8.57c-1.17,1.34-2.22,2.8-3.17,4.34c-0.82,1.32-1.56,2.7-2.25,4.1
					h-32.55c7.62-2.55,15.45-6.2,23.11-10.92c4.17-2.57,8.08-5.33,11.69-8.23C1290.85,955.09,1300.02,943.04,1304.12,931.74z"/>
				<path class="st14" d="M1264.02,1112.58c-4.07,9.51-10.68,17.92-18.99,24.07c-4.43,3.29-9.33,5.95-13.56,9.49
					c-6.52,5.47-11.24,13.05-13.35,21.29c0,0.01,0,0.01,0,0.01c-0.09,0.38-0.18,0.75-0.26,1.13c-0.78,0.09-1.54,0.2-2.32,0.3
					c-5.12,0.11-10.12,0.05-15.42-0.06c-2.26-12.46-1.57-25.54,1.05-37.99c3.79-17.98,11.4-34.91,19.37-51.46
					c5.17-10.72,10.6-21.48,18.35-30.51c6.59-7.68,15.08-14.07,24.69-16.93c0.01,0,0.01,0,0.01,0c7.8,5.31,14.45,12.52,19.82,20.34
					c8.76,12.76,14.62,27.24,21.25,41.23l0.42,0.36c-0.88,1.07-1.78,2.1-2.71,3.12c-8.68,9.47-19.6,16.88-31.62,21.42
					c-0.93,0.35-1.87,0.69-2.81,1c-1.35-2.25-2.65-4.52-3.9-6.84C1264.04,1112.56,1264.03,1112.57,1264.02,1112.58z"/>
				<path class="st10" d="M1303.17,906.67c4.27,6.93,4.34,15.74,0.95,25.07c-4.1,11.3-13.27,23.35-26.15,33.68
					c-3.61,2.9-7.52,5.66-11.69,8.23c-7.66,4.72-15.49,8.37-23.11,10.92h-24.69h-0.04h-20.05c-0.01,0-0.02,0-0.03-0.02h20.1v-24.1
					c10.81,3.28,24.21,1.51,36.08-5.81c19.43-11.99,27.41-34.31,17.82-49.86c-1.75-2.83-3.95-5.24-6.51-7.21v-0.01
					c-0.34-0.7-0.72-1.37-1.13-2.04c-0.07-0.12-0.15-0.24-0.23-0.35h20.44C1293.03,896.83,1299.45,900.65,1303.17,906.67z"/>
				<polygon class="st9" points="1293.31,412.72 1293.31,503.95 1220.96,503.95 1220.96,503.94 1220.96,412.72 				"/>
				<rect x="1220.96" y="316.01" class="st9" width="72.35" height="93.96"/>
				<path class="st10" d="M1293.95,967.56c-0.56,5.74-1.47,11.45-2.94,17.01h-15.29c0.69-1.4,1.43-2.78,2.25-4.1
					c0.95-1.54,2-3,3.17-4.34C1284.59,972.19,1289.41,970.06,1293.95,967.56z"/>
				<path class="st10" d="M1275.72,984.57h15.29c-0.74,2.8-1.62,5.56-2.67,8.28c-1.96,5.08-4.69,11.83-8.79,15.61
					c-3.97,3.66-8.93,1.63-13.4-0.2c2.29-5.34,4.13-10.92,6.28-16.23C1273.43,989.57,1274.49,987.03,1275.72,984.57z"/>
				<path class="st10" d="M1284.93,895.17h-20.44c-0.02-0.03-0.04-0.06-0.06-0.09c4.75-0.74,9.31-1,13.54-0.78
					C1280.4,894.43,1282.73,894.72,1284.93,895.17z"/>
				<path class="st13" d="M1243.17,984.57h32.55c-1.23,2.46-2.29,5-3.29,7.46c-2.15,5.31-3.99,10.89-6.28,16.23
					c-2.52,5.92-5.58,11.53-10.17,16.16c-0.73,0.73-1.49,1.43-2.28,2.11c-3.19,2.72-6.79,4.97-10.36,7.2
					c-6.02,3.76-13.02,4.84-16.57,11.6c-3.83,7.29-3.26,15.77-10.38,21.49c-2.08,1.67-4.52,2.81-6.99,3.8
					c-7.9,3.13-16.12,3.49-24.35,4.77c-9.2,1.42-18.92,0.91-27.38-2.99c-5.39-2.48-9.87-6.22-13.31-10.72c0,0,0,0,0-0.01
					c-10.83-14.2-11.03-35.77,4.58-47.74c7.83-6.01,17.84-6.01,26.75-9.71c3.29-1.36,6.68-2.79,9.17-5.35
					c1.78-1.82,2.99-4.12,4.02-6.46c1.13-2.54,2.08-5.16,2.83-7.84h6.68C1209.03,990.54,1225.54,990.48,1243.17,984.57z"/>
				<path class="st13" d="M1274.52,1271.9c0.72,3.24,1.18,6.54,1.39,9.86c-1.3,0.16-2.61,0.37-3.91,0.66
					c-16.2,3.54-32.37,7.2-48.57,10.79c-1.7,0.38-3.48,0.8-4.81,1.92c-1.58,1.31-2.27,3.37-2.89,5.32
					c-0.79,2.43-1.57,4.86-2.36,7.29c-0.42,1.32-0.85,2.67-0.8,4.06c0.13,3.16,2.74,5.67,5.49,7.24c2.75,1.56,5.84,2.57,8.26,4.61
					c1.87,1.58,4.48,5.77,2.46,8.1c-1.84,2.11-8.89,2.52-12.37,2.76c-3.39-0.2-6.79-0.51-10.16-0.93c-1.19-0.5-2.29-1.2-3.21-2.15
					c-2-2.05-2.84-4.93-3.63-7.68c-2.08-7.36-4.16-14.71-6.24-22.06c-1.65-5.81-3.71-15.1-8.33-19.11
					c-2.49-2.16-5.35-4.06-8.59-4.67c-1.19-0.23-2.2-0.24-3.11-0.08c0.71-1.16,1.63-2.17,2.81-2.98c1.09-0.73,2.26-1.29,3.49-1.73
					c30.77-0.22,61.38-5.56,91.93-11.36C1272.7,1265.04,1273.76,1268.44,1274.52,1271.9z"/>
				<path class="st15" d="M1272.36,904.78c9.59,15.55,1.61,37.87-17.82,49.86c-11.87,7.32-25.27,9.09-36.08,5.81v-7.83
					c9.12,0.77,19.24-1.57,28.43-7.24c18.59-11.48,26.7-32.41,18.96-47.81C1268.41,899.54,1270.61,901.95,1272.36,904.78z"/>
				<path class="st10" d="M1197.98,935.23c-0.75-13.32,7.37-27.96,21.84-36.88c1.96-1.21,3.97-2.27,6-3.18h36.38
					c0.13,0.07,0.26,0.14,0.38,0.21c1.14,0.66,2.23,1.39,3.27,2.18v0.01c7.74,15.4-0.37,36.33-18.96,47.81
					c-9.19,5.67-19.31,8.01-28.43,7.24v-3.37h-12.6c-1.78-0.87-3.45-1.9-4.99-3.09h-0.01
					C1199.13,942.74,1198.19,939.04,1197.98,935.23z"/>
				<path class="st10" d="M1264.72,895.52c0.41,0.67,0.79,1.34,1.13,2.04c-1.04-0.79-2.13-1.52-3.27-2.18
					c0.43-0.07,0.85-0.14,1.26-0.21h0.65C1264.57,895.28,1264.65,895.4,1264.72,895.52z"/>
				<path class="st10" d="M1262.2,895.17h-36.38c4.15-1.87,8.4-3.1,12.58-3.73C1247.08,890.13,1255.48,891.44,1262.2,895.17z"/>
				<path class="st12" d="M1253.7,1026.53c3.48,1.43,6.77,3.25,9.88,5.39c-9.61,2.86-18.1,9.25-24.69,16.93
					c-7.75,9.03-13.18,19.79-18.35,30.51c-7.97,16.55-15.58,33.48-19.37,51.46c-2.62,12.45-3.31,25.53-1.05,37.99
					c-18.61-0.21-37.19-1.94-55.52-5.16c-1.97-0.35-4.75-0.61-7.76-0.99c-5.01-0.63-10.61-1.59-14.07-3.85
					c-1.09-0.7-1.97-1.54-2.54-2.53c-4.26-7.36-1.03-18.92,1.01-26.34c6.37-23.18,13.57-46.2,23.12-68.26
					c3.44,4.5,7.92,8.24,13.31,10.72c8.46,3.9,18.18,4.41,27.38,2.99c8.23-1.28,16.45-1.64,24.35-4.77c2.47-0.99,4.91-2.13,6.99-3.8
					c7.12-5.72,6.55-14.2,10.38-21.49c3.55-6.76,10.55-7.84,16.57-11.6C1246.91,1031.5,1250.51,1029.25,1253.7,1026.53z"/>
				<path class="st10" d="M1218.48,984.57h24.69c-17.63,5.91-34.14,5.97-44.78,0h20.05H1218.48z"/>
				<path class="st8" d="M747.91,618.49c-1.49-2.05-3.88-1.76-5.56-3.29c-1.57-1.43-2.01-3.4-3.62-4.84l285.32-91.87l210.9,65.43
					l-7.84,20.85l-203.06-65.37l-276.77,88.59c-0.16-1.36-0.39-2.71-0.69-4.05C746.22,622.24,744.14,616.82,747.91,618.49z"/>
				<path class="st10" d="M1218.46,960.45v24.1h-20.1c-2.11-1.18-4-2.6-5.61-4.27v-0.01c-1.1-1.13-2.06-2.35-2.89-3.7
					c-4.62-7.49-4.32-17.17-0.07-27.32h12.89C1206.41,954.73,1211.97,958.5,1218.46,960.45z"/>
				<path class="st15" d="M1218.46,952.62v7.83c-6.49-1.95-12.05-5.72-15.78-11.2h3.18
					C1209.66,951.12,1213.94,952.26,1218.46,952.62z"/>
				<path class="st10" d="M1218.46,949.25v3.37c-4.52-0.36-8.8-1.5-12.6-3.37H1218.46z"/>
				<path class="st11" d="M1217.86,1168.57c0.05-0.01,0.1-0.02,0.15-0.03c-0.28,2.9-0.46,5.81-0.54,8.73
					c-0.21,0.02-0.42,0.02-0.62,0.03c-4.81,0.26-9.67,0.36-14.52,0.33c-0.02,0-0.03,0-0.05,0c-0.85-2.73-1.54-5.51-2.07-8.32
					c-0.02-0.17-0.06-0.33-0.09-0.5c5.3,0.11,10.3,0.17,15.42,0.06C1216.32,1168.77,1217.08,1168.66,1217.86,1168.57z"/>
				<polygon class="st9" points="1214.72,503.94 1214.72,503.95 1140.46,503.95 1140.46,412.72 1214.72,412.72 				"/>
				<rect x="1140.46" y="316.01" class="st9" width="74.26" height="93.96"/>
				<path class="st15" d="M1205.86,949.25h-3.18c-0.24-0.34-0.47-0.69-0.69-1.05c-0.41-0.67-0.79-1.35-1.13-2.04h0.01
					C1202.41,947.35,1204.08,948.38,1205.86,949.25z"/>
				<path d="M1203.04,1331.43c0.92,0.95,2.02,1.65,3.21,2.15c-2.51-0.31-5-0.68-7.49-1.11c-6.93-1.19-12.29-3.67-15.28-10.4
					c-3.57-8.04-2.86-17.52-7.19-25.17c-0.55-0.97-1.18-1.81-1.81-2.63c-1.01-1.34-1.98-2.67-2.52-4.53
					c-1.1-3.83-0.95-8.48,1.18-11.91c0.91-0.16,1.92-0.15,3.11,0.08c3.24,0.61,6.1,2.51,8.59,4.67c4.62,4.01,6.68,13.3,8.33,19.11
					c2.08,7.35,4.16,14.7,6.24,22.06C1200.2,1326.5,1201.04,1329.38,1203.04,1331.43z"/>
				<path class="st10" d="M1202.68,949.25h-12.89c1.32-3.15,3.02-6.34,5.07-9.52c0.96-1.51,2.01-3,3.12-4.5
					c0.21,3.81,1.15,7.51,2.88,10.93c0.34,0.69,0.72,1.37,1.13,2.04C1202.21,948.56,1202.44,948.91,1202.68,949.25z"/>
				<path class="st11" d="M1200.21,1169.31c0.53,2.81,1.22,5.59,2.07,8.32c-11.02-0.03-22.08-0.68-32.92-1.59
					c-11.62-0.97-23.25-2.71-34.47-5.88c-4.68-1.32-9.28-2.89-13.78-4.75c-0.09-0.04-0.18-0.07-0.26-0.11
					c0.44-2.21,1.09-4.39,1.92-6.49c3.46,2.26,9.06,3.22,14.07,3.85c3.01,0.38,5.79,0.64,7.76,0.99
					c18.33,3.22,36.91,4.95,55.52,5.16C1200.15,1168.98,1200.19,1169.14,1200.21,1169.31z"/>
				<path class="st13" d="M1198.36,984.55h-6.64c0.39-1.41,0.74-2.84,1.03-4.27C1194.36,981.95,1196.25,983.37,1198.36,984.55z"/>
				<path class="st9" d="M1192.75,980.27v0.01c-0.29,1.43-0.64,2.86-1.03,4.27H944.77v-35.3h64.44h144.82h35.76
					c-4.25,10.15-4.55,19.83,0.07,27.32C1190.69,977.92,1191.65,979.14,1192.75,980.27z"/>
				<path class="st13" d="M1156.94,1272.32c7.51,0.61,15.01,0.86,22.5,0.8c-1.23,0.44-2.4,1-3.49,1.73
					c-1.18,0.81-2.1,1.82-2.81,2.98c-2.13,3.43-2.28,8.08-1.18,11.91c0.54,1.86,1.51,3.19,2.52,4.53
					c-9.28,2.67-18.99,3.86-28.66,3.49c-5.96-0.23-9.57-2.16-9.6-8.58c-0.02-2.93,0.61-5.8,1.24-8.65
					c0.86-3.88,1.71-7.78,2.57-11.66C1145.32,1270.72,1151,1271.83,1156.94,1272.32z"/>
				<polygon class="st9" points="1171.9,105.29 1171.9,209.15 994.53,164.62 1086.26,133.93 				"/>
				<path class="st16" d="M1112.3,1272.25l7.53-1.01c1.66,8.46,2.79,16.28,4.54,21.26c5.34,15.18-1.6,26.77-1.6,26.77
					c-5.05-2.8-10.93-2-10.93-2c-10.8,5.2-8.4,0.41-22.38-1.99c-13.99-2.4-18.78,9.19-23.57,9.99c-4.8,0.8-13.99,0-13.99,0
					s-3.69-6.59-14.73-22.15l7.8-0.88c-4.95-6.73-9.87-15.4-11.37-24.6c-3.29-20.31,44.54-38.08,61.67-35.18
					C1104.64,1244.05,1109.67,1259.02,1112.3,1272.25z"/>
				<path class="st11" d="M1134.89,1170.16c-12.95,29.77-13.93,64.53-3.02,95.09c-7.04-3.88-13.13-9.42-17.87-16.96
					c-6.92-10.99-5.56-24.96-4.43-37.48c1.38-15.38,3.61-31.22,11.09-44.61c0-0.01,0.01-0.01,0.01-0.02
					c0.14-0.26,0.28-0.52,0.44-0.77C1125.61,1167.27,1130.21,1168.84,1134.89,1170.16z"/>
				<path class="st16" d="M1119.83,1271.24l-7.53,1.01c-2.63-13.23-7.66-28.2-17.03-29.79c-17.13-2.9-64.96,14.87-61.67,35.18
					c1.5,9.2,6.42,17.87,11.37,24.6l-7.8,0.88c-2.54-3.58-5.48-7.65-8.85-12.22c-17.98-24.37,5.28-44.56,24.18-51.21
					c1.23-0.61,2.15-1.02,2.59-1.13c2-1.13,3.95-2.12,5.87-2.98c18.46-8.4,32.5-5.41,32.5-5.41
					C1110.91,1233.93,1116.45,1253.92,1119.83,1271.24z"/>
				<path class="st16" d="M1006.25,1116.01l54.71,119.57c-1.92,0.86-3.87,1.85-5.87,2.98c-0.44,0.11-1.36,0.52-2.59,1.13
					l-53.6-120.64C1001.75,1118.53,1004.2,1117.48,1006.25,1116.01z"/>
				<path class="st16" d="M1005.18,1079.82c11.4,12.13,11.12,29.04,1.07,36.19c-2.05,1.47-4.5,2.52-7.35,3.04
					c-0.96,0.18-1.97,0.3-3.02,0.35c-19.4,0.95-23.42-22.41-23.42-22.41L1005.18,1079.82z M996.51,1114.45
					c13.57-0.66,16.65-16.87,6.51-27.68l-22.88,12.01C980.14,1098.78,982.95,1115.11,996.51,1114.45z"/>
				<path class="st9" d="M938.69,694.83v187.96h-75.76c-1.47-15.58-3.63-31.17-8.12-45.78l22.7-41.82c0.61,0.56,1.39,0.9,2.47,0.94
					c2.46,0.08,5.55-4.25,6.78-6.01c2.56-3.66,2.77-7.99,0.28-11.75c-0.07-0.11-0.15-0.22-0.22-0.32l21.23-39.13
					c0,0,3.5-9.16-6.54-5.84l-21.06,38.94c-1.73-1.53-3.23-3.25-3.92-5.8c-0.04-0.17-0.08-0.34-0.12-0.52
					c-0.04-0.2-0.08-0.41-0.11-0.62c-0.88-5.62-0.02-11.36-0.45-17.03c-0.77-10.2-1.99-20.36-3.66-30.45
					c-1.27-7.63-3.03-15.18-4.41-22.77H938.69z"/>
				<path class="st17" d="M901.51,733.08c10.04-3.32,6.54,5.84,6.54,5.84l-21.23,39.13c-1.78-2.53-4.25-4.14-6.37-6.03
					L901.51,733.08z"/>
				<path class="st10" d="M880.45,772.02c2.12,1.89,4.59,3.5,6.37,6.03c0.07,0.1,0.15,0.21,0.22,0.32
					c2.49,3.76,2.28,8.09-0.28,11.75c-1.23,1.76-4.32,6.09-6.78,6.01c-1.08-0.04-1.86-0.38-2.47-0.94
					c-1.99-1.77-2.08-5.69-3.81-7.68c-0.52-0.59-0.99-0.67-1.41-0.42l-2.24,4.13l-0.66,1.22c-10.82-6.68-2.12-17.43-3.62-25.54
					l10.76-0.68C877.22,768.77,878.72,770.49,880.45,772.02z"/>
				<path class="st17" d="M877.51,795.19l-22.7,41.82l-24.85,45.78l-4.43,8.16l-4.59,8.47l-4.46,8.21v0.01
					c-1.71,0.32-3.53,0.68-4.65,0.25c-1.75-0.67-2.66-1.94-3.04-3.46l2.71-5.01l4.59-8.47l4.41-8.16l30.54-56.42l18.35-33.93
					c0.21-0.18,0.43-0.64,0.66-1.22l2.24-4.13c0.42-0.25,0.89-0.17,1.41,0.42C875.43,789.5,875.52,793.42,877.51,795.19z"/>
				<path class="st10" d="M844.61,701.2c-10.75,1.87-21.71,2.55-32.61,2.03c-0.88-1.29-1.8-2.56-2.79-3.81l-0.37-0.03
					c0.79-9.39,0.26-18.89-1.55-28.13c5.22-0.83,10.6-0.82,15.91-0.79c10.9,0.06,29.16-2.82,37.9,5.4
					c2.97,2.78,4.34,6.78,5.21,10.82c0.46,2.13,0.78,4.28,1.13,6.26c0.11,0.63,0.22,1.25,0.34,1.88c1.38,7.59,3.14,15.14,4.41,22.77
					c1.67,10.09,2.89,20.25,3.66,30.45c0.43,5.67-0.43,11.41,0.45,17.03c0.03,0.21,0.07,0.42,0.11,0.62
					c0.04,0.18,0.08,0.35,0.12,0.52l-10.76,0.68c-0.04-0.24-0.09-0.48-0.15-0.72c-0.9-3.6-3.52-7.42-4.9-10.81
					c-1.87-4.62-3.54-9.32-5.22-14.01c-1.6-4.5-3.2-8.99-4.81-13.47c-1.39-3.9-2.78-7.81-3.83-11.8
					C845.59,711.22,844.83,706.23,844.61,701.2z"/>
				<path class="st9" d="M869.39,792.44l-18.35,33.93c-0.9-2.19-1.86-4.35-2.88-6.47c-0.56-2.2-1.11-4.4-1.55-6.64
					c-4.89-24.54-9.36-49.5-18.13-73.05c-4.8-12.88-8.7-25.6-16.48-36.98c10.9,0.52,21.86-0.16,32.61-2.03
					c0.22,5.03,0.98,10.02,2.25,14.89c1.05,3.99,2.44,7.9,3.83,11.8c1.61,4.48,3.21,8.97,4.81,13.47c1.68,4.69,3.35,9.39,5.22,14.01
					c1.38,3.39,4,7.21,4.9,10.81c0.06,0.24,0.11,0.48,0.15,0.72C867.27,775.01,858.57,785.76,869.39,792.44z"/>
				<path class="st14" d="M865.39,912.96c1.99,23.81,1.72,47.72,0.88,71.61c-0.28,8.11-0.63,16.21-0.98,24.31
					c-2.06,47.55-3.77,95.26-9.99,142.58c-0.16,1.22-0.32,2.45-0.49,3.67v0.01c-0.83,0.23-1.66,0.45-2.49,0.66
					c-5.78,1.38-11.88,1.82-17.66,0.62c-0.24-1.45-0.48-2.9-0.71-4.35c-6.63-40.79-11.98-81.79-16.06-122.93
					c-1.47-14.85-2.78-29.7-3.91-44.57c-0.66-8.68-1.27-17.36-1.82-26.05c-0.68-10.82-1.29-21.65-1.78-32.48
					c2.31-2.04,3.44-4.74,5.4-7.07c1.3-1.55,1.29-3.57,2.69-4.94c1.52-1.49,2.88-1.46,2.73-4.12c-0.05-0.81-0.19-1.66-0.76-2.24
					c-0.63-0.64-2.23-0.36-3.96-0.03v-0.01l4.46-8.21l4.59-8.47l4.43-8.16l24.85-45.78c4.49,14.61,6.65,30.2,8.12,45.78
					c0.26,2.72,0.5,5.45,0.72,8.16c0.24,2.83,0.46,5.66,0.67,8.47C864.67,903.97,865.02,908.49,865.39,912.96z"/>
				<rect x="791.28" y="412.72" class="st9" width="72.32" height="91.23"/>
				<rect x="791.28" y="316.01" class="st9" width="72.32" height="93.97"/>
				<path class="st18" d="M854.81,1155.14v-0.01c0.17-1.22,0.33-2.45,0.49-3.67l0.55,0.07c1.01-0.14,2.06-0.19,3.03,0.11
					c0.97,0.3,1.86,1.01,2.16,1.98c0.16,0.52,0.14,1.08,0.12,1.62c-0.56,13.44-2.82,26.74-4.54,40.04
					c-0.86,6.67-3.12,9.78-9.4,12.36c-6.03,2.49-11.99,4.82-17.69,7.98c-3.1,1.71-6.26,3.4-9.67,4.36
					c-2.52,0.71-8.91,2.61-11.29,0.89c-1.09-0.8-1.14-2.51-0.48-3.69c0.66-1.18,1.83-1.98,2.94-2.75
					c7.2-5.04,13.58-11.24,18.82-18.29c1.04-1.4,3.12-3.48,3.44-5.21c0.34-1.85-1.02-5.06-1.35-6.95c-0.84-4.83-1.42-9.7-1.74-14.59
					c-0.25-3.73-0.3-7.45-0.29-11.18c0.01-3.6,0.38-4.75,3.99-6.13l0.05-0.01c0.23,1.45,0.47,2.9,0.71,4.35
					c5.78,1.2,11.88,0.76,17.66-0.62C853.15,1155.59,853.98,1155.37,854.81,1155.14z"/>
				<path class="st14" d="M851.04,826.37l-30.54,56.42l-4.41,8.16l-4.59,8.47l-2.71,5.01c-0.22-0.89-0.25-1.87-0.17-2.86
					c0.06-0.69,0.12-1.43-0.17-2.07c-0.01-0.03-0.03-0.05-0.04-0.08c-0.64-1.24-2.46-0.88-3.93-0.6c-0.51,0.1-0.98,0.19-1.35,0.2
					c-0.93,0.04-1.86-0.18-2.79-0.59h-0.01c-0.73-0.31-1.46-0.74-2.18-1.26c-2.14-1.54-4.2-3.87-5.99-6.22
					c-1.85-2.43-3.41-4.88-4.49-6.51c-0.36-0.55-0.72-1.1-1.06-1.65c-3.6-5.67-6.69-11.63-10.43-17.21
					c-6.22-9.29-12.67-18.44-18.61-27.91c1.02-1.24,2.05-2.48,3.1-3.7c14.88,3.95,30.75,3.9,45.9,0.96
					c12.49-2.43,24.53-6.77,36.03-12.26c1.87-0.89,3.72-1.82,5.56-2.77C849.18,822.02,850.14,824.18,851.04,826.37z"/>
				<path class="st12" d="M745.43,678.61c0.44-2.13,1.69-3.89,5.05-5.41c17.29-7.8,38.11-5.56,56.4-3.95
					c0.14,0.67,0.28,1.34,0.41,2.01c1.81,9.24,2.34,18.74,1.55,28.13l0.37,0.03c0.99,1.25,1.91,2.52,2.79,3.81
					c7.78,11.38,11.68,24.1,16.48,36.98c8.77,23.55,13.24,48.51,18.13,73.05c0.44,2.24,0.99,4.44,1.55,6.64
					c-1.84,0.95-3.69,1.88-5.56,2.77c-11.5,5.49-23.54,9.83-36.03,12.26c-15.15,2.94-31.02,2.99-45.9-0.96
					c-5.16-8.66-10.32-17.32-15.48-25.97c-3.19-5.36-6.39-10.71-9.58-16.07c-3.47-5.81-6.94-11.63-9.94-17.7
					c-0.45-0.92-0.9-1.86-1.33-2.8c-4.1-8.84-7.18-18.13-9.16-27.66c-1.66-7.95-2.55-16.13-1.47-24.18
					c0.83-6.19,3.19-14.18,7.49-19.63c0.42-0.54,0.85-1.04,1.3-1.52c1.67,4.17,5.62,7.82,10,6.84c7.98-1.79,12.24-10.77,12.74-18.26
					C745.46,683.68,744.96,680.93,745.43,678.61z"/>
				<path class="st10" d="M821.2,909.91c0.15,2.66-1.21,2.63-2.73,4.12c-1.4,1.37-1.39,3.39-2.69,4.94
					c-1.96,2.33-3.09,5.03-5.4,7.07c-0.29,0.26-0.6,0.51-0.93,0.74c-1.19,0.84-2.57,1.52-4.03,1.5c-0.05,0-0.1,0-0.15-0.01
					c-2.04-0.09-3.78-1.51-5.22-2.96c-0.56-0.56-1.09-1.14-1.61-1.74c-3.65-4.16-6.4-9.11-8.02-14.4c-0.44-1.41-0.8-2.84-1.06-4.29
					c-0.01-0.04-0.02-0.07-0.03-0.11l8.82-7.6c0.72,0.52,1.45,0.95,2.18,1.26h0.01c0.93,0.41,1.86,0.63,2.79,0.59
					c0.37-0.01,0.84-0.1,1.35-0.2c1.47-0.28,3.29-0.64,3.93,0.6c0.01,0.03,0.03,0.05,0.04,0.08c0.29,0.64,0.23,1.38,0.17,2.07
					c-0.08,0.99-0.05,1.97,0.17,2.86c0.38,1.52,1.29,2.79,3.04,3.46c1.12,0.43,2.94,0.07,4.65-0.25c1.73-0.33,3.33-0.61,3.96,0.03
					C821.01,908.25,821.15,909.1,821.2,909.91z"/>
				<path class="st2" d="M813.98,984.57h-1.66h-17.3h-1h-19.3l30.55-56.3c0.05,0.01,0.1,0.01,0.15,0.01
					c1.46,0.02,2.84-0.66,4.03-1.5c0.33-0.23,0.64-0.48,0.93-0.74c0.49,10.83,1.1,21.66,1.78,32.48
					C812.71,967.21,813.32,975.89,813.98,984.57z"/>
				<path class="st17" d="M630.52,1150.71c10.44-22.71,23.21-29.83,34.1-30.77c-0.02,0.12-0.06,0.25-0.09,0.37
					c-1.04,3.92-6.27,6.84-9.23,9.29c-3.96,3.28-7.99,6.47-11.91,9.82c-0.58,0.49-1.19,1.04-1.35,1.78
					c-0.22,1.02,0.53,2.06,1.48,2.51c0.95,0.45,2.04,0.46,3.09,0.45c6.98-0.03,13.66,0.01,19.33-4.51c5-4,8.54-9.44,15.18-10.71
					c2.04-0.39,6.01-0.23,7.34-2.12c0.08-0.11,0.15-0.24,0.21-0.39l0.01-0.03l76.75-141.83l33.01-61c0.52,0.6,1.05,1.18,1.61,1.74
					c1.44,1.45,3.18,2.87,5.22,2.96l-30.55,56.3l-79.11,145.77c38.05,22,11.88,62.43,11.88,62.43c-5.34-4.16-15.12,0-15.12,0
					c-17.99-36.55-47.54-41.02-58.19-41.39c-2.52-0.1-3.98,0.05-3.98,0.05c0.11-0.24,0.21-0.47,0.32-0.71V1150.71z"/>
				<path class="st2" d="M798.44,923.57l-33.01,61h-62.19c0.08-7.23-0.31-13.21,6.82-17.14c17.18-9.45,31.52-17.7,47.8-29.08
					c11.66-8.15,22.49-18.54,32.56-29.18C792.04,914.46,794.79,919.41,798.44,923.57z"/>
				<path class="st10" d="M798.15,897.17l-8.82,7.6c0.01,0.04,0.02,0.07,0.03,0.11c-2.41-1.78-4.8-3.61-7.16-5.46
					c-3.48-2.75-6.9-5.57-10.26-8.47c-3.08-2.65-6.1-5.37-9.07-8.16c-3.08-2.88-6.09-5.83-9.04-8.84
					c-4.37-4.46-9.23-8.99-13.76-13.79c-5.34-5.62-10.24-11.61-13.42-18.27c-5.95-12.5-9.38-26.01-12.81-39.35
					c-2.79-10.86-5.57-21.7-8.36-32.56c6.2,1.25,12.54,1.72,18.86,1.45c0.43,0.94,0.88,1.88,1.33,2.8c3,6.07,6.47,11.89,9.94,17.7
					c3.19,5.36,6.39,10.71,9.58,16.07c1.27,7.18,3.19,14.06,6.91,20.57c1.75,3.07,3.58,6.1,5.47,9.1
					c5.94,9.47,12.39,18.62,18.61,27.91c3.74,5.58,6.83,11.54,10.43,17.21c0.34,0.55,0.7,1.1,1.06,1.65
					c1.08,1.63,2.64,4.08,4.49,6.51C793.95,893.3,796.01,895.63,798.15,897.17z"/>
				<path class="st14" d="M789.36,904.88c0.26,1.45,0.62,2.88,1.06,4.29c-10.07,10.64-20.9,21.03-32.56,29.18
					c-16.28,11.38-30.62,19.63-47.8,29.08c-7.13,3.93-6.74,9.91-6.82,17.14c-0.01,0.89-0.03,1.8-0.07,2.72
					c-0.5,11.74-1.32,23.47-2.46,35.16c-1.75,17.94-4.25,35.8-7.5,53.52c-0.27,1.49-0.55,2.97-0.83,4.45
					c-7.58,1.25-15.31,1.53-22.95,0.8h-0.01c-0.3-1.18-0.59-2.37-0.86-3.55c-4.87-20.96-5.38-41.57-6.67-63.1
					c-0.62-10.17-0.33-20.14,1.02-30c1.24-9.05,3.37-18.02,6.51-26.98c6.33-18.06,20.99-34.05,33.29-48.47
					c2.72-3.19,5.38-6.42,7.98-9.7c2.24-2.8,4.43-5.63,6.6-8.47c2.06-2.71,4.1-5.43,6.12-8.16c5.59-7.52,11.08-15.12,16.66-22.63
					c4.53,4.8,9.39,9.33,13.76,13.79c2.95,3.01,5.96,5.96,9.04,8.84c2.97,2.79,5.99,5.51,9.07,8.16c3.36,2.9,6.78,5.72,10.26,8.47
					C784.56,901.27,786.95,903.1,789.36,904.88z"/>
				<rect x="710.78" y="412.72" class="st9" width="74.26" height="91.23"/>
				<rect x="710.78" y="316.01" class="st9" width="74.26" height="93.97"/>
				<path class="st4" d="M738.84,613.76c0-0.01,0-0.01,0-0.01c-0.22-1.07-0.6-2.11-1.12-3.07l1.01-0.32
					c1.61,1.44,2.05,3.41,3.62,4.84c1.68,1.53,4.07,1.24,5.56,3.29c-3.77-1.67-1.69,3.75-1.32,5.45c0.3,1.34,0.53,2.69,0.69,4.05
					c0.25,1.96,0.37,3.94,0.38,5.93c0.03,6.52-1.11,13.03-2.84,19.31c-1.45,5.26-4.17,9.31-7.43,13.37
					c-0.15,0.19-0.3,0.38-0.45,0.56c-0.3-0.54-0.59-1.07-0.86-1.62c0.02-0.01,0.03-0.03,0.04-0.04c-0.04-0.04-0.08-0.07-0.11-0.11
					c-0.01,0-0.01,0-0.01,0c-2.18-1.97-4.39-4.38-4.69-7.12c-0.38-3.42,2.23-8.56-2.12-10.47c-4.25-1.88-5.72,7.25-9.25,2.39
					c-2.76-3.8-3.82-8.7-8.52-10.97c-1.93-0.93-4.16-0.95-6.3-0.84c-6.41,0.35-11.63,3.75-17.43,6.11c-0.9,0.37-1.82,0.72-2.78,0.88
					c-0.2,0.04-0.41,0.06-0.63,0.08c-3.74,0.25-6.61-2.13-8.75-4.87c-1.9-2.41-2.7-5.74-2.58-9.04c0.1-2.9,0.92-5.77,2.34-7.99
					c2.39-3.74,6.2-6.36,10.15-8.39c13.4-6.91,29.16-8.13,44.1-6.15c2.67,0.35,4.58,1.04,6.37,2.26c0,0,0,0,0.01,0
					C736.9,611.94,737.84,612.76,738.84,613.76z"/>
				<path class="st10" d="M745.43,678.61c-0.47,2.32,0.03,5.07-0.19,8.41c-0.5,7.49-4.76,16.47-12.74,18.26
					c-4.38,0.98-8.33-2.67-10-6.84c-0.55-0.83-1.14-1.65-1.7-2.46c-0.26-0.38-0.52-0.77-0.77-1.15c-0.26-0.41-0.5-0.81-0.73-1.22
					c-1.29-2.27-2.51-4.57-3.65-6.92c-0.28-0.57-0.55-1.14-0.82-1.72c0.03-0.02,0.06-0.04,0.09-0.05
					c8.6-4.41,15.51-11.53,21.16-19.38c0.27,0.55,0.56,1.08,0.86,1.62C739.24,671.34,742.1,675.19,745.43,678.61z"/>
				<path class="st10" d="M736.01,665.39c0.02,0.05,0.04,0.11,0.07,0.15c-5.65,7.85-12.56,14.97-21.16,19.38
					c-0.03,0.01-0.06,0.03-0.09,0.05h-0.01c-1.39,0.71-2.84,1.35-4.34,1.72h-4.64c-2.64-0.84-4.39-3.19-6.22-5.35
					c-7.88-9.34-11.39-21.1-14.1-32.86c-0.05-0.23-0.1-0.46-0.15-0.68c-0.18-0.81-0.34-1.62-0.46-2.43
					c0.96-0.16,1.88-0.51,2.78-0.88c5.8-2.36,11.02-5.76,17.43-6.11c2.14-0.11,4.37-0.09,6.3,0.84c4.7,2.27,5.76,7.17,8.52,10.97
					c3.53,4.86,5-4.27,9.25-2.39c4.35,1.91,1.74,7.05,2.12,10.47C731.61,661.01,733.82,663.42,736.01,665.39
					C736,665.39,736,665.39,736.01,665.39z"/>
				<path class="st9" d="M726.65,841.89c3.18,6.66,8.08,12.65,13.42,18.27c-5.58,7.51-11.07,15.11-16.66,22.63h-48.88V694.83h45.5
					c0.25,0.38,0.51,0.77,0.77,1.15c-11.42,8.18-18.01,22-20.28,35.94c-1.97,12.18-1.04,24.6,0.48,36.88
					c1.06,0.4,2.18,0.69,3.26,0.93c0.4,0.09,0.81,0.17,1.22,0.25c2.79,10.86,5.57,21.7,8.36,32.56
					C717.27,815.88,720.7,829.39,726.65,841.89z"/>
				<path class="st5" d="M730.88,1221.57H509.87c0,0,9.9-28.96,36.05-50.31c3.54-2.89,7.38-5.64,11.53-8.16
					c9.44-5.74,20.51-10.28,33.38-12.56c6.43-1.14,13.31-1.72,20.66-1.59c6.02,0.09,12.36,0.66,19.03,1.76v0.01
					c-0.11,0.24-0.21,0.47-0.32,0.71c0,0,1.46-0.15,3.98-0.05c10.65,0.37,40.2,4.84,58.19,41.39c0,0,9.78-4.16,15.12,0h0.01
					C707.5,1192.77,727.28,1198.65,730.88,1221.57z"/>
				<path class="st11" d="M705.48,769.98c-0.41-0.08-0.82-0.16-1.22-0.25c-1.08-0.24-2.2-0.53-3.26-0.93
					c-1.52-12.28-2.45-24.7-0.48-36.88c2.27-13.94,8.86-27.76,20.28-35.94c0.56,0.81,1.15,1.63,1.7,2.46
					c-0.45,0.48-0.88,0.98-1.3,1.52c-4.3,5.45-6.66,13.44-7.49,19.63c-1.08,8.05-0.19,16.23,1.47,24.18
					c1.98,9.53,5.06,18.82,9.16,27.66C718.02,771.7,711.68,771.23,705.48,769.98z"/>
				<path class="st2" d="M648.13,899.42h62.56c-2.6,3.28-5.26,6.51-7.98,9.7c-12.3,14.42-26.96,30.41-33.29,48.47
					c-3.14,8.96-5.27,17.93-6.51,26.98h-51.93c7.33-62.54-22.64-59.43-37.36-54.38V683.57l111.75-35.77
					c0.05,0.22,0.1,0.45,0.15,0.68c2.71,11.76,6.22,23.52,14.1,32.86c1.83,2.16,3.58,4.51,6.22,5.35h-42.76v204.26h-14.95V899.42z"
					/>
				<path class="st18" d="M688.67,1126.43c-0.06,0.15-0.13,0.28-0.21,0.39c-1.33,1.89-5.3,1.73-7.34,2.12
					c-6.64,1.27-10.18,6.71-15.18,10.71c-5.67,4.52-12.35,4.48-19.33,4.51c-1.05,0.01-2.14,0-3.09-0.45
					c-0.95-0.45-1.7-1.49-1.48-2.51c0.16-0.74,0.77-1.29,1.35-1.78c3.92-3.35,7.95-6.54,11.91-9.82c2.96-2.45,8.19-5.37,9.23-9.29
					c0.03-0.12,0.07-0.25,0.09-0.37c0.39-1.68,0.31-3.45,0.22-5.18c-0.51-9.31-2.63-18.8-2.34-28.09c0.04-1.16,0.12-2.34,0.52-3.43
					c0.91-2.49,3.28-4.12,5.51-5.56l0.03-0.01c0.27,1.18,0.56,2.37,0.86,3.55h0.01c7.64,0.73,15.37,0.45,22.95-0.8
					c0.28-1.48,0.56-2.96,0.83-4.45c2.08,0.27,4.96,1.04,5.6,2.85c0.72,2.06-2.51,6.41-3.28,8.55c-3.65,10.1-5.09,21.27-6.36,31.85
					c-0.18,1.57,0.17,5.47-0.49,7.18L688.67,1126.43z"/>
				<path class="st2" d="M686.57,248.64l-115.1,37.95h-0.01l-308.65,5.23c-33.98-5.66-15.86-30.58-15.86-30.58
					c26.72-36,85.06-13.43,85.06-13.43c-1.53-27.38,17.48-44.1,17.48-44.1c41.83-25.1,62.98,15.04,66.16,21.29
					c3.68,7.24,6.84,1.52,6.84,1.52s1.06-29.3,40.3-39.54c45.33-11.83,56.27,38.78,56.27,38.78c9.88-11.41,19.01-26.62,47.9-25.1
					c28.9,1.52,24.33,33.46,26.62,37.26c2.28,3.8,7.92,0.66,7.92,0.66C644.18,224.96,674.48,233.18,686.57,248.64z"/>
				<path class="st6" d="M641.99,1001.39c12.82,14.9,9.86,38.55-11.79,54.99c-20.72,15.75-33.85,47.16-18.71,92.57
					c-7.35-0.13-14.23,0.45-20.66,1.59c-8.48-13.86-26.45-49.14-28.02-100.84c-2.06-67.84-28.78-95.6,3.08-116.16
					c0,0,3.12-1.77,7.73-3.35c14.72-5.05,44.69-8.16,37.36,54.38c-0.11,0.97-0.24,1.95-0.37,2.95
					C610.61,987.52,629.18,986.48,641.99,1001.39z"/>
				<path class="st6" d="M546.88,1112.41c3.96,27.72,7.78,42.69,10.57,50.69c-4.15,2.52-7.99,5.27-11.53,8.16
					c-19-21.79-12.87-34.76-31.39-73.25c-20.53-42.66-41.27-19.33-54.52-52.42c-12.33-30.84,13.37-35.98,13.37-35.98
					C530.21,1003.45,539.16,1058.44,546.88,1112.41z"/>
				<path class="st5" d="M463.64,772.13c-2.66,3.8-21.97,31.78-33.3,48.49l-11.2-125.98l-2.09,83.47l-37.48-67.84l37.32,74.61
					l-2.69,108.07c-19.15-2.72-33.94-18.64-48.56-30.73c-10.11-8.36-19.88-17.15-29.11-26.45c3.59-5.11,5.71-7.81,5.71-7.81
					l-0.83-0.5c35.6-4.17,34.01-60.78,34.01-60.78c-41.39,15.85-36.98,60.17-36.89,60.99c0,0.01,0,0.01,0,0.01
					c-0.86,1.22-2.25,3.23-4.08,5.98c-1.74-1.78-3.46-3.58-5.15-5.4c0.25-11.68-2.52-27.06-15.24-39.79c0,0-3.62,5.19-6.59,13.53
					c-20.24-27.64-35.18-59.45-40.09-93.28c-1.14-7.85-1.64-16.24,1.84-23.33c12.34-25.04,31.34-3.16,45.49,2.88
					c4.24,1.81,8.92,2.12,13.51,2c1.52-0.03,3.11-0.16,4.44-0.89c2.62-1.42,3.45-4.78,3.7-7.79c1.52-17.53-7.06-34.12-14.88-49.92
					c-14.65-29.66-15.98-66.22-15-99.04c0.95-31.5,9.49-63.6,29.28-88.1c10.82-13.45,25.51-24.59,42.51-27.54
					c39.69-6.8,53.81,29.69,54.38,61.98c0.19,10.58,0.35,21.15,0.54,31.72c0.13,7.95,0.41,16.33,4.75,22.98
					c12.5,19.12,40.68-4.71,58.88,3.2c13.45,5.82,22.88,18.64,27.82,32.45c4.94,13.8,5.92,28.64,6.55,43.27
					c0.7,15.38,1.08,30.8,0.26,46.15c-1.59,29.44-10.99,55.71-16.27,84.2c-4.78,25.93-10.73,50.68-20.01,75.72
					c-6.52,17.47-14.09,34.91-26.15,49.13c-8.64,10.19-19.91,18.61-32.47,22.76l-5.57-62.68L463.64,772.13z"/>
				<path class="st4" d="M463.64,772.13l-32.66,55.74l5.57,62.68l8.61,96.7h-33.3l2.34-94.3l2.69-108.07l-37.32-74.61l37.48,67.84
					l2.09-83.47l11.2,125.98C441.67,803.91,460.98,775.93,463.64,772.13z"/>
				<path class="st3" d="M375.42,766.68c0,0,1.59,56.61-34.01,60.78c-0.93,0.11-1.89,0.18-2.88,0.22c0,0,0,0,0-0.01
					C338.44,826.85,334.03,782.53,375.42,766.68z"/>
				<path class="st3" d="M305.91,882.02c0,0,0,0,0-0.01c4.15-7.86,8.15-15.03,11.86-21.41c3.11-5.38,6.02-10.19,8.64-14.4
					c0-0.01,0.01-0.02,0.02-0.05c3.16-5.09,5.89-9.29,8.02-12.49c1.83-2.75,3.22-4.76,4.08-5.98c0.99-0.04,1.95-0.11,2.88-0.22
					l0.83,0.5c0,0-2.12,2.7-5.71,7.81h-0.01c-5.36,7.62-14,20.61-23.77,38.06c-0.01,0.01-0.01,0.01-0.01,0.01
					c-0.43,0.77-0.86,1.54-1.3,2.33c-5.16,9.35-10.63,19.92-16.07,31.58c-0.24,0.5-0.47,1.01-0.71,1.53
					c-5.48,11.85-10.94,24.81-16.04,38.73l-0.1-0.04c2.38-6.37,4.29-13.55,5.86-20.74c0.01,0,0.01-0.01,0.01-0.02
					c5.86-13.75,11.89-26.46,17.73-37.88C303.39,886.83,304.66,884.39,305.91,882.02z"/>
				<path class="st3" d="M312.75,873.83c0.66-0.68,27.17-27.71,53.45,1.11c0,0-25.23,31.55-54.76,1.23c0.44-0.79,0.87-1.56,1.3-2.33
					C312.74,873.84,312.74,873.84,312.75,873.83z"/>
				<path class="st3" d="M314.06,788.47c12.72,12.73,15.49,28.11,15.24,39.79c-0.2,9.95-2.58,17.21-2.87,17.89
					c-0.01,0.03-0.02,0.04-0.02,0.05c-2.62,4.21-5.53,9.02-8.64,14.4c-18.43-22-15.26-44.68-10.3-58.6
					C310.44,793.66,314.06,788.47,314.06,788.47z"/>
				<path class="st3" d="M295.37,907.75c0,0,26.9-28.94,54.33,0.55c0,0-24.32,31.31-55.04,0.98
					C294.9,908.76,295.13,908.25,295.37,907.75z"/>
				<path class="st3" d="M272.4,828.72c33.93,10.18,33.98,45.13,33.51,53.29c0,0.01,0,0.01,0,0.01c-1.25,2.37-2.52,4.81-3.79,7.31
					c-3.68-1.77-6.94-3.73-9.81-5.83c2.54-9.9-0.45-11.65-0.45-11.65c-0.73,2.18-2.16,4.8-4.14,7.9
					c-12.38-11.33-15.81-25.48-16.37-36C270.88,834.97,272.4,828.72,272.4,828.72z"/>
				<path class="st3" d="M278.36,948.72c0,0,16.27-18.29,34.49,0.88c0,0-16.38,20.06-35.44,1.75
					C277.73,950.47,278.05,949.59,278.36,948.72z"/>
				<path class="st19" d="M291.86,871.85c0,0,2.99,1.75,0.45,11.65c-1.65-1.21-3.18-2.46-4.59-3.75
					C289.7,876.65,291.13,874.03,291.86,871.85z"/>
				<path class="st19" d="M292.31,883.5c-0.13,0.53-0.28,1.08-0.45,1.65c-1.7,5.79-3.51,23.97-7.47,42.06c0,0.01,0,0.02-0.01,0.02
					c-0.27,0.63-0.54,1.27-0.81,1.91c0.09-0.79,1.8-16.02-14.9-21.66c7.79-11.83,14.72-20.94,19.05-27.73
					C289.13,881.04,290.66,882.29,292.31,883.5z"/>
				<path class="st3" d="M275.2,950.18c2.2-5.89,4.47-11.63,6.78-17.21c0.52-1.28,1.05-2.55,1.58-3.8c0,0,0-0.01,0.01-0.03
					c0.27-0.64,0.54-1.28,0.81-1.91c-1.57,7.19-3.48,14.37-5.86,20.74c-2.21,5.92-4.83,11.14-7.96,15.06
					c0.85-2.46,1.72-4.89,2.59-7.3C273.82,953.86,274.5,952.01,275.2,950.18z"/>
				<path class="st3" d="M268.67,907.48c16.7,5.64,14.99,20.87,14.9,21.66c-0.01,0.02-0.01,0.03-0.01,0.03
					c-0.53,1.25-1.06,2.52-1.58,3.8h-0.01c-15.69-8.04-13.76-23.29-13.43-25.3C268.58,907.61,268.63,907.54,268.67,907.48z"/>
				<path class="st19" d="M281.97,932.97h0.01c-2.31,5.58-4.58,11.32-6.78,17.21c-0.1-3.37-1.48-15.05-15.44-19.15
					c0,0-1.71,17.99,13.39,24.7c-0.87,2.41-1.74,4.84-2.59,7.3c0,0,0.01,0.01,0,0.01c-1.65,2.07-3.45,3.78-5.4,5.02
					c-19.61,12.47-28.17,12.89-28.17,12.89s10.78-39.51,24.92-62.8c2.25-3.71,4.47-7.2,6.63-10.48
					C268.21,909.68,266.28,924.93,281.97,932.97z"/>
				<path class="st3" d="M278.62,948.01c-0.08,0.23-0.17,0.47-0.26,0.71c-0.31,0.87-0.63,1.75-0.95,2.63
					c-11.25,31.41-20.61,67.56-24.57,106.95l-4.46,0.16c0.25-2.27,0.53-4.54,0.82-6.8c4.06-31.34,11.91-61.32,21.36-88.62
					c0.01,0,0-0.01,0-0.01c3.13-3.92,5.75-9.14,7.96-15.06L278.62,948.01z"/>
				<path class="st3" d="M275.2,950.18c-0.7,1.83-1.38,3.68-2.05,5.55c-15.1-6.71-13.39-24.7-13.39-24.7
					C273.72,935.13,275.1,946.81,275.2,950.18z"/>
				<path class="st19" d="M259.67,844.35c0.64,12.9,0.39,30.33-3.62,45.81c-7.54,29.08-27.66,51.21-27.66,51.21
					c-0.2-0.75-0.41-1.49-0.61-2.22l0.61-0.17c0,0,5.76-42.72,8.64-59.59c2.87-16.88,20.82-54.22,20.82-54.22
					S259.1,833.02,259.67,844.35z"/>
				<path class="st19" d="M225.69,940.45c-0.16-0.62-0.32-1.23-0.49-1.84c-3.21-11.89-7.07-23.44-11.69-33.88l2.16-0.95
					c0,0,5.81,12.62,12.11,35.37c0.2,0.73,0.41,1.47,0.61,2.22c2.98,11.04,6.03,24.32,8.6,39.58c3.37,20.08,5.89,43.59,6.28,69.92
					h-2.14c0,0-1.23-43.95-10.63-89.78C229.09,954.2,227.5,947.27,225.69,940.45z"/>
				<path class="st19" d="M226.17,961.95c0.92,21.51-41.8,13.2-62.29,3.45c-20.39-9.71-45.55-22.92-46.33-23.33
					c0.65,0.1,15.72,2.55,53.7,4.8c12.14,0.72,22.02,2.09,29.89,3.73c17.3,3.61,24.81,8.53,24.99,10.65
					C226.15,961.48,226.17,961.72,226.17,961.95z"/>
				<path class="st19" d="M225.2,938.61c0.17,0.61,0.33,1.22,0.49,1.84c-3.76,0.29-12.58,0.73-23.59-0.31
					c-9.68-0.9-21.07-2.95-32.18-7.24c-28.03-10.82-53.85-36.41-53.85-36.41s40.8,7.17,56.18,14.67
					C186.59,918.15,220.63,936.19,225.2,938.61z"/>
				<path class="st19" d="M224.82,833.79c6.82,21.9,8.97,66.06-12.93,61.03c-3.01-0.69-9.69-17.59-6.46-56.36
					c3.23-38.78,2.85-53.85,2.85-53.85S218,811.89,224.82,833.79z"/>
				<path class="st19" d="M163.19,865.64c26.93,13.32,50.32,41.16,50.32,41.16s-39.98-10.86-54.62-19.72
					c-14.64-8.87-50.72-32.47-50.72-32.47l0.01-1.56C115.06,853.13,140.21,854.26,163.19,865.64z"/>
				<path class="st19" d="M186.05,809.38c15.79,26.92,12.2,56.72,12.2,56.72c-39.13-39.49-53.13-104.47-53.13-104.47
					C156.61,775.99,170.25,782.45,186.05,809.38z"/>
			</g>
			<g>
			</g>
		</g>
	</g>
</g>
<g id="Layer_2">
</g>
</svg>
