<svg id="Layer_1" data-name="Layer 1" xmlns="http://www.w3.org/2000/svg" viewBox="0 0 3000 2000"><defs><style>.cls-1{fill:#fff;}.cls-2{fill:#ebf3fa;}.cls-3{fill:#e58435;}.cls-4{fill:#f1a34f;}.cls-5{fill:#ce732e;}.cls-6{fill:#efcbab;opacity:0.5;}.cls-7{fill:#eb9342;}.cls-8{fill:#b5453c;}.cls-9{fill:#2b478b;}.cls-10{fill:#233862;}.cls-11{fill:#ed985f;}.cls-12{fill:#ffb27d;}.cls-13{fill:#d8d28d;}.cls-14{fill:#fffaa6;}.cls-15{fill:#2b32b2;}.cls-16{fill:#e69d43;}.cls-17{fill:#e78b37;}.cls-18{fill:#d57912;}.cls-19{fill:#c1bb84;}.cls-20{fill:#b65615;}.cls-21{fill:#dce7f9;}.cls-22{fill:#202a84;}.cls-23{fill:#ffb07b;}.cls-24{fill:#ea8e50;}.cls-25{fill:#f4b831;}.cls-26{fill:#2c3a64;}.cls-27{fill:#682c03;}.cls-28{fill:#4c2104;}.cls-29{fill:#020202;}.cls-30{fill:#86d1cd;}.cls-31{fill:#2e3552;}</style></defs><title>moving</title><rect class="cls-1" width="3000" height="2000"/><path class="cls-2" d="M298.37,1567.64s-363.62-295.3-151.14-628.7C284.34,723.8,699,706.4,919.13,837.75c93.76,55.94,323.08,239,512.53-179.56,221.44-489.29,1508.81-134.84,1264.45,391.07-149.33,321.38,424.11,228.5,149.46,518.38Z"/><rect class="cls-3" x="2282.52" y="1296.37" width="183.79" height="274.28"/><rect class="cls-4" x="2256.92" y="1296.37" width="183.79" height="274.28"/><polygon class="cls-5" points="2440.71 1312.28 2449.52 1325.98 2466.31 1325.98 2466.31 1296.37 2440.71 1296.37 2440.71 1312.28"/><polygon class="cls-4" points="2466.31 1296.37 2482.01 1317.97 2456.41 1317.97 2440.71 1296.37 2466.31 1296.37"/><polygon class="cls-6" points="2440.71 1308.87 2440.71 1571.52 2345.92 1571.52 2345.92 1317.97 2440.71 1308.87"/><polygon class="cls-7" points="2256.92 1317.97 2271.83 1325.98 2431.85 1325.98 2440.71 1312.28 2440.71 1296.37 2256.92 1317.97"/><polygon class="cls-4" points="2256.92 1296.37 2440.71 1296.37 2427.73 1317.97 2243.94 1317.97 2256.92 1296.37"/><path class="cls-8" d="M2567.57,1307.25c6.76-3.4,12.3-15.82,11.71-18a17.13,17.13,0,0,0-.89-2l-32.14-13.6s3.45-20.09,13.73-22.83c.29-3.91,2.36-12.41,14.69-12.41,0,0-4.86,1.32-7.37,4,0,0,10.22-6,21.35,3.22s4.21,32.35,7.59,36.74,16.56,5.27,14.95,19.47-41.81,32-39.23,43.73c0,0-14.76-21.69-5.49-32.67-1.61,1.82-4.64,5.78-5,10.26C2561.42,1323.1,2559.93,1311.09,2567.57,1307.25Zm-.1,4.52-.27.26Z"/><path class="cls-9" d="M2605,1562.91l8-1.17s26.79-21.29,30.78-61a71,71,0,0,0,.19-12.28,2.15,2.15,0,0,1,.28-1.36h0c.86-1.31,3-4.61,5.88-9.29s7.72-13.34,13.09-23.13c9.66-17.63,20.91-38.71,24.77-45.43,12.29-21.4,6.37-35.79,6.37-35.79s-34.29-3.39-43.69-11.61l-3.38,5.22s-7.43,32.89-7.08,33l-1.12,3.42c-5.86,18.1-12.61,40.72-16.29,59.14-2.07,10.37-3.16,19.4-2.57,25.55a44.85,44.85,0,0,1-.61,9.36C2616.25,1521.15,2605,1562.91,2605,1562.91Z"/><path class="cls-10" d="M2588.26,1573h33.25s.8-5.07-.94-8.91c-1.66-3.69-4-3.81-.3-9.59-2.11,2.17-8.9,3.08-13.71,2.43-.59,1-3.8,7.36-5.76,8.77C2598.62,1567.25,2588.93,1566.7,2588.26,1573Z"/><path class="cls-10" d="M2639,1403.49c2.9,16,9.76,42.67,24.13,51.16,9.66-17.63,20.91-38.71,24.77-45.43,12.29-21.4,6.37-35.79,6.37-35.79s-34.29-3.39-43.69-11.61l-3.38,5.22s-7.43,32.89-7.08,33Z"/><path class="cls-9" d="M2662.35,1375.9l-.11-6.22c12.39,1.56,42.71-14.8,42.71-14.8s13,8.62,14.73,33.24c.87,12,6.34,62.83,7,78,.22,5.5.29,9.42.32,11a0,0,0,0,0,0,0,2.16,2.16,0,0,0,.53,1.28,70.92,70.92,0,0,1,6.71,10.29c18.9,35.17,9,83,9,83l-4.39-1.12s-16-49.54-26.43-71a44.81,44.81,0,0,0-4.73-8.1c-3.93-4.77-8.07-12.87-12.15-22.62-7.72-18.43-15.21-42.76-20.55-61.59C2674.58,1407.32,2662.35,1375.9,2662.35,1375.9Z"/><path class="cls-11" d="M2490.33,1405.55c.88-.4,9,1.56,9,1.56a61.65,61.65,0,0,0,11-5.56c12-7.63,29.84-20.39,32.95-22,5.34-2.79,21.63-39.45,33.09-59.48,6-10.55,21.85-9.27,25.78,2.23a12.89,12.89,0,0,1,.47,6.73c-2.6,13.36-40.2,59-44.68,62.76-8.17,6.88-50.79,18.33-50.79,18.33-1,.29-1.36,1.75-1.88,2.28a5,5,0,0,1-2.1,1.44h0s-5.27.33-6.82,1l-1.62.58s-.62-1.1.9-1.83a10.82,10.82,0,0,0,1.69-1l-2.22-.49a3,3,0,0,1-.57-.18,16.56,16.56,0,0,0-3.75-1.52,32.06,32.06,0,0,0-3.94-.2c-1.08-.08-5.93-1.25-5.93-1.25C2480.75,1408.42,2488.77,1406.26,2490.33,1405.55Z"/><path class="cls-12" d="M2589.86,1334.4c20.25-4.65,7.31-33.11,6.14-32.6-2.81-.57-9-5.5-14.48-15.12l-.75.65-12.44,10.91s2.88,4.24,5.29,8.4c1.89,3.25,3.5,6.46,3.24,7.56C2575.86,1315,2584.45,1335.64,2589.86,1334.4Z"/><path class="cls-13" d="M2577.72,1311.17s-4.24,11.29-7.41,16.82-12,23.4-12,23.4,7.15,13,20.61,15.36c0,0,9.64-9.62,9.36-20.3S2577.72,1311.17,2577.72,1311.17Z"/><path class="cls-11" d="M2568.33,1298.22s2.88,4.24,5.29,8.4c7.73-4.77,7.74-14.34,7.15-19.3Z"/><path class="cls-12" d="M2568,1303.69s18.78-10.45,12.09-22-8.77-20.75-21-14.57-12,11.94-10.74,16.35S2562.93,1306.11,2568,1303.69Z"/><path class="cls-8" d="M2545.13,1276.66c.86-5.15,3.48-5.64,5.3-5.3,6.93-11.47,22.88-9.64,22.88-9.64a125.08,125.08,0,0,0,10.18,11.53s-2.18,4.05-11.16,6.56a15.35,15.35,0,0,1-8.86-.71,50.12,50.12,0,0,0,12.74,4.8c-11.83,1.08-23.09-9.73-24.26-10.89-.55,1.68-1.5,5.19-.93,7.75.78,3.49,3.87,9.8,2,10.62C2553,1291.4,2543.84,1284.38,2545.13,1276.66Z"/><path class="cls-10" d="M2716.78,1573H2750s.8-5.07-.94-8.91c-1.66-3.69-4.27-5.37-3.65-9.83a12,12,0,0,1-10.36,4c-.59,1-3.8,6.06-5.77,7.48C2727.13,1567.25,2717.45,1566.7,2716.78,1573Z"/><path class="cls-14" d="M2587.47,1357c4.28,1.49,10.28,2.31,16.42,3,8.74,1,17.77,1.61,22.5,3.49a30,30,0,0,1,6.31,3.44h0l.19.14a20.3,20.3,0,0,1,2.61,2.25,14.25,14.25,0,0,1,3.05,4.53c1.73,4.28-.56,16.16-2,22.65a5.9,5.9,0,0,0,3,6.54q5,2.58,9.8,4.76l.51.23c0-.66,0-1.32,0-2a60.5,60.5,0,0,1,.56-8.21c.79,4.52,3.77,9.4,6.54,13.16,44.61,17.9,75.79,10.12,75.27,1.2-1.76-31-22.64-57.3-22.64-57.3-38.94-45.29-117.72-57.21-117.72-57.21s-3.77-.45-8.32,5c-6.55,7.88-6.87,9.93-6.87,9.93S2574.88,1352.57,2587.47,1357Z"/><path class="cls-13" d="M2603.9,1359.94c8.74,1,17.77,1.61,22.49,3.49a92.18,92.18,0,0,0-11.69-50.59S2605.81,1349,2603.9,1359.94Z"/><path class="cls-13" d="M2636.5,1396.44a5.9,5.9,0,0,0,3,6.54q5,2.58,9.8,4.76c.17-.55.33-1.12.46-1.73a30.11,30.11,0,0,0,.56-8.21c-.74-13.71-10.08-24.08-14.86-28.54a14.25,14.25,0,0,1,3.05,4.53C2640.27,1378.08,2638,1390,2636.5,1396.44Z"/><path class="cls-14" d="M2591.81,1297.67s-3.43-4.34-5.75-4.2c0,0-9.37,13.12-9.45,19.15C2576.61,1312.62,2588.31,1297.06,2591.81,1297.67Z"/><path class="cls-12" d="M2540.91,1456.71c.41-1.16,2.92-9.29,5.61-10.18s6.06-4.39,6.06-4.39,21.42-43.78,24.93-48c5.52-6.62,5.44-82.15,12.45-87.65,0,0,22,.44,24.88,14.49s-15.27,73.65-18.11,79.14c-5.16,10-37.43,45.4-37.43,45.4-3.78,5.9-2.42,6-3.82,11.55s-10.15,8.43-11.64,8.72-.44-2.4,1.41-5.48,2-8.38,1.63-8.76-1.19.43-2.29,2.44S2540.5,1457.88,2540.91,1456.71Z"/><path class="cls-14" d="M2580.92,1334.49s-5.12-36.42,23.58-29.77,1.31,72.13,1.31,72.13-16.5.48-23.46-13.4Z"/><polygon class="cls-15" points="1704.65 838.34 965.24 838.34 965.24 1400.04 1705.14 1400.04 1704.65 838.34"/><polygon points="1677.41 857.57 847.75 857.57 847.75 1400.04 1677.53 1400.04 1677.41 857.57"/><rect class="cls-16" x="1275.3" y="1296.39" width="102.24" height="103.66" transform="translate(2652.84 2696.43) rotate(180)"/><polygon class="cls-17" points="1275.3 1400.04 1377.54 1400.04 1377.54 1296.39 1354.64 1296.39 1275.3 1400.04"/><rect class="cls-18" x="1373.28" y="1296.39" width="61.88" height="103.66" transform="translate(2808.45 2696.43) rotate(180)"/><rect class="cls-16" x="1269.87" y="1166.15" width="169.54" height="131.66" transform="translate(2709.29 2463.95) rotate(180)"/><polygon class="cls-17" points="1269.87 1297.81 1439.42 1297.81 1439.42 1166.15 1407.61 1166.15 1269.87 1297.81"/><rect class="cls-18" x="1435.16" y="1166.15" width="46.81" height="131.66" transform="translate(2917.13 2463.95) rotate(180)"/><rect class="cls-19" x="328.41" y="1333.86" width="237.61" height="105.39" rx="9.65" ry="9.65"/><circle cx="1248.93" cy="1474.06" r="95.25"/><circle cx="1566.83" cy="1474.06" r="95.25"/><circle cx="407.75" cy="1474.06" r="95.25"/><circle class="cls-14" cx="407.75" cy="1474.06" r="48.07"/><path class="cls-13" d="M439.75,1438.2a48.07,48.07,0,0,1-75.86,55.55,48.07,48.07,0,1,0,75.86-55.55Z"/><circle class="cls-13" cx="407.75" cy="1474.06" r="14.9"/><circle class="cls-13" cx="382.39" cy="1499.6" r="5.77"/><circle class="cls-13" cx="375.66" cy="1456.75" r="5.77"/><circle class="cls-13" cx="439.12" cy="1456.75" r="5.77"/><circle class="cls-13" cx="434.31" cy="1499.6" r="5.77"/><circle class="cls-13" cx="407.75" cy="1437.33" r="5.77"/><circle class="cls-14" cx="1247.15" cy="1474.06" r="48.07"/><circle class="cls-13" cx="1247.15" cy="1474.06" r="14.9"/><circle class="cls-13" cx="1221.79" cy="1499.6" r="5.77"/><circle class="cls-13" cx="1219.63" cy="1456.75" r="5.77"/><circle class="cls-13" cx="1273.71" cy="1499.6" r="5.77"/><circle class="cls-20" cx="1217.6" cy="1437.33" r="5.77"/><circle cx="726.74" cy="1474.06" r="95.25"/><path class="cls-13" d="M406.69,959.76s14.43-78.6,123.49-78.6l1.6,84.35Z"/><path class="cls-14" d="M711.16,1315.91H297.5l34.43-279.41A90.62,90.62,0,0,1,421.87,957H711.16Z"/><path class="cls-13" d="M470.7,1145.11h-116l15.37-110.33a46,46,0,0,1,45.53-39.63h58.69Z"/><path class="cls-21" d="M462.12,1136.81H385.75a19.06,19.06,0,0,1-18.9-21.57L377,1038.9c2.68-20.16,19.11-35.17,38.52-35.17h49.65Z"/><rect class="cls-15" x="526.52" y="838.34" width="795.64" height="561.7"/><polygon class="cls-22" points="1291.01 1378.74 555.73 1378.74 555.73 859.65 1291.97 859.65 1291.97 1279.31 1291.01 1378.74"/><path class="cls-13" d="M549.9,1315.91H297.5c-22.23,1.48-24.38,12.47-24.38,12.47l-21.58,104.39c0,3.57,3.28,6.48,7.29,6.48h63.46c4,0,6.9-2.94,8.61-6.65,0,0,9.76-12.06,16.32-16.38,16.41-10.82,34.22-17.91,60.53-17.91,32.35,0,60.93,10.29,78.15,26h64c7.73,0,14-4,14-9v-90.5C564,1319.94,557.63,1315.91,549.9,1315.91Z"/><path class="cls-15" d="M1391.86,1520.83h-80a74.29,74.29,0,0,0-10-25.76c-24.18-38.76-80.74-50.61-113-54.23a235.12,235.12,0,0,0-23.57-1.6h137.5c36,4.88,58.05,24.49,71.22,43.27A117.47,117.47,0,0,1,1391.86,1520.83Z"/><path class="cls-15" d="M1708.5,1520.83h-80a74.29,74.29,0,0,0-12-28.82c-36.53-52.69-134.5-52.76-134.5-52.76h137.51c30.08,4.08,50.44,18.46,64,34A118.85,118.85,0,0,1,1708.5,1520.83Z"/><path class="cls-22" d="M1374.05,1482.52s-52.65-11.11-72.21,12.55c-24.18-38.76-80.74-50.61-113-54.23l-1.94-1.6h115.88C1338.8,1444.13,1360.89,1463.74,1374.05,1482.52Z"/><path class="cls-22" d="M1683.49,1473.3h0s-44-1-67,18.71c-36.53-52.69-134.5-52.76-134.5-52.76h137.51C1649.56,1443.33,1669.92,1457.72,1683.49,1473.3Z"/><rect class="cls-22" x="533.84" y="1400.04" width="1194.42" height="54.48" rx="10.71" ry="10.71"/><rect class="cls-22" x="584.38" y="1413.73" width="237.61" height="120.66" rx="10.32" ry="10.32"/><path class="cls-15" d="M1292,1378.74H556.69l-1-519.09H717.91c40.21,118.58,184.44,399.86,574.06,420.92Z"/><path class="cls-19" d="M305,1091s-10.34,55.57-9.83,64.63,9.07,13.48,15.57,13.48Z"/><rect class="cls-13" x="304.61" y="1086.4" width="38.5" height="82.75" rx="6.68" ry="6.68"/><rect class="cls-21" x="308.89" y="1091.03" width="31.31" height="74.09" rx="5.7" ry="5.7"/><path class="cls-13" d="M323.86,1087.91a1.41,1.41,0,0,1-1.28-1.51V1063a1.84,1.84,0,0,1,0-.19c0-.13,1.6-13.43,15.59-13,12.8.4,18.31,0,18.36,0a1.37,1.37,0,0,1,1.36,1.41,1.44,1.44,0,0,1-1.2,1.6c-.23,0-5.68.4-18.59,0-11.27-.34-12.83,9.2-13,10.27v23.25A1.41,1.41,0,0,1,323.86,1087.91Z"/><path class="cls-13" d="M460,1181.07H436.55a6,6,0,0,1-6-6h0a6,6,0,0,1,6-6H460a6,6,0,0,1,6,6h0A6,6,0,0,1,460,1181.07Z"/><rect class="cls-16" x="1407.61" y="1297.1" width="102.24" height="102.24" transform="translate(2917.45 2696.43) rotate(180)"/><polygon class="cls-17" points="1407.61 1400.04 1509.84 1400.04 1509.84 1297.1 1488.11 1297.1 1407.61 1376.79 1407.61 1400.04"/><rect class="cls-18" x="1505.59" y="1297.1" width="46.81" height="102.95" transform="translate(3057.98 2697.14) rotate(180)"/><path class="cls-13" d="M1879.17,1320.79c2-4.31.92-6.61.92-6.61s-46-17.07-50.49-18.21c-3-.78-37.55-15.14-54.83-25.19-8.57-5-15.22.38-23.06,5.86l-6.45,4.51c-7.79,5.45-5.89,18.31,3.22,21.75,25.66,9.68,65.28,16.88,72.84,18.65,18.77,4.41,52.94,5.56,52.94,5.56A20.25,20.25,0,0,0,1879.17,1320.79Z"/><path class="cls-12" d="M2020.94,1320.19l-6.17.35s-10.93-4.17-16.65,7.18c0,0-2,4.86,1.79,5.09s2.37-.41,7.72,0,10.42-1.61,12.16-5.14l3.38-2.87Z"/><path class="cls-13" d="M2016.41,1324.6c-1.32-4.25-1-4.92-1-4.92s37.73-20.28,41.18-22.34,42.49-43.4,42.49-43.4l39.86,11.07s-61.83,46.87-70.69,51.91c-14.64,8.33-48.5,13-48.5,13A12.39,12.39,0,0,1,2016.41,1324.6Z"/><path class="cls-18" d="M2059.81,1352.07l-156.16,33.24-36.19-170L2023.62,1182Z"/><path class="cls-16" d="M1993.28,1366.23,1879,1390.56l-36.19-170,114.27-24.32Z"/><path class="cls-17" d="M1993.28,1366.23,1879,1390.56l-7-32.88,66.15-157.45,18.92-4Z"/><path class="cls-10" d="M1912.2,1544.46s6.08,6.71,20.21,3.06c0,0,11.39-2.59,13.88,3.08,0,0-14.33,9.07-18.75,11.49a52.87,52.87,0,0,0-9.26,6.95,4.58,4.58,0,0,1-6.63-.51c-.77-.95-1.65-2.07-2.61-3.37-2.69-3.65-9-15.44-9-15.44Z"/><path class="cls-9" d="M1917.61,1541s-5.61,12.94-18.57,10.56c0,0-26.44-21.83-44.57-44.51-5.89-7.37-10.9-14.82-13.85-21.64-12-27.84-44.48-69.37-65.12-90.41l51.63-18.68s16.54,33.27,38.54,74.13C1881.53,1479.84,1900.22,1513.22,1917.61,1541Z"/><path class="cls-10" d="M1865.67,1450.4l-11.2,56.61c-5.89-7.37-10.9-14.82-13.85-21.64-12-27.84-44.48-69.37-65.12-90.41l51.63-18.68S1843.67,1409.54,1865.67,1450.4Z"/><path class="cls-10" d="M1823.47,1552s-.56,10.33,12,11.7c0,0,7.55.15,7.57,6.73h-36.78a28.27,28.27,0,0,1-1.31-8.33c-.2-4.36,4.23-15.76,4.23-15.76Z"/><path class="cls-9" d="M1810.2,1376.27s23,25.27,37.6,70.8c7.94,24.77-14.56,87.06-18.95,108.7,0,0-15.1,1.28-25.42-2.71,0,0-.78-44.7,5.25-79.15,3.38-19.28-30.28-41.23-45-76.07-10-23.7,2.17-23.3,17.13-23.87Z"/><path class="cls-23" d="M1783.64,1263.51c-12.8,7.23-39,.56-39,.56s10.64-12.16,5.8-31.75l10,5.1,10.79,5.48a89.49,89.49,0,0,1,1.18,9.67c.12,1.6.23,3.39.31,5.34A33.56,33.56,0,0,1,1783.64,1263.51Z"/><path class="cls-14" d="M1830.57,1375c0,2.25-2.59,3.33-3.14,3.44-5.16.94-19.57,6.55-32.56,7.84-10.93,1.14-21.08.06-32.23-2.18-1.48-.3-4.94-1.23-5.19-2.65s-43-87-9.81-123.78c.78-.86,7.33.69,13.32,2.11a24.6,24.6,0,0,0,15.14-1.24l5.62,3c6.9,3.85,20,17.51,21.49,28.23.78,5.45,3.89,9.49,4.8,14.28q.5,2.66,1,5.2,1,5,2.1,9.46c2,8.11,4,15.09,6,21.12,2.15,6.4,4.27,11.73,6.15,16.18,2.45,5.78,4.52,10.09,5.81,13.4A16.5,16.5,0,0,1,1830.57,1375Z"/><path class="cls-13" d="M1829.13,1369.33c-60.28-28.4-81.15-82.93-81.15-82.93s48.54,16,60.63,20.66c.68,3.31,1.81,8.57,2.53,11.57,2,8.11,4,15.09,6,21.12,2.15,6.4,4.27,11.73,6.15,16.18C1825.77,1361.71,1827.84,1366,1829.13,1369.33Z"/><path class="cls-23" d="M1850.7,1230.88l1.15-5.43s-8.78-9.28,2.17-17.41c0,0,4.85-3.07,6.51.45s.4,2.33,2.87,7.26,2,10.2-1.46,12.69l-2.07,3.87Z"/><path class="cls-24" d="M1772.48,1252.58c-12.58.71-20.77-9.68-20.77-9.68a99.87,99.87,0,0,0,8.79-5.47l10.79,5.48A89.49,89.49,0,0,1,1772.48,1252.58Z"/><path class="cls-23" d="M1777.84,1239.66s-19.07,13.68-27.41,1.68-16.41-18.32-4.59-27.57,17.39-6.32,21.15-3S1782.58,1235.79,1777.84,1239.66Z"/><path class="cls-25" d="M1769,1199.94a30.75,30.75,0,0,0-2.22-7.86s-1.2,5-10.25,4.27-23.41.89-28.2,11.21a21.79,21.79,0,0,0-.82,2,23.89,23.89,0,0,1-1.08-5.72c-1.72,4.44,0,10,0,10h0c0,.16,0,.33-.07.49-2,1.69-3.68,6.94-3.68,6.94a6.29,6.29,0,0,1,3.39-3c0,8,3.22,15.88,8.93,18.22,8.36,3.42,8.29.81,16.7,6.39,0,0,2.26-2.8.72-4.68s-7.35-4.62-4.1-7.35,4.44.34,5.64-1.54-4.79-7.35,2.91-12.48S1769.69,1204.55,1769,1199.94Z"/><path class="cls-26" d="M2216.83,1540.22s6.41,5.95,5.16,10.17-7,7-7.82,12.2-3.91,8-6.73,8H2194s-2.07-3.63,2.93-4.73,6.89-7.16,6.58-12.8a100.69,100.69,0,0,1,.47-13.14l10.64-2.5Z"/><path class="cls-26" d="M2136.87,1570.36a3.12,3.12,0,0,1-.76.22h-35.6c.29-1.25,1.4-3.75,5.69-4.44,5.61-.91,15.33-4.17,17.5-11.34q.1-.34.18-.71c1.72-7.67,14.24,2.35,14.24,2.35s0,.3.09.82C2138.5,1560.07,2139.25,1569.17,2136.87,1570.36Z"/><path class="cls-9" d="M2107.69,1365.28s1.9,23.72,4.14,52.23c3,38.73,6.69,86.31,7.05,95.32.62,15.65,3.13,40.68,3.13,40.68s5.94,5.95,17.84,3.44c0,0,10.6-35.74,13.63-73.55l.14-1.87c2.82-38.49,7.2-119.55,7.2-119.55Z"/><path class="cls-10" d="M2107.69,1365.28s1.9,23.72,4.14,52.23l41.65,65.9.14-1.87c2.82-38.49,7.2-119.55,7.2-119.55Z"/><path class="cls-9" d="M2116.37,1368.1s34.27,85.9,56.8,126.28,29.57,51.64,29.57,51.64,12.91-5.16,14.08-8.68c0,0-8.62-77.94-23.71-96.94-8.53-10.74-18.54-43-19-54.22s-3.05-33.56-3.05-33.56Z"/><path class="cls-27" d="M2119.91,1229.56s-17.09,22.55-31.06,23.94c0,0,1.65-8.12,5.69-13.28-1.14-1.77-2.13-3.39-3-4.84a82.55,82.55,0,0,1-4.1-7.71l6.24-11.75,4.23-8a40.74,40.74,0,0,0,3.94,7.67C2109.39,1227,2119.91,1229.56,2119.91,1229.56Z"/><path class="cls-28" d="M2101.87,1215.61s0,12.44-10.32,19.77a82.55,82.55,0,0,1-4.1-7.71l6.24-11.75A26.49,26.49,0,0,1,2101.87,1215.61Z"/><path class="cls-27" d="M2083.56,1229s21.78-5.33,18.25-18.84-3.09-23.3-17.15-20.47-15.4,8.69-15.32,13.49S2077.8,1230,2083.56,1229Z"/><path class="cls-14" d="M2174.5,1364.15c-9.95,10.9-74.54,18.67-72.69,10.45a91.09,91.09,0,0,0,2.17-16.4q.12-2.7.09-5.75c-.14-11.13-2-25.68-8.3-43.05-.47-1.3-1-2.62-1.48-4a128.34,128.34,0,0,1-6.08-20.61c-2.67-13.08-2.83-25.28.39-32.81,0,0,4.21-12.07,4.23-12.11,13.86-4.31,17.84-15,17.84-15s43.49,13.9,60.56,76.59C2171.23,1301.46,2183.16,1354.66,2174.5,1364.15Z"/><path class="cls-13" d="M2104,1358.2q.12-2.7.09-5.75c-.14-11.13-2-25.68-8.3-43.05,2.6-8.56,5.56-15.57,8.18-18.56,10.65-12.14,16.1-13.53,16.1-13.53S2125.92,1335.26,2104,1358.2Z"/><path class="cls-29" d="M2107.94,1186.72c.18-.27.65-.52,1.72-.7a4.35,4.35,0,0,0-2.08-.35c-.39-1.5-1.49-4.1-4.13-4.47a3.3,3.3,0,0,1,1.83,2.19c-3.33-2.78-10-4.35-27.52-1-23.13,4.44-13.77,18.77-10.55,20.25s10.28-4.32,16-4.49,7.66,8,9.69,8.9,1.06-1,3.52-2.47,3.18,2.85,2.74,5.76,3.53,6.25,3.53,6.25l3.16-4.32c3.16-4.32,4.71-21.31,2.68-24.68Z"/><path class="cls-27" d="M2044.13,1345.17s-7.84.43-9.52,1-7,4.75-6.93,5.25.45.83,1.5.61,4.34-1.59,4.24-1.12-9.39,5.11-8.95,7.11,6.83,4.19,11.44,3.19,14-8.11,14.57-8.62S2044.13,1345.17,2044.13,1345.17Z"/><path class="cls-14" d="M2044.62,1349.17c-2.91-3.73-1.31-5.75-1.31-5.75s35-34,37.65-37.32,11.38-52.91,11.38-52.91,5-11.93,15.92-15.27c9.51-2.9,14.45-6.86,19.44-1.7a20.83,20.83,0,0,1,3.9,23.14c-8,17.47-24.16,52.18-29.31,58.37-9.94,11.94-41.68,31.11-49.92,36a3.21,3.21,0,0,1-3.78-.38A33.53,33.53,0,0,1,2044.62,1349.17Z"/><path class="cls-14" d="M1863.24,1229.23a9.68,9.68,0,0,0-5.85-3.64l-7.62-1.74s-26.17,43.51-28.33,47.87q-.71,1.44-2.5,4.61a4.06,4.06,0,0,1-4.59,1.93c-10.12-2.72-21.24-6.18-29.53-10a27.76,27.76,0,0,0-28.4,3.06l-6.73,5.09a12.29,12.29,0,0,0,4.16,21.65c23.76,6.52,58.41,10.32,72.91,12,6.57.76,14.54-15.53,18.5-24.71h0C1853.69,1266.26,1863.24,1229.23,1863.24,1229.23Z"/><path class="cls-30" d="M2812.71,1562.11a87.56,87.56,0,0,1-16.1-1.29c6.13-4.51,19-13.85,29.52-20.42,14.31-8.93,22.43-24,2.24-26.54-17.2-2.19-30.72,35.35-34.35,46.51-2.35-.43-4.66-.91-6.89-1.39,2.77-7.94,8.83-24.76,14.57-36.49,7.75-15.84,35.17-42.59,7.75-45.63-24.39-2.72-30.86,64.94-32,80-4.9-1-9.18-1.74-12.57-1.49-7.8.57-15.27,9.07-10.85,12.81h82.34C2833.7,1565.93,2826.81,1561.77,2812.71,1562.11Z"/><path class="cls-30" d="M360.09,1554.11h0c-12.48-30.11-39.37-87.76-59.82-80.95-20.21,6.74,25.23,56.68,50.81,82.75C346,1557,341.4,1558,337.17,1559c-19.72-18-52.28-47.37-55.25-35.27-2.6,10.61,25.34,26.64,46.71,37.2-13.31,2.9-23.38,4.28-35.87,1.44-20.58-4.68-31.09,9.29-31.09,9.29h157S392.85,1547.93,360.09,1554.11Z"/><rect class="cls-31" x="64.1" y="1567.14" width="2871.8" height="7.62" rx="3.25" ry="3.25"/><path class="cls-18" d="M2546.56,1566.3l-159.66,1.15-1.25-173.84,159.66-1.14Z"/><path class="cls-16" d="M2478.54,1566.79l-116.83.84-1.25-173.84,116.83-.84Z"/><path class="cls-17" d="M2478.54,1566.79l-116.83.84-.24-33.62,96.48-140.92,19.35-.14Z"/></svg>