<?xml version="1.0" encoding="utf-8"?>
<!-- Generator: Adobe Illustrator 24.3.0, SVG Export Plug-In . SVG Version: 6.00 Build 0)  -->
<svg version="1.1" xmlns="http://www.w3.org/2000/svg" xmlns:xlink="http://www.w3.org/1999/xlink" x="0px" y="0px"
	 viewBox="0 0 1984.25 1417.32" style="enable-background:new 0 0 1984.25 1417.32;" xml:space="preserve">
<style type="text/css">
	.st0{opacity:0.5;fill:#DAEAF8;}
	.st1{fill:#D3489A;}
	.st2{fill:#FFFFFF;}
	.st3{fill:#E7E8E8;}
	.st4{fill:#4F2A18;}
	.st5{fill:#F4F4F5;}
	.st6{fill:#D6B49D;}
	.st7{fill:#8CB0DD;}
	.st8{fill:#EAAC80;}
	.st9{fill:#FAB27C;}
	.st10{fill:#5A5D5C;}
	.st11{fill:#C5C5C4;}
	.st12{fill:#DAEAF8;}
	.st13{fill:#ACC9EA;}
	.st14{fill:none;stroke:#ACC9EA;stroke-width:2.1905;stroke-miterlimit:10;}
	.st15{fill:#E7E8E8;stroke:#E7E8E8;stroke-width:2;stroke-miterlimit:10;}
	.st16{fill:#99D5C6;}
	.st17{fill:#4FBFA5;}
	.st18{fill:#81C69E;}
	.st19{opacity:0.5;fill:#8CB0DD;}
	.st20{fill:none;stroke:#000000;stroke-width:0.75;stroke-linecap:round;stroke-linejoin:round;stroke-miterlimit:10;}
	.st21{fill:none;stroke:#F9A56C;stroke-width:2;stroke-miterlimit:10;}
	.st22{fill:#C6A894;}
	.st23{fill:#176232;}
	.st24{opacity:0.5;fill:#D6E3EC;}
	.st25{fill:none;stroke:#000000;stroke-miterlimit:10;}
	.st26{fill:#D69E78;}
</style>
<g id="linework">
	<path class="st0" d="M602.09,1161.84c0,0-108.01-52.59-213.22-165.63c-100.46-107.93-183.94-489.5,25.67-595.59
		c151.96-76.91,248.89-228.23,387.14-241.69c197.72-19.25,324.69,124.05,514.98,132.61c264.01,11.87,355.55,207.07,334.16,458.59
		c-21.39,251.52-249.46,411.72-249.46,411.72"/>
	<polygon class="st1" points="1135.47,833.05 1140.77,853.38 1138.29,854.52 1132.12,831.73 	"/>
	<g id="XMLID_1_">
		<g>
			<path class="st2" d="M1255.21,1078.81c1.53,20.38,3.77,53.11,3.77,69.94c0,0-41.49,6.11-71.28,0l-7.59-65.6
				C1180.11,1083.15,1233.11,1081.06,1255.21,1078.81z"/>
			<path class="st3" d="M1253.82,1061c0,0,0.6,7.25,1.39,17.81c-22.1,2.25-75.1,4.34-75.1,4.34l-2.05-17.71
				C1178.06,1065.44,1232.55,1063.22,1253.82,1061z"/>
			<path class="st3" d="M1247.51,842.6l-2.46,0.42c-0.31-0.33-0.63-0.64-0.96-0.94c-2.76-2.48-6.19-4-10.39-4.33
				c0,0-12.95-3.21-26.29,16.38l-1.83-0.2c0.53-0.33,0.82-0.5,0.82-0.5v-28.68C1206.4,824.75,1230.84,825.57,1247.51,842.6z"/>
			<path class="st2" d="M1138.29,981.32c3.73-1.64,7.24-3.25,10.52-4.81c0.47-0.22,0.93-0.44,1.39-0.66
				c2.41-1.16,4.68-2.28,6.81-3.36c0.16,1.87,0.3,2.83,0.3,2.83c0.42-1.22,0.84-2.42,1.26-3.62c11.94-6.09,18.89-10.46,18.89-10.46
				c3.54-46.8,19.58-86.52,19.58-86.52c3.23-8.49,6.65-15.05,10.05-20.13c0.1-0.15,0.21-0.31,0.32-0.46
				c13.34-19.59,26.29-16.38,26.29-16.38c4.2,0.33,7.63,1.85,10.39,4.33c0.33,0.3,0.65,0.61,0.96,0.94
				c0.31,0.32,0.62,0.66,0.91,1.01c23.68,28.5-13.27,143.6-18.16,156.15c-3.45,8.87-40.08,21.29-68.42,29.81
				c-3.49,1.05-6.85,2.04-10.01,2.96c-12.14,3.53-21.29,5.98-23.04,6.56c-5.9,1.96-7.08,0-7.08,0l-0.88-2.14l-2.03-4.92l-1.3-3.15
				v-0.01l-11.52-27.93c-1.19-2.55-1.35-4.14-1.15-5.13c0.26-1.31,1.15-1.56,1.15-1.56c7.13-2.33,13.92-4.81,20.29-7.31
				c0.01,0,0.02-0.01,0.03-0.01c2.94-1.16,5.78-2.32,8.53-3.48l3.74-1.59C1136.84,981.96,1137.57,981.64,1138.29,981.32z"/>
			<path class="st4" d="M1229.62,684.27c1.2,14.71-9.45,24.79-22.17,31.23c-4.62-14.53-20.64-24.3-34.86-26.97
				c-1.21-0.23-2.43-0.42-3.66-0.56h-0.01c-1.26-6.89-2.28-16.51,1.38-22.05c4.76-7.23,18.89-10.21,26.8-10.42
				C1213.39,655.08,1228.27,667.77,1229.62,684.27z"/>
			<path class="st4" d="M1168.93,687.97c1.23,0.14,2.45,0.33,3.66,0.56c14.22,2.67,30.24,12.44,34.86,26.97
				c0.21,0.63,0.39,1.28,0.55,1.93c6.14,25.37,7.52,71.76-15.51,91.73l-7.2-4.28c-1.91-7.28-1.95-10.54-1.95-10.79
				c0-0.01,0-0.01,0-0.01c1.37-4.22,2.53-8.78,3.2-13.46c0,0,1.87,0,4.05-0.77l3.63-2.15c0-0.01,0.01-0.01,0.01-0.02
				c1.47-1.38,2.61-3.42,2.79-6.43c0.55-9.37-13.24-20.95-18.2-8.27c0,0-12.69,5.52-22.06-8.82c-9.38-14.34-24.82-29.78-49.64-24.82
				c0,0-14.46,19.16-2.87,58.31c1.05,3.55,2.19,6.99,3.41,10.29c-19.31-18.66-22.45-48.78-10.31-72.94
				c12.47-24.82,44.06-40.4,71.57-37.03H1168.93z"/>
			<path class="st5" d="M1207.41,854.13c-0.11,0.15-0.22,0.31-0.32,0.46c-3.4,5.08-6.82,11.64-10.05,20.13
				c0,0-16.04,39.72-19.58,86.52c0,0-6.95,4.37-18.89,10.46c15.77-45.54,24.77-78.01,24.77-78.01s-2.31-17.64,4.36-25.37
				c5.63-6.51,15.07-12.64,17.88-14.39L1207.41,854.13z"/>
			<path class="st2" d="M1192.04,824.69c1.6-3.42,3.26-6.89,5-10.41c0,0,7.15,2.75,9.36,10.47v28.68c0,0-0.29,0.17-0.82,0.5
				c-2.81,1.75-12.25,7.88-17.88,14.39c-6.67,7.73-4.36,25.37-4.36,25.37s-9,32.47-24.77,78.01h-0.01c-0.5,0.26-1.02,0.52-1.55,0.79
				C1155.93,959.89,1154.22,905.83,1192.04,824.69z"/>
			<path class="st6" d="M1178.82,762.98c4.96-12.68,18.75-1.1,18.2,8.27c-0.18,3.01-1.32,5.05-2.79,6.43c0,0.01-0.01,0.01-0.01,0.02
				l-3.63,2.15c-2.18,0.77-4.05,0.77-4.05,0.77c-0.67,4.68-1.83,9.24-3.2,13.46c0,0,0,0,0,0.01c-4.27,13.13-10.59,22.94-10.59,22.94
				c-12.18,12.57-22.81,17.52-31.98,16.98c-14.64-0.87-25.55-15.74-33.11-36.07c-1.22-3.3-2.36-6.74-3.41-10.29
				c-11.59-39.15,2.87-58.31,2.87-58.31c24.82-4.96,40.26,10.48,49.64,24.82C1166.13,768.5,1178.82,762.98,1178.82,762.98z"/>
			<path class="st2" d="M1147.53,858.22c0.11,0.5,0.21,1.02,0.31,1.53c-0.01-0.04-0.01-0.07-0.02-0.11
				C1147.73,859.1,1147.63,858.62,1147.53,858.22z M1147.5,858.08c-0.84-4.05-1.86-8.05-2.85-11.58L1147.5,858.08z M1144.58,846.25
				c0-0.01,0-0.01,0-0.01c-1.98-7.04-3.81-12.19-3.81-12.19v-0.04c9.17,0.54,19.8-4.41,31.98-16.98c0,0,6.32-9.81,10.59-22.94
				c0,0.25,0.04,3.51,1.95,10.79l7.2,4.28c-1.5,1.31-3.12,2.5-4.84,3.57c1.13,3.44,2.57,7.42,4.39,11.96
				c-37.82,81.14-36.11,135.2-35.03,147.8c-2.13,1.08-4.4,2.2-6.81,3.36c-0.46,0.22-0.92,0.44-1.39,0.66l-0.42-1.2
				c-2.03-8.5-3.53-16.08-4.6-22.83l-0.83-5.58c0-0.01,0-0.01,0-0.01c-4.37-32.13,1.28-43.32,1.62-45.37
				c0.42-2.57-6.84-6.88-8.86-9.92c-1.12-1.68,1.72-15.42,4.47-27.34c0.01,0,0.01,0,0.01,0c0.15-0.67,0.31-1.33,0.46-1.99v-0.01
				l1.36-5.71C1143.43,850.73,1144.52,846.49,1144.58,846.25z"/>
			<path class="st2" d="M1138.29,981.32c-0.72,0.32-1.45,0.64-2.18,0.96l-3.74,1.59c-2.75,1.16-5.59,2.32-8.53,3.48
				c-0.01,0-0.02,0.01-0.03,0.01c-28.44,7.26-58.45,4.99-58.45,4.99c0.2-1.05,0.38-2.29,0.53-3.67c1.07-9.39,1.19-25.42,1.19-31.66
				c0-1.62-0.01-2.58-0.01-2.58l37.05-3.71c0,0,7.12-22.51,13.4-53.86c6.16-30.82,22.13-32.56,22.67-32.61
				c-2.75,11.92-5.59,25.66-4.47,27.34c2.02,3.04,9.28,7.35,8.86,9.92c-0.34,2.05-5.99,13.24-1.62,45.37c0,0,0,0,0,0.01l0.83,5.58
				c1.07,6.75,2.57,14.33,4.6,22.83l0.42,1.2C1145.53,978.07,1142.02,979.68,1138.29,981.32z"/>
			<path class="st6" d="M1115.04,1029.29v0.01l-18.26,1.39c-0.15-10.74-3.56-24.16-5.39-30.63l10.91-3.84l0.07,0.01
				c-0.2,0.99-0.04,2.58,1.15,5.13L1115.04,1029.29z"/>
			<path class="st7" d="M1096.78,1030.69c0.02,1.34-0.01,2.63-0.1,3.86l-20.57-3.85c0,0-16.25,9.85-30.7,13.99
				c0.34-13.75-0.27-28.01-3.12-42.19c3.79-0.89,7.06-1.48,9.33-1.57c8.97-0.35,12.24,5.75,38.63-4.71c0,0,0.46,1.44,1.14,3.84
				C1093.22,1006.53,1096.63,1019.95,1096.78,1030.69z"/>
			<path class="st8" d="M1070.48,1145.54c9.64,2.14,7.05,16.3,7.05,16.3h-32.93c-5.89-26.76-18.81-63.84-23.09-77.22
				c-4.28-13.38-9.58-8.07-9.58-8.07c1.12-9.94,1.52-20.33,1.15-29.94l8.51-6.92c2.87,3.21,5.27,4.63,5.27,4.63
				c4.01,3.13,11.03,2.52,18.55,0.37c-0.12,5-0.37,9.93-0.68,14.77c-1.94,29.98,9.66,86.78,9.66,86.78
				S1060.84,1143.39,1070.48,1145.54z"/>
			<path class="st7" d="M1067.08,957.02c0,6.24-0.12,22.27-1.19,31.66c0,0-10.32-3.54-13.27-4.31c-2.94-0.76-13.21,6.44-13.21,6.44
				c-2.57-8.67-6.12-17.24-10.94-25.57c0,0-2.47-6.83-3.65-15.31C1040.17,959.19,1067.08,957.02,1067.08,957.02z"/>
			<path class="st9" d="M969.43,927.15c-3.45,29.53-14.46,15.8-18.99,0.22c-4.6-15.8-1.89-42.95,24.55-58.47
				c26.44-15.52,50.57-4.1,64.66,12c14.08,16.09,15.7,50.21,9.95,58.83c-5.74,8.63-15.17,9.24-18.62-11.17
				c-3.37-19.92-3.78-20.16-3.8-20.16c3.74,16.1-1.87,23.83-1.87,23.83c-1.5,5.59-1.29,12.01-0.49,17.7
				c1.18,8.48,3.65,15.31,3.65,15.31c4.82,8.33,8.37,16.9,10.94,25.57c1.15,3.88,2.1,7.78,2.88,11.69
				c-6.62,1.55-14.82,3.99-21.99,6.19c0,0-4.28-15.33-17.19-10.5c-11.76,4.4-6.81,19.59-6.81,19.59c-0.95,1.23-1,2.62-0.2,4.35
				c2.07,4.49,16.72-0.69,16.72-0.69c1.65,8.71,5.51,14.62,8.77,18.25l-8.51,6.92c0.37,9.61-0.03,20-1.15,29.94
				c-1.8,16.11-5.47,31.05-10.76,39.66c-5.95,9.66,2.67,31.05,2.67,31.05c18.06-4,14.99,14.58,14.99,14.58h-31.05
				c-1.07-12.18-8.03-27.97-8.03-27.97c-3.08-7.39-5.87-17.07-8.35-27.6c-8.88,29.14-26.25,36.35-26.25,36.35
				c-4.76,4.06,0,6.86,0,6.86c25.08-2.96,13.97,11.67,13.97,11.67s-25.84,1.56-36.02,0c-10.18-1.57,3.91-20.36,0.78-23.49
				c-3.13-3.14-8.61,0.78-8.61,0.78c-101.8,59.51-115.11-42.29-111.98-53.25c3.13-10.96,3.92,13.31,31.32,32.89
				c27.41,19.58,64.21,4.7,64.21,4.7c-30.54-85.35,33.67-120.59,33.67-120.59c43.85-39.94,42.5-69.3,42.5-69.3
				S972.03,931.29,969.43,927.15z"/>
			<path class="st7" d="M1042.29,1002.5c2.85,14.18,3.46,28.44,3.12,42.19c-7.52,2.15-14.54,2.76-18.55-0.37c0,0-2.4-1.42-5.27-4.63
				c-3.26-3.63-7.12-9.54-8.77-18.25c0,0-14.65,5.18-16.72,0.69c-0.8-1.73-0.75-3.12,0.2-4.35c0.79-1.05,2.24-1.97,4.36-2.88
				c1.86-0.8,4.24-1.58,7.16-2.42c1.73-0.5,3.89-1.15,6.31-1.9c1.91-0.58,3.99-1.23,6.17-1.89
				C1027.47,1006.49,1035.67,1004.05,1042.29,1002.5z"/>
			<path class="st10" d="M1020.3,1008.69c-2.18,0.66-4.26,1.31-6.17,1.89v-0.01c-1.22-2.41-3.97-5.91-9.03-4.02
				c-4.22,1.58-4.68,5.58-4.44,8.35c-2.12,0.91-3.57,1.83-4.36,2.88c0,0-4.95-15.19,6.81-19.59
				C1016.02,993.36,1020.3,1008.69,1020.3,1008.69z"/>
			<path class="st11" d="M1014.13,1010.57v0.01c-2.42,0.75-4.58,1.4-6.31,1.9c-2.92,0.84-5.3,1.62-7.16,2.42
				c-0.24-2.77,0.22-6.77,4.44-8.35C1010.16,1004.66,1012.91,1008.16,1014.13,1010.57z"/>
		</g>
		<g>
		</g>
	</g>
	<g id="XMLID_4_">
		<g>
			<rect x="542.24" y="437.77" class="st12" width="475.6" height="291.13"/>
		</g>
		<g>
		</g>
	</g>
	<path class="st13" d="M673.47,573.9c0,0-0.57-1.57-3,0s-5.43,4.78-1.57,5.79c0,0-2.06,6.78-11.64,9.08
		c-5.03,0.64-10.11,0.8-15.17,0.5c0,0-7.69-1.5-12.38,4.19c0,0-15.27,0-18.37-11.78c0,0-0.3-3.2-0.9-1.1
		c-0.6,2.1,2.49,15.07,17.66,17.17c0,0-0.6,9.08,2.8,14.37c0.34,1.88,0.47,3.79,0.4,5.69c-0.1,3.31,0.6,3.09,1.2,6.49
		c0.6,3.39,1.2,7.98,5.29,7.98h2.69c0,0,1.9-0.4-0.4-2.69c-2.3-2.3-2.8-1.6-2.7-8.6c0,0,0-3.87,1.8-6.43s3.31-4.85,3.2-7.75
		c0,0-0.1-1.1,1.69-0.4c1.8,0.7,14.77,5.29,17.87,4.3c0,0-0.7,4.39-0.4,11.98c0.04,1.47-0.1,2.95-0.4,4.39
		c-0.5,2.3,0.1,4.2,3.31,5.19c0,0,4.39,0.9,4.19-1.4c-0.2-2.3-2.9-1.3-2.9-4.49c0-3.2,0.7-12.54,4.39-17.05
		c3.69-4.51,4.49-9.7,5.19-12.7c0.7-2.99,1.3-11.18,2.98-11.38c1.68-0.2,2.6-0.6,4.59-0.2c2,0.4,4.99,0,5.59-3.59c0,0,1.4-1.4,0-2.4
		c0,0-2.89,0.3-5.89-1.9c0,0,0.1-3.19-4.09-4.39C674.31,571.59,673.47,573.9,673.47,573.9z"/>
	<path class="st13" d="M664.59,657.47c0,0-0.36-0.99-1.88,0s-3.4,2.99-0.98,3.62c0,0-1.29,4.24-7.29,5.68
		c-3.15,0.4-6.33,0.5-9.5,0.31c0,0-4.81-0.94-7.75,2.62c0,0-9.56,0-11.5-7.37c0,0-0.19-2-0.56-0.69
		c-0.37,1.31,1.56,9.43,11.06,10.75c0,0-0.37,5.69,1.75,9c0.21,1.18,0.29,2.37,0.25,3.56c-0.06,2.07,0.37,1.94,0.75,4.06
		s0.75,5,3.31,5h1.68c0,0,1.19-0.25-0.25-1.69c-1.44-1.44-1.75-1-1.69-5.38c0,0,0-2.43,1.12-4.02c1.12-1.6,2.07-3.04,2-4.85
		c0,0-0.06-0.69,1.06-0.25c1.12,0.44,9.25,3.31,11.18,2.69c0,0-0.44,2.75-0.25,7.5c0.02,0.92-0.06,1.85-0.25,2.75
		c-0.31,1.44,0.06,2.63,2.07,3.25c0,0,2.75,0.56,2.62-0.87c-0.12-1.44-1.81-0.81-1.81-2.81s0.44-7.85,2.75-10.67
		c2.31-2.82,2.81-6.07,3.25-7.95s0.81-7,1.86-7.12c1.05-0.12,1.63-0.37,2.87-0.13c1.25,0.25,3.12,0,3.5-2.25c0,0,0.88-0.87,0-1.5
		c0,0-1.81,0.19-3.68-1.19c0,0,0.06-2-2.56-2.75C665.12,656.02,664.59,657.47,664.59,657.47z"/>
	<path class="st13" d="M682.17,474.55c0,0-0.78-2.15-4.1,0s-7.43,6.54-2.15,7.91c0,0-2.82,9.27-15.91,12.41
		c-6.88,0.87-13.82,1.1-20.74,0.68c0,0-10.51-2.05-16.92,5.73c0,0-20.88,0-25.1-16.1c0,0-0.41-4.37-1.23-1.5
		c-0.82,2.87,3.41,20.6,24.15,23.47c0,0-0.82,12.41,3.82,19.65c0.46,2.57,0.64,5.17,0.55,7.78c-0.14,4.52,0.82,4.23,1.64,8.87
		c0.82,4.64,1.64,10.91,7.24,10.91h3.67c0,0,2.6-0.54-0.54-3.68c-3.14-3.14-3.82-2.18-3.69-11.76c0,0,0-5.3,2.46-8.79
		c2.46-3.49,4.52-6.63,4.37-10.59c0,0-0.14-1.5,2.32-0.54c2.46,0.96,20.19,7.24,24.42,5.88c0,0-0.96,6-0.55,16.37
		c0.05,2.01-0.13,4.03-0.55,6c-0.68,3.14,0.14,5.73,4.52,7.1c0,0,6,1.23,5.73-1.91c-0.27-3.14-3.96-1.77-3.96-6.14
		c0-4.37,0.95-17.14,6-23.3c5.05-6.16,6.14-13.26,7.1-17.35s1.77-15.28,4.07-15.55c2.3-0.27,3.55-0.82,6.28-0.28
		c2.73,0.54,6.82,0,7.64-4.91c0,0,1.91-1.91,0-3.27c0,0-3.95,0.41-8.05-2.59c0,0,0.14-4.36-5.59-6
		C683.33,471.38,682.17,474.55,682.17,474.55z"/>
	<g>
		<line class="st14" x1="747.38" y1="496.3" x2="959.58" y2="496.3"/>
		<line class="st14" x1="747.38" y1="504.03" x2="959.58" y2="504.03"/>
		<line class="st14" x1="747.38" y1="511.75" x2="915.25" y2="511.75"/>
	</g>
	<g>
		<line class="st14" x1="747.38" y1="583.88" x2="959.58" y2="583.88"/>
		<line class="st14" x1="747.38" y1="576.15" x2="959.58" y2="576.15"/>
		<line class="st14" x1="747.38" y1="591.61" x2="959.58" y2="591.61"/>
		<line class="st14" x1="747.38" y1="599.34" x2="915.25" y2="599.34"/>
	</g>
	<g>
		<line class="st14" x1="747.38" y1="671.47" x2="959.58" y2="671.47"/>
		<line class="st14" x1="747.38" y1="663.74" x2="959.58" y2="663.74"/>
		<line class="st14" x1="747.38" y1="679.2" x2="959.58" y2="679.2"/>
	</g>
	<g id="XMLID_3_">
		<g>
			<polygon class="st7" points="1225.69,581.02 1231.36,610.33 1221.45,610.33 1214.42,581.02 			"/>
			<polygon class="st7" points="1478.13,581.02 1483.8,610.33 1473.89,610.33 1466.85,581.02 			"/>
			<polygon class="st7" points="1386.08,568.16 1393.3,568.16 1424.35,568.16 1507.6,568.16 1507.6,581.02 1478.13,581.02 
				1466.85,581.02 1225.69,581.02 1214.42,581.02 1171.71,581.02 1171.71,568.16 1221.29,568.16 1353.49,568.16 1355.04,568.16 			
				"/>
			<polygon class="st7" points="1376.63,465.87 1376.63,482.07 1371.95,482.07 1363.58,482.07 1363.58,465.87 1371.19,465.87 			"/>
			<rect x="1401.85" y="465.87" class="st7" width="13.05" height="16.2"/>
			<rect x="1442.55" y="436.71" class="st13" width="16.76" height="20.8"/>
			<rect x="1431.57" y="457.52" class="st12" width="39.87" height="110.56"/>
			<rect x="1393.3" y="482.08" class="st13" width="31.05" height="86.08"/>
			<polygon class="st13" points="1386.08,482.08 1386.08,568.16 1355.04,568.16 1355.04,568.09 1355.04,482.08 1371.95,482.08 			
				"/>
			<path class="st13" d="M1256.07,509.63c1.98-15.54,15.24-27.55,31.32-27.55c1.09,0,2.17,0.06,3.23,0.16v10.95h-6.51v17.17h-17.18
				L1256.07,509.63z"/>
			<path class="st13" d="M1293.75,544.58c-2.05,0.42-4.18,0.64-6.36,0.64c-17.44,0-31.57-14.14-31.57-31.57
				c0-1.36,0.09-2.7,0.25-4.02l10.86,0.73v6.57h17.18v17.17h6.56L1293.75,544.58z"/>
			<path class="st13" d="M1307.85,516.93l10.75,1.52c-2,13.07-12.01,23.5-24.85,26.13l-3.08-10.48v-17.17H1307.85z"/>
			<path class="st13" d="M1307.85,516.93v-6.57h-17.18v-17.17h-0.05v-10.95c15.91,1.62,28.34,15.06,28.34,31.41
				c0,1.63-0.12,3.24-0.36,4.8L1307.85,516.93z"/>
			<path class="st12" d="M1261.01,433.07h52.76c4.43,0,8.02,3.59,8.02,8.02v11.55h-4.13v-9.01c0-3.82-3.1-6.92-6.92-6.92h-46.7
				c-3.82,0-6.92,3.1-6.92,6.92v9.01h-4.13v-11.55C1252.99,436.66,1256.58,433.07,1261.01,433.07z"/>
			<path class="st12" d="M1355.04,482.08v86.01c-0.51,0.05-1.03,0.07-1.55,0.07h-132.2c-10.2,0-18.46-8.26-18.46-18.46v-78.6
				c0-10.2,8.26-18.46,18.46-18.46h31.7h4.13h60.54h4.13h31.7c8.38,0,15.46,5.58,17.7,13.23h-7.61v16.2h8.37v0.01H1355.04z
				 M1318.96,513.65c0-16.35-12.43-29.79-28.34-31.41c-1.06-0.1-2.14-0.16-3.23-0.16c-16.08,0-29.34,12.01-31.32,27.55
				c-0.16,1.32-0.25,2.66-0.25,4.02c0,17.43,14.13,31.57,31.57,31.57c2.18,0,4.31-0.22,6.36-0.64
				c12.84-2.63,22.85-13.06,24.85-26.13C1318.84,516.89,1318.96,515.28,1318.96,513.65z"/>
		</g>
		<g>
		</g>
	</g>
	<path class="st5" d="M1159.38,1030c0,0,64.4-17.27,69.16-31.8s48-143.53,9.9-159.46c0,0-14.55-7.48-31.02,15.4l-1.02-0.7v-28.68
		c0,0,47.25,2.92,54.65,43.98c0,0,11.34,45.69,15.95,129.75c0,0,49.06,96.45,50.6,163.36h-151.91
		C1175.68,1161.84,1161.21,1081.12,1159.38,1030z"/>
	<path class="st3" d="M1149.37,1032.95l10.01-2.96c0,0,7.6,89.17,16.3,131.85h-31.08L1149.37,1032.95z"/>
	<path class="st6" d="M1140.04,834.04c0,0,7.41,19.99,7.91,34.68c0,0,1.24,60.12,0,107.84l8.33-4.08c0,0-6.15-36.2,21.05-114.53
		l13.98-33.27c0,0-5.5-14.44-8.7-30.6"/>
	<path class="st3" d="M1139.45,863.95c0,0-16.31,0.5-21.83,30.53c-5.52,30.04-14.25,55.94-14.25,55.94l-37.05,3.71
		c0,0,0.99,28.42-1.17,38.86c0,0,59.27,2.38,82.8-16.41c0,0-11.66-7.25-7.18-48.47l3.38-28.08c0,0-9.54-8.07-9.42-10.19
		C1134.84,887.7,1138.24,867.03,1139.45,863.95z"/>
	<path class="st2" d="M1195.7,1059.85c0,0,54.49-2.22,75.76-4.44c0,0,5.16,62.2,5.16,87.74c0,0-41.49,6.11-71.28,0L1195.7,1059.85z"
		/>
	<path class="st15" d="M1197.75,1077.56c0,0,53.01-2.09,75.1-4.35"/>
	<path class="st10" d="M1138.29,854.52c0,0,6.05,26.85,19.97,27.04c0,0,0.59,36.86-15.84,66.31c-16.43,29.45-5.37,89.63-43.87,92.51
		c0,0-16.29,1.35-30.41-5.26l-4.83,2.43c0,0,15.99,9.87,40.58,6.68c24.6-3.19,28.64-36.44,30.38-49.88
		c1.73-13.44,5.38-33.71,11.76-47.14c0,0,15.94-23,17.31-66.73c0,0,10.08,1.99,14.72-31.3c0,0-0.96,1.04-3.51,0
		c0,0-2.36,27.49-13.94,27.65c-11.58,0.16-19.84-23.46-19.84-23.46"/>
	<path class="st1" d="M1194.23,777.68c0,0.01-0.01,0.01-0.01,0.02c0,0-3.6,15.14-7.52,32.09v0.01c-0.3,1.33-0.6,2.67-0.91,4.01
		c-3.09,13.47-6.2,27.41-7.73,35.38c0,0-0.66,0.71-3.52,0c0,0,4.19-16.66,8.31-33.95c0.83-3.47,1.65-6.96,2.44-10.36
		c2.52-10.83,4.66-20.59,5.3-25.03c0.14-1.01,0.21-1.74,0.18-2.15c0,0-2.86-7.67,0-10.34
		C1193.62,764.68,1198.01,769.31,1194.23,777.68z"/>
	<g>
		<g id="XMLID_2_">
			<g>
				<path class="st16" d="M724.57,901.32c14.97,9.84,15.7,46.76,0.16,67.52c-5.01,6.69-7.48,12.42-8.54,17.12l-6.83-0.9
					c4.67-22.85,17.81-70.82,13.75-70.97c-4.84-0.18-17.09,69.39-19.08,81.74c-1.98,12.36-16.14,32.29-17.83,46.06
					c-1.53,12.38-7.16,25.72-12.08,37.68h-9.02c2.91-2.46,14.05-13.1,10.54-29.74c-1.98-9.39-4.83-17.63-5.19-25.69
					c-0.24-5.65,0.75-11.22,4.11-17.04c1.59-2.76,3.72-5.57,6.5-8.49c22.26-23.29,7.52-41.91,9.91-56.48
					C696,911.57,715.13,895.12,724.57,901.32z"/>
				<path class="st17" d="M723.11,914.1c4.05,0.15-9.09,48.12-13.75,70.97c-0.13,0.64-0.25,1.26-0.37,1.86
					c-0.69,3.55-1.13,6.35-1.2,8.07c-0.5,12.34-10.61,25.87-15.46,39.64c-4.38,12.44-7.58,31.24-13.82,44.94h-4.4
					c4.93-11.96,10.56-25.3,12.08-37.68c1.69-13.76,15.85-33.7,17.83-46.06C706.02,983.49,718.27,913.92,723.11,914.1z"/>
				<path class="st16" d="M718.01,1001.2c0,0,16.64,32.25-14.08,58.46c-9.45,8.07-14.45,14.66-16.85,19.92h-8.57
					c6.24-13.7,9.44-32.5,13.82-44.94c4.85-13.77,14.97-27.29,15.46-39.64c0.07-1.72,0.5-4.52,1.2-8.07
					c0.12-0.6,0.24-1.22,0.37-1.86l6.83,0.9C713.95,995.87,718.01,1001.2,718.01,1001.2z"/>
				<path class="st13" d="M707.7,1079.58c0.82,4.84,1.25,9.88,1.25,15.04c0,31.48-15.96,58.05-37.84,66.56h-30.14
					c-21.89-8.51-37.84-35.08-37.84-66.56c0-5.16,0.43-10.2,1.25-15.04h24.88h11.38h4.12h14.43h3.61h2.28h9.02h4.4h8.57H707.7z"/>
				<path class="st18" d="M675.49,956.05c14.56,19.7,5.46,32.87-0.94,51.06c-3.36,5.83-4.35,11.39-4.11,17.04l-6.7,0.18
					c-0.33-12.54-5.19-22.24-1.24-36.02c5.18-18.03-11.89-52.7-6.46-76.26c5.42-23.56-6.13-39.55-8.36-37.77
					c-2.22,1.77,7.56,15.11,3.12,37.33c-4.45,22.22,9.68,48,8.39,59.56c-1.28,11.56-4.02,26.46,0,44c4.02,17.54-5.2,39.4,0,64.4
					c0,0-19.41,0-8.09-38.77c10.55-36.12-16.16-54.09-19.85-56.37c-1.73-17.46,7.24-30.51,7.24-30.51s10.21-10.38-2.59-32.94
					c-12.79-22.56-7.42-59.09,8.68-66.97c10.15-4.97,27.05,13.78,28.18,44.73C673.32,913.52,656.35,930.14,675.49,956.05z"/>
				<path class="st18" d="M675.63,1049.84c3.51,16.64-7.63,27.28-10.54,29.74h-2.28c0,0-5.34-23.07-0.45-42.62
					c1.15-4.61,1.48-8.75,1.39-12.62l6.7-0.18C670.8,1032.21,673.65,1040.45,675.63,1049.84z"/>
				<path class="st17" d="M663.74,1024.33c0.09,3.87-0.24,8.01-1.39,12.62c-4.89,19.56,0.45,42.62,0.45,42.62h-3.61
					c-5.2-25,4.02-46.86,0-64.4c-4.02-17.54-1.28-32.44,0-44c1.29-11.56-12.84-37.33-8.39-59.56c4.44-22.22-5.34-35.56-3.12-37.33
					c2.23-1.78,13.79,14.22,8.36,37.77c-5.42,23.56,11.64,58.23,6.46,76.26C658.55,1002.09,663.41,1011.79,663.74,1024.33z"/>
				<path class="st16" d="M659.19,1079.58h-14.43c-1.06-2.35-4.98-12.27-3.79-28.85c1.38-19.11-18.93-36.39-26.78-62.41
					c-7.85-26.04-25.18-76.26-27.85-74.04c-2.67,2.22,18.23,45.83,24.44,74.04c6.22,28.19,20.68,35.36,25.33,53.08
					c4.55,17.34-0.31,29.79,4.51,38.18h-11.38c0,0,6.61-17.71-7.21-31.47c-13.82-13.75-28.02-21.54-23.53-45.82
					c5.87-31.67-16.67-39.17-22.65-52.68c-12.54-28.33-5.56-52.58,5.74-52.57c17.93,0.03,38.76,30.51,37.14,56.4
					c-1.61,25.89,12.1,30.74,12.1,30.74s0.15,0.09,0.42,0.25c3.68,2.28,30.4,20.25,19.85,56.37
					C639.78,1079.58,659.19,1079.58,659.19,1079.58z"/>
				<path class="st17" d="M644.76,1079.58h-4.12c-4.83-8.39,0.04-20.84-4.51-38.18c-4.65-17.72-19.11-24.89-25.33-53.08
					c-6.22-28.2-27.11-71.81-24.44-74.04c2.67-2.22,20,48,27.85,74.04c7.84,26.03,28.15,43.3,26.78,62.41
					C639.78,1067.3,643.7,1077.22,644.76,1079.58z"/>
			</g>
			<g>
			</g>
		</g>
	</g>
	<path class="st19" d="M657.31,1079.58c0,0-51.31,9.18-18.22,81.6c0,0-44.52-15.42-36.59-81.6H657.31z"/>
	<path class="st20" d="M984.3,932.89c0,0,10.96,3.1,15.09-7.19c0,0,2.79,9.81,13.68,7.19"/>
	<path d="M997.88,925.22c0,0-7.85-6.76-4.58-10.9s11.99-3.27,11.56,1.31C1004.42,920.2,1000.41,927.83,997.88,925.22z"/>
	<path class="st21" d="M953.85,1063.21c-1.61,0.54-44.97-18.2-47.65,44.97"/>
	<path class="st22" d="M1140.04,833.96c0,0,25.53-3.18,43.31-39.86c0,0-2.19,46.98-36.46,65.1
		C1146.88,859.2,1144.52,846.96,1140.04,833.96z"/>
	<path class="st4" d="M1186.99,805.34l-0.39,4.94l0.78,2.63c0,0,3.45-2.2,5.17-3.78l-5.56-4V805.34z"/>
	<path class="st23" d="M1168.92,687.97c0,0,20.49-0.43,38.53,27.53l4.41-2.44c0,0-8.7-27.56-44.1-30.4L1168.92,687.97z"/>
	<path class="st8" d="M974.99,932.89c0,0,0,10.7-3.49,16.33c0,0,40.39,8.02,53.62-16.16C1025.11,933.06,992.95,955.03,974.99,932.89
		z"/>
	<path class="st8" d="M969.44,927.14c0,0-8.68-12.87-6.84-33.85c0,0-9.17,17.41,4.38,45.68
		C966.98,938.97,968.94,932.27,969.44,927.14z"/>
	<path class="st8" d="M1027.96,911.65v-18.36c0,0,8.78,21.9,9.91,50.88C1037.87,944.17,1031.38,941.21,1027.96,911.65z"/>
	<path class="st8" d="M955.13,1063.92c0,0-45.84-17.51-47.65,44.97c0,0-9.13-26.65,6.98-47.23
		C930.57,1041.09,955.13,1063.92,955.13,1063.92z"/>
	<polygon class="st24" points="1434.12,581.02 1473.89,610.33 1466.17,580.94 	"/>
	<polygon class="st24" points="1182.53,581.06 1221.45,610.33 1214.57,580.98 	"/>
	<line class="st25" x1="1443.85" y1="1161.84" x2="572.93" y2="1161.84"/>
	<path class="st26" d="M1054.39,1146.32c0,0-6.47,2.72-7.77,8.54l2.07-41.17L1054.39,1146.32z"/>
	<path class="st8" d="M1003.64,1147.22c0,0-4.4,1.42-7.9,4.92c0,0-1.17-29.91,4.53-34.57
		C1000.28,1117.58,996.39,1128.32,1003.64,1147.22z"/>
	<path class="st8" d="M945.22,1149.68c0,0-3.73-0.17-8.77,1.78c0,0-3.55-7.01,6.35-12.79c9.89-5.79,25.57-24.07,28.55-32.1
		c0,0-6.16,24.63-26.13,36.02C945.22,1142.59,940.74,1145.95,945.22,1149.68z"/>
	<path class="st8" d="M898.51,1122.67c0,0,4.75,10.69,20.91,14.02c0,0-42.29,4.51-64.38-9.5
		C855.03,1127.19,880.45,1130.99,898.51,1122.67z"/>
</g>
<g id="Layer_2">
</g>
</svg>
