<?xml version="1.0" encoding="utf-8"?>
<!-- Generator: Adobe Illustrator 21.1.0, SVG Export Plug-In . SVG Version: 6.00 Build 0)  -->
<svg version="1.1" id="_x3C_Layer_x3E_" xmlns="http://www.w3.org/2000/svg" xmlns:xlink="http://www.w3.org/1999/xlink" x="0px"
	 y="0px" viewBox="0 0 2760 1840" style="enable-background:new 0 0 2760 1840;" xml:space="preserve">
<style type="text/css">
	.st0{fill:#FFFFFF;}
	.st1{fill:#FFFAA6;}
	.st2{fill:#8C9DF4;}
	.st3{fill:#D2E0FF;}
	.st4{fill:#2B32B2;}
	.st5{fill:#2B478B;}
	.st6{fill:#AEC3FF;}
	.st7{fill:#FFB27D;}
	.st8{fill:#233862;}
	.st9{fill:#2A4E96;}
	.st10{fill:#163560;}
	.st11{fill:#B7B277;}
	.st12{fill:#FCA56B;}
	.st13{fill:#2C3A64;}
	.st14{fill:#ED975D;}
	.st15{fill:#1D2C51;}
	.st16{fill:#E58638;}
	.st17{opacity:0.5;}
</style>
<rect class="st0" width="2760" height="1840"/>
<g>
	<g>
		<g>
			<path class="st1" d="M1729.7,1183.5h-63.9v-10.9h63.9c24,0,43.6-19.6,43.6-43.6v-98h10.9v98
				C1784.2,1159.1,1759.7,1183.5,1729.7,1183.5z"/>
		</g>
	</g>
	<g>
		<path class="st2" d="M1764.4,1214.1h-108v-10.9h108c22.4,0,40.6-18.2,40.6-40.6v-143.1h10.9v143.1
			C1815.9,1191,1792.8,1214.1,1764.4,1214.1z"/>
	</g>
	<g>
		<rect x="1644.9" y="566.8" class="st2" width="31.7" height="974"/>
	</g>
	<g>
		<path class="st2" d="M2559.9,612.3H1150.1c-84.8,0-153.9,69-153.9,153.9v774.6h-91.1V766.1c0-135,109.9-244.9,244.9-244.9h1405.8
			C2559.3,551,2560.5,581.5,2559.9,612.3z"/>
	</g>
	<g>
		<path class="st2" d="M2504.1,1083.4h-35.7c-42,0-76.2,34.2-76.2,76.2v381.1h-43.7v-381.1c0-66.1,53.8-120,120-120h37.1
			C2504.3,1055.1,2503.8,1069.7,2504.1,1083.4z"/>
	</g>
	<g>
		<path class="st2" d="M2524.2,904.9c-2.5,14.7-4.9,29.2-7.1,43.3h-163.2c-36.9,0-76.2,8-76.2,104.1v488.5h-43.7v-488.5
			c0-99.2,39.2-147.4,120-147.4H2524.2z"/>
	</g>
	<g>
		<g>
			<path class="st1" d="M549.3,920v620.7h-73V920c0-68-55.3-123.3-123.3-123.3h-6.2c2.1-25,2.4-49.3,1.5-73h4.7
				C461.2,723.8,549.3,811.8,549.3,920z"/>
		</g>
	</g>
	<g>
		<rect x="1267.9" y="915.4" class="st3" width="269.2" height="621.3"/>
	</g>
	<g>
		<path class="st3" d="M1121.1,1535.9h-57.8v-288.3c0-73.6,59.9-133.6,133.6-133.6H1359v57.8h-162.2c-41.7,0-75.7,34-75.7,75.7
			V1535.9z"/>
	</g>
	<g>
		<g>
			<g>
				<g>
					<path class="st4" d="M565.1,1261c-0.6-1.1-1.2-2.1-1.9-3.1c-2.9-4.4-6.2-8.4-9.9-12c-8.8-8.5-19.8-14.3-32-17
						c-4.7-1-9.4-1.5-14.1-1.5c-1.8,0-3.6,0.1-5.4,0.2c-10.8,0.9-21.2,4.4-30.5,10.4c-3.6,2.3-6.9,4.9-9.9,7.8
						c-9.5,9.1-16.2,20.8-19,34c-3.7,17.4-0.5,35.1,9.1,50c2.9,4.4,6.2,8.4,9.9,12c8.8,8.5,19.8,14.3,32,17c4.7,1,9.4,1.5,14.1,1.5
						c12.6,0,25-3.6,35.9-10.7c3.6-2.3,6.9-4.9,9.9-7.8c9.5-9.1,16.2-20.9,19-34C575.9,1291.8,573.3,1275.3,565.1,1261z
						 M560.1,1305.3c-1.3,6.1-3.6,11.8-6.8,16.9c-2.1,3.5-4.7,6.7-7.5,9.6c-2.7,2.8-5.8,5.3-9.2,7.4c-0.2,0.1-0.4,0.3-0.6,0.4
						c-12,7.5-26.1,10-40,7c-5.4-1.2-10.5-3.1-15.2-5.8c-3.7-2-7.1-4.5-10.1-7.4c-3.2-3-6.1-6.5-8.6-10.3c-0.2-0.4-0.5-0.7-0.7-1.1
						c-7.3-11.9-9.7-25.9-6.8-39.5c0.6-2.7,1.4-5.4,2.4-8c1.2-3.1,2.7-6.1,4.4-8.9c0.5-0.7,0.9-1.4,1.4-2.2c0.1-0.1,0.1-0.2,0.2-0.3
						c4-5.7,9.1-10.7,15.1-14.6c6.7-4.3,14.1-7.1,21.8-8.1c1-0.1,2-0.2,3-0.3c1.4-0.1,2.9-0.2,4.4-0.2c1.7,0,3.4,0.1,5.2,0.2
						c2.1,0.2,4.2,0.5,6.3,1c4.6,1,8.9,2.5,13,4.6c0,0,0.1,0,0.1,0c6.6,3.3,12.5,8,17.2,13.8c1,1.2,1.9,2.4,2.8,3.7
						c0.3,0.4,0.6,0.9,0.9,1.3c0.2,0.4,0.5,0.7,0.7,1.1c0.9,1.4,1.7,2.9,2.4,4.4C561.2,1281,562.7,1293.3,560.1,1305.3z"/>
				</g>
			</g>
			<g>
				<g>
					<polygon class="st5" points="507.7,1301.2 451.2,1271.6 457,1260.5 507.1,1286.7 554.6,1256.1 561.4,1266.6 					"/>
				</g>
			</g>
			<g>
				<g>
					<polygon class="st5" points="478.1,1344.6 468,1337.2 501.1,1292 499.8,1233.9 512.3,1233.6 513.7,1296 					"/>
				</g>
			</g>
			<g>
				<g>
					
						<rect x="520" y="1287.3" transform="matrix(0.7799 -0.6259 0.6259 0.7799 -708.7375 619.3087)" class="st5" width="12.5" height="60.2"/>
				</g>
			</g>
		</g>
		<g>
			<circle class="st5" cx="507.4" cy="1294" r="12"/>
		</g>
	</g>
	<g>
		<g>
			<g>
				<g>
					<path class="st4" d="M2296.3,1282.2c-0.5-0.9-1-1.7-1.5-2.6c-2.3-3.6-5-6.9-8.1-9.8c-7.2-6.9-16.2-11.7-26.1-13.9
						c-3.8-0.8-7.7-1.2-11.5-1.2c-1.5,0-3,0.1-4.4,0.2c-8.8,0.7-17.3,3.6-25,8.5c-2.9,1.9-5.6,4-8.1,6.4c-7.8,7.4-13.2,17-15.5,27.8
						c-3.1,14.2-0.4,28.7,7.5,40.9c2.3,3.6,5,6.9,8.1,9.8c7.2,6.9,16.2,11.7,26.1,13.9c3.9,0.8,7.7,1.2,11.6,1.2
						c10.3,0,20.5-3,29.4-8.7c2.9-1.9,5.6-4,8.1-6.4c7.8-7.4,13.2-17.1,15.5-27.8C2305,1307.3,2302.9,1293.8,2296.3,1282.2z
						 M2292.2,1318.4c-1.1,5-2.9,9.6-5.5,13.8c-1.8,2.8-3.8,5.5-6.2,7.9c-2.2,2.3-4.8,4.3-7.5,6.1c-0.2,0.1-0.3,0.2-0.5,0.3
						c-9.8,6.2-21.4,8.2-32.7,5.8c-4.4-1-8.6-2.5-12.4-4.7c-3-1.7-5.8-3.7-8.3-6c-2.7-2.5-5-5.3-7-8.4c-0.2-0.3-0.4-0.6-0.5-0.9
						c-6-9.7-7.9-21.2-5.5-32.3c0.5-2.2,1.1-4.4,1.9-6.5c1-2.6,2.2-5,3.6-7.3c0.4-0.6,0.8-1.2,1.2-1.8c0-0.1,0.1-0.1,0.1-0.2
						c3.3-4.7,7.4-8.8,12.4-12c5.5-3.5,11.5-5.8,17.8-6.7c0.8-0.1,1.6-0.2,2.5-0.3c1.2-0.1,2.4-0.1,3.6-0.1c1.4,0,2.8,0.1,4.2,0.2
						c1.7,0.2,3.4,0.4,5.2,0.8c3.7,0.8,7.3,2.1,10.6,3.7c0,0,0,0,0.1,0c5.4,2.7,10.2,6.6,14.1,11.3c0.8,1,1.6,2,2.3,3
						c0.3,0.4,0.5,0.7,0.8,1.1c0.2,0.3,0.4,0.6,0.5,0.9c0.7,1.2,1.4,2.4,2,3.6C2293,1298.5,2294.3,1308.5,2292.2,1318.4z"/>
				</g>
			</g>
			<g>
				<g>
					<polygon class="st5" points="2249.3,1315 2203.1,1290.7 2207.8,1281.7 2248.8,1303.2 2287.6,1278.1 2293.2,1286.7 					"/>
				</g>
			</g>
			<g>
				<g>
					<polygon class="st5" points="2225.1,1350.5 2216.8,1344.5 2243.9,1307.5 2242.8,1260 2253.1,1259.7 2254.2,1310.7 					"/>
				</g>
			</g>
			<g>
				<g>
					
						<rect x="2259.4" y="1303.7" transform="matrix(0.7799 -0.6259 0.6259 0.7799 -332.983 1709.5703)" class="st5" width="10.2" height="49.2"/>
				</g>
			</g>
		</g>
		<g>
			<circle class="st5" cx="2249.1" cy="1309.1" r="9.8"/>
		</g>
	</g>
	<g>
		<rect x="1054.3" y="1454.4" class="st6" width="75.8" height="86.3"/>
	</g>
	<g>
		<rect x="1538.4" y="515.9" class="st5" width="32.1" height="104.7"/>
	</g>
	<g>
		<rect x="1917" y="515.9" class="st5" width="32.1" height="104.7"/>
	</g>
	<g>
		<rect x="1475.9" y="515.9" class="st5" width="32.1" height="104.7"/>
	</g>
	<g>
		
			<rect x="935.8" y="1036.2" transform="matrix(-1.836970e-16 1 -1 -1.836970e-16 2040.3618 136.7514)" class="st5" width="32.1" height="104.7"/>
	</g>
	<g>
		
			<rect x="935.8" y="695.8" transform="matrix(-1.836970e-16 1 -1 -1.836970e-16 1699.9224 -203.688)" class="st5" width="32.1" height="104.7"/>
	</g>
	<g>
		<rect x="2224.8" y="1437" class="st5" width="61" height="99.8"/>
	</g>
	<g>
		<rect x="2339.7" y="1437" class="st5" width="61" height="99.8"/>
	</g>
	<g>
		<g>
			<path class="st7" d="M907.2,910c0,0,7.9-13.5,14.2-18.5c6.3-5,22.9-6.4,23.6-5.1c2,4-6.6,9.7-8.4,13.3c-1.8,3.6-1,8.9-9.5,13.1
				c-8.7,4.4-13.8,7.3-13.8,7.3L907.2,910z"/>
		</g>
		<g>
			<path class="st8" d="M913.9,908.2c-4.1-6.3-5.3-6.7-5.3-6.7s-60.9,38.4-67.3,40.6c-6.4,2.2-69.7-10.3-69.7-10.3l-22,37.7
				c0,0,83.6,13.3,99.8,7.3c26.8-9.9,67.7-58.6,67.7-58.6S917.1,913.2,913.9,908.2z"/>
		</g>
		<g>
			<path class="st7" d="M931.5,902.7c0,0,12-7.3,12.5-4.2c0.3,1.6-5,5.9-7.2,7.7c-2.1,1.8-7.6,5.4-7.6,5.4L931.5,902.7z"/>
		</g>
		<g>
			<g>
				<g>
					<g>
						<path class="st4" d="M1015.4,851.3c-11.5-16-27.8-26.6-45.5-31.2c-16.3-4.3-33.8-3.6-50,2.5c-6.6,2.5-12.9,5.9-18.9,10.2
							c-36.7,26.4-45,77.7-18.6,114.4c11.5,16,27.8,26.6,45.5,31.2c8.2,2.2,16.8,3.1,25.3,2.6c8.3-0.4,16.7-2.1,24.7-5.2
							c4.5-1.7,8.8-3.8,13.1-6.3c0.9-0.5,1.8-1.1,2.7-1.7c1-0.7,2.1-1.4,3.1-2.1c2.1-1.5,4.1-3.1,5.9-4.7c5-4.3,9.3-9.1,13-14.3
							C1035.5,918.8,1036.4,880.5,1015.4,851.3z M1014.6,909.9c-1.7,10.7-5.9,20.6-12.2,29c-1.2,1.6-2.4,3.1-3.7,4.6
							c-1.5,1.7-3.2,3.4-4.9,4.9c-0.2,0.2-0.4,0.3-0.5,0.5c-1.7,1.5-3.5,2.9-5.4,4.3c-0.2,0.2-0.5,0.4-0.7,0.5
							c-0.3,0.2-0.5,0.4-0.8,0.5c-0.5,0.4-1.1,0.7-1.6,1.1c0,0,0,0,0,0c-2.1,1.4-4.3,2.6-6.5,3.7c-0.3,0.2-0.7,0.3-1,0.5
							c-0.9,0.4-1.8,0.8-2.8,1.2c-15.2,6.3-32.1,6.5-47.2,1.3c-2.7-0.9-5.3-2-7.9-3.3c-4.6-2.3-8.9-5.1-12.9-8.5
							c-4.2-3.5-8-7.5-11.3-12.1c-12.9-17.9-15.6-40-9.2-59.5c1.6-4.9,3.7-9.6,6.4-14c4.5-7.4,10.4-13.9,17.9-19.3
							c3.4-2.5,7-4.6,10.7-6.3c5-2.3,10.2-4,15.6-5.1c3-0.6,6-0.9,9-1.1c2.1-0.1,4.2-0.1,6.4,0c2.6,0.1,5.2,0.4,7.8,0.8
							c3.8,0.6,7.6,1.6,11.2,2.8c10.4,3.6,19.7,9.7,27.2,17.9c1.7,1.9,3.4,3.9,4.9,6c1.5,2.1,2.9,4.3,4.2,6.5
							C1014.4,879.9,1017,894.9,1014.6,909.9z"/>
					</g>
				</g>
				<g>
					<g>
						<polygon class="st5" points="949.8,908.1 878.3,875.2 884.8,861.2 948.1,890.3 1004.7,849.6 1013.7,862.1 						"/>
					</g>
				</g>
				<g>
					<g>
						<polygon class="st5" points="916.1,963.5 903.2,955 941.1,897.2 935.8,825.8 951.2,824.7 956.9,901.3 						"/>
					</g>
				</g>
				<g>
					<g>
						
							<rect x="965.9" y="889.9" transform="matrix(0.7468 -0.665 0.665 0.7468 -369.9388 882.1518)" class="st5" width="15.4" height="74.2"/>
					</g>
				</g>
			</g>
			<g>
				
					<ellipse transform="matrix(0.9987 -5.120363e-02 5.120363e-02 0.9987 -44.7998 49.7709)" class="st5" cx="949" cy="899.2" rx="14.8" ry="14.8"/>
			</g>
		</g>
		<g>
			<g>
				<g>
					<path class="st1" d="M936.7,987.6l-90.5,106.6c-3.3,3.9-9.1,4.4-13,1.1l0,0c-2.6-2.2-2.9-6.1-0.7-8.6l93.1-109.5
						c1.9-2.2,5.2-2.5,7.4-0.6l3,2.6C938.6,981.2,938.9,985,936.7,987.6z"/>
				</g>
				<g>
					<path class="st1" d="M955.6,947.8l-10-12.6c-4.3-5.4-12.4-5.8-16.6-0.7l-40.2,47.3c-2.1,2.5-1.8,6.2,0.7,8.3l0,0l0,0l14.6,12.4
						l21.7-25.6l-8.8-7.5l13-15.3c4.7-5.5,13.5-4.9,17.9,1.2l5.1,7.1l2.6-3.1C958.4,956.1,958.4,951.3,955.6,947.8z"/>
				</g>
			</g>
			<g>
				<g>
					
						<ellipse transform="matrix(0.6474 -0.7621 0.7621 0.6474 -435.2718 1037.7997)" class="st9" cx="904" cy="989.3" rx="2.1" ry="2.1"/>
				</g>
				<g>
					
						<ellipse transform="matrix(0.6476 -0.762 0.762 0.6476 -424.3272 1040.6277)" class="st9" cx="912.8" cy="979" rx="2.1" ry="2.1"/>
				</g>
			</g>
		</g>
		<g>
			<path class="st10" d="M746.4,1505.1c0,0,1.5,23.7,5.9,29.2h67.7c-0.4-2.4-2.3-8.2-10.8-9.7c-10.7-1.9-28.6-9.4-35.1-23.5
				C767.2,1486.3,746.4,1505.1,746.4,1505.1z"/>
		</g>
		<g>
			<path class="st10" d="M626.3,1501.8c0,0-5,32.9,0.8,33.4c0.8,0.1,26-0.3,35.8-0.3c12.2-0.1,32.6-0.5,32.6-0.5
				c2.5,0.1,3.7-3.8,2.4-6c-1.4-2.4-4.1-4.9-9.2-5.9c-10.7-2.1-28.4-9.9-34.6-24.1C647.5,1483.3,626.3,1501.8,626.3,1501.8z"/>
		</g>
		<g>
			<path class="st11" d="M778.2,1190c0,0-17,59.5-65.8,162.9c-48.8,103.4-52.5,150.5-52.5,150.5l-33.6-1.6c0,0,3.2-123,26.2-175.2
				c23-52.2,27.7-194.9,27.7-194.9L778.2,1190z"/>
		</g>
		<g>
			<path class="st1" d="M805.5,1138.7c0,0,1.4,92.2-14.6,205.4c-15.9,113.2-10.5,161.2-10.5,161.2l-38.2,1.3
				c0,0-22.8-113.2-16.3-169.9c6.5-56.6-31.3-194.4-31.3-194.4L805.5,1138.7z"/>
		</g>
		<g>
			<path class="st7" d="M730.1,923l18,13.3l26-5.5c-0.4-2.4-2.1-12.2-3.6-21.1c-0.1-0.5-0.2-1.1-0.3-1.6c-1.3-7.6-2.5-14.1-2.5-14.1
				L743.4,882l-9.1-4.5c0,0.2,0.7,8.4,0.8,9.6C736.9,908.5,730.1,923,730.1,923z"/>
		</g>
		<g>
			<path class="st10" d="M772.4,916.3c-0.6-0.2-35.4-10.5-39.2-9.3c-3.8,1.3-6,8.6-6,8.6l53.8,15.3
				C780.9,930.9,779.6,919.4,772.4,916.3z"/>
		</g>
		<g>
			<path class="st4" d="M678.5,1150.1c5.9,26.9,129-57.6,127.4-74c-0.2-1.8-0.4-3.6-0.5-5.4c-2.3-22.9-4.5-45.3-4.6-59.9
				c-0.1-12.7-1.9-25.6-4.2-37.4c-2.1-10.9-4.8-20.7-7.1-28.4c-1.6-5.4-4.6-10.2-8.6-13.9c-2.8-2.7-6.2-4.8-9.8-6.3
				c-1-0.4-2-0.8-3.1-1.1c-14.8-4.3-35.4-9.6-40.9-8c-15.1,4.4-26.3,31-34.2,64.8C678.1,1043.7,674.7,1132.6,678.5,1150.1z"/>
		</g>
		<g>
			<path class="st12" d="M737,887.5c5.3,10.2,25.2,19.1,33.5,22.3c-0.1-0.5-0.2-1.1-0.3-1.6c-1.3-7.6-2.5-14.1-2.5-14.1L743.4,882
				C738.1,881.9,734.8,883.3,737,887.5z"/>
		</g>
		<g>
			<path class="st7" d="M779.6,892.7c0,0-43.9,13.7-52-13.8c-8.1-27.5-19.2-44.2,8.4-54.1c27.7-9.9,36.2-1,41.2,7.5
				C782.1,840.8,790.8,888.4,779.6,892.7z"/>
		</g>
		<g>
			<path class="st10" d="M775.5,829.7c0,0-2.8,31.9-9.4,30.6c-6.6-1.4-12.6-2.4-11.6,7.2c1,9.6,10.1,20.8-10.2,22.5
				c-20.4,1.7-49.6-50.8-44-60.7C716.3,800.4,798.8,794.7,775.5,829.7z"/>
		</g>
		<g>
			<path class="st8" d="M802.2,1138.7c-12.2,4.4,0.2-12.1,0-15.6c-0.9-15.1,5-34.3,3.2-52.5l-74.5-44.5
				C730.9,1026.1,713.2,1138,802.2,1138.7z"/>
		</g>
		<g>
			<path class="st1" d="M678.5,1150.1c31.8,58.9,36.9,81.4,36.9,81.4c27.7-3.2,75.1-57.6,90.1-72.1c0,0,2-67,0.4-83.4l-23-0.7
				c0,0-41.6,10.5-52.3-3.8c-10.8-14.3-6.1-84.4-6.1-84.4l-31.6-6.8C678.1,1043.7,670,1134.3,678.5,1150.1z"/>
		</g>
		<g>
			<path class="st7" d="M859.9,1037.4c0,0,9.1-1.8,11.4-3.7c3.5-2.9,6.2-7.7,8-8.2c2.9-0.9,9.9-9.8,10.5-10.4
				c0.2-0.2,2.1,0.7,1.7,2.1c-0.5,1.5-1.5,4.6-1.9,5.8c-1.7,5-1.6,6.6,4.4,4.6c0.8-0.3,14.7-4.7,16.1-1.5
				c1.4,3.2-4.3,18.4-11.6,21.6c-7.3,3.3-25.2,0.3-26.5,0.7C861.1,1051.6,859.9,1037.4,859.9,1037.4z"/>
		</g>
		<g>
			<path class="st4" d="M867.3,1034.4c0,0-73.9,12.6-80.4,9.4c-10.4-5.1,4.1-80,4.1-80s0.6-17-19.2-21c-17.2-3.5-33.9,9.4-33.9,9.4
				s-15.1,13.5-13.2,28.6c4.3,33.3,11,101,33.2,111.4c28.7,13.4,111.8-37.1,111.8-37.1s2.8-3.4,2.4-9.7
				C871.7,1039.8,867.3,1034.4,867.3,1034.4z"/>
		</g>
		<g>
			<path class="st1" d="M718.4,985.9l6.1,1.3c0,0,12.9-56,56.4-56.3c-2.8-2.7-6.2-4.8-9.8-6.3C755.2,928.9,727.5,942.5,718.4,985.9z
				"/>
		</g>
	</g>
	<g>
		<rect x="470.7" y="1484.2" class="st4" width="86" height="50.1"/>
	</g>
	<g>
		<rect x="897.7" y="1484.2" class="st5" width="102.2" height="50.1"/>
	</g>
	<g>
		<rect x="1726.3" y="793.2" class="st3" width="148.8" height="301.1"/>
	</g>
	<g>
		<rect x="1749.9" y="817.7" class="st6" width="101.9" height="52.9"/>
	</g>
	<g>
		<g>
			<g>
				<path class="st13" d="M1821.6,1481c0,0-11.5,10.7-9.3,18.2c2.2,7.6,12.6,12.6,14,21.9c1.4,9.3,7,14.3,12.1,14.3
					c5,0,24.1,0,24.1,0s3.7-6.5-5.3-8.5c-9-2-12.4-12.8-11.8-22.9c0.6-10.1-0.8-23.6-0.8-23.6l-19.1-4.5L1821.6,1481z"/>
			</g>
			<g>
				<path class="st13" d="M1962.7,1508.3c0,0-2.7,24.3,2.4,26.8h65.1c0,0,0.1-7.7-10.3-9.4c-10.4-1.7-28.6-7.9-31.7-21.6
					C1985.2,1490.3,1962.7,1508.3,1962.7,1508.3z"/>
			</g>
			<g>
				<path class="st4" d="M2017.3,1163.5c0,0-3.4,42.5-7.4,93.6c-5.4,69.4-12,154.7-12.6,170.9c-1.1,28.1-5.6,72.9-5.6,72.9
					s-10.7,10.7-32,6.2c0,0-19-64.1-24.4-131.9c-0.1-1.1-0.2-2.2-0.3-3.3c-5-69-12.9-214.3-12.9-214.3L2017.3,1163.5z"/>
			</g>
			<g>
				<path class="st13" d="M2017.3,1163.5c0,0-3.4,42.5-7.4,93.6l-74.7,118.1c-0.1-1.1-0.2-2.2-0.3-3.3c-5-69-12.9-214.3-12.9-214.3
					L2017.3,1163.5z"/>
			</g>
			<g>
				<path class="st4" d="M2001.7,1168.6c0,0-3.2,7.9-8.5,21c-12.5,30.5-36.9,89.1-61.1,141c-11.2,24.1-22.4,46.7-32.3,64.4
					c-40.4,72.4-53,92.6-53,92.6s-0.6-0.2-1.6-0.6c-4.2-1.8-15.8-6.9-21.1-11.6c-1.3-1.1-2.2-2.3-2.6-3.3c0,0,15.4-139.7,42.5-173.8
					c15.3-19.3,33.2-77,34.1-97.2c0.4-8.9,1.5-21.6,2.6-33.1c1-10.4,2-19.7,2.5-24.2c0.2-1.8,0.3-2.9,0.3-2.9l70.9,20.1
					L2001.7,1168.6z"/>
			</g>
		</g>
		<g>
			<path class="st13" d="M1987.3,1188.4c-31.8-1.7-45.9-5.2-64.1-9.6c-10.9-2.7-18.2-8.3-22.4-10.9c1-10.4,2-19.7,2.5-24.2
				l28.5,14.6L1987.3,1188.4z"/>
		</g>
		<g>
			<path class="st14" d="M2168.9,1086.1c0,0,16.4,0,19,0.9c2.6,0.9,16.3,16.6,15.7,20.2s-10.2,7.9-17.3,6.5
				c-7-1.4-18.6-14.5-19.7-15C2157,1095.1,2168.9,1086.1,2168.9,1086.1z"/>
		</g>
		<g>
			<path class="st1" d="M2174.7,1101.5c3.9-7,2-17.2,2-17.2s-49.9-40.4-55.2-45.3c-5.3-4.9-58.7-91.7-58.7-91.7l-74,4.8
				c0,0,91.3,104.9,105,117c22.6,20,80.3,40.6,80.3,40.6S2171.7,1107,2174.7,1101.5z"/>
		</g>
		<g>
			<path class="st7" d="M2028.8,926.1c0,0,25.1,44.1,49.6,49.9c0,0-0.7-10.8-4.7-20.3c-1.3-3-0.7-6.5,1.4-9.1c1-1.2,1.9-2.4,2.8-3.5
				c6.2-7.9,9.1-12.7,9.1-12.7l-8.3-22.4l-5.6-15.2c-2.7,4.9-5.7,9.1-8.8,12.7C2048.1,924.1,2028.8,926.1,2028.8,926.1z"/>
		</g>
		<g>
			<path class="st14" d="M2064.1,905.6c0,0-3,22.1,13.7,37.6c6.2-7.9,9.1-12.7,9.1-12.7l-8.3-22.4
				C2069.7,905.3,2064.1,905.6,2064.1,905.6z"/>
		</g>
		<g>
			<path class="st7" d="M2093.5,933.7c0,0-37.5-14.6-28-37.8c9.5-23.2,11-40.7,35.3-32.3c24.3,8.3,25.3,19.1,24,27.6
				C2123.6,899.6,2103.5,936.9,2093.5,933.7z"/>
		</g>
		<g>
			<path class="st1" d="M2072.1,1031.9c-4.1,11.8-9.4,23.8-15.7,35.2c-1.2,2.3-2.4,4.5-3.6,6.7c-0.8,1.5-1.5,2.9-2.2,4.4
				c-13.7,27.6-20,51.4-22.7,70.2c-0.5,3.6-0.9,7-1.2,10.2c-1.2,13.8-129.9-31.1-125.8-50.3c2.7-12.7,6.5-26,10-37.4
				c5.1-16.6,9.7-29,9.7-29c24.1-57.3,58.3-88.1,84.9-104.4c4.8-3,9.4-5.4,13.6-7.5c16.2-7.9,27.2-9.9,27.2-9.9s5.5,27.5,29.1,38.4
				c0,0.1,3.7,14.9,3.7,15C2083.1,987.6,2079.9,1009.2,2072.1,1031.9z"/>
		</g>
		<g>
			<path class="st5" d="M2060.1,852.8c-0.3-0.5-1-1.1-2.9-1.6c0,0,1.7-0.6,3.8-0.1c1-2.6,3.6-6.9,8.4-7c0,0-2.7,0.7-3.8,3.5
				c6.6-4.2,18.7-5.4,49.1,4.8c40.1,13.3,20,36.6,14,38.5c-6.1,1.9-17.3-10.1-27.3-11.7c-10.1-1.6-15.5,12.4-19.3,13.5
				c-3.8,1.2-1.7-2-5.7-5.2c-4-3.2-6.3,4.3-6.2,9.6c0.1,5.3-7.7,10.3-7.7,10.3s0,0-4.6-8.4c-4.6-8.4-3.3-39,1-44.5
				C2059.3,853.8,2059.7,853.3,2060.1,852.8z"/>
		</g>
		<g>
			<path class="st11" d="M1992.7,1010.9c0,0,4.3,32.6,18.9,57.3c14.6,24.7,21-13.7,21-13.7L1992.7,1010.9z"/>
		</g>
		<g>
			<path class="st4" d="M2050.7,1078.1c-13.7,27.6-20,51.4-22.7,70.2c-0.5,3.6-0.9,7-1.2,10.2c-1.2,13.8-0.5,23.9,0,29.7
				c1.3,15-111.6-14-126.7-35.7c-8.3-12,2.1-53,10.9-81.6c1.5,0.4,71.5,17,119.9-26.3L2050.7,1078.1z"/>
		</g>
		<g>
			<g>
				<path class="st4" d="M2059.2,1000.5l-7-13.9c0-0.2,0.8-24.6-13.8-38.8c-7.9-7.7-18.9-11.2-32.9-10.4c4.8-3,9.4-5.4,13.6-7.5
					c10,1.5,18.4,5.6,25,12.1C2061.3,958.8,2059.3,999.4,2059.2,1000.5z"/>
			</g>
		</g>
		<g>
			<g>
				
					<rect x="2208.1" y="1065.5" transform="matrix(6.123234e-17 -1 1 6.123234e-17 1150.2163 3343.7427)" class="st8" width="77.7" height="62.5"/>
			</g>
			<g>
				
					<rect x="2202.9" y="1090.9" transform="matrix(6.123234e-17 -1 1 6.123234e-17 1115.2715 3308.7988)" class="st8" width="18.2" height="11.7"/>
			</g>
			<g>
				
					<rect x="2200.2" y="1093.2" transform="matrix(6.123234e-17 -1 1 6.123234e-17 1105.8276 3299.354)" class="st8" width="4.9" height="7.2"/>
			</g>
			<g>
				
					<rect x="2169.2" y="1094.6" transform="matrix(6.123234e-17 -1 1 6.123234e-17 1100.0933 3293.6196)" class="st8" width="55.3" height="4.3"/>
			</g>
		</g>
		<g>
			<path class="st7" d="M2155.6,1096.3c0,0,22-3.9,25.6-3.5c3.6,0.4,16.2,6.4,16.3,7.4c0.1,1-0.5,1.9-2.7,1.9c-2.2,0-9.5-1.2-9-0.3
				c0.4,0.9,21.2,6,21.2,10.2s-11.8,11.5-21.5,11.6c-9.7,0.1-28.3-12.1-29.9-12.3C2141.7,1109.4,2155.6,1096.3,2155.6,1096.3z"/>
		</g>
		<g>
			<path class="st1" d="M2159.7,1105.3c0.4-4.3-4.1-9-4.1-9s-65.2-17.9-70.6-23.4c-5.4-5.4-30.4-92.1-30.4-92.1s-8.6-35.1-28.7-39
				c-17.5-3.4-29.6,5.3-37.5,15.5c-9.4,12.1-10.4,28.8-2.5,42c17.6,29.6,53,88.4,63.4,98.4c23,22.4,106.3,17.7,106.3,17.7
				S2158.8,1114,2159.7,1105.3z"/>
		</g>
	</g>
	<g>
		<rect x="1333.6" y="895.9" class="st5" width="14.3" height="19.5"/>
	</g>
	<g>
		<g>
			<path class="st7" d="M1181.4,1313.5c7.7-2.6,29.2-19.5,30.4-20.1c10.7-4.8-13-7.1-13-7.1s-17.2-1.7-24.8,3.8c0,0-4.7,11-3.7,14.4
				C1171.2,1308,1177.6,1314.7,1181.4,1313.5z"/>
		</g>
		<g>
			<path class="st1" d="M1197.5,1295.2c-3.4-7.9-1.3-14-1.3-14s66.8-18.3,73.3-22.4c21-13.1,50.2-98.2,50.2-98.2
				s13.7-33.9,34.4-34.9c18-0.8,28.9,9.6,35.4,20.9c7.7,13.5,6.2,30.3-3.5,42.4c-21.9,27.1-75.7,94.8-87.4,103.4
				c-18.1,13.3-93.6,11.1-93.6,11.1S1200.2,1301.4,1197.5,1295.2z"/>
		</g>
		<g>
			<path class="st4" d="M1240.6,1376.3c10.7,15,36.7,22.3,85.8,24.6c3.9,0.2,7.9,0.3,11.9,0.5c4.1,0.1,8.2,0.2,12.3,0.3
				c13.3,0.2,26.6,0,39.3-0.4c12.3-0.4,23.9-1.1,34.5-2c20.7-1.7,37.2-4.2,45.8-7.1c2.6-0.9,4.4-1.7,5.4-2.7
				c0.9-0.8,1.6-1.7,2.1-2.7c3.1-5.7,1.5-15.2-2.3-25.5c-5.5-15.1-15.5-32.2-22.2-42.9c-1.4-2.1-2.6-4-3.6-5.6c-2.1-3.1-3.3-5-3.3-5
				s-22.9,2.1-54.3,6.2c-6.4,0.8-13.2,1.7-20.2,2.7c-67.5,9.5-134.8,26.7-134.7,49.5C1237.2,1369.5,1237.8,1372.4,1240.6,1376.3z"/>
		</g>
		<g>
			<path class="st13" d="M1323.4,1400.6c4.1,0.1,23.1,0.9,27.2,1c13.3,0.2,26.6,0,39.3-0.4l11.9-47.9
				C1383.4,1378.9,1329.3,1398.9,1323.4,1400.6z"/>
		</g>
		<g>
			<path class="st15" d="M1363.1,1536.1h-65.4c1-2.5,3.5-5.7,9.6-6.8c10.3-1.8,28.2-7.4,25.9-22.3c-2.3-15.1,22.8-17,22.8-17
				S1366.4,1530.3,1363.1,1536.1z"/>
		</g>
		<g>
			<path class="st4" d="M1238.7,1373.2c0,0,81.2,127.7,87.9,142.9c0,0,27.6,2.6,34.3-17.2c0,0-48.3-134.8-69.5-145.9
				C1270.3,1342,1238.7,1373.2,1238.7,1373.2z"/>
		</g>
		<g>
			<g>
				<path class="st7" d="M1365.7,1118.6c0,0-21.6,42.2-45.9,48.1c0,0,0.5-8.3,3.2-16.7c1.7-5.4,0.8-11.3-2.8-15.7
					c-0.1-0.1-0.1-0.2-0.2-0.2c-6.2-7.8-9.1-12.6-9.1-12.6l8.1-22.3l0.6-11.4c2.7,4.9,5.7,9.3,8.9,12.8
					C1344.5,1118.9,1365.7,1118.6,1365.7,1118.6z"/>
			</g>
			<g>
				<path class="st14" d="M1329.4,1100.3c0,0,7,18.3-9.4,33.8c-6.2-7.8-9.1-12.6-9.1-12.6l8.1-22.3
					C1327.8,1096.4,1329.4,1100.3,1329.4,1100.3z"/>
			</g>
			<g>
				<path class="st7" d="M1309.2,1133.4c0,0,31.6-24.3,16.2-43.8c-15.5-19.5-21.8-35.7-42.7-21c-20.9,14.7-18.8,25.2-15.3,33
					S1300.6,1139.3,1309.2,1133.4z"/>
			</g>
			<g>
				<path class="st5" d="M1318.6,1047.1c0.1-0.6,0.7-1.3,2.3-2.4c0,0-1.8-0.1-3.6,0.9c-1.7-2.2-5.4-5.6-10-4.3c0,0,2.8-0.1,4.6,2.3
					c-7.4-2.1-19.4,0.1-45.5,18.2c-34.5,23.9-8.9,40.5-2.6,40.6c6.3,0.1,13.6-14.4,22.8-18.8c9.1-4.4,18.2,7.5,22.2,7.5
					c4,0,1-2.4,4-6.6c2.9-4.2,7.2,2.4,8.6,7.4c1.4,5.1,10.2,7.6,10.2,7.6s0,0,2-9.3c2-9.3-7.7-38.1-13.4-42.1
					C1319.6,1047.8,1319.1,1047.4,1318.6,1047.1z"/>
			</g>
		</g>
		<g>
			<path class="st15" d="M1576.5,1498c0,0,8.2,12.4,10.1,16.4c1.9,4-1.8,12.5-7.4,13.8c-4.9,1.1-5.7,9.9-5.7,9.9h23.9
				c2.5,0,4.8-1.4,5.8-3.5c3.4-7.4,4.1-17.1,4.8-20.3c1.4-6.8,4.3-12.5,3-19.4c-1.2-6.9-13-10.9-34.5-10.8
				C1552.9,1484.2,1576.5,1498,1576.5,1498z"/>
		</g>
		<g>
			<path class="st1" d="M1506.3,1343.9c-14.8,21.7-151.8,3.3-142.4-8.3c2.4-3,1-5.9,1.4-10.1c2.4-20.2-13.7-51.5-20.3-63.6
				c-1.6-2.8-2.6-4.6-2.8-4.9c-6.3-11.3-11.7-23.2-15.8-34.8c-8-22.4-11.3-43.9-7.5-57.9c0-0.1,0-0.1,0.1-0.2
				c23.4-11,31.2-49.2,31.2-49.2s81.1,9.8,126.8,116c0,0,2.6,6.8,6,17.1l0,0c1.1,3.2,2.2,6.7,3.4,10.4c6.1,19.2,11.9,44.2,16.6,62.8
				c0.2,0.6,0.3,1.3,0.5,2C1505.7,1331,1508.8,1340.2,1506.3,1343.9z"/>
		</g>
		<g>
			<path class="st4" d="M1579,1506.4c-3.5,0-13.8,1.5-28,3.8c-51.3,8.2-113.8,25.2-152.5,25.2c-8.5,0-14.8-6-17.4-13.9v0
				c-15.9-48.5,20.9-191.7,20.9-191.7s13.2,1.7,39.8,3.7c27.6,2,56.8,6.4,61.6,15.7c0.6,1.1,0.8,2.9,0.7,5.1
				c-0.2,4-1.3,9.6-3.3,16.4c-0.3,1.2-0.7,2.3-1.1,3.6c-7.3,23.9-23.1,60-41,92.2c48.4,2.8,114.1,13.5,114.1,13.5
				C1583.5,1492.2,1579,1506.4,1579,1506.4z"/>
		</g>
		<g>
			<path class="st13" d="M1504,1352.3c-0.2,4.4-1.3,10.6-3.3,18.1c-0.3,1.3-0.7,2.6-1.1,3.9c-27.3-1.8-92.6-37.1-91.5-37.4
				c12.5-3.4,23.6-5.7,33.6-7.2c27.6,2.5,56.8,7.7,61.6,18.8C1503.7,1349.4,1503.9,1350.7,1504,1352.3z"/>
		</g>
		<g>
			<path class="st16" d="M1389,1186.2c0,0,17.4,120.2-23.7,139.2c2.4-20.2-13.7-51.5-20.3-63.6
				C1351.3,1229.2,1366.8,1194.9,1389,1186.2z"/>
		</g>
		<g>
			<path class="st4" d="M1364,1118.1c0,0-32.1,12.2-30.7,41.7c1,21.5,31.7,65.8,31.7,65.8l3.7-5.1c0,0-29.7-56-28.2-66.5
				c2-13.5,18-35.9,36.7-30.9L1364,1118.1z"/>
		</g>
		<g>
			<path class="st4" d="M1506.3,1343.9c-14.8,21.7-168.4,7.6-159-4.1c2.4-3,6.2-11.9,6.7-16.2c0.2-2,11.6-2.3,11.5-4.5
				c-0.9-19.9-14.5-46.4-20.5-57.3c-1.6-2.8-2.6-4.6-2.8-4.9l5.7-7.8l20.8-28.6c0,0,8.6,7.1,23.9,14.4c20.1,9.5,51.6,19.1,90.3,13
				l0,0c1.1,3.2,2.2,6.7,3.4,10.4c6.1,19.2,11.9,44.2,16.6,62.8c0.2,0.6,0.3,1.3,0.5,2C1505.7,1331,1508.8,1340.2,1506.3,1343.9z"/>
		</g>
		<g>
			<path class="st13" d="M1392.7,1234.9c0.6,35.7-3.7,71.7-27.2,82.6c-5.3-22.8-13.7-43.6-20.4-55.7c0.8-4.2,1.8-8.5,2.9-12.7
				l20.8-28.6C1368.7,1220.5,1377.4,1227.7,1392.7,1234.9z"/>
		</g>
		<g>
			<g>
				<g>
					
						<rect x="1098.2" y="1291.3" transform="matrix(-0.849 -0.5283 0.5283 -0.849 1487.7227 3022.9895)" class="st5" width="155.1" height="15.4"/>
				</g>
				<g>
					<g>
						<path class="st5" d="M1084.3,1246.6l3.5,2.2l2.7-8.3c2.3-7.1,10.5-10.4,16.6-6.6l45.6,28.4l7.2-11.5l-57.7-35.9
							c-5.6-3.5-13.2-0.7-15.6,5.8l-5.7,15C1079.3,1239.7,1080.7,1244.3,1084.3,1246.6z"/>
					</g>
				</g>
				<g>
					
						<rect x="1120.7" y="1245.4" transform="matrix(-0.849 -0.5283 0.5283 -0.849 1440.103 2921.4482)" class="st5" width="33.6" height="19.2"/>
				</g>
			</g>
			<g>
				<g>
					
						<ellipse transform="matrix(0.5283 -0.8491 0.8491 0.5283 -530.2943 1564.2806)" class="st13" cx="1142.7" cy="1259.4" rx="2.1" ry="2.1"/>
				</g>
				<g>
					
						<ellipse transform="matrix(0.5284 -0.849 0.849 0.5284 -529.6803 1550.9379)" class="st13" cx="1131.2" cy="1252.2" rx="2.1" ry="2.1"/>
				</g>
			</g>
		</g>
		<g>
			<path class="st7" d="M1200,1329.7c8.2,0,33.9-9.2,35.3-9.3c11.6-1.1-10.1-10.9-10.1-10.9s-16.6-5.5-19.7-5.2
				c-1,0.1-3.3,0.5-5.1,0.9l6.5,4c0,0-18.4,4-18.5,7.5C1188.2,1320.3,1196,1329.7,1200,1329.7z"/>
		</g>
		<g>
			<path class="st1" d="M1226,1314.9c-4-7.6-2.4-13.8-2.4-13.8s65.1-23.5,71.3-28.1c19.9-14.7,42.4-101.8,42.4-101.8
				s11-34.9,31.6-37.5c17.9-2.3,29.6,7.3,36.9,18.1c8.7,12.8,8.6,29.8-0.2,42.6c-19.7,28.8-68,100.4-79.1,109.9
				c-17,14.7-92.5,18.3-92.5,18.3S1229.1,1320.8,1226,1314.9z"/>
		</g>
		<g>
			<path class="st7" d="M1181.4,1313.5c0,0,5.6-1.2,7-3.6c1.9-3.2,2.6-8.5-2.2-9.1c-4.9-0.6-16.5,1.8-15.8,3.9
				C1172,1310.4,1178.3,1313.3,1181.4,1313.5z"/>
		</g>
	</g>
	<g>
		<g>
			<circle class="st1" cx="1341.9" cy="858.3" r="42.4"/>
		</g>
		<g>
			<circle class="st3" cx="1341.9" cy="858.3" r="30"/>
		</g>
		<g>
			<circle class="st5" cx="1341.9" cy="858.3" r="8.3"/>
		</g>
		<g>
			<path class="st5" d="M1341.9,859c-0.1,0-0.3,0-0.4-0.1c-0.3-0.2-0.4-0.6-0.2-0.9l12.8-18.5c0.2-0.3,0.6-0.4,0.9-0.2
				c0.3,0.2,0.4,0.6,0.2,0.9l-12.8,18.5C1342.3,858.8,1342.1,859,1341.9,859z"/>
		</g>
	</g>
	<g>
		<rect x="1444.1" y="901.5" class="st5" width="10.2" height="13.9"/>
	</g>
	<g>
		<g>
			<circle class="st2" cx="1450" cy="874.6" r="30.2"/>
		</g>
		<g>
			<circle class="st3" cx="1450" cy="874.6" r="21.4"/>
		</g>
		<g>
			<circle class="st5" cx="1450" cy="874.6" r="5.9"/>
		</g>
		<g>
			<path class="st5" d="M1450,875.1c-0.1,0-0.2,0-0.3-0.1c-0.2-0.2-0.3-0.5-0.1-0.7l9.1-13.2c0.2-0.2,0.5-0.3,0.7-0.1
				c0.2,0.2,0.3,0.5,0.1,0.7l-9.1,13.2C1450.3,875.1,1450.2,875.1,1450,875.1z"/>
		</g>
	</g>
	<g>
		<g>
			<g>
				<g>
					<path class="st1" d="M1169.8,1219.1c-0.7-1.3-1.5-2.5-2.3-3.7c-3.4-5.3-7.4-10.1-11.8-14.3c-10.5-10.1-23.6-17.1-38.1-20.2
						c-5.6-1.2-11.2-1.8-16.8-1.8c-2.2,0-4.3,0.1-6.5,0.3c-12.8,1.1-25.3,5.3-36.4,12.4c-4.3,2.8-8.2,5.9-11.8,9.3
						c-11.4,10.8-19.3,24.8-22.7,40.6c-4.5,20.7-0.6,41.9,10.9,59.6c3.4,5.3,7.4,10,11.8,14.3c10.5,10.1,23.6,17.1,38.1,20.2
						c5.6,1.2,11.3,1.8,16.8,1.8c15.1,0,29.9-4.3,42.8-12.7c4.3-2.8,8.2-5.9,11.8-9.3c11.4-10.8,19.3-24.9,22.7-40.6
						C1182.6,1255.7,1179.5,1236,1169.8,1219.1z M1163.8,1271.9c-1.5,7.2-4.3,14-8.1,20.2c-2.5,4.1-5.5,8-9,11.5
						c-3.3,3.3-6.9,6.3-10.9,8.9c-0.2,0.2-0.5,0.3-0.7,0.4c-14.3,9-31.2,11.9-47.7,8.4c-6.4-1.4-12.5-3.7-18.1-6.9
						c-4.4-2.4-8.4-5.4-12.1-8.8c-3.9-3.6-7.3-7.7-10.3-12.3c-0.3-0.4-0.5-0.9-0.8-1.3c-8.7-14.2-11.6-30.8-8.1-47.1
						c0.7-3.3,1.6-6.5,2.8-9.5c1.4-3.7,3.2-7.3,5.2-10.6c0.5-0.9,1.1-1.7,1.7-2.6c0.1-0.1,0.1-0.2,0.2-0.3
						c4.7-6.8,10.8-12.8,18-17.4c8-5.2,16.8-8.4,25.9-9.7c1.2-0.2,2.4-0.3,3.6-0.4c1.7-0.1,3.4-0.2,5.2-0.2c2,0,4.1,0.1,6.2,0.3
						c2.5,0.2,5,0.6,7.5,1.2c5.4,1.2,10.6,3,15.5,5.4c0,0,0.1,0,0.1,0c7.9,4,14.9,9.5,20.5,16.5c1.2,1.4,2.3,2.9,3.3,4.4
						c0.4,0.5,0.7,1.1,1.1,1.6c0.3,0.4,0.5,0.8,0.8,1.3c1.1,1.7,2,3.5,2.9,5.3C1165.1,1242.9,1166.9,1257.5,1163.8,1271.9z"/>
				</g>
			</g>
			<g>
				<g>
					<polygon class="st1" points="1101.4,1267 1033.9,1231.6 1040.9,1218.4 1100.6,1249.7 1157.2,1213.1 1165.3,1225.7 					"/>
				</g>
			</g>
			<g>
				<g>
					<polygon class="st1" points="1066.1,1318.7 1054,1309.9 1093.5,1256 1091.9,1186.7 1106.8,1186.4 1108.5,1260.7 					"/>
				</g>
			</g>
			<g>
				<g>
					
						<rect x="1116" y="1250.4" transform="matrix(0.7799 -0.6259 0.6259 0.7799 -557.8164 986.1659)" class="st1" width="14.9" height="71.8"/>
				</g>
			</g>
		</g>
		<g>
			<circle class="st9" cx="1101" cy="1258.3" r="14.3"/>
		</g>
	</g>
	<g>
		<path class="st3" d="M2545.5,478.4H431.4c7.1-7.7,14.7-15.2,22.8-22.3h2081.1C2539.3,463.3,2542.7,470.7,2545.5,478.4z"/>
	</g>
	<g>
		<rect x="560.7" y="449.3" class="st6" width="25.8" height="39.4"/>
	</g>
	<g>
		<rect x="466.9" y="541.2" class="st3" width="93.8" height="36.2"/>
	</g>
	<g class="st17">
		<rect x="513.8" y="588.3" class="st3" width="93.8" height="36.2"/>
	</g>
	<g class="st17">
		<rect x="573.6" y="541.2" class="st3" width="93.8" height="36.2"/>
	</g>
	<g class="st17">
		<rect x="686.2" y="705.2" class="st3" width="93.8" height="36.2"/>
	</g>
	<g class="st17">
		<rect x="746" y="658.1" class="st3" width="93.8" height="36.2"/>
	</g>
	<g class="st17">
		<rect x="2302.2" y="820" class="st3" width="93.8" height="36.2"/>
	</g>
	<g class="st17">
		<rect x="2362" y="772.9" class="st3" width="93.8" height="36.2"/>
	</g>
	<g class="st17">
		<rect x="2408.9" y="725.7" class="st3" width="93.8" height="36.2"/>
	</g>
	<g class="st17">
		<rect x="2255.3" y="772.9" class="st3" width="93.8" height="36.2"/>
	</g>
	<g class="st17">
		<rect x="1127.3" y="778.3" class="st3" width="93.8" height="36.2"/>
	</g>
	<g class="st17">
		<rect x="1080.4" y="731.2" class="st3" width="93.8" height="36.2"/>
	</g>
	<g class="st17">
		<rect x="1372.9" y="672" class="st3" width="93.8" height="36.2"/>
	</g>
	<g class="st17">
		<rect x="1828.2" y="672" class="st3" width="93.8" height="36.2"/>
	</g>
	<g class="st17">
		<rect x="1897" y="719.2" class="st3" width="93.8" height="36.2"/>
	</g>
	<g>
		<g>
			<path class="st11" d="M2068.5,1535.4H2179c5.1,0,9.2-4.1,9.2-9.2v-0.1c0-5.1-4.1-9.2-9.2-9.2h-110.5c-5.1,0-9.2,4.1-9.2,9.2v0.1
				C2059.3,1531.3,2063.4,1535.4,2068.5,1535.4z"/>
		</g>
		<g>
			<path class="st11" d="M2275.8,1535.4h-123.2c-6.8,0-12.4-5.6-12.4-12.4v-94c0-6.8,5.6-12.4,12.4-12.4h123.2
				c6.8,0,12.4,5.6,12.4,12.4v94C2288.2,1529.8,2282.6,1535.4,2275.8,1535.4z"/>
		</g>
		<g>
			<path class="st11" d="M2172.6,1417.1c0,0,30.7-19.5,60-19.7c19.1-0.1,40.9,18.9,42.2,19.1c3.3,0.5-11.1,0.7-11.1,0.7
				s-21.6-12.7-31.3-13c-11.7-0.4-41.4,14.1-41.4,14.1L2172.6,1417.1z"/>
		</g>
		<g>
			<path class="st1" d="M2290.2,1535.4H2167c-6.8,0-12.4-5.6-12.4-12.4v-94c0-6.8,5.6-12.4,12.4-12.4h123.2
				c6.8,0,12.4,5.6,12.4,12.4v94C2302.6,1529.8,2297,1535.4,2290.2,1535.4z"/>
		</g>
	</g>
</g>
</svg>
