<?xml version="1.0" encoding="utf-8"?>
<!-- Generator: Adobe Illustrator 24.3.0, SVG Export Plug-In . SVG Version: 6.00 Build 0)  -->
<svg version="1.1" xmlns="http://www.w3.org/2000/svg" xmlns:xlink="http://www.w3.org/1999/xlink" x="0px" y="0px"
	 viewBox="0 0 1984.25 1417.32" style="enable-background:new 0 0 1984.25 1417.32;" xml:space="preserve">
<style type="text/css">
	.st0{fill:#F0F4FB;}
	.st1{fill:#C42228;}
	.st2{fill:#176232;}
	.st3{fill:#F78F20;}
	.st4{fill:#FFFFFF;}
	.st5{fill:#126592;}
	.st6{fill:#A7A9AC;}
	.st7{fill:#C5C5C4;}
	.st8{fill:#157EC3;}
	.st9{fill:#ACC9EA;}
	.st10{fill:#BFD9F1;}
	.st11{fill:#8CB0DD;}
	.st12{fill:#E2EAF1;}
	.st13{fill:#DAEAF8;}
	.st14{fill:none;stroke:#C5C5C4;stroke-width:1.7091;stroke-linecap:round;stroke-linejoin:round;stroke-miterlimit:10;}
	.st15{fill:#4F2A18;}
	.st16{fill:#F4F4F2;}
	.st17{fill:#E5E5E5;}
	.st18{fill:#E2DDAA;}
	.st19{fill:#F9F3A2;}
	.st20{fill:#314097;}
	.st21{fill:#BAD768;}
	.st22{fill:#A97C50;}
	.st23{fill:#144F27;}
	.st24{fill:#8B5E3C;}
	.st25{fill:#11385A;}
</style>
<g id="linework">
	<path class="st0" d="M1033.64,302.71c0,0-81.76,63.54-262.78,85.55c-219.8,26.72-226.32,190.13-231.56,305.68
		c-12.2,269.07,272.17,442.16,795.39,263.84S1516.22-49.69,1033.64,302.71z"/>
	<ellipse class="st0" cx="992.13" cy="1271.13" rx="619.42" ry="27.52"/>
	<g>
		<g id="XMLID_2_">
			<g>
				<path class="st1" d="M979.34,431.51c0,2.01-1.64,3.65-3.66,3.65c-2.01,0-3.65-1.64-3.65-3.65c0-2.02,1.64-3.66,3.65-3.66
					C977.7,427.85,979.34,429.49,979.34,431.51z"/>
				<path class="st1" d="M687.57,445.62c2.01,0,3.65,1.63,3.65,3.65c0,2.02-1.64,3.65-3.65,3.65c-2.02,0-3.66-1.63-3.66-3.65
					C683.91,447.25,685.55,445.62,687.57,445.62z"/>
				<path class="st2" d="M826.51,543.37c2.02,0,3.66,1.64,3.66,3.65c0,2.02-1.64,3.66-3.66,3.66c-2.01,0-3.65-1.64-3.65-3.66
					C822.86,545.01,824.5,543.37,826.51,543.37z"/>
				<path class="st3" d="M691.22,646.2c2.02,0,3.65,1.63,3.65,3.65c0,2.02-1.63,3.66-3.65,3.66s-3.65-1.64-3.65-3.66
					C687.57,647.83,689.2,646.2,691.22,646.2z"/>
				<path class="st3" d="M1104.45,536.06c2.02,0,3.66,1.64,3.66,3.66c0,2.01-1.64,3.65-3.66,3.65c-2.01,0-3.65-1.64-3.65-3.65
					C1100.8,537.7,1102.44,536.06,1104.45,536.06z"/>
				<path class="st4" d="M691.22,449.27c0-2.02-1.64-3.65-3.65-3.65c-2.02,0-3.66,1.63-3.66,3.65c0,2.02,1.64,3.65,3.66,3.65
					C689.58,452.92,691.22,451.29,691.22,449.27z M630.37,437.72c0,0,95.61,1.44,112.86,3.59c0,0-8.12,88.56-6.64,136.52
					c-17.73-1.29-83.41-5.74-106.97-3.28C629.62,574.55,622.91,476.15,630.37,437.72z"/>
				<path class="st4" d="M694.87,649.85c0-2.02-1.63-3.65-3.65-3.65s-3.65,1.63-3.65,3.65c0,2.02,1.63,3.66,3.65,3.66
					S694.87,651.87,694.87,649.85z M750.23,638.03c0,0-1.07,92.65,4.6,139.53c0.06,0.48,0.12,0.95,0.18,1.42
					c0,0-84.35,0.26-111.34,5.31c0,0-0.28-2.45-0.73-6.73c-2.53-23.77-10.42-104.03-5.5-134.11
					C637.44,643.45,732.86,637.26,750.23,638.03z"/>
				<path class="st4" d="M1108.11,539.72c0-2.02-1.64-3.66-3.66-3.66c-2.01,0-3.65,1.64-3.65,3.66c0,2.01,1.64,3.65,3.65,3.65
					C1106.47,543.37,1108.11,541.73,1108.11,539.72z M1046.6,517.92c13.81,1.23,76.24,13.44,100.95,18.35c6.28,1.23,10.12,2,10.12,2
					c0.02,0.72,0.03,1.47,0.03,2.25c0,16.55-4.79,44.78-10.15,71.27c-6.87,34.04-14.74,65.24-14.74,65.24
					c-26.1-8.58-109.67-20.04-109.67-20.04C1035.13,611.79,1046.6,517.92,1046.6,517.92z"/>
				<path class="st4" d="M830.17,547.02c0-2.01-1.64-3.65-3.66-3.65c-2.01,0-3.65,1.64-3.65,3.65c0,2.02,1.64,3.66,3.65,3.66
					C828.53,550.68,830.17,549.04,830.17,547.02z M777.49,677.18c1.48-47.96-6.64-136.52-6.64-136.52
					c17.25-2.16,112.86-3.59,112.86-3.59c7.46,38.43,0.75,136.83,0.75,136.83C860.9,671.44,795.22,675.89,777.49,677.18z"/>
				<path class="st4" d="M972.03,431.51c0,2.01,1.64,3.65,3.65,3.65c2.02,0,3.66-1.64,3.66-3.65c0-2.02-1.64-3.66-3.66-3.66
					C973.67,427.85,972.03,429.49,972.03,431.51z M917.73,422.68c17.33-1.45,112.91,1.07,112.91,1.07
					c7.17,35.24-0.79,140.97-0.79,140.97c-27.18-4-111.47-1.01-111.47-1.01C922.46,517.12,917.73,422.68,917.73,422.68z"/>
				<path class="st5" d="M889.94,1256.63v14.5h-64.08v-12.5c0-4.03,3.26-7.29,7.29-7.29h13.9h21.7h15.89
					C887.57,1251.34,889.94,1253.71,889.94,1256.63z"/>
				<rect x="847.05" y="794.83" class="st5" width="21.7" height="456.51"/>
				<path class="st5" d="M868.75,368.07v13.4h-21.7v-12.89c0-4.74,3.82-8.58,8.57-8.58h5.07C865.14,360,868.75,363.62,868.75,368.07
					z"/>
				<path class="st6" d="M629.62,574.55c23.56-2.46,89.24,1.99,106.97,3.28c0.05,1.5,0.1,2.96,0.17,4.37c0,0-84.1-6.47-111.42-3.59
					c0,0-3.59-105.97,5.03-140.89C622.91,476.15,629.62,574.55,629.62,574.55z"/>
				<path class="st6" d="M777.49,677.18c17.73-1.29,83.41-5.74,106.97-3.28c0,0,6.71-98.4-0.75-136.83
					c8.62,34.92,5.03,140.89,5.03,140.89c-27.32-2.88-111.42,3.59-111.42,3.59C777.39,680.14,777.44,678.68,777.49,677.18z"/>
				<path class="st7" d="M1029.85,564.72c0,0,7.96-105.73,0.79-140.97c0,0-95.58-2.52-112.91-1.07c0,0,4.73,94.44,0.65,141.03
					C918.38,563.71,1002.67,560.72,1029.85,564.72z M1147.55,611.79v149.48c0,8.99-7.3,16.29-16.29,16.29H754.83
					c-5.67-46.88-4.6-139.53-4.6-139.53c-17.37-0.77-112.79,5.42-112.79,5.42c-4.92,30.08,2.97,110.34,5.5,134.11h-58.41
					c-8.99,0-16.29-7.3-16.29-16.29V415.03c0-8.99,7.3-16.29,16.29-16.29h546.73c8.99,0,16.29,7.3,16.29,16.29v121.24
					c-24.71-4.91-87.14-17.12-100.95-18.35c0,0-11.47,93.87-23.46,139.07c0,0,83.57,11.46,109.67,20.04
					C1132.81,677.03,1140.68,645.83,1147.55,611.79z M888.74,677.96c0,0,3.59-105.97-5.03-140.89c0,0-95.61,1.43-112.86,3.59
					c0,0,8.12,88.56,6.64,136.52c-0.05,1.5-0.1,2.96-0.17,4.37C777.32,681.55,861.42,675.08,888.74,677.96z M736.59,577.83
					c-1.48-47.96,6.64-136.52,6.64-136.52c-17.25-2.15-112.86-3.59-112.86-3.59c-8.62,34.92-5.03,140.89-5.03,140.89
					c27.32-2.88,111.42,3.59,111.42,3.59C736.69,580.79,736.64,579.33,736.59,577.83z"/>
				<path class="st8" d="M1164.75,540.52v226.64c0,15.28-12.38,27.67-27.66,27.67H868.75h-21.7H643.67v-10.54
					c26.99-5.05,111.34-5.31,111.34-5.31c-0.06-0.47-0.12-0.94-0.18-1.42h376.43c8.99,0,16.29-7.3,16.29-16.29V611.79
					c5.36-26.49,10.15-54.72,10.15-71.27H1164.75z"/>
				<path class="st8" d="M1164.75,409.15v131.37h-7.05c0-0.78-0.01-1.53-0.03-2.25c0,0-3.84-0.77-10.12-2V415.03
					c0-8.99-7.3-16.29-16.29-16.29H584.53c-8.99,0-16.29,7.3-16.29,16.29v346.24c0,8.99,7.3,16.29,16.29,16.29h58.41
					c0.45,4.28,0.73,6.73,0.73,6.73v10.54h-64.96c-15.29,0-27.66-12.39-27.66-27.67V409.15c0-15.28,12.37-27.68,27.66-27.68h268.34
					h21.7h268.34C1152.37,381.47,1164.75,393.87,1164.75,409.15z"/>
			</g>
			<g>
			</g>
		</g>
	</g>
	<g>
		<g id="XMLID_3_">
			<g>
				<polygon class="st9" points="708.66,1224.7 708.66,1252.37 675.24,1290.23 675.24,1257.58 679.6,1257.58 				"/>
				<polygon class="st10" points="708.66,1197.02 708.66,1224.7 679.6,1257.58 679.6,1229.9 				"/>
				<polygon class="st11" points="708.66,1197.02 679.6,1229.9 657.11,1229.9 681.97,1202.23 681.97,1197.02 				"/>
				<polygon class="st9" points="693.28,1107.96 693.28,1133.58 684.26,1143.18 684.26,1143.19 675.6,1152.41 675.6,1124.73 
					675.6,1124.72 693.27,1107.95 				"/>
				<polygon class="st11" points="693.27,1107.95 675.6,1124.72 675.6,1124.73 663.17,1124.73 663.17,1124.72 680.15,1107.95 				
					"/>
				<polygon class="st10" points="688.7,1071.21 688.7,1099.5 680.15,1107.95 663.17,1124.72 663.17,1097.05 				"/>
				<polygon class="st11" points="688.7,1071.2 688.7,1071.21 663.17,1097.05 448.71,1097.05 499.83,1071.2 				"/>
				<polygon class="st10" points="684.26,1143.19 684.26,1166.55 673.45,1177.37 648.59,1202.23 648.59,1174.55 672.69,1152.41 
					675.6,1152.41 				"/>
				<polygon class="st9" points="681.97,1197.02 681.97,1202.23 657.11,1229.9 657.11,1202.23 681.97,1177.37 				"/>
				<polygon class="st11" points="681.97,1177.37 657.11,1202.23 648.59,1202.23 673.45,1177.37 				"/>
				<path class="st12" d="M679.6,1229.9v27.68h-4.36h-210.1v-27.68h191.97H679.6z M657.11,1252.37v-17.26H481.36v17.26H657.11z"/>
				<polygon class="st13" points="675.6,1124.73 675.6,1152.41 672.69,1152.41 657.11,1152.41 634.59,1152.41 576.21,1152.41 
					576.21,1147.2 620.35,1147.2 620.35,1129.94 620.35,1124.73 663.17,1124.73 				"/>
				<path class="st13" d="M675.24,1257.58v32.65H460.78v-32.65h4.36H675.24z M538.04,1282.44v-17.26h-60.76v17.26H538.04z"/>
				<polygon class="st11" points="672.69,1152.41 648.59,1174.55 634.59,1174.55 657.11,1152.41 				"/>
				<path class="st12" d="M663.17,1124.72v0.01h-42.82H461.14h-12.43v-27.68h214.46V1124.72z M648.59,1119.52v-17.26h-44.14v17.26
					H648.59z"/>
				<rect x="481.36" y="1235.11" class="st11" width="175.75" height="17.26"/>
				<path class="st13" d="M657.11,1202.23v27.67H465.14h-22.49v-27.67h26.11h179.83H657.11z M643.81,1224.7v-17.27h-85.13v17.27
					H643.81z"/>
				<polygon class="st9" points="657.11,1152.41 634.59,1174.55 634.59,1152.41 				"/>
				<path class="st12" d="M648.59,1174.55v27.68H468.76v-22.47v-5.21h8.52h157.31H648.59z M595.54,1197.02v-17.26H478.72v17.26
					H595.54z"/>
				<rect x="604.45" y="1102.26" class="st11" width="44.14" height="17.26"/>
				<rect x="558.68" y="1207.43" class="st11" width="85.13" height="17.27"/>
				<path class="st13" d="M634.59,1152.41v22.14H477.28v-11.07v-11.07h98.93H634.59z M528.56,1172.11v-17.26h-44.14v17.26H528.56z"
					/>
				<rect x="576.21" y="1129.94" class="st11" width="44.14" height="17.26"/>
				<path class="st13" d="M620.35,1124.73v5.21h-44.14v17.26v5.21h-98.93h-16.14v-27.68H620.35z M564.87,1147.2v-17.26h-44.14v17.26
					H564.87z"/>
				<rect x="478.72" y="1179.76" class="st11" width="116.82" height="17.26"/>
				<rect x="520.73" y="1129.94" class="st11" width="44.14" height="17.26"/>
				<rect x="477.28" y="1265.18" class="st11" width="60.76" height="17.26"/>
				<rect x="484.42" y="1154.85" class="st11" width="44.14" height="17.26"/>
				<polygon class="st11" points="477.28,1163.48 477.28,1174.55 468.76,1174.55 				"/>
				<polygon class="st11" points="468.76,1179.76 468.76,1202.23 442.65,1202.23 				"/>
			</g>
			<g>
			</g>
		</g>
	</g>
	<g>
		<g>
			<line class="st14" x1="784.88" y1="573.52" x2="868.55" y2="569.86"/>
			<line class="st14" x1="784.88" y1="586.67" x2="868.55" y2="583.01"/>
			<line class="st14" x1="784.88" y1="599.81" x2="868.55" y2="596.16"/>
			<line class="st14" x1="784.88" y1="612.96" x2="868.55" y2="609.31"/>
			<line class="st14" x1="784.88" y1="626.11" x2="868.55" y2="622.45"/>
			<line class="st14" x1="787.99" y1="639.26" x2="871.66" y2="635.6"/>
		</g>
		<g>
			<line class="st14" x1="933.26" y1="459.22" x2="1017.01" y2="458.01"/>
			<line class="st14" x1="932.87" y1="472.36" x2="1016.61" y2="471.15"/>
			<line class="st14" x1="932.48" y1="485.5" x2="1016.22" y2="484.3"/>
			<line class="st14" x1="932.08" y1="498.64" x2="1015.83" y2="497.44"/>
			<line class="st14" x1="931.69" y1="511.78" x2="970.68" y2="511.22"/>
		</g>
		<g>
			<line class="st14" x1="722.64" y1="474.69" x2="638.96" y2="471.04"/>
			<line class="st14" x1="722.64" y1="487.84" x2="638.96" y2="484.19"/>
			<line class="st14" x1="722.64" y1="500.99" x2="638.96" y2="497.33"/>
			<line class="st14" x1="722.64" y1="514.14" x2="638.96" y2="510.48"/>
			<line class="st14" x1="722.64" y1="527.28" x2="638.96" y2="523.63"/>
			<line class="st14" x1="719.53" y1="540.43" x2="635.86" y2="536.77"/>
		</g>
		<g>
			<line class="st14" x1="734.06" y1="673.99" x2="650.34" y2="676.26"/>
			<line class="st14" x1="735.01" y1="687.1" x2="651.28" y2="689.37"/>
			<line class="st14" x1="735.96" y1="700.21" x2="652.23" y2="702.49"/>
			<line class="st14" x1="736.9" y1="713.33" x2="653.18" y2="715.6"/>
			<line class="st14" x1="737.85" y1="726.44" x2="654.13" y2="728.71"/>
			<line class="st14" x1="699.07" y1="740.77" x2="651.98" y2="742.05"/>
		</g>
	</g>
	<g>
		<g id="XMLID_1_">
			<g>
				<path class="st15" d="M1102.08,649.67c-1.45,0.11-2.94-0.08-4.45-0.24c-0.35-0.04-0.72-0.08-1.07-0.09
					c-49.87-78.98-109.1-173.08-112.11-179.24c-5.24-10.72,1.03-8.16,1.03-8.16l87.45,141.96
					C1072.93,603.9,1085.8,624.07,1102.08,649.67z"/>
				<path class="st15" d="M1126.65,688.34c-1.16,0.2-2.95,0.49-4.9,0.82c-5.86-9.25-12.09-19.11-18.52-29.29
					c1.55-0.5,3.1-0.98,4.65-1.1C1113.99,668.38,1120.37,678.47,1126.65,688.34z"/>
				<path class="st15" d="M1168.3,754.68c2.99,6.55-2.91,3.46-2.91,3.46s-18.48-29.18-43.64-68.98c1.95-0.33,3.74-0.62,4.9-0.82
					C1147.83,721.75,1167.43,752.77,1168.3,754.68z"/>
				<path d="M1391.62,512.61c-0.46-0.15-0.86-0.38-1.2-0.69h-0.01c-2.51-2.25-1.99-8.31-1.99-11.57c0-5.09,3.78-7.63,6.31-14
					c2.52-6.36-3.79-15.69-9.68-12.3c-5.88,3.4-5.46,0.43-8.41-17.39c-2.94-17.81-25.23-17.81-25.23-17.81
					c-0.83-0.41-1.48-0.88-1.97-1.41c-4.51-4.82,4.87-13.93,16.23-16.19c11.74-2.33,25.69,3.6,25.69,3.6
					c22.72,5.09,29.44,25.45,29.44,25.45c10.94,36.9-11.77,54.29-22.71,60.66C1395.12,512.69,1393.06,513.07,1391.62,512.61z"/>
				
					<rect x="1352.49" y="692.49" transform="matrix(0.9144 -0.4047 0.4047 0.9144 -166.7676 616.9598)" class="st3" width="46.69" height="20.85"/>
				<polygon class="st4" points="1395.25,652.42 1397.93,657.96 1321.69,691.85 1320.48,691.42 1320.57,691.17 1390.63,654.81 
					1392.54,653.82 				"/>
				<polygon class="st16" points="1391.46,651.6 1392.54,653.82 1390.63,654.81 1320.57,691.17 1320.48,691.42 1317.06,690.2 
					1317.06,690.19 1389.55,652.59 				"/>
				<polygon class="st17" points="1388.43,650.27 1389.55,652.59 1317.06,690.19 1317.06,690.2 1313.73,689.02 1385.83,651.61 				
					"/>
				<polygon class="st18" points="1384.56,648.98 1385.83,651.61 1313.73,689.02 1309.91,687.66 				"/>
				<path class="st18" d="M1358.25,770.13l9.95,21.29l-13.98-7.54l-5.99-13.03v-0.01c1.25,0.04,2.6,0,4.06-0.13
					C1354.52,770.52,1356.46,770.33,1358.25,770.13z"/>
				<path class="st18" d="M1321.69,691.85l23.47,50.24c-3.79-0.58-8.02-1.57-11.26-2.31v-0.01l-23.99-52.11l3.82,1.36l3.33,1.18
					l3.42,1.22L1321.69,691.85z"/>
				<path class="st19" d="M1447.43,756.54l-79.23,34.88l-9.95-21.29c9.27-1.06,14.32-2.57,32.56-7.89
					c12.54-3.65,36.12-11.1,57.17-21.43c-0.01,5.01-0.02,10.31-0.04,15.73H1447.43z"/>
				<path class="st19" d="M1400.19,656.97l26.83,56.52c-17.79,11.61-39.41,24.15-49.72,25.51c-15.34,2.03-16.31-9.06-22.84-10.6
					c-6.52-1.54-4.89-6.21-7.13-1.48c-2.24,4.74,8.08,9.68,7.07,13.99c-0.46,1.96-4.49,1.9-9.24,1.18l-23.47-50.24l76.24-33.89
					L1400.19,656.97z M1401.4,703l-8.44-19.07l-42.69,18.9l8.44,19.07L1401.4,703z"/>
				<path class="st20" d="M1345.34,820.54c3.62,50.76,6.77,101.84,10.35,152.95c-6.83,101.14-32.85,201.3-65.08,297.13
					c-0.69-0.1-1.38-0.2-2.07-0.32c-11.25-1.78-22.14-5.44-32.92-8.59c-1.25-0.37-2.5-0.73-3.75-1.08
					c10.34-72.17,15.16-121.59,20.54-199.47c5.39-77.88,13-178.11,21.36-259.33l0.77-0.55c10.48,14.15,31.61,17.31,50.83,17.59
					L1345.34,820.54z"/>
				<path class="st20" d="M1355.69,973.49c-3.58-51.11-6.73-102.19-10.35-152.95l0.03-1.67c9.38,0.15,18.31-0.39,25.32-0.67
					c19.35-0.77,52.9-1.88,71.11-15.9c9.42,154.21-4.45,312.59-14.16,466.65c-0.86,0-1.72,0-2.58-0.01
					c-11.34-0.02-22.67-0.07-34.01-0.16c-1,0-2.01-0.01-3.01-0.02C1371.21,1171.55,1362.64,1072.45,1355.69,973.49z"/>
				<path class="st21" d="M1288.48,1270.68c0.93,8,1.55,16.09-0.14,24c-27.65,0.52-54.66,0.7-82.73,1.3
					c0.23-4.88-7.95-4.55,1.9-10.8c9.84-6.25,37.18-12.71,48.06-23.31l0.05-0.16c10.78,3.15,21.67,6.81,32.92,8.59L1288.48,1270.68z
					"/>
				<path class="st21" d="M1425.06,1268.94c3.99,8.73,5.99,17.72,6.32,27.29c-14.19,2.19-28.23,2.12-42.41-0.04
					c-2.73-8.98-0.28-18.68,2.08-27.41C1402.39,1268.87,1413.72,1268.92,1425.06,1268.94z"/>
				<path class="st22" d="M1107.88,658.77c-1.55,0.12-3.1,0.6-4.65,1.1c-3.76,1.17-7.47,2.37-10.93-1.55
					c-3.38-3.83,0.64-6.18,5.18-7.53v-0.01c1.58-0.47,3.21-0.82,4.62-1.08c0.09-0.02,0.18-0.03,0.27-0.05
					c0.07-0.01,0.13-0.02,0.18-0.03c0.03,0,0.06-0.01,0.08-0.01c0.01,0,0.02,0,0.02,0c0.37-0.02,0.73-0.07,1.1-0.16
					c0.04,0,0.05-0.02,0.08-0.03c0.1-0.02,0.19-0.03,0.28-0.04c0.09-0.02,0.18-0.03,0.27-0.04c0.65-0.09,1.14-0.15,1.39-0.18
					c0.14-0.01,0.21-0.02,0.21-0.02c10.07-0.21,15.57,10.3,17.61,14.45c0.26,0.53,0.47,0.96,0.62,1.25
					c0.01,0.03,0.03,0.05,0.04,0.08c0.03,0.06,0.06,0.11,0.08,0.16c0.86,2.02-4.93-0.48-11.58-5.06
					C1111.15,658.92,1109.52,658.64,1107.88,658.77z"/>
				<path class="st22" d="M1121.75,689.16c-3.95,0.67-8.55,1.44-9.98,1.7c-4.51,0.79-18.46,0.07-20.78-0.72
					c-4.63-1.58-5.37-25.52-4.76-28.39c0.35-1.66-0.37-3.55-0.57-5.34c-0.33-2.92,0.97-5.18,3.58-5.99c2.32-0.72,4.89-1.2,7.32-1.08
					c0.31,0.47,0.63,0.96,0.92,1.44v0.01c-4.54,1.35-8.56,3.7-5.18,7.53c3.46,3.92,7.17,2.72,10.93,1.55
					C1109.66,670.05,1115.89,679.91,1121.75,689.16z"/>
				<path class="st22" d="M1253.91,678.22c6.82,5.87,6.05,8.89,6.05,8.89c-7.08,7-12.39,11.97-13.53,12.43
					c-3.53,1.39-90.05-12.84-118.42-11.42c-0.04,0-0.1,0.02-0.17,0.02c-0.22,0.03-0.62,0.11-1.19,0.2
					c-6.28-9.87-12.66-19.96-18.77-29.57c1.64-0.13,3.27,0.15,4.87,1.25c6.65,4.58,12.44,7.08,11.58,5.06
					c0.02,0.04,0.04,0.08,0.05,0.12c0.22,0.46,0.43,0.94,0.61,1.42c0.04,0.13,0.11,0.22,0.17,0.29
					c11.25-1.84,57.26-5.53,105.91-3.05l2.23-2.48C1238.78,665.79,1250.46,675.24,1253.91,678.22z"/>
				<path class="st22" d="M1448.86,697.48c12.99,3.74,24.76,9,36.08,16.23c-7.35,10.35-21.47,19.5-36.96,27.1
					c-21.05,10.33-44.63,17.78-57.17,21.43c-18.24,5.32-23.29,6.83-32.56,7.89c-1.79,0.2-3.73,0.39-5.96,0.58
					c-1.46,0.13-2.81,0.17-4.06,0.13c-10.53-0.25-13.99-5.86-17.49-11.93c-3.92-6.8-5.92-20.73-0.86-19.96
					c0.94,0.14,2.35,0.45,4.02,0.83c3.24,0.74,7.47,1.73,11.26,2.31c4.75,0.72,8.78,0.78,9.24-1.18c1.01-4.31-9.31-9.25-7.07-13.99
					c2.24-4.73,0.61-0.06,7.13,1.48c6.53,1.54,7.5,12.63,22.84,10.6c10.31-1.36,31.93-13.9,49.72-25.51
					c8.66-5.64,16.41-11.07,21.51-14.88L1448.86,697.48z"/>
				<path class="st22" d="M1395.93,553.37l0.29,0.52c-7.16,4.19-14.41,5.11-22.38,4.65c-6.42-0.36-12.09-2.64-17.9-5.14
					c3.28-10.24,1.16-23.26,1.79-30.06c0.56,0,1.11-0.06,1.68-0.08c12.13-0.88,24.47-7.35,31-11.34h0.01
					c0.34,0.31,0.74,0.54,1.2,0.69c0.02,9.19,0.59,25.31,4.01,39.54C1395.93,553.37,1395.6,552.21,1395.93,553.37z"/>
				<path class="st22" d="M1357.73,523.34c-16.51,0.33-23.94-12.97-22.32-43.34c1.25-23.1,9.56-36.78,13.86-42.41l0.17-0.15
					c0.49,0.53,1.14,1,1.97,1.41c0,0,22.29,0,25.23,17.81c2.95,17.82,2.53,20.79,8.41,17.39c5.89-3.39,12.2,5.94,9.68,12.3
					c-2.53,6.37-6.31,8.91-6.31,14c0,3.26-0.52,9.32,1.99,11.57c-6.53,3.99-18.87,10.46-31,11.34
					C1358.84,523.28,1358.29,523.34,1357.73,523.34z"/>
				<path class="st23" d="M1294.41,623.09c0.72,5.22,1.57,11.47,2.58,19.41c0.33,2.59,0.62,5.36,0.87,8.29
					c-17.14,17.76-34.35,33.17-37.42,35.89c-0.21,0.19-0.35,0.32-0.42,0.38c-0.02,0.02-0.04,0.03-0.05,0.04
					c-0.01,0.01-0.01,0.01-0.01,0.01s0.77-3.02-6.05-8.89c-3.45-2.98-15.13-12.43-20.61-16.84c-1.77-1.43-2.89-2.34-2.89-2.34
					s35.07-57.72,46.1-70.79c4.91-5.83,9.49-10.26,13.72-13.55h0.01C1290.91,598.61,1291.77,603.82,1294.41,623.09z"/>
				<path class="st2" d="M1294.41,623.09c-2.64-19.27-3.5-24.48-4.17-48.39c-0.01-0.06-0.01-0.13-0.01-0.2
					c17.81-13.72,43.03-18.9,65.71-21.1c5.81,2.5,11.48,4.78,17.9,5.14c7.97,0.46,15.22-0.46,22.38-4.65
					c0.06-0.04,0.13-0.07,0.19-0.11c27.4,6.41,53.39-4.89,70.95,29.39c17.55,34.27,36.6,90.05,20.09,132.18
					c-0.83-0.56-1.67-1.11-2.51-1.64c-11.32-7.23-23.09-12.49-36.08-16.23l-0.33,1.13c-5.1,3.81-12.85,9.24-21.51,14.88
					l-26.83-56.52l-2.26,0.99l-2.68-5.54l-2.71,1.4l-1.08-2.22l-1.91,0.99l-1.12-2.32l-2.6,1.34l-1.27-2.63l-74.65,38.68
					l-10.78,0.03c-0.01-13.68-0.39-26.34-1.27-36.9c-0.25-2.93-0.54-5.7-0.87-8.29C1295.98,634.56,1295.13,628.31,1294.41,623.09z"
					/>
				<path class="st2" d="M1441.8,802.3c-18.21,14.02-51.76,15.13-71.11,15.9c-7.01,0.28-15.94,0.82-25.32,0.67
					c-19.22-0.28-40.35-3.44-50.83-17.59c-0.27-0.35-0.52-0.71-0.77-1.07c2.64-30.35,5.38-75.21,5.36-112.52l10.78-0.03l23.99,52.11
					v0.01c-1.67-0.38-3.08-0.69-4.02-0.83c-5.06-0.77-3.06,13.16,0.86,19.96c3.5,6.07,6.96,11.68,17.49,11.93v0.01l5.99,13.03
					l13.98,7.54l79.23-34.88h0.51c-0.05,13.39-0.13,27.54-0.17,39.98C1446.05,798.66,1444.04,800.58,1441.8,802.3z"/>
			</g>
			<g>
			</g>
		</g>
	</g>
	<path class="st24" d="M1357.74,523.34c0,0,17.13-1.58,33.89-10.74c0,0-5.97,16.81-33.89,29.62V523.34z"/>
	<path class="st25" d="M1355.94,976.9c0,0-6.08-91.02-8.07-119.88l-50.01,390.18C1297.86,1247.19,1344.39,1124.98,1355.94,976.9z"/>
	<path class="st23" d="M1450.08,697.22c0,0,4.28-32.46-8.29-66.32l-12.27,80.96C1429.51,711.86,1447.1,700.29,1450.08,697.22z"/>
</g>
<g id="Layer_2">
</g>
</svg>
