<svg width="1500" height="1500" viewBox="0 0 1500 1500" fill="none" xmlns="http://www.w3.org/2000/svg">
<rect width="1500" height="1500" fill="white"/>
<g clip-path="url(#clip0)">
<path d="M241.382 507.407H284.423L282.538 214.65L773.203 343.602V482.209H790.657V343.637L1287.67 214.371L1285.79 507.407H1339.34L1341.43 177.114C1341.51 172.901 1340.72 168.717 1339.13 164.817C1337.53 160.916 1335.16 157.381 1332.15 154.426C1329.09 151.428 1325.31 149.267 1321.17 148.15C1317.03 147.033 1312.67 146.998 1308.51 148.048L782.034 285.016L261.907 148.117C257.749 147.057 253.387 147.083 249.242 148.194C245.096 149.305 241.307 151.463 238.24 154.461C235.225 157.413 232.844 160.947 231.241 164.847C229.639 168.748 228.849 172.934 228.919 177.149L231.049 507.442L241.382 507.407Z" fill="#333333"/>
<path d="M1329.42 1082.78H1286.38L1287.71 1287.71L790.692 1247.56V1082.78H773.238V1248.37C737.841 1250.81 628.405 1259.45 282.538 1287.64L283.83 1082.68H230.316L228.92 1322.81C228.843 1327.02 229.626 1331.21 231.223 1335.11C232.819 1339.01 235.195 1342.55 238.205 1345.5C242.885 1350.03 249.137 1352.59 255.659 1352.64C257.36 1352.65 259.057 1352.47 260.721 1352.12L788.248 1313.78L1309.6 1352.12C1313.62 1352.96 1317.79 1352.8 1321.73 1351.65C1325.68 1350.5 1329.28 1348.4 1332.22 1345.53C1335.23 1342.58 1337.61 1339.05 1339.22 1335.15C1340.82 1331.25 1341.61 1327.06 1341.54 1322.85L1340 1082.82L1329.42 1082.78Z" fill="#333333"/>
<path d="M500.712 367.562L444.336 407.398L442.311 246.277L455.018 248.856C468.318 251.539 547.454 274.228 550.805 275.204L558.31 277.365L559.392 416.32L500.712 367.562Z" fill="#FFFAA5"/>
<path d="M452.958 259.099C465.979 261.713 547.942 285.238 547.942 285.238L548.815 393.871L501.201 354.384L454.564 387.528L452.958 259.273V259.099ZM431.699 233.657L432.013 259.552L433.619 387.807L434.108 427.608L466.642 404.606L500.188 380.906L535.375 410.112L570.074 438.935L569.725 393.871L568.852 285.238V269.624L553.562 265.128C545.08 262.688 470.412 241.289 456.938 238.606L431.525 233.482L431.699 233.657Z" fill="#333333"/>
<path d="M153.449 983.691C120.847 964.483 94.1782 936.675 76.3721 903.322C58.117 867.674 48.5981 828.208 48.5981 788.171C48.5981 748.134 58.117 708.669 76.3721 673.02C94.1627 639.629 120.833 611.784 153.449 592.547C186.903 573.34 224.818 563.232 263.408 563.232C301.999 563.232 339.914 573.34 373.368 592.547C405.847 611.866 432.407 639.697 450.165 673.02C468.42 708.669 477.939 748.134 477.939 788.171C477.939 828.208 468.42 867.674 450.165 903.322C432.414 936.65 405.853 964.483 373.368 983.796C339.914 1003 301.999 1013.11 263.408 1013.11C224.818 1013.11 186.903 1003 153.449 983.796V983.691ZM338.146 927.475C360.414 913.526 378.503 893.841 390.508 870.492C403.069 844.831 409.598 816.646 409.598 788.084C409.598 759.522 403.069 731.338 390.508 705.677C378.501 682.328 360.413 662.644 338.146 648.693C315.493 635.062 289.544 627.858 263.094 627.858C236.644 627.858 210.696 635.062 188.042 648.693C165.773 662.641 147.684 682.326 135.681 705.677C123.119 731.338 116.59 759.522 116.59 788.084C116.59 816.646 123.119 844.831 135.681 870.492C147.683 893.843 165.772 913.529 188.042 927.475C210.696 941.106 236.644 948.31 263.094 948.31C289.544 948.31 315.493 941.106 338.146 927.475V927.475Z" fill="#333333"/>
<path d="M995.636 569.344V1006.81H940.097L712.359 697.948V1006.81H645.021V569.344H700.56L928.298 879.736V569.344H995.636Z" fill="#333333"/>
<path d="M1459.46 944.421V1006.81H1163.68V569.344H1451.81V630.962H1231.02V754.199H1427.52V815.051H1231.02V944.456L1459.46 944.421Z" fill="#333333"/>
</g>
<defs>
<clipPath id="clip0">
<rect width="1406.25" height="1406.25" fill="white" transform="translate(46.875 46.875)"/>
</clipPath>
</defs>
</svg>
