<svg width="198" height="69" viewBox="0 0 198 69" fill="none" xmlns="http://www.w3.org/2000/svg">
<g clip-path="url(#clip0)">
<path d="M11.1237 20.5933H13.5852L13.4773 3.8508L41.538 11.2255V19.1523H42.5362V11.2275L70.9603 3.83486L70.8525 20.5933H73.9148L74.0346 1.70417C74.0389 1.46324 73.9941 1.22395 73.9028 1.00088C73.8115 0.777808 73.6757 0.575618 73.5036 0.406623C73.3286 0.235201 73.1123 0.111613 72.8756 0.047736C72.6389 -0.0161414 72.3898 -0.0181611 72.1521 0.0418754L42.0431 7.87498L12.2975 0.0458626C12.0597 -0.0147901 11.8102 -0.013275 11.5732 0.0502603C11.3361 0.113796 11.1194 0.237212 10.944 0.408619C10.7716 0.577444 10.6354 0.779555 10.5437 1.00263C10.4521 1.22571 10.4069 1.46509 10.411 1.70617L10.5327 20.5953L11.1237 20.5933Z" fill="#333333"/>
<path d="M73.3479 53.4984H70.8864L70.9622 65.2182L42.5382 62.9221V53.4984H41.54V62.9679C39.5157 63.1074 33.2572 63.6017 13.4773 65.2142L13.5512 53.4924H10.4908L10.4109 67.2253C10.4065 67.4662 10.4513 67.7055 10.5426 67.9286C10.6339 68.1517 10.7698 68.3539 10.942 68.5228C11.2096 68.7822 11.5671 68.9285 11.9401 68.9314C12.0374 68.9316 12.1344 68.9216 12.2296 68.9015L42.3985 66.7091L72.214 68.9015C72.444 68.9494 72.6823 68.9401 72.9079 68.8744C73.1335 68.8087 73.3394 68.6887 73.5076 68.5248C73.68 68.356 73.8162 68.1539 73.9078 67.9308C73.9995 67.7077 74.0446 67.4683 74.0406 67.2273L73.9528 53.5004L73.3479 53.4984Z" fill="#333333"/>
<path d="M25.9546 12.5946L22.7305 14.8728L22.6147 5.65845L23.3414 5.80594C24.102 5.95941 28.6277 7.25696 28.8193 7.31276L29.2486 7.43635L29.3104 15.3831L25.9546 12.5946Z" fill="#FFFAA5"/>
<path d="M23.2236 6.39197C23.9682 6.54146 28.6556 7.88684 28.6556 7.88684L28.7055 14.0995L25.9825 11.8413L23.3154 13.7368L23.2236 6.40194V6.39197ZM22.0078 4.93697L22.0258 6.41789L22.1176 13.7527L22.1455 16.0289L24.0061 14.7134L25.9246 13.3581L27.9369 15.0283L29.9213 16.6767L29.9014 14.0995L29.8514 7.88684V6.99391L28.977 6.73679C28.4919 6.59727 24.2217 5.37347 23.4512 5.22L21.9978 4.927L22.0078 4.93697Z" fill="#333333"/>
<path d="M6.09488 47.8318C4.23042 46.7333 2.70526 45.143 1.68694 43.2356C0.64295 41.1969 0.0985718 38.9399 0.0985718 36.6502C0.0985718 34.3605 0.64295 32.1035 1.68694 30.0648C2.70437 28.1552 4.22961 26.5627 6.09488 25.4626C8.00808 24.3642 10.1764 23.7861 12.3834 23.7861C14.5903 23.7861 16.7587 24.3642 18.6719 25.4626C20.5294 26.5675 22.0483 28.1591 23.0639 30.0648C24.1079 32.1035 24.6522 34.3605 24.6522 36.6502C24.6522 38.9399 24.1079 41.1969 23.0639 43.2356C22.0487 45.1416 20.5297 46.7333 18.6719 47.8378C16.7587 48.9362 14.5903 49.5142 12.3834 49.5142C10.1764 49.5142 8.00808 48.9362 6.09488 47.8378V47.8318ZM16.6576 44.6168C17.931 43.8191 18.9655 42.6933 19.6521 41.358C20.3705 39.8905 20.7439 38.2786 20.7439 36.6452C20.7439 35.0118 20.3705 33.3999 19.6521 31.9324C18.9655 30.5971 17.931 29.4714 16.6576 28.6736C15.362 27.894 13.8781 27.482 12.3654 27.482C10.8528 27.482 9.36879 27.894 8.07327 28.6736C6.79972 29.4712 5.76522 30.597 5.07874 31.9324C4.36038 33.3999 3.98697 35.0118 3.98697 36.6452C3.98697 38.2786 4.36038 39.8905 5.07874 41.358C5.76514 42.6935 6.79966 43.8193 8.07327 44.6168C9.36879 45.3964 10.8528 45.8084 12.3654 45.8084C13.8781 45.8084 15.362 45.3964 16.6576 44.6168Z" fill="#333333" stroke="#262626" stroke-width="0.488889" stroke-miterlimit="10"/>
<path d="M54.2588 24.1351V49.1532H51.0826L38.0584 31.4899V49.1532H34.2075V24.1351H37.3836L50.4078 41.8862V24.1351H54.2588Z" fill="#333333" stroke="#262626" stroke-width="0.488889" stroke-miterlimit="10"/>
<path d="M80.7843 45.5855V49.1532H63.8692V24.1351H80.3471V27.659H67.7202V34.7068H78.9576V38.1869H67.7202V45.5875L80.7843 45.5855Z" fill="#333333" stroke="#262626" stroke-width="0.488889" stroke-miterlimit="10"/>
<path d="M107.765 38.4719C108.599 39.515 109.016 40.8876 109.015 42.5898C109.015 44.7038 108.293 46.3263 106.851 47.4571C105.408 48.5878 103.297 49.1532 100.518 49.1532H90.3129V24.3544H99.8834C102.371 24.3544 104.31 24.9051 105.701 26.0067C107.092 27.1083 107.786 28.6722 107.785 30.6986C107.785 32.1084 107.461 33.2977 106.813 34.2663C106.155 35.2425 105.203 35.9834 104.094 36.3811C105.707 36.7332 106.93 37.4301 107.765 38.4719ZM92.2992 26.1602V35.7273H99.8035C101.709 35.7273 103.185 35.3161 104.231 34.4936C105.278 33.6711 105.801 32.4818 105.801 30.9258C105.801 29.3698 105.278 28.1879 104.231 27.38C103.185 26.5721 101.709 26.1681 99.8035 26.1681L92.2992 26.1602ZM106.99 42.4144C106.99 40.7122 106.447 39.4645 105.361 38.6712C104.275 37.8779 102.66 37.4793 100.516 37.4753H92.2992V47.3415H100.518C104.833 47.3454 106.99 45.7031 106.99 42.4144Z" fill="#333333"/>
<path d="M121.608 47.7221C119.807 46.6209 118.339 45.0532 117.359 43.1857C116.342 41.1943 115.811 38.9904 115.811 36.7548C115.811 34.5192 116.342 32.3153 117.359 30.3239C118.339 28.4558 119.807 26.8874 121.608 25.7855C123.435 24.7041 125.52 24.1334 127.644 24.1334C129.768 24.1334 131.853 24.7041 133.68 25.7855C135.48 26.8871 136.948 28.4547 137.928 30.3219C138.945 32.3133 139.476 34.5172 139.476 36.7528C139.476 38.9884 138.945 41.1923 137.928 43.1837C136.948 45.051 135.48 46.6186 133.68 47.7201C131.853 48.8016 129.768 49.3722 127.644 49.3722C125.52 49.3722 123.435 48.8016 121.608 47.7201V47.7221ZM132.665 46.026C134.172 45.104 135.394 43.7854 136.199 42.215C137.048 40.5228 137.49 38.6563 137.49 36.7638C137.49 34.8712 137.048 33.0048 136.199 31.3125C135.386 29.748 134.165 28.4315 132.665 27.5016C131.158 26.5702 129.416 26.0863 127.643 26.1064C125.876 26.0844 124.14 26.5686 122.64 27.5016C121.145 28.4404 119.931 29.7645 119.126 31.3344C118.277 33.0227 117.836 34.8857 117.836 36.7747C117.836 38.6638 118.277 40.5267 119.126 42.215C119.927 43.7817 121.142 45.0996 122.64 46.026C124.145 46.9428 125.879 47.4161 127.643 47.3913C129.411 47.4135 131.149 46.9405 132.661 46.026H132.665Z" fill="#333333"/>
<path d="M152.773 47.7222C150.972 46.6209 149.504 45.0533 148.524 43.1858C147.507 41.1943 146.976 38.9905 146.976 36.7549C146.976 34.5192 147.507 32.3154 148.524 30.324C149.504 28.4566 150.972 26.889 152.773 25.7875C154.6 24.7061 156.685 24.1355 158.809 24.1355C160.933 24.1355 163.018 24.7061 164.845 25.7875C166.645 26.8892 168.113 28.4568 169.093 30.324C170.11 32.3154 170.641 34.5192 170.641 36.7549C170.641 38.9905 170.11 41.1943 169.093 43.1858C168.113 45.0531 166.645 46.6207 164.845 47.7222C163.018 48.8036 160.933 49.3743 158.809 49.3743C156.685 49.3743 154.6 48.8036 152.773 47.7222ZM163.83 46.0261C165.337 45.1041 166.559 43.7855 167.364 42.2151C168.213 40.5229 168.655 38.6564 168.655 36.7639C168.655 34.8713 168.213 33.0048 167.364 31.3126C166.551 29.7481 165.33 28.4316 163.83 27.5017C162.323 26.5703 160.581 26.0864 158.808 26.1064C157.041 26.0845 155.305 26.5687 153.805 27.5017C152.31 28.4405 151.096 29.7646 150.291 31.3345C149.443 33.0228 149.001 34.8858 149.001 36.7748C149.001 38.6639 149.443 40.5268 150.291 42.2151C151.092 43.7818 152.307 45.0997 153.805 46.0261C155.31 46.9429 157.044 47.4162 158.808 47.3914C160.577 47.4144 162.317 46.9413 163.83 46.0261Z" fill="#333333"/>
<path d="M186.09 37.2162L181.207 42.6775V49.1532H179.222V24.3544H181.207V39.8591L194.982 24.3544H197.325L187.477 35.6317L198 49.1552H195.578L186.09 37.2162Z" fill="#333333"/>
</g>
<defs>
<clipPath id="clip0">
<rect width="198" height="68.9333" fill="white"/>
</clipPath>
</defs>
</svg>
