<svg width="405" height="141" viewBox="0 0 405 141" fill="none" xmlns="http://www.w3.org/2000/svg">
<g clip-path="url(#clip0)">
<path d="M22.753 42.1228H27.7879L27.5673 7.87671L84.9642 22.9613V39.1752H87.0059V22.9654L145.146 7.8441L144.926 42.1228H151.189L151.435 3.48588C151.443 2.99306 151.352 2.50361 151.165 2.04733C150.978 1.59105 150.7 1.17748 150.348 0.831808C149.99 0.481171 149.548 0.228378 149.064 0.0977195C148.58 -0.0329388 148.07 -0.03707 147.584 0.0857319L85.9973 16.108L25.154 0.0938875C24.6676 -0.0301748 24.1573 -0.0270758 23.6724 0.102883C23.1875 0.232842 22.7443 0.485283 22.3854 0.835889C22.0328 1.18121 21.7542 1.59462 21.5668 2.05092C21.3793 2.50722 21.2869 2.99685 21.2952 3.48996L21.5443 42.1269L22.753 42.1228Z" fill="#333333"/>
<path d="M150.03 109.429H144.995L145.15 133.401L87.01 128.704V109.429H84.9683V128.798C80.8277 129.084 68.0261 130.095 27.5673 133.393L27.7184 109.417H21.4585L21.2952 137.506C21.2861 137.999 21.3778 138.489 21.5646 138.945C21.7513 139.401 22.0292 139.815 22.3813 140.16C22.9288 140.691 23.6601 140.99 24.4231 140.996C24.622 140.997 24.8205 140.976 25.0152 140.935L86.7242 136.45L147.71 140.935C148.181 141.033 148.668 141.014 149.13 140.88C149.591 140.745 150.012 140.5 150.356 140.165C150.709 139.819 150.988 139.406 151.175 138.95C151.363 138.493 151.455 138.004 151.447 137.51L151.267 109.433L150.03 109.429Z" fill="#333333"/>
<path d="M53.0888 25.7619L46.4941 30.4218L46.2572 11.5742L47.7436 11.8759C49.2994 12.1898 58.5566 14.8439 58.9486 14.9581L59.8265 15.2108L59.9531 31.4655L53.0888 25.7619Z" fill="#FFFAA5"/>
<path d="M47.5027 13.0747C49.0258 13.3804 58.6137 16.1323 58.6137 16.1323L58.7158 28.8401L53.146 24.2209L47.6905 28.0981L47.5027 13.095V13.0747ZM45.0159 10.0985L45.0526 13.1277L45.2405 28.1307L45.2976 32.7865L49.1034 30.0958L53.0276 27.3235L57.1437 30.7399L61.2026 34.1115L61.1618 28.8401L61.0597 16.1323V14.3059L59.2712 13.78C58.2789 13.4946 49.5444 10.9914 47.9682 10.6774L44.9955 10.0781L45.0159 10.0985Z" fill="#333333"/>
<path d="M12.4668 97.8376C8.65307 95.5907 5.53343 92.3378 3.4505 88.4363C1.31507 84.2662 0.201569 79.6496 0.201569 74.9662C0.201569 70.2827 1.31507 65.6661 3.4505 61.4961C5.53161 57.59 8.65141 54.3327 12.4668 52.0825C16.3801 49.8357 20.8154 48.6533 25.3296 48.6533C29.8438 48.6533 34.2791 49.8357 38.1924 52.0825C41.9918 54.3424 45.0987 57.598 47.176 61.4961C49.3115 65.6661 50.425 70.2827 50.425 74.9662C50.425 79.6496 49.3115 84.2662 47.176 88.4363C45.0996 92.3349 41.9925 95.5908 38.1924 97.8499C34.2791 100.097 29.8438 101.279 25.3296 101.279C20.8154 101.279 16.3801 100.097 12.4668 97.8499V97.8376ZM34.0722 91.2616C36.6771 89.6299 38.7931 87.3271 40.1974 84.5958C41.6668 81.5941 42.4306 78.2971 42.4306 74.956C42.4306 71.6149 41.6668 68.3179 40.1974 65.3161C38.7929 62.5849 36.677 60.2822 34.0722 58.6504C31.4223 57.0558 28.3869 56.2131 25.2928 56.2131C22.1988 56.2131 19.1634 57.0558 16.5134 58.6504C13.9085 60.2819 11.7924 62.5847 10.3883 65.3161C8.9189 68.3179 8.15511 71.6149 8.15511 74.956C8.15511 78.2971 8.9189 81.5941 10.3883 84.5958C11.7923 87.3274 13.9083 89.6302 16.5134 91.2616C19.1634 92.8562 22.1988 93.6989 25.2928 93.6989C28.3869 93.6989 31.4223 92.8562 34.0722 91.2616Z" fill="#333333" stroke="#262626" stroke-miterlimit="10"/>
<path d="M110.984 49.3672V100.541H104.487L77.8468 64.411V100.541H69.9698V49.3672H76.4666L103.107 85.6762V49.3672H110.984Z" fill="#333333" stroke="#262626" stroke-miterlimit="10"/>
<path d="M165.241 93.2429V100.541H130.642V49.3672H164.346V56.5752H138.519V70.9911H161.504V78.1094H138.519V93.247L165.241 93.2429Z" fill="#333333" stroke="#262626" stroke-miterlimit="10"/>
<path d="M220.428 78.6927C222.135 80.8263 222.987 83.6339 222.985 87.1156C222.985 91.4398 221.509 94.7584 218.558 97.0714C215.607 99.3844 211.29 100.541 205.605 100.541H184.731V49.8159H204.307C209.395 49.8159 213.361 50.9425 216.206 53.1957C219.051 55.4489 220.472 58.6479 220.469 62.7927C220.469 65.6765 219.806 68.109 218.481 70.0904C217.136 72.087 215.187 73.6025 212.919 74.416C216.218 75.1363 218.721 76.5618 220.428 78.6927ZM188.794 53.5096V73.0788H204.144C208.042 73.0788 211.061 72.2376 213.201 70.5552C215.34 68.8728 216.41 66.4402 216.41 63.2575C216.41 60.0748 215.34 57.6572 213.201 56.0047C211.061 54.3522 208.042 53.5259 204.144 53.5259L188.794 53.5096ZM218.844 86.7568C218.844 83.2751 217.733 80.723 215.512 79.1004C213.29 77.4778 209.987 76.6624 205.601 76.6542H188.794V96.835H205.605C214.431 96.8431 218.844 93.4837 218.844 86.7568Z" fill="#333333"/>
<path d="M248.743 97.6134C245.06 95.3608 242.057 92.1542 240.053 88.3344C237.972 84.2609 236.887 79.7531 236.887 75.1802C236.887 70.6073 237.972 66.0995 240.053 62.0261C242.057 58.2049 245.06 54.997 248.743 52.7429C252.48 50.531 256.745 49.3638 261.089 49.3638C265.434 49.3638 269.698 50.531 273.436 52.7429C277.118 54.9964 280.12 58.2027 282.125 62.022C284.207 66.0954 285.292 70.6032 285.292 75.1761C285.292 79.749 284.207 84.2569 282.125 88.3303C280.121 92.1498 277.118 95.3562 273.436 97.6093C269.698 99.8213 265.434 100.989 261.089 100.989C256.745 100.989 252.48 99.8213 248.743 97.6093V97.6134ZM271.361 94.144C274.442 92.2582 276.943 89.5611 278.589 86.3489C280.325 82.8874 281.229 79.0696 281.229 75.1986C281.229 71.3275 280.325 67.5097 278.589 64.0482C276.926 60.8482 274.429 58.1553 271.361 56.2532C268.277 54.348 264.714 53.3582 261.087 53.3993C257.473 53.3544 253.922 54.3448 250.854 56.2532C247.796 58.1734 245.313 60.8819 243.667 64.0931C241.931 67.5465 241.027 71.357 241.027 75.221C241.027 79.0849 241.931 82.8955 243.667 86.3489C245.305 89.5534 247.791 92.2491 250.854 94.144C253.933 96.0194 257.481 96.9875 261.087 96.9367C264.703 96.9822 268.26 96.0147 271.353 94.144H271.361Z" fill="#333333"/>
<path d="M312.49 97.6138C308.807 95.3611 305.804 92.1546 303.8 88.3347C301.719 84.2613 300.633 79.7534 300.633 75.1805C300.633 70.6076 301.719 66.0998 303.8 62.0264C305.804 58.2068 308.807 55.0003 312.49 52.7473C316.227 50.5354 320.491 49.3682 324.836 49.3682C329.18 49.3682 333.445 50.5354 337.182 52.7473C340.864 55.0008 343.867 58.2071 345.872 62.0264C347.953 66.0998 349.038 70.6076 349.038 75.1805C349.038 79.7534 347.953 84.2613 345.872 88.3347C343.867 92.1542 340.865 95.3606 337.182 97.6138C333.445 99.8257 329.18 100.993 324.836 100.993C320.491 100.993 316.227 99.8257 312.49 97.6138ZM335.108 94.1443C338.189 92.2585 340.69 89.5614 342.335 86.3492C344.071 82.8878 344.975 79.07 344.975 75.1989C344.975 71.3278 344.071 67.51 342.335 64.0485C340.672 60.8486 338.175 58.1557 335.108 56.2535C332.024 54.3484 328.46 53.3586 324.834 53.3996C321.22 53.3548 317.668 54.3452 314.601 56.2535C311.542 58.1738 309.06 60.8822 307.414 64.0934C305.678 67.5468 304.774 71.3573 304.774 75.2213C304.774 79.0853 305.678 82.8958 307.414 86.3492C309.052 89.5537 311.538 92.2494 314.601 94.1443C317.68 96.0197 321.227 96.9878 324.834 96.937C328.453 96.984 332.012 96.0165 335.108 94.1443Z" fill="#333333"/>
<path d="M380.638 76.1242L370.65 87.295V100.541H366.591V49.8159H370.65V81.5302L398.826 49.8159H403.62L383.476 72.8831L405 100.545H400.047L380.638 76.1242Z" fill="#333333"/>
</g>
<defs>
<clipPath id="clip0">
<rect width="405" height="141" fill="white"/>
</clipPath>
</defs>
</svg>
