<svg width="171" height="60" viewBox="0 0 171 60" fill="none" xmlns="http://www.w3.org/2000/svg">
<g clip-path="url(#clip0)">
<path d="M9.52522 17.9246H11.6521L11.559 3.35178L35.8054 9.77075V16.6703H36.6679V9.77249L61.2283 3.33791L61.1352 17.9246H63.7813L63.8848 1.48334C63.8885 1.27363 63.8497 1.06536 63.7709 0.871194C63.692 0.677032 63.5746 0.501045 63.426 0.35395C63.2747 0.204743 63.0879 0.0971717 62.8834 0.0415724C62.6788 -0.0140269 62.4635 -0.0157849 62.2581 0.0364713L36.2419 6.85446L10.5395 0.0399417C10.334 -0.0128507 10.1185 -0.011532 9.91362 0.0437696C9.70878 0.0990711 9.52155 0.206493 9.36996 0.355687C9.22098 0.502634 9.10332 0.678552 9.02413 0.872721C8.94495 1.06689 8.90591 1.27524 8.90939 1.48508L9.01462 17.9263L9.52522 17.9246Z" fill="white"/>
<path d="M63.2914 46.5653H61.1645L61.2301 56.7662L36.6697 54.7677V46.5653H35.8072V54.8076C34.058 54.929 28.6502 55.3593 11.559 56.7628L11.6228 46.5601H8.97844L8.90944 58.5132C8.90563 58.7229 8.94435 58.9312 9.02324 59.1254C9.10213 59.3196 9.21953 59.4956 9.36828 59.6426C9.59956 59.8684 9.90848 59.9957 10.2308 59.9983C10.3148 59.9984 10.3987 59.9897 10.4809 59.9722L36.5489 58.0639L62.3116 59.9722C62.5104 60.0139 62.7163 60.0058 62.9112 59.9486C63.1062 59.8915 63.2841 59.787 63.4294 59.6443C63.5784 59.4974 63.6961 59.3215 63.7753 59.1273C63.8544 58.9331 63.8935 58.7248 63.89 58.515L63.8141 46.567L63.2914 46.5653Z" fill="white"/>
<path d="M19.9805 5.56369C20.624 5.69381 24.6742 6.86484 24.6742 6.86484L24.7174 12.2724L22.3645 10.3068L20.0599 11.9566L19.9805 5.57237V5.56369ZM18.93 4.29725L18.9455 5.58625L19.0249 11.9705L19.049 13.9517L20.6567 12.8067L22.3144 11.627L24.0532 13.0808L25.7679 14.5155L25.7506 12.2724L25.7075 6.86484V6.08762L24.952 5.86383C24.5328 5.74239 20.843 4.67718 20.1772 4.5436L18.9214 4.28857L18.93 4.29725Z" fill="white"/>
<path d="M5.18027 41.6331C3.56923 40.677 2.25139 39.2927 1.37149 37.6325C0.469405 35.858 -0.000976562 33.8935 -0.000976562 31.9006C-0.000976563 29.9076 0.469405 27.9431 1.37149 26.1686C2.25062 24.5065 3.56853 23.1204 5.18027 22.1628C6.83341 21.2068 8.70701 20.7036 10.614 20.7036C12.521 20.7036 14.3946 21.2068 16.0477 22.1628C17.6527 23.1245 18.9651 24.5099 19.8427 26.1686C20.7448 27.9431 21.2151 29.9076 21.2151 31.9006C21.2151 33.8935 20.7448 35.858 19.8427 37.6325C18.9655 39.2915 17.653 40.677 16.0477 41.6383C14.3946 42.5944 12.521 43.0975 10.614 43.0975C8.70701 43.0975 6.83341 42.5944 5.18027 41.6383V41.6331ZM14.3072 38.8348C15.4076 38.1404 16.3014 37.1606 16.8947 35.9983C17.5154 34.7209 17.838 33.318 17.838 31.8962C17.838 30.4745 17.5154 29.0715 16.8947 27.7942C16.3014 26.6319 15.4075 25.6521 14.3072 24.9577C13.1878 24.2791 11.9055 23.9205 10.5985 23.9205C9.29142 23.9205 8.00916 24.2791 6.88973 24.9577C5.7893 25.6519 4.89542 26.6318 4.30225 27.7942C3.68153 29.0715 3.35888 30.4745 3.35888 31.8962C3.35888 33.318 3.68153 34.7209 4.30225 35.9983C4.89534 37.1607 5.78924 38.1406 6.88973 38.8348C8.00916 39.5133 9.29142 39.8719 10.5985 39.8719C11.9055 39.8719 13.1878 39.5133 14.3072 38.8348Z" fill="white"/>
<path d="M46.7975 21.0076V42.7835H44.053L32.7992 27.4092V42.7835H29.4717V21.0076H32.2161L43.47 36.4582V21.0076H46.7975Z" fill="white"/>
<path d="M69.7174 39.6781V42.7835H55.1016V21.0076H69.3396V24.0748H58.4291V30.2092H68.139V33.2383H58.4291V39.6798L69.7174 39.6781Z" fill="white"/>
<path d="M93.0306 33.4862C93.7516 34.3941 94.1116 35.5889 94.1104 37.0704C94.1104 38.9106 93.4871 40.3227 92.2405 41.307C90.9939 42.2912 89.17 42.7833 86.7689 42.7833H77.9507V21.1982H86.2203C88.3696 21.1982 90.0452 21.6776 91.2469 22.6364C92.4487 23.5952 93.049 24.9565 93.0478 26.7203C93.0478 27.9474 92.7678 28.9825 92.2078 29.8257C91.6396 30.6753 90.8164 31.3202 89.8583 31.6664C91.2521 31.9729 92.3095 32.5795 93.0306 33.4862ZM79.6671 22.77V31.0973H86.1513C87.7981 31.0973 89.0735 30.7394 89.9773 30.0235C90.8812 29.3075 91.3332 28.2724 91.3332 26.9181C91.3332 25.5637 90.8812 24.535 89.9773 23.8318C89.0735 23.1286 87.7981 22.777 86.1513 22.777L79.6671 22.77ZM92.3613 36.9178C92.3613 35.4362 91.8921 34.3502 90.9537 33.6597C90.0153 32.9692 88.6198 32.6223 86.7671 32.6188H79.6671V41.2063H86.7689C90.4971 41.2098 92.3613 39.7803 92.3613 36.9178Z" fill="white"/>
<path d="M104.991 41.5376C103.436 40.5791 102.167 39.2146 101.321 37.5891C100.441 35.8557 99.9829 33.9375 99.9829 31.9916C99.9829 30.0457 100.441 28.1274 101.321 26.3941C102.167 24.7681 103.435 23.403 104.991 22.4438C106.57 21.5025 108.372 21.0059 110.207 21.0059C112.042 21.0059 113.844 21.5025 115.422 22.4438C116.978 23.4027 118.246 24.7671 119.093 26.3923C119.972 28.1257 120.431 30.0439 120.431 31.9898C120.431 33.9358 119.972 35.854 119.093 37.5874C118.246 39.2127 116.978 40.5771 115.422 41.5359C113.844 42.4772 112.042 42.9738 110.207 42.9738C108.372 42.9738 106.57 42.4772 104.991 41.5359V41.5376ZM114.546 40.0613C115.848 39.2588 116.904 38.1111 117.599 36.7442C118.333 35.2713 118.714 33.6467 118.714 31.9994C118.714 30.3521 118.333 28.7275 117.599 27.2546C116.897 25.8929 115.842 24.747 114.546 23.9375C113.243 23.1268 111.738 22.7056 110.206 22.7231C108.679 22.704 107.179 23.1255 105.883 23.9375C104.591 24.7547 103.542 25.9072 102.847 27.2736C102.114 28.7432 101.732 30.3647 101.732 32.0089C101.732 33.6532 102.114 35.2747 102.847 36.7442C103.539 38.1078 104.589 39.2549 105.883 40.0613C107.184 40.8593 108.682 41.2713 110.206 41.2496C111.734 41.269 113.236 40.8573 114.543 40.0613H114.546Z" fill="white"/>
<path d="M131.92 41.5379C130.364 40.5793 129.096 39.2148 128.249 37.5893C127.37 35.8559 126.912 33.9377 126.912 31.9918C126.912 30.0459 127.37 28.1277 128.249 26.3943C129.096 24.7689 130.364 23.4045 131.92 22.4458C133.499 21.5045 135.3 21.0078 137.136 21.0078C138.971 21.0078 140.772 21.5045 142.351 22.4458C143.907 23.4047 145.175 24.7691 146.022 26.3943C146.901 28.1277 147.36 30.0459 147.36 31.9918C147.36 33.9377 146.901 35.8559 146.022 37.5893C145.175 39.2146 143.907 40.5791 142.351 41.5379C140.772 42.4791 138.971 42.9758 137.136 42.9758C135.3 42.9758 133.499 42.4791 131.92 41.5379ZM141.475 40.0615C142.776 39.259 143.833 38.1113 144.528 36.7444C145.261 35.2715 145.643 33.6469 145.643 31.9996C145.643 30.3523 145.261 28.7277 144.528 27.2548C143.825 25.8931 142.771 24.7472 141.475 23.9377C140.172 23.127 138.667 22.7059 137.135 22.7233C135.608 22.7042 134.108 23.1257 132.812 23.9377C131.52 24.7549 130.471 25.9074 129.776 27.2739C129.043 28.7434 128.661 30.3649 128.661 32.0092C128.661 33.6534 129.043 35.2749 129.776 36.7444C130.468 38.1081 131.518 39.2552 132.812 40.0615C134.113 40.8595 135.611 41.2715 137.135 41.2499C138.663 41.2699 140.167 40.8582 141.475 40.0615Z" fill="white"/>
<path d="M160.708 32.3933L156.489 37.1468V42.7833H154.774V21.1982H156.489V34.6937L168.391 21.1982H170.417L161.907 31.0141L171 42.7851H168.907L160.708 32.3933Z" fill="white"/>
</g>
<defs>
<clipPath id="clip0">
<rect width="171" height="60" fill="white"/>
</clipPath>
</defs>
</svg>
