<?xml version="1.0" encoding="utf-8"?>
<!-- Generator: Adobe Illustrator 21.1.0, SVG Export Plug-In . SVG Version: 6.00 Build 0)  -->
<svg version="1.1" id="Layer_1" xmlns="http://www.w3.org/2000/svg" xmlns:xlink="http://www.w3.org/1999/xlink" x="0px" y="0px"
	 viewBox="0 0 3200 2000" style="enable-background:new 0 0 3200 2000;" xml:space="preserve">
<style type="text/css">
	.st0{fill:#FFFFFF;}
	.st1{opacity:0.3;fill:#81B4DA;}
	.st2{fill:#96D9C9;}
	.st3{fill:#0E2E35;}
	.st4{fill:#F7A491;}
	.st5{fill:#FAE0B2;}
	.st6{fill:#F47458;}
	.st7{fill:#F48C7F;}
	.st8{fill:#355389;}
	.st9{fill:#DAEEF7;}
	.st10{fill:#333333;}
	.st11{fill:#13375B;}
	.st12{fill:#2D4972;}
	.st13{fill:#B75742;}
	.st14{fill:#F7CC7F;}
	.st15{opacity:0.3;fill:#B75742;}
	.st16{fill:#184655;}
	.st17{fill:#3C8F7C;}
	.st18{fill:#50BFA5;}
	.st19{fill:#86B1F2;}
	.st20{fill:#FFB27D;}
	.st21{fill:#141A51;}
	.st22{fill:#2B32B2;}
	.st23{fill:#E2DD96;}
	.st24{fill:#FFFAA6;}
	.st25{fill:#D3946A;}
	.st26{fill:#B0CFF4;}
	.st27{fill:#F79C8D;}
	.st28{fill:#EFEFEF;}
	.st29{fill:#466EB6;}
	.st30{fill:#2C3A64;}
	.st31{fill:#D3CE8D;}
	.st32{fill:#ED975D;}
	.st33{fill:#D8D28B;}
</style>
<rect class="st0" width="3200" height="2000"/>
<g>
	<polygon class="st1" points="3670.6,1834.6 3670.6,1525.7 3588.9,1525.7 3588.9,1297.8 3510.3,1297.8 3510.3,1399.3 3445.3,1399.3 
		3445.3,1366.6 3445.3,1165.5 3338.8,1165.5 3338.8,1379.2 3306.9,1380.6 3306.9,1165.1 3269.7,1165.1 3269.7,1073.2 3247.4,1073.2 
		3247.4,1011.5 3160.4,1011.5 3160.4,1073.2 3138.1,1073.2 3138.1,1165.1 3100.9,1165.1 3100.9,1281.8 3083.7,1283.2 3078.6,937.3 
		2963.9,937.3 2963.9,1121.3 2923.6,1122.7 2923.6,835 2909.8,835 2909.8,774.3 2788.7,774.3 2788.7,835 2774.9,835 2774.9,1222.6 
		2749.4,1222.6 2749.4,1101.8 2728.2,1101.8 2728.2,1042.7 2697.4,1042.7 2697.4,870.2 2652.8,870.2 2649.5,1074 2600.7,1074 
		2600.7,1109.3 2585.9,1109.3 2574.2,1109.1 2574.2,907.5 2259.9,911.4 2259.9,1386.3 2233.3,1388.2 2233.3,1066.8 2137.7,1066.8 
		2137.7,1201.1 2110.1,1201.7 2110.1,1151.8 2049.6,1151.8 2049.6,1320.8 1989.1,1320.8 1989.1,1834.6 	"/>
	<path class="st2" d="M1729.3,1850c0,0,246.4-213.1,564.1-226.2c106.7-4.4,543.5,83.7,911.4,153c15.5,2.9,48.9,31.4,64.6,34.3
		c174.2,32.6,336.5,39.5,388.9,41.6L1729.3,1850z"/>
	<g>
		<path class="st3" d="M2975.7,1548.4c-14.5,1-51.2,20.4-55.2,25.4c-13.6,16.9-7.9,21.9-10.6,35.2c-2.7,13.3,15.7,21.8,29.4,20.3
			c13.8-1.6,16.2-14.7,20.4-20.2c3.4-4.4,7.9-11.7,11.1-16.1c4.6,1.5,10.2,1.5,16.4-1.8c8.4-4.4,10.5-12.9,10.6-20
			C2998,1559.1,2988.2,1547.6,2975.7,1548.4z"/>
		<path class="st4" d="M2962.5,1765.7c0,0,0.8,6.9,0.8,8c0,1.2,0,1.2,0,1.2l-0.6,1.2l-0.2,0.5l4.1,5.8c0,0,16.5,0.2,16.9,0.2
			c0.4,0-2.2-4-2.2-4s-5.5-4.1-6.4-7c-1-2.9,0.8-8.9,0.8-8.9L2962.5,1765.7z"/>
		<path class="st4" d="M2882.9,1724.6c0,0-5.9,3.6-6.8,4.4c-0.9,0.7-0.9,0.7-0.9,0.7l-0.6,1.2l-0.2,0.5l-7.1,0.4
			c0,0-10.5-12.8-10.7-13.1c-0.2-0.3,3,0.4,3,0.4s6.6,0.9,9.5-0.1c2.9-1,8.7-6.7,8.7-6.7L2882.9,1724.6z"/>
		<path class="st4" d="M2936.4,1660.1l-63.3,56.3l6.5,10.3c0,0,65.4-37.9,68.8-38.4c3.4-0.5,8.8,0.7,9.4,3.2
			c0.6,2.5,5.3,79.5,5.3,79.5l11.5-0.9l11.5-96.5L2936.4,1660.1z"/>
		<path class="st5" d="M2959.5,1786.5c-2.5-0.3,1.8-9.1,3.2-10.5l18.5,2.5c0,0,8.9,4.1,11,6.3c0.5,0.5,0.6,1.4-1.6,1.7
			C2983.7,1787.6,2965.1,1787.2,2959.5,1786.5z"/>
		<path class="st5" d="M2868.3,1740c2.2,1.3,6.1-7.2,6.4-9.2l-15-11.8c0,0-11.6-3.3-13.9-1C2843.7,1720.2,2863.4,1737,2868.3,1740z"
			/>
		<path class="st6" d="M2936.4,1660.1l-22.1,18.8c3.4,4.8,8.7,11.8,15.4,19.9c9.8-5.9,17.5-10.4,18.6-10.5c3.4-0.5,8.8,0.7,9.4,3.2
			c0.2,0.9,0.6,10,1,21.7c5.8-0.2,14.6-0.9,23.9-3.3l3.4-36.3L2936.4,1660.1z"/>
		<g>
			<path class="st4" d="M3027.6,1583.2c4.7-3.1,15.7-14.9,19.4-18.9c0-0.5,0.4-3.2,3.4-6.7c2.1-2.5,3.7-8,5.1-6.5
				c1.4,1.6-2.1,6-0.5,6.1c1.6,0,9.4-8.8,10.7-7.3c1.3,1.4-6.7,9.3-5.3,9.3c1.4,0,7.9-7.9,9.6-5.9c1.8,2-8.5,8.6-7.5,9.7
				c1,1.1,7.3-3.2,8.7-1.6c1.4,1.6-8.9,5.5-8.1,5.5c0.8,0,6.8-0.1,6.9,1c0.1,1.3-15.2,3.3-17,5.6l0,0c-4,6.3-11,17.9-18.2,22.9
				c-8.8,6.2-29,19.4-29,19.4l-10.1-13C2995.7,1602.8,3022,1586.8,3027.6,1583.2z"/>
			<path class="st7" d="M3055,1560c0.4,0.8,0.6,1.6,0.6,2.4c0,0.1,0.3,2.9-2,4.9C3054.5,1565.7,3055.5,1563.8,3055,1560z"/>
		</g>
		<g>
			<path class="st4" d="M2934.8,1569c-3.7-4.2-11.3-18.5-13.8-23.3c0.1-0.5,0.5-3.2-1.5-7.3c-1.4-2.9-1.5-8.7-3.2-7.6
				c-1.8,1.2,0.4,6.4-1.1,6c-1.5-0.4-6.8-10.9-8.4-9.9c-1.6,1.1,4,10.7,2.7,10.3c-1.4-0.3-5.5-9.7-7.8-8.2
				c-2.2,1.5,5.9,10.5,4.7,11.3s-6.2-5-8-3.8c-1.8,1.2,7.2,7.6,6.4,7.4c-0.8-0.2-6.5-1.9-6.9-0.8c-0.4,1.2,13.8,7.2,15,9.8h0
				c2.2,7.1,6,20.1,11.6,26.9c6.8,8.3,22.9,26.3,22.9,26.3l13.1-9.9C2960.4,1596.3,2939.2,1573.9,2934.8,1569z"/>
			<path class="st7" d="M2914.3,1539.4c-0.6,0.6-1,1.4-1.2,2.2c0,0.1-1.1,2.7,0.6,5.3C2913.3,1545,2912.8,1543,2914.3,1539.4z"/>
		</g>
		<path class="st8" d="M2945.4,1578.6l-11.8,15.4l14.7,21.8c0,0-1.4,16.2-3.5,21.3c-2.1,5.1-14.4,25.9-14.4,25.9
			s29.7,18.2,58.8,15.6c0,0,8.2-42.1,10.5-46.2c2.3-4,24.5-24.1,24.5-24.1l-10.8-17.4l-18.6,10.3c0,0-34-5.5-35.6-7.1
			C2957.5,1592.4,2945.4,1578.6,2945.4,1578.6z"/>
		
			<ellipse transform="matrix(0.3374 -0.9414 0.9414 0.3374 496.8568 3861.541)" class="st4" cx="2991.5" cy="1577.8" rx="5" ry="3.4"/>
		
			<ellipse transform="matrix(4.724131e-02 -0.9989 0.9989 4.724131e-02 1252.2139 4453.7437)" class="st4" cx="2960.8" cy="1570.5" rx="5" ry="3.4"/>
		<path class="st4" d="M2970.5,1588.6c0,0.2-1.5,6.6-2.3,10c-0.3,1.3,0.3,2.6,1.5,3.1c3.2,1.4,9.4,3.5,13.6-0.4
			c0.4-0.4,0.6-0.9,0.6-1.4l-0.5-15.3L2970.5,1588.6z"/>
		<path class="st7" d="M2969.7,1592.2c3.3,1.7,7.5,1.7,12.2-1c0.6-0.3,1.2-0.7,1.7-1.1l-0.2-5.5l-12.9,4
			C2970.5,1588.7,2970.2,1590.2,2969.7,1592.2z"/>
		<path class="st4" d="M2979.7,1553.3c0,0,5.6,1.5,9,7c3.3,5.5,5.2,21.4-6.7,28.3c-11.9,6.9-20.5-3.8-20.3-14
			C2961.9,1564.4,2966.5,1551.4,2979.7,1553.3z"/>
		<path class="st3" d="M2987.2,1554c0,0-8,11.8-16,11c-8-0.8-8.4,1.4-8.4,1.4s-0.1-11.3,7.1-13.2
			C2977.2,1551.3,2987.2,1554,2987.2,1554z"/>
	</g>
	<g>
		<g>
			<ellipse class="st9" cx="2566.9" cy="1690.9" rx="27.2" ry="27.2"/>
			<polygon class="st10" points="2566.4,1678.3 2579.1,1685.7 2576,1700.1 2561.4,1701.6 2555.5,1688.1 			"/>
			<path class="st10" d="M2590.7,1677.7l-0.1,0l-4.6,9.1l7.2,7.2l0.8-0.4c0.1-0.9,0.1-1.8,0.1-2.7
				C2594,1686.1,2592.8,1681.6,2590.7,1677.7z"/>
			<path class="st10" d="M2543.3,1677.7l-0.1,0c-2.2,3.9-3.4,8.4-3.4,13.2c0,0.9,0,1.8,0.1,2.7l0.8,0.4l7.2-7.2L2543.3,1677.7z"/>
			<path class="st10" d="M2576.8,1716.2c4.1-1.6,7.6-4.1,10.5-7.4l-8.4,0.2L2576.8,1716.2z"/>
			<path class="st10" d="M2546.5,1708.9c3.3,3.7,7.6,6.6,12.5,8.1l-2.3-7.8L2546.5,1708.9L2546.5,1708.9z"/>
			<path class="st10" d="M2559,1664.8l8,5.5l7.3-5.6c-2.4-0.7-4.9-1-7.5-1C2564.2,1663.7,2561.5,1664.1,2559,1664.8z"/>
		</g>
		<path class="st9" d="M2574.4,1706.5c-15,0-27.2-12.2-27.2-27.2c0-3,0.5-5.8,1.4-8.5c-5.4,5-8.8,12.1-8.8,20.1
			c0,15,12.2,27.2,27.2,27.2c12,0,22.2-7.9,25.8-18.7C2587.9,1703.8,2581.4,1706.5,2574.4,1706.5z"/>
	</g>
	<g>
		<path class="st11" d="M2447.8,1444.9c-7.6,6.2-11.9,22.7-10.1,29.2c1.7,6.5,9.9,11.6,9.9,11.6l11.4,9.1c0,0,14.4-9.2,20.2-16.3
			c2.2-2.7,3.2-4.7,4.7-11.8c1.9-9.2,1.8-16.6-7.2-21.4C2467.9,1440.7,2457,1437.4,2447.8,1444.9z"/>
		<path class="st4" d="M2482.7,1694.6c0,0,1.5,10.9,1,14.5c-0.3,1.9-2.1,6-1.1,7.7c1.1,1.7,27.1,1.1,27.1,1.1
			c1.4-0.1,0.4-0.9-0.7-1.6c-1.9-1.2-3.4-2-9.2-4.4c-0.4-0.2-1.8-0.9-2.3-1.2c-1.3-0.7-2.6-1.8-3.7-2.9c-1.9-1.9-2.6-11.5-2.6-11.5
			L2482.7,1694.6z"/>
		<path class="st4" d="M2435.3,1576.5c0,0,2.6,14.5,8.2,23.2c5.5,8.4,24.2,27.8,31.4,40.1c-0.4,7.6,1,18.6,2.5,26.7
			c1.8,9.2,6.3,37.8,6.3,37.8l8.6-0.1l4.5-70.6l-27-56.3l-9.9-18L2435.3,1576.5z"/>
		<path class="st4" d="M2383.2,1632.2c0,0-24.3,2.3-28.3,2.4c-4,0.1-14.2,12.3-10.3,10.3c0.9-0.5,3.9-1.7,4.2-1.8
			c1.6-0.2,28.6-0.5,28.6-0.5L2383.2,1632.2z"/>
		<path class="st12" d="M2337.2,1652.9l11.3-9.6c0,0,1-4.5,6.4-8.7c0,0-1-3.1-3.6-5.7c-0.5-0.4-3.5-3.5-4-3.2
			c-2,1.2-5.8,6.6-10,12.5c0,0-4.7,8.2-7.1,14C2327.7,1658,2337.2,1652.9,2337.2,1652.9z"/>
		<path class="st4" d="M2431.5,1647.4c6.4-5.3,33.1-67.1,33.1-67.1l-9,2.1l-24.3-13.3c-0.6-1.1-17.7,59.9-17.7,59.9l-55.7,5.5
			c0,0-3.5,5.5-2.6,8.6C2355.4,1643.3,2424.2,1653.4,2431.5,1647.4z"/>
		<path class="st13" d="M2434.8,1598c0.8,0.2,31.4,46.6,31.4,46.6s27.6-12.3,36.4-20.6l-27.8-44c0,0-28-5-28.6-3.9
			C2445.7,1577.1,2434.8,1598,2434.8,1598z"/>
		<path class="st6" d="M2423.6,1581.4l-15.8,47.3c0,0,26.5,11.7,39.6,12.8l18.5-55.4L2423.6,1581.4z"/>
		<path class="st12" d="M2497.4,1710.7c-6.5,2.1-11.4,1.2-14.2,0.2c-0.6,2-2.6,7.1-1.8,7.2c5.9,1.2,12.7,3.2,30.6,2.1
			c0.6,0,0.4-3.2,0-3.6C2510.7,1715.3,2497.9,1711,2497.4,1710.7z"/>
		<g>
			<path class="st4" d="M2403.5,1529.7c-4.9,2-17.4,10.8-21.7,13.9c-0.1,0.4-1,2.9-4.4,5.6c-2.4,1.9-5,6.8-6,5
				c-1-1.7,3.1-5.2,1.6-5.5c-1.5-0.3-10.4,6.4-11.3,4.8c-0.9-1.6,8-7.3,6.7-7.6c-1.3-0.3-8.8,5.8-10.1,3.6c-1.3-2.2,9.5-6.4,8.8-7.6
				c-0.7-1.2-7.4,1.6-8.4-0.2c-1-1.8,9.4-3.4,8.6-3.6c-0.8-0.2-6.4-1.2-6.2-2.3c0.2-1.2,14.7-0.2,16.9-1.9l0,0
				c4.9-5.1,13.7-14.5,21.3-17.9c9.3-4.1,30.7-12.5,30.7-12.5l6.9,14C2436.9,1517.5,2409.3,1527.4,2403.5,1529.7z"/>
		</g>
		<g>
			<path class="st4" d="M2513.5,1528c4.9,2.4,20.2,5.9,25.4,7c0.4-0.2,2.9-1.2,7.3-0.4c3.1,0.6,8.6-0.8,7.9,1.1
				c-0.6,1.9-6.1,1.2-5.3,2.6c0.7,1.3,12,3.6,11.4,5.4s-11.1-1.1-10.4,0.1c0.7,1.2,10.5,2.7,9.7,5.2c-0.8,2.5-11.4-2.9-11.8-1.5
				c-0.4,1.3,6.3,4.5,5.6,6.6c-0.7,2-9-4.8-8.6-4.1s3.5,5.7,2.5,6.3c-1.1,0.7-10.2-11.1-13-11.5l0,0c-7.3-0.2-20.4-0.5-28.2-4
				c-9.5-4.3-30.5-14.9-30.5-14.9l6-14.8C2481.4,1510.9,2507.7,1525.2,2513.5,1528z"/>
			<path class="st7" d="M2546.5,1539.7c-0.5,0.7-1.1,1.3-1.8,1.7c-0.1,0-2.2,1.7-5.1,0.8C2541.5,1542.1,2543.5,1542,2546.5,1539.7z"
				/>
		</g>
		<path class="st14" d="M2501.1,1519.8c0,0-1.3,3.7-17.4,14.5l-28.3-19.7l17.7-14.8L2501.1,1519.8z"/>
		<path class="st5" d="M2458.3,1499.3c0,0,10.5-0.5,14.8,0.5c3.8,0.8,11,88.8,9.6,90.3c-12.3,13.1-62.2-4.4-62.2-4.4
			s12-55.1,12.7-60.5c0.4-3.2-18.6,4.7-18.6,4.7l-2.5-22.6c0,0,21.9-8,29.5-8.6C2443.7,1498.5,2458.3,1499.3,2458.3,1499.3z"/>
		<path class="st4" d="M2465.1,1490.5c0,0-1.7,11.1-0.8,12.3c0.9,1.2,2.2,3.1,0.3,5.6c-1.9,2.5-8.3-0.1-11.2-2
			c-2.8-1.8-4.4-4.8-4.4-4.8l3.7-17.4L2465.1,1490.5z"/>
		<path class="st15" d="M2460.1,1494.5c-2-1-5.6-2.9-7.9-8l0.5-2.4l12.4,6.4c0,0-0.4,2.7-0.7,5.6
			C2462.6,1495.7,2461.1,1495,2460.1,1494.5z"/>
		<path class="st4" d="M2462,1450.4c0,0-6.2,0.9-10.6,6.5c-4.4,5.6-8.7,22.8,2.8,32c11.5,9.1,22.3-1.6,23.6-12.8
			C2479.2,1464.9,2478.4,1449.7,2462,1450.4z"/>
		<path class="st4" d="M2481,1472.8c-1.3,2.6-3.6,4.1-5.1,3.4s-1.6-3.5-0.2-6.1c1.3-2.6,3.6-4.1,5.1-3.4
			C2482.3,1467.4,2482.4,1470.2,2481,1472.8z"/>
		<path class="st4" d="M2449.6,1472.5c0.6,3-0.5,5.8-2.5,6.3c-2,0.5-4.1-1.6-4.7-4.6c-0.6-3,0.5-5.8,2.5-6.3
			C2446.9,1467.5,2449,1469.5,2449.6,1472.5z"/>
		<path class="st0" d="M2458.4,1479.1l9.3,0.8c0,0-0.5,3.6-4.7,3.3C2458,1483,2458.4,1479.1,2458.4,1479.1z"/>
	</g>
	<g>
		<path class="st4" d="M2683,1638.7c1.5-1.6,37.3-25.1,37.3-25.1l-6.8-26.9l-28.6-2.7c0,0-26.1,39.1-29.1,45.4
			c-1.8,3.8,24.5,75.3,24.5,75.4c-1.2,1.9-7.1,3.9-7.6,4.1c-0.8,1-5.7,7.5-6.1,7.7c-0.2,0.1-1.2,1-2.3,2l7.3,0
			c1.9,0,10.9-1.1,12.5-1.4c1.1-0.2,5.1,0.6,7.5,1.1c1.7,0.3,3.5-0.1,4.8-1.4c0.8-0.7,1.4-1.7,1.4-2.8c0.1-5.1-0.7-5.8-1.3-8.6
			C2696.6,1705.2,2681.7,1640,2683,1638.7z"/>
		<path class="st16" d="M2713.4,1455.6c0,0-14.2-5.4-17.3,6.8c0,0-12.1,0.3-8.5,12.4c0,0-11.3,7.5-1.8,22.2c0,0-1.5,15.1,15.7,13.9
			c0,0,3.2,4.9,10.9,2.7c7.7-2.2,9.4-4.5,9.4-4.5s14.4,2.4,17-10.7c0,0,9.3-3.4,1.4-14.9c0,0,6.4-16.9-8.9-19.9
			C2731.4,1463.7,2727.7,1447.7,2713.4,1455.6z"/>
		
			<ellipse transform="matrix(0.2203 -0.9754 0.9754 0.2203 672.5712 3821.8064)" class="st4" cx="2726.9" cy="1490.2" rx="5.8" ry="4"/>
		
			<ellipse transform="matrix(0.9972 -7.470021e-02 7.470021e-02 0.9972 -103.4907 205.1073)" class="st4" cx="2690.2" cy="1486" rx="4" ry="5.8"/>
		<path class="st4" d="M2787,1673.9c0.3-6.7,0.7-12.7,0.7-12.7s0.9,0.2,2.2,0.5c-1.2-3-2.7-6.5-3.2-7.4c-0.5-1-0.9-5.1-1-7.5
			c-0.1-1.7-1-3.3-2.7-4.3c-0.9-0.5-2-0.9-3.1-0.6c-4.9,1.3-4.8,2.3-7.3,3.7c-1.1,0.6-2.8,1.3-4.8,2c-1.3,0.1-1.9,0.1-3.6,0.2
			c0,0-24.5,2.4-25.9,1.1c-1.5-1.3,10.6-37.5,7-49.5l-4.3-22l-43.4,6.6c0,0,8.5,22.9,8.9,30.6c0.3,5.9,0.3,53,13,56.9
			c5.5,1.7,27.3-3.7,37.5-6.4l0,0c0,0,0,0,0,0c1.6-0.4,3-0.8,3.9-1c5.3-1.4,14.3-2.7,14.6-2.6c2.2,0.6,4.8,5.7,5.3,6.2
			C2780.9,1667.8,2784.4,1671.4,2787,1673.9z"/>
		<path class="st4" d="M2732.9,1517.4l19.5,7.6l21,16.8l-38.2,3.3c0,0-8.4-10.7-7.7-11.4C2728.2,1533,2732.9,1517.4,2732.9,1517.4z"
			/>
		<g>
			<path class="st4" d="M2671.6,1480.3c-3.6-5.2-10-22.3-12.1-28.1c0.2-0.5,1-3.5-0.7-8.4c-1.2-3.5-0.4-10-2.5-9
				c-2.1,1.1-0.5,7.2-2.1,6.5c-1.7-0.7-6-13.2-8-12.3c-1.9,1,3,12.6,1.5,12c-1.5-0.6-4.8-11.7-7.5-10.3c-2.7,1.4,5.1,12.7,3.6,13.4
				c-1.5,0.7-6.2-6.5-8.4-5.4c-2.2,1.1,7,9.6,6.1,9.3c-0.9-0.3-7.1-3.1-7.6-1.9c-0.6,1.3,14.4,10,15.4,13.2h0
				c1.4,8.3,3.8,23.5,9.1,31.8c6.5,10.3,29.3,45.5,29.3,45.5l8.8-22C2696.4,1514.6,2675.8,1486.5,2671.6,1480.3z"/>
			<path class="st7" d="M2652.9,1444.2c-0.7,0.6-1.3,1.4-1.7,2.3c0,0.2-1.6,2.8-0.1,6C2650.9,1450.4,2650.7,1448,2652.9,1444.2z"/>
		</g>
		<path class="st4" d="M2779.4,1502.3c0,0-1.5-2.5-0.9-7.6c0.4-3.3-1.4-8.9,0.6-8.3c2,0.6,1.6,6.2,2.9,5.4
			c1.3-0.9,2.8-12.7,4.6-12.1c1.8,0.5-0.3,11.6,0.8,10.8c1.1-0.8,2-11.1,4.6-10.3s-2.1,12-0.8,12.4c1.4,0.4,4.1-6.8,6.1-6.2
			c2,0.6-4.2,9.6-3.5,9.2c0.7-0.4,5.4-3.9,6.1-3c0.7,1.1-8.9,8.9-9.1,11.9c-0.3,2.9-9.4,34.9-14.8,37.1c-5.4,2.2-36.2-4.5-40.1-9.2
			c-3.9-4.6-6.1-12.7-2.8-14.9c0,0,34.5,6.6,35.5,5.9C2769.4,1522.7,2779.4,1502.3,2779.4,1502.3z"/>
		<path class="st7" d="M2782.3,1493.7c0.8,0.5,1.5,1.2,2,2c0.1,0.1,2,2.6,1,5.9C2785.1,1499.5,2785,1497.1,2782.3,1493.7z"/>
		<path class="st4" d="M2715.1,1552l-30.2,1.4c-1.2,19.1,0.7,40.2,0.7,40.2c18.8,3,60.2,8,60.2,8s-6.5-32.4-9.2-48.4L2715.1,1552z"
			/>
		<path class="st6" d="M2684.9,1553.4c3.9,1.8,23.2,9.9,53,7.4c-1.4-7.7-2.5-13.9-2.6-15.7c-7-12.5-2.4-27.7-2.4-27.7
			c-1.8-0.4-3.4-0.8-4.6-1c-2.2-0.3-17.7-0.5-17.7-0.5s-10.8-0.6-14.8-1.8c-8.6,19.6-8.3,22.5-8.3,22.5
			C2686.2,1541.9,2685.4,1547.7,2684.9,1553.4z"/>
		<path class="st4" d="M2704.1,1506.1c0,0,1,11.8,0,13c-1.1,1.2-2.5,3.1-0.7,5.8c1.8,2.7,8.8,0.5,12-1.3c3.1-1.7,5-4.7,5-4.7
			l-2.7-18.7L2704.1,1506.1z"/>
		<path class="st7" d="M2709.1,1510.7c2.2-0.9,6.1-2.7,8.9-7.9l-0.4-2.6l-13.6,5.8c0,0,0.2,2.9,0.4,6
			C2706.4,1511.8,2708,1511.2,2709.1,1510.7z"/>
		<path class="st12" d="M2684.9,1584l-24.5,32.7c0,0,24,16.7,29,18.8l20.4-13.8l-2.1-37.7L2684.9,1584z"/>
		<path class="st8" d="M2695.4,1583.4l10.4,51.1l37.3,0.2c0,0,8.3-32.9-1.6-52.4L2695.4,1583.4z"/>
		<path class="st6" d="M2696.6,1705.4c0,0-20.1,3.7-23.1,3.3c-2.4-0.3-14.8,9.1-13,11.6c1.8,2.5,34.1-0.5,36.9-2.9
			C2700.4,1715,2696.6,1705.4,2696.6,1705.4z"/>
		<path class="st6" d="M2772.7,1645.5c0,0,7.8,18.9,8,21.9c0.2,2.4,12,12.5,14.1,10.2c2.1-2.3-7.6-33.3-10.6-35.5
			C2781.3,1639.8,2772.7,1645.5,2772.7,1645.5z"/>
		<path class="st6" d="M2687.5,1536.6c0,0-7.6,26.9-4.6,48c0,0,34.4,11.9,59.4-0.6c0,0-2.8-17.5-5.4-29c-2.7-11.5-24.8-2.2-24.8-2.2
			L2687.5,1536.6z"/>
		<path class="st6" d="M2695.8,1514.1l-12.6-19.5c0,0-13.5,12-14.3,15.9c0,0,14,24.5,18.9,29.3
			C2692.7,1544.6,2695.8,1514.1,2695.8,1514.1z"/>
		<path class="st6" d="M2732.9,1517.4l22.1,2.2c0,0,3.7,19.9,0.5,25.1l-22.8,3.1l-5.7-22.9L2732.9,1517.4z"/>
		<path class="st4" d="M2709.7,1463.4c0,0,6.8,0.9,11.4,6.8c4.6,5.9,9,24.1-3.7,33.8c-12.8,9.7-24.3-1.5-25.5-13.4
			C2690.6,1478.9,2694,1463.1,2709.7,1463.4z"/>
	</g>
	<g>
		<g>
			<g>
				<path class="st17" d="M3386.2,1570.5c27.8-44.7,33-98.7,32.5-136.1c-0.6-40.6-7.9-71-8-71.3l2-0.7c0.1,0.3,7.4,30.9,8,71.8
					c0.6,37.8-4.7,92.3-32.9,137.6L3386.2,1570.5z"/>
			</g>
			<g>
				<path class="st17" d="M3403.8,1355.7c0.7,9.2,4.6,16.9,10.3,21.6c4.9-6.4,7.6-15.2,6.9-24.4s-4.6-16.9-10.3-21.6
					C3405.9,1337.7,3403.1,1346.5,3403.8,1355.7z"/>
			</g>
			<g>
				<path class="st17" d="M3422.6,1376.9c-4.7,8-6.2,17-4.7,24.9c7.2-1.8,14.2-7,18.9-14.9c4.7-8,6.2-17,4.7-24.9
					C3434.3,1363.7,3427.3,1368.9,3422.6,1376.9z"/>
			</g>
			<g>
				<path class="st17" d="M3433.3,1401.9c-7.3,4.9-12.3,12.5-14.2,20.5c7,2,15.1,0.8,22.5-4.1c7.3-4.9,12.3-12.5,14.2-20.5
					C3448.8,1395.7,3440.6,1396.9,3433.3,1401.9z"/>
			</g>
			<g>
				<path class="st17" d="M3430,1436.6c-5.8,3.9-9.4,10.6-10.4,17.9c6,2.6,12.9,2.3,18.7-1.6c5.8-3.9,9.4-10.6,10.4-17.9
					C3442.6,1432.4,3435.8,1432.7,3430,1436.6z"/>
			</g>
			<g>
				<path class="st17" d="M3406,1395.4c-6.5-3.6-13.8-3.8-20.1-1.2c1.7,6.9,6,13.2,12.6,16.8c6.5,3.6,13.8,3.8,20.1,1.2
					C3416.9,1405.2,3412.5,1399,3406,1395.4z"/>
			</g>
			<g>
				<path class="st17" d="M3406.7,1419.4c-6.5-3.6-13.8-3.8-20.1-1.2c1.7,6.9,6,13.2,12.6,16.8c6.5,3.6,13.8,3.8,20.1,1.2
					C3417.6,1429.3,3413.3,1423,3406.7,1419.4z"/>
			</g>
		</g>
		<g>
			<g>
				<path class="st2" d="M3404.9,1789.3c61.6-22.4,104.8-75.7,130.1-116.5c27.5-44.3,40.5-83.8,40.6-84.2l2.7,1.1
					c-0.1,0.4-13.2,40.2-40.9,84.8c-25.6,41.2-69.1,95.1-131.5,117.8L3404.9,1789.3z"/>
			</g>
			<g>
				<path class="st2" d="M3573.2,1574.2c-5.6,10.5-6.6,22.5-3.6,32.9c9.8-2.4,18.9-9.3,24.5-19.8s6.6-22.5,3.6-32.9
					C3587.9,1556.7,3578.8,1563.6,3573.2,1574.2z"/>
			</g>
			<g>
				<path class="st2" d="M3579.2,1614.5c-10.7,4.2-18.6,12.6-22.4,22.5c9.2,4.8,20.5,5.7,31.2,1.5c10.7-4.2,18.6-12.6,22.4-22.5
					C3601.2,1611.1,3589.9,1610.3,3579.2,1614.5z"/>
			</g>
			<g>
				<path class="st2" d="M3573.7,1651.2c-11.5-1.5-22.2,2-29.8,8.9c6.3,8.7,16.1,14.9,27.6,16.4c11.5,1.5,22.2-2,29.8-8.9
					C3595,1659,3585.1,1652.7,3573.7,1651.2z"/>
			</g>
			<g>
				<path class="st2" d="M3551.9,1686.5c-11.5-1.5-22.2,2-29.8,8.9c6.3,8.7,16.1,14.9,27.6,16.4c11.5,1.5,22.2-2,29.8-8.9
					C3573.3,1694.2,3563.4,1688,3551.9,1686.5z"/>
			</g>
			<g>
				<path class="st2" d="M3553.7,1631.6c-0.6-11.1-5.3-21.2-12.1-28c-6.1,6.6-9.6,16.5-9,27.6c0.6,11.1,5.3,21.2,12.1,28
					C3550.8,1652.6,3554.3,1642.7,3553.7,1631.6z"/>
			</g>
			<g>
				<path class="st2" d="M3531,1668.1c-0.5-11.1-5-21.3-11.7-28.2c-6.2,6.5-9.9,16.3-9.4,27.5c0.5,11.1,5,21.3,11.7,28.2
					C3527.8,1689,3531.4,1679.2,3531,1668.1z"/>
			</g>
			<g>
				<path class="st2" d="M3514.9,1722.9c-4.4-2.3-9.2-2.4-13.3-0.6c1.2,4.5,4.3,8.6,8.7,10.9s9.2,2.4,13.3,0.6
					C3522.3,1729.3,3519.2,1725.2,3514.9,1722.9z"/>
			</g>
		</g>
		<path class="st17" d="M3271.7,1735c0,0-47.9-100.8-31.9-123.3c22.1-31.1,49.7,64.3,51,55.9c12.7-79.2,10-179,69.3-194.1
			c33.7-8.6-2.2,74.6,2,96s60.3-55.1,94.8-95.5s55.7-18.1,35.7,31c-19.4,47.5-89.5,103.1-73.8,107.9c15.7,4.8,103.7-61.4,117-37
			c16.3,29.9-119.3,82.6-105.7,88.6c13.6,6,78.2-22,78.2,1.8s-89.3,29.8-86.9,40.1c3.8,16.7,59.8-26,64.2-2.9
			c4.5,23.7-76.1,25.4-73.3,44c1.6,10.6,21.9-0.5,25.6,14.1c8.4,33.3-118.6,80-118.6,80L3271.7,1735z"/>
		<g>
			<path class="st18" d="M3319.1,1840.7c0,0,49.3-78.7,73.5-93.9c25.7-16.1,6.8,31.1,6.8,31.1s52-64.3,67.1-51.7s1.9,27.7,1.9,27.7
				s47.5-15,56.4,2.4c13.7,26.7-64.5,50.5-64.5,50.5s33.7-1,27.9,17.3C3479.2,1851.7,3319.1,1840.7,3319.1,1840.7z"/>
			<path class="st2" d="M3524.7,1756.3c-8.9-17.4-56.4-2.4-56.4-2.4s13.1-15.1-1.9-27.7s-56.9,26.7-56.9,26.7s3.9-31.8-27.6-3.3
				c-22.5,20.4-62.8,91.1-62.8,91.1L3524.7,1756.3z"/>
		</g>
		<path class="st2" d="M3170.4,1753.3c-19.3,9-14.1,31.4-14.1,31.4s-52.3-40.7-71.8-16.9c-19.5,23.7-9.3,70.3,13.7,77.9
			s222.3,2.3,222.3,2.3S3187.8,1745.2,3170.4,1753.3z"/>
		<g>
			<g>
				<g>
					<path class="st18" d="M3271.7,1670.3l-2.4-1.4c36.8-65.4,44.2-140.4,43.9-191.8c-0.3-55.8-9.5-96.7-9.6-97.1l2.8-1
						c0.1,0.4,9.4,41.5,9.7,97.7C3316.3,1528.6,3308.9,1604.3,3271.7,1670.3z"/>
				</g>
				<g>
					<path class="st18" d="M3294.7,1370.9c0.8,12.5,5.9,22.6,13.3,28.3c6.4-9.5,10.1-21.9,9.3-34.4s-5.9-22.6-13.3-28.3
						C3297.6,1345.9,3293.9,1358.3,3294.7,1370.9z"/>
				</g>
				<g>
					<path class="st18" d="M3319,1397.5c-6.2,11.6-8.3,24.2-6.4,34.8c9.5-3.4,18.6-11.5,24.9-23.1c6.2-11.6,8.3-24.2,6.4-34.9
						C3334.5,1377.8,3325.3,1385.9,3319,1397.5z"/>
				</g>
				<g>
					<path class="st18" d="M3332.7,1430.4c-9.6,7.8-16.2,18.8-18.8,30.1c9.1,1.9,19.7-0.9,29.4-8.7c9.6-7.8,16.2-18.8,18.8-30.1
						C3353,1419.9,3342.3,1422.7,3332.7,1430.4z"/>
				</g>
				<g>
					<path class="st18" d="M3323.6,1490.2c-4.2,2.9-7.3,7.4-8.7,12.1c3.7,1.1,8.2,0.3,12.5-2.7c4.2-2.9,7.3-7.4,8.7-12.1
						C3332.4,1486.4,3327.9,1487.2,3323.6,1490.2z"/>
				</g>
				<g>
					<path class="st18" d="M3321.6,1512.2c-4.2,2.9-7.3,7.4-8.7,12.1c3.7,1.1,8.2,0.3,12.5-2.7c4.2-2.9,7.3-7.4,8.7-12.1
						C3330.3,1508.4,3325.8,1509.3,3321.6,1512.2z"/>
				</g>
				<g>
					<path class="st18" d="M3297.2,1425.3c-8.5-4-18-3.3-26.2,1.1c2.1,9.3,7.7,17.3,16.2,21.3c8.5,4,18,3.3,26.2-1.1
						C3311.3,1437.3,3305.6,1429.3,3297.2,1425.3z"/>
				</g>
				<g>
					<path class="st18" d="M3297.9,1458.2c-8.5-4-18-3.3-26.2,1.1c2.1,9.3,7.7,17.3,16.2,21.3c8.5,4,18,3.3,26.2-1.1
						C3312,1470.2,3306.3,1462.3,3297.9,1458.2z"/>
				</g>
				<g>
					<path class="st18" d="M3302.8,1505.1c-5.5-2.6-11.7-2.2-17,0.7c1.4,6.1,5,11.2,10.6,13.9c5.5,2.6,11.7,2.2,17-0.7
						C3312,1512.9,3308.3,1507.7,3302.8,1505.1z"/>
				</g>
			</g>
		</g>
		<g>
			<g>
				<path class="st18" d="M3320.5,1847.7c0,0-87.1-17.9-106.1-35.3s-10.6-24.2-10.6-24.2s-33.5-26.4-33-43.6
					c0.5-17.2,22.3-8.5,22.3-8.5s-37-47.4-28.2-56.5c16.3-16.8,59.1,32.5,59.1,32.5s-12.7-23.5,0.7-27.2c20.2-5.6,35,52.2,35,52.2
					s-3.8-22.9,10.1-19.8C3294.8,1722.8,3320.5,1847.7,3320.5,1847.7z"/>
			</g>
		</g>
	</g>
	<rect x="2294.8" y="849.1" class="st6" width="22.3" height="992.7"/>
	<g>
		<path class="st13" d="M1624.9,816.8c0.8,41.4,33.9,74.6,74.7,74.6c40.8,0,73.9-33.3,74.7-74.6H1624.9z"/>
		<path class="st13" d="M1923.6,816.8c0.8,41.4,33.9,74.6,74.7,74.6c40.8,0,73.9-33.3,74.7-74.6H1923.6z"/>
		<path class="st13" d="M2222.4,816.8c0,0.3,0,0.5,0,0.8c0,42,33.4,76.1,74.7,76.1c41.2,0,74.7-34.1,74.7-76.1c0-0.3,0-0.5,0-0.8
			H2222.4z"/>
		<path class="st7" d="M1774.2,816.8c0.8,41.4,33.9,74.6,74.7,74.6s73.9-33.3,74.7-74.6H1774.2z"/>
		<path class="st7" d="M2073,816.8c0.8,41.4,33.9,74.6,74.7,74.6s73.9-33.3,74.7-74.6H2073z"/>
		<path class="st7" d="M2371.7,816.8c0.8,41.4,33.9,74.6,74.7,74.6c40.8,0,73.9-33.3,74.7-74.6H2371.7z"/>
	</g>
	<polygon class="st6" points="1699.5,527.2 2521.1,816.8 1699.5,816.8 	"/>
	<rect x="557.8" y="300.4" class="st5" width="1146.2" height="1552.3"/>
	<rect x="916.1" y="611.7" class="st0" width="300.6" height="819.4"/>
	
		<rect x="673.3" y="887.8" transform="matrix(-1.836970e-16 1 -1 -1.836970e-16 2087.7988 -44.9297)" class="st19" width="786.2" height="267.3"/>
	<rect x="587" y="611.7" class="st0" width="300.6" height="819.4"/>
	
		<rect x="344.2" y="887.8" transform="matrix(-1.836970e-16 1 -1 -1.836970e-16 1758.7471 284.1221)" class="st19" width="786.2" height="267.3"/>
	<rect x="1250.8" y="611.7" class="st0" width="300.6" height="819.4"/>
	
		<rect x="1008" y="887.8" transform="matrix(-1.836970e-16 1 -1 -1.836970e-16 2422.5457 -379.6765)" class="st19" width="786.2" height="267.3"/>
	<rect x="557.8" y="300.4" class="st6" width="1158.5" height="44"/>
	<g>
		<path class="st14" d="M1736.2,1842h-47.7v-392.5c0-11.3,9.2-20.4,20.4-20.4h6.8c11.3,0,20.4,9.2,20.4,20.4V1842z"/>
		<path class="st14" d="M1835.1,1842h-47.7v-392.5c0-11.3,9.2-20.4,20.4-20.4h6.8c11.3,0,20.4,9.2,20.4,20.4V1842z"/>
		<path class="st14" d="M1924.2,1842h-47.7v-392.5c0-11.3,9.2-20.4,20.4-20.4h6.8c11.3,0,20.4,9.2,20.4,20.4V1842z"/>
		<rect x="1705.7" y="1532.7" class="st14" width="203.8" height="22.7"/>
		<path class="st14" d="M536.6,1842h-47.7v-392.5c0-11.3,9.2-20.4,20.4-20.4h6.8c11.3,0,20.4,9.2,20.4,20.4V1842z"/>
		<path class="st14" d="M635.6,1842h-47.7v-392.5c0-11.3,9.2-20.4,20.4-20.4h6.8c11.3,0,20.4,9.2,20.4,20.4V1842z"/>
		<path class="st14" d="M724.7,1842H677v-392.5c0-11.3,9.2-20.4,20.4-20.4h6.8c11.3,0,20.4,9.2,20.4,20.4V1842z"/>
		<rect x="506.2" y="1532.7" class="st14" width="203.8" height="22.7"/>
		<path class="st17" d="M1706,1764.7c1-5.9,1.5-12,1.5-18.2c0-69-64.7-124.9-144.4-124.9s-144.4,55.9-144.4,124.9
			c0,6.2,0.5,12.3,1.5,18.2H1706z"/>
		<path class="st18" d="M1869.5,1734c1-8.4,1.5-17,1.5-25.7c0-97.3-64.7-176.2-144.4-176.2c-79.8,0-144.4,78.9-144.4,176.2
			c0,8.7,0.5,17.3,1.5,25.7H1869.5z"/>
		<path class="st18" d="M1816.6,1842c-1-5.9-1.5-12-1.5-18.2c0-69,64.7-124.9,144.4-124.9s144.4,55.9,144.4,124.9
			c0,6.2-0.5,12.3-1.5,18.2H1816.6z"/>
		<path class="st17" d="M1585.4,1842c-1.3-8.4-1.9-17-1.9-25.7c0-97.3,82-176.2,183.1-176.2c101.1,0,183.1,78.9,183.1,176.2
			c0,8.7-0.7,17.3-1.9,25.7H1585.4z"/>
		<path class="st18" d="M1726,1640.1c-50.5,0-95.7,25-125.5,64.3c-15.2-3.6-31.3-5.5-48-5.5c-89.7,0-162.5,55.9-162.5,124.9
			c0,6.2,0.6,12.3,1.7,18.2h495c1.1-8.4,1.7-17,1.7-25.7C1888.5,1719,1815.7,1640.1,1726,1640.1z"/>
	</g>
	<g>
		<path class="st17" d="M1056.7,1779.2c0.6-5.7,0.9-11.5,0.9-17.3c0-65.7-37.4-119-83.5-119c-46.1,0-83.5,53.3-83.5,119
			c0,5.9,0.3,11.7,0.9,17.3H1056.7z"/>
		<path class="st18" d="M1151.2,1749.9c0.6-8,0.9-16.2,0.9-24.5c0-92.7-37.4-167.8-83.5-167.8c-46.1,0-83.5,75.1-83.5,167.8
			c0,8.3,0.3,16.5,0.9,24.5H1151.2z"/>
		<path class="st18" d="M1120.6,1852.7c-0.6-5.7-0.9-11.5-0.9-17.3c0-65.7,37.4-119,83.5-119c46.1,0,83.5,53.3,83.5,119
			c0,5.9-0.3,11.7-0.9,17.3H1120.6z"/>
		<path class="st17" d="M987,1852.7c-0.7-8-1.1-16.2-1.1-24.5c0-92.7,47.4-167.8,105.8-167.8s105.8,75.1,105.8,167.8
			c0,8.3-0.4,16.5-1.1,24.5H987z"/>
		<path class="st18" d="M1068.3,1660.5c-29.2,0-55.3,23.8-72.5,61.2c-8.8-3.4-18.1-5.3-27.7-5.3c-51.9,0-93.9,53.3-93.9,119
			c0,5.9,0.3,11.7,1,17.3h286.1c0.7-8,1-16.2,1-24.5C1162.2,1735.6,1120.1,1660.5,1068.3,1660.5z"/>
	</g>
	<g>
		<g>
			<g>
				<path class="st17" d="M737.7,1589.2c29.2-45.7,34.7-100.8,34.1-139.1c-0.6-41.5-8.3-72.6-8.4-72.9l2.1-0.7
					c0.1,0.3,7.8,31.6,8.4,73.4c0.6,38.6-4.9,94.3-34.5,140.6L737.7,1589.2z"/>
			</g>
			<g>
				<path class="st17" d="M756.3,1369.7c0.7,9.4,4.9,17.3,10.9,22.1c5.1-6.5,8-15.5,7.3-24.9c-0.7-9.4-4.9-17.3-10.9-22.1
					C758.4,1351.3,755.5,1360.3,756.3,1369.7z"/>
			</g>
			<g>
				<path class="st17" d="M776,1391.4c-5,8.1-6.5,17.4-4.9,25.4c7.6-1.8,14.9-7.1,19.9-15.3c5-8.1,6.5-17.4,4.9-25.4
					C788.3,1377.9,781,1383.2,776,1391.4z"/>
			</g>
			<g>
				<path class="st17" d="M787.2,1416.9c-7.7,5-12.9,12.7-14.9,20.9c7.3,2.1,15.9,0.8,23.6-4.2c7.7-5,12.9-12.7,14.9-20.9
					C803.5,1410.6,794.9,1411.9,787.2,1416.9z"/>
			</g>
			<g>
				<path class="st17" d="M783.8,1452.4c-6.1,4-9.9,10.8-10.9,18.3c6.4,2.7,13.5,2.4,19.6-1.6c6.1-4,9.9-10.8,10.9-18.3
					C797,1448.1,789.9,1448.4,783.8,1452.4z"/>
			</g>
			<g>
				<path class="st17" d="M758.6,1410.3c-6.9-3.7-14.5-3.9-21.1-1.2c1.7,7.1,6.3,13.4,13.2,17.1c6.9,3.7,14.5,3.9,21.1,1.2
					C770,1420.3,765.4,1414,758.6,1410.3z"/>
			</g>
			<g>
				<path class="st17" d="M759.3,1434.8c-6.9-3.7-14.5-3.9-21.1-1.2c1.7,7.1,6.3,13.4,13.2,17.1c6.9,3.7,14.5,3.9,21.1,1.2
					C770.8,1444.9,766.2,1438.5,759.3,1434.8z"/>
			</g>
			<g>
				<path class="st17" d="M779.4,1491.4c-3.6,0.8-6.6,3.3-8.4,6.5c2.6,2.2,6.1,3.1,9.7,2.2c3.6-0.8,6.6-3.3,8.4-6.5
					C786.5,1491.5,783,1490.6,779.4,1491.4z"/>
			</g>
		</g>
		<g>
			<g>
				<path class="st17" d="M749.8,1621.5c66.9-16,117.9-65.5,149-104.2c33.7-42,51.7-80.7,51.9-81.1l2.7,1.4
					c-0.2,0.4-18.4,39.4-52.3,81.7c-31.3,39.1-82.9,89.1-150.6,105.3L749.8,1621.5z"/>
			</g>
			<g>
				<path class="st17" d="M949.7,1421.3c-7,10.1-9.4,22.1-7.4,33c10.5-1.4,20.8-7.4,27.8-17.5c7-10.1,9.4-22.1,7.4-33
					C967,1405.2,956.8,1411.2,949.7,1421.3z"/>
			</g>
			<g>
				<path class="st17" d="M951.5,1462.9c-11.7,3.1-20.8,10.8-25.9,20.4c9.1,5.9,20.8,8,32.5,4.9c11.7-3.1,20.8-10.8,25.9-20.4
					C974.9,1462,963.2,1459.8,951.5,1462.9z"/>
			</g>
			<g>
				<path class="st17" d="M941.6,1499.7c-11.8-2.8-23.4-0.3-32.2,5.8c5.6,9.5,15.2,16.9,27,19.7c11.8,2.8,23.4,0.4,32.2-5.8
					C963,1509.9,953.4,1502.5,941.6,1499.7z"/>
			</g>
			<g>
				<path class="st17" d="M914.9,1533.1c-11.8-2.8-23.4-0.4-32.2,5.8c5.6,9.5,15.2,16.9,27,19.7c11.8,2.8,23.4,0.4,32.2-5.8
					C936.3,1543.3,926.8,1535.9,914.9,1533.1z"/>
			</g>
			<g>
				<path class="st17" d="M922.9,1477.5c0.6-11.4-3.1-22.1-9.5-29.8c-7.1,6.1-11.9,15.7-12.5,27.1c-0.6,11.4,3.1,22.1,9.5,29.8
					C917.5,1498.6,922.3,1488.9,922.9,1477.5z"/>
			</g>
			<g>
				<path class="st17" d="M895.1,1512.1c0.8-11.4-2.8-22.1-9.1-30c-7.2,5.9-12.2,15.5-12.9,26.9c-0.8,11.4,2.8,22.1,9.1,30
					C889.4,1533.1,894.3,1523.5,895.1,1512.1z"/>
			</g>
			<g>
				<path class="st17" d="M872.1,1566.1c-4.3-2.8-9.3-3.4-13.8-2.1c0.8,4.8,3.5,9.2,7.8,12c4.3,2.8,9.3,3.4,13.8,2.1
					C879.1,1573.3,876.4,1568.9,872.1,1566.1z"/>
			</g>
		</g>
		<g>
			<g>
				<g>
					<path class="st17" d="M572.6,1716l-2.9-0.2c4.2-76.5-23.9-148.5-48.2-195.5c-26.4-50.9-54.1-84.2-54.4-84.5l2.1-2.2
						c0.3,0.3,28.2,33.8,54.7,85C548.5,1566,576.9,1638.7,572.6,1716z"/>
				</g>
				<g>
					<path class="st17" d="M454.6,1431.5c6.6,11.1,16.1,18,25.7,19.9c1.6-11.6-0.7-24.6-7.3-35.7c-6.6-11.1-16.1-18-25.7-19.9
						C445.6,1407.3,448,1420.3,454.6,1431.5z"/>
				</g>
				<g>
					<path class="st17" d="M489.9,1444.8c-0.5,13.4,3.5,25.9,10.3,34.8c7.3-7.4,12.2-19,12.6-32.5c0.5-13.4-3.5-25.9-10.3-34.8
						C495.3,1419.8,490.4,1431.4,489.9,1444.8z"/>
				</g>
				<g>
					<path class="st17" d="M518.1,1468.7c-5.4,11.5-6.4,24.6-3.6,36c9.4-2.4,18.1-9.8,23.6-21.3c5.4-11.5,6.4-24.6,3.6-36
						C532.3,1449.8,523.6,1457.3,518.1,1468.7z"/>
				</g>
				<g>
					<path class="st17" d="M537.5,1527.5c-2.6,4.6-3.4,10.1-2.5,15c4-0.7,7.9-3.5,10.5-8.1c2.6-4.6,3.4-10.1,2.5-15
						C544,1520.1,540.1,1522.9,537.5,1527.5z"/>
				</g>
				<g>
					<path class="st17" d="M545.8,1548.6c-2.6,4.6-3.4,10.1-2.5,15c4-0.7,7.9-3.5,10.5-8.1c2.6-4.6,3.4-10.1,2.5-15
						C552.3,1541.2,548.4,1544,545.8,1548.6z"/>
				</g>
				<g>
					<path class="st17" d="M482.3,1480.1c-9.9,0.1-18.5,5.1-24.1,12.9c6.3,7.6,15.4,12.3,25.2,12.2c9.9-0.1,18.5-5.1,24.1-12.9
						C501.2,1484.7,492.2,1480,482.3,1480.1z"/>
				</g>
				<g>
					<path class="st17" d="M498.3,1510c-9.9,0.1-18.5,5.1-24.1,12.9c6.3,7.6,15.4,12.3,25.2,12.2c9.9-0.1,18.5-5.1,24.1-12.9
						C517.2,1514.6,508.2,1509.8,498.3,1510z"/>
				</g>
				<g>
					<path class="st17" d="M524.8,1550.6c-6.4,0.1-12,3.3-15.7,8.4c4.1,4.9,10,8,16.4,7.9c6.4-0.1,12-3.3,15.7-8.4
						C537.1,1553.6,531.2,1550.5,524.8,1550.6z"/>
				</g>
			</g>
		</g>
		<path class="st17" d="M822.1,1841.5c0-12.7-76.9,2.3-83.3-15.1c-6.4-17.4,65.9-18.4,65.9-41.8s-36.8-7-58.4-7
			c-21.6,0,42.6-10.1,42.6-18.4s-22.5-4-22.5-12.8c0-8.8,118.4-15.5,104.5-37.1s-77.5,6.3-95-4.9c-17.5-11.2,93.4-23.4,96.1-40
			c2.7-16.6-81.7,14.2-93.6,2.3c-12-12,133.5-54.9,127.4-86.5c-6.1-31.6-110.2,40.4-136.3,32.7c-26-7.8,131.3-118.6,94.7-161.8
			c-36.6-43.2-106.3,142.9-130.2,136.3c-23.8-6.6,29.8-117.6,5.5-136.9c-24.3-19.3-94.2,156.2-98.6,192.2
			c-4.4,36-13.3-77.5-51.5-90.8c-38.2-13.3-1.1,70.4-7.8,95.8c-6.6,25.5-37.7-65.4-79.5-58.7s75.6,89.7,64,114.1
			c-11.6,24.4-102.3-81.4-130.7-52.9c-28.4,28.4,109.2,107.3,101.7,128.8c-7.5,21.6-90.1-15.4-113.9,8.4
			c-23.8,23.8,88.7,38.9,103.6,38.9c14.9,0,71.9,18.7,16.2,15.1C487.5,1837.8,822.1,1854.2,822.1,1841.5z"/>
		<g>
			<path class="st18" d="M602.9,1856.2c0,0-92.6,5-119.6-12c-27-17-5.7-30.2-5.7-30.2s-85.7-1.9-85.5-22.2c0.2-20.3,21-19.1,21-19.1
				s-43.2-29.4-35.2-47.7c12.4-28.1,82.8,20.9,82.8,20.9s-23.1-27.4-4.4-33.8C507.5,1694.4,602.9,1856.2,602.9,1856.2z"/>
			<path class="st2" d="M377.9,1725c-8.1,18.3,35.2,47.7,35.2,47.7s-31.2-0.4-26.1,19.3c5,19.7,83.5,26.3,83.5,26.3
				s-27.4,5.4-0.4,22.3c27,17,132.8,15.5,132.8,15.5L377.9,1725z"/>
		</g>
	</g>
	<g>
		<path class="st20" d="M1371.6,1350.7c-13.6-4-14-1.5-15.7-2.1c-2-0.7-18.5-23.4-18.5-23.4s-49.1-66.7-51.6-70.4l-15.5-86.3
			l-46.5-0.4c0,0,19.4,93.2,21.3,97.8c1.9,4.6,79.7,86.1,86.3,93.5c0,0,4.3,12,7.2,19.5c2.9,7.5,9.2,12.9,10.4,14.8
			c0.2,0.3,4.5,6.5,12,12.5c6.5,5.2,3-2.9,3-2.9s-10-11.9-8.8-12.7c0.9-0.5,5.9,6.3,13,12.2c1.8,1.5,3.6,3,5.3,4.3
			c4.4,3.5,8.1,1.6,4.2-2.8c-1.4-1.6-3.7-4.1-5.7-5.7c-2.1-1.7-3.5-4-5-5.7c-3.1-3.4-5.3-5.8-5.1-5.9c0.3-0.1,0.2-1.2,2.2,0.3
			c2.4,1.8,6.5,6.9,10.2,9.4c2.1,1.4,6.4,4.5,6.4,4.5s7.4,3.5,7.8,3.1c2.1-2.1-2.1-5.9-5.3-7.4c-1.4-2-6-5.2-6-5.2s-7.6-8.6-6.2-9.8
			c0.6-0.5,5.9,4.2,12,7.8c5.6,3.4,12,5.9,12.9,4.9c1.6-1.8-4.1-6.3-4.1-6.3s-4.2-2.9-5.5-4c-1.5-1.3-5.8-5.5-5.8-5.5
			s-14.2-15.3-12.9-16.4c1.3-1,5.8-2.4,7-1.8c1.2,0.6,2.8,3,4.1,3.6c1.2,0.6,3.5,0.3,4.5-1.2c1-1.5-3.6-6.9-3.6-6.9
			S1375.6,1351.9,1371.6,1350.7z"/>
		<path class="st20" d="M1294.4,1783.8c0,0-1.7,29.8-1.7,29.8c-0.6,3.8-3,13.1-3,16.6c0,12.9,56.4-11,43.8-16.7
			c-1.1-0.5-7.1-4.4-7.5-8.8c-0.6-6.8-2.1-20.5-2.1-20.5L1294.4,1783.8z"/>
		<path class="st16" d="M1333.4,1813.4c0,0-13.2,4-20,4.9c-6.8,1-15.7-7.3-20.5-5.1c-5.3,2.5-4.7,26.8-4.7,26.8s70.7,4.2,90.7-2.3
			C1386.6,1835.1,1360.4,1822.6,1333.4,1813.4z"/>
		<path class="st20" d="M1170.1,1786.6c0,0-1.7,29.8-1.7,29.8c-0.6,3.8-3,13.1-3,16.6c0,12.9,56.4-11,43.8-16.7
			c-1.1-0.5-8.9-7.4-9.3-11.8c-0.6-6.8-0.3-17.5-0.3-17.5L1170.1,1786.6z"/>
		<path class="st16" d="M1209.1,1816.2c0,0-13.2,4-20,4.9c-6.8,1-15.7-7.3-20.5-5.1c-5.3,2.5-5.5,24.7-5.5,24.7s75.6,5.6,93.3,0.3
			C1264.4,1838.8,1236.1,1825.4,1209.1,1816.2z"/>
		<path class="st21" d="M1259.5,1356.7l23.8,10.5l50.2,244l-2,182.9l-40.2,1c0,0-18.7-160-18.7-172.4c0-12.4-86.6-217-86.6-217
			L1259.5,1356.7z"/>
		<path class="st22" d="M1241.1,1370.1c0,0-17.6,188-17.6,219.7c0,31.7-14.2,209.1-14.2,209.1l-40.3-0.2c0,0-2.9-54.1-7.2-133.6
			c-0.7-12.5,0.9-37.6,0-50.5c-6.3-92.8-18.7-180.1-12.8-214.7c1-5.6,2.7-20.1,6.2-23.8C1181.6,1348.3,1241.1,1370.1,1241.1,1370.1z
			"/>
		<path class="st23" d="M1290.3,1221.8l-48.8-3.3c0,0-2.4-44.4-2.4-65.6c0-25.7-7.7-63.6-4.7-62.9c8.4,2,23,9.9,29.8,19.5
			C1287.6,1142.7,1290.3,1221.8,1290.3,1221.8z"/>
		<path class="st24" d="M1174.7,1089c0,0-27.8,3.9-35.1,9.4c-8.2,6.2-17.4,20-17.4,20s34.2,164.4,34.2,192.1c0,21.4-7.4,74-7.4,74
			s103.2,6.6,142.3-9.1c0,0-12.3-62.5-12.3-78.9c0-16.4-14.8-165.7-18.1-176.1c-3-9.5-8.6-26.5-27.5-30.6
			C1214.5,1085.5,1174.7,1089,1174.7,1089z"/>
		<path class="st20" d="M1182.3,1044.7l-6.9,45.9c0,0,25.1,54.7,40.2,49.9c12.6-4,4.8-52.4,4.8-52.4s-6.9-26-4.8-39
			C1217.7,1036.2,1182.3,1044.7,1182.3,1044.7z"/>
		<path class="st25" d="M1215.6,1049.2c2.1-13-33.3-4.5-33.3-4.5l-0.6,3.8c1,2.5,2.3,4.7,3.8,6.4c7.9,8.6,20.2,13.8,30.9,14.2
			C1215.4,1062,1214.8,1054.5,1215.6,1049.2z"/>
		<g>
			<path class="st20" d="M1176.5,979.7c-1-0.4-8,52.3,5.3,66.8s39.2,19.2,48.5,7.8c10.3-12.6,9.8-69.2-10.9-84.1
				C1198.7,955.3,1176.5,979.7,1176.5,979.7z"/>
			<path class="st11" d="M1211.5,942c-16,3.3-26.4,13.2-30.2,17.4c-7.3,0.9-17.1,4.9-27.3,22c-12.5,21-3.3,44.3,11.3,55.7
				c14.6,11.4,14.4,24.7,14.4,24.7l2.3-6.9c1.7-5.2,2.4-10.6,1.8-16.1c-0.3-3.3-1-6.8-2.4-9.7c-3.5-7.6,7.5-12.7,10.6-19
				c2.4-4.9,2.5-16.1,6.3-24.1l4.5-6.2c0,0,10.4-8.2,20.5-5.9C1233.5,976.3,1232.1,937.8,1211.5,942z"/>
			<path class="st20" d="M1191.5,1019.5c0.1,6.4-2.8,11.7-6.4,11.8c-3.7,0.1-6.7-5.1-6.8-11.5c-0.1-6.4,2.8-11.7,6.4-11.7
				C1188.3,1007.9,1191.4,1013.1,1191.5,1019.5z"/>
		</g>
		<path class="st16" d="M1212.9,1302.8L1212.9,1302.8c2.4,2.1,6,2.2,8.5,0.2l127.1-102.8c-0.1-0.1-0.9-0.9-1-1l-134,93.3
			C1210,1295,1209.7,1300,1212.9,1302.8z"/>
		<path class="st16" d="M1370.3,1169.6c0,0-28,26.1-23.2,30.9c4.8,4.8,37.1-21.7,37.1-21.7s-27.2,17.8-29.8,15.2
			S1370.3,1169.6,1370.3,1169.6z"/>
		<path class="st7" d="M1360,1142.1c-7.9-0.7-14.4,6.6-12.3,14.3c0.8,3,2.9,6,7.2,8.2c13.7,7.1,29.4,20.2,33.2,34.6
			c3.9,14.4,26,10,20.5-9.4C1403.7,1172.7,1384.7,1144.2,1360,1142.1z"/>
		<path class="st20" d="M1285.3,1252.5c-0.4-2.3-13.3-6.1-21.4-4.8c-8.1,1.4-38.4,12.7-38.4,12.7l-88.3,2.2c0,0,1.1-77.4,7.1-83.7
			s-2.3-69.1-11.7-68.8c-29.2,0.9-34.3,97.9-34.3,127c0,29.1,5.8,67,11.6,68.5c6.6,1.7,111.7-19.8,111.7-19.8l24.4,0.9
			c0,0,23.9-9.3,27.7-13C1277.4,1270,1285.7,1254.8,1285.3,1252.5z"/>
		<path class="st24" d="M1144.7,1095.8c0,0-16.3,3.8-33.1,23.1c-15.3,17.5-24.9,115.6-24.9,115.6l52.8,8.7l4.2-47.4l14.1-21.7
			L1144.7,1095.8z"/>
		<path class="st26" d="M1323.5,1518.8l-102.9,20.2c-18.6,3.7-36.3-9.8-38.1-29.1l-13.6-159.5l115.3-13.1L1323.5,1518.8z"/>
		<path class="st26" d="M1151.3,1345.3l-2.8,11.2l45.8,5.5c0,0,6-15,2.2-14.6c-3.7,0.4-27.5,3.1-27.5,3.1L1151.3,1345.3z"/>
	</g>
	<g>
		<g>
			<path class="st11" d="M1675.4,1843.4c-2.2,0-4.1-1.5-4.6-3.7l-69.9-343.2c-0.5-2.5,1.1-5,3.6-5.5c2.5-0.5,5,1.1,5.5,3.6
				l69.9,343.2c0.5,2.5-1.1,5-3.6,5.5C1676.1,1843.4,1675.7,1843.4,1675.4,1843.4z"/>
		</g>
		<g>
			<path class="st11" d="M1424.6,1843.4c-0.3,0-0.7,0-1-0.1c-2.5-0.6-4.1-3.1-3.5-5.6l79.1-353.5c0.6-2.5,3.1-4.1,5.6-3.5
				c2.5,0.6,4.1,3.1,3.5,5.6l-79.1,353.5C1428.7,1841.9,1426.8,1843.4,1424.6,1843.4z"/>
		</g>
		<path class="st6" d="M1409.3,1373.6c0.6,79.6,65.3,144,145,144s144.4-64.4,145-144H1409.3z"/>
		<path class="st13" d="M1675.6,1373.6c-11.1,69.1-67.7,112.9-139.9,112.9c-34.4,0-69.4-3-94.3-23c26.6,33,67.3,54.1,113,54.1
			c79.7,0,144.4-64.4,145-144H1675.6z"/>
		<path class="st13" d="M1699.4,1382.9H1403v-7.6c0-1.5,1.3-2.8,2.8-2.8h293.6V1382.9z"/>
		
			<ellipse transform="matrix(0.2023 -0.9793 0.9793 0.2023 12.7347 2757.9512)" class="st16" cx="1699.4" cy="1371.2" rx="14.2" ry="14.2"/>
		
			<ellipse transform="matrix(0.2023 -0.9793 0.9793 0.2023 12.8093 2758.042)" class="st11" cx="1699.4" cy="1371.2" rx="9.2" ry="9.2"/>
		<rect x="1464.2" y="1649.3" class="st11" width="176.3" height="17.9"/>
		<path class="st7" d="M1565.3,1360h-116.3c-4.3,0-7.7-3.4-7.7-7.7v-2.6c0-4.2,3.4-7.7,7.7-7.7h116.3c4.3,0,7.7,3.4,7.7,7.7v2.6
			C1573,1356.6,1569.6,1360,1565.3,1360z"/>
		<path class="st27" d="M1565.3,1360h-82.5c-4.2,0-7.7-3.4-7.7-7.7v-2.6c0-4.2,3.4-7.7,7.7-7.7h82.5c4.3,0,7.7,3.4,7.7,7.7v2.6
			C1573,1356.6,1569.6,1360,1565.3,1360z"/>
		<path class="st27" d="M1655,1359.5h-61c-4.1,0-7.5-3.3-7.5-7.5v-2.5c0-4.1,3.3-7.5,7.5-7.5h61c4.1,0,7.5,3.3,7.5,7.5v2.5
			C1662.5,1356.2,1659.2,1359.5,1655,1359.5z"/>
		<path class="st16" d="M1674.5,1372.5h-242.7c-3.1,0-5.7-2.5-5.7-5.7v-1.9c0-3.1,2.5-5.7,5.7-5.7h242.7c3.1,0,5.7,2.5,5.7,5.7v1.9
			C1680.1,1370,1677.6,1372.5,1674.5,1372.5z"/>
	</g>
	<rect x="751.4" y="387.6" class="st14" width="150.3" height="57.6"/>
	<rect x="606.8" y="488.4" class="st14" width="150.3" height="57.6"/>
	<rect x="809.4" y="478.5" class="st14" width="153.9" height="48.7"/>
	<rect x="957.9" y="416.4" class="st14" width="149.4" height="48.7"/>
	<rect x="1538.7" y="563" class="st14" width="121.5" height="43.5"/>
	<rect x="1554.7" y="443.4" class="st14" width="121.5" height="43.5"/>
	<rect x="1046.6" y="546" class="st14" width="121.5" height="43.5"/>
	<g>
		<path class="st5" d="M3567.7,1275.8c-42.9-7-81.1,8.6-85.4,35c-2.2,13.2,4.6,26.5,17.2,37.4l-23.8,36l41.6-24.2
			c10.1,5.1,21.9,9.1,34.8,11.2c42.9,7,81.1-8.6,85.4-35C3641.8,1309.8,3610.6,1282.8,3567.7,1275.8z"/>
		<g>
			
				<ellipse transform="matrix(0.9948 -0.1014 0.1014 0.9948 -115.5742 367.4997)" class="st14" cx="3557" cy="1320.6" rx="27.4" ry="27.4"/>
			<path class="st28" d="M3572,1323.4c0.8,8.1-5,15.2-13.1,16.1c-8.1,0.8-15.2-5-16.1-13.1L3572,1323.4z"/>
		</g>
	</g>
	<rect x="513" y="252.6" class="st14" width="1236.5" height="47.8"/>
	<rect x="470" y="1840.7" class="st17" width="3188.4" height="19.2"/>
	<g>
		<path class="st4" d="M3369.3,1800.1c0,0,1.5,12.5,1.5,14.7c0,2.1,0,2.1,0,2.1l-1,2.2l-0.4,0.9l7.5,10.5c0,0,30.1,0.4,30.8,0.4
			c0.7,0-4-7.3-4-7.3s-10-7.5-11.8-12.8c-1.8-5.3,1.5-16.2,1.5-16.2L3369.3,1800.1z"/>
		<path class="st4" d="M3224,1725c0,0-10.7,6.7-12.4,8c-1.7,1.3-1.7,1.3-1.7,1.3l-1,2.2l-0.4,0.9l-12.9,0.7c0,0-19.1-23.3-19.5-23.8
			c-0.4-0.5,5.5,0.8,5.5,0.8s12,1.6,17.3-0.2c5.2-1.9,15.8-12.3,15.8-12.3L3224,1725z"/>
		<path class="st13" d="M3321.6,1607.3l-115.6,98.5l17.8,25.2c0,0,113.4-71.3,119.7-72.1c6.2-0.8,16,1.4,17.2,5.9
			c1.2,4.5,4.8,138.9,4.8,138.9h30.9l16.1-171.4L3321.6,1607.3z"/>
		<g>
			<path class="st4" d="M3488.1,1466.9c8.6-5.6,28.6-27.2,35.5-34.5c0.1-0.9,0.7-5.8,6.2-12.2c3.9-4.5,6.8-14.7,9.3-11.8
				c2.5,2.9-3.8,11-0.9,11.1c2.9,0.1,17.2-16,19.5-13.4c2.3,2.6-12.2,16.9-9.6,17c2.6,0,14.4-14.4,17.6-10.7
				c3.2,3.7-15.4,15.7-13.7,17.7c1.7,2,13.3-5.9,15.9-2.9c2.6,3-16.3,10-14.8,10c1.5,0,12.5-0.3,12.5,1.8
				c0.1,2.4-27.7,6.1-31.1,10.2l0,0c-7.3,11.5-20.2,32.6-33.2,41.9c-16,11.3-53,35.3-53,35.3l-18.4-23.7
				C3430,1502.7,3478,1473.5,3488.1,1466.9z"/>
			<path class="st7" d="M3538.2,1424.6c0.7,1.4,1,2.9,1.1,4.5c-0.1,0.2,0.6,5.2-3.6,9C3537.4,1434.9,3539.2,1431.5,3538.2,1424.6z"
				/>
		</g>
		<g>
			<path class="st4" d="M3318.7,1440.9c-6.8-7.6-20.5-33.7-25.2-42.6c0.2-0.9,0.8-5.8-2.8-13.4c-2.6-5.3-2.7-16-5.9-13.8
				c-3.2,2.1,0.7,11.6-2,10.9c-2.8-0.7-12.4-19.9-15.3-18c-2.9,1.9,7.4,19.5,4.9,18.9c-2.5-0.6-10.1-17.7-14.2-14.9
				c-4.1,2.7,10.8,19.2,8.6,20.7c-2.2,1.5-11.3-9.2-14.6-7c-3.3,2.2,13.2,13.9,11.7,13.6c-1.5-0.4-11.9-3.5-12.6-1.5
				c-0.7,2.3,25.1,13.1,27.3,18l0,0c4,13,10.9,36.8,21.1,49.1c12.5,15.1,41.9,48,41.9,48l23.9-18.1
				C3365.4,1490.7,3326.7,1450,3318.7,1440.9z"/>
			<path class="st7" d="M3281.4,1387c-1.1,1.2-1.7,2.6-2.2,4c0,0.3-2,4.9,1.1,9.6C3279.5,1397.2,3278.6,1393.4,3281.4,1387z"/>
		</g>
		<path class="st14" d="M3338.1,1458.4l-21.6,28.2l26.8,39.9c0,0-2.5,29.6-6.4,38.9c-3.9,9.2-26.2,47.2-26.2,47.2
			s54.3,33.3,107.4,28.4c0,0,15-77,19.2-84.4c4.2-7.4,41.3-40.9,41.3-40.9l-16.2-34.9l-33.9,18.8c0,0-62-10-65-13
			C3360.3,1483.6,3338.1,1458.4,3338.1,1458.4z"/>
		<path class="st6" d="M3408.1,1400.9c0,0-20.9-11.1-28.1,7.3c0,0-18.8-1.9-15.6,17.6c0,0-18.9,9.5-6.9,34.1c0,0-5.3,23.1,21.7,24.5
			c0,0,4,8.2,16.4,6.3c12.3-1.9,15.5-5.2,15.5-5.2s21.8,6.4,28.5-13.3c0,0,15-3.6,4.9-22.9c0,0,13.1-25-10-32.5
			C3434.4,1416.8,3431.7,1391.2,3408.1,1400.9z"/>
		
			<ellipse transform="matrix(0.3374 -0.9414 0.9414 0.3374 896.0744 4187.1641)" class="st4" cx="3422.3" cy="1457.1" rx="9.1" ry="6.2"/>
		
			<ellipse transform="matrix(4.720354e-02 -0.9989 0.9989 4.720354e-02 1765.2904 4737.9092)" class="st4" cx="3366.2" cy="1443.6" rx="9.1" ry="6.2"/>
		<path class="st4" d="M3384,1476.7c0,0.3-2.7,12-4.2,18.2c-0.5,2.3,0.6,4.7,2.8,5.6c5.8,2.6,17.1,6.3,24.9-0.8
			c0.7-0.6,1.1-1.6,1.1-2.5l-1-27.9L3384,1476.7z"/>
		<path class="st7" d="M3382.5,1483.3c6.1,3.1,13.8,3.1,22.4-1.9c1.1-0.6,2.1-1.3,3.1-2l-0.3-10l-23.6,7.4
			C3384,1476.9,3383.3,1479.7,3382.5,1483.3z"/>
		<path class="st4" d="M3400.7,1412.3c0,0,10.3,2.7,16.4,12.8c6.1,10,9.4,39-12.2,51.7c-21.6,12.7-37.4-7-37-25.6
			C3368.3,1432.6,3376.6,1408.8,3400.7,1412.3z"/>
		<path class="st14" d="M3363.8,1838.2c-4.6-0.6,3.3-16.5,5.9-19.1l33.9,4.6c0,0,16.3,7.6,20.2,11.4c0.9,0.9,1,2.5-2.9,3.1
			C3408,1840.1,3374,1839.5,3363.8,1838.2z"/>
		<path class="st14" d="M3197.3,1753.3c4,2.4,11.2-13.2,11.6-16.7l-27.3-21.5c0,0-21.1-6-25.4-1.8
			C3152.4,1717.1,3188.3,1747.8,3197.3,1753.3z"/>
	</g>
</g>
<path class="st4" d="M2107.9,1763.6c0,0-4.2,28.4-11.5,37.5c-2.4,3.1-6.9,7-9.8,12.5c-4.5,8.6-2,21.5,1.3,28.6
	c1.7,3.6-0.1,3.6,3.8,4.8c11.6,3.5,23.9-2.4,28.8-13.2c2.8-6,5.2-14.1,5.7-24.2c1.2-25.8,9.5-38.9,9.5-38.9L2107.9,1763.6z"/>
<path class="st11" d="M2261.2,1200.2c5.2-13.8,9.8-28,14.6-41.5c9.3-26,17.1-53.1,18.2-80.9c0.9-20.9-2.2-41.6-11.5-61
	c-8-16.8-27.8-26.3-45.9-26.3c-57.4-0.1-64.7,76.1-101.3,105.5c-7.7,6.2-16.1,11.6-24,17.6C2124.6,1147.9,2161,1196.6,2261.2,1200.2
	z"/>
<path class="st4" d="M2234.6,1776.6c0,0,2.6,32,0.5,42.4c-1.1,5.6-7.4,17-4.5,22.3c2.9,5.2,6.2,6.5,6.2,6.5l74.8,1.2
	c4.1,0.1,1.4-2.5-1.9-4.8c-5.4-3.8-9.7-6.4-26.9-14.5c-1.1-0.5-5.2-3-6.7-3.9c-3.7-2.2-7.5-5.7-10.7-9.2c-5.4-5.8-5.8-34-5.8-34
	L2234.6,1776.6z"/>
<path class="st21" d="M2291.4,1341.9c0,0,11.1,58.1,4.9,92.1c-6.2,34.1-35.9,349.7-35.9,349.7l-33,1.8c0,0-6.9-131.9-5.7-150.2
	c1.2-18.3,11-49,11-49l-3.3-106.5l41.6-139.9L2291.4,1341.9z"/>
<path class="st22" d="M2196.1,1337.1c0,0-26,38-32.2,69.4c-6.2,31.4,4.5,128-7.4,169.2c-6.4,22.3-30.8,56.7-34.6,85.6
	c-3.7,28.8-18.3,104.3-18.3,104.3l33,6.3l76.6-188.5l60.1-170.4l15.4-87.8L2196.1,1337.1z"/>
<path class="st29" d="M2122.9,1828.2c-18,3.2-29.9-7-36.1-14.7c-4.6,8.7-6.8,21.6-3.4,28.7c3,6.3,11.6,6.1,18.4,6.3
	c7.2,0.3,12.8-3.6,16.3-9.7C2119.7,1836,2121.5,1832.5,2122.9,1828.2z"/>
<path class="st29" d="M2276.1,1825.7c-19.8,4.9-34.4,1.6-42.6-1.6c-2.1,5.8-4.9,13.1-3.4,17.3c1.8,5.1,4.4,6.3,6.7,6.4
	c18.1,0.5,66.2,1.1,79.9,1.3c1.9,0,3-2.2,1.7-3.6C2315,1841.5,2277.6,1826.6,2276.1,1825.7z"/>
<path class="st25" d="M2427.7,1132c-0.2-3.2-14.7,0.2-16.6-2.4c-1.9-2.5,15.9-10.1,15.5-12.9c-0.7-5.1-20,7.1-20.5,4.8
	c-0.5-2.3,18.8-15.9,15-18.6c-3.8-2.7-18.5,16.1-20.2,13.9c-1.6-2.3,15.3-16.3,12.7-21.6c-1.4-2.8-25.8,27.7-30.1,27.6
	c-4.3-0.1-2.4-17-6.1-17.8c-3.8-0.8,0.2,32.6-1.4,34.4c-1.6,1.8-34.3,43.9-47.9,54c-3.9-4.3-28.4-25.9-32-30
	c-6,9.6-15.4,15-21.9,24.2c13,13.4,51.1,43.7,56.4,43.9c16.1,0.5,50.5-64.5,57.9-76.2c7.4-11.8,14.4-11.8,20.5-17.1
	C2415.1,1133,2427.9,1135.2,2427.7,1132z"/>
<path class="st23" d="M2291.7,1213.5c0,0-54.2-41.7-64.4-60.5c-10.2-18.8,13.9-32.1,32.8-32.3c18.9-0.2,58.9,56,58.9,56
	L2291.7,1213.5z"/>
<path class="st24" d="M2219.5,1117.2c0,0-33.1-2.1-46.1,12.2c-13.1,14.3,29,127.3,31.4,145.5c2.4,18.2-12.1,66.5-12.1,66.5
	s77.6,15.7,99.8,0.9c0,0,2.4-130.7,0-143.7c-2.4-13-25.5-71.4-30.2-76.6C2257.5,1116.8,2219.5,1117.2,2219.5,1117.2z"/>
<path class="st20" d="M2230.5,1072.9c0,0-0.2,1-0.5,2.6c-1.5,8-7.1,34.4-11,41.6c-4.6,8.8,15.9,36.8,35.6,33.4
	c5.9-1-5-25.7-4.4-28.3c1-5,2.3-11.8,3.7-18.9c0.8-4,1.6-8,2.3-11.7c2.1-10.7,3.8-19.5,3.8-19.5L2230.5,1072.9z"/>
<path class="st25" d="M2230.1,1075.5c0.3-1.7,0.5-2.6,0.5-2.6l29.6-0.7c0,0-1.7,8.8-3.8,19.5c-0.7,3.7-1.5,7.7-2.3,11.7
	c-4.6-0.7-9.3-2.9-14.1-7.1c-5.2-4.6-8.6-10.1-10.7-15.9C2229.5,1078.4,2229.8,1076.8,2230.1,1075.5z"/>
<path class="st20" d="M2250.4,1005.6c0,0-13.9-1.6-22.7,9.7c-8.7,11.3-18.1,46.3,3.5,65.4c21.7,19,43.1-2.5,46.3-25.4
	C2280.8,1032.4,2282,1004.7,2250.4,1005.6z"/>
<path class="st11" d="M2252,1001.8c0,0-18.6,33.3-31.9,34.8c-13.3,1.5-15.1,19.2-15.1,19.2s4.8-40.8,17.9-48.6
	C2236.1,999.4,2252,1001.8,2252,1001.8z"/>
<path class="st20" d="M2348.8,1214.1c0.2,0.5,6.1-3.4,11.8-6.5c5.7-3.2,12.7-10.5,13.6-9.1c0.6,1.1-3.2,6.2-7.5,10
	c1.5-0.6,2.4-0.6,2.2,0.3c-0.6,3.8-14,16-30.9,22.8c-16.9,6.8-124.5,37.5-129.2,19.4c-1.7-6.6-3.3-29.5-5.5-43.9l32.6-3.8l2,19.9
	c30.2,1.3,69.2-3.6,71.2-4c5.3-0.8,8.9-8.6,10.1-10c6.8-7.5,15.6-16.9,19.7-16c4.1,0.9-3.3,6.8-5.8,12.1
	c-2.5,5.3,21.5,2.7,33.9-12.1c12.3-14.8,3.9,7.2-1.8,10.6C2359.4,1207.2,2348.5,1213.3,2348.8,1214.1z"/>
<path class="st23" d="M2246.3,1208.1c0,0-24.8-56.1-35.4-71.9c-10.6-15.7-42.8-17.1-47,1.9c-4.3,19.4,44,89.5,44,89.5L2246.3,1208.1
	z"/>
<g>
	<g>
		<g>
			
				<ellipse transform="matrix(0.259 -0.9659 0.9659 0.259 740.473 3764.1587)" class="st30" cx="2823.6" cy="1399.5" rx="2.3" ry="2.5"/>
		</g>
	</g>
</g>
<path class="st20" d="M2210.3,1049c2.8,5.5,8.1,8.3,11.9,6.1c3.8-2.1,4.5-8.4,1.7-13.9c-2.8-5.5-8.1-8.3-11.9-6.1
	C2208.3,1037.3,2207.5,1043.5,2210.3,1049z"/>
<g>
	<path class="st30" d="M3238.9,1795.3c0,0,11.6,13.3,8.2,21.6c-3.4,8.2-15.7,12.7-18.3,22.9c-2.7,10.2-9.6,15.2-15.2,14.6
		c-5.7-0.6-27-2.9-27-2.9s-3.4-7.8,6.9-8.9c10.3-1.1,15.4-13,16-24.4c0.6-11.4,3.7-26.4,3.7-26.4l22-2.8L3238.9,1795.3z"/>
	<path class="st30" d="M3071.6,1838.2c-1,0.4-4,0.5-8.1,0.3l-65.4-6.9c0.5-2.1,2.9-7.9,12.6-8.4c11.5-0.6,31.7-5.1,37.6-19.1
		c0.2-0.5,0.4-0.9,0.5-1.4c5.1-15.1,28.2,7.8,28.2,7.8s0,0.6,0,1.7C3077.1,1817.9,3076.7,1836.3,3071.6,1838.2z"/>
	<path class="st22" d="M3056.5,1419.2c0,0-1.2,48.2-2.8,106c-2.1,78.6-4.9,175.2-6.1,193.4c-2.1,31.6-2.4,82.6-2.4,82.6
		s10.7,13.2,35.2,10.7c0,0,28.9-69.7,43.1-145.2c0.2-1.2,0.5-2.5,0.7-3.7c13.9-76.9,39.9-239.1,39.9-239.1L3056.5,1419.2z"/>
	<path class="st30" d="M3056.5,1419.2c0,0-1.2,48.2-2.8,106l69.8,141.5c0.2-1.2,0.5-2.5,0.7-3.7c13.9-76.9,39.9-239.1,39.9-239.1
		L3056.5,1419.2z"/>
	<path class="st22" d="M3073.4,1426.7c0,0,50.7,180.2,87.5,266.3c36.8,86.1,48.5,110.2,48.5,110.2s27.1-7.6,30.2-14.5
		c0,0-0.8-158.7-27.1-200.2c-14.9-23.4-28.2-90.4-26.7-113.2c1.5-22.8,1-68.2,1-68.2L3073.4,1426.7z"/>
</g>
<path class="st20" d="M2940.5,1388.5c0,0-25.6,9.1-29.2,11.8c-3.6,2.7-13.2,16.5-12.7,17.7c0.5,1.2,1.7,1.6,4,0.4
	c2.4-1.3,9.2-7,9.3-5.8c0.1,1.2-18.7,19.2-16.2,23.6c2.5,4.5,19.4,5,29.8-0.8c10.3-5.8,22.5-29.9,24.1-31.1
	C2963.1,1393.9,2940.5,1388.5,2940.5,1388.5z"/>
<path class="st31" d="M2938.1,1400.9c-6.1-6.6-6.2-8.1-6.2-8.1s51.1-70.1,55.6-76.9c4.5-6.8,39.5-116.4,39.5-116.4l82.4-14.7
	c0,0-71.7,139.7-83.5,156.7c-19.4,28-77.1,66.2-77.1,66.2S2942.9,1406,2938.1,1400.9z"/>
<path class="st20" d="M3071.8,1151.3c0,0-33.4,46.5-61.6,50.1c0,0,2.9-16.5,10.8-27.2c-2.4-3.5-4.5-6.8-6.3-9.6
	c-6-9.6-8.7-15.4-8.7-15.4l12-24.1l8.1-16.4c2.5,5.8,5.3,10.9,8.4,15.3C3050.4,1146.6,3071.8,1151.3,3071.8,1151.3z"/>
<path class="st32" d="M3034.5,1124c0,0,0.7,25.2-19.8,40.6c-6-9.6-8.7-15.4-8.7-15.4l12-24.1C3028.3,1123,3034.5,1124,3034.5,1124z"
	/>
<path class="st20" d="M2998.2,1152c0,0,43.8-11.9,35.9-39.1c-7.9-27.2-7.5-47-35.8-40.5c-28.3,6.5-30.7,18.4-30.3,28.1
	C2968.5,1110.2,2986.6,1154.4,2998.2,1152z"/>
<path class="st24" d="M3189.5,1420.7c-19.5,22.6-149.8,41.8-146.5,25.1c1.3-6.4,3.2-17.7,3.5-33.3c0.1-3.7,0-7.5-0.1-11.6
	c-0.9-22.5-5.5-51.9-19.1-86.7c-1-2.6-2.1-5.2-3.2-7.9c-5.7-13.5-10.2-27.7-13.4-41.4c-6.1-26.3-7.1-51-1-66.4c0-0.1,0-0.1,0.1-0.2
	c27.8-9.5,43.1-55.9,43.1-55.9s88.7,25.8,126.7,151.7c0,0,3.5,13.8,7.1,32.3c4.4,22.5,9.2,52.1,8.4,72.7
	C3194.6,1408.8,3193,1416.6,3189.5,1420.7z"/>
<path class="st30" d="M3045.3,1065.2c0.4-0.6,1.3-1.1,3.4-1.5c0,0-1.9-0.9-4.2-0.6c-0.9-3-3.2-8.2-8.6-8.8c0,0,3,1.1,3.8,4.3
	c-6.9-5.5-20.4-8.3-55.7-0.5c-46.6,10.2-26.9,38.7-20.3,41.5c6.6,2.8,20.6-9.3,32.1-9.9c11.5-0.6,15.9,15.7,20.1,17.5s2.1-2.1,7-5.2
	c4.9-3.1,6.6,5.6,5.9,11.5c-0.7,5.9,7.5,12.5,7.5,12.5s0,0,6.2-8.9c6.2-8.9,8.4-43.4,4.1-50.1
	C3046,1066.4,3045.7,1065.8,3045.3,1065.2z"/>
<path class="st31" d="M3195,1399c-105.7-44.5-109.3-176.4-109.3-176.4s57.1,54.1,100.9,103.7C3191.1,1348.8,3195.8,1378.4,3195,1399
	z"/>
<g>
	<path class="st33" d="M3162.1,1464.7l12.5-2.6c5.2-3.9,33.7-24,63.7-30.5c21.7-4.7,49.8,6.3,51.3,6.1c3.9-0.4-12.4,3.2-12.4,3.2
		s-26.8-5.7-37.8-3.6c-10.5,2-32.2,14.5-40.8,19.7l70-14.8c5.9-1.2,11.7,2.5,12.9,8.4l16.9,79.8c1.2,5.9-2.5,11.7-8.4,12.9
		l-106.4,22.5c-5.9,1.2-11.7-2.5-12.9-8.4l-16.9-79.8C3152.4,1471.8,3156.2,1466,3162.1,1464.7z"/>
	<path class="st24" d="M3196.6,1457.4l106.4-22.5c5.9-1.2,11.7,2.5,12.9,8.4l16.9,79.8c1.2,5.9-2.5,11.7-8.4,12.9l-106.4,22.5
		c-5.9,1.2-11.7-2.5-12.9-8.4l-16.9-79.8C3187,1464.4,3190.8,1458.6,3196.6,1457.4z"/>
</g>
<path class="st24" d="M3230.6,1410.6c-9.1,3.1-11.9-1.3-11.9-1.3s-41.5-89.6-46.1-96.9c-4.6-7.3-93.5-57.1-93.5-57.1
	s-36.4-18.5-35.4-41.6c0.8-20.1,13.4-31.2,26.6-37.3c15.7-7.3,34.3-4,46.8,8c28,26.9,83.5,81.1,91.9,95
	c18.6,31.1,33.1,123.9,33.1,123.9S3237.8,1408.2,3230.6,1410.6z"/>
<g>
	<path class="st20" d="M3223.5,1443.3c0.3,0.6,0.5,0.9,0.7,1c1,0.2,3.9,0.6,4.1-1.5c0-0.6,0-1.1-0.1-1.6L3223.5,1443.3z"/>
	<path class="st20" d="M3248.7,1435.5c0.5-9.1-10.1-27-10.2-28.5c-1.1-13-14-0.6-14-0.6s-4.6,20.4-4.4,23.8c0.1,1.4,0.6,3.8,1.3,6.3
		c0.1,0,0.2-0.1,0.4-0.1c3.1-1.1,6.5,0.9,6.8,4.2l0,0.1c0.4,2.4,0.9,6.6,3.7,6.7C3236.2,1447.8,3248.3,1444.6,3248.7,1435.5z"/>
</g>
<path class="st30" d="M2942.4,1444.4l-44.9-47.8c1.5-4.5,0.6-9.7-2.9-13.4c-1.6-1.7-3.6-2.9-5.7-3.6l-2.5,2.4l0,0l6.4,6.8l-2.6,8.7
	l-0.4,0.3l-8.9,2.1l-6.4-6.8l0,0l-2.5,2.4c0.5,2.2,1.6,4.2,3.2,5.9c3.5,3.7,8.6,5,13.2,3.7l44.9,47.8c-1.5,4.5-0.6,9.7,2.9,13.4
	c1.6,1.7,3.6,2.9,5.7,3.6l2.5-2.4l0,0l-6.4-6.8l2.7-9l9.1-2.1l6.4,6.8l0,0l2.5-2.4c-0.5-2.2-1.6-4.2-3.2-5.9
	C2952.1,1444.5,2947,1443.2,2942.4,1444.4z"/>
<path class="st20" d="M2899.2,1418.7c0,0,2.7,3,14.1-6.7c11.5-9.7-6.3-7.1-6.3-7.1S2896.1,1416.6,2899.2,1418.7z"/>
</svg>
