<svg width="53" height="55" viewBox="0 0 53 55" fill="none" xmlns="http://www.w3.org/2000/svg">
<path d="M32.4205 4.29587H35.6098V1.56215C35.6098 0.650903 34.8939 1.52588e-05 33.9826 1.52588e-05L18.2311 0.065104C17.3199 0.065104 16.669 0.78108 16.669 1.69232V4.42605H19.8584V3.31954L32.4205 3.18936V4.29587Z" fill="#666666"/>
<path d="M5.1483 14.645C4.23706 14.645 3.45599 15.426 3.45599 16.3373C3.45599 16.4675 3.45599 16.5325 3.45599 16.6627L10.5507 53.568C10.6808 54.3491 11.3968 54.9349 12.243 54.9349L40.8169 54.7396C41.6631 54.7396 42.314 54.1538 42.4442 53.3728L49.2134 16.3373C49.4087 15.426 48.7578 14.5148 47.8465 14.3846C47.7163 14.3846 47.6513 14.3846 47.5211 14.3846L5.1483 14.645ZM17.385 52.3964C16.4737 52.5266 15.6276 51.9408 15.4323 51.0296L10.5507 20.6331C10.4205 19.7219 11.0063 18.8757 11.9826 18.6805C12.8939 18.5503 13.74 19.1361 13.8702 20.0473L18.7519 50.4438C18.882 51.4201 18.2962 52.2663 17.385 52.3964ZM26.6927 52.5266C25.7814 52.5266 25.0004 51.8106 25.0004 50.8343L24.74 20.0473C24.74 19.1361 25.5211 18.4201 26.4974 18.4201C27.3436 18.4201 28.0595 19.1361 28.1246 20.0473L28.385 50.8343C28.3199 51.7456 27.6039 52.5266 26.6927 52.5266ZM42.2489 20.3728L37.8879 50.8343C37.7578 51.7456 36.9116 52.3965 36.0004 52.2663C35.0891 52.1361 34.4382 51.2899 34.5684 50.3787L38.9294 19.9172C39.0595 19.0059 39.9057 18.355 40.8169 18.4852C41.7282 18.5503 42.3791 19.3964 42.2489 20.3728Z" fill="#CCCCCC"/>
<path d="M1.37313 13.0828C13.8702 14.2544 38.7992 14.0592 51.2962 12.6923C53.6394 11.8462 52.4027 8.85208 51.2311 7.61539C50.0595 6.3787 47.7814 8.33137 46.6098 7.68048C45.4382 7.02959 46.6098 5.01184 46.6098 5.01184C46.6098 4.55622 46.2193 4.23077 45.8288 4.23077H35.6098H32.4205L19.8583 4.36095H16.669L7.16603 4.49113C6.71041 4.49113 6.38497 4.88166 6.38497 5.27219C6.38497 5.27219 7.68674 7.28995 6.38497 7.94083C5.14828 8.59172 2.60982 6.70415 1.37313 8.00592C0.136445 9.24261 -0.970063 12.2367 1.37313 13.0828Z" fill="#1488CC"/>
<path d="M26.3672 18.355C25.456 18.355 24.6749 19.1361 24.6749 20.0473L24.9352 50.8343C24.9352 51.7455 25.7163 52.5266 26.6276 52.5266C27.5388 52.5266 28.3199 51.7455 28.3199 50.8343L28.0595 20.0473C28.0595 19.1361 27.3435 18.355 26.3672 18.355Z" fill="#1488CC"/>
<path d="M38.9294 19.8521L34.5684 50.3137C34.4382 51.2249 35.024 52.0711 35.9353 52.2663C36.8465 52.3965 37.6927 51.8107 37.8879 50.8995V50.8344L42.2489 20.3728C42.3791 19.4616 41.7282 18.6154 40.8169 18.4853C39.9057 18.3551 39.0595 19.006 38.9294 19.8521Z" fill="#1488CC"/>
<path d="M11.9826 18.6805C11.0714 18.8107 10.4205 19.6568 10.6157 20.6332L15.4974 51.0296C15.6276 51.9409 16.4737 52.5917 17.385 52.4616C18.2962 52.3314 18.9471 51.4852 18.8169 50.574V50.5089L13.8702 20.1124C13.74 19.1361 12.8939 18.5503 11.9826 18.6805Z" fill="#1488CC"/>
</svg>
