<svg width="79" height="82" viewBox="0 0 79 82" fill="none" xmlns="http://www.w3.org/2000/svg">
<path d="M22.6069 49.52C22.7725 50.1825 22.7725 50.6793 22.7725 50.7621C22.8553 52.0871 24.0975 53.0808 25.3396 52.9152C26.6646 52.8324 27.6583 51.5902 27.4927 50.3481C27.4927 50.0169 27.4099 49.6856 27.327 49.2716C26.913 46.8701 26.1677 44.5514 25.0084 42.3156H19.2945C21.0335 44.4686 22.1101 46.8701 22.6069 49.52Z" fill="#686868"/>
<path d="M25.174 27.7411C18.0524 27.7411 4.55446 32.7924 4.55446 51.8386V75.8532C4.55446 78.9172 7.03874 81.4843 10.1855 81.4843H40.2452C43.3092 81.4843 45.8763 79 45.8763 75.8532V51.8386C45.7935 32.7924 32.2956 27.7411 25.174 27.7411ZM11.9245 42.3155C14.8228 35.0283 23.1037 31.3847 30.4738 34.283C34.1174 35.7736 37.0157 38.6719 38.5062 42.3155H11.9245Z" fill="#1488CC"/>
<path d="M25.174 64.9223H13.9119L16.9759 73.8657H33.2893L36.4361 64.9223H25.174Z" fill="#F4F4F4"/>
<path d="M77.675 76.0188H69.6425V72.3752H63.4318V76.0188H55.3993L54.1572 81.4014H79L77.675 76.0188Z" fill="#666666"/>
<path d="M25.3396 52.9151C24.0146 52.9979 22.8553 52.087 22.7725 50.762C22.7725 50.348 22.6897 49.934 22.6069 49.5199C20.9507 50.9277 20.7023 53.4119 22.11 55.1509C22.6897 55.8962 23.5178 56.3103 24.4287 56.4759C25.0083 56.4759 25.588 56.4759 26.1677 56.3931C28.3207 55.8134 29.5628 53.6604 28.9832 51.5073C28.7348 50.5964 28.1551 49.7683 27.4098 49.2715C27.4926 49.6855 27.4926 50.0168 27.5754 50.348C27.6582 51.673 26.6645 52.8323 25.3396 52.9151Z" fill="#F4F4F4"/>
<path d="M4.55448 57.3868C6.87314 57.3868 8.77775 59.2915 8.77775 61.6101V77.1782C8.77775 79.4969 6.87314 81.4015 4.55448 81.4015C2.23583 81.4015 0.331213 79.4969 0.331213 77.1782V61.6101C0.331213 59.2915 2.23583 57.3868 4.55448 57.3868Z" fill="#666666"/>
<path d="M45.7935 57.3868C48.1122 57.3868 50.0168 59.2915 50.0168 61.6101V77.1782C50.0168 79.4969 48.1122 81.4015 45.7935 81.4015C43.4749 81.4015 41.5702 79.4969 41.5702 77.1782V61.6101C41.5702 59.2915 43.4749 57.3868 45.7935 57.3868Z" fill="#666666"/>
<path d="M68.0692 9.77149C67.6551 7.12159 66.5786 0 59.871 0C50.348 0 50.1824 11.2621 49.9339 21.282C49.9339 22.3585 49.9339 23.435 49.8511 24.5115C49.7683 32.544 49.6855 41.4046 45.4622 47.2841C45.6279 48.7746 45.7935 50.348 45.7107 51.8386V53.9088C46.2903 53.4119 46.87 52.9151 47.4497 52.3354C54.4884 45.2966 54.5713 34.283 54.6541 24.5943C54.6541 23.5178 54.6541 22.4413 54.7369 21.3648C54.9853 9.93711 55.7306 4.80294 59.871 4.80294C60.9476 4.80294 62.5209 4.80293 63.349 10.5168C64.1771 15.6509 64.1771 24.0147 64.1771 35.608V72.3753H68.9801V35.608C68.9801 23.8491 68.9801 15.3197 68.0692 9.77149Z" fill="#686868"/>
<path d="M68.0692 9.77149C67.6551 7.12159 66.5786 0 59.871 0C50.348 0 50.1824 11.2621 49.9339 21.282C49.9339 22.3585 49.9339 23.435 49.8511 24.5115C49.7683 32.544 49.6855 41.4046 45.4622 47.2841C45.6279 48.7746 45.7935 50.348 45.7107 51.8386V53.9088C46.2903 53.4119 46.87 52.9151 47.4497 52.3354C54.4884 45.2966 54.5713 34.283 54.6541 24.5943C54.6541 23.5178 54.6541 22.4413 54.7369 21.3648C54.9853 9.93711 55.7306 4.80294 59.871 4.80294C60.9476 4.80294 62.5209 4.80293 63.349 10.5168C64.1771 15.6509 64.1771 24.0147 64.1771 35.608V72.3753H68.9801V35.608C68.9801 23.8491 68.9801 15.3197 68.0692 9.77149Z" fill="#666666"/>
<path d="M27.4098 49.2715C26.9958 46.8701 26.2505 44.5514 25.0912 42.3155C23.6006 39.2516 21.1163 36.7673 18.0524 35.2768C16.5618 34.5315 14.9056 34.1174 13.2494 33.9518C12.4214 33.869 11.6761 33.869 10.848 33.9518C6.29347 34.2002 2.31863 37.1814 0.828065 41.4875C-0.993738 46.5388 0.496828 52.2527 4.55448 55.7306V51.8386C4.55448 50.1824 4.63729 48.5262 4.88572 46.8701C4.7201 45.6279 4.88572 44.3858 5.29976 43.1436C5.54819 42.4812 5.79662 41.9015 6.21066 41.4046C7.28718 39.9141 9.1918 38.4235 12.7526 38.7548C13.1666 38.7548 13.4979 38.8376 13.9119 38.9204C16.065 39.4172 18.0524 40.5766 19.4601 42.3155C21.0335 44.3858 22.11 46.8701 22.6069 49.52C22.7725 50.1824 22.7725 50.6793 22.7725 50.7621C22.8553 52.087 24.0975 53.0807 25.3396 52.9151C26.6645 52.8323 27.6583 51.5902 27.4926 50.348C27.4926 50.0168 27.4926 49.6028 27.4098 49.2715Z" fill="#666666"/>
</svg>
