<svg width="114" height="65" viewBox="0 0 114 65" fill="none" xmlns="http://www.w3.org/2000/svg">
<g clip-path="url(#clip0)">
<path d="M38.7 19.6C33.4 20.4 28.1 21.2 22.8 21.7C21.1 21.9 20.5 22.5 20.3 24.1C19.9 28.8 19.9 28.8 15 28.8C14.7 28.8 14.4 28.8 14.1 28.8C7.5 28.8 4 25.4 4 18.8C4 12.5 4 6.19999 4 -0.100006C2.6 1.49999 1.3 3.09999 0 4.59999C0 9.49999 0 14.4 0 19.4C0 27.4 5.3 32.8 13.3 32.8C15 32.8 16.8 32.7 18.5 32.9C19.1 33 19.9 33.8 20.2 34.5C20.5 35.3 20.1 36.4 20.4 37.3C20.7 38 21.4 39 22 39.1C27.5 40 33.1 40.6 38.6 41.4C40 41.6 40.7 41 40.7 39.6C40.7 33.5 40.7 27.3 40.7 21.2C40.7 19.7 40.2 19.3 38.7 19.6Z" fill="#1488CC"/>
<path d="M113.1 59.2C113 52.9 113.1 46.6 113.1 40.3C113 33.5 108.9 29.2 102.3 28.6C98.4 28.3 98.3 28.3 98.2 24.3C98.1 22.4 97.4 21.8 95.5 21.7C90.6 21.2 85.8 20.5 81 19.8C78 19.4 78 19.3 78 22.4C78 27.9 78.1 33.4 78 38.9C78 41 78.5 41.7 80.7 41.2C85 40.4 89.3 39.9 93.5 39.3C97.7 38.8 98.2 39.7 98.2 34.6C98.2 32.9 99 32.3 100.7 32.3C106 32.3 109.1 35.3 109.2 40.6C109.2 47.1 109.1 53.5 109.2 60C109.2 61.6 109.6 63 110.2 64.4C111.2 63 112.2 61.7 113.2 60.3C113.1 59.9 113.1 59.6 113.1 59.2Z" fill="#666666"/>
<path d="M60.9 33.8C58.9 33.8 57 33.8 55 33.8C50.3 33.8 50.3 33.8 50.7 29.1C50.8 27.5 51.5 27.1 52.9 27.1C55.6 27.1 58.3 27.2 60.9 27C62.4 26.9 63.8 26.3 63.6 24.4C63.5 22.7 62.2 22.3 60.7 22.3C58 22.3 55.3 22.2 52.7 22.3C51.3 22.3 50.5 22 50.6 20.3C50.8 16.3 51.4 15.8 45.8 15.8C45.2 15.8 44.7 15.9 44.1 15.8C42 15.7 41.1 16.6 41.2 18.8C41.3 22.7 41.2 26.5 41.2 30.4C41.2 33.9 41.2 37.5 41.2 41C41.2 44.5 41.4 44.7 44.9 44.9C45.3 44.9 45.7 44.9 46.1 44.9C50.2 44.9 50.5 44.6 50.7 40.6C50.8 38.9 51.4 38.2 53.1 38.2C55.8 38.3 58.5 38.3 61.1 38.1C62.5 38 63.8 37.4 63.7 35.7C63.6 34.2 62.3 33.8 60.9 33.8Z" fill="#666666"/>
<path d="M65.1 30.6C65.1 26.6 65.2 22.6 65.1 18.6C65.1 16.8 65.8 16 67.6 16C70 16.1 72.5 16 74.9 16C76.4 16 77.2 16.6 77.2 18.2C77.2 26.1 77.2 34.1 77.3 42C77.3 43.9 76.5 44.8 74.7 44.8C72.3 44.8 69.8 44.8 67.4 44.8C65.8 44.8 65.1 44 65.1 42.3C65.2 38.5 65.1 34.5 65.1 30.6Z" fill="#1488CC"/>
</g>
<defs>
<clipPath id="clip0">
<rect width="113.1" height="64.4" fill="white"/>
</clipPath>
</defs>
</svg>
