<svg width="58" height="96" viewBox="0 0 58 96" fill="none" xmlns="http://www.w3.org/2000/svg">
<path d="M13.3911 17.4701C12.7088 15.3292 11.2588 13.6164 10.747 11.3898C9.55289 6.93666 10.747 3.59678 14.5 1.54147C18.3382 -0.599473 21.9205 -0.0856455 25.1617 3.16859C26.7823 4.79571 27.8058 6.76538 29 8.82069C30.2794 6.76538 31.3882 4.79571 32.9235 3.08295C35.9941 -0.0856457 39.3205 -0.856386 42.5617 0.856371C46.4 2.91168 48.1911 6.67974 47.1676 10.9616C46.6558 13.3595 45.6323 15.5004 44.097 17.727C47.5941 17.9839 50.8352 18.4121 53.65 19.9536C58.5117 22.6084 59.3647 28.6887 55.4411 32.0285C53.65 33.57 51.4323 34.3408 49.1294 34.7689C47.6794 35.1115 46.0588 35.1971 44.3529 35.4541C45.547 37.7663 46.997 39.9929 47.5088 42.562C48.2764 46.6726 46.997 49.5843 43.6705 51.554C40.0882 53.6093 36.5911 53.2667 33.5205 50.5263C32.8382 49.9268 32.2411 49.3274 31.6441 48.7279C30.7911 47.3577 29.9382 45.9019 29.0852 44.446C28.3176 45.2168 27.9764 46.0731 27.6352 46.8439C26.697 48.0428 25.7588 49.2417 24.7352 50.355C21.8352 53.3524 18.6794 53.8662 15.4382 52.0678C11.7705 50.0981 9.97936 46.587 10.6617 42.7333C11.1735 40.0785 12.3676 37.7663 13.8176 35.3684C11.2588 35.2828 8.95583 35.5397 6.73819 34.8546C1.87642 33.3131 -0.938285 28.2605 0.341127 23.2078C1.19407 19.6967 3.92348 18.4121 6.99407 17.8983C9.12642 17.6414 11.2588 17.6414 13.3911 17.4701C13.4764 17.5557 13.4764 17.6414 13.5617 17.727C13.5617 17.6414 13.647 17.5557 13.5617 17.5557C13.4764 17.5557 13.3911 17.5557 13.3911 17.4701ZM28.9147 36.7386C34.6294 36.7386 39.2352 32.2855 39.2352 26.719C39.2352 21.0669 34.7999 16.785 29.0852 16.4425C24.0529 16.0999 18.5941 20.81 18.5941 26.6334C18.6794 32.1998 23.2852 36.7386 28.9147 36.7386Z" fill="#1488CC"/>
<path d="M19.1059 73.3916C14.0735 75.7895 8.95587 74.6762 5.54411 70.223C2.04705 65.6842 1.10882 60.2034 0.511756 54.7226C0.341168 53.1811 1.62058 53.0955 2.64411 53.2667C7.33529 54.1231 12.0265 55.1508 16.2059 57.5486C22.0059 60.9741 23.4559 64.4853 21.6647 70.9081C20.7265 71.6789 20.2147 72.8778 19.1059 73.3916Z" fill="#CCCCCC"/>
<path d="M36.6764 71.5076C34.2882 64.7422 35.9088 60.5459 42.3911 57.2061C45.7176 55.4933 49.1294 54.0375 52.9676 54.0375C53.3088 54.0375 53.65 53.6949 53.9911 53.5236C56.3794 52.5816 57.5735 53.5236 57.2323 56.0071C56.7206 59.9465 55.9529 63.7145 54.1617 67.3113C52.2853 70.9938 49.5559 73.8198 45.2911 74.5905C43.3294 74.9331 41.5382 74.5905 39.6617 73.9054C38.4676 73.3916 37.6147 72.364 36.6764 71.5076Z" fill="#CCCCCC"/>
<path d="M36.6764 71.5076C37.6147 72.3639 38.4676 73.3916 39.747 73.8198C37.4441 76.132 35.3117 78.5299 32.9235 80.8421C31.8147 81.9554 31.4735 83.0687 31.3882 84.6102C31.3029 88.1213 31.8147 91.6325 31.1323 95.058C30.9617 95.2292 30.8764 95.4862 30.7058 95.6574C28.5735 96.4282 27.7205 96 27.7205 93.859C27.6352 90.6904 27.6352 87.5218 27.7205 84.2676C27.7205 82.8974 27.3794 81.8697 26.4411 80.9277C23.9676 78.5299 21.5794 75.8751 19.1058 73.3916C20.3 72.8778 20.7264 71.5932 21.6647 70.9081C23.4558 72.7921 25.247 74.6762 27.0382 76.5602C27.2088 76.4746 27.3794 76.3889 27.6352 76.3033C27.6352 66.5406 27.6352 56.7779 27.6352 47.0152C27.9764 46.2444 28.2323 45.388 29.0852 44.6173C29.9382 46.0731 30.7911 47.4433 31.6441 48.8992C31.6441 58.0624 31.6441 67.2257 31.6441 76.3033C31.8147 76.3889 31.9852 76.5602 32.1558 76.6458C33.6058 74.9331 35.1411 73.2203 36.6764 71.5076Z" fill="#666666"/>
<path d="M30.7059 95.6574C30.8765 95.4862 30.9618 95.2293 31.1323 95.058C30.9618 95.2293 30.7912 95.4862 30.7059 95.6574Z" fill="#73A000"/>
<path d="M28.9147 36.7386C23.2853 36.7386 18.6794 32.1998 18.5941 26.6333C18.5088 20.81 24.0529 16.0999 29.0853 16.4424C34.8 16.785 39.2353 21.0669 39.2353 26.719C39.2353 32.2854 34.6294 36.7386 28.9147 36.7386Z" fill="#CCCCCC"/>
<path d="M13.3911 17.4701C13.4764 17.4701 13.5617 17.4701 13.5617 17.5557C13.5617 17.5557 13.5617 17.6414 13.5617 17.727C13.4764 17.6414 13.4764 17.5557 13.3911 17.4701Z" fill="#FEFEFD"/>
</svg>
