<svg width="26" height="26" viewBox="0 0 26 26" fill="none" xmlns="http://www.w3.org/2000/svg">
<path d="M14.4259 21.0045L17.7797 17.6506C18.1224 17.308 18.6614 17.2603 19.0589 17.5375L23.9139 20.9236C24.4245 21.2797 24.4891 22.0108 24.0489 22.4509L23.0708 23.4291C22.3605 24.1394 21.3409 24.4461 20.3803 24.1525C17.9036 23.3955 12.9217 21.4733 8.82707 17.3787C4.73248 13.2841 2.8103 8.30217 2.05332 5.82547C1.75972 4.86487 2.06641 3.84526 2.77667 3.135L3.75485 2.15683C4.19502 1.71666 4.92607 1.7813 5.28217 2.29188L8.66826 7.14687C8.94548 7.54434 8.89781 8.08337 8.55515 8.42603L5.20129 11.7799" stroke="white" stroke-width="2" stroke-linecap="round"/>
</svg>
