<svg width="49" height="83" viewBox="0 0 49 83" fill="none" xmlns="http://www.w3.org/2000/svg">
<g clip-path="url(#clip0)">
<path d="M15.6184 4.10583L8.21176 2.81772V1.61012L15.6184 0.241505V4.10583Z" fill="#0B6C22"/>
<path d="M19.0802 2.17368C19.1607 1.12709 18.3556 0.161007 17.309 -6.87502e-06C16.2624 -0.0805137 15.2963 0.724555 15.1353 1.77114C15.1353 1.93216 15.1353 2.01266 15.1353 2.17368V10.9489H19.0802V2.17368Z" fill="#5A5A5A"/>
<path d="M10.7075 31.7197H6.44061V15.2158C6.44061 11.6735 9.33886 8.77521 12.8812 8.77521H21.4954C25.0377 8.77521 27.9359 11.6735 27.9359 15.2158V17.8725H23.6691V15.2158C23.6691 14.0082 22.703 13.0421 21.4954 13.0421H12.8007C11.593 13.0421 10.7075 14.0082 10.7075 15.2158V31.7197Z" fill="#666666"/>
<path d="M47.9821 28.9019H4.26691L5.23299 31.7196L6.19907 34.5374L18.7581 70.7655C19.7242 73.6637 22.4614 75.5959 25.5207 75.5154H48.0626C47.4991 60.0581 48.6262 44.3592 47.9821 28.9019Z" fill="#1488CC"/>
<path d="M2.09324 26.0037C0.966143 26.0037 6.10352e-05 26.9698 6.10352e-05 28.0969V29.546C6.10352e-05 30.7536 0.966143 31.6392 2.17375 31.6392H48.1431C48.0626 29.7875 47.9821 27.8553 47.9016 26.0037H2.09324Z" fill="#CCCCCC"/>
<path d="M5.233 31.7197L6.19908 34.5374H48.0626C48.0626 33.5713 48.0626 32.6052 47.9821 31.7197H5.233Z" fill="#E9E9E9"/>
<path d="M33.4104 70.202C33.4104 72.0536 31.8807 73.5027 30.1096 73.5027C28.2579 73.5027 26.8088 71.9731 26.8088 70.202C26.8088 68.3503 28.2579 66.9012 30.1096 66.9012C31.9612 66.9012 33.4104 68.3503 33.4104 70.202Z" fill="#E9E9E9"/>
<path d="M33.5714 70.202H26.8893V79.0577H33.5714V70.202Z" fill="#E9E9E9"/>
<path d="M35.7451 82.6H24.6351V81.8754C24.6351 80.2653 25.9232 79.0577 27.4529 79.0577H32.8468C34.3765 79.0577 35.6646 80.3458 35.6646 81.8754L35.7451 82.6Z" fill="black"/>
<path d="M29.063 16.5038H22.4615V19.3216H29.063V16.5038Z" fill="#1488CC"/>
<path d="M18.6776 4.10583L26.0843 2.81772V1.61012L18.6776 0.241505V4.10583Z" fill="#0B6C22"/>
</g>
<defs>
<clipPath id="clip0">
<rect width="48.2236" height="82.6" fill="white"/>
</clipPath>
</defs>
</svg>
