<svg width="73" height="77" viewBox="0 0 73 77" fill="none" xmlns="http://www.w3.org/2000/svg">
<g clip-path="url(#clip0)">
<path d="M72.2 17.7H0V76.4H72.2V17.7Z" fill="#CCCCCC"/>
<path d="M72.2 0H0V17H72.2V0Z" fill="#CCCCCC"/>
<path d="M35.6 65C46.9771 65 56.2 55.7771 56.2 44.4C56.2 33.0229 46.9771 23.8 35.6 23.8C24.2229 23.8 15 33.0229 15 44.4C15 55.7771 24.2229 65 35.6 65Z" fill="#1488CC"/>
<path d="M72.2 17H0V17.8H72.2V17Z" fill="#4C4C4C"/>
<path d="M35.6 57.8C43.0006 57.8 49 51.8006 49 44.4C49 36.9994 43.0006 31 35.6 31C28.1994 31 22.2 36.9994 22.2 44.4C22.2 51.8006 28.1994 57.8 35.6 57.8Z" fill="#F4F4F4"/>
<path d="M59.5 46.8C59.5 48.1 58.5 49.1 57.2 49.1H48.2C46.9 49.1 45.9 48.1 45.9 46.8V41.9C45.9 40.6 46.9 39.6 48.2 39.6H57.2C58.5 39.6 59.5 40.6 59.5 41.9V46.8Z" fill="#666666"/>
<path d="M66 61.9H55.4V71.3H66V61.9Z" fill="#666666"/>
<path d="M36.1 12.9C38.5301 12.9 40.5 10.9301 40.5 8.5C40.5 6.06995 38.5301 4.1 36.1 4.1C33.6699 4.1 31.7 6.06995 31.7 8.5C31.7 10.9301 33.6699 12.9 36.1 12.9Z" fill="#666666"/>
<path d="M22.5 6.3H7.5V10.7H22.5V6.3Z" fill="#666666"/>
<path d="M50.6 7C51.5941 7 52.4 6.19411 52.4 5.2C52.4 4.20589 51.5941 3.4 50.6 3.4C49.6059 3.4 48.8 4.20589 48.8 5.2C48.8 6.19411 49.6059 7 50.6 7Z" fill="#666666"/>
<path d="M64.4 7C65.3941 7 66.2 6.19411 66.2 5.2C66.2 4.20589 65.3941 3.4 64.4 3.4C63.4059 3.4 62.6 4.20589 62.6 5.2C62.6 6.19411 63.4059 7 64.4 7Z" fill="#666666"/>
<path d="M57.5 11.8C58.4941 11.8 59.3 10.9941 59.3 10C59.3 9.00588 58.4941 8.2 57.5 8.2C56.5059 8.2 55.7 9.00588 55.7 10C55.7 10.9941 56.5059 11.8 57.5 11.8Z" fill="#666666"/>
</g>
<defs>
<clipPath id="clip0">
<rect width="72.2" height="76.4" fill="white"/>
</clipPath>
</defs>
</svg>
