<svg width="22" height="18" viewBox="0 0 22 18" fill="black" xmlns="http://www.w3.org/2000/svg">
<path d="M2.8125 3.8125C2.8125 3.5625 2.6875 3.25 2.5 3.125L0.5625 0.75V0.375H6.6875L11.375 10.75L15.5625 0.375H21.375V0.75L19.6875 2.375C19.5625 2.4375 19.5 2.625 19.5 2.8125V14.6875C19.5 14.875 19.5625 15.0625 19.6875 15.1875L21.375 16.75V17.125H13.0625V16.75L14.75 15.125C14.9375 14.9375 14.9375 14.875 14.9375 14.625V5.0625L10.1875 17.0625H9.5625L4.0625 5.0625V13.125C4 13.4375 4.125 13.8125 4.375 14.0625L6.5625 16.75V17.0625H0.3125V16.75L2.5 14.0625C2.75 13.8125 2.875 13.4375 2.8125 13.125V3.8125Z" fill="white"/>
</svg>
